<svg xmlns="http://www.w3.org/2000/svg" viewBox="0 0 245.94 380.07"><defs><style>.cls-1{fill:#fff;}</style></defs><title>Margaery</title><g id="Layer_2" data-name="Layer 2"><g id="Layer_2-2" data-name="Layer 2"><path class="cls-1" d="M151.81,131c6.18-2.74,21.52-15.76,26.94-6.78a.05.05,0,0,0,.09-.06c-5.49-9.33-21.14,4-27.09,6.73C151.67,130.89,151.74,131,151.81,131Z"/><path class="cls-1" d="M179.81,125.23a.11.11,0,0,0,0,.22A.11.11,0,0,0,179.81,125.23Z"/><path class="cls-1" d="M179,132.75a.35.35,0,0,0,0-.08l.11,0a.43.43,0,0,0,.58.17s0,0,0,0a1.4,1.4,0,0,0,.34.18c.21.08.31-.19.2-.33a8,8,0,0,0-.76-.66l-.2-.17a.21.21,0,0,0,.06-.17c-.45-4.13-2.25-7.67-7.11-6.67-8.4,1.71-15.5,6.58-23.33,9.81a.16.16,0,0,0,.09.31,31.27,31.27,0,0,0,7.11-2.39,4.7,4.7,0,0,1-3.74,1.8s-.06.09,0,.1a4.75,4.75,0,0,0,4.27-1.75l.66-.35a7,7,0,0,1-1.12,1.67s0,0,0,0a8.82,8.82,0,0,0,1.75-2l.21-.12a3.62,3.62,0,0,0-.24,1.11c0,.22.33.22.35,0,0-.49.31-.89.38-1.36,1.58-.82,3.5-1.78,5.53-2.63a1.57,1.57,0,0,1,.84.46c-.22,2.37,2.46,4.87,4.57,5.53.13,0,.18-.16,0-.2a5.6,5.6,0,0,1-3.65-5,9.79,9.79,0,0,1,1.46-1.18,2.91,2.91,0,0,1,1.25-.54h0a2.72,2.72,0,0,1,.35.16l.3.14h0a2.7,2.7,0,0,0,2.27,3.27s0,0,0,0a.62.62,0,0,0,.25.11.3.3,0,0,0,.31-.1c.94-.22,2.22-1.44,2-2.43a2.6,2.6,0,0,1,.41-.53,4.28,4.28,0,0,1,.57-.1.22.22,0,0,0,.18.3,5.42,5.42,0,0,1,.7.14.22.22,0,0,0,.22-.09l.05,0h0c-.25,2.55-.89,5.63-3.9,5.79a.05.05,0,1,0,0,.1c2.58.07,4.73-3.43,4.75-6.09,0-.06,0-.13,0-.2a5.65,5.65,0,0,1,1,1.8.14.14,0,0,0,.11.07c.11.24.22.51.33.77a1.37,1.37,0,0,0,.35.78l-.12.08,0,0H179l-.06-.05a.13.13,0,0,0-.14-.12.73.73,0,0,1-.46-.05c-.08-.05-.17.07-.1.14a.53.53,0,0,0,.1.06.34.34,0,0,0-.17.35c-.6.49-1.2,1-1.8,1.42-5.18,2.9-12.27,2.24-17.06-1.22a.15.15,0,0,0,.17-.17.74.74,0,0,1,0-.33.19.19,0,0,0-.35-.14c-.13.21-.09.28,0,.52-.09-.06-.18.08-.11.15a13.47,13.47,0,0,0,2,1.52,10.65,10.65,0,0,0-2-.5c-.06,0-.11.07,0,.1,3.78,1.68,7.41,3.89,11.66,3.77C173.92,137.64,176.74,135,179,132.75Zm-7.84-4.82c0,.08,0,.16,0,.24,0-.09,0-.17,0-.26Zm-1.91-.47a1,1,0,0,0,.07.15l-.25-.11Zm5.46.59v0l0,0Zm-.08-.53v.1c0-.05,0-.1-.05-.15Zm-.12-.33h0a.13.13,0,0,0,0,.06.27.27,0,0,0,0,.09,2.12,2.12,0,0,0-.11-.21l.1,0Zm-2.1,1.45a1,1,0,0,1-.12-.65h0a.4.4,0,0,0,.06-.23,1.66,1.66,0,0,1,.45-.68s0,0,.07,0a.9.9,0,0,1,1.06.54,1.13,1.13,0,0,1-.15,1.2A.93.93,0,0,1,172.4,128.64Zm1.26,1.18a.46.46,0,0,0-.1-.18l.14,0C173.69,129.68,173.67,129.75,173.66,129.82Zm-6.46,6.81a14.79,14.79,0,0,0,2.57.16l-.42.05A8.14,8.14,0,0,1,167.2,136.63Z"/><path class="cls-1" d="M158.37,114c-3.78,1.91-7.81,3.19-11.61,5a.17.17,0,0,0,.13.32,89,89,0,0,0,9.42-3.29c3.54-1.47,6.37-3.65,10.41-3.52a.16.16,0,0,0,.18-.16,8.28,8.28,0,0,0,1.55.89c.15.06.24-.1.21-.22a4.32,4.32,0,0,0,1.16.68c.29.1.42-.31.2-.47-.92-.64-1.92-1.16-2.85-1.78-.12-.08-.26.1-.15.19.46.36.89.78,1.33,1.16-.59-.35-1.23-.62-1.82-1-.13-.08-.25.13-.12.21l.1.06A13.89,13.89,0,0,0,158.37,114Z"/><path class="cls-1" d="M166.6,113a.13.13,0,0,0,0-.26l-1.9,0a.09.09,0,0,0,0,.18Z"/><path class="cls-1" d="M169.23,111.57c-.23-.12-.44.23-.2.36,1.29.68,2.47,1.52,3.7,2.3.35.23.69-.2.53-.52l.07.07a.38.38,0,0,0,.49-.37c.43.29.86.59,1.3.86a.43.43,0,0,0,.57-.14l.56.41a.44.44,0,0,0,.66-.29l.49.5a.5.5,0,0,0,.82-.28l.57.54a.49.49,0,0,0,.82-.28l.23.07,0,0a.43.43,0,0,0,.32.07l.62.22h0a4.83,4.83,0,0,1-.91-.22.13.13,0,0,0-.1.23,5.38,5.38,0,0,0,2.34.57l0,0a.41.41,0,0,0,.57.07,15.5,15.5,0,0,0,4.46,1.09.44.44,0,0,0,.3-.1.34.34,0,0,0,.48-.06.26.26,0,0,0,.31.09l.08,0h0l0,0a.54.54,0,0,0,.15-.09,1,1,0,0,0,.41-1.33,2.5,2.5,0,0,0-.65-.9,3.47,3.47,0,0,0-.42-.34l-.13-.18s-.1,0-.13,0l-.15-.1a.29.29,0,0,0-.44.15.3.3,0,0,0-.23,0l-.22-.31c-.21-.28-.76-.12-.61.26l-.23.11c-.42-.19-.8-.34-1.07-.43l-.13-.18a.31.31,0,0,0-.57.22.54.54,0,0,0-.16.32l-.6-.72a.46.46,0,0,0-.76.13.51.51,0,0,0-.79.14l-.13-.18a.51.51,0,0,0-.87,0l-.6-.64a.51.51,0,0,0-.84.25l-.3-.25a.47.47,0,0,0-.81.31l-.6-.55a.5.5,0,0,0-.81.23c-.2-.2-.39-.4-.59-.59a.46.46,0,0,0-.73.55,1.11,1.11,0,0,1,.07.16c-.24-.17-.48-.34-.71-.52a.44.44,0,0,0-.64.26L173,111.9c-.34-.22-.8.23-.56.56.42.6.49.7.2.3a.4.4,0,0,0-.44.58C171.77,112.49,170.14,112,169.23,111.57Z"/><path class="cls-1" d="M189.32,114.48c-.06,0-.18,0-.13.1a3.66,3.66,0,0,1,.44.77,2,2,0,0,1,0,1c0,.15.21.19.28.07A1.55,1.55,0,0,0,189.32,114.48Z"/><path class="cls-1" d="M191.39,116.45a12.41,12.41,0,0,1-1.87,1.16c-.17.09,0,.35.16.27a5.36,5.36,0,0,0,1.87-1.22C191.64,116.55,191.52,116.35,191.39,116.45Z"/><path class="cls-1" d="M180.48,132.3a.38.38,0,0,0,0-.75h-.07c.1-2.08.13-4.2-.89-6.08,0-.06-.12,0-.09.06.88,1.94.72,4,.8,6,0,0,0,0,0,0A.38.38,0,0,0,180.48,132.3Z"/><path class="cls-1" d="M182.17,129.54a.15.15,0,0,0,0-.3A.15.15,0,0,0,182.17,129.54Z"/><path class="cls-1" d="M186.77,165.69c0-.05-.09,0-.08,0,.91,3.85,5.57,6.19,9.14,4.14.3-.17.1-.67-.23-.56C192.06,170.53,187.86,169.85,186.77,165.69Z"/><path class="cls-1" d="M199.92,167.69H200a5.25,5.25,0,0,1,1.7-.47,6.12,6.12,0,0,0,3-.37c.29.2.57.42.85.63s.57-.17.41-.4a4,4,0,0,0-.7-.8.23.23,0,0,0-.18-.15c-1.46-1.13-3.14-.26-4.78.8a.12.12,0,0,0-.1.06,11.53,11.53,0,0,1-3.47,1.84c-.1,0-.08.18,0,.17A7.36,7.36,0,0,0,199.92,167.69Zm2.71-1.31-.12,0h0Z"/><path class="cls-1" d="M234.43,128.09c.07.1.23,0,.16-.09a7.64,7.64,0,0,0-2.36-2.65c.83,0,1.57-.21,1.83-1,0-.09-.1-.16-.17-.09-.92.93-2.45.31-3.66-.06a1.91,1.91,0,0,0-.78-.85l-.11-.19a.07.07,0,0,0-.12.06v0c-1.29-.52-3.24.33-4.64,1-.22.07-.45.13-.67.22s-.19.08-.29.12a16.55,16.55,0,0,1,4.61-1.74.13.13,0,0,0,0-.26,9,9,0,0,0-5.58,2.46v0a43.31,43.31,0,0,0-4.53,3.27,20.8,20.8,0,0,1-6.23,2.63.14.14,0,0,0,0,.27,14,14,0,0,0,4.54-1.2,1.15,1.15,0,0,0-.15.72c0,.1.15.13.17,0a1.32,1.32,0,0,1,.77-.93.16.16,0,0,0,.08-.22c.8-.39,1.6-.82,2.4-1.27l1.67-.92c-.91,2.49,2.1,5.57,4.34,6.3a.08.08,0,0,0,.06-.14c-2.22-1-4.17-3.53-3.51-5.92a0,0,0,0,0,0,0c.53-.53.93-.87,1.71-.72a3.06,3.06,0,0,1,.83.3,3.59,3.59,0,0,0,1.6,3.52,1.52,1.52,0,0,0,2.11-.4,2.16,2.16,0,0,0,.38-.42,2.86,2.86,0,0,0,.48-1.48,2.94,2.94,0,0,0,.48-.56s0,0,0,0c.18.08.29.24.46.33s.31-.08.21-.21a.56.56,0,0,0-.64-.23.91.91,0,0,1,.17-.17.16.16,0,0,0,.15.09c.11,0,.28.2.36.28,0,2.79-.39,6.34-3.19,5.66a.08.08,0,0,0,0,.16c1.89.57,2.92-1.19,3.47-2.73a11.59,11.59,0,0,0,.66-4.34c.29.42.61.83.92,1.22.12.14.26.33.42.51a12.58,12.58,0,0,0-.54,1.49s-.07,0-.1,0a9.35,9.35,0,0,0-.51,1.46c-2.09,6.28-11,.72-15-.5a.11.11,0,0,0-.06.22c1.07.38,2.49,1.12,4,1.86a.06.06,0,0,0,0,.06c3.49,1.49,7.69,5.22,10.35.87a.2.2,0,0,0,.14-.09,9,9,0,0,0,1-3.1c0,.11,0,.22,0,.33a.07.07,0,1,0,.13,0,13.81,13.81,0,0,1,.73-2.45.78.78,0,0,0,.68.27.1.1,0,0,0,0-.19.65.65,0,0,1-.43-.29,4,4,0,0,0-.62-2.11A6.2,6.2,0,0,1,234.43,128.09Zm-6.32.25-.06.07-.06-.17a.71.71,0,0,0,0-.14,1,1,0,0,0,.23.12A.4.4,0,0,0,228.11,128.34Zm1.09-.75a.78.78,0,0,1-1.23-.44,1.4,1.4,0,0,1,.3-1.11h0a6.44,6.44,0,0,0,1,0,.73.73,0,0,1,.26.42A1.25,1.25,0,0,1,229.2,127.59Zm.83-1.77h0s0,0,0,0a.08.08,0,0,1,0,0Zm-6.12.36v0h-.07Zm1.12.3h.05v0l-.07,0Zm5.13.4,0,0,0,.13-.08,0Zm-.75-2.9a8,8,0,0,0-3-.15A3.13,3.13,0,0,1,229.41,124Z"/><path class="cls-1" d="M236.17,113.65a1.25,1.25,0,0,0-1.87-.54.09.09,0,0,0,.07.16c.75-.28,1,.14,1.59.55A.15.15,0,0,0,236.17,113.65Z"/><path class="cls-1" d="M234.88,113.43a9.73,9.73,0,0,0-1.49-.32,4.1,4.1,0,0,0,1.15-.91c.18-.23-.06-.63-.34-.43l-.39.27a.34.34,0,0,0-.56-.12c-.22.2-.45.37-.68.56a.54.54,0,0,0-.22-.13v-.18a.37.37,0,0,0-.63-.26l-.27.29a.28.28,0,0,0-.41-.2,25.05,25.05,0,0,0-2.88,1.56l-.7.16a12.41,12.41,0,0,0,1.81-1.39c.19-.17-.05-.49-.28-.36a34,34,0,0,0-2.81,2l-.62.13a6.12,6.12,0,0,0,.9-1c.16-.24-.2-.5-.4-.3l-.68.59a.33.33,0,0,0-.5-.22,5.65,5.65,0,0,0-.68.59.43.43,0,0,0-.47-.1.36.36,0,0,0-.55-.32h0c.15-.35-.29-.79-.57-.44l-.71.87a.32.32,0,0,0-.45,0c-.2.19-.38.38-.56.57a.15.15,0,0,0-.19,0c-.21.27-.39.56-.58.85,0-.07,0-.14,0-.21a.26.26,0,0,0-.48-.13,7.51,7.51,0,0,1-1.18,1.34h-.11c0-.07,0-.14,0-.21a.16.16,0,0,0-.25-.13l-.4.29a.37.37,0,0,0-.36.26c-.8.57-1.59,1.16-2.4,1.71-.08.06,0,.19.08.14.78-.52,1.57-1,2.36-1.54a.31.31,0,0,0,.12.1,8,8,0,0,1,1,.56.43.43,0,0,0,.52-.07c.12-.1.25-.18.37-.27a.16.16,0,0,0,.14-.06l.08-.11a9.1,9.1,0,0,1,2.62-1.25c0,.32.39.62.64.31s.29-.37.44-.55a.39.39,0,0,0,.63,0l.1-.14.74-.13-.21.16a.11.11,0,0,0,.11.18l.76-.45.33-.06c1.52-.24,2.88-.67,4.25-1,.07.13.22.21.33.07l.15-.18a11.43,11.43,0,0,1,4.4-.23A.09.09,0,0,0,234.88,113.43Zm-15.24,2.26,0,.11-.29.16A3.31,3.31,0,0,0,219.64,115.69Zm12-2.9a.41.41,0,0,0,.22.23h-.55C231.41,113,231.52,112.86,231.63,112.79Zm.5.22s0,0,0,0Z"/><path class="cls-1" d="M214.06,119.6a.19.19,0,0,0,.38,0,2.29,2.29,0,0,0-.29-1.22c0-.08-.18,0-.14.06A4.48,4.48,0,0,1,214.06,119.6Z"/><path class="cls-1" d="M211.62,121.24c.43-.26.84-.54,1.25-.84a.14.14,0,0,0,.18-.12h0l.49-.37c.16-.13,0-.41-.23-.29l-.3.21a2.24,2.24,0,0,0-.18-.61.11.11,0,0,0-.2.08,2.29,2.29,0,0,1,.11.72c-.44.32-.88.65-1.29,1C211.33,121.13,211.49,121.33,211.62,121.24Z"/><path class="cls-1" d="M215.31,128.45c4.13-2.3,6.85-6.36,11.46-7.91a.1.1,0,0,0-.05-.19c-4.68,1.33-7.36,5.69-11.49,8A.08.08,0,0,0,215.31,128.45Z"/><path class="cls-1" d="M228.77,120.64s0,0,0,0A0,0,0,0,0,228.77,120.64Z"/><path class="cls-1" d="M234.11,122.75a6.33,6.33,0,0,0-6.36-2.35,0,0,0,0,0,0,.09,7.35,7.35,0,0,1,6.16,2.4C234,123,234.19,122.86,234.11,122.75Z"/><path class="cls-1" d="M219.62,193a.18.18,0,0,0,.32-.18,2.48,2.48,0,0,0-2.94-1.36,9.79,9.79,0,0,0-1.73.45,2.62,2.62,0,0,0,.25-.22s0-.15-.07-.1a10,10,0,0,1-.87.57l-.58.2-.07,0a6.73,6.73,0,0,0,1.58-1.27.05.05,0,0,0-.07-.08,10.51,10.51,0,0,1-2.14,1.37.23.23,0,0,0-.28,0l-.05,0a5.71,5.71,0,0,0-.58,0,.09.09,0,0,0-.07.11c-.55.08-1.09.22-1.63.35l-1,0a.05.05,0,0,0,0,0c-2.35-.5-5.25.59-6.79-1.86a.08.08,0,0,0-.14.08,3.8,3.8,0,0,0,1.83,1.64l-.69-.06-.26-.1a6,6,0,0,1-1.21-.8.06.06,0,0,0-.09.07,2.48,2.48,0,0,0,.73.75c-6.13-.62-12.25-1.92-18.42-.48a.27.27,0,0,0-.31-.31,4.3,4.3,0,0,0-1.66.78,6,6,0,0,1-2.23,1,.13.13,0,0,0,0,.25c1.21-.06,2.26-.82,3.38-1.29,4.68-.92,9.41-.28,14.13,0,1.8.1,3.6.46,5.4.72a5.57,5.57,0,0,0,1.2.31h.1a11.64,11.64,0,0,0,5.15.35,7.83,7.83,0,0,0,2.85-.57,5.31,5.31,0,0,0,1.38-.55l.15,0C215.89,192.45,218.22,191,219.62,193Zm-7-.32h0a.14.14,0,0,0,0-.07h.12Z"/><path class="cls-1" d="M215.35,197.13c-8,5.52-16.77,1.59-25.22-.61a.07.07,0,0,0,0,.14c2.91.93,5.73,2,8.49,2.76,2.73,1.38,5.35,3.34,8.3,4l.23,0a5.45,5.45,0,0,1-3.44-.43,14.57,14.57,0,0,1-4.65-2.67.06.06,0,0,0-.09.09c.8.79,4.56,3.43,7.16,3.92a6.19,6.19,0,0,1-6.24-2.07s-.12,0-.07.08c2.28,2.67,6.36,3.73,9.05,1.39a3.92,3.92,0,0,0,1.76-1.07,11.2,11.2,0,0,0,1.46-1.82,4.35,4.35,0,0,0,.87-1.66.17.17,0,0,0-.08-.19,18.65,18.65,0,0,0,2.68-1.61C215.69,197.29,215.53,197,215.35,197.13Zm-7.24,5.39v-.06s0,0,0,0a.33.33,0,0,0,.1.06h0Zm-2-1.2a.36.36,0,0,0,.35.19l.24,0-.08.06a4.72,4.72,0,0,1-1-.29Zm1.53,1.25.06,0v.06h0Zm-4.84-2.19-.06,0h.06Zm6.94,2.13h0Zm1.72-2.89h-.06l.07,0Zm-9.83.55a.28.28,0,0,0-.09.1l-.49-.22Zm10.25-.37,0,0v0a.19.19,0,0,0-.07-.26l.38-.15A4.71,4.71,0,0,0,211.91,199.8Z"/><path class="cls-1" d="M216.74,195.92a.17.17,0,0,0,0,.33l.16,0a.2.2,0,1,0,0-.39Z"/><path class="cls-1" d="M190.26,189.93c-.1,0-.06.17,0,.15a32.48,32.48,0,0,0,8.16-2.23c2.74-1.17,5.13-2.32,8.13-1a5.2,5.2,0,0,0,2.09.45c.17,0,.21-.27,0-.3-2.82-.48-4.3-1.85-7.22-1-1.85.57-3.62,1.8-5.43,2.5A30.56,30.56,0,0,1,190.26,189.93Z"/><path class="cls-1" d="M217.9,188.73c.07.09.2,0,.15-.12-.76-1.43-1.71-2.82-3.37-3.21-1.9-.44-3.06,1.76-5,1.53,0,0-.05.07,0,.08a3.23,3.23,0,0,0,2.81-.75C214.88,184.7,216.57,187.1,217.9,188.73Z"/><path class="cls-1" d="M132.89,215.66c-11.23-7.36-17.19-18.46-22.81-30.26,0-.11-.23,0-.18.07,4.58,12,10.79,24.57,22.78,30.55A.21.21,0,0,0,132.89,215.66Z"/><path class="cls-1" d="M138.36,218.88a57.18,57.18,0,0,0,7,3.92c.15.07.22-.16.11-.24-2.15-1.53-4.82-2.47-7.16-3.69C138.35,218.87,138.35,218.88,138.36,218.88Z"/><path class="cls-1" d="M104.82,141.77a26.72,26.72,0,0,0,.68,3.1c.1.24.45.06.4-.17a26.09,26.09,0,0,0-.7-3C105.12,141.43,104.75,141.53,104.82,141.77Z"/><path class="cls-1" d="M235.57,110.14c.3,0,.34.34.35.6s.42.25.4,0c0-.45-.21-.89-.71-.94C235.42,109.79,235.37,110.12,235.57,110.14Z"/><path class="cls-1" d="M210.71,48.78a.07.07,0,1,0,0,.15A.07.07,0,1,0,210.71,48.78Z"/><path class="cls-1" d="M210.71,50.41a.14.14,0,0,0,0,.27A.14.14,0,0,0,210.71,50.41Z"/><path class="cls-1" d="M205.63,315c3.63-2.37-.07-8.73-1.44-11.22a.61.61,0,0,0-1.09,0,6.08,6.08,0,0,0-1-.47,3,3,0,0,1,2.37-2.25.68.68,0,0,0,.48-.84,6.17,6.17,0,0,0-2.47-3.34c-3.26-2.26-4.28-4.71-4.44-8.64a.16.16,0,0,0-.32,0c-.08,2.08-.29,4.43.73,6.34,1.19,2.23,3.81,3.17,4.9,5.38-1.65.6-2.38,1.74-2.77,3.63a.7.7,0,0,0,.49.86,16.83,16.83,0,0,1,2.37.87c1.81,4,3.75,8.83-2.38,9-3.19.11-6.41-.36-9.6-.43-.67,0-1.3.87-.84,1.47,13.58,17.71,33.59,40.07,27.57,64.27a.29.29,0,0,0,.56.15c6.88-23.69-10.72-46.48-25.13-63.83C197.6,316.34,202.44,317.12,205.63,315Z"/><path class="cls-1" d="M208.41,301.2c-.7,0-1.4,0-2.09.06a.19.19,0,0,0,0,.37c.69,0,1.39.08,2.09.06a.23.23,0,0,0,.23-.25A.22.22,0,0,0,208.41,301.2Z"/><path class="cls-1" d="M245.35,218.49c1.45-5.11.08-10.25-2.41-14.76-1.56-2.82-4-5-5.71-7.73s-1.54-6.44-1.63-9.54a.31.31,0,0,0-.07-.14,2.75,2.75,0,0,1,.55-.82.3.3,0,0,0-.19-.51c3.05-10.87,5-21.83,4.45-32.94.81-7.78-2.06-14.31-3.8-21.72h0a55.53,55.53,0,0,0,1-7.21,9,9,0,0,0-1-6.13.16.16,0,0,0-.29.12c.75,2.85.08,5.43-.43,8.25-.29,1.61-.66,3.33,0,4.85-.09,5.92,2.37,11.64,3.39,17.56.77,13.68-2.26,27.31-6.11,40.42-2.22,7.55-4.86,15-7.1,22.51-.6,2-1.16,4-1.75,5.9.06-.65.12-1.3.17-1.94,0-.21-.35-.27-.38,0a76.4,76.4,0,0,1-1.82,8.23,66.42,66.42,0,0,1-2.55,6.21c-4,5.38-7.87,9-14.52,10.2a.18.18,0,0,0-.27-.11l-.29.2-.88.14c-6.22.8-12.67-.52-18.7-2-12-2.89-24.95-6.36-35.15-13.48-.17-.12-.4.17-.23.3,8.15,6.53,18.07,10.73,28.25,13.6,3.93,2.16,7.87,4.16,12,6,2.09,1,4.83,1.64,6.53,3.24a2.78,2.78,0,0,1-.12.38l-.09.16a.23.23,0,0,0-.34.11,1.94,1.94,0,0,0-.12.53.08.08,0,0,0,0,0c-2.85-2.36-7-2.73-10.13-4.56A81.71,81.71,0,0,0,171.4,237c-.14,0-.19.16-.06.21a69.28,69.28,0,0,1,13.89,7.19c3.23,2,7.5,2.46,10.34,5,.38.33.92-.2.56-.56h0a3.25,3.25,0,0,0,.23-.29c-.14,1.12-.22,2.25-.28,3.32-1.75-1.49-4.24-2.38-6.18-3.25-4.22-1.88-8.2-4.36-12.59-5.83-.11,0-.16.13-.05.17,4.18,1.46,7.76,4,11.68,5.94,2.24,1.13,5.21,2.24,7.06,4.13,0,.25,0,.51-.05.75a.15.15,0,0,0,0,.07v0c-4-2.42-8.61-3.32-12.85-5.16-.1,0-.18.1-.08.14,4.31,2,8.88,3.34,12.87,6,0,.25-.06.5-.1.72a.36.36,0,0,0,.19.39c.05.38.13.75.21,1.13a5.78,5.78,0,0,0-4.25,0c-3,1.35-5.35,2.47-8.57.67-2.18-1.21-4.06-3.06-6.15-4.43-2.7-1.75-6.25-2.31-9.71-2.6a77.06,77.06,0,0,0-8-6.63c-3.84-3.06-6.95-7-10.54-10.38a.08.08,0,0,0-.12.12c3.23,3.11,6.22,6.46,9.31,9.7a97.06,97.06,0,0,0,7.8,7.08c-1.31-.09-2.59-.16-3.78-.25-7.12-.58-14.14-1-21.21-2.17-6-1-16.91-1.89-22.18-6.65a.48.48,0,0,0,.44-.51,33.43,33.43,0,0,0-4.66-17c-2.86-4.86-5.73-10.74-9.69-14.78a0,0,0,1,0-.07.07c3.43,3.83,5.82,9.13,8.35,13.6a39.82,39.82,0,0,1,5,18,9.22,9.22,0,0,1-1.11-1.46.51.51,0,0,0,.22-.42c-.12-11-7.6-20.35-14-28.6-.07-.09-.23,0-.16.12a74.1,74.1,0,0,1,10.46,18.14c-.17-.36-.34-.71-.53-1.06s-.26-.43-.39-.64C110,220.7,103.8,215.7,100,210.17c.5-6,2.33-12.42,1.83-18l1-4.34a20,20,0,0,1-.87,5.11c-.09.32.37.43.49.13,1.41-3.68,2.68-8.82-.77-11.48l.8-.11a3.88,3.88,0,0,1,2.49,2.72,12.44,12.44,0,0,1,.3,4c0,.3.41.28.45,0,.25-2,.42-5.19-1.08-6.85a5.86,5.86,0,0,1,3.48,1.05c.25.18.62-.18.43-.43-.87-1.18-1.85-2.38-3.52-2.3-3.64.17-6.69,1.27-10.44.73-11-1.59-13.62-10.92-19.38-18.6C70,155,66.34,142,72.63,134.75c7-8,17.76,1.71,21.93,7.53A.27.27,0,0,0,95,142a31.33,31.33,0,0,0-2.87-4.74.9.9,0,0,0,0-.4v0c0-.09-.07-.17-.1-.25a.91.91,0,0,0-.22-.31c.28,0,.64.05,1.21.13a15.39,15.39,0,0,1,4.85,1.74,17.08,17.08,0,0,1,4.15,3,.41.41,0,0,0,.28.26,17.46,17.46,0,0,1,1.47,1.75.36.36,0,0,0,.19.25,15.41,15.41,0,0,1,1.6,2.78c.06.12.28,0,.23-.1s-.09-.22-.13-.32a.07.07,0,0,0,0-.12,1.29,1.29,0,0,1-.32-1,.06.06,0,0,0-.12,0c0,.05,0,.09,0,.14-.24-.54-.51-1.06-.79-1.57a.35.35,0,0,0,0-.18c.08-1.2.17-2.38.29-3.54h0c0,.48,0,1,0,1.44a.12.12,0,1,0,.24,0c0-6.19,2.72-11.68,3.53-17.57,1.22-2.84,3.82-4.81,4.9-7.78a15.42,15.42,0,0,0,.12-11.32c-.07-.18-.35-.11-.29.07a13.69,13.69,0,0,1-1.79,12.32c1.72-4.72,1-9.42.79-15a17.52,17.52,0,0,1,.12-2.83c.93-1.91,2.53-3.39,4.13-5.27.57-.67,1.12-1.35,1.66-2a18.91,18.91,0,0,0-.15,4.13c.15,3.18,1.81,9-1.37,11.1-.12.08,0,.27.11.19,1.81-1.2,2-3.24,2-5.27,0-3.57-.93-7.42,0-10.92A53.19,53.19,0,0,0,122.73,85a.65.65,0,0,0,.09-.28c.72-.75,1.46-1.48,2.24-2.16l.67-.4a.22.22,0,0,0,.11-.16c3.72-1,7.63-2.72,10.1-4.89,4.2-3.7,6.09-9,9.13-13.57l.06,0a3.93,3.93,0,0,0,1.42-1.56,19,19,0,0,1,6-2.4,48.5,48.5,0,0,0,9.55-2.69,7.62,7.62,0,0,0,2.43,0,.19.19,0,0,0,.15-.12c10.71-4,21.85-1.9,32.1,2,4.66,1.78,9.2,2.09,12-.59,2.3-.45,4.65-1.34,6.86-.73,4.62,3.57,6.7,10.45,9.35,15.93,1.77,5.42,3.72,10.8,5.57,16.17a.56.56,0,0,0,.29.33c1.25,6.43,1.95,13,4.33,19.15a.17.17,0,0,0,.32-.09c-1.53-7.27-2.16-14.76-4.16-21.83l-.09-.46c-.19-2.14-.23-4.32-.53-6.44.19-1.33.32-2.66.54-4,.28-1.69.54-3.36.68-5.06a16.48,16.48,0,0,0,.43-2.56c.22-2.72-1.88-3.6-1.83-6.08.19-9.07-8.87-14.5-11.35-22.64a46.85,46.85,0,0,0-3.15-13.36c-3.29-7.63-9.48-13.56-15.63-19C196.38,4,191.49.76,186,.15c-9-1-17,3.54-25.84,4.35-4.62.42-9.27.23-13.89.71S137,7,132.36,7.82a104.14,104.14,0,0,0-25.55,7.73,97.19,97.19,0,0,0-9.43,4.79A50.74,50.74,0,0,0,83.6,30.45C77.73,36.6,73.11,44.19,68.27,51.21a1.1,1.1,0,0,0-.56.28c-4.59,4.09-9.09,8.28-13.31,12.77-3.31,3.53-7.22,7.73-8.75,12.42-2.28,7,3.29,17.08,1,24.13a40.62,40.62,0,0,0-5.17,10.38A23.08,23.08,0,0,0,39,122.55c0,10,5.18,19,11.5,26.34A4.25,4.25,0,0,0,49.4,153c1.07,5.79,2.26,10.48-.64,16-.7,1.31-1.47,2.68-2.28,4.05-5,6.76-11.38,13.4-12.3,20.7a14.66,14.66,0,0,0,2.21,9.8A38.71,38.71,0,0,0,39,207.19a8.3,8.3,0,0,1,.6,4.37v.05A67.6,67.6,0,0,0,33.4,218a16.49,16.49,0,0,0-2.48,4.67.94.94,0,0,0-.09.12c-1,2.38-.81,4.94-1.16,7.47a6.36,6.36,0,0,1-1,2.55c-5.39.12-12.18,4-16.72,6.67-2.26,1.33-2.64,3.56-2.9,6-.35,3.41.27,6.56-1.42,9.74-1.78,3.35-4.76,6.23-7.53,8.79-.28.26.09.75.4.52a32.19,32.19,0,0,0,9.29-10c2.13-3.72-.56-9.33,2.17-12.75,1.68-2.11,6-3.36,8.37-4.52s5-2.74,7.58-3.45a11.79,11.79,0,0,1-5.75,3.63.28.28,0,0,0,.08.55,12,12,0,0,0,6.22-2.23c1.07-.33,2.14-.66,3.23-1l.17,0,.9-.26h.09l.13-.05c9.53-2.75,19.89-4.88,29.79-4.13a3.88,3.88,0,0,0,1.95.2c1.07.12,2.13.28,3.19.48A46.32,46.32,0,0,0,82.5,243.72c7.52,4,16.5,3.56,24.48,6.05,17.77,9,31.84,23.92,30.19,45.59,0,.48.76.59.84.12a36.55,36.55,0,0,0-2.84-22.12s0,0,0-.07a170,170,0,0,0-4.42-16.53c-.54-1.78-1.4-5.37-3-7.58a6.57,6.57,0,0,0-1.76-2.76c2.42.8,4.81,1.36,6.54,1.8,10.36,2.63,20.91,3.39,31.51,4.42,3.55.34,7.56.58,10.89,2,2.33,1,4.26,2.92,6.28,4.43a10.38,10.38,0,0,0,1,.67,21,21,0,0,1-7.53-1.89c-3.76-1.51-7.08,2.69-10.62-.32-.14-.11-.33.07-.2.19,1.72,1.63,3.56,3.1,5.68,1.38,2.47-2,7.62,2,10.3,2.62,2.36.52,5.21-.38,7.59-.74a10.31,10.31,0,0,0,3.36-.87c2.55-1.15,3.91-2,6.86-.54,2,1,1.59,4,1.86,5.82.45,3.15,2.26,5.78,4,8.45-.22.27-.44.54-.68.81a.17.17,0,0,0,.24.23c.23-.22.45-.46.67-.69.55.85,1.09,1.7,1.57,2.58-.17.31-.34.62-.5.93a.2.2,0,0,0,.34.2l.42-.64a15.62,15.62,0,0,1,1.06,2.5.36.36,0,0,0,.31.27c1.77,5.1,1.39,11.43-.06,16.22-.18.6.7.81.92.25a23.18,23.18,0,0,0,1.52-12.34,22.64,22.64,0,0,0-1-4.83.17.17,0,0,0,.2-.12c1.23-3.56,3.81-6.37,5.41-9.74a.14.14,0,0,0,0-.11l.81.53a16.78,16.78,0,0,1,2.18,1.76.22.22,0,0,0-.16.06,23.36,23.36,0,0,0-2.69,3.63c-.15.22.19.4.35.2a41.15,41.15,0,0,1,2.7-3.46.23.23,0,0,0,.07-.18,29.91,29.91,0,0,1,3.81,4.61,6.74,6.74,0,0,1,.49.84,13.24,13.24,0,0,1-.63,3.61.66.66,0,0,0,0,.5,47,47,0,0,1-2.43,4.84c-1.23,2.24.18,4.66,1.55,6.77a16.06,16.06,0,0,1,.68,1.77A8.28,8.28,0,0,1,221,298c-2.16,2.63-3.55,4.92-2.46,8.44.08.25.49.21.47-.06-.41-4.51,3.34-6.7,5.5-10.09s-.13-7.93.79-11.72c.45-1,1-2,1.2-2.67,1.51-4.25,1.83-8.2.3-11.76.2-.5.28-1,.44-1.55a13.4,13.4,0,0,1,.56-1.36c5.23,3.83,11.77,7.26,16.44,4.79a.29.29,0,0,0-.22-.53c-7.72,1.53-14.36-5.92-20.7-9.59a4.71,4.71,0,0,1,.3-2.13c3.61-4.32,10.22-5,14.4-8.7,4.24-2.13,7.26-4.77,5.9-8.95-1.18-3.59-5.17-2.39-6.42-5.72-1.45-3.83,1.53-6.47,3.54-9.16A26.3,26.3,0,0,0,245.35,218.49ZM67.42,140.9a5.43,5.43,0,0,0-.09-.56c.07-.23.13-.46.2-.69s.39-.65.61-1A14.62,14.62,0,0,0,67.42,140.9Zm.25,3.69,0-.94c.09-.56.2-1.11.32-1.66a32,32,0,0,0,0,5.71c0-.2-.08-.41-.11-.61a.32.32,0,0,0,0-.14C67.75,146.16,67.7,145.38,67.67,144.59Zm-.89-1.72c0,2-.19,4-.28,6A27.15,27.15,0,0,1,66.78,142.87Zm2.53,15.2a16.37,16.37,0,0,1-1.55-6.53A35.89,35.89,0,0,0,69.31,158.07ZM100.85,188a15.24,15.24,0,0,0,.31-4.46,6.07,6.07,0,0,1,.87,1.25.15.15,0,0,0-.07.1,26.9,26.9,0,0,1-.95,3.52C101,188.27,100.91,188.13,100.85,188Zm-.07-4.87a15.6,15.6,0,0,1-.35,3.92c-.17-.33-.35-.65-.55-1a31.66,31.66,0,0,0-.28-4C100,182.43,100.42,182.77,100.78,183.13ZM100.07,216l.07.08s0,.06,0,.09l.06.13-.1.06C100.1,216.25,100.09,216.13,100.07,216Zm-1.17-2.09-.05,0,0-.18S98.89,213.87,98.9,213.92Zm1,.78c0-.1,0-.21,0-.31a2.79,2.79,0,0,0,.19.33A.52.52,0,0,0,99.93,214.7Zm-1.27-.11c0,.22,0,.45,0,.68,0,0,0,.08,0,.13,0-.14-.08-.28-.11-.42Zm.54-32.54c.1,1.09.12,2.17.13,3.26-.24-.3-.49-.6-.76-.89,0-.69,0-1.38-.09-2.06a1.28,1.28,0,0,0,0-.19Zm-4.8,1,.35.32-.42-.15A1.22,1.22,0,0,0,94.4,183.05Zm4.32,6.4a21.4,21.4,0,0,1,1,7.59,22.9,22.9,0,0,0-1.93-8.51A11.71,11.71,0,0,1,98.72,189.45Zm20.86,56-.17-.28a19.67,19.67,0,0,0,1.59,1.44l0,0,.12.09.12.1,0,0h0l0,0v.09C120.76,246.41,120.17,245.91,119.58,245.42Zm-2.5-3.71c0-.26,0-.52-.06-.79a8.49,8.49,0,0,0,1.37,1.58A12.3,12.3,0,0,1,117.08,241.71Zm-14.47-55.36a6.28,6.28,0,0,1,.13,1,.17.17,0,0,0-.28.1c-.25,1-.58,2.08-.87,3.14-.07-.39-.16-.77-.26-1.15.35-1.36.72-2.72.94-4.12A7.33,7.33,0,0,1,102.61,186.35ZM98,182.23l0,0c0,.41,0,.82,0,1.23v.46a13.87,13.87,0,0,0-1.93-1.54A17.14,17.14,0,0,0,98,182.23Zm-11.92-2.89v0c-.35-.1-.7-.19-1.06-.27a3.14,3.14,0,0,1-.83-1A18.56,18.56,0,0,0,86.11,179.34ZM73.53,163.1l-.79-.77a30.75,30.75,0,0,1-1.49-2.91c.4.73.82,1.45,1.29,2.15C72.88,162.07,73.2,162.58,73.53,163.1ZM91.2,134.34a.2.2,0,0,0-.09-.05A10.63,10.63,0,0,0,90,132.71c5.51,2.34,11-2,15.09-6.42-1.77,4.29-4.75,8.09-9.76,8.73a.28.28,0,0,0-.06.55C93.87,135.24,92.19,135.18,91.2,134.34Zm27.47-51.18,1.75,0c-1.19.33-2.36.69-3.53,1.1.6-.33,1.19-.67,1.76-1C118.66,83.17,118.66,83.16,118.67,83.16ZM116,90.24a22.54,22.54,0,0,1,1.87-2.17C117.28,88.78,116.65,89.5,116,90.24Zm-13.4,50.36c-.37-.44-.76-.86-1.17-1.27a7.48,7.48,0,0,0,2.33-1.61c0,.49-.06,1-.07,1.48A2.59,2.59,0,0,1,102.63,140.6Zm7.51-22.6c0,.11-.1.22-.16.33a.64.64,0,0,0-.31-.25.16.16,0,0,0,.08-.1l.06-.13A.55.55,0,0,0,110.14,118Zm-3.47,11.06-.09,0c.32-1.16.58-2.33.81-3.41h.1C107.24,126.77,107,127.91,106.67,129.06Zm3.19-13.14-.14-.09.25-.18C109.93,115.74,109.89,115.83,109.86,115.92Zm-1,2.47-.1.1v0ZM96.15,135.85a5.77,5.77,0,0,0-.83-.27c3.44-.16,7-2.51,9.33-5.61-.94,3.4-2.34,6.51-5.91,7.2A19.72,19.72,0,0,0,96.15,135.85Zm3.57,2a6.89,6.89,0,0,0,4.45-3.13l0,.2a6.53,6.53,0,0,1-3.19,3.89l0,0c-.24-.22-.48-.44-.73-.65S99.88,137.94,99.72,137.83Zm3.46,3.47a3.29,3.29,0,0,0,.52-.29l0,1.05C103.55,141.8,103.37,141.55,103.18,141.3Zm10.48-46.89h0l.14-.13-.2.26ZM163.4,56.16a.4.4,0,0,0,0-.37l.25-.2a3.38,3.38,0,0,0,2.72-.28.55.55,0,0,0,.46.19c-.8.28-1.58.58-2.32.89h0C164.14,56.32,163.77,56.24,163.4,56.16Zm21.95-3a.27.27,0,0,0,.06.1l.21.19c-.3,0-.59-.09-.89-.12Zm25.36,2.11a11.63,11.63,0,0,1,1.23.3h-.05a4.48,4.48,0,0,0-1.32,0C210.62,55.46,210.67,55.35,210.71,55.23ZM229.23,79.5a.69.69,0,0,0,0-.13l.06,0ZM125.92,10.66c9.49-2.09,19.35-4,29.05-4.33a67.6,67.6,0,0,0,10.64-1c4.18-.77,8.11-2.6,12.29-3.47,7.8-1.62,14.59.88,20.64,5.74,5.89,4.72,11.69,10.57,15.26,17.24,3.66,6.85,4.55,14.83,5.63,22.4,0,.26.48.2.46-.06-.11-1.26-.22-2.54-.34-3.82,2.91,7.23,9.9,13.14,9.31,21.72h0a12.4,12.4,0,0,1-1.6,5c-.13.2.19.37.32.18A17.2,17.2,0,0,0,229.87,66c1.84,1,1.49,4.41.75,7.63-.41,1.36-.83,2.76-1.11,4.15-.17.59-.32,1.09-.4,1.43a9,9,0,0,0-1-1.88c-.5-1.18-1-2.35-1.57-3.52C225,68.54,222.2,61.53,218,57.61a.48.48,0,0,0-.16-.37l-.18-.14c1.42-.46,2.3-2.56,2.49-3.81a.17.17,0,0,0-.33-.09,5.87,5.87,0,0,1-1.11,2,2.87,2.87,0,0,1-1.92.9.45.45,0,0,0-.34.22l-.24-.11a9,9,0,0,0-5.14-1.55,23.42,23.42,0,0,0,.81-7.64.17.17,0,0,0-.34,0,34.12,34.12,0,0,1-1.25,6.38c-3.57,8.19-11.08,4.54-17.83,1.94.57-.26.9-1,1.19-1.63.1-.2-.16-.43-.32-.25s-.87,1.32-1.32,1.12a.49.49,0,0,0-.66.34c-.58-.21-1.16-.41-1.72-.59a4.85,4.85,0,0,0,3-3.05c.06-.2-.24-.27-.31-.08a3.62,3.62,0,0,1-2.84,2.36,4.29,4.29,0,0,1-3-.72c3.09-.87,6.38-2.19,5.18-5.69a.16.16,0,0,0-.3.08c1.35,4.6-5.87,4.29-8.56,5.58a.4.4,0,0,0-.25.33,40.25,40.25,0,0,0-5.69.17l2-.72c7.61,1.23,12.36-6,12.45-13.17a.12.12,0,0,0-.24,0c-.2,6.44-4,11.73-10,12.25a9.43,9.43,0,0,0,4-3.36,24.44,24.44,0,0,0,3.65-14.08A41.21,41.21,0,0,0,176.12,6.12c-.26-.24-.64.13-.39.38,6.52,6.66,10,15.82,11,25A25.8,25.8,0,0,1,184.83,45c-2.3,5.07-7,5.83-11.2,8.49a.56.56,0,0,0-.25.33A47,47,0,0,0,168.5,55c6.35-2.41,11.64-7.69,10.29-14.93,0-.21-.35-.12-.32.09.95,6.57-3.2,9.77-8,12.34a18.85,18.85,0,0,0,5.14-8.53c2.17-7.17.1-15.63-6-20.14-.1-.07-.18.09-.09.16,5.56,4.21,7.08,11.08,5.89,17.7a20,20,0,0,1-3.28,7.62,13.82,13.82,0,0,1-4.33,4,16.62,16.62,0,0,1-2.93,1.34c12.7-11.82,4-28.47-6.66-39.29a.19.19,0,0,0-.27.27c9.64,10,16.51,26.83,6.44,38.34l0,0a8.63,8.63,0,0,0,1.32-7.42.16.16,0,0,0-.3.09c1,3.77-1,7.08-4,9.1a2.5,2.5,0,0,0-.55,0,.36.36,0,0,0-.28.56,13.33,13.33,0,0,1-1.48.7c-4,1-8.2,1.34-11.93,3a.4.4,0,0,0-.19,0c-.44-3-4.1-6.16-7.1-5.73-.16,0-.12.3,0,.29,2.75-.2,6,3.38,5.69,6.27a16.38,16.38,0,0,0-2.07,1.44,18.5,18.5,0,0,0-3.31,3.76c-.83-6.15-8.86-10.51-14.84-9.6-5,.77-6.21-5.49-11.29-3.46-1,.39-1.57,1.52-2.09,2.35-2.14,3.43-7.67,2.46-10.94,4.11-.06,0,0,.11,0,.09,2.06-1,8.1-.46,9.91-2.57s3.94-6.47,8-2.76c1.33,1.24,1.94,2.1,3.62,2.85,2.14,1,4.82,0,7.11.62,3.52,1,9.26,4.9,10,9.18-1.08,1.67-2,3.44-3.05,5.14,0-2.26-1.35-4.54-3.78-4.36-2.94.22-6.25-4.21-8.56-5.9a9.57,9.57,0,0,0-7.37-1.69c-3.22.48-5.28,3.76-7.71,5.53-4.29,3.15-8.39-1.12-12.71-.49-3.87.55-7,3.14-10.32,5-4.46,2.54-10.52,3.13-15.5,4.17-.08,0,0,.14,0,.13,6.33-1.13,12.55-2,18.13-5.3,3.84-2.3,6.85-4.2,11.61-2.85,2.09.6,4.57,1.5,6.77.82a10.94,10.94,0,0,0,4.23-2.46c4-3.45,7.35-5.44,12.44-2.23,2.44,1.53,4.4,3.82,6.71,5.54,1.77,1.32,6.65,1.94,5.26,5.27a16.23,16.23,0,0,1-5.67,5.71c2.46-2.82.41-5.88-2.42-7.78-5.81-3.9-11.52-2.37-16.93,1.34-6.45,4.44-13,0-20,1-7.77,1.18-14.08,6.49-22.16,6.46-.17,0-.16.25,0,.26,4.14.21,7.74-1,11.51-2.61a67.13,67.13,0,0,1,8-3.13c4.41-1.27,8.93.15,13.32.78,2.63.37,5.67.4,8-1s4.48-3.16,7.29-4.23c3.36-1.28,16.93,2.26,12.58,8.46a.42.42,0,0,0,.33.63,13,13,0,0,1-2,.82.13.13,0,0,0-.06.18l-.83.29,0-.36a.45.45,0,0,0-.34-.44c-2.38-.41-3.58-2.48-5.79-3.21-2.75-.91-5.51-.17-8.22.48-.17,0-.09.3.08.26,3.3-.71,7-1.59,9.8,1a12.07,12.07,0,0,0,1.32,1.26c.09.07,1.63.85,1.87,1.37a41.3,41.3,0,0,1-6.16,1.3c-6.5.86-12.73-2.26-19.24-1.27-7,1-12.36,4.28-19.66,2.44a.17.17,0,0,0-.09.32c5.69,1.73,10.71.62,16.32-.91,5.4-1.47,10.66-.49,16,.11-3.67.33-7.33.74-11,.94a0,0,0,1,0,0,.08c5.27-.3,10.56-.38,15.84-.49a44.92,44.92,0,0,1-15.11,4.6c-2.62.28-6.23.39-8.17,2.45s-3.39,5.31-7.34,4.34A10.3,10.3,0,0,0,82.37,94c-4,.54-7.91,2.32-11.56,4-.23.1,0,.43.2.34,4.63-2,10.65-4.88,15.69-3.18,2.92,1,4.38-.17,6.25-2.35,3.74-4.35,8.51-3.89,13.68-4.77a27.16,27.16,0,0,0,4.23-1.1l-.3.16c-3.18,1.87-4.51,5.36-5.71,8.65-4.7,12.81-26.22,11-37.19,14.09a.15.15,0,0,0,.08.29c11.19-2.81,24-1.43,34.21-7.62,3-1.82,4-5.6,5.13-8.65,2.39-6.48,9.16-8.46,15.15-10.52l-.68.62a29,29,0,0,0-3.83,2.87c-3.42,2.26-7.19,5.21-7.79,9.46,0,.09.11.13.13,0,.81-3.08,2.81-5,5-6.73a19.5,19.5,0,0,0-3.09,5.5,15,15,0,0,0-.77,3.23,6.14,6.14,0,0,0-.17,3.78c0,.37,0,.74.05,1.11-3.39,12.43-18.51,16.61-30.25,16.31-.11,0-.11.15,0,.16,10,.76,26.87-2.84,30.47-13.84,0,.16,0,.32,0,.48.11,1.15.19,2.25.22,3.32a.52.52,0,0,0-.11.19,12.1,12.1,0,0,1-3,5.52,10.46,10.46,0,0,1-6.87,2.92.06.06,0,1,0,0,.12,10.69,10.69,0,0,0,4.17-.58c-4.61,3.75-11.18,5.24-17.08,5.46-11.45.44-22.33-4-32.34,3.65a.36.36,0,0,0-.11.17,11.13,11.13,0,0,0-5.6,2.2c.73-4.93,3.66-9.43,6.69-13.26.15-.2-.11-.48-.28-.28-3.43,4-6.3,8-7.66,13.18A13.6,13.6,0,0,0,49,131.7a7.18,7.18,0,0,0,.54,5.06,34.74,34.74,0,0,0,1.06,3.38c-.51-1.12-1-2.23-1.47-3.37-1.82-4.58-1.59-9.65-.39-14.35,2.25-8.79,9.51-15.92,16.59-21.11.34-.25,0-.81-.33-.56-7,5.06-14,11.65-17.08,19.88-3,8-1.62,14.49,1.5,21.43-.55-.77-1.09-1.55-1.57-2.37-2.61-4.46-3.57-9.6-3.77-14.69a.19.19,0,0,0-.37,0,42.07,42.07,0,0,0,1.75,12.26c1.19,4,4.13,6.8,5.6,10.58a.87.87,0,0,0,.31.38,2.07,2.07,0,0,1-.24.17,60.79,60.79,0,0,1-8.89-15.52c-1.79-11,.31-20.81,6.48-30.38A38.88,38.88,0,0,1,76.31,84.7c.49-.06.52-.78,0-.78A35.57,35.57,0,0,0,52.39,94.1a12.87,12.87,0,0,1,5.79-5.56c.2-.1,0-.46-.16-.37a13,13,0,0,0-5.92,4.61c2.2-4.35,5.14-7.56,10.1-9.21a.28.28,0,0,0-.15-.54c-4.93,1.24-10.65,5.63-11.5,11-.06.39.43.73.71.49a7.7,7.7,0,0,0-.3,1l-.7.74c.26-3.54.69-7,2.63-10.13,1.65-2.67,4.68-4.34,6.71-6.71.21-.24-.14-.59-.35-.35-2.41,2.75-5.6,4.6-7.71,7.63a15.22,15.22,0,0,0-2.28,7.17,24.53,24.53,0,0,1,.24-12.61,25.6,25.6,0,0,1,4-7,67.16,67.16,0,0,1,8.39-6.63c.19-.14,0-.45-.18-.32-1.67,1.08-3.48,2.17-5.19,3.39a94.88,94.88,0,0,0,8.06-9.35c3.37-4.85,6.62-8.21,11.87-11,4.64-2.48,9.54-4.47,14.2-6.94.34-.18,0-.67-.3-.51C84.35,45.67,78.28,47.17,73,50l.23-.46C77,45.19,80,40.27,83.27,35.39l.3-.38c3.85-4.82,8.7-8.34,13.69-11.72,18.32-7.36,38-12.34,56.55-2.51.38.21.72-.37.34-.58-13.87-7.46-32.06-8.22-47.35-2.89A91.82,91.82,0,0,1,125.92,10.66ZM53,146c0-.1-.07-.2-.11-.3a1.51,1.51,0,0,0,.18.09C53.09,145.83,53.06,145.9,53,146ZM63.45,58.28l-.55.45-.14.05.93-.83ZM32.94,232.46c0-.11,0-.22.05-.34l.27.16A1,1,0,0,1,32.94,232.46Zm24.79-12.93c-1.07,3-2.81,6.9-5.73,8.66l-1.55.45c1.33-1.12,2.52-2.52,3.85-3.81a11.22,11.22,0,0,0,3.27-5.55C57.62,219.37,57.68,219.45,57.73,219.53Zm2.72,7.2.25.25-.3-.07A1.21,1.21,0,0,0,60.45,226.73ZM64,228.3h0Zm-13.83.58,1.13-.32a6.44,6.44,0,0,1-1.24.41Zm14-.36,0-.05h0l0,.05Zm28.15,16.21.29.11-.25-.05Zm4.81.76-.06-.07,1.11.44-1-.17A.88.88,0,0,0,97.15,245.49ZM82.89,239.3h0l-.29-.17.57.29ZM64.31,223.18c-.07-.23-.15-.46-.22-.69.11.22.22.45.34.67Zm13.74,15.39a.76.76,0,0,0,.08-.11,24.15,24.15,0,0,0,3.7,2.48l.06.06c.37.24.74.46,1.1.65A36.68,36.68,0,0,1,78.05,238.57Zm47.46,21.26c-1.53-5.48-7.19-7.5-11.46-10.82-3.94-3.07-7.46-6.73-11.37-9.87a41,41,0,0,0-9.52-5.48c-2.55-1.18-5.17-5.91-7.27-7.82s-4.39-3.77-5.45-6.59a3,3,0,0,0-.86-1.53c-1-.67-4.34-1.52-3.8-3.12.33-1-.17-1.77-.5-2.7a28.83,28.83,0,0,0-4.67-8.35c-.13-.16-.41.06-.28.23,2.17,2.89,5.51,7.52,4.45,11.35-.3,1.08.69,1.67,1.36,2.15,2.63,1.87,3.49,4.16,5.56,6.51,2.65,3,5.93,5.36,8,8.85a7.6,7.6,0,0,0,4.16,3c5.39,2,9.41,5.51,13.75,9.17,4.84,4.08,12.7,7.81,16.23,13.44a63.2,63.2,0,0,0-14.46-9.83c-11.52-5.71-27.25-8.95-37.48-17.49a.7.7,0,0,0-.45-.53l-.29-.11A27.23,27.23,0,0,1,63.2,218.6c-.14-.79-.27-1.57-.39-2.31a73.62,73.62,0,0,0-3.9-14.68c-2.12-5.44,1.88-10.31.62-16-.81-3.69-2.22-6.86-2.42-10.72-.2-4.05.22-8.15.26-12.21a.31.31,0,0,0-.62,0c-.06,4.08-.33,8.14-.37,12.21,0,3.85,1.17,7.32,2.12,11,1.18,4.64-2,7-2.49,11-.44,3.4,1.21,6.47,2.28,9.62s1.52,9.24,2.93,14.48L59,217.08c-.73-1.28-1.48-2.48-2.32-3.67-1.5-2.13-.21-5.31-.19-7.7,0-1.69-1.49-3.29-2.56-4.41-2.67-2.76,1.38-8.77,1-12.31,0-.22-.37-.23-.36,0,.15,3.82-3.37,6.61-3.09,10.21a5,5,0,0,0,.53,2.36c1.66,2.77,2.46,4.76,1.48,8.25-.76,2.7,1.24,4.92,2.57,7h0c.65,3.14-1.78,5.84-3.8,8.12-1.53,1.72-2.59,3.45-4.26,4.54-.63.13-1.27.27-1.9.42a8.07,8.07,0,0,0,1.63-1.57c2.76-3.59,6.09-7.09,5.59-11.84,0-.33-.56-.35-.54,0,.14,2.57-.92,4-2.62,5.74a58.4,58.4,0,0,0-3.81,5c-1.48,1.9-3.74,2.54-6,3.21,2.72-2.5,4.55-5.64,7.6-8.64,4.08-4,4.43-8.39,3.22-13.88-.05-.22-.41-.17-.38.05a24.86,24.86,0,0,1-.16,7.84c-.52,2.74-4.14,4.64-5.94,6.51-1.28,1.33-2.23,3.21-3.36,4.65a15.47,15.47,0,0,1-4.45,3.55l.15-.3c1.13-2.33,1.13-4.22,3-6.44,1.52-1.83,3.64-3.24,5.38-4.85,2.6-2.4,3.69-6,4-9.47.41-5-1.78-11.47.48-16a.11.11,0,0,0-.2-.11c-4.55,6.94.8,15.92-4.81,23-2.07,2.62-5.13,4.31-7.28,6.89-.91,1.09-2.47,6.67-3.89,8.57-.19-.15-.38-.3-.55-.45.29-2.24.38-4.47.75-6.73.66-4,3.95-7.13,6.33-10.22,3.19-4.14,6.68-8.91,5.35-14.39-.09-.36-.61-.2-.55.15.55,3.58-1,6.48-3.19,9.1a15.32,15.32,0,0,0-.94-2.06h0a.08.08,0,0,1,0,0l-.16-.29a13.28,13.28,0,0,0-1.47-2.31,23.05,23.05,0,0,1-2.76-5c-1.47-4.19,0-8.59,2-12.33a51.19,51.19,0,0,1,3.9-6.1c6-5.75,11.28-12.44,11-20.87a18.33,18.33,0,0,1,.9,4c0,.3.48.31.47,0a28.83,28.83,0,0,0-1.1-6.1,14.39,14.39,0,0,0-.86-2.41,12.68,12.68,0,0,0-.51-1.37c-.36-1.71-.44-3.39.7-4.21a5.39,5.39,0,0,0,1.75-2.83c1.63-4.59-2.79-9.91-4-14.07.13-2.71,3-3.77,5.22-4.38,3.87-1,7.81-1.05,11.19-3.43a.23.23,0,0,0-.24-.4c-2.81,1.51-6.15,1.49-9.33,1.84,9.33-6.21,19.36-2.48,29.67-1.09,4.52.61,8.78-.62,12.94-2.23.35-.14,5.58-3.24,8.19-4.86V119c-3.48,3.43-6.26,6.56-11.2,8.21-6.3,2.11-12.65.31-19-.35-.12,0-.14.19,0,.21,6.7,1.16,12.6,3,19.39,1.42a18,18,0,0,0,7.4-3.92c-4.33,4.73-9.34,10.42-16,7h0a11.58,11.58,0,0,0-5.94-2.93c-.12,0-.14.18,0,.21,3,.76,5,3.06,6.7,5.5a17,17,0,0,0-2.49-2c-2.06-2.51-5.85-2.88-8.93-3.14-4.89-.41-9.39,1.61-13.12,4.6-.2.16.08.43.27.28,2.51-2,6.79-3.31,11-3.5l-.35.1c-6.23,0-11,4.35-14.62,9-.1.13.12.3.23.18a21.31,21.31,0,0,1,6.07-5.11,18.13,18.13,0,0,1,1.67-.79c-12.26,9.17-9.77,28.31-6.35,41.74a.42.42,0,0,0,.8-.22c-1.69-7.44-2.88-15-2.22-22.62A24.25,24.25,0,0,1,63,146.36a31.32,31.32,0,0,0,.86,19.91c.13.32.64.2.53-.14a31.54,31.54,0,0,1,.73-22.75A36.77,36.77,0,0,0,64,153a.18.18,0,0,0,.36,0,31.17,31.17,0,0,1,1.39-9.36,32.3,32.3,0,0,0,.66,9.45.24.24,0,0,0,.11.17,19.52,19.52,0,0,0,1,5.36c1.55,4.45,6.25,7.07,9.44,10.55.47,1.23.89,2.48,1.25,3.76.8,2.91,1,6.39,3.06,8.83a10.82,10.82,0,0,0,6.43,3.49,21.77,21.77,0,0,1,0,11c.09-2.92.33-6-.79-8.7-1-2.41-3.21-2.67-5.27-3.88-2.92-1.7-5.17-3.28-6.33-6.74-.61-1.84-.52-4.06-1.07-5.95-1-3.53-5.08-5-6.68-8.19-.08-.16-.3,0-.23.14,1.41,3.23,4.44,5,5.82,8.35,1.25,3-.15,6.44,2.08,9.21,2,2.42,4.42,3.44,7.13,4.87,4.86,2.57,4.82,6.2,4.86,11.18a.22.22,0,0,0,.43.09c.07.09.23.12.28,0a21.93,21.93,0,0,0,1.55-10.37c.73,3.38,1.79,6.55,1.39,10.21A26.08,26.08,0,0,0,92,208.89a.52.52,0,0,0,1-.28c-1.2-5-.62-8.81-.06-13.79a22.49,22.49,0,0,0-.82-8.7l.61.13c2.58,6.31.51,12.37.86,19.2a.43.43,0,0,0,.86,0c.26-6.58,2-12.39.6-18.5.39.16.77.34,1.15.54,1.79,4.76,1.57,9.71,1.26,14.75-.13,2-.54,4.32-.8,6.6a39.17,39.17,0,0,1-.85-6.42.28.28,0,0,0-.55,0,70.05,70.05,0,0,0-.16,8.53,12.6,12.6,0,0,1-.68-2.1c-.07-.31-.52-.17-.47.13a16,16,0,0,0,1.49,4.85,28.48,28.48,0,0,1-6-5.32,27.52,27.52,0,0,1-1.36-8.88.18.18,0,1,0-.36,0,26.43,26.43,0,0,0,1.12,8.16c-.41-.53-.79-1.07-1.15-1.64-2.85-4.49-3.18-9.9-4.51-14.94v0a.42.42,0,0,0,.27-.61q-.15-.21-.3-.39a5,5,0,0,0-3.32-4.09.13.13,0,0,0-.1.24,4.69,4.69,0,0,1,2.36,2.54c0,.15.08.29.12.44-1.91-1.38-4.42-1.5-5.71-4.39-.52-1.17-1.89-3.74-3.67-3.14-5.07,1.71-5.07-9.68-5.29-12.28-.42-5.06-.52-10.09-1.89-15a.3.3,0,0,0-.58.16c2.23,8.48.14,18.18,3.59,26.34,1.33,3.14,4.58,1.1,6.31,3.55,1.17,1.65,1.08,2.76,2.64,4.13s3.09.34,4.79,2c0,.41.07.81.15,1.22a.27.27,0,0,0,.24.2c.89,4.36,1.22,8.78,2.89,13a21.12,21.12,0,0,0,1.09,2.25,12.57,12.57,0,0,1-4.32-7.89c-.47-4-1-8.24-5.69-8.6-.3,0-.29.43,0,.46C83,191.84,81,200.7,83,204.88c1.54,3.2,4.68,5.61,7.79,7.88l.68.76c.15.24.29.5.45.74A12.09,12.09,0,0,0,94.35,217c-2.79-.65-5.42-1.63-7.33-4-.07-.1-.23,0-.17.13,2.89,4.55,8.11,5.82,13.13,7.25l.85.54c1.63,1,3.36,1.85,5,2.88a28.37,28.37,0,0,1,8.73,15c-1.52-1.64-3.08-3.23-4.52-4.88a37.41,37.41,0,0,0-11.59-9.09c-.15-.08-.29.15-.14.23,4.42,2.44,7.67,5.9,10.79,9.8,1.6,2,3,4.08,4.8,5.93.53.55,1.09,1.07,1.66,1.57-3.42-2.4-7-4.61-10.29-7.33-.07,0-.16,0-.1.09,5.23,4.82,11.4,8.4,16.29,13.6,3.25,3.47,5.32,7.56,7.16,11.78.38,1.4.78,2.8,1.25,4.17A50.6,50.6,0,0,0,125.51,259.83Zm112-36.53c-1.74,3.53-6.06,6.06-8.28,9.29l-.48.71c1.12-4.55,2.84-8.43,2.44-13.39-.23-2.85-1.15-5.58-1.39-8.44a17.49,17.49,0,0,1,0-1.78c.1.53.21,1.06.34,1.6,1.58,6.62,4.6,11.75.72,18.47a.17.17,0,0,0,.3.18,15.16,15.16,0,0,0,2.72-11,65.7,65.7,0,0,0-2.11-8.05,20.71,20.71,0,0,1-.6-8c1.09,7.87,7,15.12,3.35,23.53-.12.27.26.51.41.24,4.32-8-.59-15.53-2.06-23.48.16.42.33.85.53,1.28C236.3,211.07,239.62,215.79,237.51,223.3ZM226,238.16c0-1.3-.1-2.6-.19-3.92-.19-2.86,2.23-6.83,2.68-9.77.62-4.05-.14-8-.19-11.93a19,19,0,0,0,.4,2.69,46.51,46.51,0,0,1,1.39,9.9c0,3.11-1.55,6.23-2.11,9.34A22.07,22.07,0,0,0,226,238.16Zm-16,10.19c.15,2.1-.25,3.84.32,5.9.38,1.37,1.76,2.79,2.59,3.92a16.89,16.89,0,0,1,2.4,4.66c-5-3.13-6.91-7.58-7.15-13.56a14.71,14.71,0,0,0-1-5c.68-.08,1.35-.18,2-.3A20.33,20.33,0,0,1,210,248.35Zm3.32-8.82a5.14,5.14,0,0,1-1.06.39,18.69,18.69,0,0,0,1.78-.92A3,3,0,0,1,213.34,239.53ZM200.59,259h0Zm6.24,2.51a.59.59,0,0,0-.36-.33l0,0c-3.8-3.49-4.77-9.58-5.58-14.56-.07-.66-.14-1.33-.2-2a.59.59,0,0,0,.26,0l.48,0c2.5,5.33,2.05,11.66,5.79,16.42.15.19.48-.06.33-.26a9.77,9.77,0,0,1-.91-1.51,38,38,0,0,0,5.16,5.38c.74.66,1.48,1.36,2.23,2.05A77.65,77.65,0,0,1,206.83,261.54Zm6.6,3.29a28,28,0,0,1-7.32-6.69s0,0-.05,0c-1.67-4.33-1-9.35-2.7-13.54l1.56-.09a16.32,16.32,0,0,1,1.3,6.1,16,16,0,0,0,1.23,5.17,14.71,14.71,0,0,0,8.12,7.94,16.23,16.23,0,0,1,.53,3C215.21,266,214.28,265.41,213.43,264.83ZM187.69,240.3v0l-.17-.06Zm10.92,17.81a8.11,8.11,0,0,1-.69-1.47l.12.19a7.23,7.23,0,0,0,1,1.66l-.39-.25A.29.29,0,0,0,198.61,258.11Zm1.64,1.68a24.42,24.42,0,0,0,2.74,2.55,25.27,25.27,0,0,1-2,2.06C200.91,262.84,201,261.1,200.25,259.79Zm23,27.78h-.17c.06-.16.13-.33.19-.5C223.27,287.24,223.26,287.4,223.26,287.57Zm-5.84-20.92c-.2-4.26-2.66-7.94-4.9-11.5-1.67-2.65-1-6.93-1.72-10a10.31,10.31,0,0,0-.48-1.42,11.77,11.77,0,0,0,1.16-.33c.88,2.56.46,5.56,1,8.22s2.43,4.11,3.9,6.09S217.48,263.46,217.42,266.65Zm-1.61-25.55L216,241l-.19.27A.88.88,0,0,0,215.81,241.1Zm.76-1.24a.4.4,0,0,0,.18-.07c-.06.09-.12.18-.17.27A1.41,1.41,0,0,0,216.57,239.86Zm18.79-46.26.09.47c0-.15-.09-.3-.13-.46Zm-34.27,71.24a19.9,19.9,0,0,0,2.35-2.14c.48.36,1,.72,1.47,1.07-.22.25-.43.5-.65.74-.46.52-.92,1-1.37,1.57l-.46.51c-.05.05-.09.12-.14.18a.24.24,0,0,0-.27.16c-.11.27.06.54.37.46.49-.12.92-.69,1.25-1,.66-.69,1.29-1.43,1.94-2.15.67.45,1.35.88,2,1.31a16.79,16.79,0,0,0-4.32,5,24.58,24.58,0,0,1-2-4.47A6.59,6.59,0,0,1,201.09,264.84Zm1.42,2.23a.24.24,0,0,0-.15-.29C202.46,266.74,202.57,266.75,202.51,267.07Zm1.08,4a21.12,21.12,0,0,1,4.58-5.12l.05-.06,1.07.65a40.89,40.89,0,0,0-4.84,6.08C204.17,272.08,203.88,271.57,203.59,271.05Zm1.13,2a74.82,74.82,0,0,1,5.16-6.21l1.62,1a31.58,31.58,0,0,0-5.52,7.69C205.59,274.69,205.17,273.88,204.72,273.08Zm8.84-3.83c-1.82,3.21-4.22,6.2-5.36,9.74a6.5,6.5,0,0,0-1.45-2.3.56.56,0,0,0-.32-.15c-.05-.13-.1-.25-.16-.38a61.66,61.66,0,0,1,5.65-8,.24.24,0,0,0,.06-.09q.84.51,1.68,1.05S213.58,269.2,213.56,269.25Zm12.59-.51a3.87,3.87,0,0,0-.21-.34.42.42,0,0,0,.23-.27c.17-.61.33-1.22.51-1.82l.48.37A9.61,9.61,0,0,0,226.15,268.74Zm-2.49-4.89.8.68a4.3,4.3,0,0,0-.3,1.25C224,265.14,223.8,264.5,223.66,263.85Zm.91,2.71a.43.43,0,0,0,.41-.4c0-.37.09-.72.15-1.08l.81.66a6.85,6.85,0,0,0-.6,1.77C225.1,267.19,224.84,266.88,224.57,266.56Zm11.11-31.17a12.16,12.16,0,0,0,1,3.15c-2.34-.26-4.86-.75-4.3-3a.23.23,0,0,0-.44-.13c-1,2.53,1.07,3.64,3.19,4.35,1.53.52,3.17.78,4.74,1.16a4.19,4.19,0,0,1,3,2C245.25,253,209,254.27,223,266.8c2.62,3.77,4.09,6.84,3,11.8a50.16,50.16,0,0,1-1.89,5.58c-1.26,2-2.69,4.08-3.16,6.27-2.22-2.9,2.37-7.28,2.68-10.36,0-.1,0-.2,0-.3,1.84-3.07.77-7.47-.94-10.36-.13-.22-.48,0-.35.2a9.19,9.19,0,0,1,1.05,6.18,6,6,0,0,1-.12.61c-.3-3.52-2.14-6.75-2.71-10.67,0-.28-.51-.21-.49.07.17,2,.58,3.92.91,5.84a16.34,16.34,0,0,1-1.71-7.2c.06-2.79.21-5.26-1-7.81a9.16,9.16,0,0,0-1.42-1.68,12,12,0,0,1-3.12-6.43,18.84,18.84,0,0,0-1.53-5.37l.54-.21a.25.25,0,0,0,.24,0,6.11,6.11,0,0,0,1.45-.84,30.4,30.4,0,0,0-.55,3.48c-.36,3.93,2.77,7.58,4.8,10.58.25.36.83,0,.6-.35-1.95-3.32-4.16-6.21-4.27-10.23a11.76,11.76,0,0,1,.38-3.08,16.7,16.7,0,0,0,3.55-4,12.11,12.11,0,0,1-.14,4.43,46.6,46.6,0,0,0-1,4.8c0,.23.35.28.39.05.53-2.52,1.78-4.83,2.22-7.38.41-2.36-.41-4.09.33-6,.69,2.67,2.31,5.35.65,7.67a14.35,14.35,0,0,0-2.69,8.39.31.31,0,0,0,.62,0c.26-6.58,6.91-8.58,3.78-15-1.41-2.91,2.18-10.24,2.91-13.32.22-.92.42-1.86.6-2.8.08,1.11.16,2.22.2,3.34.13,3.53-1.39,6.47-1.89,9.84-.36,2.36.27,5,.54,7.59a6.13,6.13,0,0,0-.07,1.12.53.53,0,0,0-.2.31c-.35,1.75-2.27,2.67-2.94,4.42-.94,2.47-.15,5.37-2.61,7.14-.08.06,0,.2.09.14,2.07-1.22,2.3-3.39,2.8-5.56a5.6,5.6,0,0,1,2.82-3.74,1.75,1.75,0,0,0,.67-.79,4.13,4.13,0,0,0,.56.54c-.77,1.64-2.63,2.57-3.27,4.35-.12.31.32.43.5.21,1-1.29,2.57-2.17,3.5-3.47.29,1.61-2.59,3.08-3.41,3.79-2.08,1.8-3.43,5.73-4.48,8.24-.13.3.37.5.51.22,1.64-3.55,3.6-6.59,6.75-8.72a.56.56,0,0,0,.43-.21,1.85,1.85,0,0,1,.14-.14c.17-.11.33-.23.51-.33a3.28,3.28,0,0,0,.83-.65c2.1-1.16,4.94-1.94,3.3-4.81,0-.05-.12,0-.1,0a1.77,1.77,0,0,1-1.16,2.63A3.31,3.31,0,0,0,231,244c.4-1.25-.56-2.46-1.34-3.32a.17.17,0,0,0-.26.2c.58.9,1.09,1.89.56,2.93a3.37,3.37,0,0,1-.72.91,6.55,6.55,0,0,0-.1-.74,2.86,2.86,0,0,0-1.24-1.63c-2.28-1.82,2.33-8.42,3.43-10.32,1.74-3,4.69-4.9,6.23-7.89a.19.19,0,0,0,.2-.13,19.07,19.07,0,0,0,.59-12.21c-.9-3.62-2.59-6.59-3.77-9.77,3.08,5.35,6.09,9.38,5.3,16.18,0,.24.38.3.42.06a20.54,20.54,0,0,0-1.37-11.86c-1.82-4.6-4.88-7.38-5-12.31,1.6,6.73,8.29,11.82,7.91,19.39,0,.19.28.18.3,0,.7-5.6-2.25-10.07-4.63-14.73,5,7.94,8.61,14.09,4.53,23.65C240.26,226.44,234.46,230.38,235.68,235.39Z"/><path class="cls-1" d="M38.83,233.5a.07.07,0,1,0,0,.14A.07.07,0,0,0,38.83,233.5Z"/><path class="cls-1" d="M98.16,162.06c-.59-3.25-3.48-5.34-4.74-8.37s-1.5-6.09-3.21-8.94A27,27,0,0,0,85.42,139c-2.77-2.58-6.43-3-9.29-.44s-1.89,7.6-1.29,10.69a.21.21,0,0,0,.41-.06c-.29-4.53-.51-13.68,7.22-10.34a13.17,13.17,0,0,1,5.18,4.83.69.69,0,0,0-.45.2,5.21,5.21,0,0,0-1.46,3.54s0,0,0,.07c-.18.27-.36.55-.55.81a5,5,0,0,0-1.12.73,12.25,12.25,0,0,0-3.86,8c0,.19.26.18.28,0a10.22,10.22,0,0,1,3.57-6.24A5.09,5.09,0,0,1,87,149.43c1.17-.1,2.09.83,3.12,1.22a.33.33,0,0,0,.14,0,6.06,6.06,0,0,0,.74.6.72.72,0,0,0,.24.09c.79,2.45,1.5,4.76,3.4,6.72a9,9,0,0,1,1,1.29l0,0a5.05,5.05,0,0,1-3,3.07,7.33,7.33,0,0,1-4.73-.38c-.1,0-.14.12,0,.16,2.93,1.09,6.8,1.28,8.3-1.85a5.17,5.17,0,0,1-.47,4.93c-.51.86-.19,1.62,0,2.49.08.4.65.22.59-.16C96,165.15,98.54,164.11,98.16,162.06Zm-7.52-11.82a.37.37,0,0,0,0-.11,3.41,3.41,0,0,0-.5-1,.47.47,0,0,0,.23-.23l.35.92c.07.21.14.41.2.62l-.23-.14Z"/><path class="cls-1" d="M213.56,162.83c-4.4,1.32-7.52-.69-11.69-.54a6.29,6.29,0,0,0-2.53,1.16c-2.8,1.69-4.44,3.32-8.05,3.23a0,0,0,0,0,0,0c3.34.13,5.5-1.13,8.16-3.1,3.42-2.54,5.7-.08,8.89.14a12,12,0,0,0,5.26-.79C213.69,163,213.65,162.8,213.56,162.83Z"/><path class="cls-1" d="M220.14,163.2a3.58,3.58,0,0,0,1.65-4.25c-.23-3.25-2.8-6.91-3.94-9.51-3.67-8.39-10.75-18.27-6.73-27.6,0-.1-.1-.19-.15-.09-2.33,5.18-1.7,10.13.56,15.27,1.64,3.75,3.38,7.45,5,11.2,1.45,3.3,4.81,8.43,4.47,12.34a1.21,1.21,0,0,1-.05.18,6.71,6.71,0,0,1-5.25,2.13s0,.07,0,.07a8.42,8.42,0,0,0,4.1-.6c-1.39,1.66-3.49,2-5.23,3.29s-2.56,3.36-4.44,4.56c-.08.05,0,.17.08.13,2.34-1,3.4-3.61,5.7-4.78a26.82,26.82,0,0,0,2.75-1.43l.15-.07c-.23.3-.47.6-.68.91-.74,1.07-.71,2.51-1.91,3.23-.06,0,0,.12.06.1,1.12-.49,1.31-1.27,1.92-2.26s1.25-1.83,1.84-2.75Z"/><path class="cls-1" d="M171,135.15l-.16-.06c-.11-.08-.22.11-.11.18a.37.37,0,0,0,.25.06C171.07,135.33,171.1,135.17,171,135.15Z"/><path class="cls-1" d="M168.92,128.64c-.92-.35-2.16.86-2.6,1.55,0,.08.06.19.14.13.37-.28.74-.58,1.13-.85a5,5,0,0,1,1.33-.55A.15.15,0,0,0,168.92,128.64Z"/><path class="cls-1" d="M168.21,129.55a2.14,2.14,0,0,0-1.35.85s0,.12.09.07a2.69,2.69,0,0,1,1.33-.68A.13.13,0,0,0,168.21,129.55Z"/><path class="cls-1" d="M168.68,130.34c.11-.07,0-.28-.09-.22a3.5,3.5,0,0,0-1.35.89c0,.06,0,.16.09.11C167.75,130.81,168.26,130.64,168.68,130.34Z"/><path class="cls-1" d="M168.29,132.44c.2-.25.42-.47.63-.7a.15.15,0,0,0-.21-.22,4.64,4.64,0,0,0-.64.69C167.94,132.37,168.17,132.6,168.29,132.44Z"/><path class="cls-1" d="M169.56,132.44c-.14.15-.17.21-.32.38s.06.26.16.15a4.23,4.23,0,0,0,.31-.38C169.79,132.49,169.66,132.34,169.56,132.44Z"/><path class="cls-1" d="M170.36,133.43l-.13.12s0,.13.08.08l.13-.12C170.49,133.45,170.41,133.37,170.36,133.43Z"/><path class="cls-1" d="M171.57,133.5l0,0a.14.14,0,0,0,0-.19.23.23,0,0,0-.18-.08.07.07,0,0,0-.07.07.14.14,0,0,1,0,.06C171.3,133.45,171.45,133.62,171.57,133.5Z"/><path class="cls-1" d="M172.59,133.69a4.66,4.66,0,0,0-.23-.58c0-.08-.16,0-.14.06a5.5,5.5,0,0,0,.16.58C172.43,133.87,172.63,133.83,172.59,133.69Z"/><path class="cls-1" d="M173.73,133.09a1,1,0,0,0-.12-.26c-.1-.13-.31,0-.22.13a1,1,0,0,1,.12.25C173.58,133.36,173.8,133.23,173.73,133.09Z"/><path class="cls-1" d="M174.07,132.3a.51.51,0,0,0,.17.3.12.12,0,0,0,.18-.14,1.6,1.6,0,0,1-.1-.23A.13.13,0,1,0,174.07,132.3Z"/><path class="cls-1" d="M174.42,131.47a1.08,1.08,0,0,0,.4.47.14.14,0,0,0,.19-.19,4,4,0,0,1-.26-.42A.18.18,0,1,0,174.42,131.47Z"/><path class="cls-1" d="M174.82,130.88a1.57,1.57,0,0,0,.4.33c.12.07.2-.1.1-.17a2.59,2.59,0,0,1-.35-.31C174.87,130.63,174.72,130.79,174.82,130.88Z"/><path class="cls-1" d="M175.09,130.1c.12.12.23.23.36.34s.26-.1.13-.17a1.29,1.29,0,0,1-.38-.28A.08.08,0,0,0,175.09,130.1Z"/><path class="cls-1" d="M175.82,129.87c.18.14.37-.21.13-.3a1,1,0,0,0-.76,0,.06.06,0,0,0,0,.11A.89.89,0,0,1,175.82,129.87Z"/><path class="cls-1" d="M223.88,127.43a1.25,1.25,0,0,0-1.45.36c0,.06,0,.14.1.12a8.13,8.13,0,0,1,1.3-.18A.15.15,0,0,0,223.88,127.43Z"/><path class="cls-1" d="M224,128.34a.07.07,0,0,0,0-.13,2.19,2.19,0,0,0-1.44.39c-.08,0,0,.15.07.11A5.91,5.91,0,0,1,224,128.34Z"/><path class="cls-1" d="M223.75,129c.07,0,0-.16,0-.15a1,1,0,0,0-.68.35.07.07,0,0,0,.08.11A5.38,5.38,0,0,1,223.75,129Z"/><path class="cls-1" d="M223.42,130.07c.2-.16.42-.27.63-.42,0,0,0-.12,0-.1a1.87,1.87,0,0,0-.65.47A0,0,0,1,0,223.42,130.07Z"/><path class="cls-1" d="M224.44,130.65s0-.11-.06-.08-.31.25-.46.38,0,.14.08.09A4.09,4.09,0,0,0,224.44,130.65Z"/><path class="cls-1" d="M224.67,131.58c0,.07,0,.17.1.1a4,4,0,0,0,.32-.4c0-.06-.05-.13-.1-.08A2.64,2.64,0,0,0,224.67,131.58Z"/><path class="cls-1" d="M225.37,132.28c-.05.06,0,.15.09.09a6.23,6.23,0,0,0,.58-.57.07.07,0,0,0-.09-.1A2,2,0,0,0,225.37,132.28Z"/><path class="cls-1" d="M226.74,132.63a2.64,2.64,0,0,1,.13-.46.13.13,0,0,0-.21-.12.73.73,0,0,0-.28.48C226.34,132.77,226.7,132.87,226.74,132.63Z"/><path class="cls-1" d="M227.9,132.86a.61.61,0,0,0-.1-.47c-.07-.12-.28,0-.22.1s.11.26.17.38A.08.08,0,0,0,227.9,132.86Z"/><path class="cls-1" d="M228.7,132.24l-.32-.19a.1.1,0,0,0-.1.17,2.07,2.07,0,0,0,.32.19A.1.1,0,0,0,228.7,132.24Z"/><path class="cls-1" d="M229.25,131.81c.1-.18.05-.27,0-.48s-.39-.16-.36,0a.76.76,0,0,0,.16.46A.11.11,0,0,0,229.25,131.81Z"/><path class="cls-1" d="M229.6,130.1a.9.9,0,0,0,.27.21.08.08,0,0,0,.1-.13.76.76,0,0,0-.27-.2A.08.08,0,0,0,229.6,130.1Z"/><path class="cls-1" d="M229.6,129.45a.94.94,0,0,0,.6,0,.07.07,0,0,0,0-.13.94.94,0,0,0-.6,0A.1.1,0,0,0,229.6,129.45Z"/><path class="cls-1" d="M230.48,128.57a.12.12,0,0,0-.06-.22,4.58,4.58,0,0,1-.53,0c-.19,0-.27.24-.08.29A.82.82,0,0,0,230.48,128.57Z"/><path class="cls-1" d="M216.15,130.93a.07.07,0,0,0,.07-.11c-.15-.12-.32-.18-.47-.29s-.06,0,0,0A1,1,0,0,0,216.15,130.93Z"/><path class="cls-1" d="M182.11,127.29a5.3,5.3,0,0,1-.76-1.5.06.06,0,1,0-.12,0,4.11,4.11,0,0,0,.77,1.55C182.05,127.43,182.15,127.35,182.11,127.29Z"/><path class="cls-1" d="M182.46,128.08c0,.21,0,.43,0,.64a.07.07,0,0,0,.14,0c0-.21,0-.43,0-.64S182.45,128,182.46,128.08Z"/><path class="cls-1" d="M182.4,131.53a.85.85,0,0,1,.22-.47.09.09,0,0,0-.13-.13.73.73,0,0,0-.29.57C182.19,131.62,182.38,131.65,182.4,131.53Z"/><path class="cls-1" d="M181,128.34a27.86,27.86,0,0,0,.07,3.54.07.07,0,1,0,.13,0,24.69,24.69,0,0,0-.17-3.54S181,128.31,181,128.34Z"/><path class="cls-1" d="M202,198.19l-.08-.08h0c.05.09,0,.07.09.09S202,198.2,202,198.19Z"/><path class="cls-1" d="M207.24,197.74a9.93,9.93,0,0,1-3.87.28s0,0,0,0a7.29,7.29,0,0,0,3.9-.24S207.28,197.73,207.24,197.74Z"/><path class="cls-1" d="M210.74,197.49a.08.08,0,0,0,.11,0c.6-.55,1.43-.29,2.15-.43.05,0,0-.08,0-.09a3,3,0,0,0-1.91.12c-.09,0-.27.27-.37.16a.63.63,0,0,0-.27-.16c-.24-.1-.57.15-.77.24,0,0,0,0,0,0A.8.8,0,0,1,210.74,197.49Z"/><path class="cls-1" d="M213.49,196.81a0,0,0,1,0,0,.07A0,0,0,1,0,213.49,196.81Z"/><path class="cls-1" d="M211.13,189.42a.08.08,0,0,0,0,.16A.08.08,0,0,0,211.13,189.42Z"/><path class="cls-1" d="M211.27,191a7.21,7.21,0,0,0,.92-1.38.06.06,0,0,0-.1-.05,9.84,9.84,0,0,1-.93,1.32C211.1,191,211.21,191.07,211.27,191Z"/><path class="cls-1" d="M210.55,192a.07.07,0,1,0,.14,0,1.14,1.14,0,0,0,.09-.52.07.07,0,0,0-.14,0A1.28,1.28,0,0,1,210.55,192Z"/><path class="cls-1" d="M209.78,192.44a.07.07,0,0,0,0-.14A.07.07,0,0,0,209.78,192.44Z"/><path class="cls-1" d="M210.26,189.49a9.34,9.34,0,0,1-.55,1.94c0,.07.1.12.13,0a6.74,6.74,0,0,0,.47-2S210.26,189.46,210.26,189.49Z"/><path class="cls-1" d="M210.12,192.69a.9.9,0,0,0,.28,0,.11.11,0,0,0,0-.22,1.35,1.35,0,0,0-.28,0C209.93,192.38,209.93,192.7,210.12,192.69Z"/><path class="cls-1" d="M208.86,189.5h0v.17s0,0,0,0Z"/><path class="cls-1" d="M208.83,192.56a5.93,5.93,0,0,0,0-2.55,0,0,0,1,0,0,0,8.14,8.14,0,0,1-.13,2.51A.07.07,0,0,0,208.83,192.56Z"/><path class="cls-1" d="M208.93,192.76l.17,0a.12.12,0,0,0,0-.23l-.17,0C208.77,192.48,208.77,192.77,208.93,192.76Z"/><path class="cls-1" d="M109.62,131.25c0,.59,0,1.18,0,1.77a.11.11,0,0,0,.22,0c0-.59,0-1.18,0-1.77A.12.12,0,0,0,109.62,131.25Z"/><path class="cls-1" d="M106.29,150.2c0,.2.28.29.31.09.24-1.49,1.58-3.71.65-5.13,0,0-.11,0-.08,0,.42.73,0,1.73-.17,2.47A24.31,24.31,0,0,0,106.29,150.2Z"/><path class="cls-1" d="M107.31,155.08c.54-2,1.17-3.84.73-5.87a.07.07,0,0,0-.14,0c.4,2-.32,3.84-.8,5.78A.11.11,0,0,0,107.31,155.08Z"/><path class="cls-1" d="M108.87,153.79c0,1.51-.08,3.05,0,4.56a.11.11,0,0,0,.22,0c.09-1.51,0-3,0-4.56A.11.11,0,0,0,108.87,153.79Z"/><path class="cls-1" d="M110.63,163.92a34.27,34.27,0,0,1-.25-4,.14.14,0,1,0-.27,0,16.4,16.4,0,0,0,.27,4.08C110.41,164.09,110.64,164.06,110.63,163.92Z"/><path class="cls-1" d="M114,124.68a44.75,44.75,0,0,0,4.28,7.13c0,.06.16,0,.11-.09-1.6-2.27-2.83-4.74-4.34-7.07C114.05,124.62,114,124.65,114,124.68Z"/><path class="cls-1" d="M121.21,139.82c-.86-1.81-3.71-3.12-3.33-5.52,0,0-.06-.06-.07,0a2.8,2.8,0,0,0,1,3.13c4.08,3.77.14,6.71.64,11,.61,5.38,7.13,9.17,11.32,11.49.06,0,.12-.06.06-.1-6.1-3.55-13.39-8.4-10.18-16.46C121,142.42,121.72,140.9,121.21,139.82Z"/><path class="cls-1" d="M134.61,163.07a8.4,8.4,0,0,1-2.26-2c-.06-.08-.2,0-.14.09a8.44,8.44,0,0,0,2.3,2.07C134.62,163.32,134.72,163.15,134.61,163.07Z"/><path class="cls-1" d="M116.77,120.79c-.36.42-1-.53-1.22-.75s-.22,0-.15.11c1.12,1.47,1.83.88,2-.75a25.7,25.7,0,0,0,0-4,9.53,9.53,0,0,1-.1-3c0-.13-.15-.18-.2-.06-.45,1.19.07,3.14.12,4.38a20.34,20.34,0,0,1,0,2.92A2.25,2.25,0,0,1,116.77,120.79Z"/><path class="cls-1" d="M177.45,240.34s0,0,0,0l-.15-.15s-.06,0-.05,0S177.32,240.33,177.45,240.34Z"/><path class="cls-1" d="M96.16,194.31a.16.16,0,0,0,.31,0,3.52,3.52,0,0,0-.24-1.61c-.1-.23-.43,0-.33.19A3.44,3.44,0,0,1,96.16,194.31Z"/><path class="cls-1" d="M96,198.62c0,.1.17.1.17,0a1.2,1.2,0,0,0-.28-.82c-.07-.08-.19,0-.12.12A.92.92,0,0,1,96,198.62Z"/><path class="cls-1" d="M53.94,170.93c-.4,5.16-1.16,8.75-5.76,11.71-1.51,1-1.66,2.53-1.7,4.16-.06,2.66-.22,2.86-1.68,4.73-1.23,1.57-1.18,2.44-.47,4.12.21.51,1,.14.86-.37-1.18-4.68,1.83-2.93,3-4.93a3.5,3.5,0,0,0,.09-1.44c0-2.29-.33-4.86,2-6.39,4-2.6,4.06-7.32,4.14-11.59C54.45,170.6,54,170.61,53.94,170.93Z"/><path class="cls-1" d="M43.88,198.29l.17.17s0,0,0,0l-.17-.17S43.87,198.28,43.88,198.29Z"/><path class="cls-1" d="M45.58,199c-.72-.34-.78-1.18-.71-1.9a.14.14,0,0,0-.25-.07,2.1,2.1,0,0,0-.33,1.51,1.58,1.58,0,0,0,1,1.05C45.64,199.77,46,199.18,45.58,199Z"/><path class="cls-1" d="M74.14,181.79c.2.17.47-.09.29-.28a25.12,25.12,0,0,1-3.63-5.58c-1.56-3-1.69-5.71-1.7-9a.14.14,0,0,0-.27,0C68.73,172.24,69.82,178.13,74.14,181.79Z"/><path class="cls-1" d="M68.32,204.35a5.43,5.43,0,0,0-2.11-3.28c-3.77-3.3-.79-5.73-.53-8.94.48-5.89-3.61-12.32-6.43-17.16-.12-.22-.43,0-.33.19a71.8,71.8,0,0,1,4.78,12.65c.89,3.47,0,5.63-.9,8.91a4.42,4.42,0,0,0,.89,4.18c.87.78,1.28,1,2.31,1.83,2.51,2,.39,4.18.48,6.27a10.36,10.36,0,0,0,2.21,6.12,40.3,40.3,0,0,1,5.39,10.4c1.93,5.28,8,9.35,12.82,11.68.11.05.2-.11.1-.17a37.4,37.4,0,0,1-8.35-5.81c-3.32-3.07-4.06-6.62-5.74-10.55-1.11-2.58-2.79-4.59-4.32-6.91C66.35,210.36,68.6,207.62,68.32,204.35Z"/><path class="cls-1" d="M96.15,223.11a37.78,37.78,0,0,1-9.73-4.88c-3.57-2.55-1.32-2.84-1.75-5.82-.71-5-6.88-4.49-7.47-9-.38-2.9,3.83-7.75-1.17-9.12a2.41,2.41,0,0,0-1.33.07c-3.24,1-4.29-1.54-5.26-3.94a54,54,0,0,0-2.63-6.28c-.08-.14-.33,0-.26.11.92,2.2,2.17,10.07,4.85,10.95,1.48.48.88.43,2.35.25,6.12-.76,2.81,4.12,2.44,5.51a6.32,6.32,0,0,0,.59,5.3c.73,1.18,2.31,1.78,3.49,2.34,3.7,1.77,2.88,4.22,2.88,7.52,0,1.36,1.89,2.3,2.8,2.93a31.28,31.28,0,0,0,10,4.74A.34.34,0,0,0,96.15,223.11Z"/><path class="cls-1" d="M40,190.82a.19.19,0,0,0-.36-.1c-.67,2.16-1.6,4.86-1.09,7.16.63,2.85,3.53,5.35,3.49,8.21a.19.19,0,0,0,.37,0,7.62,7.62,0,0,0-1.79-4.89C38.21,197.72,39,194.56,40,190.82Z"/><path class="cls-1" d="M42.55,200.43c-.09-.07-.21.09-.12.16a3.93,3.93,0,0,1,1,1.76c.11.28.54.18.46-.12A3.7,3.7,0,0,0,42.55,200.43Z"/><path class="cls-1" d="M41.12,187.55a4.75,4.75,0,0,0,.62-1.18c0-.14-.18-.25-.24-.1a7.84,7.84,0,0,1-.66,1.12C40.72,187.56,41,187.73,41.12,187.55Z"/><path class="cls-1" d="M42.72,184.4c1.84-1.84,3.56-3.78,5.25-5.77.17-.2-.11-.5-.3-.3-1.86,1.84-3.44,3.91-5.14,5.89C42.43,184.34,42.6,184.52,42.72,184.4Z"/><path class="cls-1" d="M49.39,177.39a9,9,0,0,1,1.42-1.95c.19-.25-.25-.51-.42-.24A11,11,0,0,0,49,177.29C49,177.52,49.3,177.61,49.39,177.39Z"/><path class="cls-1" d="M51.76,174a3.08,3.08,0,0,0,.4-.93.17.17,0,0,0-.31-.13,3.28,3.28,0,0,0-.39.93C51.4,174.07,51.66,174.16,51.76,174Z"/><path class="cls-1" d="M54.2,168.48a8.53,8.53,0,0,0-.19-2.31c0-.14-.25-.11-.24,0,.08.76,0,1.52.07,2.28A.18.18,0,0,0,54.2,168.48Z"/><path class="cls-1" d="M57.65,148c-.73,1.55-1.89,3.21-2,5-.15,2.09.64,4.21,1.15,6.22.07.26.52.29.56,0a10.2,10.2,0,0,0-.48-4.31c-.71-2.62.25-4.37,1.15-6.74C58.09,147.94,57.75,147.79,57.65,148Z"/><path class="cls-1" d="M57.2,160.31a.46.46,0,0,0-.27.44.26.26,0,0,0,.51,0,.2.2,0,0,1,.06-.14A.22.22,0,0,0,57.2,160.31Z"/><path class="cls-1" d="M59.21,171.77c-.12-1.58.42-3.1.33-4.68,0-.25-.41-.26-.4,0,.08,1.58-.46,3.1-.43,4.68C58.72,172.1,59.23,172.09,59.21,171.77Z"/><path class="cls-1" d="M54.62,187c.23-.9-.3-1.47-.24-2.37.08-1.17.21-2.35.21-3.52,0-.24-.35-.23-.37,0-.08,1.13-.27,2.32-.46,3.44a2.12,2.12,0,0,0,0,.83c.16.5.55.93.47,1.5C54.14,187.19,54.55,187.33,54.62,187Z"/><path class="cls-1" d="M54.49,187.71c-.23-.1-.36.24-.13.3s.16.08.26.11.26-.19.11-.26S54.58,187.75,54.49,187.71Z"/><path class="cls-1" d="M57.74,146c2.33-.57,2.31-2.78,2-4.83s-.79-4-.35-6.15c.7-3.41,3.77-4.27,6.71-4.9.14,0,.08-.23-.06-.21-2.53.45-6.06,1.47-6.95,4.25a8.46,8.46,0,0,0-.4,4c.31,2.15,2.18,6.58-1,7.53A.17.17,0,0,0,57.74,146Z"/><path class="cls-1" d="M67.83,129.69a6.22,6.22,0,0,0,1.55-.2.14.14,0,0,0-.07-.28,8.47,8.47,0,0,1-1.48.31A.09.09,0,1,0,67.83,129.69Z"/><path class="cls-1" d="M71.65,128.67a2,2,0,0,0,1.19-1.18c0-.09-.09-.18-.15-.08a2.24,2.24,0,0,1-1.09,1.1A.08.08,0,0,0,71.65,128.67Z"/><path class="cls-1" d="M74.71,127.24a2.47,2.47,0,0,1,.71-.13.17.17,0,1,0,0-.33,1.68,1.68,0,0,0-.8.12C74.41,127,74.5,127.33,74.71,127.24Z"/><path class="cls-1" d="M61,119.75c14.73-10.4,44.7,2.61,48.71-21.63,0-.23-.31-.33-.35-.1-4,23.38-33.95,11-48.54,21.43C60.59,119.58,60.76,119.89,61,119.75Z"/><path class="cls-1" d="M96.49,228.33a.25.25,0,0,0-.35,0c-2.51,2.82-6.48-3.33-8.61-4.51a.15.15,0,0,0-.15.25c2.31,1.38,3.69,4.41,6.28,5.34a2.46,2.46,0,0,0,2.09,0c1.31-.62,2.87,1.76,4,2.62.2.15.44-.18.26-.34C98.82,230.56,97.64,229.46,96.49,228.33Z"/><path class="cls-1" d="M103,233.63c-.34-.09-.66-.5-.91-.73s-.53.11-.32.33.68.76,1.17.79C103.13,234,103.17,233.69,103,233.63Z"/><path class="cls-1" d="M65.19,108.05c4.62-1.8,8.78-4.68,13.88-4.77,2.79,0,7.21.91,9.68-1,1.36-1.06,2.38-2.39,3.7-3.49s2.77-1.34,4.56-1.6c3.29-.46,8.09-6.38,10.51-8.23.27-.21,0-.68-.28-.48-2.72,1.8-8.89,9.1-12.15,7.72-1.69-.71-3.19,2-4.22,2.92-2.42,2-3.28,3.22-6.85,3.53-2.16.19-4.37,0-6.54.11-4.3.22-8.5,3.51-12.34,5.11C65,107.9,65.06,108.1,65.19,108.05Z"/><path class="cls-1" d="M138.72,44.27c-4.18-1-8.24-.7-12.06-3.14-2.72-1.73-5.06-3.65-8.17-4.67-5.54-1.81-11.62,2.44-16.14,5A124.54,124.54,0,0,1,76.6,52.72a.19.19,0,0,0,.1.37,94.84,94.84,0,0,0,18.18-7c6.55-3.19,13.79-8.74,21.34-8.58,6.17.14,9.89,6.74,16.09,7.18,4.58.32,8.4.41,12.48,3a36.69,36.69,0,0,1,9.66,8.45c.23.29.62-.11.4-.39C150.91,50.68,145,45.85,138.72,44.27Z"/><path class="cls-1" d="M106.8,48.77a28.08,28.08,0,0,0-4.54,3.73c-3.73,3.75-6.17,1.34-9.82.92C88.35,53,84.69,54.51,81,56.19c-4.5,2.07-9.9,7.16-14.85,7.44a.09.09,0,0,0,0,.17c3.24,0,5.75-2.06,8.43-3.66a55.67,55.67,0,0,1,13.2-5.87c4.3-1.21,7.64,2.07,11.78,1,4.85-1.29,8.42-11.7,15.13-6.92.15.1.34-.14.2-.25C112,45.8,109.73,46.82,106.8,48.77Z"/><path class="cls-1" d="M137,52.72c-4.81,1.35-7.44-3.37-11.76-4.24a0,0,0,0,0,0,.08c4.21,1,7.16,6,11.88,4.54A.2.2,0,0,0,137,52.72Z"/><path class="cls-1" d="M94.25,62.21c-8.59-3-15.37,3.57-23.56,5.08C62.27,68.84,57,77.42,51.48,83.12a.25.25,0,0,0,.36.36C57.66,77.59,62.47,70.3,70.92,68.1c7.64-2,15.21-7.54,23.25-5.59C94.36,62.56,94.43,62.28,94.25,62.21Z"/><path class="cls-1" d="M146.88,31.53a3.9,3.9,0,0,0-4.11-.41,11.45,11.45,0,0,0-2.16,1.77c-2.39,2.4-4.44,2.26-7.17.51-5.66-3.62-10.28-8-17.41-6.57-3.72.75-7,3.3-9.88,5.56C102,35.6,97.27,37,92.47,38.88c-.23.09-.13.46.1.37,2.93-1.13,6.14-1.82,9-3.22,3.71-1.85,6.75-4.68,10.39-6.66,9.45-5.11,15.4,2,23.14,6.19,5.19,2.8,8.58-8.42,13.39-1.19.94,1.42,1.84,3.57,3.43,4.43,1.83,1,4.94-.2,6.34,1.09a.21.21,0,0,0,.29-.3c-1-1.19-1.55-1.51-3-1C150.44,40.54,149.84,33.39,146.88,31.53Z"/><path class="cls-1" d="M159.85,53.36c-3.13-2.07-1.4-6.78-3.23-9.7a2.51,2.51,0,0,0-2.55-1.24c-2.25.26-3.44,2-5.81.31,0,0-.11.05,0,.09a3.69,3.69,0,0,0,3.61.64c1-.26,1.91-.78,3-.6,1.37.2,1.93,2.12,2.16,3.22.59,2.7-.16,6.05,2.58,7.72C159.87,54,160.12,53.54,159.85,53.36Z"/><path class="cls-1" d="M160.63,44.87c1.34,1.84,2,4.08,3,6.12.12.24.48,0,.36-.21-1-2.05-1.7-4.25-3.14-6.06C160.73,44.62,160.55,44.76,160.63,44.87Z"/><path class="cls-1" d="M83.58,40.93c-.67.54-1.63,1.67-2.45.74-.1-.11-.28,0-.21.16.81,1.31,2.25.29,3-.58A.23.23,0,0,0,83.58,40.93Z"/><path class="cls-1" d="M98.07,27.33c.13-.18-.17-.34-.3-.17a10.24,10.24,0,0,1-7.61,4,.11.11,0,1,0,0,.22A9.94,9.94,0,0,0,98.07,27.33Z"/><path class="cls-1" d="M123,18.29c6.78-1.64,12.23,1.38,18.48,3.39.23.07.32-.28.1-.35-6.27-2.15-11.92-5-18.66-3.36A.17.17,0,0,0,123,18.29Z"/><path class="cls-1" d="M149.16,24a59.37,59.37,0,0,1,6.32,5.09c.25.21.62-.14.37-.36a42.89,42.89,0,0,0-6.51-5A.18.18,0,0,0,149.16,24Z"/><path class="cls-1" d="M163.35,33.37c.05.11.21,0,.16-.09a17.08,17.08,0,0,0-6.11-7.46c-.09-.06-.18.09-.09.15A17,17,0,0,1,163.35,33.37Z"/><path class="cls-1" d="M163.27,40.37a9.24,9.24,0,0,0-3.86-6.09c-.07-.05-.13.06-.06.11a9,9,0,0,1,3.57,6.07C163,40.7,163.31,40.6,163.27,40.37Z"/><path class="cls-1" d="M141.77,40.51a.11.11,0,0,0,.11-.19c-3-1.9-6.48.31-9.46-1.69-.12-.07-.22.11-.11.19C135.23,40.86,138.71,38.91,141.77,40.51Z"/><path class="cls-1" d="M139.39,10.27a37,37,0,0,0,6.14.27.18.18,0,1,0,0-.36,43.24,43.24,0,0,1-6-.4C139.2,9.73,139.06,10.22,139.39,10.27Z"/><path class="cls-1" d="M162.37,7.5c4.84,1.56,7.83,5.9,10.37,10a.17.17,0,0,0,.29-.17c-2.43-4.31-5.65-8.68-10.56-10.23A.19.19,0,0,0,162.37,7.5Z"/><path class="cls-1" d="M178.34,22.94c.11.37.71.2.58-.16-1.45-4.21-2.76-8.92-6.62-11.56-.19-.13-.36.18-.18.31C175.88,14.16,177,18.79,178.34,22.94Z"/><path class="cls-1" d="M183.86,37.37c0,.19.3.23.33.05a8.26,8.26,0,0,0-1.39-6.92c-.12-.14-.38.05-.26.2C184.09,32.74,184.05,35,183.86,37.37Z"/><path class="cls-1" d="M200.92,36.09a.25.25,0,0,0,.5-.07c-.62-14.41-9.28-24.22-19.37-33.56-.17-.16-.43.09-.26.26C191.37,12.66,198.32,22.31,200.92,36.09Z"/><path class="cls-1" d="M189.69,18.09a49,49,0,0,1,5.67,17.17c0,.29.49.3.47,0a40.76,40.76,0,0,0-6-17.27A.09.09,0,0,0,189.69,18.09Z"/><path class="cls-1" d="M197.26,41.81c0-.19-.32-.11-.29.08.67,3.71-.37,7.12-1,10.75-.08.48.63.69.75.2C197.61,49.16,198.32,45.53,197.26,41.81Z"/><path class="cls-1" d="M196.61,37.78a.27.27,0,0,0,0,.54A.27.27,0,0,0,196.61,37.78Z"/><path class="cls-1" d="M201.9,42.55c-.23-1.52-.53-3-.81-4.55-.05-.23-.38-.13-.35.1.23,1.52.43,3,.71,4.57C201.51,43,201.94,42.84,201.9,42.55Z"/><path class="cls-1" d="M202.69,51.47a19.46,19.46,0,0,0-.27-4.11c-.07-.31-.53-.18-.47.12a29.57,29.57,0,0,1,.23,4A.26.26,0,0,0,202.69,51.47Z"/><path class="cls-1" d="M198.45,54a3,3,0,0,1-.32,1.32,1,1,0,0,1-1.24.33c-.12,0-.21.17-.09.22a1.31,1.31,0,0,0,1.46-.07,2.27,2.27,0,0,0,.56-1.8A.19.19,0,1,0,198.45,54Z"/><path class="cls-1" d="M202.57,56.42l-.76.77a.16.16,0,0,0,.23.22l.77-.75C203,56.51,202.72,56.27,202.57,56.42Z"/><path class="cls-1" d="M182.3,8.8c.16.16.41-.09.25-.26A19.82,19.82,0,0,1,180,5.3a.16.16,0,0,0-.27.16A16.19,16.19,0,0,0,182.3,8.8Z"/><path class="cls-1" d="M210.05,48.18a.24.24,0,0,0,.47,0c0-15.18-4.17-27.82-14.79-38.88a.18.18,0,0,0-.26.26C204.67,19.94,209.7,34.38,210.05,48.18Z"/><path class="cls-1" d="M206.36,48.18c0,1.19-.23,2.36-.24,3.55,0,.14.22.14.23,0,0-1.19.24-2.36.26-3.55A.13.13,0,0,0,206.36,48.18Z"/><path class="cls-1" d="M206.17,40.53c-.25-1-.51-2-.8-3a.16.16,0,0,0-.3.08c.22,1,.47,2,.72,3.05A.2.2,0,0,0,206.17,40.53Z"/><path class="cls-1" d="M192.39,6.05c.21.22.55-.12.33-.33A8,8,0,0,0,190.34,4a.13.13,0,0,0-.12.22A11.15,11.15,0,0,1,192.39,6.05Z"/><path class="cls-1" d="M213.83,43.12a.26.26,0,0,0,.51,0c.21-8.11-1.7-16.47-6.45-23.13a.16.16,0,0,0-.28.16C211.89,27.31,213.38,34.88,213.83,43.12Z"/><path class="cls-1" d="M213.3,46.24c-.28.59-.32,1.25-.55,1.85-.14.36.44.59.61.26.29-.59.28-1.25.53-1.86C214,46.15,213.45,45.91,213.3,46.24Z"/><path class="cls-1" d="M213.44,52.48a1.33,1.33,0,0,1-.46.93.13.13,0,0,0,.18.18,1.61,1.61,0,0,0,.55-1.11C213.73,52.31,213.45,52.31,213.44,52.48Z"/><path class="cls-1" d="M214.67,53.8a8.32,8.32,0,0,0,1.85-3.3c0-.2-.26-.29-.31-.08a9.47,9.47,0,0,1-1.7,3.29C214.44,53.8,214.6,53.89,214.67,53.8Z"/><path class="cls-1" d="M218.61,52.36a7.29,7.29,0,0,0,.57-3.17.29.29,0,0,0-.57,0,6.69,6.69,0,0,1-.44,2.91C218,52.4,218.47,52.66,218.61,52.36Z"/><path class="cls-1" d="M215.86,38.75a.2.2,0,0,0,0-.39A.2.2,0,1,0,215.86,38.75Z"/><path class="cls-1" d="M203.52,14.42a.25.25,0,0,0,.36-.36A24.61,24.61,0,0,0,199.51,11c-.25-.16-.47.23-.23.39A33.26,33.26,0,0,1,203.52,14.42Z"/><path class="cls-1" d="M220.39,57.84a3.27,3.27,0,0,0,2.35-2.17c.1-.24-.28-.38-.4-.17-.52.83-1.05,1.7-2.06,1.94C220,57.5,220.13,57.88,220.39,57.84Z"/><path class="cls-1" d="M222.53,61.53a2.19,2.19,0,0,0,1.73-1.07c.19-.26-.25-.52-.43-.25a1.82,1.82,0,0,1-1.3,1A.18.18,0,0,0,222.53,61.53Z"/><path class="cls-1" d="M224.13,64.36a3.12,3.12,0,0,0,1.21-1.26c.06-.12-.1-.27-.2-.15A9,9,0,0,1,224,64.08C223.79,64.2,224,64.48,224.13,64.36Z"/><path class="cls-1" d="M225.9,65.8a.23.23,0,0,0,0-.45A.23.23,0,0,0,225.9,65.8Z"/><path class="cls-1" d="M228.43,72.42a24.16,24.16,0,0,0,1-2.41c.07-.2-.22-.3-.32-.14a9.55,9.55,0,0,0-1,2.41C228,72.47,228.34,72.61,228.43,72.42Z"/><path class="cls-1" d="M225.9,68.34a.1.1,0,0,0,0,.2A.1.1,0,0,0,225.9,68.34Z"/><path class="cls-1" d="M217.87,242.92c.46-.56-.29-1.35-.81-.81-2.3,2.38-1,6.46.44,8.93.1.16.34,0,.26-.16C216.55,248.41,216,245.2,217.87,242.92Z"/><path class="cls-1" d="M15.33,249.4a.15.15,0,0,0-.28.08,7.5,7.5,0,0,0,2,3.83c.2.21.51-.1.31-.31A9.36,9.36,0,0,1,15.33,249.4Z"/><path class="cls-1" d="M18.68,250.58a32.72,32.72,0,0,0,1.72,3.7c.13.21.5.08.41-.17a32.9,32.9,0,0,0-1.69-3.79C19,250,18.55,250.29,18.68,250.58Z"/><path class="cls-1" d="M22.81,250.83c.66,2.14,1.2,4.32,1.94,6.44.1.29.56.17.47-.13-.68-2.14-1.37-4.27-2.12-6.39A.15.15,0,0,0,22.81,250.83Z"/><path class="cls-1" d="M28.17,253.54a43.57,43.57,0,0,1,1.41,5.39c0,.18.29.1.26-.07a26.57,26.57,0,0,0-1.29-5.42C28.46,253.2,28.08,253.31,28.17,253.54Z"/><path class="cls-1" d="M36.19,251.7c-.14-.07-.26.14-.12.21a37.11,37.11,0,0,1,3.36,2c.16.1.29-.14.14-.24A29.5,29.5,0,0,0,36.19,251.7Z"/><path class="cls-1" d="M41.73,251.26c.25.24.59.52.63.88s.39.23.36,0A2,2,0,0,0,42,251C41.83,250.82,41.56,251.09,41.73,251.26Z"/><path class="cls-1" d="M42.54,244.85c-.25,0-.25.38,0,.4a5.25,5.25,0,0,1,1.61.61c.18.08.33-.17.16-.27A4.61,4.61,0,0,0,42.54,244.85Z"/><path class="cls-1" d="M25.85,241.09c-.89.4-1.72.95-2.64,1.28-.4.14-.23.78.17.64a16,16,0,0,0,2.76-1.43C26.46,241.39,26.18,240.94,25.85,241.09Z"/><path class="cls-1" d="M42.54,238.36a.28.28,0,0,0,0,.55A.28.28,0,0,0,42.54,238.36Z"/><path class="cls-1" d="M52.67,235.2c-.78-.06-1.57,0-2.36-.06a.46.46,0,0,0,0,.91c.79,0,1.58,0,2.36-.06A.4.4,0,0,0,52.67,235.2Z"/><path class="cls-1" d="M58.23,237.47a2.42,2.42,0,0,1-.56-1.2c0-.35-.57-.35-.54,0a2.43,2.43,0,0,0,.79,1.51A.22.22,0,0,0,58.23,237.47Z"/><path class="cls-1" d="M62.8,233.85a.39.39,0,0,0,0,.78A.39.39,0,0,0,62.8,233.85Z"/><path class="cls-1" d="M66.19,238.63c.09-1.8.07-3.6,0-5.4a.39.39,0,0,0-.77,0c0,1.8-.06,3.6,0,5.4A.35.35,0,0,0,66.19,238.63Z"/><path class="cls-1" d="M69.83,240c0-1.12,0-2.25,0-3.37a.31.31,0,0,0-.61,0c0,1.12,0,2.25,0,3.37A.28.28,0,0,0,69.83,240Z"/><path class="cls-1" d="M71.29,239.31a9.07,9.07,0,0,0,.38,3.11.26.26,0,0,0,.5-.14,11.85,11.85,0,0,1-.3-3A.29.29,0,0,0,71.29,239.31Z"/><path class="cls-1" d="M74.25,240.66a.31.31,0,0,0-.61,0,6.35,6.35,0,0,0,1.43,3.94c.26.28.64-.08.5-.39A9.42,9.42,0,0,1,74.25,240.66Z"/><path class="cls-1" d="M78.34,242.27a.42.42,0,0,0,0,.84A.42.42,0,0,0,78.34,242.27Z"/><path class="cls-1" d="M67.76,234.81a2.33,2.33,0,0,0,.72-1.58c0-.29-.48-.38-.54-.07a2.61,2.61,0,0,1-.64,1.19C67,234.66,67.47,235.12,67.76,234.81Z"/><path class="cls-1" d="M58.14,233.67a11.22,11.22,0,0,0-2.09,0,.26.26,0,0,0,0,.52,12.15,12.15,0,0,0,2.09,0C58.38,234.11,58.38,233.7,58.14,233.67Z"/><path class="cls-1" d="M13,242.54a2.87,2.87,0,0,1,.52,2.17.35.35,0,0,0,.7,0,3.43,3.43,0,0,0-.83-2.56C13.1,241.89,12.73,242.28,13,242.54Z"/><path class="cls-1" d="M18.23,241.61a.4.4,0,0,0,0,.8A.4.4,0,0,0,18.23,241.61Z"/><path class="cls-1" d="M31.71,239.56c-.13-.39-.76-.23-.63.17.31.92.69,1.8,1,2.7.14.34.68.21.58-.16C32.43,241.34,32,240.47,31.71,239.56Z"/><path class="cls-1" d="M37.14,238.59a.39.39,0,0,0,0,.77A.39.39,0,0,0,37.14,238.59Z"/><path class="cls-1" d="M12.15,258.77a.22.22,0,0,0,0-.43l-1.35,0a.19.19,0,0,0,0,.37Z"/><path class="cls-1" d="M12.15,262c-.72,0-1.54.31-2.22,0a.28.28,0,1,0-.22.51,5.3,5.3,0,0,0,2.44,0A.25.25,0,0,0,12.15,262Z"/><path class="cls-1" d="M51.73,252.48c0,.56,0,1.13,0,1.69a.24.24,0,0,0,.47,0c0-.56,0-1.13,0-1.69A.27.27,0,0,0,51.73,252.48Z"/><path class="cls-1" d="M57.06,251.84a.38.38,0,0,0,0-.75A.38.38,0,0,0,57.06,251.84Z"/><path class="cls-1" d="M64.15,252.88a.28.28,0,0,0,0,.55A.28.28,0,0,0,64.15,252.88Z"/><path class="cls-1" d="M77.3,242.5c-.21-.43-.84-.05-.63.37.37.78.61,1.6,1,2.35.18.32.75.1.61-.26C78,244.14,77.7,243.3,77.3,242.5Z"/><path class="cls-1" d="M81.43,244.14a.4.4,0,0,0-.78-.21A2.17,2.17,0,0,0,82,246.74c.32.1.61-.36.34-.59A2.15,2.15,0,0,1,81.43,244.14Z"/><path class="cls-1" d="M81.71,247.48a.07.07,0,1,0,0-.13A.07.07,0,0,0,81.71,247.48Z"/><path class="cls-1" d="M70.23,251.25a.22.22,0,0,0,0,.43A.22.22,0,0,0,70.23,251.25Z"/><path class="cls-1" d="M76.65,249.09a.35.35,0,0,0,0,.7A.35.35,0,0,0,76.65,249.09Z"/><path class="cls-1" d="M80.34,250.21a4.06,4.06,0,0,1,.07,2.53c-.12.32.39.53.55.23a3.73,3.73,0,0,0,.1-2.95C80.92,249.56,80.19,249.75,80.34,250.21Z"/><path class="cls-1" d="M87.45,249.78a.34.34,0,0,0,0,.67,1.06,1.06,0,0,1,.79.23c.31.25.75-.17.45-.45A1.72,1.72,0,0,0,87.45,249.78Z"/><path class="cls-1" d="M96.38,249.49a21.59,21.59,0,0,1,.31,4.68.22.22,0,0,0,.44,0,21.37,21.37,0,0,0-.37-4.79C96.71,249.13,96.32,249.24,96.38,249.49Z"/><path class="cls-1" d="M99.8,250a3,3,0,0,0-.41,1.75,10.18,10.18,0,0,0,.24,3.21c.1.35.68.29.64-.09-.09-.87-.21-1.73-.25-2.61,0-.5-.19-1.58.1-2C100.25,250,100,249.79,99.8,250Z"/><path class="cls-1" d="M102,249.78a23.53,23.53,0,0,0,.34,5.5c.09.4.79.32.73-.1a42.45,42.45,0,0,1-.35-5.4A.36.36,0,0,0,102,249.78Z"/><path class="cls-1" d="M105.71,255.18a12.3,12.3,0,0,1,.61-4.22c.18-.4-.4-.75-.59-.34a9,9,0,0,0-.74,4.56A.36.36,0,0,0,105.71,255.18Z"/><path class="cls-1" d="M108.79,254.17c0,.69.35,1.33.39,2,0,.28.45.29.44,0,0-.69-.27-1.33-.28-2C109.33,253.81,108.77,253.82,108.79,254.17Z"/><path class="cls-1" d="M112.66,257.41a7.09,7.09,0,0,0-1-1.77c-.25-.29-.7.15-.43.43a6.66,6.66,0,0,1,1,1.6C112.38,258,112.8,257.71,112.66,257.41Z"/><path class="cls-1" d="M114.09,255.52a19.72,19.72,0,0,0,.72,4.82c.12.44.72.24.66-.19a39.93,39.93,0,0,1-.63-4.63A.38.38,0,0,0,114.09,255.52Z"/><path class="cls-1" d="M116.81,258.32c.35,1,.69,2.07,1.14,3.07.13.29.55.08.49-.2-.24-1.05-.58-2.05-.91-3.07C117.38,257.66,116.65,257.86,116.81,258.32Z"/><path class="cls-1" d="M119.62,260.83a8.7,8.7,0,0,1,1,1.56c.14.23.55.08.45-.18a5.92,5.92,0,0,0-1-1.87C119.82,260,119.31,260.51,119.62,260.83Z"/><path class="cls-1" d="M125.62,267.58a17.93,17.93,0,0,0-2-4.85c-.32-.44-1.06,0-.74.43,1,1.42,1.38,3.13,2.08,4.7C125.13,268.23,125.75,268,125.62,267.58Z"/><path class="cls-1" d="M128.43,271.45c.07.24.48.21.45-.06a6.94,6.94,0,0,0-2.4-4.59c-.27-.22-.67.17-.39.4C127.48,268.3,127.93,269.83,128.43,271.45Z"/><path class="cls-1" d="M130.34,274.33a.24.24,0,0,0,0-.48A.24.24,0,0,0,130.34,274.33Z"/><path class="cls-1" d="M73.52,263.62a.26.26,0,0,0-.51,0,7.08,7.08,0,0,0,.75,3.48c.14.24.47,0,.37-.21A7.64,7.64,0,0,1,73.52,263.62Z"/><path class="cls-1" d="M85.07,260.24a.32.32,0,0,0-.64,0c0,2.4.07,4.84,1.45,6.89a.26.26,0,0,0,.45-.26A13.23,13.23,0,0,1,85.07,260.24Z"/><path class="cls-1" d="M95.56,261.23a.37.37,0,0,0,0,.73A.37.37,0,0,0,95.56,261.23Z"/><path class="cls-1" d="M104.77,269.05a.21.21,0,0,0,.07.15c.78.72,1.93.73,2.78,1.33.18.12.34-.14.22-.28-.7-.82-1.88-.7-2.65-1.4a.25.25,0,0,0-.42.15.42.42,0,0,0-.43-.43.45.45,0,0,0,0,.9A.41.41,0,0,0,104.77,269.05Z"/><path class="cls-1" d="M100.73,270.24A30.19,30.19,0,0,0,98,279.1c0,.27.36.4.44.11a47.14,47.14,0,0,1,2.7-8.7C101.33,270.2,100.88,269.94,100.73,270.24Z"/><path class="cls-1" d="M102.09,276.45c0,1.8-.07,3.61,0,5.41a.23.23,0,0,0,.45,0c.07-1.8,0-3.61,0-5.41A.23.23,0,0,0,102.09,276.45Z"/><path class="cls-1" d="M104.57,275.71c-.11-.28-.56-.16-.46.13a13.22,13.22,0,0,0,3.45,5.5.22.22,0,0,0,.31-.31A17.07,17.07,0,0,1,104.57,275.71Z"/><path class="cls-1" d="M112.56,274.31c-.15-.15-.39.09-.24.23.83.78,1.91,1.23,2.74,2,.11.1.28-.06.17-.17C114.42,275.58,113.36,275.1,112.56,274.31Z"/><path class="cls-1" d="M125.62,280a56.56,56.56,0,0,0,4.11-6.73c.27-.53-.53-1-.8-.47-1.19,2.35-2.6,4.57-4,6.79C124.64,280.07,125.33,280.45,125.62,280Z"/><path class="cls-1" d="M123.72,284.67c.84,1.62,2.06,2.94,2.67,4.68.1.29.57.17.47-.13-.64-1.77-1.87-3.14-2.74-4.78C124,284.18,123.59,284.41,123.72,284.67Z"/><path class="cls-1" d="M129.85,282.53a9.39,9.39,0,0,0,1.3,4.17c.14.27.53,0,.4-.23a10.81,10.81,0,0,1-1.39-3.94C130.14,282.33,129.84,282.33,129.85,282.53Z"/><path class="cls-1" d="M133.7,284.56a.33.33,0,0,0-.65,0,3.14,3.14,0,0,0,2.3,2.92c.24.09.37-.28.17-.42C134.53,286.44,133.72,285.82,133.7,284.56Z"/><path class="cls-1" d="M127.42,294.25c-.55-.19-.79.68-.24.87a14.05,14.05,0,0,1,4.57,3.22.39.39,0,0,0,.55-.55A12.09,12.09,0,0,0,127.42,294.25Z"/><path class="cls-1" d="M58.19,253.43c-.66,1.71-1.94,3-2.73,4.64-.17.34.32.63.51.3.91-1.63,2.08-3,2.67-4.82C58.73,253.26,58.3,253.16,58.19,253.43Z"/><path class="cls-1" d="M70.63,250.55c-1.74-.63-3.63-.76-5.41-1.3a.2.2,0,0,0-.11.38c1.76.58,3.61.9,5.39,1.4A.25.25,0,0,0,70.63,250.55Z"/><path class="cls-1" d="M65.35,265.33a7,7,0,0,1-3.24-2.57c-.23-.43-.87-.05-.64.37A7.06,7.06,0,0,0,65,266C65.4,266.17,65.78,265.55,65.35,265.33Z"/><path class="cls-1" d="M132.1,253.94a29.27,29.27,0,0,0,3.29,4.89c.22.26.57-.12.37-.37a44.11,44.11,0,0,1-3.3-4.74A.21.21,0,0,0,132.1,253.94Z"/><path class="cls-1" d="M137.74,257.82c.21.15.45-.18.27-.35a16.59,16.59,0,0,1-3.71-4.55c-.15-.34-.65,0-.5.29A11.43,11.43,0,0,0,137.74,257.82Z"/><path class="cls-1" d="M159.22,257.71a6.68,6.68,0,0,1-1.47-1.23c-.18-.18-.46.09-.28.27a7.19,7.19,0,0,0,1.56,1.3C159.25,258.17,159.45,257.83,159.22,257.71Z"/><path class="cls-1" d="M148.91,258.05c-.12.11.05.27.17.17,1.82-1.5,3.75.15,5.38,1.11.23.13.44-.23.21-.36C152.86,257.91,150.79,256.23,148.91,258.05Z"/><path class="cls-1" d="M149.93,268.49c-2.89.19-5-2.16-7.74-2.62-.16,0-.22.21-.07.24,2.76.47,4.92,3,7.81,2.78C150.18,268.87,150.18,268.47,149.93,268.49Z"/><path class="cls-1" d="M157.86,268.52c.22.22.55-.12.34-.34a7.19,7.19,0,0,0-2.47-2.09c-.29-.11-.42.36-.13.47A6.64,6.64,0,0,1,157.86,268.52Z"/><path class="cls-1" d="M102.14,198.79c0,1,0,2,0,3a.17.17,0,0,0,.34,0c0-1,0-2,0-3A.17.17,0,0,0,102.14,198.79Z"/><path class="cls-1" d="M122.82,239.7a6.77,6.77,0,0,1,1,3,.1.1,0,0,0,.2,0,5.12,5.12,0,0,0-1-3.1C122.93,239.48,122.74,239.58,122.82,239.7Z"/><path class="cls-1" d="M125.13,240a12.82,12.82,0,0,0,1.69,3.08c.12.17.39,0,.28-.16a15.17,15.17,0,0,1-1.68-3C125.35,239.77,125.07,239.84,125.13,240Z"/><path class="cls-1" d="M128.14,241.38a5.49,5.49,0,0,0,1.4,2.44.18.18,0,0,0,.25-.25,6.65,6.65,0,0,1-1.31-2.28C128.41,241.07,128.07,241.16,128.14,241.38Z"/><path class="cls-1" d="M133.94,244.92c-.4-.83-1.08-1.46-1.44-2.31-.07-.17-.33-.05-.28.12a11.4,11.4,0,0,0,1.27,2.45C133.66,245.48,134.09,245.22,133.94,244.92Z"/><path class="cls-1" d="M165.57,271c-.08-.14-.3,0-.22.14.43.88,1,1.68,1.53,2.52a.11.11,0,1,0,.19-.11C166.68,272.62,166,271.86,165.57,271Z"/><path class="cls-1" d="M172,268.52a.44.44,0,0,0-.87,0,3,3,0,0,0,1.18,2.29.38.38,0,0,0,.54-.53A2.82,2.82,0,0,1,172,268.52Z"/><path class="cls-1" d="M179.29,268.25a11.29,11.29,0,0,1-2.5-1.44c-.25-.24-.64.14-.38.38a9.89,9.89,0,0,0,2.57,1.6C179.33,269,179.64,268.43,179.29,268.25Z"/><path class="cls-1" d="M188.25,264.12a.35.35,0,0,0,0,.69A.35.35,0,0,0,188.25,264.12Z"/><path class="cls-1" d="M194.08,271.49c-.45-1.5-.57-3.06-1.08-4.54a.2.2,0,0,0-.39.1c.43,1.51.48,3.08,1,4.58C193.67,272,194.18,271.82,194.08,271.49Z"/><path class="cls-1" d="M203.81,293.9c-.74-1.49-1.65-2.89-2.42-4.36-.1-.18-.37,0-.28.16.73,1.5,1.55,2.95,2.32,4.42C203.56,294.38,203.93,294.15,203.81,293.9Z"/><path class="cls-1" d="M204.08,289.29a5.06,5.06,0,0,0,1.38,3.56c.17.17.54,0,.43-.26-.47-1.15-1.28-2-1.38-3.3A.22.22,0,0,0,204.08,289.29Z"/><path class="cls-1" d="M205.1,285.1a2.36,2.36,0,0,1,.62,1.15c.05.31.52.34.51,0a2.44,2.44,0,0,0-.72-1.56C205.25,284.41,204.84,284.83,205.1,285.1Z"/><path class="cls-1" d="M159.55,288.79a8.37,8.37,0,0,1-3.26,2.33.2.2,0,0,0,.1.38,7.72,7.72,0,0,0,3.49-2.39C160.09,288.9,159.77,288.58,159.55,288.79Z"/><path class="cls-1" d="M165.27,288.43q-1.52,1.51-3,3.06a.23.23,0,0,0,.32.32c1-1,2-2,3.06-3C165.88,288.56,165.51,288.19,165.27,288.43Z"/><path class="cls-1" d="M170.73,281.72a31.46,31.46,0,0,1-3,2.65c-.22.16,0,.53.22.37A17.07,17.07,0,0,0,171,282,.19.19,0,0,0,170.73,281.72Z"/><path class="cls-1" d="M175.79,283.32c-.72.4-1.36.65-2,0-.28-.26-.69.15-.41.41a1.93,1.93,0,0,0,2.7,0C176.32,283.58,176.09,283.15,175.79,283.32Z"/><path class="cls-1" d="M182.08,284.28c-.39-.07-.69-.33-1.09-.38s-.41.6,0,.64.64.29,1,.31S182.41,284.34,182.08,284.28Z"/><path class="cls-1" d="M186.06,282.7c-.25,0-.4-.3-.68-.34s-.22.32,0,.34.4.3.68.34S186.27,282.73,186.06,282.7Z"/><path class="cls-1" d="M186.06,284.05a.17.17,0,1,0,0,.34A.17.17,0,0,0,186.06,284.05Z"/><path class="cls-1" d="M148.47,283.1c-.24.21-.47.44-.7.66s.1.42.25.25.45-.46.66-.7A.15.15,0,0,0,148.47,283.1Z"/><path class="cls-1" d="M178.56,296.64l-.34.34c-.1.09.05.25.15.15l.33-.34C178.79,296.69,178.65,296.55,178.56,296.64Z"/><path class="cls-1" d="M184.71,297.18a.22.22,0,0,0,0,.43A.22.22,0,0,0,184.71,297.18Z"/><path class="cls-1" d="M191,300.68a3.64,3.64,0,0,1-1.3,1.6c-.24.13,0,.48.21.36a3.56,3.56,0,0,0,1.39-1.78C191.36,300.66,191.08,300.48,191,300.68Z"/><path class="cls-1" d="M216.71,282.46c-.32-1.1-.41-2.26-.8-3.34-.06-.17-.32-.11-.27.07.29,1.12.19,2.32.54,3.42A.28.28,0,0,0,216.71,282.46Z"/><path class="cls-1" d="M219.47,275.57c-.54,1.08-.93,2.26.1,3.17a.36.36,0,0,0,.51-.52c-.58-.71-.26-1.48.1-2.23C220.42,275.51,219.7,275.09,219.47,275.57Z"/><path class="cls-1" d="M235.59,276.89c-.32-.27-.77.17-.47.48.59.59,1.4.82,2,1.36.34.31.84-.18.51-.5C237,277.63,236.22,277.44,235.59,276.89Z"/><path class="cls-1" d="M233.13,280.17c0-.34-.54-.43-.6-.08a.79.79,0,0,1-.72.73c-.46,0-.45.77,0,.72A1.41,1.41,0,0,0,233.13,280.17Z"/><path class="cls-1" d="M232.83,284.84a.39.39,0,0,0,0,.78A.39.39,0,0,0,232.83,284.84Z"/><path class="cls-1" d="M229.86,273.31c-.41-.16-1.21-.13-1.24-.74,0-.45-.73-.45-.7,0a1.54,1.54,0,0,0,1.94,1.29A.29.29,0,0,0,229.86,273.31Z"/><path class="cls-1" d="M163.43,230.58a.06.06,0,1,0,0-.11A.06.06,0,0,0,163.43,230.58Z"/></g></g></svg>