<svg id="Layer_1" data-name="Layer 1" xmlns="http://www.w3.org/2000/svg" viewBox="0 0 660.51 956.78"><defs><style>.cls-1{fill:none;stroke:#fff;stroke-miterlimit:10;stroke-width:3px;}</style></defs><title>mini</title><path class="cls-1" d="M207.2,61.2c.6,1.7,3.6,3.4,4.5,2.4.4-.4-.1-1.4-1.1-2.2C208.2,59.7,206.7,59.6,207.2,61.2Z" transform="translate(-4.42 -58.56)"/><path class="cls-1" d="M195.9,69.1a8,8,0,0,1-3.6.9c-1.3,0-2.3.4-2.3.8,0,1.7,1.3,2,3.9,1,2.3-.9,13.1-1.3,16.2-.6a1.41,1.41,0,0,0,1.6-.8c.2-.7-.6-1.2-1.9-1.3s-4.6-.2-7.4-.5S196.7,68.6,195.9,69.1Z" transform="translate(-4.42 -58.56)"/><path class="cls-1" d="M218.2,69.6c.2.9,2.2,2.4,4.4,3.3a25.18,25.18,0,0,1,5.8,3c1.3,1.1,2,1.1,2.8.3s1-1.3.7-1.4c-2.3-1.4-9.4-5-11.4-5.8C218.3,68.2,217.9,68.3,218.2,69.6Z" transform="translate(-4.42 -58.56)"/><path class="cls-1" d="M258.4,74.9a9.62,9.62,0,0,0,4.2,2.5c1.6.4,3,1.9,3.9,4,1.2,2.8,2.2,3.5,7.3,5,4.6,1.3,6.7,2.5,9.8,6,3.7,4.2,8.7,6.7,10.1,5.2.9-.8-6.5-8.4-9.9-10.2a6.16,6.16,0,0,1-3.3-4.7,7.33,7.33,0,0,0-3.6-5.1c-4.1-2.4-4.9-1.2-1.6,2.2,5.2,5.4,2.4,7-4.2,2.6-2.2-1.4-4.2-3.2-4.5-3.9-.5-1.3-7.6-5.5-9.2-5.5C257,73,257.5,73.9,258.4,74.9Z" transform="translate(-4.42 -58.56)"/><path class="cls-1" d="M217,79.5c0,.8.4,1.5,1,1.5s.7-.7.4-1.5-.8-1.5-1-1.5S217,78.7,217,79.5Z" transform="translate(-4.42 -58.56)"/><path class="cls-1" d="M222,78.8c0,.5.7,1.3,1.6,1.6s1.4.1,1.2-.6C224.3,78.3,222,77.5,222,78.8Z" transform="translate(-4.42 -58.56)"/><path class="cls-1" d="M164.6,83c-1.9,2.2-3.8,5.2-4.1,6.7s-.8,3.6-1,4.5a3.48,3.48,0,0,0,1,2.8c1,.8,1.2,2.9.9,6.9-.4,5.4-.3,5.9,1.8,6.4,2.6.7,3.8-.1,2-1.2s-2.3-13.4-.9-17.5a28,28,0,0,1,3.8-6.5c2.5-3,2.9-6.1.9-6.1C168.6,79,166.6,80.8,164.6,83Z" transform="translate(-4.42 -58.56)"/><path class="cls-1" d="M255.6,80.2a1.1,1.1,0,0,0,1.5.3c1.3-.9,1.1-1.2-.6-1.2C255.7,79.3,255.3,79.7,255.6,80.2Z" transform="translate(-4.42 -58.56)"/><path class="cls-1" d="M235,81c0,.6.8,1,1.8,1a15.86,15.86,0,0,1,4.5,1.4c2.2,1.2,2.7,1.2,2.7.1,0-.7-.8-1.6-1.7-2.1C239.5,80.2,235,79.9,235,81Z" transform="translate(-4.42 -58.56)"/><path class="cls-1" d="M226,82.6c0,.8.5,1.2,1.1.8s2.5.4,4.1,1.6c3,2.2,3,1.2,0-2.3C229.3,80.6,226,80.5,226,82.6Z" transform="translate(-4.42 -58.56)"/><path class="cls-1" d="M223.8,86.1c-1.8,1-2.5,3.9-.9,3.9.4,0,1.2,1.5,1.8,3.2.7,2.5,1.4,3.2,3,3.1s3.2,1.2,5.8,4.7c3.6,4.9,7.5,8.1,7.5,6.1,0-.5-.7-1.1-1.4-1.4s-2.2-2.1-3.2-3.8c-1.7-3.4-5.2-6.8-6.9-6.9-.5,0-2.3-1.6-3.9-3.7l-2.9-3.6,3.4.6c3.2.6,3.2.6,1.1-.6-1.2-.7-1.9-1.6-1.6-2C226.6,84.7,225.8,84.9,223.8,86.1Z" transform="translate(-4.42 -58.56)"/><path class="cls-1" d="M243.6,86.8c-.4.8-1.6,1-2.8.6-1.7-.5-1.8-.3-.9,1.3,2.4,4.1,5.9,7.5,6.5,6.4a2.35,2.35,0,0,0,0-2.3,14.93,14.93,0,0,1-1.3-4.2C244.6,86.5,244.2,85.9,243.6,86.8Z" transform="translate(-4.42 -58.56)"/><path class="cls-1" d="M267,89a10,10,0,0,0,3.4,2c.5,0-.3-.9-1.7-2a10,10,0,0,0-3.4-2C264.9,87,265.6,87.9,267,89Z" transform="translate(-4.42 -58.56)"/><path class="cls-1" d="M152.5,89c-.3.5-.2,1,.4,1a2.34,2.34,0,0,0,1.6-1c.3-.6.2-1-.4-1A2,2,0,0,0,152.5,89Z" transform="translate(-4.42 -58.56)"/><path class="cls-1" d="M275,90.4c0,.2.7.7,1.6,1s1.2.2.9-.4C276.9,90,275,89.6,275,90.4Z" transform="translate(-4.42 -58.56)"/><path class="cls-1" d="M234,92a2.06,2.06,0,0,0,1.3,1.6c.7.2,2.7,2.7,4.3,5.4,2.8,4.9,5.4,6.5,5.4,3.5a2.41,2.41,0,0,0-1.5-2.1c-.8-.4-1.5-1.1-1.5-1.7,0-.9-6.7-7.7-7.6-7.7C234.2,91,234,91.5,234,92Z" transform="translate(-4.42 -58.56)"/><path class="cls-1" d="M259.1,94.2c.9,1.6,1.7,1.9,4.1,1.4a38.75,38.75,0,0,1,4.6-.6c3.7,0-.8-2.1-5.1-2.5C258.2,92.2,258.1,92.2,259.1,94.2Z" transform="translate(-4.42 -58.56)"/><path class="cls-1" d="M202.1,94.7c.7,1.2,1.5,2,1.8,1.7s-.3-1.2-1.3-2.2C200.9,92.6,200.8,92.6,202.1,94.7Z" transform="translate(-4.42 -58.56)"/><path class="cls-1" d="M248.6,94.8c-.7,1.2,2.9,5.5,4.3,5,.5-.1-.1-1.6-1.4-3.2S249,94.2,248.6,94.8Z" transform="translate(-4.42 -58.56)"/><path class="cls-1" d="M192.6,95.8c-.7,1.2,3.2,4.8,4.1,3.8.8-.8-.8-3.8-2.4-4.3A1.52,1.52,0,0,0,192.6,95.8Z" transform="translate(-4.42 -58.56)"/><path class="cls-1" d="M271,96.9c0,.5,1,1.3,2.1,1.6,1.7.6,1.8.9.8,1.6-1.9,1.1-.6,2.1,5.9,4.1,7,2.2,7.2,2.2,7.2.2,0-1.3.7-1.5,4.2-.9,3.9.7,4.1.6,2.9-.9a5.28,5.28,0,0,0-3.7-1.6c-1.3,0-5.3-1.1-9-2.5C274.4,95.9,271,95.4,271,96.9Z" transform="translate(-4.42 -58.56)"/><path class="cls-1" d="M211,97.9a4.12,4.12,0,0,0,1.5,2.1c1.3,1,1.5.9,1.5-.9,0-1.2-.6-2.1-1.5-2.1S211,97.4,211,97.9Z" transform="translate(-4.42 -58.56)"/><path class="cls-1" d="M226,100a1.1,1.1,0,0,0,1.1,1c.5,0,.7-.5.4-1s-.8-1-1.1-1S226,99.4,226,100Z" transform="translate(-4.42 -58.56)"/><path class="cls-1" d="M154.2,102c-.7,1.1-.8,2-.4,2a6.18,6.18,0,0,0,2.7-2c1.4-1.5,1.5-2,.4-2A4.11,4.11,0,0,0,154.2,102Z" transform="translate(-4.42 -58.56)"/><path class="cls-1" d="M261,102.9c0,.5,1.4,1.4,3,2.1s3,1.6,3,2.1,1.1.9,2.3.9a6.63,6.63,0,0,1,4.2,2c1.9,2.1,3.5,2.6,3.5,1.1,0-.4-1.8-2.1-4-3.6s-3.8-3.1-3.5-3.5-.9-1-2.6-1.4C262.6,101.8,261,101.8,261,102.9Z" transform="translate(-4.42 -58.56)"/><path class="cls-1" d="M183,103.9c0,1.3,3.7,2.4,5.2,1.5.8-.5.6-1-.8-1.5C184.7,102.8,183,102.8,183,103.9Z" transform="translate(-4.42 -58.56)"/><path class="cls-1" d="M214.5,105c.3.5.8,1,1.1,1s.4-.5.4-1a1,1,0,0,0-1.1-1C214.4,104,214.2,104.4,214.5,105Z" transform="translate(-4.42 -58.56)"/><path class="cls-1" d="M296,104.6c0,.4,2.9,3.5,6.4,6.9s6.7,7.2,7.1,8.4,1.1,2.1,1.6,2.1.9.8.9,1.8,1.2,2.5,2.8,3.3,3,1.5,3.4,1.7.1-1.1-.5-2.9c-1.2-3.1-3.7-6.1-14-16.7C299.2,104.6,296,102.7,296,104.6Z" transform="translate(-4.42 -58.56)"/><path class="cls-1" d="M306,105c0,.5,1.8,1.9,4.1,3.1s3.8,1.6,3.5,1.1C312.6,107.6,306,104,306,105Z" transform="translate(-4.42 -58.56)"/><path class="cls-1" d="M176,106.5c2.3,2.7,6.8,5.6,7.4,4.6.3-.4-1.1-2-3.2-3.5C175.9,104.7,174.1,104.2,176,106.5Z" transform="translate(-4.42 -58.56)"/><path class="cls-1" d="M248,108a1.1,1.1,0,0,0,1.1,1c.5,0,.7-.5.4-1s-.8-1-1.1-1S248,107.4,248,108Z" transform="translate(-4.42 -58.56)"/><path class="cls-1" d="M281,108a1,1,0,0,0,.9,1,2.14,2.14,0,0,0,1.6-1c.3-.6-.1-1-.9-1S281,107.4,281,108Z" transform="translate(-4.42 -58.56)"/><path class="cls-1" d="M292.5,109a6.18,6.18,0,0,0,2.7,2c1.5,0,.9-2.8-.8-3.4C291.4,106.5,290.7,107,292.5,109Z" transform="translate(-4.42 -58.56)"/><path class="cls-1" d="M189.7,108.7c-1.2,1.1-.8,2.3.8,2.3.9,0,2,1.1,2.5,2.5s1.4,2.5,2,2.5c1.6,0,1.2-1.5-1-3.5a5.77,5.77,0,0,1-2-3.2C192,107.9,190.8,107.6,189.7,108.7Z" transform="translate(-4.42 -58.56)"/><path class="cls-1" d="M207,109.2c0,1.7,2.4,5.7,3.6,6.2,2.2.8,1.6-1.2-1.1-4.2C208.1,109.7,207,108.8,207,109.2Z" transform="translate(-4.42 -58.56)"/><path class="cls-1" d="M233,110c0,1.6,4.1,3.3,5.2,2.2.6-.6-.1-1.3-2.1-2C234.3,109.6,233,109.5,233,110Z" transform="translate(-4.42 -58.56)"/><path class="cls-1" d="M151,111.2a.88.88,0,0,0,.9.8,2,2,0,0,0,1.5-.8c.3-.5-.1-.9-.9-.9S151,110.7,151,111.2Z" transform="translate(-4.42 -58.56)"/><path class="cls-1" d="M221,110.9a2.34,2.34,0,0,0,1,1.6c.6.3,1,.2,1-.4a2,2,0,0,0-1-1.6C221.5,110.2,221,110.3,221,110.9Z" transform="translate(-4.42 -58.56)"/><path class="cls-1" d="M251,110.6c0,1.2,7.3,10.3,8.6,10.8,2.7,1,2.7.7-.1-2.6a22.87,22.87,0,0,1-3.5-5.4C255.3,111.7,251,109.2,251,110.6Z" transform="translate(-4.42 -58.56)"/><path class="cls-1" d="M315.9,112.2a37.16,37.16,0,0,1,2.5,9.3,6.85,6.85,0,0,0,2.9,2.7c1.5,1,2.7,2.2,2.7,2.6s2.1,2.3,4.8,4,6.2,4.4,8,5.8c2.4,2,3.2,2.3,3.2,1.1,0-.8-4.1-5-9-9.3-6.6-5.7-9.3-8.8-10.1-11.4a12.63,12.63,0,0,0-3.5-5.3C315,109.9,315,109.9,315.9,112.2Z" transform="translate(-4.42 -58.56)"/><path class="cls-1" d="M200,113c0,2,1.5,3.7,7,7.8,6.8,5.1,18,10.9,18,9.3,0-1.3-4.3-4.8-6.8-5.6s-15-9.9-16.9-12.4C200.2,110.7,200.1,110.8,200,113Z" transform="translate(-4.42 -58.56)"/><path class="cls-1" d="M229,112.5c0,.8.5,1.5,1,1.5s1-.7,1-1.5-.4-1.5-1-1.5S229,111.7,229,112.5Z" transform="translate(-4.42 -58.56)"/><path class="cls-1" d="M283,112c0,.5.9,1,1.9,1a3.5,3.5,0,0,0,2.6-1c.4-.6-.5-1-1.9-1S283,111.4,283,112Z" transform="translate(-4.42 -58.56)"/><path class="cls-1" d="M164.6,112.7c-.9,1-.7,5.5.3,4.9,1.2-.8,2.1-4.5,1.1-5.1A1.23,1.23,0,0,0,164.6,112.7Z" transform="translate(-4.42 -58.56)"/><path class="cls-1" d="M242,113.4c0,1.9,2.7,4.6,4.6,4.6,1.6,0,1.2-1.2-1.4-4.3C243.4,111.6,242,111.5,242,113.4Z" transform="translate(-4.42 -58.56)"/><path class="cls-1" d="M266.4,113.9a25.07,25.07,0,0,0,7.7,4.2c3.2,1.2,5.7,2.6,5.6,3.1s1.5,1.5,3.6,2.3a18.28,18.28,0,0,1,6.3,3.6c2,1.9,3.7,2.3,11.2,2.6,5.9.2,8.2,0,7.2-.7a9.51,9.51,0,0,0-4.1-1c-5.9,0-13.7-2.2-14.2-4-.3-1.2-1.9-2-4.6-2.5s-4.7-1.5-5.8-3.1c-.8-1.3-2.2-2.4-3-2.4a11.59,11.59,0,0,1-4.1-1.4,43.56,43.56,0,0,0-5.2-2.1C264.5,111.7,264.5,111.7,266.4,113.9Z" transform="translate(-4.42 -58.56)"/><path class="cls-1" d="M291.5,114.5c3.9,3.2,5.8,3.2,2.2,0-1.5-1.4-3.3-2.5-4-2.5S289.9,113.2,291.5,114.5Z" transform="translate(-4.42 -58.56)"/><path class="cls-1" d="M157.2,115.2c-.8,1.9-1.6,2.6-2.7,2.2-1.9-.8-4.5,1.3-4.5,3.6a4.57,4.57,0,0,1-1.5,3,5.1,5.1,0,0,0-1.5,3.4c0,1.7.7,1.3,4.3-2.7,4.6-5.2,7.3-6.2,6.3-2.3l-.6,2.3,2.9-2.6c2.5-2.3,2.7-2.6,1.1-2.9-1.3-.2-2-1.4-2.2-3.5l-.4-3.2Z" transform="translate(-4.42 -58.56)"/><path class="cls-1" d="M298.4,116.1a7.23,7.23,0,0,0,2.4,5c1.3,1,2.1,2.3,1.8,2.8s.4,1.1,1.7,1.5c3.6.9,4.7.7,4.1-.9-.4-.8-1.1-1.5-1.8-1.5-1.2,0-6.6-6.4-6.6-7.9a2,2,0,0,0-.9-1.5C298.6,113.3,298.3,114.4,298.4,116.1Z" transform="translate(-4.42 -58.56)"/><path class="cls-1" d="M223,115.3a2.64,2.64,0,0,0,1.1,2.2,1.79,1.79,0,0,1,.6,1.8c-.6,1.8,3.2,6.7,5.1,6.7,1.6-.1,1.6-.2,0-1.4a4.41,4.41,0,0,1-1.8-3c0-.9-.4-1.6-1-1.6s-1-.8-1-1.9a4.8,4.8,0,0,0-1.5-3.1C223.3,114,223,114,223,115.3Z" transform="translate(-4.42 -58.56)"/><path class="cls-1" d="M233,116.8c0,1.2,1.9,2.6,2.6,1.9.2-.2-.2-1-1.1-1.7S233,116.2,233,116.8Z" transform="translate(-4.42 -58.56)"/><path class="cls-1" d="M284,117c0,.5,1.2,1,2.6,1s2.3-.4,1.9-1-1.5-1-2.6-1S284,116.4,284,117Z" transform="translate(-4.42 -58.56)"/><path class="cls-1" d="M214,119a1.1,1.1,0,0,0,1.1,1c.5,0,.7-.5.4-1s-.8-1-1.1-1S214,118.4,214,119Z" transform="translate(-4.42 -58.56)"/><path class="cls-1" d="M192,119.6c0,1.5,2.2,4.4,3.4,4.4.8,0,4,1.4,7.2,3.1,10.1,5.5,13.3,6.9,15,6.9,1.3,0,1.4-.3.4-1.5a4.12,4.12,0,0,0-2.3-1.5c-.6,0-4.2-2-8.1-4.4-6-3.7-13.8-7.6-15.2-7.6C192.2,119,192,119.3,192,119.6Z" transform="translate(-4.42 -58.56)"/><path class="cls-1" d="M249,120.3c0,1.7,3.6,5,7.8,7.1,1.8,1,3.6,2.4,3.9,3.2.6,1.5,2.3,2,2.3.6S251,119,249.6,119C249.3,119,249,119.6,249,120.3Z" transform="translate(-4.42 -58.56)"/><path class="cls-1" d="M242.4,127.4c7.1,7.8,10.5,10.2,13.2,9.2,1.5-.6,1.1-1.3-2.6-4.6-2.5-2.2-4.7-4-5.1-4a21.09,21.09,0,0,1-4.2-3.4C236.5,118,235.7,119.9,242.4,127.4Z" transform="translate(-4.42 -58.56)"/><path class="cls-1" d="M178.9,122.4c.7.8,2.8,1.6,4.9,1.8a37.88,37.88,0,0,1,5.7,1.3c2,.8,2,.8.1-1.3-1.5-1.8-2.6-2.1-5.3-1.6-2.1.4-3.3.2-3.3-.5s-.7-1.1-1.6-1.1C178.1,121,178,121.3,178.9,122.4Z" transform="translate(-4.42 -58.56)"/><path class="cls-1" d="M274,123.7c.1,2,1.9,3.3,5.8,4.1,5.4,1.2,5.4.3,0-2.6C275.2,122.9,274,122.5,274,123.7Z" transform="translate(-4.42 -58.56)"/><path class="cls-1" d="M73.1,127.6c0,1.1.3,1.4.6.6a2,2,0,0,0-.1-1.9C73.3,125.9,73,126.5,73.1,127.6Z" transform="translate(-4.42 -58.56)"/><path class="cls-1" d="M154.8,127.1a3.75,3.75,0,0,0-1.8,3.1c0,1.6.3,1.8,1.4.9s3-5.2,2.3-5.1A12,12,0,0,0,154.8,127.1Z" transform="translate(-4.42 -58.56)"/><path class="cls-1" d="M178,132c-1.2.8-1.1,1,.7,1a3.85,3.85,0,0,0,2.8-1C182.3,130.7,180,130.7,178,132Z" transform="translate(-4.42 -58.56)"/><path class="cls-1" d="M281,132a1.1,1.1,0,0,0,1.1,1c.5,0,.7-.5.4-1s-.8-1-1.1-1S281,131.4,281,132Z" transform="translate(-4.42 -58.56)"/><path class="cls-1" d="M319.3,133.1c-1.3.5-2.3,1.2-2.3,1.7,0,1.7,1.3,2.1,3.3,1,1.7-.9,2.4-.7,3.8,1.1,1.8,2.2,1.8,2.2,2.8.2.6-1.1.7-2.2.2-2.5C324.5,133,321.2,132.4,319.3,133.1Z" transform="translate(-4.42 -58.56)"/><path class="cls-1" d="M198,133.5a5.52,5.52,0,0,0,2,1.5c1.6.9,2,.8,2-.5,0-.8-.9-1.5-2-1.5S198,133.2,198,133.5Z" transform="translate(-4.42 -58.56)"/><path class="cls-1" d="M235,133.9c0,.8,3.4,2.1,5.5,2.1,1.1-.1-3.5-2.9-4.7-3A.82.82,0,0,0,235,133.9Z" transform="translate(-4.42 -58.56)"/><path class="cls-1" d="M307.5,134a63.06,63.06,0,0,1-11,.9c-3.8,0-9.9.1-13.5.3s-8.2.2-10.2.1-3.8.3-3.8.8c0,.9,1.5,1.3,3.9.9a2.32,2.32,0,0,1,2.2,1.2c.7,1.1,1.2,1.1,2.9,0,1.4-.9,5.4-1.3,11.8-1.2,11,.1,23.8-.6,25.3-1.5s.1-2.5-1.9-2.4C312.3,133.2,309.7,133.6,307.5,134Z" transform="translate(-4.42 -58.56)"/><path class="cls-1" d="M330.4,138.5c0,1.6.7,2.5,1.8,2.5,2.8,0,3-1.7.4-3.3C330.3,136.2,330.2,136.2,330.4,138.5Z" transform="translate(-4.42 -58.56)"/><path class="cls-1" d="M136.6,140.5c-2.2,2.3-2.1,2.5,1.6,2.2,1.7-.1,3.4-.9,3.6-1.6.3-.9,0-1.1-.8-.6a1.53,1.53,0,0,1-2-.4C138.5,139.2,137.9,139.3,136.6,140.5Z" transform="translate(-4.42 -58.56)"/><path class="cls-1" d="M144,140.1c0,.5.5.7,1,.4s1-.8,1-1.1-.4-.4-1-.4A1.1,1.1,0,0,0,144,140.1Z" transform="translate(-4.42 -58.56)"/><path class="cls-1" d="M188.5,140l-3,.8,3,.1a10.48,10.48,0,0,0,4.5-.9c1.3-.9,1.3-1,0-.9C192.2,139.2,190.2,139.6,188.5,140Z" transform="translate(-4.42 -58.56)"/><path class="cls-1" d="M237,140.5a4.4,4.4,0,0,0,3.2,1c1.3-.1,2.7.3,3.1.9.6.7.7.6.4-.4-.2-.8-2-1.8-4-2.1C236.9,139.5,236.3,139.6,237,140.5Z" transform="translate(-4.42 -58.56)"/><path class="cls-1" d="M257,139.6c0,1.1,3.4,3.3,5,3.3,1,.1.6-.6-1-1.9C258.4,139,257,138.5,257,139.6Z" transform="translate(-4.42 -58.56)"/><path class="cls-1" d="M73,142.7c0,2.5.1,2.6,1.6,1.1.9-.9,1.3-2.1,1-2.7C74.3,139.1,73,140,73,142.7Z" transform="translate(-4.42 -58.56)"/><path class="cls-1" d="M307.8,140.7a2,2,0,0,0,1.9-.1c.4-.3-.2-.6-1.3-.5S307,140.4,307.8,140.7Z" transform="translate(-4.42 -58.56)"/><path class="cls-1" d="M282.1,141.9c-.9.6-.2,1,2.4,1.3,2.1.2,4.4-.1,5.3-.9,1.5-1.1,1.2-1.2-2.3-1.3A13.52,13.52,0,0,0,282.1,141.9Z" transform="translate(-4.42 -58.56)"/><path class="cls-1" d="M223.3,145c-1.8,1.6-2.8,3.2-2.3,3.5s2.3-.8,4-2.4,2.8-3.1,2.3-3.4S225,143.5,223.3,145Z" transform="translate(-4.42 -58.56)"/><path class="cls-1" d="M247.6,143.7c-.5,1.5-1.3,1.9-2.6,1.6-1.1-.3-2,0-2,.6a1.23,1.23,0,0,0,1.3,1.1c1.5,0,5.4,3.9,4.9,4.8-.2.4.2.8.8,1,.9.3,1-.8.5-3.9C249.5,142.9,248.4,141,247.6,143.7Z" transform="translate(-4.42 -58.56)"/><path class="cls-1" d="M297.3,143.1c-3.2.9-5,2.5-4,3.6s6.8-.9,7.7-2.8C302.2,141.8,302,141.8,297.3,143.1Z" transform="translate(-4.42 -58.56)"/><path class="cls-1" d="M338,144c-1.2.8-.9,1,1.3,1,1.5,0,2.7-.5,2.7-1C342,142.7,340,142.7,338,144Z" transform="translate(-4.42 -58.56)"/><path class="cls-1" d="M98.6,145c-1.1.3-1.5.9-1,1.3,1,.6,4.2-.9,3.4-1.6C100.7,144.4,99.6,144.6,98.6,145Z" transform="translate(-4.42 -58.56)"/><path class="cls-1" d="M254,145.3c0,.2.5,1.8,1.1,3.6,1.3,3.7,2.8,4.2,2.1.6-.5-2.9.4-3.1,3.6-.9,1.2.8,2.7,1.2,3.3.8.8-.4.3-1.1-1.2-1.9C260.3,146.1,254,144.6,254,145.3Z" transform="translate(-4.42 -58.56)"/><path class="cls-1" d="M273.5,146.2a20.23,20.23,0,0,1,3.4,1.4c1,.9-2.3,3.3-5.2,3.9-1.8.4-4.1.9-5.2,1.3-1.8.5-1.8.6.5,1.3,5,1.4,7.1.9,10.3-2.4a31.4,31.4,0,0,1,5.7-4.4l2.5-1.1L283,146c-1.4-.1-4.7-.3-7.5-.5C270.9,145.1,270.8,145.2,273.5,146.2Z" transform="translate(-4.42 -58.56)"/><path class="cls-1" d="M333.8,145.7a2,2,0,0,0,1.9-.1c.4-.3-.2-.6-1.3-.5S333,145.4,333.8,145.7Z" transform="translate(-4.42 -58.56)"/><path class="cls-1" d="M74.8,147.2a8,8,0,0,0-2.1,4.1l-.4,2.8,2.8-3.3a19.85,19.85,0,0,0,2.9-4.1C78,145.6,76.6,145.8,74.8,147.2Z" transform="translate(-4.42 -58.56)"/><path class="cls-1" d="M89.8,146.7a5.28,5.28,0,0,0,2.5,0c.6-.3.1-.5-1.3-.5S89.1,146.4,89.8,146.7Z" transform="translate(-4.42 -58.56)"/><path class="cls-1" d="M126.8,146.7a2,2,0,0,0,1.9-.1c.4-.3-.2-.6-1.3-.5S126,146.4,126.8,146.7Z" transform="translate(-4.42 -58.56)"/><path class="cls-1" d="M231.3,146.7a1.93,1.93,0,0,0-1.3,1.6,7.17,7.17,0,0,1-2.1,3.3c-1.4,1.5-1.9,2.9-1.4,4.3.7,2.4,3.5,2.9,3.5.6,0-.9.9-1.5,2.5-1.5,1.4,0,2.5-.5,2.5-1.1s-1.1-.8-3-.4c-4.1.9-4.1-1.9-.1-4,1.7-.8,3.3-1.9,3.6-2.5C236.1,146,233.5,145.8,231.3,146.7Z" transform="translate(-4.42 -58.56)"/><path class="cls-1" d="M135.5,148c-.3.6.5,1,1.9,1s2.8-.5,3.1-1-.5-1-1.9-1S135.8,147.4,135.5,148Z" transform="translate(-4.42 -58.56)"/><path class="cls-1" d="M130.6,150.5c-1.1.8-1.5,1.5-1,1.5a7.47,7.47,0,0,0,3-1.5c1-.8,1.5-1.4.9-1.4A6.73,6.73,0,0,0,130.6,150.5Z" transform="translate(-4.42 -58.56)"/><path class="cls-1" d="M240.3,151.7a13.11,13.11,0,0,1,2.2,4.6c.5,2,1.1,2.5,1.8,1.8,1.5-1.5-1.7-8.1-3.9-8.1C238.8,150,238.8,150.2,240.3,151.7Z" transform="translate(-4.42 -58.56)"/><path class="cls-1" d="M289.5,154c-2,2.1-2.4,3-1.3,3,1.8,0,5.8-3.3,5.8-4.9C294,150.2,292.5,150.9,289.5,154Z" transform="translate(-4.42 -58.56)"/><path class="cls-1" d="M95,153.2c0,1.1,2.8,1,3.5-.1.3-.6-.4-.9-1.5-.8S95,152.8,95,153.2Z" transform="translate(-4.42 -58.56)"/><path class="cls-1" d="M217,153.1c0,.5.5.7,1,.4s1-.8,1-1.1-.4-.4-1-.4A1.1,1.1,0,0,0,217,153.1Z" transform="translate(-4.42 -58.56)"/><path class="cls-1" d="M115.5,153.9c-6.1.5-6.6.7-3.6,1.3a45.83,45.83,0,0,0,9.3.8c5.3,0,5.9-.2,4.8-1.5a3.42,3.42,0,0,0-2.4-1.3C123,153.3,119.4,153.6,115.5,153.9Z" transform="translate(-4.42 -58.56)"/><path class="cls-1" d="M132.5,155.4l-3,1.3,3.8.6c4.3.7,7,0,6.4-1.7S135.9,153.9,132.5,155.4Z" transform="translate(-4.42 -58.56)"/><path class="cls-1" d="M222.2,155.6c-1.7,1.8-2.5,7.4-1.1,7.4.6,0,.8-.4.5-.9s.3-2.4,1.3-4.5C224.8,153.9,224.5,152.9,222.2,155.6Z" transform="translate(-4.42 -58.56)"/><path class="cls-1" d="M77.1,157.4c-.7.8-.8,1.7-.3,2s1.3-.1,1.6-1C79.3,156.1,78.6,155.6,77.1,157.4Z" transform="translate(-4.42 -58.56)"/><path class="cls-1" d="M256,157c0,.5.7,1,1.6,1s1.2-.5.9-1a1.9,1.9,0,0,0-1.6-1A.92.92,0,0,0,256,157Z" transform="translate(-4.42 -58.56)"/><path class="cls-1" d="M97.8,158.7a2,2,0,0,0,1.9-.1c.4-.3-.2-.6-1.3-.5S97,158.4,97.8,158.7Z" transform="translate(-4.42 -58.56)"/><path class="cls-1" d="M237,159c-1.2.8-1.2,1,.3,1.6,2.2.8,5-.3,4.2-1.6S239,157.7,237,159Z" transform="translate(-4.42 -58.56)"/><path class="cls-1" d="M102,160.2c0,1.1,8.2,1,10-.2,1.1-.8-.1-1-4.2-.8C104.6,159.3,102,159.7,102,160.2Z" transform="translate(-4.42 -58.56)"/><path class="cls-1" d="M249.6,160.9c-1.2,1.4-1.4,2.1-.6,2.6,1.7,1,4.7-2.2,3.4-3.5C251.7,159.3,250.8,159.6,249.6,160.9Z" transform="translate(-4.42 -58.56)"/><path class="cls-1" d="M280.5,160.1c-.4.6-.5,1.3-.2,1.6.7.7,2.7-.6,2.7-1.8S281.3,158.7,280.5,160.1Z" transform="translate(-4.42 -58.56)"/><path class="cls-1" d="M116.5,160.9c-1,1.7,1.2,2.1,2.5.6,1-1.2,1-1.5-.3-1.5A3,3,0,0,0,116.5,160.9Z" transform="translate(-4.42 -58.56)"/><path class="cls-1" d="M226,161.8c0,1.9,3.1,8.2,4,8.2,1.2,0,1.3.3-.4-4.5C228.3,161.9,226,159.5,226,161.8Z" transform="translate(-4.42 -58.56)"/><path class="cls-1" d="M274.2,162a13.68,13.68,0,0,0-5,2.2,9.8,9.8,0,0,1-4.2,2.1c-2.5.6-5.7,4.4-4.6,5.5.3.3,1.4-.2,2.3-1a51.43,51.43,0,0,1,7.8-4.8c5.2-2.8,8.9-5.2,7.5-4.9C277.7,161.2,276,161.6,274.2,162Z" transform="translate(-4.42 -58.56)"/><path class="cls-1" d="M124.6,162.9c-.3.5.9,1.1,2.7,1.4,3.6.5,4.2.3,3.2-1.2C129.7,161.8,125.3,161.6,124.6,162.9Z" transform="translate(-4.42 -58.56)"/><path class="cls-1" d="M220,165.9c0,1.9,1.7,3.8,2.5,2.9.7-.7-.7-4.8-1.6-4.8C220.4,164,220,164.9,220,165.9Z" transform="translate(-4.42 -58.56)"/><path class="cls-1" d="M242.5,164.9c-.7,1.2,3.1,2.5,4.6,1.5.8-.4.7-.9-.2-1.5C245.1,163.8,243.3,163.8,242.5,164.9Z" transform="translate(-4.42 -58.56)"/><path class="cls-1" d="M108.5,166c-.3.5.1,1,.9,1s1.6-.5,1.6-1a.92.92,0,0,0-.9-1A1.9,1.9,0,0,0,108.5,166Z" transform="translate(-4.42 -58.56)"/><path class="cls-1" d="M274.7,167.6a4,4,0,0,0-.7,2.4,19.71,19.71,0,0,1-2,5.5c-1.4,2.8-1.7,4.2-.9,5.1a10.89,10.89,0,0,1,1.2,4.9c.1,3.5,1.8,4.7,3.4,2.2.4-.6.8-4.8.8-9.2a93.24,93.24,0,0,1,.5-9.4A1.4,1.4,0,0,0,274.7,167.6Z" transform="translate(-4.42 -58.56)"/><path class="cls-1" d="M200.6,169.5c-.3.8-.1,1.5.4,1.5s1-.7,1-1.5-.2-1.5-.4-1.5S201,168.7,200.6,169.5Z" transform="translate(-4.42 -58.56)"/><path class="cls-1" d="M238.2,169.2c.5,1.5,2.8,2.3,2.8,1,0-.5-.7-1.3-1.6-1.6S238,168.5,238.2,169.2Z" transform="translate(-4.42 -58.56)"/><path class="cls-1" d="M46,172.5c0,.8.5,1.5,1,1.5s1-.7,1-1.5-.4-1.5-1-1.5S46,171.7,46,172.5Z" transform="translate(-4.42 -58.56)"/><path class="cls-1" d="M196,173.9a2.34,2.34,0,0,0,1,1.6c.6.3,1,.2,1-.4a2,2,0,0,0-1-1.6C196.5,173.2,196,173.3,196,173.9Z" transform="translate(-4.42 -58.56)"/><path class="cls-1" d="M244.5,175a1.22,1.22,0,0,0,1.6.5c1.4-.9,1.1-1.5-.7-1.5C244.6,174,244.2,174.5,244.5,175Z" transform="translate(-4.42 -58.56)"/><path class="cls-1" d="M191.1,176.6c0,1.1.3,1.4.6.6a2,2,0,0,0-.1-1.9C191.3,174.9,191,175.5,191.1,176.6Z" transform="translate(-4.42 -58.56)"/><path class="cls-1" d="M260.2,176.6a5.23,5.23,0,0,0-2.2,3.6c0,2.1,0,2.1,2.1.2,2.5-2.2,4.3-5.4,3.2-5.4A8.15,8.15,0,0,0,260.2,176.6Z" transform="translate(-4.42 -58.56)"/><path class="cls-1" d="M281.5,180.1c-.9,2.8-.3,3.1,2.8,1.6s3.1-2.9,0-3.3A2.15,2.15,0,0,0,281.5,180.1Z" transform="translate(-4.42 -58.56)"/><path class="cls-1" d="M299.5,178.9a1.21,1.21,0,0,0,1.9,1.4c.9-.9.7-2.3-.3-2.3A2.2,2.2,0,0,0,299.5,178.9Z" transform="translate(-4.42 -58.56)"/><path class="cls-1" d="M212.5,180c-.3.5-.1,1,.4,1a1.1,1.1,0,0,0,1.1-1c0-.6-.2-1-.4-1S212.8,179.4,212.5,180Z" transform="translate(-4.42 -58.56)"/><path class="cls-1" d="M290.5,180c-.3.5.1,1,.9,1a2.82,2.82,0,0,0,2.1-1c.3-.6-.1-1-.9-1A2.52,2.52,0,0,0,290.5,180Z" transform="translate(-4.42 -58.56)"/><path class="cls-1" d="M329.2,180.2a3.12,3.12,0,0,0,1.6,1.6c.7.2,1-.2.6-1.2C330.7,178.8,328.6,178.4,329.2,180.2Z" transform="translate(-4.42 -58.56)"/><path class="cls-1" d="M336.5,180.3c-.4,1-.5,2.1-.1,2.4,1,1,1.8-.4,1.3-2.4C337.3,178.6,337.3,178.6,336.5,180.3Z" transform="translate(-4.42 -58.56)"/><path class="cls-1" d="M249,183.1c0,.5.5.7,1,.4s1-.8,1-1.1-.4-.4-1-.4A1.1,1.1,0,0,0,249,183.1Z" transform="translate(-4.42 -58.56)"/><path class="cls-1" d="M45.5,184c-.3.5.1,1,.9,1s1.6-.5,1.6-1a.92.92,0,0,0-.9-1A1.9,1.9,0,0,0,45.5,184Z" transform="translate(-4.42 -58.56)"/><path class="cls-1" d="M268.3,184.7c-1.8.7-1.6,2.3.2,2.3a1.54,1.54,0,0,0,1.5-1.5c0-.8-.1-1.5-.2-1.4A6.38,6.38,0,0,0,268.3,184.7Z" transform="translate(-4.42 -58.56)"/><path class="cls-1" d="M343.5,185c-.3.5-.2,1,.2,1,2.9,0,14.4,11.6,24.3,24.4,4.1,5.4,7.7,10.1,8,10.5,1.9,2.5,4.1,3.3,5.5,2.1,1.8-1.5,2-4,.3-4s-6.9-5.5-14.9-15.5c-8.5-10.6-13.7-15.5-17-16.2-1.5-.3-3-1.1-3.3-1.9C346,183.8,344.4,183.6,343.5,185Z" transform="translate(-4.42 -58.56)"/><path class="cls-1" d="M53.8,185.6c-.5.4-.8,1.9-.8,3.3,0,1.8.3,2.2,1.1,1.4a4.32,4.32,0,0,0,.7-3.3C54.7,185.8,54.2,185.2,53.8,185.6Z" transform="translate(-4.42 -58.56)"/><path class="cls-1" d="M171,186.5c-.8.9-.8,1.5-.2,1.5,1.2,0,2.6-1.9,1.9-2.6C172.5,185.2,171.7,185.6,171,186.5Z" transform="translate(-4.42 -58.56)"/><path class="cls-1" d="M113,188.4c0,.2.7.6,1.5,1s1.5.1,1.5-.4-.7-1-1.5-1S113,188.2,113,188.4Z" transform="translate(-4.42 -58.56)"/><path class="cls-1" d="M262.7,188.6c-.8.8.1,2.4,1.4,2.4.5,0,.9-.7.9-1.5C265,188,263.8,187.5,262.7,188.6Z" transform="translate(-4.42 -58.56)"/><path class="cls-1" d="M40.4,192.2l-1.9,2.3,2.5-2c1.4-1.1,2.7-2.1,2.9-2.2s0-.3-.6-.3S41.5,191,40.4,192.2Z" transform="translate(-4.42 -58.56)"/><path class="cls-1" d="M277.3,192.2c-.6,1.4-.8,3.1-.3,3.8.6,1,1,.7,1.5-1.3C279.5,191,278.6,189.3,277.3,192.2Z" transform="translate(-4.42 -58.56)"/><path class="cls-1" d="M50.4,193.7a21.69,21.69,0,0,1-1.5,3.5c-1.5,2.9-1,3.2.9.7,2.4-3.1,3.4-5.9,2.1-5.9C51.4,192,50.7,192.8,50.4,193.7Z" transform="translate(-4.42 -58.56)"/><path class="cls-1" d="M259.7,195.7a39.75,39.75,0,0,0-2.2,8.3,31,31,0,0,1-3.4,6.8c-1.7,2.9-3.1,5.6-3.1,6.1,0,1.4-6,5.1-9.2,5.7-3.4.6-9.8,3.2-9.8,3.9,0,.3,2.9.3,6.4,0,11.5-.7,15.2-4,20.6-17.7,2.9-7.2,3.9-13.8,2.1-13.8A1.61,1.61,0,0,0,259.7,195.7Z" transform="translate(-4.42 -58.56)"/><path class="cls-1" d="M269.1,199.3c-1.8,4.9-2.2,6.7-1.3,6.7,1.3,0,2.9-2,4.1-5.2.8-2.1.7-2.8-.5-3.2C270.5,197.2,269.6,197.9,269.1,199.3Z" transform="translate(-4.42 -58.56)"/><path class="cls-1" d="M91,201.5c0,1.4.4,2.5.9,2.5s.6-1.1.3-2.5-.6-2.5-.8-2.5S91,200.1,91,201.5Z" transform="translate(-4.42 -58.56)"/><path class="cls-1" d="M227.8,200.7a2,2,0,0,0,1.9-.1c.4-.3-.2-.6-1.3-.5S227,200.4,227.8,200.7Z" transform="translate(-4.42 -58.56)"/><path class="cls-1" d="M60,202.4a2.82,2.82,0,0,0,1,2.1c.6.3,1-.1,1-.9a2.52,2.52,0,0,0-1-2.1C60.5,201.2,60,201.6,60,202.4Z" transform="translate(-4.42 -58.56)"/><path class="cls-1" d="M68,204.4a2.82,2.82,0,0,0,1,2.1c.6.3,1-.3,1-1.4s-.4-2.1-1-2.1S68,203.6,68,204.4Z" transform="translate(-4.42 -58.56)"/><path class="cls-1" d="M270.3,207.4c-1.9,1.8-3.3,4.2-3.3,5.5,0,2.2.1,2.2,3.1-1C276.6,204.9,276.8,201.1,270.3,207.4Z" transform="translate(-4.42 -58.56)"/><path class="cls-1" d="M210,208.4c0,.9.5,1.6,1,1.6a.92.92,0,0,0,1-.9,1.9,1.9,0,0,0-1-1.6C210.5,207.2,210,207.6,210,208.4Z" transform="translate(-4.42 -58.56)"/><path class="cls-1" d="M69,209.6c0,.8.5,1.2,1,.9a1.9,1.9,0,0,0,1-1.6.92.92,0,0,0-1-.9C69.5,208,69,208.7,69,209.6Z" transform="translate(-4.42 -58.56)"/><path class="cls-1" d="M122,209.9a1.9,1.9,0,0,0,1,1.6c.6.3.7-.1.4-.9C122.7,208.8,122,208.5,122,209.9Z" transform="translate(-4.42 -58.56)"/><path class="cls-1" d="M218.5,210c-.4.6.5,1,2.2,1a14.93,14.93,0,0,1,5.8,1.6c2.9,1.5,7.5,1.2,7.5-.5S219.5,208.4,218.5,210Z" transform="translate(-4.42 -58.56)"/><path class="cls-1" d="M376,210.8c0,1.2,1.9,2.6,2.6,1.9.2-.2-.2-1-1.1-1.7S376,210.2,376,210.8Z" transform="translate(-4.42 -58.56)"/><path class="cls-1" d="M210,216.4c0,.2.7.6,1.5,1s1.5.1,1.5-.4-.7-1-1.5-1S210,216.2,210,216.4Z" transform="translate(-4.42 -58.56)"/><path class="cls-1" d="M262,219c-2.5,1.9-2.5,1.9-.5,3.4,1.8,1.3,2.1,1.2,3.2-.7,1.4-2.5,1.7-4.7.6-4.7A9.86,9.86,0,0,0,262,219Z" transform="translate(-4.42 -58.56)"/><path class="cls-1" d="M66.7,220.6a3.7,3.7,0,0,0-.7,2.3c0,1.1.3,1.2,1.1.4a2.33,2.33,0,0,0,.7-2.3C67.6,220.4,67.1,220.2,66.7,220.6Z" transform="translate(-4.42 -58.56)"/><path class="cls-1" d="M129,221a1,1,0,0,0,.9,1,2.14,2.14,0,0,0,1.6-1c.3-.6-.1-1-.9-1S129,220.4,129,221Z" transform="translate(-4.42 -58.56)"/><path class="cls-1" d="M71,224.7a7.28,7.28,0,0,1-1.5,3.7c-1.6,2.2-1.9,3.6-.7,3.6,1,0,4.2-5.8,4.2-7.6C73,222.4,71,222.7,71,224.7Z" transform="translate(-4.42 -58.56)"/><path class="cls-1" d="M80,225.5c-.7.9-.8,1.5-.2,1.5s1.2-.7,1.6-1.5.4-1.5.2-1.5A6,6,0,0,0,80,225.5Z" transform="translate(-4.42 -58.56)"/><path class="cls-1" d="M385.4,225.3c.4,1.3,0,2-1.4,2.4-2.4.6-2.5,1.6-.4,3.4a32.11,32.11,0,0,1,4.5,5.6c3.1,4.4,4.9,5.5,4.9,2.8,0-2-4-9.5-5.1-9.5-.5,0-.9-.8-.9-1.8a6.47,6.47,0,0,0-1.1-3.2C385,223.8,384.9,223.8,385.4,225.3Z" transform="translate(-4.42 -58.56)"/><path class="cls-1" d="M256,226.1c0,.5.5.7,1,.4s1-.8,1-1.1-.4-.4-1-.4A1.1,1.1,0,0,0,256,226.1Z" transform="translate(-4.42 -58.56)"/><path class="cls-1" d="M61.7,228.9a3.26,3.26,0,0,0,.1,2.5c.8.9,3.2-1.4,3.2-3C65,226.3,62.3,226.7,61.7,228.9Z" transform="translate(-4.42 -58.56)"/><path class="cls-1" d="M76.5,229c-.3.5-.1,1,.4,1a1.1,1.1,0,0,0,1.1-1c0-.6-.2-1-.4-1S76.8,228.4,76.5,229Z" transform="translate(-4.42 -58.56)"/><path class="cls-1" d="M93.1,233.3c-.8,1.1-.6,1.8.9,3.2,2,1.8,2,1.7,2-1.3C96,231.8,95,231.1,93.1,233.3Z" transform="translate(-4.42 -58.56)"/><path class="cls-1" d="M110,234a1.1,1.1,0,0,0,1.1,1c.5,0,.7-.5.4-1s-.8-1-1.1-1S110,233.4,110,234Z" transform="translate(-4.42 -58.56)"/><path class="cls-1" d="M85.7,236.7c-1.1,1-.8,4.3.3,4.3.6,0,1-1.1,1-2.5C87,235.9,86.8,235.6,85.7,236.7Z" transform="translate(-4.42 -58.56)"/><path class="cls-1" d="M92.7,238.6c-.4.4-.7,2.8-.6,5.3v4.6l1.6-3.2c1.2-2.3,1.4-3.9.7-5.3C93.9,238.8,93.1,238.2,92.7,238.6Z" transform="translate(-4.42 -58.56)"/><path class="cls-1" d="M102.5,244.5c-2.6,5.8-3,7.5-1.7,7.5.7,0,3.4-6.1,4.7-10.8C106.7,237.2,105.1,238.9,102.5,244.5Z" transform="translate(-4.42 -58.56)"/><path class="cls-1" d="M60.7,245.9a1.89,1.89,0,0,1-1.1,2.4,2.6,2.6,0,0,0-1.6,2.2c0,2.3,1.6,1.8,2.8-1,1.4-3.1,1.5-5.5.3-5.5C60.6,244,60.4,244.8,60.7,245.9Z" transform="translate(-4.42 -58.56)"/><path class="cls-1" d="M79.6,247.6c-.8,2.1-.8,7.9,0,7.1,1-1,2.2-8.7,1.4-8.7C80.6,246,79.9,246.7,79.6,247.6Z" transform="translate(-4.42 -58.56)"/><path class="cls-1" d="M68.6,247.9c-.4.7-.5,1.5-.2,1.8.9.9,1.9-.4,1.4-1.8C69.4,246.8,69.2,246.8,68.6,247.9Z" transform="translate(-4.42 -58.56)"/><path class="cls-1" d="M107.1,252.4c-1.4,1.6-.9,4.6.8,4.6,1.3,0,1.9-2.2,1.2-4.3C108.5,251,108.3,251,107.1,252.4Z" transform="translate(-4.42 -58.56)"/><path class="cls-1" d="M90.7,256.3a9.46,9.46,0,0,0-1.2,6.9c.5,2.5.2,3.8-.9,4.7a4.38,4.38,0,0,0-1.6,2.2c0,1.5,2.6,1,4.3-.9,1.9-2.1,2.3-3.7.6-2.7-1.2.8-.3-7.1,1.2-11.3C94.4,251.8,92.7,252.6,90.7,256.3Z" transform="translate(-4.42 -58.56)"/><path class="cls-1" d="M58,255.5c0,.8.5,1.5,1,1.5s1-.7,1-1.5-.4-1.5-1-1.5S58,254.7,58,255.5Z" transform="translate(-4.42 -58.56)"/><path class="cls-1" d="M68.1,256.3a32.18,32.18,0,0,0,.8,3.7c.7,2.4.8,2.4,1.2-.7.4-2.1.1-3.4-.8-3.7C68.6,255.3,68,255.6,68.1,256.3Z" transform="translate(-4.42 -58.56)"/><path class="cls-1" d="M75.5,257.2c-.8,3.3-.1,9.1,1.1,9.5.7.2.9-1.8.7-5.4C76.9,254.9,76.4,253.7,75.5,257.2Z" transform="translate(-4.42 -58.56)"/><path class="cls-1" d="M109.7,261.6c-.3.5.1,1.5.9,2.2,1.6,1.4,1.8.5.5-1.7C110.6,261.4,110,261.2,109.7,261.6Z" transform="translate(-4.42 -58.56)"/><path class="cls-1" d="M105,263.5c0,.8.4,1.5.9,1.5s1.1-.7,1.5-1.5,0-1.5-.9-1.5A1.54,1.54,0,0,0,105,263.5Z" transform="translate(-4.42 -58.56)"/><path class="cls-1" d="M47,271c0,5.6.2,6.2,1.3,4.5,1-1.2,1.2-3,.7-5.7C47.8,263.6,47,264.1,47,271Z" transform="translate(-4.42 -58.56)"/><path class="cls-1" d="M68.7,266.7a2.41,2.41,0,0,0-.7,1.7c0,.6.5.5,1.2-.2s.9-1.4.7-1.7A.84.84,0,0,0,68.7,266.7Z" transform="translate(-4.42 -58.56)"/><path class="cls-1" d="M83.7,267.7a2.41,2.41,0,0,0-.7,1.7c0,.6.5.5,1.2-.2s.9-1.4.7-1.7A.84.84,0,0,0,83.7,267.7Z" transform="translate(-4.42 -58.56)"/><path class="cls-1" d="M110.5,268.2c-.2.7-.6,2.8-.9,4.7-.4,2.9-.3,3.2.9,2,1.8-1.9,3-7.9,1.5-7.9A1.85,1.85,0,0,0,110.5,268.2Z" transform="translate(-4.42 -58.56)"/><path class="cls-1" d="M61,269.5c0,.8.4,1.5,1,1.5s.7-.7.4-1.5-.8-1.5-1-1.5S61,268.7,61,269.5Z" transform="translate(-4.42 -58.56)"/><path class="cls-1" d="M71.9,275.2c-.5,5.6,0,9,1.2,8.3s1.2-12.5,0-12.5C72.6,271,72,272.9,71.9,275.2Z" transform="translate(-4.42 -58.56)"/><path class="cls-1" d="M78,272.9a1.9,1.9,0,0,0,1,1.6c.6.3.7-.1.4-.9C78.7,271.8,78,271.5,78,272.9Z" transform="translate(-4.42 -58.56)"/><path class="cls-1" d="M40.6,274.5c-.3.8-.1,1.5.4,1.5s1-.7,1-1.5-.2-1.5-.4-1.5S41,273.7,40.6,274.5Z" transform="translate(-4.42 -58.56)"/><path class="cls-1" d="M85.2,276.1c-1.4,2.2-1.6,3.9-.4,3.9s3.3-4.8,2.4-5.4C86.7,274.3,85.9,275,85.2,276.1Z" transform="translate(-4.42 -58.56)"/><path class="cls-1" d="M98.6,277.5c-2.5,4.6-1.4,5.6,1.3,1.2,2.3-3.7,2.5-4.7,1.3-4.7C100.8,274,99.6,275.6,98.6,277.5Z" transform="translate(-4.42 -58.56)"/><path class="cls-1" d="M54.7,277.2a20.88,20.88,0,0,0-2.2,4.8,17.56,17.56,0,0,1-2.7,5c-1.2,1.5-1.5,2.6-.9,2.8,1.7.6,1.3,3.9-1,8.3-2.3,4.7-2,8.1.6,5.5,2-2,4.1-12.9,2.6-13.4a1.6,1.6,0,0,1-1.1-1.3c0-.4.6-.6,1.4-.3,1,.4,2-1.4,3.6-6.1C57.3,275.5,57.2,273.2,54.7,277.2Z" transform="translate(-4.42 -58.56)"/><path class="cls-1" d="M261,279.5c.6.3,1-.1,1-.9" transform="translate(-4.42 -58.56)"/><path class="cls-1" d="M90.8,280.4c-1.9,1.4-2.3,2.6-1,2.6.4,0,1.3-.9,2-2C93.2,278.7,93.1,278.6,90.8,280.4Z" transform="translate(-4.42 -58.56)"/><path class="cls-1" d="M58.4,286c-2.3,6.7-1.5,10.6,1,4.6,2-4.7,3.1-10.6,2-10.6C60.9,280,59.6,282.7,58.4,286Z" transform="translate(-4.42 -58.56)"/><path class="cls-1" d="M202,281.3c0,1.9,3,3.1,4.4,1.7,1.2-1.2.8-1.5-2.1-2.4C202.6,280.1,202,280.3,202,281.3Z" transform="translate(-4.42 -58.56)"/><path class="cls-1" d="M247,281c0,.5,1.4,1.6,3,2.5,3.3,1.7,4,.7,1.2-1.8C249.1,279.8,247,279.5,247,281Z" transform="translate(-4.42 -58.56)"/><path class="cls-1" d="M408,280.4c0,2,5.5,11.6,6.9,12.1,2,.6,3.6,6.1,2.5,8.9-.8,2,.9,2.1,2.6,0,1.1-1.3,1-2.2-.8-5.7-1.2-2.3-2.8-5.1-3.4-6.2s-2.3-3.6-3.6-5.7-2.7-3.8-3.2-3.8S408,280.2,408,280.4Z" transform="translate(-4.42 -58.56)"/><path class="cls-1" d="M231.8,282.7a5.28,5.28,0,0,0,2.5,0c.6-.3.1-.5-1.3-.5S231.1,282.4,231.8,282.7Z" transform="translate(-4.42 -58.56)"/><path class="cls-1" d="M266.2,283.7c.9,1,1.9,3.9,2.2,6.5s1.2,4.8,1.8,4.8c1.5,0,.2-7.5-1.8-10.6-.9-1.3-2.1-2.4-2.7-2.4S265.4,282.8,266.2,283.7Z" transform="translate(-4.42 -58.56)"/><path class="cls-1" d="M243,283.8c0,1,2.2,3.2,3.2,3.2,1.5,0,.8-2.8-.8-3.4C243.3,282.8,243,282.8,243,283.8Z" transform="translate(-4.42 -58.56)"/><path class="cls-1" d="M272,284.4a4.42,4.42,0,0,0,1.5,2.6c1.2,1,1.5.9,1.5-.8a3.07,3.07,0,0,0-1.5-2.6C272.6,283.3,272,283.6,272,284.4Z" transform="translate(-4.42 -58.56)"/><path class="cls-1" d="M291.9,285.2c-1,1.8-.9,2,.6,1.5a9.62,9.62,0,0,1,2.1-.7c.2,0,.4-.7.4-1.5C295,282.3,293.2,282.7,291.9,285.2Z" transform="translate(-4.42 -58.56)"/><path class="cls-1" d="M209.9,285.3a8,8,0,0,0-2.3,3.5,5.71,5.71,0,0,1-2.9,3.2q-2.25.9-.6.9c.9.1,2.9-.9,4.5-2.1a12.15,12.15,0,0,1,3.9-2.4c.5,0,2-.2,3.3-.2s2.2-.7,2.2-1.3-1.2-.9-3-.7c-2.3.3-3,.1-2.6-.9C213.1,283.7,212,283.7,209.9,285.3Z" transform="translate(-4.42 -58.56)"/><path class="cls-1" d="M262,285.7c0,1.3,2.9,3.8,3.5,3.1.3-.3-.4-1.3-1.5-2.3S262,285.2,262,285.7Z" transform="translate(-4.42 -58.56)"/><path class="cls-1" d="M253,286.8c0,.5,1.4,1.8,3.1,3.1a14.64,14.64,0,0,1,4,4.8c1.3,3.4,1.7,2.7,1.2-1.8-.4-2.9-1.1-3.9-3.9-5.3C253.5,285.8,253,285.7,253,286.8Z" transform="translate(-4.42 -58.56)"/><path class="cls-1" d="M223.3,288.7c-.8,2.2.1,2.5,3.1.9l2.7-1.4-2.6-.5C224.8,287.4,223.7,287.7,223.3,288.7Z" transform="translate(-4.42 -58.56)"/><path class="cls-1" d="M238,288.5a3.67,3.67,0,0,1-2.9,1.4c-2.9-.2-4.1.1-4.1,1.1,0,.5.7,1,1.5,1a3.53,3.53,0,0,1,2.5,2.1c1,1.7.8,2.1-.9,2.6-1.1.3-1.8.9-1.5,1.4s1.4.4,2.5-.2c1.5-.8,1.9-1.9,1.7-4.2-.3-2.9,0-3.2,2.4-3.2,3.4-.1,4.7-1.3,2.8-2.5S239.4,286.8,238,288.5Z" transform="translate(-4.42 -58.56)"/><path class="cls-1" d="M285.1,292c-3,4.6-3.2,5.3-2.1,8.6.7,1.9,1.3,3.4,1.5,3.2,1.6-1.7,6.1-12,5.3-12.4-.5-.3-.6-1.4-.3-2.5C290.7,285.4,288.4,287,285.1,292Z" transform="translate(-4.42 -58.56)"/><path class="cls-1" d="M192.4,291c.1,3.5.7,3.7,2.4,1,1.4-2.3.8-4-1.2-4C192.8,288,192.3,289.2,192.4,291Z" transform="translate(-4.42 -58.56)"/><path class="cls-1" d="M199.5,289c-.3.5-.1,1,.4,1a1.1,1.1,0,0,0,1.1-1c0-.6-.2-1-.4-1S199.8,288.4,199.5,289Z" transform="translate(-4.42 -58.56)"/><path class="cls-1" d="M396.5,290c-1.8,1.9-2.5,10.6-1.1,12.9.9,1.4,4.6,1.5,4.6.1,0-.6-.9-1-2.1-1-1.8,0-2-.4-1.4-3.3a15.92,15.92,0,0,1,1.5-4.2c1.2-1.6,1.9-5.5,1-6C398.6,288.3,397.5,288.9,396.5,290Z" transform="translate(-4.42 -58.56)"/><path class="cls-1" d="M83.1,290.6c0,1.1.3,1.4.6.6a2,2,0,0,0-.1-1.9C83.3,288.9,83,289.5,83.1,290.6Z" transform="translate(-4.42 -58.56)"/><path class="cls-1" d="M273.7,291a7.9,7.9,0,0,0,.9,4.8c1.4,2.7,1.4,2.7,1.4-2.1S274.7,287.3,273.7,291Z" transform="translate(-4.42 -58.56)"/><path class="cls-1" d="M293.5,290c-.3.5-.1,1,.4,1a1.1,1.1,0,0,0,1.1-1c0-.6-.2-1-.4-1S293.8,289.4,293.5,290Z" transform="translate(-4.42 -58.56)"/><path class="cls-1" d="M252.5,291a2.14,2.14,0,0,0,1.6,1,1,1,0,0,0,.9-1c0-.6-.7-1-1.6-1S252.2,290.4,252.5,291Z" transform="translate(-4.42 -58.56)"/><path class="cls-1" d="M389,291.9c0,1.2.5,2.1,1,2.1s1-.6,1-1.4a2.52,2.52,0,0,0-1-2.1C389.5,290.2,389,290.8,389,291.9Z" transform="translate(-4.42 -58.56)"/><path class="cls-1" d="M405.5,291c-.3.5-.1,1,.4,1a1.1,1.1,0,0,0,1.1-1c0-.6-.2-1-.4-1S405.8,290.4,405.5,291Z" transform="translate(-4.42 -58.56)"/><path class="cls-1" d="M40,295.3a8.57,8.57,0,0,1-1.5,4.3,7.26,7.26,0,0,0-1.5,3.8c0,3,2.8.1,3.5-3.7.4-1.8.9-4,1.1-5s.1-1.7-.5-1.7S40,294,40,295.3Z" transform="translate(-4.42 -58.56)"/><path class="cls-1" d="M249.5,293.9c-.7,1.2,3.1,2.5,4.6,1.5.8-.4.7-.9-.2-1.5C252.1,292.8,250.3,292.8,249.5,293.9Z" transform="translate(-4.42 -58.56)"/><path class="cls-1" d="M185,295.3c-6.7,3.5-7.2,3.9-6.3,4.8,1.2,1.2,12.6-3.8,11.8-5.1S188,293.8,185,295.3Z" transform="translate(-4.42 -58.56)"/><path class="cls-1" d="M409.2,295.2a4.15,4.15,0,0,0-1.2,2.5c0,1.8,3.5,0,4.4-2.2C413.1,293.7,410.9,293.5,409.2,295.2Z" transform="translate(-4.42 -58.56)"/><path class="cls-1" d="M380,296.3c0,1.9,1,2.7,2.6,2,2.1-.8,1.7-3.3-.6-3.3C380.9,295,380,295.6,380,296.3Z" transform="translate(-4.42 -58.56)"/><path class="cls-1" d="M402.3,295.7c-2.1.7-1.5,3.3.7,3.3,1.1,0,2-.3,2-.8C405,296.7,403.5,295.3,402.3,295.7Z" transform="translate(-4.42 -58.56)"/><path class="cls-1" d="M297,297a1,1,0,0,0,.9,1,2.14,2.14,0,0,0,1.6-1c.3-.6-.1-1-.9-1S297,296.4,297,297Z" transform="translate(-4.42 -58.56)"/><path class="cls-1" d="M292.5,299.1c-1.2,1.9.5,2.3,2.2.6s1.6-1.7.1-1.7A2.84,2.84,0,0,0,292.5,299.1Z" transform="translate(-4.42 -58.56)"/><path class="cls-1" d="M311,299.8a10.53,10.53,0,0,0-3.3,2.1,6.94,6.94,0,0,1-4.8,1.2c-2.3-.2-2.9.1-2.7,1.2.2.8-1.4,2.9-3.5,4.5-2.5,2-3.4,3.3-2.6,3.8s.3,1.2-1.5,2.1c-2.6,1.3-3.5,3.3-1.6,3.3a1,1,0,0,0,1-1.1c0-.8.4-.8,1.4,0,1.2,1,1.7.7,2.9-1.6a18.91,18.91,0,0,1,3.6-4.7,6.05,6.05,0,0,0,2.1-3.5c0-1.2.6-.9,2,.9s2,2.1,2,.8c0-.9,1.6-2.9,3.6-4.5C313.2,301.4,314,298.8,311,299.8Z" transform="translate(-4.42 -58.56)"/><path class="cls-1" d="M268,301.1c0,.5.5.7,1,.4s1-.8,1-1.1-.4-.4-1-.4A1.1,1.1,0,0,0,268,301.1Z" transform="translate(-4.42 -58.56)"/><path class="cls-1" d="M374,301.4a2.82,2.82,0,0,0,1,2.1c.6.3,1,1.8,1,3.3a14.07,14.07,0,0,0,1.5,5.2c1.2,2.2,1.4,2.2,1.4.5-.2-4.1-2.4-11.9-3.6-12.3C374.6,300,374,300.5,374,301.4Z" transform="translate(-4.42 -58.56)"/><path class="cls-1" d="M382.8,300.8c-2.2.4-2.3,3-.3,5.6s2.7,1.6,2.3-2.6C384.6,301.2,384.1,300.5,382.8,300.8Z" transform="translate(-4.42 -58.56)"/><path class="cls-1" d="M187.3,303.1c-3.1,1.5-4.6,1.8-6.1,1-1.3-.7-2.2-.7-3,.1-2,2-1.3,2.8,2.3,2.8,5.5,0,11.5-2.2,11.5-4.2C192,300.6,192.3,300.6,187.3,303.1Z" transform="translate(-4.42 -58.56)"/><path class="cls-1" d="M274,302a1.1,1.1,0,0,0,1.1,1c.5,0,.7-.5.4-1s-.8-1-1.1-1S274,301.4,274,302Z" transform="translate(-4.42 -58.56)"/><path class="cls-1" d="M279.2,304.5c1.2,2.7,2.8,3.4,2.8,1.2,0-1.4-2-3.7-3.2-3.7C278.4,302,278.6,303.1,279.2,304.5Z" transform="translate(-4.42 -58.56)"/><path class="cls-1" d="M405.5,304c-.3.5.1,1,.9,1s1.6-.5,1.6-1a.92.92,0,0,0-.9-1A1.9,1.9,0,0,0,405.5,304Z" transform="translate(-4.42 -58.56)"/><path class="cls-1" d="M53.6,305.6c-.8,2.1-.8,2.4.3,2.4.5,0,1.1-.9,1.4-2C55.9,303.6,54.5,303.3,53.6,305.6Z" transform="translate(-4.42 -58.56)"/><path class="cls-1" d="M169,308.6a91.11,91.11,0,0,1-6.3,7.4c-1.8,1.7-2.5,3-1.8,3.4,1.6,1,6.7-2.3,8-5.1.6-1.2,1.8-2.3,2.6-2.3,1.9,0,4.2-5.3,2.6-5.8a.82.82,0,0,1-.5-1.3c.3-.5.2-.9-.3-.9S170.9,306.1,169,308.6Z" transform="translate(-4.42 -58.56)"/><path class="cls-1" d="M389.6,308.2c-.9,3.6-.7,7,.4,6.3a2.86,2.86,0,0,0,1-2.4,4.8,4.8,0,0,1,1.5-3.1c1.3-1.1,1.3-1.5.3-2.1C390.8,305.6,390.3,305.8,389.6,308.2Z" transform="translate(-4.42 -58.56)"/><path class="cls-1" d="M416,308a1,1,0,0,0,.9,1,2.14,2.14,0,0,0,1.6-1c.3-.6-.1-1-.9-1S416,307.4,416,308Z" transform="translate(-4.42 -58.56)"/><path class="cls-1" d="M283.1,309.6c0,1.1.3,1.4.6.6a2,2,0,0,0-.1-1.9C283.3,307.9,283,308.5,283.1,309.6Z" transform="translate(-4.42 -58.56)"/><path class="cls-1" d="M312.3,309.2c-1.3.6-2.3,1.7-2.3,2.5,0,1.6,1.2,1.7,2.9,0a4.28,4.28,0,0,1,2.2-1.3c.5-.1,1.4-.2,2-.3,1.4-.1.1-2.1-1.4-2A10.09,10.09,0,0,0,312.3,309.2Z" transform="translate(-4.42 -58.56)"/><path class="cls-1" d="M397.8,310c-.9.6-2.4,3.5-3.2,6.5s-1.9,6.2-2.3,7.2c-.4,1.2.2.9,2.2-1,1.5-1.5,3.3-2.7,4-2.7a4.22,4.22,0,0,0,2.5-1.5c1-1.2,1-1.5-.3-1.5a2.58,2.58,0,0,0-2.2,1,2.14,2.14,0,0,1-1.6,1c-1.8,0-.9-2.6,2.2-6.3C402,309.1,401.5,307.9,397.8,310Z" transform="translate(-4.42 -58.56)"/><path class="cls-1" d="M425.4,312c1.5,5.2,5.9,15,6.8,15,1.5,0,2.2-3.2,1-4.9a21.22,21.22,0,0,1-2.1-3.6,9.71,9.71,0,0,0-2.5-3.4c-.9-.7-1.4-1.7-1.1-2.1s-.3-1.4-1.2-2.1C424.9,309.7,424.8,309.8,425.4,312Z" transform="translate(-4.42 -58.56)"/><path class="cls-1" d="M181.5,312a2.82,2.82,0,0,0,2.1,1c.8,0,1.2-.5.9-1a2.52,2.52,0,0,0-2.1-1C181.6,311,181.2,311.4,181.5,312Z" transform="translate(-4.42 -58.56)"/><path class="cls-1" d="M409.7,314.5a3.65,3.65,0,0,0-1.5,3.2c.2,1.1-.6,2.4-2.4,3.5-2.9,1.8-3.5,3.2-1.9,4.2,1.2.8,9.1-8.4,9.1-10.7C413,312.7,412.1,312.6,409.7,314.5Z" transform="translate(-4.42 -58.56)"/><path class="cls-1" d="M283,315.9c0,1.2.5,2.1,1,2.1s1-.6,1-1.4a2.52,2.52,0,0,0-1-2.1C283.5,314.2,283,314.8,283,315.9Z" transform="translate(-4.42 -58.56)"/><path class="cls-1" d="M358.1,316c.5,0,.7-.5.4-1s-.8-1-1.1-1" transform="translate(-4.42 -58.56)"/><path class="cls-1" d="M305,316a1.08,1.08,0,0,0,1,1,1,1,0,0,0,1-1,.94.94,0,0,0-1-1A1,1,0,0,0,305,316Z" transform="translate(-4.42 -58.56)"/><path class="cls-1" d="M318,317c0,.5.6,1,1.4,1a2.82,2.82,0,0,0,2.1-1c.3-.6-.3-1-1.4-1S318,316.4,318,317Z" transform="translate(-4.42 -58.56)"/><path class="cls-1" d="M308.5,319.5c-4.2,3.5-2.3,4.3,2.5,1a23,23,0,0,0,4-3.1C315,316.1,311,317.4,308.5,319.5Z" transform="translate(-4.42 -58.56)"/><path class="cls-1" d="M114.8,319.2a2.72,2.72,0,0,0,2.3.6c.8-.3.3-.7-1-1.1C114.4,318.3,114,318.4,114.8,319.2Z" transform="translate(-4.42 -58.56)"/><path class="cls-1" d="M181.5,321c-.3.6.1.7.9.4,1.8-.7,2.1-1.4.7-1.4A1.9,1.9,0,0,0,181.5,321Z" transform="translate(-4.42 -58.56)"/><path class="cls-1" d="M174.3,321.7c-.7.3-1.3.9-1.3,1.4,0,1.1,3.1,1.2,4.8,0,1.1-.6,1-.9-.5-1.3A6.2,6.2,0,0,0,174.3,321.7Z" transform="translate(-4.42 -58.56)"/><path class="cls-1" d="M121,323a1.08,1.08,0,0,0,1,1,1,1,0,0,0,1-1,.94.94,0,0,0-1-1A1,1,0,0,0,121,323Z" transform="translate(-4.42 -58.56)"/><path class="cls-1" d="M161,323c0,1.3,2,1.3,4,0,1.2-.8.9-1-1.2-1C162.2,322,161,322.4,161,323Z" transform="translate(-4.42 -58.56)"/><path class="cls-1" d="M48.6,324.7c-.6,1.4-.5,1.5.5.6.7-.7,1-1.5.7-1.8S48.9,323.7,48.6,324.7Z" transform="translate(-4.42 -58.56)"/><path class="cls-1" d="M200.5,324c-.3.5-.1,1,.4,1" transform="translate(-4.42 -58.56)"/><path class="cls-1" d="M257.6,323.8c-.7,1.1,6.3,2.2,13.8,2.2,7.3-.1,3.8-1.6-5.5-2.5C261.2,323.1,258,323.2,257.6,323.8Z" transform="translate(-4.42 -58.56)"/><path class="cls-1" d="M30.5,325.1c-.4.6-.5,1.2-.2,1.5s.7-.2,1-1.1C32,323.8,31.4,323.5,30.5,325.1Z" transform="translate(-4.42 -58.56)"/><path class="cls-1" d="M218,325.1c0,.4-2.4,1-5.2,1.3a27.37,27.37,0,0,0-7.8,2.2c-2.3,1.4-2.1,1.5,4,.9,13.6-1.2,31.5-3.7,32.3-4.5.5-.4-4.5-.7-11.2-.6S218,324.8,218,325.1Z" transform="translate(-4.42 -58.56)"/><path class="cls-1" d="M18.5,326c-.3.5-.2,1,.4,1a2.34,2.34,0,0,0,1.6-1c.3-.6.2-1-.4-1A2,2,0,0,0,18.5,326Z" transform="translate(-4.42 -58.56)"/><path class="cls-1" d="M58.7,329.1c-.3,1.9-.9,4.7-1.3,6.4-.5,2.4-.4,2.8.6,1.8,1.6-1.4,3-8.8,2-10.3C59.5,326.3,59,327.2,58.7,329.1Z" transform="translate(-4.42 -58.56)"/><path class="cls-1" d="M157.5,327.1c-.9,1.4-.4,1.8,3.1,2.1,6.1.4,10.5-.2,9.8-1.3-.4-.7-2.3-.9-5-.5-2.4.3-4.6.1-4.9-.4A1.62,1.62,0,0,0,157.5,327.1Z" transform="translate(-4.42 -58.56)"/><path class="cls-1" d="M48.2,329c0,1.4.2,1.9.5,1.2a5.28,5.28,0,0,0,0-2.5C48.4,327.1,48.2,327.6,48.2,329Z" transform="translate(-4.42 -58.56)"/><path class="cls-1" d="M392.9,426.2c4.4,5.3,9.2,11.5,10.6,13.7,3.3,4.9,7,7.5,11,7.7A64.1,64.1,0,0,1,423,449c8.2,1.8,13.5,1.8,13.5,0,0-.9-.9-1.5-2.2-1.4s-2.3-.2-2.3-.6-3.5-1.3-7.7-1.9c-10.6-1.6-14.8-2.8-16.3-4.6-2-2.4-.6-2.8,5.3-1.5,4.8,1.1,15.2,1,33.7-.3,3.1-.2,3.5,0,3.3,2.1-.3,2.5,1.3,6.2,2.6,6.2.5,0,.7-2.2.4-5-.4-4.2-.2-5.1,1.4-5.6,7.6-2.4,19.3-10.1,19.3-12.7a5.27,5.27,0,0,1,1.3-2.6c1.6-2,3.9-9.3,2.6-8.5a35.94,35.94,0,0,0-4.4,6c-6,9.3-13.9,13.1-33.8,16.1-9.2,1.4-12.2,1.5-20.3.5a75.26,75.26,0,0,1-14.5-3.3c-11.4-5-23.6-23.9-29.4-45.9a62.13,62.13,0,0,0-3.1-9.5c-1.3-3-1.3-3-1.2,2.2a21.65,21.65,0,0,1-.3,5.7c-.3.3-1.6-2-2.9-5-2.1-4.5-2.8-5.3-4.6-4.9a3.72,3.72,0,0,1-3.4-1,18.49,18.49,0,0,0-4.3-3c-2.8-1.4-3.4-1.4-7.2.5-4.8,2.3-5.5,2.4-5.5.7,0-.7,1-1.7,2.3-2.2,2.9-1.3,2.9-3.9-.1-4.3a2.45,2.45,0,0,0-2.9,1.5,17.7,17.7,0,0,1-2.5,4.2,8.47,8.47,0,0,0-1.8,3.8,10.59,10.59,0,0,1-2.1,4.2,36.19,36.19,0,0,0-3.9,8.7c-1.2,3.7-1.9,5-1.9,3.4a20.28,20.28,0,0,1,1-6c2.4-8.1,1.6-22.7-1.7-29.2s-15.4-14.1-27.5-17.3c-8.9-2.4-9.3-2.5-8.6-3.1,1-1,18.6,3.6,36.7,9.6,9,3,12.5,3.7,16,3.3,4.2-.5,4.7-.3,5.8,2.1a6.81,6.81,0,0,1,0,5.6c-.8,2.4-.7,3.7.1,5.4a5.85,5.85,0,0,1,.9,3.5c-.2.9,1.4,1.8,4.2,2.5,3.1.7,4.8,1.8,5.5,3.3.5,1.3,1.3,2.3,1.7,2.3,1.3,0,.9-2.9-.8-5.5-1.2-1.8-2.2-2.3-3.8-1.9-3.4.8-4.7-1.6-5.3-9.8-.7-9.5-.3-9.8,11.8-9.9,5.2-.1,10.8-.7,12.6-1.5,4.9-1.9,4.8-.2-.2,4.5-5.3,5-7.3,8.5-8.1,14.5-.8,5.5,1.2,7.3,2.2,1.9,2.4-13.6,15-21.5,43.8-27.3,11.1-2.3,30.1-2.7,38.8-.9a38,38,0,0,1,18.1,9.8c4.4,4.2,6.5,10.2,7.1,20.6.6,10-2.9,34.6-5.9,41.9-1.3,3.1,1.3,1,3.1-2.5,2.4-4.8,4.4-17.2,5.1-31.6.5-11.9.4-13.8-1.7-20.2-1.8-5.8-3.1-7.9-7.5-12-3.3-3.2-6.7-5.4-9.5-6.1-6.7-1.8-22.8-4-29.4-4-5.8,0-5.9-.1-3.8-1.6s3-3.5,1.5-3.3c-.5.1-5.3.9-10.8,1.9s-14,3-19,4.5c-23,6.9-26.1,7.6-36.3,8-5.6.2-11.9.9-13.9,1.6-4.4,1.4-15.9.5-18.2-1.4-.9-.8,13.3-1.7,11.9-1.9s-25.7-2.4-34.5-4.6a189.63,189.63,0,0,0-27.6-5.1c-14.4-1.4-43.4-1.4-51.4-.1-3.3.5-12.3,1.6-19.9,2.5s-14.2,1.7-14.4,2c-1.2,1.2.8,1.2,8.5.1,11.6-1.7,13.4-.6,4.6,2.8-12.5,4.8-19.7,15.3-20.8,30.3-.3,4.7-.2,8.3.3,8.3s1.2-3.3,1.4-7.3c.5-7.4,2.6-12.9,6.8-17.7,1.2-1.4,2.9-3.5,3.8-4.8,2.4-3.2,16-8.1,27.7-9.8,12.9-1.9,37.5-2.2,49-.5,20.1,3,36.4,8.7,43.3,15.4,4.2,4,7.2,12.2,7.2,19.5,0,9.4-6.8,32.1-12.5,41.9a74,74,0,0,1-6.1,8.3c-3.8,4.2-4.1,5-1.7,5,2.7,0-3,5.3-9,8.3C288,441.7,277,444,258.6,444c-30.5,0-48.8-7.4-56.4-22.8a122.31,122.31,0,0,1-8.6-25.2c-2.5-11.8-2.5-11.9-2-3.5.5,8.7-.2,9.5-1.6,1.9-3-15.9-5.8-24.4-8-24.4-1.3,0-1.3.3.4,4.7s3,10.5,5.1,23.3c4.9,29.6,15.7,42.4,40.5,47.6,6.5,1.4,13.2,1.8,28,1.9,20.9,0,28.5-1.1,41-6,3.4-1.3,6.7-2.2,7.5-1.9,1.5.6,8.7-6.8,13.9-14.4,7.1-10.3,14.1-25.8,18-40.2,1.7-6.3,5-9.4,11-10.5,9.5-1.8,14.7,1.9,21.7,15.4M289.5,334c.3.5-.1,1-1,1s-1.3-.5-1-1,.8-1,1-1S289.2,333.4,289.5,334Z" transform="translate(-4.42 -58.56)"/><path class="cls-1" d="M33.5,332.1c-.9,1.7-1.5,3.2-1.3,3.4.7.7,2.4-1,3.5-3.8C37.4,328,35.4,328.2,33.5,332.1Z" transform="translate(-4.42 -58.56)"/><path class="cls-1" d="M73.1,331.6c0,1.1.3,1.4.6.6a2,2,0,0,0-.1-1.9C73.3,329.9,73,330.5,73.1,331.6Z" transform="translate(-4.42 -58.56)"/><path class="cls-1" d="M197.3,330.7a7.56,7.56,0,0,0,3,0c.6-.3-.1-.5-1.8-.5S196.3,330.4,197.3,330.7Z" transform="translate(-4.42 -58.56)"/><path class="cls-1" d="M382.2,333.5c-8.3,2.7-7.6,2.5-10.1,2.5a2.8,2.8,0,0,0-2.5,1.6c-.5,1.4-.1,1.6,2.8,1.1,6.3-1,19.5-4.9,21.3-6.3,1.7-1.2,1.6-1.3-1.2-1.3A57.82,57.82,0,0,0,382.2,333.5Z" transform="translate(-4.42 -58.56)"/><path class="cls-1" d="M48.5,335c-.3.5.1,1,.9,1s1.6-.5,1.6-1a.92.92,0,0,0-.9-1A1.9,1.9,0,0,0,48.5,335Z" transform="translate(-4.42 -58.56)"/><path class="cls-1" d="M66.8,336c-.7,2.4-.3,3.8.8,2.8a5.26,5.26,0,0,0,.2-3l-.3-2.3Z" transform="translate(-4.42 -58.56)"/><path class="cls-1" d="M156.7,335.6c-.2.3-3.2.7-6.7.9a88,88,0,0,0-11.8,1.9,62.81,62.81,0,0,1-11.1,1.5,35.63,35.63,0,0,0-6,.5c-1,.6-26.3,4.8-29.9,5-1.8,0-3.7.7-4.1,1.5a2.63,2.63,0,0,1-3,.8c-1.2-.3-2.4-.1-2.7.4s-1.8.9-3.4.9c-2.7,0-4.8,2.4-3.1,3.5.5.3,5.1-.6,10.3-1.9,12.4-3.2,44.2-8.3,63.1-10.2,9-.8,12.1-1.7,12.5-3.5C161,335.5,157.8,334.5,156.7,335.6Z" transform="translate(-4.42 -58.56)"/><path class="cls-1" d="M12.5,337c-.3.5-.1,1,.4,1a1.1,1.1,0,0,0,1.1-1c0-.6-.2-1-.4-1S12.8,336.4,12.5,337Z" transform="translate(-4.42 -58.56)"/><path class="cls-1" d="M194.8,336.7a2,2,0,0,0,1.9-.1c.4-.3-.2-.6-1.3-.5S194,336.4,194.8,336.7Z" transform="translate(-4.42 -58.56)"/><path class="cls-1" d="M165.3,337.7c-1.4.3-2.3,1.2-2.3,2.3a3.58,3.58,0,0,1-.9,2.5c-1.1.6-.4,9.3,1.1,14.2,1.3,4.4.2,7.4-2.5,7.1-3.1-.4-13.3,1-19.2,2.7-2.7.7-6.8,1.8-9.1,2.4a18.43,18.43,0,0,0-6.8,3.6,11.35,11.35,0,0,1-3.5,2.5,6.71,6.71,0,0,0-2.6,2c-1.8,2-1.8,2.1.1,1.4a9.83,9.83,0,0,0,2.4-1.3c1-1.2,9-5.1,13.2-6.5a173.93,173.93,0,0,1,17.4-3.6l13.1-2.2,6.7,2.1a55.65,55.65,0,0,0,8,2.1c2.2-.1-3.6-4-6.9-4.6a9,9,0,0,1-4.6-2,3.78,3.78,0,0,0-2.6-1.4c-.8,0-1.3-.6-1-1.3a1.83,1.83,0,0,1,2.1-.9,1.25,1.25,0,0,0,1.6-1.2c0-.8-1-1.6-2.2-1.8-2.5-.3-3.4-3.2-2.4-7.4.6-2.2.8-2.3,2.2-.9,2.1,2.1,2.2,2,2.2-2.3a38.19,38.19,0,0,1,.4-5.6C169.5,337.5,168.6,337.1,165.3,337.7Z" transform="translate(-4.42 -58.56)"/><path class="cls-1" d="M189.8,337.7a2,2,0,0,0,1.9-.1c.4-.3-.2-.6-1.3-.5S189,337.4,189.8,337.7Z" transform="translate(-4.42 -58.56)"/><path class="cls-1" d="M177.2,339.5c-3,1.3-3.3,1.8-2.8,4.7.3,1.8.8,5.5,1.1,8.3.8,5.7,1.9,7.5,4.8,7.5,1.8,0,1.9-.1.5-1.8-.9-.9-1.8-4-2.1-6.7s-.6-5.9-.8-7c-.3-1.5.2-2.1,2.2-2.3,2.7-.3,2.7-.2,3.1,7.2.3,7.2,1.1,9.7,2.5,8.3,1.2-1.3.2-15.2-1.3-17.5C182.7,337.6,181.7,337.5,177.2,339.5Z" transform="translate(-4.42 -58.56)"/><path class="cls-1" d="M260,339.4a54.41,54.41,0,0,0,6.4,3.5c7,3.6,9.2,5.5,18.5,16,3.5,3.9,6.6,6.9,6.9,6.6.9-.9-7-11.8-12.5-17.2-5.7-5.4-12.6-9.3-16.8-9.3C261.1,339,260,339.2,260,339.4Z" transform="translate(-4.42 -58.56)"/><path class="cls-1" d="M432.3,340.6c-1,2.7,1.2,3.8,4.6,2.3,4.2-1.9,4-3.9-.4-3.9C434.2,339,432.7,339.6,432.3,340.6Z" transform="translate(-4.42 -58.56)"/><path class="cls-1" d="M444,340.9c0,1.1-.4,2.3-1,2.6-2.2,1.4-.9,2.6,2,2a88,88,0,0,1,9.8-1.3c3.7-.4,6.6-1.2,6.5-1.7s-3.5-1.5-7.5-2.2C443.9,338.7,444,338.7,444,340.9Z" transform="translate(-4.42 -58.56)"/><path class="cls-1" d="M59.2,342.4c-.8,1.8-.7,3.3.3,6.2a31.9,31.9,0,0,1,1.5,5.6,3.21,3.21,0,0,0,1.1,2.4c.8.4.9-.3.4-2.5a48.73,48.73,0,0,1-.7-8.6C61.7,339.6,61,338.6,59.2,342.4Z" transform="translate(-4.42 -58.56)"/><path class="cls-1" d="M29,342.4a10.3,10.3,0,0,1-.7,3.2c-.4,1.1-.3,1.5.4,1.1,1.3-.8,2.3-5.7,1.2-5.7C29.4,341,29,341.6,29,342.4Z" transform="translate(-4.42 -58.56)"/><path class="cls-1" d="M66,341.9a1.9,1.9,0,0,0,1,1.6c.6.3.7-.1.4-.9C66.7,340.8,66,340.5,66,341.9Z" transform="translate(-4.42 -58.56)"/><path class="cls-1" d="M287.6,343.9c.7.8,18.2,7.5,21.8,8.4.5.1,1-.3,1.3-.9.5-1.5-4.4-3.8-13.7-6.3C288.8,342.8,286.1,342.5,287.6,343.9Z" transform="translate(-4.42 -58.56)"/><path class="cls-1" d="M33.7,347.4a14,14,0,0,0-.6,4.9c.1,3.1.1,3.1,1-.7C35.1,347.3,34.8,344.4,33.7,347.4Z" transform="translate(-4.42 -58.56)"/><path class="cls-1" d="M430.7,348.9c-1,4.9,1.4,8.7,2.6,4.1.4-1.6,1.2-1.9,4.3-1.7,2.9.1,3.9-.2,4.2-1.4s-.6-1.8-3-2.2a44.56,44.56,0,0,1-5.4-1.2C431.6,346,431.2,346.3,430.7,348.9Z" transform="translate(-4.42 -58.56)"/><path class="cls-1" d="M456.4,363c2.6-8.3.1-18.1-3.7-14.3-.4.3-.2,1.2.4,1.9" transform="translate(-4.42 -58.56)"/><path class="cls-1" d="M241,350c-3.6.5-7.6,1.1-9,1.5s-3.6.9-5,1.2c-2.3.6-5.8,2.7-10.1,6.2-2.2,1.8-1.5,3.4.9,2.2,10.5-5.3,20.3-6.7,33-4.9,5,.8,9.2,1.1,9.2.7,0-1.4,3.1-3.9,4.1-3.4.5.4.9,2.2.9,4.1s.5,3.4,1.1,3.4c1.8,0,13,11.3,15,15.2,1.1,2.1,2.6,3.8,3.3,3.8a3.48,3.48,0,0,1,3,4.4c-.8,2.1-5,2.1-6.3-.2-.9-1.3-1.2-1.4-1.9-.4a2.69,2.69,0,0,1-2.7,1,2,2,0,0,0-2.2.9c-.6,1.7,9.3,1.7,14.7.1,5.1-1.6,7.5-6.2,4.4-8.5a6.29,6.29,0,0,0-3.9-1.1c-3.7.5-8.5-4.3-6.6-6.6,1.3-1.5-1.5-6-3.3-5.3-.6.3-2.2-.4-3.5-1.4-2.3-1.9-2.3-1.9-.2-1.9,1.2,0,2.1-.4,2.1-.9s-1.2-.9-2.7-.8c-2.1.2-2.8-.2-2.7-1.6.1-.9-.4-1.7-1.1-1.7a4.22,4.22,0,0,1-2.5-1.5,4.8,4.8,0,0,0-3.1-1.5c-1.1,0-1.9-.4-1.9-.9C264,350.2,249.6,348.9,241,350Zm41,17.4c0,.3-.4.8-1,1.1s-1,.1-1-.4a1.1,1.1,0,0,1,1-1.1C281.6,367,282,367.2,282,367.4Z" transform="translate(-4.42 -58.56)"/><path class="cls-1" d="M461.7,350.2c-2.2.8-2.6,1.3-1.6,2.4a3.35,3.35,0,0,0,2,1.4c1.1,0,3.9-2.9,3.9-4.1S465.4,348.8,461.7,350.2Z" transform="translate(-4.42 -58.56)"/><path class="cls-1" d="M470.5,351.1c-.4.5,0,1.8.9,2.8a6.69,6.69,0,0,1,1.6,3.9c0,2.3,1.5,3.8,2.4,2.3.6-.9-2.9-10.1-3.8-10.1C471.3,350,470.8,350.5,470.5,351.1Z" transform="translate(-4.42 -58.56)"/><path class="cls-1" d="M416.4,353.6l-1.8,2.6-1.8-2.2c-.9-1.2-2.3-1.8-2.9-1.5a17.24,17.24,0,0,1-5.3,1.1c-4.7.4-14.1,3.6-16.5,5.7a10.85,10.85,0,0,1-3.4,2c-1.8.7-3.3,3.4-2.4,4.4.3.3,2.6-.4,5-1.6a27.93,27.93,0,0,1,5.4-2.1,13.26,13.26,0,0,0,3.9-1.5,20.5,20.5,0,0,1,7.6-1.5c7.2,0,13.5-2,14.7-4.7C420.4,351,418.4,350.4,416.4,353.6Z" transform="translate(-4.42 -58.56)"/><path class="cls-1" d="M424,356.1c.5,1.8.7,3.6.4,4s.2,2.9,1.1,5.4c1.8,5.3,2,14.6.4,16.2-.7.7-3,1-6,.6-3.3-.4-4.9-.2-4.9.6,0,.6,1.8,1.1,4.4,1.1a24.92,24.92,0,0,1,5.8.5c1.7.7,5.8-7.9,5.8-12.2a20.51,20.51,0,0,0-1.1-6,36.28,36.28,0,0,1-1.5-6.1c-.5-4.3-2.1-7.2-3.9-7.2C423.4,353,423.3,353.7,424,356.1Z" transform="translate(-4.42 -58.56)"/><path class="cls-1" d="M461.5,359.3c-.4,1,0,2.8,1,4.3,1.5,2.3,1.5,2.7.1,4.3-2.2,2.4-2,4.1.5,4.1,2,0,2.1-.4,1.6-5.5-.3-2.9-1-6.2-1.6-7.2C462.2,357.6,462.1,357.6,461.5,359.3Z" transform="translate(-4.42 -58.56)"/><path class="cls-1" d="M416,360a1.1,1.1,0,0,0,1.1,1c.5,0,.7-.5.4-1s-.8-1-1.1-1S416,359.4,416,360Z" transform="translate(-4.42 -58.56)"/><path class="cls-1" d="M236.5,361c-.3.5-1.7,1-3.1,1-2.8,0-3.1.8-.8,2.5a5.52,5.52,0,0,1,1.7,4c0,4.5,3.4,8.5,7.1,8.4,3-.1,3-.1.6-.8-1.7-.5-2.5-1.4-2.4-2.9a2.88,2.88,0,0,0-1.8-2.8c-2.3-.7-2.3-3.1,0-3.8,1-.4,1.9-1.2,1.9-1.9a11.23,11.23,0,0,1,.8-3c.5-1.3.2-1.7-1.3-1.7C238,360,236.8,360.4,236.5,361Z" transform="translate(-4.42 -58.56)"/><path class="cls-1" d="M420.5,361c-.3.5.1,1,1,1s1.3-.5,1-1-.8-1-1-1S420.8,360.4,420.5,361Z" transform="translate(-4.42 -58.56)"/><path class="cls-1" d="M211.9,363.6c-1.2,1.4-1.1,1.6.5,1.3a3.45,3.45,0,0,0,2.4-1.7C215.3,361.5,213.5,361.7,211.9,363.6Z" transform="translate(-4.42 -58.56)"/><path class="cls-1" d="M244.4,364.9a8.42,8.42,0,0,0-2.6,3.9c-.5,1.8,0,2.6,2.3,3.7,2.3,1.3,2.9,2.2,2.9,4.9,0,5-2,6.1-11.8,6.2-9.6.2-13.5-.8-15.8-4-1.5-2-1.5-2-1,.9a8,8,0,0,0,2.2,4.2c2.3,1.7,12.1,2.8,22.1,2.5,4.7-.2,5.4-.5,6.8-3.2,1.9-3.7,1.9-10.7,0-14.4a12.59,12.59,0,0,1-1.5-4.2C248,363.3,246.6,363.1,244.4,364.9Z" transform="translate(-4.42 -58.56)"/><path class="cls-1" d="M391.5,365.9c-.8,1.7-1.2,3.8-.8,4.8,1.2,3.5,5.6,7.3,8.4,7.3,2.5,0,2.8-.4,3.5-4.5.6-4.3,2.4-5.4,2.4-1.4,0,1.4.7,1.9,2.5,1.9,3.9,0,2.8-5.2-1.9-9.2-2.8-2.3-4.2-2.2-5.1.4-.5,1.3-1.1,3.2-1.5,4.3a2.86,2.86,0,0,0,.9,3.2c1.4,1.2,1.4,1.5-.3,2.8-2.1,1.6-3.6,1.2-3.6-1.1a5.18,5.18,0,0,0-1.6-3.1c-1.1-1.1-1.2-1.9-.5-2.6,1.4-1.4,1.4-5.7.1-5.7C393.5,363,392.4,364.3,391.5,365.9Z" transform="translate(-4.42 -58.56)"/><path class="cls-1" d="M470.5,375.2c-.1,13.4-1,25.4-2.4,30.4-1.5,5.2-5.1,11.4-7.6,12.8-1,.6-2.5,1.7-3.3,2.3-2.5,2.4-6.4,2.7-7.6.8-7.3-11.9-10.6-18.7-10.6-21.6,0-1.6-2.7-3.9-4.5-3.9-1.6,0,4.6,14.5,9.2,21.7,1.9,2.9,3.5,6.3,3.7,7.7s.5,2.9.9,3.2,3-.5,5.9-1.9c14.3-6.7,18.9-18.1,21.4-53.2a57,57,0,0,1,.6-6c.2-1.6-.3-2.1-2.7-2.3l-3-.3Z" transform="translate(-4.42 -58.56)"/><path class="cls-1" d="M196.5,369c-1.4,1.6-1.5,2-.4,2.4,2.9.9,10.9,1.5,12.4,1,2.8-1.1,1.5-2-3.2-2.1-3-.1-5.2-.8-5.9-1.7C198.4,367.2,198.1,367.2,196.5,369Z" transform="translate(-4.42 -58.56)"/><path class="cls-1" d="M460,389.2c0,1.8-.2,2-.9.8a2.51,2.51,0,0,1-.5-2.2C459.5,386.4,460,386.9,460,389.2Z" transform="translate(-4.42 -58.56)"/><path class="cls-1" d="M34,373a1.08,1.08,0,0,0,1,1,1,1,0,0,0,1-1,.94.94,0,0,0-1-1A1,1,0,0,0,34,373Z" transform="translate(-4.42 -58.56)"/><path class="cls-1" d="M464.2,375.3c-1.4.6-2.1,1.6-1.7,2.5a7.36,7.36,0,0,1,.5,2.3c0,1.8,2,.9,3.6-1.7C468.6,375.4,467.4,373.8,464.2,375.3Z" transform="translate(-4.42 -58.56)"/><path class="cls-1" d="M195.6,380.2c.3,2.9.9,7.2,1.4,9.5a75,75,0,0,1,1.5,8c1,6.6,1.5,7.5,3,6.3,1.2-1,1.2-1.6-.2-3.7-2.2-3.3-2.5-5.2-2.7-13.8l-.1-7,3.3-.3c3.8-.4,4.2-1.9.7-2.7C194.3,374.8,195,374.4,195.6,380.2Z" transform="translate(-4.42 -58.56)"/><path class="cls-1" d="M322.4,376.5c-.4,1.1-1.5,3.9-2.4,6.1-1.1,2.5-1.4,4.7-.9,5.5a3.39,3.39,0,0,1-.5,3.4,47.81,47.81,0,0,0-3,8c-.9,3.3-2.4,7.8-3.2,9.9-1.4,3.9-1.2,5.9.4,4,1.6-1.7,6.1-12.9,7.3-17.9a67.43,67.43,0,0,1,1.9-7c1.8-4.6,2.8-11,2-12.4S323,374.8,322.4,376.5Z" transform="translate(-4.42 -58.56)"/><path class="cls-1" d="M379.5,380.5c.3,2.7.9,5.3,1.4,5.8s3.8,1,7.4,1.3a41.49,41.49,0,0,1,8.9,1.3c2.6.9,9.8-1.6,9.8-3.4a2.54,2.54,0,0,1,1.5-1.9c2-.7,1.9-5.5,0-6.3s-2.5-.2-3.1,3.3-3.1,6.4-4.2,4.9c-.4-.6-4.1-1.2-8.2-1.3-9.8-.3-10.5-.6-12.4-5l-1.6-3.7Z" transform="translate(-4.42 -58.56)"/><path class="cls-1" d="M44,378.7a8.4,8.4,0,0,0,2.3,4.5c1.2,1.4,3.5,4.1,5.1,5.9s3.1,2.9,3.3,2.3-.9-2.5-2.4-4.2a78.92,78.92,0,0,1-5.5-6.7C44.6,377.5,44,377.1,44,378.7Z" transform="translate(-4.42 -58.56)"/><path class="cls-1" d="M37,379.7a6.38,6.38,0,0,0,1.5,3.7,4.86,4.86,0,0,1,1.5,2.5,1,1,0,0,0,.9,1.1c.5,0,1.8,1.5,3,3.3a23,23,0,0,0,5.2,5.6l3.2,2.4-2.7-3.6c-1.6-2.1-3.2-3.7-3.7-3.7s-.9-.6-.9-1.3-1.1-2.4-2.5-3.7-2.5-2.9-2.5-3.5a7.73,7.73,0,0,0-1.5-3.1C37.1,377.5,37.1,377.5,37,379.7Z" transform="translate(-4.42 -58.56)"/><path class="cls-1" d="M438.5,379.1c-.5.7-2.1.9-4.6.5-3-.5-3.9-.3-3.9.8,0,2.1,1.7,2.9,6.9,3,4.2.1,4.6-.1,4.6-2.3C441.5,378.5,439.6,377.2,438.5,379.1Z" transform="translate(-4.42 -58.56)"/><path class="cls-1" d="M190.3,380.7a6.36,6.36,0,0,0,1,2.9c1.1,1.1.8-1.9-.3-3.6C190.2,378.8,190.1,379,190.3,380.7Z" transform="translate(-4.42 -58.56)"/><path class="cls-1" d="M92.5,382.9c2.2,1,4.4,1.6,4.8,1.4,1.5-.9-.7-2.1-4.8-2.7l-4-.6Z" transform="translate(-4.42 -58.56)"/><path class="cls-1" d="M297,383c0,.5.7,1,1.6,1s1.2-.5.9-1a1.9,1.9,0,0,0-1.6-1A.92.92,0,0,0,297,383Z" transform="translate(-4.42 -58.56)"/><path class="cls-1" d="M301.5,386a2.34,2.34,0,0,0,1.6,1c.6,0,.7-.5.4-1a2,2,0,0,0-1.6-1C301.3,385,301.2,385.4,301.5,386Z" transform="translate(-4.42 -58.56)"/><path class="cls-1" d="M307,386.5c-2.3,1.2-2.3,1.4-.7,2.1a3.18,3.18,0,0,0,2.9-.4c.6-.6,2.6-.8,4.4-.5,2,.3,3.4.1,3.4-.5s-.9-.8-1.9-.5a6.41,6.41,0,0,1-3.8-.5C310,385.5,308.7,385.6,307,386.5Z" transform="translate(-4.42 -58.56)"/><path class="cls-1" d="M445.2,388.4c0,4.7,1.2,6.4,3.2,4.7a5.1,5.1,0,0,0,.4-6.9C446.6,384,445.2,384.9,445.2,388.4Z" transform="translate(-4.42 -58.56)"/><path class="cls-1" d="M281.5,390.7c-2.2,1.2-5.1,2.7-6.5,3.3s-4.3,2-6.4,3.1c-7,3.6-11.9,4.8-25.1,6-7.1.6-14,1.2-15.2,1.2-1.4.1-1.9.5-1.4,1s6.8.7,14.8.4c10.6-.4,15.2-1,19.8-2.6a82.4,82.4,0,0,0,19.5-9.5c2.5-1.7,4.7-3.2,4.9-3.3a1.62,1.62,0,0,0,0-1C285.7,388.8,283.7,389.4,281.5,390.7Z" transform="translate(-4.42 -58.56)"/><path class="cls-1" d="M433,390.5c.7.8,1.6,1.2,2.1.9,1.3-.8.1-2.4-1.8-2.4C432,389,432,389.3,433,390.5Z" transform="translate(-4.42 -58.56)"/><path class="cls-1" d="M440.5,392.1c-.4.6-.5,1.2-.2,1.5s.7-.2,1-1.1C442,390.8,441.4,390.5,440.5,392.1Z" transform="translate(-4.42 -58.56)"/><path class="cls-1" d="M381.9,393.4c4,4.9,26,12.7,36.1,12.8,8.8.1,12-1.3,12-5.2,0-3.7-.6-3.8-3.3-.4-2,2.6-2.3,2.7-10.1,2.1-10.6-.8-21.6-4.5-21.6-7.2,0-.7-1.7-1.5-3.7-1.8s-5.4-1-7.3-1.3C380.8,391.7,380.6,391.8,381.9,393.4Z" transform="translate(-4.42 -58.56)"/><path class="cls-1" d="M417.4,393.2c-.3.5.9.8,2.5.8s3.1-.4,3.1-1C423,391.9,418.1,392.1,417.4,393.2Z" transform="translate(-4.42 -58.56)"/><path class="cls-1" d="M291.3,393.7a2.13,2.13,0,0,0-1.3,2c0,2,3.4,1.2,3.8-1C294.1,393,293.5,392.7,291.3,393.7Z" transform="translate(-4.42 -58.56)"/><path class="cls-1" d="M287.3,399.3c-1.2.6-4.8,2.7-8,4.5A96.66,96.66,0,0,1,266,410c-5.3,2-6.7,2.9-4.8,2.9,3.8.1,13-2.4,16.8-4.6,1.7-1,4.5-2.6,6.2-3.5,2.9-1.6,6.8-5.2,6.8-6.3C291,397.7,289.7,397.9,287.3,399.3Z" transform="translate(-4.42 -58.56)"/><path class="cls-1" d="M464,398.4c0,.2.7.6,1.5,1s1.5.1,1.5-.4-.7-1-1.5-1S464,398.2,464,398.4Z" transform="translate(-4.42 -58.56)"/><path class="cls-1" d="M211,403.5c0,1,1,1.5,3.3,1.5,3-.1,3.1-.1,1.3-1.5C213.1,401.6,211,401.6,211,403.5Z" transform="translate(-4.42 -58.56)"/><path class="cls-1" d="M219.9,405.1c1.6.6,2.8.6,3.5-.1s-.1-1-2.4-.9C217.7,404.1,217.6,404.2,219.9,405.1Z" transform="translate(-4.42 -58.56)"/><path class="cls-1" d="M262.8,406.6c-3,2.9-32.8,4.6-48.6,2.7-6.3-.8-10.6-.3-9.2,1,1.1,1,23.5,3.7,30.8,3.7,10,0,21.5-2.1,27-5a19.46,19.46,0,0,0,4.2-2.6C267,405.8,263.4,405.9,262.8,406.6Z" transform="translate(-4.42 -58.56)"/><path class="cls-1" d="M393.3,408.6" transform="translate(-4.42 -58.56)"/><path class="cls-1" d="M254.5,418" transform="translate(-4.42 -58.56)"/><path class="cls-1" d="M212,446a1.1,1.1,0,0,0,1.1,1c.5,0,.7-.5.4-1s-.8-1-1.1-1S212,445.4,212,446Z" transform="translate(-4.42 -58.56)"/><path class="cls-1" d="M297,445.9c0,.7-.5.9-1.2.5s-.8-.3-.3.5,1,1,1.8.2c.6-.6.8-1.4.4-1.8S297,445.2,297,445.9Z" transform="translate(-4.42 -58.56)"/><path class="cls-1" d="M286.2,448.7c-1.2.2-2,.8-1.7,1.3.6,1,4.5.1,4.5-1.1,0-.5-.1-.8-.2-.8A14.37,14.37,0,0,1,286.2,448.7Z" transform="translate(-4.42 -58.56)"/><path class="cls-1" d="M271.5,451.1c-2.2.5-11.8.8-21.3.8-11.2,0-17.8.4-18.7,1.1a8.51,8.51,0,0,1-3.6,1.5c-2.3.5-3.9,2.1-3.9,4.2,0,1.7.8,1.6,2.7-.3,1.2-1.2,2.7-1.4,5.3-1,2,.3,4,.3,4.3,0,.6-.7,3.6-.9,19-1.8,10.9-.6,22.7-2.5,22.7-3.7S275.6,450.4,271.5,451.1Z" transform="translate(-4.42 -58.56)"/><path class="cls-1" d="M454.3,451.5a3.42,3.42,0,0,0-.8,2.8c.7,1.7-.9,20.7-3,35.2-1.4,9.9-4.8,52.5-4.3,54.3.7,2.5-3.6,39.6-5.1,44.7s-3.3,17.4-2.6,18.5c.3.5.3,1-.2,1-2.4,0-4.4,12.2-2.2,13.6.8.5.9.3.4-.5a4.54,4.54,0,0,1,.2-3.4c2.6-5.7,4.9-14.5,8.3-32.2,2.2-11.5,5-41.3,5.5-59.5.7-23.4.8-25,2.8-36.5.9-5,2.1-11.5,2.6-14.5.8-4.9.8-23.7-.1-24.5C455.6,450.3,454.9,450.8,454.3,451.5Z" transform="translate(-4.42 -58.56)"/><path class="cls-1" d="M221.6,454.5c-.3.9,0,1.5.9,1.5s1.2-.6.9-1.5-.7-1.5-.9-1.5S222,453.7,221.6,454.5Z" transform="translate(-4.42 -58.56)"/><path class="cls-1" d="M259,457.9a2.14,2.14,0,0,0,1,1.6c.6.3,1-.1,1-.9s-.4-1.6-1-1.6A1,1,0,0,0,259,457.9Z" transform="translate(-4.42 -58.56)"/><path class="cls-1" d="M301.7,457.6a4.61,4.61,0,0,0-.7,2.7,18.36,18.36,0,0,1-1.2,5.4c-1,2.6-.9,4.1.1,7,1.9,5.3,5.9,9.8,8.9,10,1.4.1,2.8.6,3.1,1.1.9,1.3,4.1,2.3,4.1,1.2,0-.6-.7-1-1.6-1s-1.2-.5-.8-1.2.3-.8-.3-.5-1.6,0-2.3-.8-1.6-1.3-2-1-1.2-.5-1.6-1.7a17.9,17.9,0,0,0-2.5-4.7c-2.1-2.6-2.5-7.5-1-11.4C304.9,460.1,303.2,456.2,301.7,457.6Z" transform="translate(-4.42 -58.56)"/><path class="cls-1" d="M20.7,459.7c-.6,1.1,4.6,16.7,7.7,22.9,3.4,6.9,7.3,11.5,9.3,10.7,1.4-.6,1.4-.8-.3-2-1-.7-1.4-1.3-.9-1.3s-.3-1.2-1.7-2.8c-2.6-2.8-6-10-9.9-21C22.7,460,21.6,458.2,20.7,459.7Z" transform="translate(-4.42 -58.56)"/><path class="cls-1" d="M394.4,496.4c.6-1.6.8-1.6,2.4,0,2,1.7,4.8,2.1,5.6.7.3-.5-.2-1.1-1.3-1.4-1.5-.4-1.7-1.2-1.3-6.1a22.57,22.57,0,0,0-.8-8.7c-1.2-2.9-1.1-3.2,1.6-5.5a26.45,26.45,0,0,1,6.7-4,11.65,11.65,0,0,0,5.2-4.5c2.4-4.5,2.2-4.5-5.3-2.5-3.4.9-5.1,2.3-8.3,6.5-3.9,5.1-4,5.4-3,9.9.6,3,.6,5.3,0,6.4-.7,1.4-.6,2,.6,2.4a2.9,2.9,0,0,1,1.5,2.5c0,1.8-1.5,2.4-4.7,2" transform="translate(-4.42 -58.56)"/><path class="cls-1" d="M13.5,469c.3.5.8,1,1.1,1s.4-.5.4-1a1,1,0,0,0-1.1-1C13.4,468,13.2,468.4,13.5,469Z" transform="translate(-4.42 -58.56)"/><path class="cls-1" d="M336.5,468.7c-4.9,1.1-8.5,2.5-8.5,3.4s13.1.5,19.8-.7c4.7-.9,3.9-2-1.5-2.3a50.64,50.64,0,0,1-6.3-.5A10.47,10.47,0,0,0,336.5,468.7Z" transform="translate(-4.42 -58.56)"/><path class="cls-1" d="M16.4,475.4c1.3,3.2,6.6,11.7,6.6,10.6,0-.8-4.4-11.3-5.3-12.8C16,470.6,15,472.2,16.4,475.4Z" transform="translate(-4.42 -58.56)"/><path class="cls-1" d="M59,486.9c0,1.2,2.9,2.3,4.2,1.5.6-.4.5-1-.3-1.5C61.1,485.8,59,485.8,59,486.9Z" transform="translate(-4.42 -58.56)"/><path class="cls-1" d="M65.5,489a2.34,2.34,0,0,0,1.6,1c.6,0,.7-.5.4-1a2,2,0,0,0-1.6-1C65.3,488,65.2,488.4,65.5,489Z" transform="translate(-4.42 -58.56)"/><path class="cls-1" d="M386,495.4" transform="translate(-4.42 -58.56)"/><path class="cls-1" d="M28,497.9a2.34,2.34,0,0,0,1,1.6c.6.3,1,.2,1-.4a2,2,0,0,0-1-1.6C28.5,497.2,28,497.3,28,497.9Z" transform="translate(-4.42 -58.56)"/><path class="cls-1" d="M51.5,500c.3.5.8,1,1.1,1s.4-.5.4-1a1,1,0,0,0-1.1-1C51.4,499,51.2,499.4,51.5,500Z" transform="translate(-4.42 -58.56)"/><path class="cls-1" d="M381,501.9c0,.6,1.2,1.6,2.7,2.3,2.8,1.4,4.4,4.1,2.1,3.6-.7-.2-1.3.4-1.3,1.2,0,2.2,2.7,2.2,5.5,0l2.5-1.9-3.6-1.5c-2-.8-3.9-2.2-4.2-3.1C384,500.9,381,500.4,381,501.9Z" transform="translate(-4.42 -58.56)"/><path class="cls-1" d="M394.6,502.7c-1.2,1.2.7,2.3,3,1.7a4.89,4.89,0,0,1,4,.6c1.1,1,1.8,1,2.6.2s.8-1.3-.3-1.6C401.1,502.7,395.2,502.2,394.6,502.7Z" transform="translate(-4.42 -58.56)"/><path class="cls-1" d="M345.9,507.2" transform="translate(-4.42 -58.56)"/><path class="cls-1" d="M349.6,508.9c-.1,2.1-.6,2.6-2.3,2.4-1.5-.2-2.3.3-2.3,1.2s.9,1.5,2.4,1.5" transform="translate(-4.42 -58.56)"/><path class="cls-1" d="M318,512.5l1.5-2.9" transform="translate(-4.42 -58.56)"/><path class="cls-1" d="M338,507" transform="translate(-4.42 -58.56)"/><path class="cls-1" d="M406,508c-1.2.7-1.2,1.2-.3,2.1,1.5,1.5,6.8-.5,5.8-2.1C410.7,506.7,408,506.7,406,508Z" transform="translate(-4.42 -58.56)"/><path class="cls-1" d="M330.6,511.7a8.16,8.16,0,0,1,1.2,4.8c-.4,1.9-.1,2.3,1.6,2.1a13.52,13.52,0,0,0,4.4-1.5c3.2-1.7,1.4-4.5-4.3-6.3" transform="translate(-4.42 -58.56)"/><path class="cls-1" d="M363,510a1.08,1.08,0,0,0,1,1,1,1,0,0,0,1-1,.94.94,0,0,0-1-1A1,1,0,0,0,363,510Z" transform="translate(-4.42 -58.56)"/><path class="cls-1" d="M399.5,510.9c-.4.8.1,2.1,1.4,3.4,1.6,1.7,2.1,1.8,2.1.6a8.09,8.09,0,0,0-1.3-3.4C400.6,510.2,400.1,510,399.5,510.9Z" transform="translate(-4.42 -58.56)"/><path class="cls-1" d="M418.5,510.9c-.9,1.5,3.7,4.3,5,3,.7-.7.4-1.5-.9-2.5C420.3,509.8,419.3,509.6,418.5,510.9Z" transform="translate(-4.42 -58.56)"/><path class="cls-1" d="M59.7,511.6c-.4.4-.7,3.3-.7,6.5,0,4.7.5,6.3,2.4,8.6,1.3,1.5,2.8,2.5,3.2,2.1s0-1.6-.9-2.6c-1.2-1.3-1.5-3-1.2-5.8,1-8.4,1-8.8-.5-9.2A3.2,3.2,0,0,0,59.7,511.6Z" transform="translate(-4.42 -58.56)"/><path class="cls-1" d="M391.5,512c-.9,1.4,4.1,6.4,5.5,5.5,1.8-1.1,1.1-3-1.9-4.8C393.1,511.5,391.9,511.3,391.5,512Z" transform="translate(-4.42 -58.56)"/><path class="cls-1" d="M414.2,512.2c-1.4,1.4-1.6,3.8-.2,3.8s3.2-3.8,2.2-4.4A1.88,1.88,0,0,0,414.2,512.2Z" transform="translate(-4.42 -58.56)"/><path class="cls-1" d="M362.2,513.2c-1.6,1.6-1.5,2.8.3,2.8.8,0,1.5-.9,1.5-2C364,511.7,363.8,511.6,362.2,513.2Z" transform="translate(-4.42 -58.56)"/><path class="cls-1" d="M321.4,516.2c-.6,1.9.2,3.8,1.6,3.8.5,0,1.8-1.3,2.9-2.8l2-2.9H325C323,514.3,321.8,514.9,321.4,516.2Z" transform="translate(-4.42 -58.56)"/><path class="cls-1" d="M406,515.5a4.12,4.12,0,0,0,2.1,1.5c.5,0,.9-.7.9-1.5s-.9-1.5-2.1-1.5C405.1,514,405,514.2,406,515.5Z" transform="translate(-4.42 -58.56)"/><path class="cls-1" d="M313.6,520.5c.1,6.7.2,6.9,1.9,5.5a3.18,3.18,0,0,0,.9-3.4,9.11,9.11,0,0,1,.5-4.8c.9-2.3.7-2.6-1.2-2.4S313.5,516,313.6,520.5Z" transform="translate(-4.42 -58.56)"/><path class="cls-1" d="M383.6,516.1" transform="translate(-4.42 -58.56)"/><path class="cls-1" d="M428.6,515.8a1.28,1.28,0,0,0,.5,1.7c1.5,1,2.5-.3,1.2-1.6C429.6,515.2,429,515.2,428.6,515.8Z" transform="translate(-4.42 -58.56)"/><path class="cls-1" d="M368.8,522.5" transform="translate(-4.42 -58.56)"/><path class="cls-1" d="M360.2,520" transform="translate(-4.42 -58.56)"/><path class="cls-1" d="M365.3,517.2" transform="translate(-4.42 -58.56)"/><path class="cls-1" d="M424,517.2c0,.8,1.4,3.4,3.1,5.7,2.9,4,2.9,4.4,1.5,6.6s-1.4,2.5.6,3.9c1.6,1.1,2.5,1.3,3.3.5s.5-1.3-.7-2-1.5-1.6-.8-3.8c.9-3.2-.9-7-4.9-10.5C424.4,516.1,424,516,424,517.2Z" transform="translate(-4.42 -58.56)"/><path class="cls-1" d="M373.7,520.2" transform="translate(-4.42 -58.56)"/><path class="cls-1" d="M306.9,519.8a3.45,3.45,0,0,0-3.2,2.3c-.7,2.4,1.1,2.4,4.2-.2C310.7,519.6,310.5,519.3,306.9,519.8Z" transform="translate(-4.42 -58.56)"/><path class="cls-1" d="M411,520.3a2.47,2.47,0,0,0,1.6,2.1c1.1.4,1.4.1,1.2-1.1C413.4,519.2,411,518.3,411,520.3Z" transform="translate(-4.42 -58.56)"/><path class="cls-1" d="M419,520.9c1.3,2.5,3.3,2.8,2.8.4a2.81,2.81,0,0,0-2.1-2.1C418.1,518.9,418,519.1,419,520.9Z" transform="translate(-4.42 -58.56)"/><path class="cls-1" d="M295,523" transform="translate(-4.42 -58.56)"/><path class="cls-1" d="M330.5,522c2.1-2.4.1-2.8-2.7-.6" transform="translate(-4.42 -58.56)"/><path class="cls-1" d="M404.5,521c.3.5.8,1,1.1,1" transform="translate(-4.42 -58.56)"/><path class="cls-1" d="M347.5,524c-1.9.8-1.9.9.3.9a15.46,15.46,0,0,1,5.3,1.7c4.4,2.2,6,1.1,1.9-1.4C351.2,522.8,350.5,522.7,347.5,524Z" transform="translate(-4.42 -58.56)"/><path class="cls-1" d="M386,524.3c-1.4.8-3.4,1.9-4.5,2.5a39.33,39.33,0,0,1-5,2.4c-2,.7-2.5,1.2-1.4,1.5.8.2,5.2-1.2,9.6-3.1s8.5-3.1,8.9-2.8.4.1,0-.6C392.7,522.6,389.2,522.7,386,524.3Z" transform="translate(-4.42 -58.56)"/><path class="cls-1" d="M415,524.7c0,.4.9,1.4,1.9,2,1.7,1.1,1.9,2,1.4,6.8-.7,6.3,1.1,7.7,2.1,1.7,1.2-6.7,1.6-7.3,3.8-6.6,1.6.5,1.9.2,1.6-1.8-.2-1.4-.9-2.2-1.8-1.9-2.1.5-3.1.5-6.2-.4C416.2,524.1,415,524.2,415,524.7Z" transform="translate(-4.42 -58.56)"/><path class="cls-1" d="M296.6,527.6a1.52,1.52,0,0,1-1.9,1.1c-1-.4-1.3.5-1.2,3.1,0,2.1.5,3.5,1,3.2s.9-1.5.7-2.8c-.2-1.7.3-2.5,1.7-2.9,2.2-.6,2.7-1.8,1.2-2.7C297.6,526.3,296.9,526.7,296.6,527.6Z" transform="translate(-4.42 -58.56)"/><path class="cls-1" d="M401.5,527c2.8,1.2,3.7,1.2,3,0-.3-.6-1.6-1-2.8-.9C399.6,526.1,399.6,526.2,401.5,527Z" transform="translate(-4.42 -58.56)"/><path class="cls-1" d="M286.6,528.6c-.8,2.2-.7,4.4.2,4.4.4,0,.9-1.4,1-3C288.1,526.7,287.6,526.1,286.6,528.6Z" transform="translate(-4.42 -58.56)"/><path class="cls-1" d="M407,528.9c0,.5.7,1.2,1.6,1.5,2.4.9,2.8.7,1.4-.9S407,527.5,407,528.9Z" transform="translate(-4.42 -58.56)"/><path class="cls-1" d="M328,531a1.08,1.08,0,0,0,1,1,1,1,0,0,0,1-1" transform="translate(-4.42 -58.56)"/><path class="cls-1" d="M362.8,534.5c.2,1.9.9,3.6,1.6,3.6,3.9.4,5.1.3,5.1-.6,0-.6-.8-.9-1.8-.7-1.3.1-2.2-.8-3-2.8C363.2,530,362.3,530.2,362.8,534.5Z" transform="translate(-4.42 -58.56)"/><path class="cls-1" d="M349,533c0,1.4,4.1,2.3,5.3,1.1.8-.8.7-1.1-.3-1.2a18.65,18.65,0,0,1-3.2-.4C349.8,532.3,349,532.6,349,533Z" transform="translate(-4.42 -58.56)"/><path class="cls-1" d="M288.8,534.7a2,2,0,0,0,1.9-.1c.4-.3-.2-.6-1.3-.5S288,534.4,288.8,534.7Z" transform="translate(-4.42 -58.56)"/><path class="cls-1" d="M315,536c-1.2.8-1.1,1,.8,1,1.2,0,2.2-.5,2.2-1C318,534.7,316.9,534.7,315,536Z" transform="translate(-4.42 -58.56)"/><path class="cls-1" d="M405.2,536.2a3.55,3.55,0,0,0,2.8,1.6c2.1.3,2.2.2,1.1-1.2C407.5,534.7,404.7,534.5,405.2,536.2Z" transform="translate(-4.42 -58.56)"/><path class="cls-1" d="M320,537.1c0,.5.9.9,2,.9s2-.2,2-.4-.9-.6-2-.9S320,536.6,320,537.1Z" transform="translate(-4.42 -58.56)"/><path class="cls-1" d="M421.8,539.1c-.2,1.9-1,2.4-3.7,2.5-1.9.1-3.8.8-4.2,1.7s-3.1,2.4-5.9,3.6c-4.7,2-5.2,2.1-8,.6-3-1.5-3.2-1.5-4.9.7s-2.2,2.2-5.3,1.1a13.75,13.75,0,0,0-5.8-.8c-11.5,1.7-17.7,3.1-19.2,4.5-2.9,2.4-6,2.8-10.1,1.2-3.5-1.3-3.9-1.3-5.2.4-2.3,3.1-1.8,3.5,4,3.3,3-.1,5.8,0,6.1.3s3.5-.5,7.2-1.9c8.3-3,29.1-4.9,35.4-3.2,3.7,1,4.3.8,6.7-1.5,2.9-2.8,5.7-3.4,6.4-1.4.2.7.7,1,1.1.7s.2-1.8-.4-3.3c-1.7-4.5.1-5.4,6.3-3.1,1.1.5,1.3-.2,1.2-3C423.2,537.2,422.3,535.9,421.8,539.1Z" transform="translate(-4.42 -58.56)"/><path class="cls-1" d="M428.7,539.7a4.75,4.75,0,0,0,1.4,4.8c1.9,1.9,1.9,1.9,1.7-2.4C431.5,537,429.5,535.5,428.7,539.7Z" transform="translate(-4.42 -58.56)"/><path class="cls-1" d="M283.7,538.7a3.1,3.1,0,0,0-.7,2.1c0,1.2.3,1.2,1.5.2a4.12,4.12,0,0,0,1.5-2.1C286,537.8,284.6,537.7,283.7,538.7Z" transform="translate(-4.42 -58.56)"/><path class="cls-1" d="M375.8,538.7c-2,.5-2.4,2.3-.5,2.3a19.79,19.79,0,0,0,4.2-1.5c2.9-1.3,2.9-1.3.5-1.3A16.66,16.66,0,0,0,375.8,538.7Z" transform="translate(-4.42 -58.56)"/><path class="cls-1" d="M273.3,542.7" transform="translate(-4.42 -58.56)"/><path class="cls-1" d="M308,540c0,1.3,1.1,1.3,3,0,1.2-.8,1.1-1-.7-1C309,539,308,539.4,308,540Z" transform="translate(-4.42 -58.56)"/><path class="cls-1" d="M338.3,540.6c-.4,1.2-1.4,1.4-4.2,1-3.6-.6-3.6-.6,1.2,1.9,5.5,2.8,11.7,3.4,11.7,1,0-1-1-1.5-3.4-1.5-1.9,0-3.8-.5-4.1-1s-.1-1,.4-1a1.1,1.1,0,0,0,1.1-1C341,538.4,339,538.8,338.3,540.6Z" transform="translate(-4.42 -58.56)"/><path class="cls-1" d="M388.5,540c-.3.5-.2,1,.4,1a2.34,2.34,0,0,0,1.6-1c.3-.6.2-1-.4-1A2,2,0,0,0,388.5,540Z" transform="translate(-4.42 -58.56)"/><path class="cls-1" d="M302.7,540.6c-1.1,1.1.3,2.4,1.8,1.8.8-.4,1.2-1,.9-1.5A1.6,1.6,0,0,0,302.7,540.6Z" transform="translate(-4.42 -58.56)"/><path class="cls-1" d="M398.5,541c-.3.5.3,1,1.4,1s2.1-.5,2.1-1-.6-1-1.4-1A2.52,2.52,0,0,0,398.5,541Z" transform="translate(-4.42 -58.56)"/><path class="cls-1" d="M349.3,544.2a2.33,2.33,0,0,0,2.2,1.3,2.61,2.61,0,0,0,2.3-1.3c.2-.7-.6-1.2-2.3-1.2S349,543.5,349.3,544.2Z" transform="translate(-4.42 -58.56)"/><path class="cls-1" d="M381.8,543.7a5.28,5.28,0,0,0,2.5,0c.6-.3.1-.5-1.3-.5S381.1,543.4,381.8,543.7Z" transform="translate(-4.42 -58.56)"/><path class="cls-1" d="M264,545.5c.7.9,1.5,1.3,1.7,1.1.7-.7-.7-2.6-1.9-2.6C263.2,544,263.2,544.6,264,545.5Z" transform="translate(-4.42 -58.56)"/><path class="cls-1" d="M319.7,544.6c-1.4,1.4-.6,2.4,1.9,2.4,1.6,0,2.4-.5,2.2-1.3C323.3,544.3,320.7,543.6,319.7,544.6Z" transform="translate(-4.42 -58.56)"/><path class="cls-1" d="M362,545c0,.5.7.7,1.5.4s1.5-.8,1.5-1-.7-.4-1.5-.4S362,544.4,362,545Z" transform="translate(-4.42 -58.56)"/><path class="cls-1" d="M312,547c-1.2.8-1,1,.8,1,1.3,0,2-.4,1.7-1C313.8,545.8,313.9,545.8,312,547Z" transform="translate(-4.42 -58.56)"/><path class="cls-1" d="M316,547a1.08,1.08,0,0,0,1,1,1,1,0,0,0,1-1,.94.94,0,0,0-1-1A1,1,0,0,0,316,547Z" transform="translate(-4.42 -58.56)"/><path class="cls-1" d="M269.5,548c-.3.5-.1,1,.4,1a1.1,1.1,0,0,0,1.1-1c0-.6-.2-1-.4-1S269.8,547.4,269.5,548Z" transform="translate(-4.42 -58.56)"/><path class="cls-1" d="M425.6,548.8c-.9,1.4,2.8,5.7,4.2,4.8,1.7-1,1.5-2.6-.3-2.6a3.2,3.2,0,0,1-2.3-1.6C426.6,548.4,426,548.1,425.6,548.8Z" transform="translate(-4.42 -58.56)"/><path class="cls-1" d="M343.4,551.5a3,3,0,0,1-2.5,1.5c-1.4,0-1.9.7-1.9,2.5,0,2.3.4,2.5,4.1,2.5s4.1-.2,3.5-2.3a20.43,20.43,0,0,1-.6-4C346,549.6,344.2,549.4,343.4,551.5Z" transform="translate(-4.42 -58.56)"/><path class="cls-1" d="M263.5,552.1c-.4.6-.5,1.3-.2,1.6.7.7,2.7-.6,2.7-1.8S264.3,550.7,263.5,552.1Z" transform="translate(-4.42 -58.56)"/><path class="cls-1" d="M304.2,553.2a3.19,3.19,0,0,0,2.1,1.6c1.2.2,1.5-.1,1.1-1.2C306.7,551.7,303.6,551.4,304.2,553.2Z" transform="translate(-4.42 -58.56)"/><path class="cls-1" d="M275.7,555.8c-1.5,1.7-1.4,2,2.5,4.5,8.9,5.7,17.4,6.7,31.6,3.4,5.7-1.3,6.5-2.3,2.8-3.7a9.23,9.23,0,0,1-3.1-1.9c-.9-1.5-2.5-1.4-2.5.2a5.57,5.57,0,0,1-1.9,3.1c-2,1.8-3.2,1.8-15.6.2-4.7-.6-8.1-2.2-10.2-5C277.4,554.2,277.2,554.1,275.7,555.8Z" transform="translate(-4.42 -58.56)"/><path class="cls-1" d="M268.7,555.7a2.41,2.41,0,0,0-.7,1.7c0,.6.5.5,1.2-.2s.9-1.4.7-1.7A.84.84,0,0,0,268.7,555.7Z" transform="translate(-4.42 -58.56)"/><path class="cls-1" d="M324.6,558.6c-2.1,1.9-4.4,3.3-5.2,3-1.6-.6-2.9,1-1.5,1.9,1.8,1,11.1-4.5,11.1-6.6,0-1-.1-1.9-.3-1.9A34.2,34.2,0,0,0,324.6,558.6Z" transform="translate(-4.42 -58.56)"/><path class="cls-1" d="M420.2,558.8c-3.7,3.1-4,4.2-1.3,4.2,3.2,0,5.1-1.1,5.1-2.9a4.67,4.67,0,0,1,1.2-2.9C427.7,554.7,423.5,556,420.2,558.8Z" transform="translate(-4.42 -58.56)"/><path class="cls-1" d="M330.5,558a3.5,3.5,0,0,0,2.6,1c1.1,0,1.7-.5,1.4-1s-1.5-1-2.6-1S330.2,557.4,330.5,558Z" transform="translate(-4.42 -58.56)"/><path class="cls-1" d="M261.2,559.1a1.35,1.35,0,0,0,2.6,0c.2-.6-.4-1.1-1.3-1.1S261,558.5,261.2,559.1Z" transform="translate(-4.42 -58.56)"/><path class="cls-1" d="M406.3,564.2c-1.9,2.1-.5,2.4,2.1.5a3.9,3.9,0,0,0,1.4-4.1c-.1-1.5-.6-2.4-1-2" transform="translate(-4.42 -58.56)"/><path class="cls-1" d="M380.2,562.2a3.1,3.1,0,0,0,2.2,1.6c1.2.3,1.7-.1,1.4-1a3.1,3.1,0,0,0-2.2-1.6C380.4,560.9,379.9,561.3,380.2,562.2Z" transform="translate(-4.42 -58.56)"/><path class="cls-1" d="M397.5,563c.3.5.8,1,1.1,1s.4-.5.4-1a1,1,0,0,0-1.1-1C397.4,562,397.2,562.4,397.5,563Z" transform="translate(-4.42 -58.56)"/><path class="cls-1" d="M344,564.5a4.42,4.42,0,0,1-2.6,1.5c-.8,0-1.4.4-1.4,1a1.23,1.23,0,0,0,1.3,1,23.15,23.15,0,0,1,3.5.6c1.8.5,2.2.2,2.2-1.5,0-1.5.6-2.1,2.3-2.1a5.61,5.61,0,0,1,3.3,1c.7.7,2.1.6,4.5-.5l3.4-1.5-4.1.6c-2.6.4-4.4.2-4.8-.5C350.6,562.5,345.4,562.8,344,564.5Z" transform="translate(-4.42 -58.56)"/><path class="cls-1" d="M333,568.5c0,.8.5,1.5,1,1.5s1-.7,1-1.5-.4-1.5-1-1.5S333,567.7,333,568.5Z" transform="translate(-4.42 -58.56)"/><path class="cls-1" d="M424,570.5c0,.8.5,1.5,1,1.5s1-.7,1-1.5-.4-1.5-1-1.5S424,569.7,424,570.5Z" transform="translate(-4.42 -58.56)"/><path class="cls-1" d="M412,572.5c-1.4,1.6-.5,3.5,1.6,3.5,1.5,0,2-3.5.5-4.4C413.6,571.3,412.7,571.7,412,572.5Z" transform="translate(-4.42 -58.56)"/><path class="cls-1" d="M301.5,573c-.3.5.1,1,.9,1a2.82,2.82,0,0,0,2.1-1c.3-.6-.1-1-.9-1A2.52,2.52,0,0,0,301.5,573Z" transform="translate(-4.42 -58.56)"/><path class="cls-1" d="M322,573c0-.6-1.2-1-2.6-1s-2.3.4-1.9,1" transform="translate(-4.42 -58.56)"/><path class="cls-1" d="M425.7,576.6c-1.5.8-2.7,1.9-2.7,2.4,0,1.5,2,1.2,2.6-.4.3-.8,1.5-1.1,3-.8,1.3.2,2.4,0,2.4-.6C431,575.5,428.5,575.2,425.7,576.6Z" transform="translate(-4.42 -58.56)"/><path class="cls-1" d="M307,576.9c0,1.1,2.6,2.2,3.4,1.4a1.2,1.2,0,0,0,0-1.4C309.7,575.7,307,575.8,307,576.9Z" transform="translate(-4.42 -58.56)"/><path class="cls-1" d="M408,576.7c.1,1.4,2.7,4.3,3.9,4.3,1.4,0,1.4-.6.1-3.1C411,576.1,408,575.2,408,576.7Z" transform="translate(-4.42 -58.56)"/><path class="cls-1" d="M403,580.3c0,3.1,5.1,5,6.6,2.5.8-1.3-2.2-3.8-4.8-3.8C403.8,579,403,579.6,403,580.3Z" transform="translate(-4.42 -58.56)"/><path class="cls-1" d="M396,584.1c-1.9,1-6.6,2.2-10.5,2.8s-9.9,1.5-13.5,2.2-7.2,1.1-8,1.1c-2.2,0-10,2-10,2.5a12.84,12.84,0,0,0,2,3c1.9,2.5,2,2.5,2,.4s1.6-2.7,6-2.3a6.34,6.34,0,0,0,3-.5,18.53,18.53,0,0,1,5-.7,18.76,18.76,0,0,0,6.8-1.9c3.1-1.5,3.6-1.5,5.8-.1s2.4,1.5,2.4,0c0-2.4,4.6-2,6.4.6,1.2,1.7,1.8,1.9,3,.9a3,3,0,0,0,.9-2.9c-.3-1.2-.2-1.3.4-.5.7,1,1.5,1,3.6,0,1.5-.6,2.7-1.7,2.7-2.3,0-1.1-3.3-4.5-4.1-4.3C399.7,582.2,397.9,583.1,396,584.1Z" transform="translate(-4.42 -58.56)"/><path class="cls-1" d="M429,584a1.08,1.08,0,0,0,1,1,1,1,0,0,0,1-1,.94.94,0,0,0-1-1A1,1,0,0,0,429,584Z" transform="translate(-4.42 -58.56)"/><path class="cls-1" d="M305.2,588.5c-.6,1.4-.8,2.5-.4,2.5s1.2-1.1,1.9-2.5.8-2.5.4-2.5S305.8,587.1,305.2,588.5Z" transform="translate(-4.42 -58.56)"/><path class="cls-1" d="M427.2,589.1a2.86,2.86,0,0,0,1.7,1.7c.8.3,1.2-.1.9-.9a2.86,2.86,0,0,0-1.7-1.7C427.3,587.9,426.9,588.3,427.2,589.1Z" transform="translate(-4.42 -58.56)"/><path class="cls-1" d="M311.5,590a2.14,2.14,0,0,0,1.6,1,1,1,0,0,0,.9-1c0-.6-.7-1-1.6-1S311.2,589.4,311.5,590Z" transform="translate(-4.42 -58.56)"/><path class="cls-1" d="M327,591.7c0,2.1.2,2.4,1.5,1.3a4.41,4.41,0,0,0,1.5-2c0-.4-.7-1-1.5-1.4C327.4,589.2,327,589.8,327,591.7Z" transform="translate(-4.42 -58.56)"/><path class="cls-1" d="M320.5,592c-.3.5.1,1,.9,1s1.6-.5,1.6-1a.92.92,0,0,0-.9-1A1.9,1.9,0,0,0,320.5,592Z" transform="translate(-4.42 -58.56)"/><path class="cls-1" d="M343.1,599c.6-1.7,1.5-3,2-3,2,0,.8-3.8-1.3-4.4a25.89,25.89,0,0,0-10,.1,2.22,2.22,0,0,0-1.8,1.8c0,.9.6,1.2,1.5.9a1.59,1.59,0,0,1,2.1,1c.5,1.3.9,1.2,2.6-1,1.9-2.3,2.2-2.4,3.6-1s1.4,1.8-.6,4.5" transform="translate(-4.42 -58.56)"/><path class="cls-1" d="M349.7,594c-.3,1.1-.1,2,.3,2s1.1.8,1.3,1.7.5.4.6-1.4C352,592.7,350.5,591,349.7,594Z" transform="translate(-4.42 -58.56)"/><path class="cls-1" d="M309.9,594.6c-1.1,1.4-1,1.6.9,1.2,1.3-.1,2.3-.7,2.3-1.3C313.2,592.8,311.4,592.9,309.9,594.6Z" transform="translate(-4.42 -58.56)"/><path class="cls-1" d="M388,594.9c1.3,2.5,3.3,2.8,2.8.4a2.81,2.81,0,0,0-2.1-2.1C387.1,592.9,387,593.1,388,594.9Z" transform="translate(-4.42 -58.56)"/><path class="cls-1" d="M423.7,593.6c-1.4,1.4-.6,2.4,1.9,2.4,1.6,0,2.4-.5,2.2-1.3C427.3,593.3,424.7,592.6,423.7,593.6Z" transform="translate(-4.42 -58.56)"/><path class="cls-1" d="M308.5,599.1c-1,1.5.3,2.5,1.6,1.2.7-.7.7-1.3.1-1.7A1.28,1.28,0,0,0,308.5,599.1Z" transform="translate(-4.42 -58.56)"/><path class="cls-1" d="M332.8,599.8c-3,1.8-3.9,3.9-1,2.3s5.8-4,4.7-4A17,17,0,0,0,332.8,599.8Z" transform="translate(-4.42 -58.56)"/><path class="cls-1" d="M370.9,600" transform="translate(-4.42 -58.56)"/><path class="cls-1" d="M426.7,601.7c-1.1,1-.8,5.3.3,5.3.5,0,.7.7.4,1.5s-.1,1.5.7,1.5c1,0,1.4-1.4,1.4-4.5C429.5,601.4,428.4,599.9,426.7,601.7Z" transform="translate(-4.42 -58.56)"/><path class="cls-1" d="M334.5,606c-.3.6.1.7.9.4" transform="translate(-4.42 -58.56)"/><path class="cls-1" d="M426.9,618.2c-.1,1.3-.2,4-.3,6-.2,2.4.2,3.9,1.1,4.2.7.3,1.3,1.9,1.3,3.5,0,4.2,1,6.7,2.1,4.9,1.4-2.2,1-5.9-1-8.4a6.35,6.35,0,0,1,.2-8.1c1.2-1.7.2-4.3-1.8-4.3C427.6,616,427,616.9,426.9,618.2Z" transform="translate(-4.42 -58.56)"/><path class="cls-1" d="M185.3,620.7c.9.9,1.9,1.4,2.3,1.1,1-1-.6-2.8-2.4-2.8C183.7,619,183.7,619.1,185.3,620.7Z" transform="translate(-4.42 -58.56)"/><path class="cls-1" d="M450,619.9c0,.6-1.1,1.1-2.4,1.1-2.4,0-5.6,2.3-5.6,4.1a1,1,0,0,0,1,.9c.6,0,1,1.2,1,2.7,0,3.9,1.1,5,4,4.3,2.1-.5,2.2-.7.8-1.3a2.85,2.85,0,0,1-1.8-2.6,2.81,2.81,0,0,0-1.2-2.4c-.9-.3-.7-1,.7-2.1,4.3-3.4,6.5-1.4,6.9,6.4.2,4.1,1.1,4.5,2.6,1,1-2.5,1-3.7-.1-6.6C454.5,621.8,450,617.6,450,619.9Z" transform="translate(-4.42 -58.56)"/><path class="cls-1" d="M431,623.5c0,.8.4,1.5.9,1.5s1.1-.7,1.5-1.5,0-1.5-.9-1.5A1.54,1.54,0,0,0,431,623.5Z" transform="translate(-4.42 -58.56)"/><path class="cls-1" d="M190,628c0,.5,1.6.9,3.5.8s3.2-.5,2.9-1C195.7,626.7,190,626.8,190,628Z" transform="translate(-4.42 -58.56)"/><path class="cls-1" d="M424.4,635.6c.4,1.6.8,3.9,1,5.1.9,4.9,3,5.7,4.1,1.6.5-2.2.2-3.1-1.4-4.2a4,4,0,0,1-2.1-2.7,2.72,2.72,0,0,0-1.1-2C424,632.9,423.9,633.5,424.4,635.6Z" transform="translate(-4.42 -58.56)"/><path class="cls-1" d="M199,635a1.08,1.08,0,0,0,1,1,1,1,0,0,0,1-1,.94.94,0,0,0-1-1A1,1,0,0,0,199,635Z" transform="translate(-4.42 -58.56)"/><path class="cls-1" d="M442.5,642.2a91.75,91.75,0,0,1-3.8,11.8,65.2,65.2,0,0,0-3.2,10.5c-.7,3.3-1.6,6.8-2,7.9-.6,1.4-.4,1.7,1.1,1.4a1.77,1.77,0,0,0,1.6-2,2.47,2.47,0,0,1,.7-2.2c.5-.3.7-1.5.4-2.6s0-2,.7-2,.9-.8.5-2-.2-2,.4-2,1.1-.9,1.1-1.9a3.3,3.3,0,0,1,1-2.6,1.58,1.58,0,0,0,.3-2q-.45-1.5,1.2-1.5c1.2,0,1.5-.5,1-2-.4-1.3-.2-2,.6-2,1,0,1-.3.1-1.2-1.7-1.7-1.5-2.8.5-2.8,1.3,0,1.4-.3.5-1.2-1.8-1.8-1.4-2.8,1.1-2.8,2-.1,2-.2.5-1.1-2.6-1.5-2.2-2.9,1-3,2.4,0,2.5-.1.7-.9C444.9,634.4,444.4,634.9,442.5,642.2Z" transform="translate(-4.42 -58.56)"/><path class="cls-1" d="M204,637.6c0,.8.9,1.4,2,1.4s2-.4,2-.9-.9-1.1-2-1.4C204.7,636.4,204,636.7,204,637.6Z" transform="translate(-4.42 -58.56)"/><path class="cls-1" d="M452.9,636.7a10.31,10.31,0,0,0,0,2.5,1.43,1.43,0,0,1-1.5,1.8c-1.3,0-1.4.3-.4,1.5s.9,1.6-.4,2.1-1.4.9-.4,2.1.9,1.6-.1,2.3a1.31,1.31,0,0,0-.8,1.7c.9,1.5-1.6,6.3-3.2,6.3-1.1,0-1.1.3,0,1.6s1,1.7.1,2.3a1.93,1.93,0,0,0-.6,2.4c.5,1.3,0,1.7-2.2,1.7h-2.9l2.5,2c2.5,2,2.2,2.3-1.5,2.1-1.9-.1-1.9,0,.3,1.5,3.1,2.3,2.8,3.8-.8,3-1.6-.3-3-.3-3-.1,0,.5,3.5,2.1,5.4,2.4.5.1,2.1-3.4,3.6-7.9s3.2-8.6,3.8-9.2a2.39,2.39,0,0,0,.5-2.4,3,3,0,0,1,.5-2.7c.6-.7,1.2-3,1.4-5.2a19,19,0,0,1,1-5,25.76,25.76,0,0,0,1.3-4.3c.5-2.5.3-3.2-.9-3.2C453.7,636,452.9,636.3,452.9,636.7Z" transform="translate(-4.42 -58.56)"/><path class="cls-1" d="M209,642.4a5.73,5.73,0,0,0,1.8,1.7c1.5,1.3,1.6,1.2.3-.4S209,641.6,209,642.4Z" transform="translate(-4.42 -58.56)"/><path class="cls-1" d="M425,647.4c0,.9.5,1.6,1,1.6a.92.92,0,0,0,1-.9,1.9,1.9,0,0,0-1-1.6C425.5,646.2,425,646.6,425,647.4Z" transform="translate(-4.42 -58.56)"/><path class="cls-1" d="M215,651.6a8.14,8.14,0,0,0,1.5,3c.8,1,1.5,1.4,1.5.8a8.14,8.14,0,0,0-1.5-3C215.7,651.4,215,651,215,651.6Z" transform="translate(-4.42 -58.56)"/><path class="cls-1" d="M422,656c0,1.1.7,2,1.5,2,1.7,0,1.8-.2.9-2.4S422,653.6,422,656Z" transform="translate(-4.42 -58.56)"/><path class="cls-1" d="M219.7,658.9a3.87,3.87,0,0,0,1.9,2.5c1.1.4,1.2.2.4-1.4C220.6,657.3,219.1,656.6,219.7,658.9Z" transform="translate(-4.42 -58.56)"/><path class="cls-1" d="M419,660.7c0,2.5,1.5,3.8,2.5,2.2.4-.6,0-1.8-.9-2.7C419.1,658.7,419,658.7,419,660.7Z" transform="translate(-4.42 -58.56)"/><path class="cls-1" d="M414,662a1.08,1.08,0,0,0,1,1,1,1,0,0,0,1-1,.94.94,0,0,0-1-1A1,1,0,0,0,414,662Z" transform="translate(-4.42 -58.56)"/><path class="cls-1" d="M412.6,669.2a8,8,0,0,0-1.6,3.5c0,1.7-1.7,1.7-2.3,0-.5-1.4-.6-1.3-3.3,3.8-1.5,2.8-3.2,4.3-5.5,5.1-1.8.6-3.5,1.6-3.7,2.3A2.39,2.39,0,0,1,394,685a3.07,3.07,0,0,0-2.5,1,4.13,4.13,0,0,1-2.9,1,4.89,4.89,0,0,0-3.5,1.4c-.7.8-3,1.7-5.1,2.1a19.23,19.23,0,0,0-6.5,2.6c-1.5,1.2-3,1.7-3.7,1.2a10,10,0,0,0-4-.8c-2.4,0-2.8.4-2.8,2.9s.2,2.6,1.4,1.6a9,9,0,0,1,4.8-1c5.8.3,6.8.1,9.5-2.6l2.6-2.6L383,694l1.7,2.3,1.4-2.9a4.92,4.92,0,0,1,4.4-3.2,8.31,8.31,0,0,0,3.9-1.3,5.69,5.69,0,0,1,3.1-.9,6.4,6.4,0,0,0,4-2,6.07,6.07,0,0,1,3.5-2,2.64,2.64,0,0,0,2.3-2,2.53,2.53,0,0,1,2.1-2c1,0,1.6-.8,1.6-2.1a2.7,2.7,0,0,1,1.9-2.6c1.8-.4,4.4-6.6,3.3-7.7S414.1,667,412.6,669.2Z" transform="translate(-4.42 -58.56)"/><path class="cls-1" d="M229,671c0,.5,1,1.5,2.3,2.1,2.2,1.2,2.2,1.2.3-1C229.5,669.8,229,669.5,229,671Z" transform="translate(-4.42 -58.56)"/><path class="cls-1" d="M420,671.5c-.9,1.1-.7,1.8.9,3.4,1.2,1.2,2.5,2.1,3,2.1s1.1,1.3,1.5,3,1.2,3,2,3,2.1,1.1,3,2.5a5,5,0,0,0,4.4,2.5,6.35,6.35,0,0,1,4,1.2c.9.9,1.3.7,1.7-.8.4-1,1.1-2.7,1.6-3.7,1.4-2.5.7-3-2.2-1.8-1.3.5-1.8,1-1.1,1,2,.1,1.4,3.1-.7,3.1-4.8,0-7.5-3.9-2.8-4.1,1.5,0,1.7-.2.7-.6a9,9,0,0,1-2.7-2.2c-.6-.9-1.5-1.3-1.9-.9-1.4,1.5-3.4-1.4-2.7-4,.4-1.8.3-2.3-.6-1.7-.8.4-2.5-.1-4.1-1.3C421.6,670.4,421,670.3,420,671.5Z" transform="translate(-4.42 -58.56)"/><path class="cls-1" d="M433,675.9a7.18,7.18,0,0,1-.2,1.7c-.2.4,1.2.8,3,.9s3.9.8,4.5,1.4c1.5,1.5,2.7,1.4,2.7-.4,0-1-1-1.5-2.8-1.5a9.86,9.86,0,0,1-5-1.6C434,675.6,433,675.4,433,675.9Z" transform="translate(-4.42 -58.56)"/><path class="cls-1" d="M240.5,682.6c-.8-.3-1.5-.2-1.5.3a4.12,4.12,0,0,0,1.5,2.1" transform="translate(-4.42 -58.56)"/><path class="cls-1" d="M432,689.8c0,1.1,8.7,10.2,9.7,10.2a17,17,0,0,0,3.2-1.4l2.4-1.3-3.6-1.8c-2.1-.9-3.7-2.1-3.7-2.6s-.8-.9-1.8-.9a8.2,8.2,0,0,1-4-1.6C433,689.6,432,689.3,432,689.8Z" transform="translate(-4.42 -58.56)"/><path class="cls-1" d="M355.4,697.3c-1.7,1.5-2.4,2.8-2,3.6.6.9,1.1.9,1.9-.3a6.38,6.38,0,0,1,3.2-1.8c2.4-.4,3.4-3.8,1.1-3.8C358.8,695,356.9,696.1,355.4,697.3Z" transform="translate(-4.42 -58.56)"/><path class="cls-1" d="M445.9,705.6c-1.2,2.4-1.2,2.7,1.3,4.5a29.82,29.82,0,0,1,5.8,7.7,72.71,72.71,0,0,0,4.6,7.3,42,42,0,0,1,3.7,6c1.5,2.8,3.1,4.5,4.5,4.7,1.2.2,2.2.8,2.2,1.3a1,1,0,0,0,1.1.9c.7,0,.8-.7.4-1.8a10.39,10.39,0,0,1-.7-3.5c.1-1.8-2.3-2.4-3.3-.7s-2.3.2-1.8-2.4a7.16,7.16,0,0,0-1.6-5.3c-8.5-11-10.1-13.5-10.1-15.3,0-1.1-.4-2-.9-2s-1.3-.9-1.6-2C448.6,702.3,447.6,702.5,445.9,705.6Z" transform="translate(-4.42 -58.56)"/><path class="cls-1" d="M346,705.1c0,.5.5.7,1,.4s1-.8,1-1.1-.4-.4-1-.4A1.1,1.1,0,0,0,346,705.1Z" transform="translate(-4.42 -58.56)"/><path class="cls-1" d="M368.9,705.7c-.8,9.4-.5,17.4.6,18.3a27.75,27.75,0,0,0,6.1,2.8c7.7,2.8,10.9,4.8,12.4,7.9.8,1.5,2.4,4.4,3.7,6.4,1.7,2.8,1.9,3.9,1,4.8s-.8,1.6.7,2.7c2.6,1.8,4.6,1.8,4.6-.1,0-.8-.4-1.5-1-1.5s-1.2-1.2-1.6-2.8a61.81,61.81,0,0,0-4-8.9c-3.2-5.7-3.9-6.4-10.9-9.7-8.9-4.2-11.3-7.2-9.5-11.6a12.74,12.74,0,0,0,.6-6.5C370.9,703.9,369.1,702.7,368.9,705.7Z" transform="translate(-4.42 -58.56)"/><path class="cls-1" d="M465.6,739.9a1.08,1.08,0,1,0,1.5-.3A1,1,0,0,0,465.6,739.9Z" transform="translate(-4.42 -58.56)"/><path class="cls-1" d="M470,744c0,3.5,3.4,12.6,5.2,14a9.09,9.09,0,0,1,1.3,3.3c.8,3,1.4,3.3,3.9,1.4,2.2-1.6,1.3-3.8-2.4-6.1-2.6-1.5-3-2.3-3-6.1,0-2.4-.4-4.7-1-5s-1-1.7-1-3.1-.6-2.4-1.5-2.4C470.4,740,470,741.1,470,744Z" transform="translate(-4.42 -58.56)"/><path class="cls-1" d="M339.4,783.5c.3.9-.3,1.9-1.5,2.5-1.5.9-2.1.7-2.5-.5a2.39,2.39,0,0,0-2-1.5,1.37,1.37,0,0,1-1.4-1.4c0-1.6-1.8-3.1-2.7-2.3-1,1.1,4.9,7.5,7.5,8.2,2.9.7,6.2,3.7,6.2,5.5s3.8,4.7,8.8,7.1a31.69,31.69,0,0,1,6,3.5c7,6.1,8,6.6,10.9,5,5.4-2.7,13.6-14.6,12.7-18.2a6.61,6.61,0,0,1,1-4.6c3-4.2.9-5.4-3.1-1.6-2.7,2.5-2.8,2.4-3.6-2-.5-2.5-.3-3.2,1-3.2.9,0,1.3-.3.9-.8a3.16,3.16,0,0,0-1.9-.7c-1.5,0-1.4-9.4.1-14.9a18.63,18.63,0,0,0,.2-8.5c-.5-2.9-.5-4.8.1-5.2,1.1-.7.2-5.7-1.4-7.7-1.1-1.3-3.7-1.7-3.7-.4a4,4,0,0,0,1.2,2c1.4,1.4,1.4,13.2,0,14.1s-.9,25.6.6,27.4c.7.8,1.5,4.1,1.8,7.4.6,5.2.4,6.2-1.3,7.4a9.16,9.16,0,0,0-2.6,3.1c-.9,2.6-6.7,1.5-9.4-1.8-1.3-1.7-2.7-2.5-3.7-2.1s-1.6.1-1.6-1.3a4,4,0,0,0-1.9-3c-2.4-1.2-4.4-1.3-3.7-.1.4.5-.2.7-1.3.4s-2.6-2-3.5-4-2.2-3.3-3-3c-2.5,1-3.6-1.4-1.9-3.9M379,791a1,1,0,0,1-1,1,1.08,1.08,0,0,1-1-1,1,1,0,0,1,1-1A.94.94,0,0,1,379,791Z" transform="translate(-4.42 -58.56)"/><path class="cls-1" d="M459.3,749.5" transform="translate(-4.42 -58.56)"/><path class="cls-1" d="M478,750.9a2.14,2.14,0,0,0,1,1.6c.6.3,1-.1,1-.9s-.4-1.6-1-1.6A1,1,0,0,0,478,750.9Z" transform="translate(-4.42 -58.56)"/><path class="cls-1" d="M396.5,753c-.4,1.3.1,3,1.4,4.6a10.2,10.2,0,0,1,2.1,5.3,6.57,6.57,0,0,0,1.3,4c1.6,1.6,1.6,23.6,0,25.2a2.62,2.62,0,0,0-.6,2.5c.3.8-.6,2.9-2,4.7-2.5,3.3-2.5,3.4-.6,5a9,9,0,0,0,2.3,1.7c.2,0,.6-2.2,1-5s1-5.2,1.5-5.4,1.2-2,1.6-3.8c.9-3.9.7-20.7-.3-22.2a18.33,18.33,0,0,1-.9-4.1c-.3-5.7-1.2-8.4-3.4-11.4a33.68,33.68,0,0,0-2.5-3.1C397.2,751,396.8,751.9,396.5,753Z" transform="translate(-4.42 -58.56)"/><path class="cls-1" d="M305.1,761" transform="translate(-4.42 -58.56)"/><path class="cls-1" d="M298.4,765.4c-.4,1.8.1,3.2,1.9,5.2l2.6,2.8,1.2-2.7c1.4-3.2.6-4.5-1.7-2.7-1.3,1.2-1.7,1.1-2.5-.1a4.94,4.94,0,0,1-.3-3.2c.3-.9.3-1.7,0-1.7S298.8,764.1,298.4,765.4Z" transform="translate(-4.42 -58.56)"/><path class="cls-1" d="M479.7,766.7c-1.2,1.1-.8,2.2,1.4,4.4,1.3,1.3,1.8,2.6,1.3,3.7-1.1,2.6-.4,7.5,1.3,9.4,1.1,1.2,1.7,4.4,2,9.5.4,8.2.5,8.4,7.2,13.3,1.6,1.1,1.8,1.9,1.1,3s-1.3,1.3-3,.2c-3-1.8-3.3-1.5-2.7,2.3a17.5,17.5,0,0,1-.3,6.5c-1,3.6-.5,5.6,1.7,6.5,2.4.9,4-1.1,2.7-3.3s-.6-9.2,1.1-9.2c1.4,0,2.5-2.2,2.5-4.9,0-.9-1.3-3.5-2.9-5.7a19,19,0,0,1-3.6-9.9,31.44,31.44,0,0,0-2.1-8.9,13,13,0,0,1-1.4-4.3,9.56,9.56,0,0,0-1.2-3.3c-.9-1.4-1-2.2-.1-3.1s.7-1.8-.4-4C482.9,766.1,481.1,765.2,479.7,766.7Z" transform="translate(-4.42 -58.56)"/><path class="cls-1" d="M306.7,767.7c-.4.3,0,1.4.9,2.4,2.5,2.7,1.1,4.9-3.1,4.9-1.9,0-3.5.1-3.5.3s1.1,2.6,2.4,5.4c2.5,5.1,5,8.3,6.6,8.3,1.3,0,0-3.7-2.1-5.6s-2.4-4.3-.6-6.9c1.3-1.7,1.5-1.7,3.6.6,1.2,1.3,3.3,3.5,4.5,4.9,3.7,3.9,6.9,9.9,9.6,17.8,1.4,4.1,2.9,7.7,3.5,8.1,1.2,1,9.2,2.1,9.8,1.4.8-.7-4.3-12.6-6.2-14.8a12.53,12.53,0,0,1-2.4-3.8,2.72,2.72,0,0,0-2.2-1.7c-1.2,0-.6,1.8,2.5,7.3,4.1,7.6,4.8,9.7,2.9,9.7-2.1,0-5.1-4.6-7.4-11.2a40.7,40.7,0,0,0-9.4-15.7,37,37,0,0,1-4.1-6.2C309.9,768.9,307.6,766.7,306.7,767.7Z" transform="translate(-4.42 -58.56)"/><path class="cls-1" d="M316.6,767.8a1.28,1.28,0,0,0,.5,1.7" transform="translate(-4.42 -58.56)"/><path class="cls-1" d="M313.6,790.8a28.14,28.14,0,0,0,2.2,7.2c1.1,2.5,3,7.1,4.3,10.4,3.8,9.5,6.6,11,19.1,10.6,5.3-.2,6.9,1.6,7.1,7.6.1,3.1,2,5.3,3.1,3.5.8-1.3-1.2-12.3-2.4-13.5-.7-.6-5.3-1.1-10.8-1.1h-9.7l-3.2-6.5c-1.8-3.6-3.2-7.1-3.2-7.8-.1-1.7-5-12-6-12.6C313.7,788.3,313.5,789.3,313.6,790.8Z" transform="translate(-4.42 -58.56)"/><path class="cls-1" d="M411.7,799.6" transform="translate(-4.42 -58.56)"/><path class="cls-1" d="M381.4,805.4c-1.8,1.4-1.7,1.5,1.1,1.2,1.6-.2,3.1-.8,3.3-1.5C386.3,803.5,383.8,803.7,381.4,805.4Z" transform="translate(-4.42 -58.56)"/><path class="cls-1" d="M391,805.5c0,.8.4,1.5.9,1.5a4.12,4.12,0,0,0,2.1-1.5c1-1.3.9-1.5-.9-1.5C391.9,804,391,804.6,391,805.5Z" transform="translate(-4.42 -58.56)"/><path class="cls-1" d="M396.6,809.1c-1-.9-1.6-.8-2.6.4" transform="translate(-4.42 -58.56)"/><path class="cls-1" d="M384.7,810.6c-.8.8.1,2.4,1.4,2.4.5,0,.9-.7.9-1.5C387,810,385.8,809.5,384.7,810.6Z" transform="translate(-4.42 -58.56)"/><path class="cls-1" d="M379.2,813.6c3.2-2.3-.3-3.4-5-1.5-1.3.5-2,1.3-1.7,1.9" transform="translate(-4.42 -58.56)"/><path class="cls-1" d="M360,823.9" transform="translate(-4.42 -58.56)"/><path class="cls-1" d="M60,827.9a2.34,2.34,0,0,0,1,1.6c.6.3,1,.2,1-.4a2,2,0,0,0-1-1.6C60.5,827.2,60,827.3,60,827.9Z" transform="translate(-4.42 -58.56)"/><path class="cls-1" d="M73.5,829.9" transform="translate(-4.42 -58.56)"/><path class="cls-1" d="M492.3,830.3a4.58,4.58,0,0,1-2.4,1.9c-1.2.5-1.5,1.8-1.3,5.9.1,2.8-.2,6-.8,6.9-1.2,1.9,11.23,16,12.93,16s-8.43-16-8.63-20.1a18.8,18.8,0,0,1,1.4-7.2,32.94,32.94,0,0,0,1.5-4.2C495,828.5,493.1,829,492.3,830.3Z" transform="translate(-4.42 -58.56)"/><path class="cls-1" d="M353.5,831.1c-1.2,1.9.5,2.3,2.2.6s1.6-1.7.1-1.7A2.84,2.84,0,0,0,353.5,831.1Z" transform="translate(-4.42 -58.56)"/><path class="cls-1" d="M54.5,833c.3.5.8,1,1.1,1s.4-.5.4-1a1,1,0,0,0-1.1-1C54.4,832,54.2,832.4,54.5,833Z" transform="translate(-4.42 -58.56)"/><path class="cls-1" d="M346.3,832.7c-1.3.2-2.3.8-2.3,1.3,0,1.2,3.7,2.3,5,1.5s1.4-3.6.3-3.4C348.8,832.2,347.5,832.5,346.3,832.7Z" transform="translate(-4.42 -58.56)"/><path class="cls-1" d="M360.5,834c-.8,1.2,2,2.4,3.5,1.5a1.19,1.19,0,0,0,.5-1.6A2.6,2.6,0,0,0,360.5,834Z" transform="translate(-4.42 -58.56)"/><path class="cls-1" d="M69,835c0,.5.7,1,1.6,1s1.2-.5.9-1a1.9,1.9,0,0,0-1.6-1A.92.92,0,0,0,69,835Z" transform="translate(-4.42 -58.56)"/><path class="cls-1" d="M39.5,836a2.34,2.34,0,0,0,1.6,1c.6,0,.7-.5.4-1a2,2,0,0,0-1.6-1C39.3,835,39.2,835.4,39.5,836Z" transform="translate(-4.42 -58.56)"/><path class="cls-1" d="M353.2,837c-.9,1.6-.8,2,.7,2.5,2,.6,5.1-.3,5.1-1.4,0-.4-1-1.3-2.3-1.8C354.8,835.4,354.1,835.5,353.2,837Z" transform="translate(-4.42 -58.56)"/><path class="cls-1" d="M366.1,844" transform="translate(-4.42 -58.56)"/><path class="cls-1" d="M506.1,865c-.26.63,23.76,24.16,24.54,24.16a.87.87,0,0,0,.88-1.25c-.26-.76-.7-1.26-.88-1.26S506.36,864.28,506.1,865Z" transform="translate(-4.42 -58.56)"/><path class="cls-1" d="M471.5,1002c.3.5.8,1,1.1,1s.4-.5.4-1a1,1,0,0,0-1.1-1C471.4,1001,471.2,1001.4,471.5,1002Z" transform="translate(-4.42 -58.56)"/><path class="cls-1" d="M476,1009c0,.5.7,1,1.6,1s1.2-.5.9-1a1.9,1.9,0,0,0-1.6-1A.92.92,0,0,0,476,1009Z" transform="translate(-4.42 -58.56)"/><path class="cls-1" d="M175,1010.1c0,.5.5.7,1,.4s1-.8,1-1.1-.4-.4-1-.4A1.1,1.1,0,0,0,175,1010.1Z" transform="translate(-4.42 -58.56)"/><path class="cls-1" d="M541,897.91c2.84,1.89,69.41,60,80.43,70.2a191.26,191.26,0,0,1,17,18.12c1.52,1.87,2.77,3.46,3.65,4.62" transform="translate(-4.42 -58.56)"/><path class="cls-1" d="M284.65,733.82c-.6,1.1,4.6,16.7,7.7,22.9,3.4,6.9,7.3,11.5,9.3,10.7" transform="translate(-4.42 -58.56)"/><path class="cls-1" d="M657.92,1002.57" transform="translate(-4.42 -58.56)"/><path class="cls-1" d="M3.46,1009.27" transform="translate(-4.42 -58.56)"/><path class="cls-1" d="M373.4,984.93c-1.71-9.2-27-135.45-27-135.87.21-2,9.1,41.11,19.44,88.85.52,2.38,2.47,11.3,4.47,24.18,1.62,10.47,2.83,20.6,3.09,22.84s.51,4.36.67,5.82" transform="translate(-4.42 -58.56)"/><path class="cls-1" d="M14.48,1007.41" transform="translate(-4.42 -58.56)"/><path class="cls-1" d="M12.46,352.94" transform="translate(-4.42 -58.56)"/><path class="cls-1" d="M637.93,989.68c-.26.63,23.75,24.16,24.54,24.16a.87.87,0,0,0,.87-1.26c-.26-.75-.7-1.25-.87-1.25S638.19,988.93,637.93,989.68Z" transform="translate(-4.42 -58.56)"/><path class="cls-1" d="M32.34,1008.17C30.67,999,5.87,872.6,5.92,872.18c.23-2,8.92,41.16,19.06,88.93.51,2.39,2.41,11.32,4.36,24.21,1.58,10.47,2.74,20.61,3,22.85s.48,4.36.64,5.82" transform="translate(-4.42 -58.56)"/><path class="cls-1" d="M169.24,1010.21c-9.36-.07-138.13.76-138.53.64-2-.61,42.09-1.11,90.92-2.17,2.44-.06,11.57-.27,24.59.22,10.59.4,20.77,1.14,23,1.31s4.37.34,5.83.46" transform="translate(-4.42 -58.56)"/><path class="cls-1" d="M305.66,1008.63c-9.36-.07-138.13.76-138.53.64-2-.6,42.09-1.1,90.92-2.17,2.44-.05,11.57-.27,24.59.22,10.59.4,20.77,1.15,23,1.31l5.83.46" transform="translate(-4.42 -58.56)"/><path class="cls-1" d="M649.53,1011.66c-9.36-.07-138.13.76-138.53.64-2-.6,42.09-1.11,90.92-2.17,2.44-.06,11.57-.27,24.59.22,10.59.4,20.77,1.14,23,1.31l5.83.46" transform="translate(-4.42 -58.56)"/></svg>