<svg xmlns="http://www.w3.org/2000/svg" viewBox="0 0 263.9 372.42"><defs><style>.cls-1{fill:#fff;}</style></defs><title>Sansa</title><g id="Layer_2" data-name="Layer 2"><g id="Layer_1-2" data-name="Layer 1"><g id="Layer_2-2" data-name="Layer 2"><g id="Layer_2-2-2" data-name="Layer 2-2"><path class="cls-1" d="M155.68,145.76c-.06,0-.09.07,0,.1a34.66,34.66,0,0,0,13.38,4.08c5.65.54,9.82-2.33,15.12-3a3.78,3.78,0,0,0,1.34.44.24.24,0,0,0,.3-.17.25.25,0,0,0-.17-.3h0c-2.16-.65-3.37-3.36-4.71-5.57h0c-.83-3.07-2.68-4.45-5-4.79a7.46,7.46,0,0,0-1.93-.35c-4.35-1.2-9.35,1.81-13.25,4.56-1.47.83-2.9,1.69-4.29,2.5-.32.14-.61.25-.88.35a1.85,1.85,0,0,1-.7-.13c-.11,0-.16.14,0,.18l.46.16s0,.06.09,0h0c-.23.14-.47.27-.71.4a2.58,2.58,0,0,1-1-.34.11.11,0,0,0-.13,0,.09.09,0,0,0,0,.12,2.46,2.46,0,0,0,.73.35l-.26.13a2,2,0,0,1-1.64-.35s-.12,0-.08.06a1.33,1.33,0,0,0,1.08.56h.11l-.17.09a.06.06,0,0,0,0,.06,4.19,4.19,0,0,1-1.83-.13c-.06,0-.11.08,0,.11a3.24,3.24,0,0,0,1.15.28,15,15,0,0,1-4.67.46.08.08,0,0,0,0,.16c5.83,1,11.36-2,16.28-5.22a1.18,1.18,0,0,1,.87.54.21.21,0,0,0,.13.13c0,2.75,2.85,6.53,5.22,7,.14,0,.2-.18.06-.22-2.48-.71-5.14-4.52-4.49-7.14h0a2.6,2.6,0,0,1,1.27,0,.08.08,0,0,0,.09-.08.11.11,0,0,0-.09-.1h0a2.73,2.73,0,0,0-1.27.06l.09-.23c.44-.06.87-.2,1.32-.23.55.14,1.08.35,1.64.53a.1.1,0,0,0,.12-.09.1.1,0,0,0,0-.1,4.73,4.73,0,0,0-2-.66,5.77,5.77,0,0,1,1.31.13c.44.23.87.48,1.29.74a2.07,2.07,0,0,0-.35.77,2.5,2.5,0,0,0,.46,1.8,2.33,2.33,0,0,0,2.79,1.56,1.42,1.42,0,0,0,.6-.43,2.58,2.58,0,0,0,1.07-1.65,4,4,0,0,0-.16-2.15.53.53,0,0,0,.08-.15c.08-.29.17-.58.26-.87a2.82,2.82,0,0,1,1-.81l.34-.15-.32.19c-.27.16-.75.41-.81.75a.08.08,0,0,0,0,.09h0a5.89,5.89,0,0,0,.94-.47c.19-.09.4-.17.61-.25a2.24,2.24,0,0,0,.1.39h-.08a3.61,3.61,0,0,0-1.55.81.11.11,0,0,0,0,.17.1.1,0,0,0,.12,0,4.22,4.22,0,0,0,1.57-.75c.71,3.78-1.11,9.51-5.65,8.52,0,0,0,.05,0,.08a0,0,0,0,0,0,0c2.55.78,4.41-1,5.54-3.15a10.46,10.46,0,0,0,1.19-4.39.21.21,0,0,0,.1-.14,1.26,1.26,0,0,1,.39-.91,14.57,14.57,0,0,1,3.9,4.85l.15.26a.23.23,0,0,0-.09.18h0v1.12a1.17,1.17,0,0,1-.07.49c-.07.16,0,0,0,.06-3.16.65-6.14,2.17-9.47,2.45C166.77,149.67,161,147.86,155.68,145.76ZM171,141a1.66,1.66,0,0,0,.15.7,1.89,1.89,0,0,0,.09.34h0a2.91,2.91,0,0,1-.31-1h0Zm2-1.25v.15l-.24-.09Zm.27,1.59c-.23.8-.68,1.13-1.29.46a1.5,1.5,0,0,1-.23-.33,1,1,0,0,1,0-.24,1.47,1.47,0,0,1,.82-1,.22.22,0,0,0,.06-.07,1.23,1.23,0,0,1,.26.12.26.26,0,0,0,.09.17,1.38,1.38,0,0,1,.34.88s-.09,0-.1,0Zm-.8-3.3h0Zm-.93.09h-.39l.5,0Zm4.7-.56Zm-6.1-.73c-.52.17-1,.36-1.55.58a24.73,24.73,0,0,0-3.37,1.14,17.91,17.91,0,0,1,4.87-1.73Zm-5.22,3.4v.1l-.13,0Zm1.42,0a.09.09,0,0,0,.07.06l-.15.06s0-.09,0-.15Zm11.26-.68a2.25,2.25,0,0,0,0-.22l.13.09Zm5.06,7h-.07s0,0,0,0Zm.07-.87h-.12v-.2l.14.21Z"/><path class="cls-1" d="M182,138.24c.07.11.26,0,.18-.11-2.74-4.16-6.87-4.76-11.59-4.64-7.89.21-12.81,4.94-19.77,7.52-.06,0,0,.13,0,.11,4.58-1.43,8.33-4.47,13-6C169.64,133.22,178,132.43,182,138.24Z"/><path class="cls-1" d="M183,140.69a2.79,2.79,0,0,0-.64-1.67c-.06-.07-.19,0-.14.08a3.09,3.09,0,0,1,.61,1.59C182.84,140.79,183,140.79,183,140.69Z"/><path class="cls-1" d="M184.23,142.27c0-.07-.18,0-.13.08a5.2,5.2,0,0,0,2.3,2.15c.07,0,.11-.09,0-.12A5.71,5.71,0,0,1,184.23,142.27Z"/><path class="cls-1" d="M194.63,127.33c-.69-2.33-3.5-2.49-5.53-2.71a122.84,122.84,0,0,0-14.47-1,43.8,43.8,0,0,0-11.88.51c-7.64,1.16-14.56,5.66-21,9.62a.25.25,0,0,0-.09.36.25.25,0,0,0,.36.09h0c9.58-5.15,19.21-9.1,30.3-7.59,4.75.65,9.51,1.71,14.22,2.64,2.93.59,5.53,1.21,7.74-1l.11-.08h0a6.15,6.15,0,0,1-.91.86c-.13.13,0,.31.17.29,1.2-.18,1.62-2,1.32-3a.12.12,0,0,0-.16-.06.11.11,0,0,0-.07.12,2.4,2.4,0,0,1-.18,1.45h0a.74.74,0,0,0,0-.21h0A.69.69,0,0,0,194.63,127.33Z"/><path class="cls-1" d="M195.69,126.69c.06.89-.49,1.37-1,2a.16.16,0,0,0,0,.23.15.15,0,0,0,.2,0,2.49,2.49,0,0,0,1-2.26C195.87,126.54,195.68,126.57,195.69,126.69Z"/><path class="cls-1" d="M195.63,129.4a3,3,0,0,0,1-2.61c0-.11-.18-.06-.16,0,.19,1-.56,1.6-1,2.42C195.36,129.37,195.53,129.51,195.63,129.4Z"/><path class="cls-1" d="M197.15,128.27a1.75,1.75,0,0,1-.6.92.17.17,0,0,0,.2.27,2,2,0,0,0,.68-1.11C197.49,128.17,197.22,128.1,197.15,128.27Z"/><path class="cls-1" d="M217.82,144.09c.17-.29.34-.57.52-.85,4.34-3.2,10.59,3.08,15.41,2.23s6.73-5.2,6.49-9.78h0a.12.12,0,0,0,0-.16c-.18-.34,0-.51.25-.71l.54.13c-.19.19-.39.39-.59.57a.11.11,0,0,0,0,.15.11.11,0,0,0,.15,0,6.6,6.6,0,0,0,.85-.65,8.63,8.63,0,0,0,3.32.07c.26,0,.18-.43-.06-.44A17.27,17.27,0,0,1,241,134v-.09a11.19,11.19,0,0,0,2,.37.13.13,0,0,0,.13-.13A.14.14,0,0,0,243,134c-1.06-.22-2-.75-3.08-.92a.31.31,0,0,0-.19,0l-.36-.2a27.49,27.49,0,0,0,2.84.45c.12,0,.14-.17,0-.2-1.51-.39-3-.89-4.48-1.34a.2.2,0,0,0-.11-.09c-2.58-.93-3.9-1.31-6.56-.54l-.3.1a14.35,14.35,0,0,0-6.08,3.44,20.88,20.88,0,0,0-7.08,9.21C217.53,144.12,217.75,144.21,217.82,144.09Zm19-10.36a.14.14,0,0,0-.13-.08l-.37.11a.25.25,0,0,0,.13-.18h.17l.2.06Zm-5,2.49-.06-.06v-.09a.34.34,0,0,0,.06.15Zm.41-2.7h-.16a.08.08,0,0,1,.06-.07h.22Zm-3.64.65L229,134a0,0,0,0,0,0,.05Zm4.73,2.57a.63.63,0,0,1-.56-.13.85.85,0,0,1-.26-1.18l.11-.15a1.19,1.19,0,0,1,1,1.11.59.59,0,0,1-.29.35Zm-2.32-4.6-.37.05.36-.08Zm-2,2.84.09.13L229,135Zm-9.61,6.47a3.54,3.54,0,0,1-.12.7.11.11,0,0,0,.07.15,4.34,4.34,0,0,0-.86.51c.29-.46.6-.92.91-1.36ZM240,135.52a.23.23,0,0,0-.13.17c-.45,3.68-1.28,7.33-5.25,8.72-2.5.87-5.59-.64-7.94-1.41-2-.67-4.82-1.6-7-.8a5.1,5.1,0,0,0,.07-1.11c.47-.64.94-1.26,1.45-1.85,1-.87,2.09-1.71,3.16-2.48a2,2,0,0,1,1.26,1.11h0c.27,2.51,1.86,4.93,4.34,5.49a.09.09,0,0,0,.06-.12.11.11,0,0,0-.06-.07c-3-1.08-4.41-4.61-3.63-7.56a.37.37,0,0,0,.27.07,4.08,4.08,0,0,1,2.31.33c-.73,0-1.44-.13-2.16-.19a.07.07,0,1,0,0,.13,16.37,16.37,0,0,0,2.42.22,3.59,3.59,0,0,1,.73.67,2.94,2.94,0,0,0,.13,1.94c.22.54.88,1.38,1.48,1.37a.15.15,0,0,0,.17.09H232a1.42,1.42,0,0,0,.4-.12.75.75,0,0,0,.24-.08,1.54,1.54,0,0,0,.36-.27h0a.53.53,0,0,0,.13-.13,1.85,1.85,0,0,0,.42-.61,1.54,1.54,0,0,0,.35-.67,3.22,3.22,0,0,0,.53-2.18,2.13,2.13,0,0,0-.25-.63v-.13a.37.37,0,0,0,.15-.13,6.11,6.11,0,0,1,.86-1.11,1.74,1.74,0,0,0,.68-.34h.17a4.22,4.22,0,0,0-1.26,1,.08.08,0,0,0,0,.1s.05,0,.07,0c.28-.17.58-.35.88-.51a7.07,7.07,0,0,0,.94-.5h0c0,3.49-1.66,10.62-5.81,9.52,0,0-.05,0,0,.06,3.94,1.23,6.4-4.59,6.61-8.5a4.55,4.55,0,0,1,.8-.78h0c.57.19,1.13.37,1.7.53A.62.62,0,0,0,240,135.52Z"/><path class="cls-1" d="M221.8,129.64c.45-.76.87-2.1.06-2.77-.09-.08-.22,0-.14.13.64.66.16,1.8-.18,2.49a.16.16,0,0,0,.05.21.15.15,0,0,0,.21-.06Z"/><path class="cls-1" d="M222.91,128.47a7.57,7.57,0,0,0,0-1.78.11.11,0,0,0-.11-.1.11.11,0,0,0-.1.1,6.63,6.63,0,0,0,0,1.78.12.12,0,0,0,.16.05A.12.12,0,0,0,222.91,128.47Z"/><path class="cls-1" d="M223.21,128.71a1.73,1.73,0,0,0,.37-.16.26.26,0,0,0,.34.11l.18-.1a.83.83,0,0,0,.63.14,28.2,28.2,0,0,0,11.59-4.83c1.38-.93,9.89-6.88,10.52-2.79,0,.24.45.18.42-.06-.38-3.18-3.71-2.25-5.91-1.36-.71.15-1.42.34-2.11.56h-.11a14.18,14.18,0,0,0-4,1.54,57.72,57.72,0,0,0-5.66,1.4,10.18,10.18,0,0,0-3.15,1.42c-.33.18-.66.37-1,.58a.64.64,0,0,0-.45.25c-.28.36-.47.6-.6.79V126a.22.22,0,0,0-.26-.16.2.2,0,0,0-.17.16v.87a.31.31,0,0,0-.14.3h0a.73.73,0,0,0-.07.24c-.31.12-.47.56-.15.76a1.51,1.51,0,0,1-.35.23C223,128.5,223,128.77,223.21,128.71Zm9.3-4.22c-.19.11-.85.42-1.67.79.85-.42,1.69-.9,2.51-1.4a.54.54,0,0,0,.19-.18.24.24,0,0,0,.11-.06c-.23.19-.46.39-.68.6Zm-5,2c.37-.08.74-.17,1.09-.28a13.56,13.56,0,0,1-1.37.43Zm9.92-4.87h0l.53-.17h-.08Zm-6.81,2.24h-.07c-.92.35-1.86.65-2.81.93A10.92,10.92,0,0,1,230,124Z"/><path class="cls-1" d="M213.37,145.69c-.17,5.14,2.9,8.91,4.65,13.55,2.25,5.94,3.22,12,6.55,17.53a.15.15,0,0,0,.22.06.16.16,0,0,0,.06-.22h0c-2.93-4.94-4.36-10.41-6-15.87-1.5-5.15-5.53-9.53-5.51-15Z"/><path class="cls-1" d="M200.62,187.45a7.34,7.34,0,0,0-2.64.27.25.25,0,0,0-.16.29.15.15,0,0,0,.06.09,7.67,7.67,0,0,0,1.31,1.17.2.2,0,0,0,.17.14l.27.21c.06,0,.14-.05.08-.1l-.13-.14a.19.19,0,0,0,.09-.19.81.81,0,0,1,0-.22c.36-.4,1-.21,1.47-.16a6.7,6.7,0,0,0,2,0h0a3.59,3.59,0,0,0,.72.11l.17.1-.4.11a7.47,7.47,0,0,1-2,.15,0,0,0,0,0,0,.08c.53,0,1,.13,1.58.14s1.16-.18,1.75-.17a.16.16,0,0,0,.16-.15v0a15.34,15.34,0,0,1,2.69,1.26c.06,0,.12,0,.07-.1C207.2,189.41,203,187.49,200.62,187.45Zm-2.14.68Zm.42.53.15.08a.17.17,0,0,0,0,.1Z"/><path class="cls-1" d="M201.21,185.92c-1.75,0-3.49.11-5.23.07a2.91,2.91,0,0,0-2.92-.15,12.42,12.42,0,0,1-1.83.81,1.9,1.9,0,0,1-1.85-.75,12.91,12.91,0,0,1-1-3.71c-.35-2.73,2.78-4.06,3.78-6.27.06-.14-.13-.26-.21-.12-1.91,3.19-4.8,3.56-4,7.83a9.59,9.59,0,0,0,1.86,4.15,13,13,0,0,0,2.15,2.11c.9.77,2.15.68,3.27.67a.19.19,0,0,0,.2-.14,1.56,1.56,0,0,0,1,.12h.06a1.32,1.32,0,0,1,1.12,1.09c0,.14.23.08.21,0-.21-1.38-1.45-1.44-2.61-1.62a.24.24,0,0,0-.12,0h-.31a3.58,3.58,0,0,1-.71-.2.28.28,0,0,0-.18,0c-.42-.15-.83-.35-1.2-.52a13,13,0,0,1-1.54-.77,7.19,7.19,0,0,1-1.5-2,1.76,1.76,0,0,0,1.7.54c1.73-.39,2.85-1.74,4.67-.58.15.09.26-.12.15-.22a39.3,39.3,0,0,0,5.09,0C201.34,186.12,201.34,185.92,201.21,185.92Z"/><path class="cls-1" d="M207.21,187.51h0c3.18.18,5.83,2.14,8.92,2.72a18.06,18.06,0,0,0,6.39-.22l-.09.11c-2.14,2-5.21,2-8.53,1.36-2.16-.44-4.13-.54-5.57,1.31-.05.06,0,.15.09.09,2.58-3,7.61.48,11.05-.31a6,6,0,0,0,1.93-.77,3.51,3.51,0,0,0,2.39-2.11l.36-.66c3.92-.9,4.6-6.47,3.6-9.7,0-.05-.09,0-.07,0,.81,2.85-.09,7.77-3.17,9a19.61,19.61,0,0,0,1.83-5.54A5.82,5.82,0,0,0,226,180a6,6,0,0,0-1.11-2.7s-.12,0-.09.05a8.66,8.66,0,0,1,.52,1c-.38-.75-.81-1.46-1.2-2.13m-.09,0c.92,2.25,1.83,4.23,1.53,6.66-.13.66-.3,1.32-.49,2-.39,1-.93,2-1.42,3.06a.22.22,0,0,0-.09.07,8,8,0,0,1-1.05,1.58h0c-3.51.49-6.59.59-9.93-.82a12.64,12.64,0,0,0-5.4-1.28Z"/><path class="cls-1" d="M208.83,205.66c-2.22-.72-3.55-2.16-5.83-2.62-1.53-.31-3.69.52-5.09.92-5.29,1.5-9.86,4.74-15.27,6-.09,0,0,.17.05.15A54.12,54.12,0,0,0,193.46,206c3.29-1.51,8.51-3.76,12.06-1.68a10.58,10.58,0,0,0,3.23,1.59.15.15,0,0,0,.13-.18A.14.14,0,0,0,208.83,205.66Z"/><path class="cls-1" d="M220,205.23c0,.09.19,0,.16-.06-2.15-5.53-7.61,2.83-10.7.5h0C212.86,208.27,217.42,200.39,220,205.23Z"/><path class="cls-1" d="M221.14,207.38a7.8,7.8,0,0,1-.73-1.13h-.08a4.91,4.91,0,0,0,.61,1.21C221,207.62,221.23,207.5,221.14,207.38Z"/><path class="cls-1" d="M220.83,208.1a.76.76,0,0,0,.91-.59.59.59,0,0,0,0-.14c0-.07-.08-.1-.1,0a.51.51,0,0,1-.44.41,7.82,7.82,0,0,0-4,1.36h0a17.48,17.48,0,0,0-2.52,1.07,32.29,32.29,0,0,1-5.92,1.16h-.12a126.18,126.18,0,0,1-13.32-1,27.6,27.6,0,0,0-6.67-.24c-2.88.41-5.54,1.5-8.44,1.73a1.37,1.37,0,0,0,.17-.23.23.23,0,0,0-.05-.28,2,2,0,0,0,.42-.82.08.08,0,0,0-.08-.07l-.06,0c-.5.9-1.74,1.06-2.26,1.94-.55.23-1.12.41-1.69.66h0a5.32,5.32,0,0,1,1.12-.24h0a1.17,1.17,0,0,0,.61-.11.18.18,0,0,0,.22,0h0a2.46,2.46,0,0,0,1.29-.61,51.07,51.07,0,0,0,7.3-.58c1.16.43,2.42.63,3.59,1.11a18.24,18.24,0,0,0,2.6.82A47.11,47.11,0,0,0,204,216.56c3.3,1,7.74,1.47,9.4-1.65a.08.08,0,0,0-.06-.09.09.09,0,0,0-.07,0,4.43,4.43,0,0,1-3.5,1.77,4.51,4.51,0,0,0,1-.39,4.3,4.3,0,0,0,1.94-1.88c.68-.73,1.35-1.49,2-2.23,0,.05.11.08.16,0l.86-.62h0a2.17,2.17,0,0,0,.87.16.11.11,0,0,0,.08-.14.14.14,0,0,0-.08-.09,3.8,3.8,0,0,1-.67-.14c.18-.12.35-.25.54-.37a.08.08,0,0,0,.06.08.41.41,0,0,0,.32.1.14.14,0,0,0,0-.28l-.16-.06c.82-.56,1.65-1.11,2.46-1.69a3.39,3.39,0,0,0-.27.73.05.05,0,0,0,.05.07h0a11.43,11.43,0,0,0,.65-1,5.32,5.32,0,0,1-.12.8c0,.07.08.12.11.05a5,5,0,0,0,.42-1.1.38.38,0,0,0,0,.15.18.18,0,0,0,.17.14.21.21,0,0,0,.19-.11.14.14,0,0,0,0-.17c0-.13.12-.26.15-.38a.43.43,0,0,0,0-.16h.11Zm-3.45,1.67.2-.07h0l-.76.58Zm1.6-1,.23-.11-.21.13,0-.06Zm-27.55,2.7h0a.28.28,0,0,1,0-.13h.07a.7.7,0,0,0,.12.47,1,1,0,0,1-.19-.38Zm-1.78-.13a.2.2,0,0,0,.1.16l-.41-.14ZM202.38,215c-2.51-.58-5-1.2-7.48-1.88-.52-.17-1.06-.33-1.6-.48-.64-.47-1.57-1.26-1.2-1.39a.13.13,0,0,0,.08-.07,24.55,24.55,0,0,1,3.09.11c5.62.63,11.21,1.76,16.86.72h0a.24.24,0,0,0,.26,0l.19-.12c-.09.15-.18.28-.27.41l-.24.2c-1.73,1.44-3.09,1.36-5.14,1.37a37.8,37.8,0,0,1-10-1m0,.09a34.46,34.46,0,0,0,10,1.28,8.94,8.94,0,0,0,4.58-.83c-2.35,2.67-5.06,2.49-9.13,1.59Zm16.45-.15a0,0,0,0,0,.05,0l-.13.16a1.82,1.82,0,0,0,.08-.19Z"/><path class="cls-1" d="M209.07,206.2a8.8,8.8,0,0,0,1,.42c.1,0,.17-.13.07-.18-.3-.15-.6-.29-.91-.42S209,206.14,209.07,206.2Z"/><path class="cls-1" d="M219.85,132.33a19,19,0,0,0-3.89,4.81.09.09,0,0,0,.06.13.08.08,0,0,0,.11,0,27.63,27.63,0,0,1,3.77-4.86S219.88,132.3,219.85,132.33Z"/><path class="cls-1" d="M214.67,139.83c-.33.76-.88,1.38-1.24,2.12a1.15,1.15,0,0,0,0,1.28c.06.09.21,0,.14-.08-.37-.52.09-1.23.34-1.71a12.87,12.87,0,0,0,.8-1.57C214.77,139.82,214.69,139.79,214.67,139.83Z"/><path class="cls-1" d="M75,317.08a.13.13,0,0,0-.15.09.11.11,0,0,0,.08.14H75a.11.11,0,0,0,.08-.14A.14.14,0,0,0,75,317.08Z"/><path class="cls-1" d="M95.2,161.8c-1.28-2.73-5.19-5.34-4.54-8.68.43-2.19.87-3.55.18-5.73-.41-1.26-1.12-1.64-2.13-2.31-.41-.27-1.24,0-1.53,0a3.56,3.56,0,0,1-1.49-.1,17.11,17.11,0,0,1-3.36-3.49A22.42,22.42,0,0,0,77.42,137c-1.53-1-3.81-1.9-5.64-1.32h0c-.14,0-.32,0-.38.15h0a3.52,3.52,0,0,0-1,.65c-2.93,2.87.32,9.62,2.75,11.76a.17.17,0,0,0,.25,0,.19.19,0,0,0,0-.25l0,0a14.26,14.26,0,0,1-2.59-5.51c-.13-3,.43-6.84,4.39-4.54a13.72,13.72,0,0,1,2.87,2.39,27.15,27.15,0,0,0,2,11.48c-1.12.91-2.37,1.48-3.83.66a.18.18,0,0,0-.24.06.18.18,0,0,0,.06.24h0c1.66,1.07,3,.44,4.57-.6,1.8-1.22,3.61-2.4,5.46-2.17a4.16,4.16,0,0,1,1.24,1.12,3.06,3.06,0,0,0-.73.21c-2.43,1.12-3,3.9-6,4.19a.1.1,0,0,0-.1.11.09.09,0,0,0,.1.09,4.12,4.12,0,0,0,3.18-1.14c1.41-1.33,2.49-2.92,4.12-2.47.07.14.14.28.2.43a3,3,0,0,0-.71.31c-.15.1-.06.36.13.3a5,5,0,0,1,.77-.16c.17.44.31.89.44,1.34A5,5,0,0,0,90,157.87a.2.2,0,0,0,0,.11,5.32,5.32,0,0,0-.15,1.48,3.85,3.85,0,0,1-.81,2.85c-.12.12.06.28.18.18a3.1,3.1,0,0,0,1.09-2,6.66,6.66,0,0,1,.12-.76c.82,2.12,2.3,4.71.28,5.37a.17.17,0,0,0-.12.21.16.16,0,0,0,.21.12h0c1.38-.31,1.59-1.51,1.4-2.76a35,35,0,0,0-.88-3.6c3.55,2.84,3.8,6.34,1.5,10.11a4.79,4.79,0,0,0-.48,3.66c.06.34.61.26.59-.08C92.65,168.73,97.19,166.06,95.2,161.8ZM80.68,143.38c.07,2.36-.33,4.77.59,7,0,.12.24.08.2,0-.67-2.23-.46-4.48-.6-6.75.1.1.19.21.3.3.09.24.18.48.25.72a10.1,10.1,0,0,1,.24,1.06h0a11.41,11.41,0,0,0,.42,4.35c-.38.34-.77.73-1.17,1.11a27.15,27.15,0,0,1-1.26-9Zm1.1,3.07a10.57,10.57,0,0,0,.56,2.68h0a1.44,1.44,0,0,0,.07.54l-.14.12A15.66,15.66,0,0,1,81.78,146.45Zm-1.43,5.2a28.07,28.07,0,0,1-2.12-11.09c.41.45.82.91,1.21,1.37,0,3.22,0,6.41,1.22,9.43Z"/><path class="cls-1" d="M96.8,143.76a5.4,5.4,0,0,0,4.91-2.07.24.24,0,0,0,0-.34.25.25,0,0,0-.34,0c-1.24,1.06-2.69,2.16-4.42,1.93C96.62,143.23,96.48,143.7,96.8,143.76Z"/><path class="cls-1" d="M99.65,147c.51-.5,1.18-.83,1.66-1.35.13-.14-.07-.32-.21-.2-.55.45-1.16.82-1.68,1.32a.17.17,0,0,0,0,.23A.15.15,0,0,0,99.65,147Z"/><path class="cls-1" d="M102,148.19c.07-.49-.66-.5-.77-.06-.46.08-.45.81,0,.79a.74.74,0,0,0,.77-.72Z"/><path class="cls-1" d="M100.87,152a.17.17,0,0,0,.17-.17.17.17,0,1,0-.34,0A.17.17,0,0,0,100.87,152Z"/><path class="cls-1" d="M102.45,154.43c-.27.3-.4.69-.67,1-.11.12.07.31.18.18.27-.31.4-.69.67-1C102.74,154.49,102.56,154.3,102.45,154.43Z"/><path class="cls-1" d="M104.1,156.79a17.45,17.45,0,0,0-1.35,2.7c-.06.15.19.22.24.06.34-.93.89-1.75,1.31-2.64a.12.12,0,0,0-.08-.15A.13.13,0,0,0,104.1,156.79Z"/><path class="cls-1" d="M104.2,161.65a.22.22,0,0,0-.16.26.2.2,0,0,0,.16.15.21.21,0,0,0,.16-.25A.22.22,0,0,0,104.2,161.65Z"/><path class="cls-1" d="M101.32,152.59c.4-.7,1-1.26,1.37-2,.1-.2-.2-.38-.3-.18-.39.71-1,1.3-1.31,2C101,152.61,101.24,152.75,101.32,152.59Z"/><path class="cls-1" d="M103.35,165.61c.27-.54.43-1.12.7-1.65.12-.24-.25-.45-.36-.21-.25.55-.38,1.14-.63,1.69C103,165.63,103.25,165.8,103.35,165.61Z"/><path class="cls-1" d="M192.57,224.66c3.47,3.33,14.28,8.16,16.8,1.61,5.27-.72,7.15-8.28,8.46-12.88a.12.12,0,0,0-.09-.15.13.13,0,0,0-.15.09h0a42.82,42.82,0,0,1-3.31,8.19c-1.81,3.14-4.36,3.81-7.64,3.68a3.69,3.69,0,0,0,.64-.21,6.34,6.34,0,0,1,2.35-.61c.13,0,.13-.19,0-.21a11.77,11.77,0,0,0-2.71.28,5.93,5.93,0,0,0-1.56.44,16.35,16.35,0,0,1-12.9-1.71c-3.11-1.83-5.35-4.4-8.72-5.88-.07,0-.14.07-.06.11,3.39,1.73,5.7,5.09,8.91,7a.15.15,0,0,0-.08.19A.09.09,0,0,0,192.57,224.66Zm1.83.71c.48.18.95.35,1.42.5l-.06.12a12,12,0,0,1-2.07-.92c.28.11.47.21.71.3Z"/><path class="cls-1" d="M187.62,215.07a2.62,2.62,0,0,0,.2-1.21.13.13,0,0,0-.15-.08.15.15,0,0,0-.08.08,3.36,3.36,0,0,1-.13,1.14.09.09,0,0,0,.07.11A.1.1,0,0,0,187.62,215.07Z"/><path class="cls-1" d="M188.81,215.51c-.13.64-.27,1.55.54,1.75a.07.07,0,0,0,.07-.07.08.08,0,0,0-.07-.07h0c-.67-.26-.55-1-.45-1.58C189,215.46,188.82,215.42,188.81,215.51Z"/><path class="cls-1" d="M191,217.71c0-.09-.12-.15-.16-.06a2,2,0,0,0-.16,1,.07.07,0,0,0,.14,0A3.07,3.07,0,0,1,191,217.71Z"/><path class="cls-1" d="M208.71,221.65c.16,0,.15-.23,0-.25-2.84-.36-5.54.45-8.38-.06-2.55-.45-4.72-2.16-7.28-2.66h0c2.72,1,5.23,2.63,8.12,3.17C203.66,222.34,206.18,221.42,208.71,221.65Z"/><path class="cls-1" d="M211.08,220.86h0a1.06,1.06,0,0,1-.8.47c-.07,0-.07.12,0,.11a.9.9,0,0,0,.87-.53h0Z"/><path class="cls-1" d="M213.27,220a1.82,1.82,0,0,1-.77.66c-.09,0,0,.18.08.14a1.71,1.71,0,0,0,.9-.67.13.13,0,0,0,0-.17A.14.14,0,0,0,213.27,220Z"/><path class="cls-1" d="M213.54,218.58a1,1,0,0,1,.75.5.09.09,0,0,0,.14,0,.1.1,0,0,0,0-.14,1.1,1.1,0,0,0-.92-.5C213.47,218.47,213.48,218.57,213.54,218.58Z"/><path class="cls-1" d="M214.14,217.07a4.1,4.1,0,0,0,.68,1c0,.05.06.07.1.05A.08.08,0,0,0,215,218h0a4,4,0,0,0-.68-1,.08.08,0,0,0-.11,0A.07.07,0,0,0,214.14,217.07Z"/><path class="cls-1" d="M214.79,212.6a3.14,3.14,0,0,1,1,.26c.12,0,.22-.12.1-.17a2.56,2.56,0,0,0-1-.24C214.69,212.45,214.7,212.59,214.79,212.6Z"/><path class="cls-1" d="M216.35,212.37a.1.1,0,0,0,.13-.05.13.13,0,0,0,0-.12,1.67,1.67,0,0,0-.87-.38c-.16,0-.23.2-.07.24S216.06,212.29,216.35,212.37Z"/><path class="cls-1" d="M218,212.82l.24-.51c0-.09-.09-.17-.14-.08s-.18.33-.26.5a.1.1,0,0,0,0,.13A.1.1,0,0,0,218,212.82Z"/><path class="cls-1" d="M218.31,210.8c.18-.45.5-.81.66-1.25.05-.11-.1-.16-.17-.1a2.85,2.85,0,0,0-.69,1.29C218.07,210.88,218.26,210.92,218.31,210.8Z"/><path class="cls-1" d="M201,208.52c-.83.08-1.48-.82-2.23-1.07a3.12,3.12,0,0,0-1.75.37,14.86,14.86,0,0,1-5.69,1.48s-.05,0,0,.08a0,0,0,0,0,0,0,13.33,13.33,0,0,0,3.44-.47c1.44-.33,3.28-2.1,4.75-1s2.88.7,4.73.78a.07.07,0,0,0,.07-.07.08.08,0,0,0-.07-.07A22,22,0,0,0,201,208.52Z"/><path class="cls-1" d="M206,208.92h0c.81-.1,1.44.62,2.26.44.05,0,0-.09,0-.08C207.4,209.51,206.76,208.8,206,208.92Z"/><path class="cls-1" d="M209.11,209.38l.17.08h0l-.17-.09S209.08,209.37,209.11,209.38Z"/><path class="cls-1" d="M210.33,209.5a.05.05,0,1,0,.1,0,1.85,1.85,0,0,1,.14-.14v-.08S210.41,209.34,210.33,209.5Z"/><path class="cls-1" d="M211,209c-.06.2-.1.39-.15.59a.06.06,0,0,0,.09,0s0,0,0,0a3.7,3.7,0,0,0,.19-.59.1.1,0,0,0-.12,0A.12.12,0,0,0,211,209Z"/><path class="cls-1" d="M211.71,209.44a.08.08,0,0,0,.08-.08.09.09,0,0,0-.08-.08.08.08,0,0,0-.08.08A.07.07,0,0,0,211.71,209.44Z"/><path class="cls-1" d="M193,211.89c.49.17,1,.29,1.49.44.08,0,.11-.09,0-.12-.49-.15-1-.2-1.49-.39Z"/><path class="cls-1" d="M214.08,208.86c-.11.1.06.27.17.17a5.75,5.75,0,0,1,1.94-1.14c.09,0,.05-.18,0-.15A4.6,4.6,0,0,0,214.08,208.86Z"/><path class="cls-1" d="M218.79,207.28s0,.07,0,.07Z"/><path class="cls-1" d="M104,137.84c.22-.29-.25-.63-.49-.38-2.14,2.33-5,4.83-8.4,4.25-.19,0-.27.24-.08.28C98.43,142.83,102,140.54,104,137.84Z"/><path class="cls-1" d="M149.57,77.79c-1-.63-2-1-3-1.64,0,0-.08,0,0,.07,1,.63,2,1.07,3,1.69C149.58,78,149.64,77.84,149.57,77.79Z"/><path class="cls-1" d="M158,78.09c-1.92-2.07-4.6-3.31-7-4.67a.12.12,0,0,0-.15,0,.11.11,0,0,0,0,.14,44.83,44.83,0,0,1,7,4.66.12.12,0,0,0,.12-.13S158,78.11,158,78.09Z"/><path class="cls-1" d="M162.29,69.43c-.12-.09-.28.07-.16.17,1.88,1.56,3.89,3,5.64,4.68.13.12.33-.07.2-.2C166.23,72.36,164.18,71,162.29,69.43Z"/><path class="cls-1" d="M113.48,230.21c4.68,11.43,8.73,23.08,12.56,34.82,3.62,11.06,6.38,22.71,10.87,33.45,1.74,4.16,4.49,3,7.6.82,2-1.35,3-2.47,4.64.23a61.47,61.47,0,0,1,3.29,6.6c2.13,4.65,4.47,8.76,8.36,12.15.1.09.26-.07.15-.16-6.57-5.85-8.46-14.28-13.31-21.32a.14.14,0,0,0-.17,0h0c-2,1.59-4.17,3.46-6.67,4.32-2.94,1-4.1-3.67-4.75-5.53-2.51-7.15-4.64-14.45-6.95-21.67-4.72-14.73-9.61-29.41-15.5-43.72C113.57,230.11,113.45,230.14,113.48,230.21Z"/><path class="cls-1" d="M167,323.48a.11.11,0,0,0-.14,0,.09.09,0,0,0,0,.11c5.1,8.44,9.32,17.34,14,26,.06.12.23,0,.17-.1C176.37,340.77,172.07,331.91,167,323.48Z"/><path class="cls-1" d="M193.15,64.35a4.25,4.25,0,0,0-.35.71,12.07,12.07,0,0,1-1.18-3.9c0-.11-.18-.06-.16,0a14,14,0,0,0,1.18,4.32.16.16,0,0,0,.23.07.16.16,0,0,0,.07-.07c.23-.31.28-.68.5-1S193.27,64.17,193.15,64.35Z"/><path class="cls-1" d="M193.41,62.18c0-.59-.23-1.16-.26-1.75a.11.11,0,1,0-.22,0h0c0,.59.22,1.16.24,1.75C193.18,62.34,193.42,62.34,193.41,62.18Z"/><path class="cls-1" d="M168.27,141.26a.06.06,0,0,0,.08,0s0,.07.06.07a1.29,1.29,0,0,0,.38.12.1.1,0,0,0,.11-.08.13.13,0,0,0,0-.1,1.06,1.06,0,0,0-.35-.18.11.11,0,0,0-.14.06v0h0a1,1,0,0,0-.73.1s0,.1,0,.08A1.39,1.39,0,0,1,168.27,141.26Z"/><path class="cls-1" d="M166.43,142.13c.54-.14,1.09-.26,1.64-.35.1,0,.08-.19,0-.19a6.56,6.56,0,0,0-1.64.4C166.31,142,166.34,142.16,166.43,142.13Z"/><path class="cls-1" d="M168.71,142.44c.08,0,0-.17-.07-.15a9,9,0,0,0-1.5.73c-.06,0,0,.12.05.09C167.69,142.88,168.21,142.68,168.71,142.44Z"/><path class="cls-1" d="M168.52,143.4a7.89,7.89,0,0,0-.81.44m0,.07a7.89,7.89,0,0,1,.81-.44s0-.09,0-.07Z"/><path class="cls-1" d="M168.44,144.25l-.31.19c-.09.06,0,.18.09.11l.29-.18C168.59,144.33,168.52,144.21,168.44,144.25Z"/><path class="cls-1" d="M168.72,145.54c.24-.13.46-.3.7-.43s0-.29-.13-.22-.45.31-.69.44S168.59,145.62,168.72,145.54Z"/><path class="cls-1" d="M169.73,146.23a.11.11,0,0,0,.14-.07.12.12,0,0,0-.08-.14h-.06a.11.11,0,0,0-.07.14A.08.08,0,0,0,169.73,146.23Z"/><path class="cls-1" d="M170.69,146.25a1.52,1.52,0,0,0-.33.34s0,.12.09.09a1.19,1.19,0,0,0,.34-.33C170.83,146.29,170.75,146.2,170.69,146.25Z"/><path class="cls-1" d="M172,147a.83.83,0,0,1-.13-.41.1.1,0,0,0-.12,0,.12.12,0,0,0-.05,0,1.15,1.15,0,0,0,.13.49C171.82,147.23,172,147.13,172,147Z"/><path class="cls-1" d="M173,146.72a2,2,0,0,0-.17-.47c-.08-.15-.3,0-.23.13s.14.28.22.42S173,146.83,173,146.72Z"/><path class="cls-1" d="M174.42,146.19a2.33,2.33,0,0,1-.27-.35c0-.14-.25-.08-.22.07a.54.54,0,0,0,.4.42C174.42,146.37,174.46,146.25,174.42,146.19Z"/><path class="cls-1" d="M175,145.3a.11.11,0,0,0,.08-.14.14.14,0,0,0-.08-.09.13.13,0,0,0-.15.09.11.11,0,0,0,.08.14Z"/><path class="cls-1" d="M175,144.28a3,3,0,0,0,.42.38c.09.06.22-.07.15-.16s-.24-.28-.37-.41S174.82,144.16,175,144.28Z"/><path class="cls-1" d="M175.73,143.21a1.08,1.08,0,0,0-.5-.09.14.14,0,0,0-.13.14.12.12,0,0,0,.13.12h.4C175.76,143.45,175.86,143.26,175.73,143.21Z"/><path class="cls-1" d="M175.48,142.22a.09.09,0,0,0,0,.18h0a.09.09,0,0,0,.09-.09C175.57,142.26,175.53,142.23,175.48,142.22Z"/><path class="cls-1" d="M175.82,141.38a1.1,1.1,0,0,1-.62.06c-.16,0-.24.21-.07.25a.9.9,0,0,0,.78-.09C176,141.53,176,141.33,175.82,141.38Z"/><path class="cls-1" d="M176.17,140.51a2.52,2.52,0,0,0-1.31.4c-.12.06,0,.24.11.18a5.13,5.13,0,0,1,1.23-.36C176.33,140.71,176.29,140.52,176.17,140.51Z"/><path class="cls-1" d="M229.39,136.76c-.76-.18-1.56-.13-2.33-.26a.07.07,0,0,0-.06.07.06.06,0,0,0,.06.05,10.78,10.78,0,0,0,2.33.37C229.49,137,229.51,136.79,229.39,136.76Z"/><path class="cls-1" d="M228.54,137.39a.08.08,0,0,0,.08-.08.09.09,0,0,0-.08-.08H227a.08.08,0,0,0-.07.07.07.07,0,0,0,.07.07A11.6,11.6,0,0,0,228.54,137.39Z"/><path class="cls-1" d="M228.57,138.29a.1.1,0,0,0,.07-.13.14.14,0,0,0-.07-.08,7.22,7.22,0,0,1-.93,0,.11.11,0,0,0-.07.14.08.08,0,0,0,.07.07A1.83,1.83,0,0,0,228.57,138.29Z"/><path class="cls-1" d="M228.27,139h-.35a.12.12,0,0,0-.14.08.11.11,0,0,0,.07.13h.07a.57.57,0,0,0,.42-.09.09.09,0,0,0-.05-.11Z"/><path class="cls-1" d="M228.71,139.84a2.77,2.77,0,0,0-.34.2.11.11,0,0,0,0,.15.09.09,0,0,0,.11,0,1.44,1.44,0,0,0,.31-.19C228.86,140,228.82,139.8,228.71,139.84Z"/><path class="cls-1" d="M230.23,141.49a1.35,1.35,0,0,0-.27.48c0,.11.13.16.17,0a.92.92,0,0,1,.23-.39C230.44,141.54,230.3,141.4,230.23,141.49Z"/><path class="cls-1" d="M231.22,142.18a.44.44,0,0,0,.14-.29c0-.09-.12-.13-.14,0s-.07.15-.1.22S231.16,142.24,231.22,142.18Z"/><path class="cls-1" d="M229.17,140.82l-.2.19c-.08.08,0,.2.11.12l.17-.17h0m0-.06c.08-.06,0-.15-.08-.08Z"/><path class="cls-1" d="M232.65,142.1a.87.87,0,0,1-.1-.24.07.07,0,0,0-.09,0s0,0,0,0a.39.39,0,0,0,.15.27S232.68,142.15,232.65,142.1Z"/><path class="cls-1" d="M233.67,141.55c.05,0,.07-.06,0-.09a.88.88,0,0,1-.22-.25c-.06-.09-.2,0-.14.08A.6.6,0,0,0,233.67,141.55Z"/><path class="cls-1" d="M234.39,140.3c.06,0,0-.13-.06-.1h-.13c-.07,0-.13.07-.06.1A.22.22,0,0,0,234.39,140.3Z"/><path class="cls-1" d="M234.79,139a.11.11,0,0,0-.09.1.09.09,0,0,0,.09.08.09.09,0,0,0,.09-.09S234.84,139,234.79,139Z"/><path class="cls-1" d="M235.08,138.18a.09.09,0,0,0-.11,0,.08.08,0,0,0,0,.11l.18.11a.07.07,0,0,0,.12,0v-.05s0-.11-.05-.12Z"/><path class="cls-1" d="M235.35,137.2c-.07-.07-.18,0-.11.1l.06.06c.07.07.18,0,.11-.1Z"/><path class="cls-1" d="M235.39,136.26a.13.13,0,0,0-.15.09.11.11,0,0,0,.06.13.38.38,0,0,0,.41,0,.08.08,0,0,0,0-.1l0,0Z"/><path class="cls-1" d="M235.61,136a.11.11,0,0,0,0-.21,1.39,1.39,0,0,0-.46.09.08.08,0,0,0-.1.05.07.07,0,0,0,0,.1.06.06,0,0,0,.06,0A3.44,3.44,0,0,1,235.61,136Z"/><path class="cls-1" d="M234.67,135.35a1.69,1.69,0,0,0,.55,0,.08.08,0,0,0,.07.09,1.31,1.31,0,0,0,.65-.07c.08,0,.07-.16,0-.16h-.3a2.21,2.21,0,0,0,1-.68c.1-.13-.09-.27-.22-.21a7,7,0,0,1-1.76.85C234.52,135.17,234.56,135.34,234.67,135.35Z"/><path class="cls-1" d="M108.24,201.15c-4-4.77-5.45-11.36-6.63-17.31a.07.07,0,1,0-.14,0h0c1.11,6,2.57,12.65,6.7,17.36C108.21,201.28,108.28,201.2,108.24,201.15Z"/><path class="cls-1" d="M110.87,204.39a.18.18,0,0,1-.2-.2c0-.11-.27-.17-.26,0a.46.46,0,0,0,.46.47C111,204.68,111,204.41,110.87,204.39Z"/><path class="cls-1" d="M122,139.31c.16,0,.23-.22.07-.25-6.71-1.25-4.48-8.49-4.41-13.37a.13.13,0,0,0-.09-.16.13.13,0,0,0-.16.09.08.08,0,0,0,0,.07C117.33,130.71,115.17,138.09,122,139.31Z"/><path class="cls-1" d="M123.72,144a7.22,7.22,0,0,0-1.61,1.46,2,2,0,0,0-.41,1.89,2,2,0,0,0,1.27,1c2.36.73.29,5.87,0,7.71,0,.15.2.21.23.06.55-2.49,1-5,1.51-7.5a.12.12,0,0,0-.07-.15h0c-1.57,0-2.2-1.14-1.87-3.35a9.49,9.49,0,0,1,1.89-1.43.09.09,0,0,0,0-.12c-.25-1.37-.86-1.5-2.09-2h0C123,141.91,125.67,142.88,123.72,144Z"/><path class="cls-1" d="M117.52,118.69a.51.51,0,0,0,.51.51h0a.47.47,0,0,1-.49-.47h0S117.52,118.66,117.52,118.69Z"/><path class="cls-1" d="M117.64,123.28l.49-.51c.11-.11-.07-.29-.18-.17l-.51.49C117.31,123.21,117.51,123.41,117.64,123.28Z"/><path class="cls-1" d="M117.54,112.07a.12.12,0,0,0-.08.15.09.09,0,1,0,.16-.06A.14.14,0,0,0,117.54,112.07Z"/><path class="cls-1" d="M124.4,160.73c1,2.64,2.08,5.3,3,8a.13.13,0,0,0,.16.1.13.13,0,0,0,.1-.17c-.9-2.71-1.93-5.36-3-8C124.61,160.48,124.33,160.55,124.4,160.73Z"/><path class="cls-1" d="M105,141.15c-.39,1.49-1,3.63-2.42,4.47a.07.07,0,0,0,0,.1.07.07,0,0,0,.1,0h0c1.5-.85,2.17-3,2.59-4.53a.13.13,0,0,0-.13-.13A.14.14,0,0,0,105,141.15Z"/><path class="cls-1" d="M106,139.1a10.63,10.63,0,0,0-2.54,4c-.06.17.2.23.26.07a11.1,11.1,0,0,1,2.46-3.94C106.24,139.16,106.06,139,106,139.1Z"/><path class="cls-1" d="M110,222.85a2,2,0,0,0,1.59-.56.13.13,0,0,0-.19-.19h0a2,2,0,0,1-1.4.43c-.13,0-.23,0-.23.16S109.91,222.92,110,222.85Z"/><path class="cls-1" d="M108,215.54a.17.17,0,0,0-.12.2.15.15,0,0,0,.12.11.15.15,0,0,0,.11-.19A.15.15,0,0,0,108,215.54Z"/><path class="cls-1" d="M231.6,75.13c-.07-.06-.18,0-.11.11a52.06,52.06,0,0,1,4,4c0,.06.15,0,.1-.08A38,38,0,0,0,231.6,75.13Z"/><path class="cls-1" d="M234.83,73.23c1.55,1.56,3.11,3.11,4.64,4.7.09.1.25-.06.15-.16-1.59-1.52-3.13-3.08-4.69-4.64C234.86,73.07,234.76,73.17,234.83,73.23Z"/><path class="cls-1" d="M243.11,77.28c.11.09.32,0,.22-.17-2.05-2.67-5-5.61-8.43-6.34a.08.08,0,0,0-.08.08.07.07,0,0,0,.08.08h0C238.52,71.88,240.33,75.09,243.11,77.28Z"/><path class="cls-1" d="M125.46,226c.11.09.26-.06.16-.16-1.71-1.54-3-3.46-4.78-5-.07-.06-.17,0-.1.1C122.46,222.53,123.71,224.51,125.46,226Z"/><path class="cls-1" d="M121,225a13,13,0,0,0,3,3.8c.1.11.26,0,.16-.16a18.15,18.15,0,0,1-3-3.7C121.05,224.84,121,224.9,121,225Z"/><path class="cls-1" d="M120.72,230.76a12.21,12.21,0,0,0,2.25,2,.12.12,0,0,0,.17,0,.13.13,0,0,0,0-.17h0a21.2,21.2,0,0,1-2.24-2C120.77,230.54,120.63,230.67,120.72,230.76Z"/><path class="cls-1" d="M241.32,202.59a.11.11,0,0,0-.1.11.09.09,0,0,0,.1.09c9.1,2.69,4.59,10.55,2.24,16.32-.45,1.11-.33,1.25.23,2,1.78,2.35,1.4,4.53,1.91,7.14,0,.2.33.12.29-.08-.34-1.89.33-4.87-1.06-6.47-2.76-3.16,2.45-6.87,2.72-10.27C248,206.82,245.77,203.71,241.32,202.59Z"/><path class="cls-1" d="M263.73,258.54c-7.7-4.07-15.34-8.31-23-12.37a14,14,0,0,1,1.08-1.25.94.94,0,0,0,.27-.52,13,13,0,0,0,2-3.65,26.53,26.53,0,0,0,2.43-4.36c1.54-3.68-1.82-7.95-4.4-10.18-1.55-1.35-2.23-.67-1.81-3.09.62-3.54,2.48-6.32,3.6-9.66,1.22-3.59-.58-6.58-3.25-8.52a9.19,9.19,0,0,1-.43-1.07,9.6,9.6,0,0,1,.91-7,.34.34,0,0,0,0-.34l1.65-3.7a35.9,35.9,0,0,0,1.48-4.07c.28-.62.56-1.25.8-1.87,2.16-5.47,3.44-11.32,5-17a38.29,38.29,0,0,0,1.65-13.58c-.32-3.77-1.58-7.43-2.7-11.07a48.25,48.25,0,0,1-.69-7c-.08-6,1.35-12.16,2.59-18,.76-3.57,1.4-7.16,1.84-10.72l.06-.08a68.84,68.84,0,0,0,4-10.59c1.08-3.17,2.9-5.87,3-9.27a6.5,6.5,0,0,0-2.7-4.77c-1.63-1.22-3.45-2.1-5-3.45A6,6,0,0,1,251,79.7c1.52-4.49,8.35-9.34,5.07-14.22-2-3-5.35-4.46-7.39-7.38a17.87,17.87,0,0,1-2.58-5.71c-.18-.88-.36-1.76-.56-2.63-.42-2.4-.6-4.88-.88-7.33a1.35,1.35,0,0,0-.64-1,20,20,0,0,0-3.69-5.5c-3.72-10-8.91-19.3-17.17-25.54a39.59,39.59,0,0,0-14.76-6.9C202.31,1.37,194.78,2,188.8,2.61A58.56,58.56,0,0,0,176.68,5.4c-2.25.69-4.46,1.48-6.61,2.34a55.53,55.53,0,0,0-20.37-7A61.23,61.23,0,0,0,135.26.2c-2.82.2-5.7.5-8.58.9-25.57,1-50.82,18.6-68.47,35.47-7.81,7.46-14.49,15.9-14.75,27-.08,3.37.53,9.11.15,14.41-2.24,5.7-8.12,10.3-11.36,15.19-4.24,6.41-4,14.92-2.85,22.15A38,38,0,0,0,33,126.62c1.73,3.44,4.48,6.32,6.39,9.67,2.82,4.94-2.24,6.55-4.79,9.68-1.86,2.29-.93,4.73-1,7.22a.44.44,0,0,0-.27.35c-1,5.07-7.26,11.28-4.21,16.76a10.21,10.21,0,0,0,1.45,2,11.25,11.25,0,0,1-.95,1.21c-5.5,3-12.45,2.17-17.71,6-3.26,2.38-5.19,6-6.27,9.92a20.15,20.15,0,0,0-1.06,4.78,20.78,20.78,0,0,0-.12,4.17A18.9,18.9,0,0,0,12,213.17l.12.08c.33.3.65.6,1,.89C15,215.8,17,217.34,18.91,219c4,3.61-.13,6.42-2.39,7.74a28.65,28.65,0,0,1-3.26,1.45,19.34,19.34,0,0,0-4.45,2.52.39.39,0,0,0-.17.14A4.48,4.48,0,0,0,7,234.42a3,3,0,0,0,.06.73,3.22,3.22,0,0,0,.21,1.23,6.18,6.18,0,0,0,2.45,3.8c2.7,3.68,7.74,6.26,11.92,6.9.55.09,1.13.15,1.72.2-7.84,3.83-15.22,8.55-23.22,12-.23.1-.06.51.18.42,7.34-2.85,14.34-6.32,21.44-9.64,6.49,2.12,12.82,3.7,17.71,9,.15.17.39-.08.25-.25-4.63-5.37-11.16-6.92-17.63-8.87,1.57-.73,3.15-1.46,4.74-2.17,5.27,1,10.89,2.73,15,6.26a9.39,9.39,0,0,1-.46,2.24c-4.5-3.83-10.1-6.55-16.07-6.67a.08.08,0,0,0-.08.08.07.07,0,0,0,.08.08c5.93.28,11.48,3.14,15.89,7-1,2.8-2.82,5.67-2.93,8.55a11.26,11.26,0,0,0,4.32,9.25c3.1,2.64,7.21,3.94,10.89,5.55a21,21,0,0,1,10.46,9c-.25,3.7-2,7.68-2.29,11.54-.66,7.68,2.65,13.82,5.65,20.65.14.32.68.09.56-.23-2.19-6-4-11.09-4-16.83a.35.35,0,0,0,.43-.26s0,0,0-.05a4,4,0,0,1,.16-.75,13.39,13.39,0,0,0,.64,3.08.45.45,0,0,0,.59.24.46.46,0,0,0,.27-.47c-.92-3.4-.32-6.51.59-9.62C72.29,312,80.07,327,88.33,341.32c.16.27.53,0,.41-.24-3.29-7.6-7.14-15-10.76-22.41a.59.59,0,0,0,.37.06,33,33,0,0,1,15.07,1.64.6.6,0,0,0,.38.51l1.14.47c-.25,1.45-3.5,5.32-3.85,5.79a21.75,21.75,0,0,0-3,5.6c-.14.37.25.61.56.56,2.25-.32,16.25-.35,12,3.34-3.57,3.1-7.07,6-9.12,10.38a.35.35,0,0,0,.15.49.29.29,0,0,0,.16,0c5.58,0,10.48.67,15.18,3.91.33.22.61-.3.3-.52-3.77-2.82-7.81-3.78-12.45-4.05-4.3-.24,0-3.88,1.57-5.57,2-2.1,4.31-3.9,6.5-5.8,5.67,10.79,11.77,21.4,16.23,32.77.16.42.84.24.68-.18-4-10.51-9.06-20.51-14.2-30.49-2.54-4.93-4.91-9.91-7.21-14.92a97,97,0,0,0,25.13,4.82c5.42,4.64,11.5,9.12,17.84,11.53.41.16.61-.45.28-.67l-1.17-.79c.45,0,.71-.29,1.18-.32.3,0,.55.29.7.52a3.18,3.18,0,0,1,.16,2.85c-.09.21.21.33.35.21a3.37,3.37,0,0,0,.64-4.06,2.16,2.16,0,0,0-1.72-1.11,2.68,2.68,0,0,0-.85.1,4,4,0,0,1,1.65-1c1.09-.36,2.5,0,3.63-.07a7.53,7.53,0,0,0,2.27-.63c1.14-.42.84,2.3.56,3.7a.52.52,0,0,0-.33.61,1.68,1.68,0,0,0,.11.4.24.24,0,0,0,0,.12c.1.34.12.58-.54.85a.54.54,0,0,0-.37.49c0,2.09-.32,4.15-.18,6.25a.18.18,0,0,0,.19.19.19.19,0,0,0,.19-.19c.08-.8.21-1.59.34-2.38a24.36,24.36,0,0,0,4.32-.72,5.17,5.17,0,0,1,1.84,0c.21,0,.15.84.16,1.05a1.57,1.57,0,0,1-.77,1.58c-1.28.72-5.43-.18-5.89,1.59a.34.34,0,0,0,.15.36c.69.39,1.87-.16,2.62-.25a21.55,21.55,0,0,0,3-.36c2.21-.54,2.3-2.71,1.87-4.57a.58.58,0,0,0-.41-.41c-2.41-.59-4.52.84-6.8,1.31a30.28,30.28,0,0,0,.38-3.16,1.5,1.5,0,0,0,.95-1.91l0-.09a5.69,5.69,0,0,0,.44-1.08,1.11,1.11,0,0,0,.31-.48,28.9,28.9,0,0,0,1.68-2.78c.21-.37-.31-.79-.6-.46a8.91,8.91,0,0,0-1.08,1.59c0-1.79-.77-3.32-2.79-2.55-2.74,1.05-7.76-.2-8.15,4a.15.15,0,0,0,.15.16V337a.41.41,0,0,0,0,.22c-4.57-3.07-9-6.13-13.25-9.47,3,.14,6,.18,8.87.14a.31.31,0,0,0,.25-.36.32.32,0,0,0-.25-.25c-3.53-.12-7-.38-10.45-.8-2.25-1.81-4.46-3.7-6.62-5.73-7.73-7.26-14.28-15.55-20.68-24A308.35,308.35,0,0,1,69.41,253c-.32-.85-.63-1.71-.94-2.56,1.45-3.26,2.4-6.47,1.46-9.53a25,25,0,0,1,6.34-12.54c1.12-1.24,2.25-2.45,3.38-3.66A13,13,0,0,0,82.41,226a12.5,12.5,0,0,0,2.23.69c-3.47,4.53-7.26,8.94-7.41,14.83a.24.24,0,0,0,.28.19.23.23,0,0,0,.19-.19c.42-6,4.6-10.15,8-14.76l.39-.06a33.73,33.73,0,0,0-1,3.8c0,.12.16.17.19,0a53.39,53.39,0,0,1,1.81-5.3l.43-.83a.17.17,0,0,0,.09-.16c4.76-9.26,7.89-19.89,7.51-30.35.7-2.14,1.63-4.19,2.45-6.3,1.19-3.1,1.09-5.74.93-9a.37.37,0,0,0-.07-.14,5,5,0,0,0,.4-.76c1.7-2,.66-5.35,1.57-7.66,0-.09-.12-.16-.17-.07A16.05,16.05,0,0,0,99,174.72a.27.27,0,0,0-.15.21c-.46,5.28-5.22,5-9.72,3.57a.35.35,0,0,0-.2-.18c-5.1-1.66-8.4-7.54-12-11.25-3.2-3.3-6.48-6.3-9.36-9.78A41.77,41.77,0,0,1,63,145.52a71.11,71.11,0,0,1,.31-8.08,20,20,0,0,1,7.08-11.23.63.63,0,0,0,.25-.36c4.27-.7,9.45,2.6,12.19,5.12,1.9,1.75,3.67,3.6,5.61,5.3,1.64,1.44,4,2,4.41,4.36.1.53.88.3.8-.22v-.26a4.89,4.89,0,0,0,2,.39c2.31.06,5-1.54,6.65-3a7.56,7.56,0,0,0,2.42-4.36c2.2-1.72,4.67-3.23,6.07-5.71a.14.14,0,0,0-.05-.18.14.14,0,0,0-.18,0c-1.41,2.36-3.67,3.86-5.77,5.53a20.81,20.81,0,0,0,.31-3.26c2.39-2.1,4.81-4.14,7.31-6.11a19,19,0,0,1-4.36,9.78.19.19,0,0,0,0,.26.18.18,0,0,0,.26,0h0c4.44-4.36,5-9.92,5.38-15.72h.06c.11,0,.06-.22,0-.25,0-.88.09-1.76.15-2.65l.14-.09c.16-.09,0-.31-.12-.26a49.69,49.69,0,0,1,9-25.73,49.91,49.91,0,0,1,9.47-8.29c6.37-4.33,13.4-6.15,20.6-8.07,2.21,2.09,4.76,3.79,7,5.8a.1.1,0,0,0,.16,0,.12.12,0,0,0,0-.16c-2.06-2.19-4.71-3.74-7-5.69l2.72-.73c2.9,1.58,5,4.14,7.26,6.45-3,.82-6.51.53-10.11.15h-.29a7.74,7.74,0,0,1-2.91-2.15.11.11,0,0,0-.18.14A7.11,7.11,0,0,0,152,78.22c-6.41-.63-11.94-.59-18,2.25-.12,0,0,.23.1.17,7.45-3.27,14.29-2,22-1.13,3.85.42,8.22.49,11.31-2.24,5.91-5.19,7.21-13,14-16.53l.49,0a43.17,43.17,0,0,0,6.41.69,17.45,17.45,0,0,0,.42,3.07c-1.31-1-2.5-2-3.09-2.4-2.06-1.41-3.92-1.91-5.78,0a.1.1,0,0,0,0,.14.09.09,0,0,0,.14,0c3.67-2.43,6.37,1.77,9.35,3.72l.17.3a.2.2,0,0,0,.29,0,.08.08,0,0,0,0,0,4.48,4.48,0,0,0,.58.29,4.88,4.88,0,0,0,.64.23c.07.22.13.44.21.66a.18.18,0,0,0,.22.13.19.19,0,0,0,.13-.23h0a2.46,2.46,0,0,0-.09-.44,2.72,2.72,0,0,0,2.54-.4c2.21-2.14.88-5.83,1.55-8.64a.9.9,0,0,0,.4,0,11.17,11.17,0,0,0,5.64,1.49c.92,1.55,1.41,3.31,2.37,4.84.13.21.47,0,.33-.2-1-1.46-1.47-3.15-2.36-4.65a11.66,11.66,0,0,0,2.28-.29,16.23,16.23,0,0,0,2.93,7.23c-4-2.11-7.29-5.4-11.41-7.38-.25-.12-.48.25-.22.38,6.83,3.62,12.12,11.48,20.77,10.18,2.44-.36,4.83-1.87,7.22-3.23.13.1.36,0,.31-.18,2.52-1.42,5-2.64,7.62-2.14a26.4,26.4,0,0,1,6.31,2.31c.29.27.59.53.88.78a22.08,22.08,0,0,0,3.1,3.09,6.62,6.62,0,0,0,1.92,1.12h0a7.48,7.48,0,0,0,.83,2.1,1.15,1.15,0,0,1-.07.48c-1.95-.3-3.49-1.68-5.11-2.78-.08-.06-.16.07-.08.13,1.65,1.13,3.18,2.49,5.11,3-.36,1.44-1,2.85-.62,4.26a8.38,8.38,0,0,0,2.91,4.32,19.71,19.71,0,0,1,4.07,4.85,66.75,66.75,0,0,1,1.18,9.65c.5,9.57-2.08,18.65-3.83,28a58.47,58.47,0,0,0,.26,23.24c1.14,5.65,1.86,11,1,16.73-.11.81-.27,1.61-.44,2.41-.45,1.7-.94,3.38-1.39,5-.28,1-.57,2-.85,3-.25.81-.49,1.63-.73,2.44a.25.25,0,0,0,0,.17c-.24.83-.48,1.66-.73,2.48a.18.18,0,0,0,0,.08.65.65,0,0,1-.07.35c-.53,1.76-1.05,3.52-1.59,5.27-1.15,3.69-2.9,7.45-4.07,11.21-1.68,3.66-3.52,7.26-5.38,10.85a88.36,88.36,0,0,0-6.72,13.58,79.66,79.66,0,0,0-4.53,12.7c-.65,1.69-1.14,3.45-1.68,5.2-.05.15-.1.3-.14.46a2.14,2.14,0,0,1-.11.31c-.39.91-.77,1.82-1.15,2.73-.68,1.13-1.37,2.27-2.09,3.38A21.21,21.21,0,0,1,201,255a30.78,30.78,0,0,1-14.09-3.54.94.94,0,0,0-.42-.34l-.68-.26c-.8-.46-1.57-1-2.32-1.43a69.45,69.45,0,0,0-14.34-9.1.09.09,0,0,0-.11,0,.08.08,0,0,0,0,.11h0a63.82,63.82,0,0,1,6,4,.12.12,0,0,0,0,.16,9.14,9.14,0,0,1,1,1.63.17.17,0,0,0,.06.1l.36.69a77.49,77.49,0,0,0-10.8-3.75,83.73,83.73,0,0,1-21-8.35c-12.18-6.81-22.12-16.6-30.72-27.48a.11.11,0,0,0-.18.14,112.24,112.24,0,0,0,28.86,27.77,70,70,0,0,0,19.16,8.9c3.87,1.09,7.76,2,11.56,3.25s7.26,3.47,11.09,4.7c1,.83,2,1.65,2.95,2.46,2,2.36,3.94,4.52,6.76,4.74a4.53,4.53,0,0,1-3,.65,6,6,0,0,1-2.9-2.33c-1.35-1.63-2.37-3.53-4-5-.12-.11-.31.07-.19.19,1.58,1.55,4,6.42,6.75,7.72a7.28,7.28,0,0,1-3.25-.21c-3.91-1.13-6.19-5.55-7.66-9,0-.09-.19,0-.16.07,2.11,5.84,7.26,11,12.7,9.72a17.92,17.92,0,0,0-1.82,2.27c-2.28,3.37-2.45,7.9-4,11.6-.08.19.25.33.33.15,1.51-3.39,2.17-7.09,4.06-10.31,1.49-2.51,4.16-3.48,6.33-5-12.74,26.26-26.25,51.93-45.06,74.49-.21.26.14.62.36.37,17.48-19.61,31.58-42.37,42.87-66.15,4,4,7,8.87,10.46,13.37-.09.61-.17,1.21-.26,1.81-1.35,8.72-2,17.51-3.1,26.26-1.12,9.38-3.65,18.41-5,27.73-1.17,7.91-2,16.54-6.89,23.15-.2.27.26.62.47.36,4.47-5.3,5.87-12.33,7.11-19,1.77-9.51,4.26-18.84,5.72-28.4.78-5.12,1.35-10.25,1.93-15.39a.43.43,0,0,0,.18.15c3.11,1.41,6.25,2.73,9.3,4.28a31.34,31.34,0,0,1,5.8,3.87c1.64,1.38,3.57,2,.69,2.3-4.95.56-10.18,2.2-14.11,5.33-8.17,6.52,7,11.64,12.23,14.45-5.88,1.63-12.13-.18-17.85,2.66a.6.6,0,0,0-.2.82.61.61,0,0,0,.34.25c4.67,1.7,7.89,5.56,11.94,8.3.46.3.84-.41.42-.72-2.36-1.79-4.45-3.87-6.71-5.78-1.41-1.19-5.51-2-2.48-3,5.13-1.77,10.75.09,15.93-1.73a98.49,98.49,0,0,1-4.14,15.3c-.09.25.3.36.39.11,4.2-11.24,6-23,6.79-34.91h0a.67.67,0,0,0,.56-1c-.15-.2-.32-.38-.47-.58.18-3,.3-5.9.38-8.86h0a.2.2,0,0,0,.29,0,.2.2,0,0,0,.07-.25l-.36-.71v-1.37c.09-4.06.1-8.13.1-12.19a9,9,0,0,1,1.21-1.1c1.85-1.36,5.08-.75,6.65-2.59,2.77-3.25-.12-5.62-3.47-6-4.75-.57.75-.21,2.25-.07,1.89.18,4.3.73,6.12-.06,4.49-1.95,4.7-6.45,3.13-10.35a1.24,1.24,0,0,0-.7-1.49l-.29-.52a1.85,1.85,0,0,0-2-.81,8.2,8.2,0,0,1-4,0,8.52,8.52,0,0,1,.89-1.43,19.1,19.1,0,0,1,2.64-2.09,7.71,7.71,0,0,0,2.12-2.49,4.15,4.15,0,0,0,.24-3c-.65-2.38-.87-4-.29-5.59a172.76,172.76,0,0,0,23.75,11.32C263.84,259.37,264.1,258.73,263.73,258.54ZM154.5,70c.72-.32,1.43-.66,2.14-1a21.26,21.26,0,0,0,4.3-3,.65.65,0,0,0,0,.51c-1,.68-2.07,1.32-3.07,1.94a.4.4,0,0,0-.08.55l0,0h0C156.67,69.34,155.58,69.69,154.5,70Zm-43.22,40.75c.08-.2.17-.41.26-.61A.64.64,0,0,1,111.28,110.76ZM92.46,137.6a6.07,6.07,0,0,0,4.38.59A4,4,0,0,1,92.46,137.6ZM82,127.71l-.52-.38c.26.09.51.17.77.24-.06.07-.12.13-.17.2Zm15,59.64-.27.82a10.55,10.55,0,0,0-2,.46c-.06-.4-.13-.81-.21-1.21a6.26,6.26,0,0,0,2.44-.56c.19-.1.06-.44-.15-.36a10.08,10.08,0,0,1-2.35.57q-.16-.82-.36-1.65a5.34,5.34,0,0,0,3.42-.1,19.4,19.4,0,0,1-.59,2Zm-7.31,27.43a.2.2,0,0,0-.28,0,.16.16,0,0,0-.06.08c-.14-.16-.27-.33-.4-.5s-.5,0-.35.2a5,5,0,0,0,1.13,1.33.26.26,0,0,0,.36-.07c-.17.56-.35,1.11-.54,1.66a5.29,5.29,0,0,0-1.18-.67c-.39-.22-.77-.48-1.15-.72a53.21,53.21,0,0,0,3.37-4.77c.27-.22.54-.43.82-.62h0c-.35,1.65-.76,3.29-1.26,4.92a1.69,1.69,0,0,0-.49-.82Zm-18.32,10.9a1.65,1.65,0,0,0-.7,0c2.74-2.88,6.16-5,9.49-7.55a45.61,45.61,0,0,1-6.62,5.72,15.48,15.48,0,0,0-2.2,1.83ZM252.67,84.9v-.07l.08.08ZM136.23,74.46a1.18,1.18,0,0,0-1-.65l1.09-1c5.85-2,12.61-3.64,17.46-7.51,3.74-3,8.06-8.35,13.06-9.36-3.11,2.31-5.37,5.79-8.19,8.53C152.88,70,143.79,71.78,136.23,74.46ZM66.61,125.55h0l.37-.22ZM92.8,198.71h0c0-.52-.06-1-.07-1.56a3.1,3.1,0,0,1,.11-.51C92.81,197.32,92.81,198,92.8,198.71ZM17.66,212.78c-2.68-2.31-5.33-4.6-7.25-7.7-3.93-6.37-3.76-16.6,3.14-20.83A11.66,11.66,0,0,1,20,183a22.12,22.12,0,0,0-3.2,2.83c-4.52,4.88-5.44,12.4-3.51,18.57a12.9,12.9,0,0,0,4.42,6.2c3.63,2.79,8.78,4.15,9.16,9.49a5.57,5.57,0,0,1,0,1C25.84,218.08,21.58,215.19,17.66,212.78ZM190.54,5.46h.21c1.23,0,2.38,0,3.4.06,1.3,0,2.62.13,3.95.26l-.95.24c-3.93,1.06-7.74,2.42-11.71,3.37-2.64.64-5.34,1-8,1.55a3.72,3.72,0,0,0,.25-.82c1.45-2.41,4.2-3.6,7.21-4.17C186.87,5.71,188.8,5.59,190.54,5.46ZM64.19,117.79c-6.34.57-12.64-.68-18.85-.65,8.5-1,17.25-.43,25.7-1.92a55.67,55.67,0,0,0,12.23-3.7A44.36,44.36,0,0,1,64.19,117.79ZM65.41,244.7c-.21-.45-.41-.9-.61-1.34l.18-.73c.17.56.35,1.11.52,1.66ZM46.68,164.09c-.08-4.63,1.51-7.58,3.7-10.57l.31-.25c-.44,3.81-1,7.6-1.72,11.46-.48,2.59-.84,6-1.67,9.07C47,170.57,46.74,167.34,46.68,164.09Zm12.47.91a15.66,15.66,0,0,1-1.38,4.45,1.35,1.35,0,0,0-.18.36,32.62,32.62,0,0,1-6,8c.42-1,.87-2,1.4-3,2.32-4.49,4.74-8.91,5.87-13.88.06-.26.11-.54.17-.81a13.63,13.63,0,0,1,.12,4.89Zm8.28-.34c1.49,2.81,2.31,5.65-.89,7.92A20.53,20.53,0,0,1,64,174.15V174c3-2.58,4.49-5.31,3.46-9.35ZM73,187.12c2,6.31-5.16,7.15-9.29,9.38-7.33,4-15.68,9.18-14,18.69.79,4.5,3.94,8.44,5.15,12.85.77,2.81-.85,6-1.71,8.62h0c0-.06-.06-.13-.08-.19A36.12,36.12,0,0,0,49.87,224c-3.3-7.44-8.91-16.7-.48-23.12,4.61-3.52,10.59-4.53,15.1-8.39a9.88,9.88,0,0,0,.81-.78,11.24,11.24,0,0,0,5-3.45,14.79,14.79,0,0,0,2-3A14.25,14.25,0,0,1,73,187.12Zm-5.21-.29a1.54,1.54,0,0,0,.36.27,7.56,7.56,0,0,1-.65.82,7.13,7.13,0,0,0,.32-1.09Zm-24.38-3.35a11,11,0,0,1-.08,6.44,20.51,20.51,0,0,1-2.89,3.54,7.27,7.27,0,0,1-2.67.89,26.51,26.51,0,0,0,2.32-4.13c2-5.18,1.93-10.09-2.73-13.58a1,1,0,0,0,.11-.17c2.84,1.54,4.58,4.16,6,7Zm-8,15.81a1.83,1.83,0,0,0,.44.35c-.21.35-.41.7-.58,1.06a5.65,5.65,0,0,1,.16-1.41Zm1.81,15.62v-.73c.06.31.12.62.19.93Zm.42-19.28c-.28.09-.55.19-.82.3l.23-.38h.78Zm2.19,26.54c-.11-.17-.23-.33-.34-.49h0a1.12,1.12,0,0,0,.17-.2c.11.22.21.44.31.66ZM34,193.47a21.06,21.06,0,0,1,2.27-5,16.51,16.51,0,0,0,2.14-5.25C38.39,186.69,36,190.15,34,193.47Zm19.24-5.34c2.37-2.43,5.18-4.38,7.5-6.81a1.55,1.55,0,0,0,.3-1.74l.82-.46c-.24,7.32-6.53,9.89-12.44,12.8,1.27-1.22,2.52-2.49,3.77-3.79ZM41.05,205.66c1.84-8.22,10.31-10.56,16.42-14.67,4.22-2.84,7.26-7.33,5.37-12.41l.7-.35c.89,4.1,1.51,8.39-1.53,11.81-2.13,2.4-5.78,3.7-8.62,5-5,2.29-9.15,4.73-11.1,10.13-1.74,4.81.35,10.22,2.55,14.48a81.36,81.36,0,0,1,4.93,10.69C45.07,222.64,39,215.18,41.05,205.66Zm1.29-29.36c-.07-.09-.15-.16-.22-.25h.16Zm-5.37-5a5.83,5.83,0,0,1-.17-3.67,12.48,12.48,0,0,0,.17,3.71Zm-7.6,24.35a26.13,26.13,0,0,0,0,4.51,9.82,9.82,0,0,1,.08-8,16.21,16.21,0,0,1,2.6-3.87,20.72,20.72,0,0,0-2.68,7.4Zm8.9,40.14c-3.76-2.29-9.21-2.44-12.49-5.45,5.13-.88,9.89,1.83,13.34,6ZM58.2,254.21a30.17,30.17,0,0,1-.16-4.66c.2-4,2.56-6.9,5-9.8a43.06,43.06,0,0,1-1.54,6.65C60.39,249.28,58.81,251.45,58.2,254.21Zm.77-14.1c-.08.1-.15.21-.22.31a38.79,38.79,0,0,1,2.78-3.5C60.7,237.94,59.81,239,59,240.11Zm-2.8-22.17a15.14,15.14,0,0,0,.36,3.15c-2.34-5.21-5.13-9.77-.19-15.11,3.79-4.09,9.78-6.82,14.88-8.86,2.73-1.09,5.08-3,5.34-6.14a14,14,0,0,0-1.91-7.72,20.17,20.17,0,0,1,4.51,7.26c2.66,8.27-10.14,10.22-15.23,13s-7.79,8.87-7.79,14.42Zm-3.8-50.39c-.7,1.5-1.55,3-2.41,4.64.48-1.66.84-3.24,1.18-4.47,1.58-5.88,3.25-12,3.59-18.15.24.66.53,1.32.81,2l.3.69C56.32,157.43,54.41,163.23,52.37,167.55ZM40,162.4a101,101,0,0,0,1.64,10.83C38,172.42,39,165.75,40,162.4Zm-5.48,17.44a15.94,15.94,0,0,1-3.75,5.55c-2.81,2.93-4.91,6-5.53,10.05-.52,3.4,1.18,6.86,2.24,10a13.56,13.56,0,0,1,.5,2.07c-1.43-2.37-3.24-4.69-4.88-7C17,192,28.15,185.72,34.49,179.84ZM16.16,232.15a.89.89,0,0,1-.06.39h-.19A2.34,2.34,0,0,1,16.16,232.15Zm13,5.2-1.08-.68.29.09c2,.6,3.91.89,5.77,1.44-1.59-.37-3.26-.61-4.94-.85Zm17.42,8.94c-1-7.62-6.31-15.29-13.15-18.24a13.24,13.24,0,0,1,9.65,3.09,13.61,13.61,0,0,1,2.16,4.09c1.07,3.25,2.79,9.15,1.88,13.38a20.86,20.86,0,0,0-.5-2.32ZM60,259.18l-.21-.88a.57.57,0,0,0,.23-.15c.42-.41.82-.82,1.21-1.25a12.42,12.42,0,0,0-.55,2.75A1.09,1.09,0,0,0,60,259.18Zm-.84-2h-.24a.6.6,0,0,0,.23-.44c.35-4.61,4-8.18,5.45-12.57l.63,1.4a28.7,28.7,0,0,1-6.07,11.6Zm6.18-15.89a3.53,3.53,0,0,1,.16-.7,9.18,9.18,0,0,1,.49,1.06,6.87,6.87,0,0,1-.16,1.08Zm-.77-12.71v.78a9.64,9.64,0,0,1-.53,1.18c.2-1.92.26-3.88.35-5.84a1,1,0,0,0,.32.12,18.84,18.84,0,0,0-.14,3.75Zm24.23-33a16.14,16.14,0,0,1-6.34,9.82c-2.68,1.84-11.22,5-16.22,9.18.2-.45.42-.88.66-1.31C69.53,208.62,74.82,209,79,207a19.21,19.21,0,0,0,7.19-6.38,14.66,14.66,0,0,0,2.62-5.52,1.43,1.43,0,0,1,0,.46ZM81.64,201c-3.17,3.79-7.63,3.36-11.53,5.63A15.31,15.31,0,0,0,63.89,213c-3,5.78-.42,13.18-1.08,19.38a38.48,38.48,0,0,1-3.8,3.86,22.29,22.29,0,0,0,1.48-5c.74-4.37-1-8.9-1.18-13.25-.57-12.65,13-11.55,19.91-17.52,5.56-4.81,4.68-11.23,1-16.94a46.45,46.45,0,0,0-3.82-4.91,25.34,25.34,0,0,1,5.86,4.65C87.29,188.88,86.17,195.56,81.64,201Zm-21.83-28.1c-.3.28-.6.58-.9.91a1.63,1.63,0,0,0-.29,1.66l-.4.51-.31.35c-2.36,2.63-5.37,4.65-8.22,6.79.07-.26.15-.51.23-.76a55.78,55.78,0,0,0,8.93-9.43A1.33,1.33,0,0,0,59.81,172.91ZM43.54,160.19a34.79,34.79,0,0,0-.36,6.91A59.79,59.79,0,0,0,41.11,161l2.73-2.15C43.73,159.29,43.62,159.73,43.54,160.19Zm-8.85,6.93a7,7,0,0,0-.46,2,6,6,0,0,1-.48-2.68L35.84,165a11.36,11.36,0,0,0-1.15,2.11Zm-7.07,15.37C24,185.58,20.51,188.66,19,194c-2.17,7.58,6.2,12.14,9.07,18.13a10.76,10.76,0,0,1-.13,1.26,15,15,0,0,0-3-2.85c-4-2.86-7.42-4.45-8.78-9.58a15.24,15.24,0,0,1,4.43-14.78,17.89,17.89,0,0,1,7.06-3.7ZM14.55,237.4a2.36,2.36,0,0,1,.09-.91,23.31,23.31,0,0,0,6.9,3.33c4.21,1.18,8.48,1.4,12.75,2.23A13.58,13.58,0,0,1,43,247.43a2.83,2.83,0,0,0,.08.4c-4.36-3.11-10.8-4-15.62-5A63.79,63.79,0,0,1,14.55,237.4ZM51,250.27c1.49,8.43,5.29,16.43,8.9,24.32-4-3.25-7.59-7.41-9.08-12.19C49.51,258.29,50.85,254.25,51,250.27Zm37.42-63.74c.06.42.12.85.17,1.27A20.88,20.88,0,0,0,86,182.29c-.13-.18-.26-.37-.4-.55a18.38,18.38,0,0,1,1.51,2,14.44,14.44,0,0,1,1.3,2.79ZM58.77,149.75l.31-.08v.15a1.32,1.32,0,0,0,.36.53c.13.78.29,1.56.48,2.35C59.57,151.72,59.16,150.74,58.77,149.75Zm.72-7.76h-.05l.06-.05a.15.15,0,0,1,0,.07ZM50,141.21l-.48-.1a1.91,1.91,0,0,0-1.61-.51c-1.1-.44-2.14-1-3.2-1.54v-.38a13.66,13.66,0,0,0,9,1.66,11.62,11.62,0,0,0,4.41-1.74A9.46,9.46,0,0,1,50,141.21ZM243.62,55.33h0v-.09a3.91,3.91,0,0,0-.14-.76.77.77,0,0,0,.1.26C243.62,54.83,243.59,55.14,243.62,55.33ZM200.91,56c-.09,0-.24-.06-.44-.09l.19-.1c3.17-.26,6.22-1.75,9.17-3.24a20.46,20.46,0,0,1,7.35-2.6,33.87,33.87,0,0,0-5,2.51,28.19,28.19,0,0,1-6.8,3.15,17.72,17.72,0,0,1-3.55.4A3.11,3.11,0,0,1,200.91,56Zm-33.58-6.43a36.75,36.75,0,0,1,8.95.37A29.9,29.9,0,0,1,183,51.4h-.26C177.56,50.8,172.51,49.82,167.33,49.52ZM128.5,71.63c-5.67,6.57-13.13,14.56-21.92,17a2,2,0,0,0-1.24.23,22.91,22.91,0,0,1-7.29-.57c9.49.46,21.13-9.81,27-15.65a77.3,77.3,0,0,1,9.92-8.4C132.67,66.69,130.55,69.25,128.5,71.63ZM51.7,88.07a26.75,26.75,0,0,1,10.48-5.13A44.7,44.7,0,0,0,44.66,95.6a14,14,0,0,0-1,1.06c-3.12,3.26-6.77,7.54-8.27,12.17C34.83,100.69,46.18,92.61,51.7,88.07ZM196.51,51v-.27c3.42-4.2,11.83-6.93,15.46-7.91a11.8,11.8,0,0,1,9.93,1.55c-9.33-1.31-17.3,2.2-25.39,6.58Zm-48.93,0a75,75,0,0,0-19.25,12c-6.72,5.65-11.53,13-18.87,18l-.09.08a31.45,31.45,0,0,1-6.66,3.58c1.47-1.16,2.92-2.36,4.32-3.59a16,16,0,0,0,5.94-4,.53.53,0,0,0,.69,0c4.34-3.71,6.69-8.79,9.59-13.59,4.22-7,12.13-11,19.53-13.7,6.95-2.5,14.65-4.7,22-4.83a61.19,61.19,0,0,1,8.56.4L172,45.28c-8.21-.43-16.91,2.43-24.42,5.57ZM223.29,30l.21.23q-1.14-.36-2.28-.63c.65.09,1.35.22,2.06.39Zm-126,55.63a8.9,8.9,0,0,1-2.06-.29A27.76,27.76,0,0,0,99,83.92Zm-7.66-43a14.42,14.42,0,0,1,3.06-2.93.9.9,0,0,0,.43-.18c.25-.21.52-.4.78-.6a4.17,4.17,0,0,1,.73-.41c-.79.68-1.57,1.37-2.32,2.08a27.83,27.83,0,0,0-2.91,3.23L88,44.46A13.87,13.87,0,0,0,89.63,42.62ZM217.11,26.49a30.57,30.57,0,0,0-7,1.76A39.17,39.17,0,0,0,205.38,31a30.75,30.75,0,0,0-6.47,4c-4,2.32-7.65,4-8.44,2.48a.59.59,0,0,0-.23-.24A30,30,0,0,0,196,34.59C201.43,31.94,210.25,25.89,217.11,26.49ZM112.29,73.19c1.3-1.57,2.55-3.19,3.8-4.81a46.78,46.78,0,0,1-3.42,5.25A2,2,0,0,0,112.29,73.19ZM226.67,40c-.74-.28-1.47-.61-2.2-.93a5,5,0,0,1,2.24.93Zm-33.49.31.45-.12c-.12.13-.23.27-.34.4a2.33,2.33,0,0,1-.11-.28Zm-61.31-.37a85,85,0,0,0-24.46,15.88c1.49-2.69,2.89-5.43,4.37-8.1,8.06-7.55,18.84-11.79,29.88-13A74.9,74.9,0,0,1,155,34.42l.61.33-.64.09A64.67,64.67,0,0,0,131.87,39.89Zm-29.44-.31a1.64,1.64,0,0,0,.29-.35,42.08,42.08,0,0,1,13.73-8.17c-2.08,1.13-4.14,2.32-6.15,3.64-2.82,1.86-5.68,3.67-8.53,5.47ZM152,29.65c.62.13,1.23.26,1.84.41s1.21.31,1.81.48a.06.06,0,0,0,0,.06h-1.18C153.63,30.25,152.81,29.93,152,29.65ZM127.73,31a63.22,63.22,0,0,1,16.66.13c-1.67.19-3.32.41-5,.68A58.19,58.19,0,0,0,116,41.2,46.36,46.36,0,0,1,127.73,31Zm-2.49-4.48-.28-.08a5.87,5.87,0,0,1-.72-.08l2.12-.44Zm-25,10.42h0l.19-.13Zm-2.4,31.79a.64.64,0,0,0,.27.19l-1,.48a9.13,9.13,0,0,1,.7-.67Zm18.9-6,.3-.3a1.18,1.18,0,0,0,.31-.57l.44-.35c-.35.42-.69.85-1,1.27-.07,0-.07,0-.08,0ZM124,49c-3.67,2.74-6.82,6.2-10.3,9.17-3.9,3.33-8.69,5.36-13.13,7.89A41.84,41.84,0,0,0,104,61.5a95.67,95.67,0,0,1,28.72-18.65c.43-.18.87-.35,1.31-.51A97,97,0,0,0,124,49ZM156.11,22.2c.65.23,1.31.49,2,.77a77.21,77.21,0,0,0-30.2-.16,90.56,90.56,0,0,1,12.37-2,68.13,68.13,0,0,1,10.4-.07,40.36,40.36,0,0,1,5.38,1.46ZM88.27,82.65l-.07-.16.44-.13.14.22Zm2.43-.37c-.13-.15-.25-.29-.37-.45a44.17,44.17,0,0,0,11.44-6.62c1.59-1.2,3.24-2.45,4.88-3.72-2.41,3.35-5.1,6.42-9,8.49A23.78,23.78,0,0,1,90.7,82.28Zm68.49-44c2.84.19,5.68.45,8.51.4a35.68,35.68,0,0,1,6.18,1.66c-10.31-2.81-22.82-1.2-31.5,2A51,51,0,0,1,159.19,38.28Zm48.8,1a28.76,28.76,0,0,1,11.29-2.9c-1.39.33-2.79.76-4.17,1.22A58.31,58.31,0,0,1,208,39.29Zm-1.75-2.48c-3.54,1.75-7.14,5-11.1,6.08a1.25,1.25,0,0,0-1-.55c1.81-1.62,3.62-3.23,5.53-4.72l.43-.24c1.87-1.1,3.66-2.33,5.49-3.49,4.52-2,9.77-2,14.56-1a35.8,35.8,0,0,0-13.91,3.93Zm-18.49-6.32a13.88,13.88,0,0,0,2-.4,16,16,0,0,1-1.65,1.44ZM79.47,67.32a.53.53,0,0,0,.69,0c6.64-5.74,12.36-12.52,19-18.22-2.34,3.24-4.64,6.54-7.16,9.76A40.15,40.15,0,0,1,80.32,69c-4.06,2.35-8.58,3.49-13,4.94A73,73,0,0,0,79.47,67.32ZM80.55,72a36.24,36.24,0,0,0,11.16-8.08c5.44-5.58,9.39-12.22,14.15-18.29-1,2.32-1.93,4.6-2.79,6.59-2.39,5.56-5.33,10.55-9.86,14.67C90,69.78,86.11,71,82.08,72.38c-2.26.74-4.49,1.6-6.75,2.31-2,.27-4,.55-5.93.88A82.15,82.15,0,0,0,80.55,72Zm7.69,4.45c1.6-.26,3.37-.49,5.14-.82l-.22.21a11.49,11.49,0,0,1-2.11,1.64c-.88.4-1.79.77-2.71,1.09a21.08,21.08,0,0,1-5.89,1h-.88a40.48,40.48,0,0,0-4.36-1c3.61-.83,7.25-1.57,11-2.16Zm2.6,9.78c.31.18.61.37.91.57-.64-.15-1.27-.31-1.89-.44ZM125,57.9a56.23,56.23,0,0,1,12.61-9.72A50.56,50.56,0,0,1,162.71,42a58,58,0,0,1,7.79.58c-8.21,0-15.67,2.39-23.65,4.42a48.18,48.18,0,0,0-19.72,9.76,23.94,23.94,0,0,0-3.59,3.94C124,59.75,124.46,58.81,125,57.9Zm82.5-32.42c-3.9,1.68-7.56,3.79-11.34,5.71-1.28.65-2.53,1.37-3.8,2.06s-3.19,2-4,1.52a1.46,1.46,0,0,0,.51-2h0c3.95-1.9,6.89-5.25,11.23-6.81a34.78,34.78,0,0,1,12.61-2.18,30.83,30.83,0,0,0-5.24,1.7Zm-14.51,0a23.45,23.45,0,0,1-5.34,2.39,4.6,4.6,0,0,0-.51-2.38A41.84,41.84,0,0,0,195,23.61l4.11-1.25c-2.11.9-4.11,2-6.11,3.09Zm-91.82,6-.57.38a30.25,30.25,0,0,0-9.6,4c0-.08-.1-.16-.16-.24.66-.64,1.35-1.25,2-1.85a79.36,79.36,0,0,1,8.3-2.37ZM98.72,29.4c1.63-1.11,3.28-2.15,4.92-3.12a55,55,0,0,1,15.76-6.11c-7.08,2.69-13.54,6.84-20.71,9.2ZM87.6,39h.15c-.53.62-1.06,1.25-1.61,1.84C86.61,40.19,87.1,39.6,87.6,39ZM80.3,54.74a64.7,64.7,0,0,1-8.44,6.11,70.11,70.11,0,0,1-8,3.75,60.12,60.12,0,0,1,12.92-8.26C77.84,55.83,79,55.3,80.3,54.74ZM54.66,73.81h0c.16-.19.31-.38.47-.56a46.89,46.89,0,0,1,5.13-3.33c5.81-3.23,12.16-4.58,17.71-8.31,2.75-1.84,5.37-3.91,8-6l-.12.21c-6.08,10.31-17.84,14.08-28,19a37,37,0,0,0-6,3.64A15.54,15.54,0,0,0,54.66,73.81ZM50,85.43a82.55,82.55,0,0,0-9,8.23c1.3-1.74,2.61-3.37,4-4.89A56.47,56.47,0,0,1,50,85.43Zm14.61,9.11a40.79,40.79,0,0,0-16.74,6.35,1.93,1.93,0,0,0-1-.39,41.56,41.56,0,0,1,4.2-3c6.57-4.08,14.31-6.16,21.93-7A58.87,58.87,0,0,1,93.83,92l.25.06C84.26,92.94,74.39,93.2,64.58,94.54Zm-7.43,5.21a64.88,64.88,0,0,0-6.76,2.72A50.76,50.76,0,0,1,57.15,99.75ZM226.07,31.12l-1-.42-.35-.13a1.29,1.29,0,0,0,.46-.14l.76.28Zm-41.84-7.58c1.83-4,10.25-5.86,14.28-6.51a25,25,0,0,1,8.27,0c-7.18.64-15.87,6.07-22.55,6.46Zm-59.07-8c8.06-1.22,16.32-1.56,24.33.08.41.09.81.2,1.21.3-3.36-.39-6.72-.59-10-.69-13.24-.39-26.85,2.05-38.28,9a67.45,67.45,0,0,0-9.77,7.18c-2.31.95-4.49,2.23-5.57,4.16-.53.14-1.06.3-1.58.47a14.38,14.38,0,0,0,3.26-3.69c.71-1.18,1.31-2.41,1.9-3.63a83.14,83.14,0,0,1,34.5-13.2ZM74.45,41.18c.06.08.12.17.19.25-.52.34-1,.69-1.54,1ZM66.08,52.29C71.83,47.39,78,42.77,85,40a37.72,37.72,0,0,0-2.12,3.49c-3.11,1.88-6.39,3.48-9.5,5.36-2.74,1.66-5.62,3.39-8.35,5.3.31-.57.63-1.13,1-1.68ZM76.64,51.2c.86-.51,1.76-1,2.66-1.45A1.68,1.68,0,0,0,79.65,51c-3.06,1.44-6.15,2.7-8.72,4a48.5,48.5,0,0,0-10.44,7.28C65.07,57.78,71.18,54.45,76.64,51.2ZM39.1,95.69h.11l-.52.66C38.82,96.12,39,95.91,39.1,95.69Zm27.12,5.61c6.91-1.35,13.87-1.39,20.84-2.1l2-.21c-1.84.64-3.66,1.3-5.41,2.1a77.77,77.77,0,0,1-23.28,6.57c-5.15.64-12.76,1.28-18.74,3.84C48.25,105.79,58,102.91,66.22,101.3ZM196.86,52c5.17-2.23,11.08-4.44,16.83-5C208,48.54,203.29,53.36,196.86,52Zm24.3-4.92a21.81,21.81,0,0,1,5.05,1.11c.37.44.74.9,1.09,1.36-.49-.09-1-.15-1.47-.2a17.63,17.63,0,0,0-4.67-2.29ZM195.54,13.84c-4.13.83-9.08,2.75-12.12,5.59-.29-.37-.58-.73-.88-1.09,3.84-4.39,11.27-5,16.73-5.31a25.64,25.64,0,0,1,3.28,0A43.38,43.38,0,0,0,195.54,13.84ZM93.41,24.2a62.6,62.6,0,0,1,5.87-4.47c1.34-.45,2.71-.84,4.11-1.18A81,81,0,0,0,93.41,24.2Zm13.88-11.41A1.73,1.73,0,0,0,107,12c1.34-.36,2.69-.72,4-1.11l.39-.1C110,11.43,108.64,12.09,107.29,12.79ZM87.72,26c-1.19,1.84-2.4,3.68-3.71,5.44l-1.35,1.23c.67-1.33,1.34-2.67,2.06-4A23.84,23.84,0,0,1,87.72,26Zm-8.23,9.72L79,36l-.11.05c.45-.58.88-1.16,1.31-1.73-.25.49-.48,1-.73,1.45Zm-3.77-2.85a31.93,31.93,0,0,0,2.75-2.4c-.63.94-1.2,1.81-1.69,2.52-5,7.13-11.76,12.79-18.31,18.56a51.11,51.11,0,0,1,7.61-10.74c2.89-3,6.37-5.38,9.64-7.93ZM56.14,56.44c.69-.58,1.38-1.16,2.09-1.74-.79.76-1.57,1.53-2.33,2.32C56,56.83,56.05,56.63,56.14,56.44Zm7.32-1.89.5-.43c-.18.37-.36.75-.53,1.13a39.86,39.86,0,0,0-6.58,6,43.67,43.67,0,0,0-3.4,4.63C55.67,61.4,59.8,57.76,63.46,54.55ZM45.71,84.26h-.07a.35.35,0,0,0,.11-.1Zm-11.27,26a.57.57,0,0,0,.51,0,13.67,13.67,0,0,0-.24,1.54l-.24.61C34.45,111.7,34.44,111,34.44,110.26Zm.15,4.87h0v.08S34.59,115.16,34.59,115.13ZM37,116.74c3.78-2.83,9.37-3.58,13.77-4.26,5.65-.86,11.4-1,17-1.86,6.78-1,13.14-3.71,19.48-6.35a55.08,55.08,0,0,1-20.48,8.12c-10.32,1.82-20.7,1.27-30.41,5.34A7.16,7.16,0,0,0,37,116.74ZM149.82,57.37a1.28,1.28,0,0,0-1,.25c-2.42,1.73-5,3.23-7.45,4.9a74.89,74.89,0,0,1,9.09-6.07c.63-.2,1.27-.38,1.92-.56A29,29,0,0,0,149.82,57.37Zm19.4-3.06h.34l-.29.12A.61.61,0,0,0,169.22,54.31Zm73.48,8.91a.08.08,0,0,0,0,.07h0ZM220.59,19.15c-4-6.94-12.37-9.89-20.38-9.76-1.29,0-2.68.08-4.1.2,5.17-1.36,10.27-2.48,15.48.08,4,2,6.91,5.81,9.18,9.63Zm-40.41-3.42c-.9-.94-1.83-1.83-2.78-2.67a46.66,46.66,0,0,0,7.89-1,15,15,0,0,0-5.11,3.67Zm-1.77-.19a8.24,8.24,0,0,0-.54-.9c.61.54,1.2,1.1,1.79,1.68-.28.36-.54.74-.78,1.12l-.08-.05a4.11,4.11,0,0,0-.39-1.85ZM111.2,13.82,109,14.3a74.42,74.42,0,0,1,16.22-5.18,50.92,50.92,0,0,0,6.85-.88c1.7.08,3.4.23,5.09.44-8.75.92-17.49,3.33-26,5.14Zm-20,6.81-.53.63a4.21,4.21,0,0,0-.49-.09h0ZM53.75,55.85l-.41.39a.88.88,0,0,0-.1,1.22h0c-.37,1.25-.68,2.52-.94,3.79-1.79,2.61-2.68,5.65-3.94,8.47v-.5a119.58,119.58,0,0,1,3.39-12.29,41.49,41.49,0,0,1,7.61-12.83A47.54,47.54,0,0,0,53.75,55.85Zm-7.2,20.63.29.11-.46.51C46.43,76.89,46.49,76.69,46.55,76.48Zm1.23,4.9h.16l-.76.63ZM35.3,120.06a32.58,32.58,0,0,1,5.65-.71,10.65,10.65,0,0,0-5,3.21,13.05,13.05,0,0,1-.85-2v-.09Zm8,13.69a23.89,23.89,0,0,0,6.12,1.42,17.24,17.24,0,0,0,8-.68A13.17,13.17,0,0,1,55,136.24c-3.39,2-7.4,1.14-10.91-.56a17.93,17.93,0,0,0-.81-1.93Zm10-1.71c-2.15.15-10.77.39-11.49-2.39l-.05-.1a24.63,24.63,0,0,0,12,1.77,15.42,15.42,0,0,0,4.8-1.31,10.58,10.58,0,0,1-5.26,2Zm-13-3-.18-.25.37.2Zm42-12.38A33.1,33.1,0,0,0,85.42,115c-1.25,1.13-2.6,2.28-4,3.32a12.06,12.06,0,0,0,.85-1.73ZM97,103.18l-.2-.25a29,29,0,0,0,2.89-3.17,2.16,2.16,0,0,0,.27-.44l.39-.19C99.16,100.49,98.05,101.85,97,103.18Zm51-40.62a35.91,35.91,0,0,1,12.28-5.75c-1.47,1.25-2.79,2.6-3.86,3.56-5.28,4.73-11.4,7.45-17.74,10.23a96.51,96.51,0,0,1,9.22-8Zm78.68-8.67h.16l.34.29c-.37-.08-.74-.16-1.13-.21Zm21.35,22v0ZM241.41,45h-.1c-.15-.6-.3-1.19-.46-1.78C241,43.76,241.23,44.37,241.41,45Zm-66-35.1-1-.25a12.09,12.09,0,0,1,1.66-1.17,8.1,8.1,0,0,0-.62,1.38Zm-.26,1a1.11,1.11,0,0,0,.17.54c-.5-.39-1-.78-1.5-1.15a4.58,4.58,0,0,1,1.37.53ZM44.06,82.54a.84.84,0,0,0,.39-.19l.14-.13a16.21,16.21,0,0,0-1.13,2.24.62.62,0,0,0,0,.5l-.49.38a16.76,16.76,0,0,0,.78-2.19ZM38.5,90.88c.45-.52.92-1,1.41-1.52h0c-.27.29-.53.58-.79.88A31.59,31.59,0,0,0,35,96.86l-.13.15a25.14,25.14,0,0,1,2.3-4.35A14.5,14.5,0,0,1,38.5,90.88ZM34.39,163.7a41.65,41.65,0,0,1,8.76-8C40.39,158.56,37.29,161,34.39,163.7ZM45.65,260c.59-1.85,1.36-3.53,2-5.27h0A6.91,6.91,0,0,0,49,253.43a44,44,0,0,0-.93,5.08,14.48,14.48,0,0,0,2.11,9.39A44.58,44.58,0,0,0,53,272.18l-1-.53C47.45,269,43.84,265.79,45.65,260Zm22.6-34.63a8.91,8.91,0,0,1,.68-3c.78-1.77,2.41-3.09,3.82-4.33,2.8-2.45,6.17-4.19,9.14-6.41,1.18-.88,2.44-1.68,3.69-2.47a89.75,89.75,0,0,1-8,7.48c-3.19,2.91-6.9,5.36-9.33,8.77ZM56,126.89c-5.4,2.23-11.95.86-17.11-1.48a33.94,33.94,0,0,1,10.4-1.48c3.55.14,7.09.57,10.64.86A27,27,0,0,1,56,126.89Zm.48-6c-1.2-.07-2.6-.15-4.08-.2a1.64,1.64,0,0,0,.32-.56c4.91.59,9.84,1.21,14.78.77L67,121a67.69,67.69,0,0,1-10.56-.17ZM69,120.73l1.26-.2c-.38.09-.76.17-1.14.23Zm8.51,1.52c9-1.91,17.39-10.87,22.7-17.2,4.27-5.08,8.18-10.24,13.22-14.42-4.08,5-7.35,10.82-10.93,15.93a44.61,44.61,0,0,1-12,11.8c-4.14,2.68-8.75,3.27-13.44,4.15Zm31.72-13.7a58.75,58.75,0,0,1-6.63,13.81,23.46,23.46,0,0,1-7.13,7.57c-3.66,2.32-7.74,0-11.16-1.83,4.73,1,9,.37,13.84-3.54,4.42-3.55,7.35-8.66,10-13.6.33-.8.69-1.6,1-2.41Zm59.47-50c-1,1.3-1.84,2.67-2.91,3.9a17.56,17.56,0,0,1-1.9,1.86,17.25,17.25,0,0,1-2.43,1.22C163.89,63.21,166.06,60.63,168.67,58.5ZM141.52,4.4q-1.91,0-3.81.15c-.63-.07-1.26-.12-1.89-.16q3.24-.15,6.43,0C142,4.41,141.76,4.4,141.52,4.4Zm-40.23,5.75q-1,.31-2,.69a1.88,1.88,0,0,0-.58,0c1.13-.54,2.28-1.06,3.43-1.56C101.88,9.55,101.58,9.85,101.29,10.15Zm-56.08,62h-.16V71c.07.42.11.82.16,1.21ZM44.64,150a10,10,0,0,0,2.92-4c.17,1.28-.16,2.42-1.68,3.85-2.16,2-4.75,3.66-7,5.61a29.93,29.93,0,0,0-6.8,8.54c2-6.34,7.63-9.6,12.56-13.93ZM64.12,267.59a9.63,9.63,0,0,1-.58-3.61,25.31,25.31,0,0,0,3.68.54,5.34,5.34,0,0,1,5.2,2.24,22.74,22.74,0,0,1-.94,2.82c-1,2.63-2.33,5.07-3,7.73C67.25,274.06,65.39,271,64.12,267.59Zm5.56,9.28c1-3.43,2.79-6.44,3.72-9.86q2.26,6,4.69,11.92a5.44,5.44,0,0,0-4.48-1.12,16.35,16.35,0,0,0-3.15.95C68.42,279.61,69.22,278.54,69.68,276.87Zm-6.13-13.43c.27-3.9,2.5-7.86,4.35-11.74q2.2,6.54,4.63,13C69.62,263.65,66.63,263.72,63.55,263.44Zm19.36-42.31a.15.15,0,0,0,.08.2H83a24.14,24.14,0,0,1,4.61,1l-.19.45c-.22.34-.45.68-.68,1a20.31,20.31,0,0,0-5.35-1C82,222.21,82.42,221.67,82.91,221.13Zm5.86-1.52a29.05,29.05,0,0,1-2.9-1.07c-.2-.1-.38.2-.17.3A22.23,22.23,0,0,0,88.62,220c-.25.64-.52,1.27-.79,1.9A15.35,15.35,0,0,0,83,221H83c1.39-1.53,2.73-3.07,4-4.67l1.18.78a3.13,3.13,0,0,0,1.29.67c-.2.62-.46,1.19-.66,1.79Zm2.52-9.45.42-.75c-.06.31-.14.6-.2.9A.26.26,0,0,0,91.29,210.16ZM97.6,185c-1.17.25-2.54.64-3.56.12-.15-.63-.32-1.27-.51-1.9h0a8.44,8.44,0,0,0,4.39-.52A21.57,21.57,0,0,1,97.6,185ZM63.08,150.46v0ZM67,125.31l.49-.29h.11C67.41,125.11,67.2,125.2,67,125.31Zm9-2.3a.3.3,0,0,0,.26.33c13.7,1.89,22.35-6.13,29.76-16a55.08,55.08,0,0,1-3,6.3c-2.88,5-7,10-12.49,12.16-4.09,1.61-9-.39-13-1.19a.55.55,0,0,0-.52.21,14.6,14.6,0,0,0-3.69-.82A18.33,18.33,0,0,0,76,123Zm12.77,9.4c2,.74,4.35,1.25,6.41.32a19,19,0,0,0,6.63-5.11,23.35,23.35,0,0,1-1.34,3.73c-3.79,7.8-9.86,2.34-15-.41l-.58-.62a36.18,36.18,0,0,0,3.92,2.13Zm22.2-21c.67.45.07.69-.46,1.08a5,5,0,0,0,.49-1Zm3-7.76a12,12,0,0,1-1.38,3.72ZM136,75.81a1.48,1.48,0,0,0,.25-.44l3-.79c-1.21.47-2.42,1-3.61,1.57a.73.73,0,0,0,.39-.27Zm35.46-14.1a10.5,10.5,0,0,1,1.08-.49h0A16.5,16.5,0,0,1,174.27,65c-1.09-.91-2.17-1.84-3.27-2.75Zm2.46.91,1.55,1.28-.72.92a20.5,20.5,0,0,0-.82-2.13Zm1.57-1.17v1.68A16.49,16.49,0,0,1,173.14,61,15.39,15.39,0,0,1,178,60.4c-.75.2-1.46.47-2.21.74a.33.33,0,0,0-.19.38Zm77.79,39h.05l-.06.18ZM256.17,90a32.82,32.82,0,0,0-3-4.64l1,.9a5.3,5.3,0,0,1,2,3.82Zm-3.75-17.43c-.42.74-.8,1.45-1.13,2.17.11-.42.22-.83.32-1.24a10.64,10.64,0,0,0,.78-7.56c1.4,1.71,1.87,3.58.06,6.71ZM221.26,10.82a39.49,39.49,0,0,1,10.05,10.49,28.54,28.54,0,0,0-7.16-6.48,38.61,38.61,0,0,0-7.52-6.14,20.08,20.08,0,0,0-2-1.42l-.36-.34A39.46,39.46,0,0,1,221.26,10.82ZM173.33,7a5.46,5.46,0,0,0-1.69,1.66L170.54,8C171.46,7.69,172.39,7.36,173.33,7Zm-8.75-1.4a1.73,1.73,0,0,0-.9.1l-.55-.32a38.28,38.28,0,0,0-4.19-2,54.81,54.81,0,0,1,5.64,2.26ZM87,17.16l.8-.47c-2.53,1.94-5,4-7.54,5.78-6.83,4.66-13.68,9.2-19.89,14.7-1,.88-2,1.82-3.08,2.79C65.84,30.91,76.72,23.39,87,17.16ZM44,142.58c1.4,4-3.26,7.76-6.59,10.68l.23-.3c.12-.15-.09-.37-.21-.21-.31.37-.63.75-1,1.15.51-2,.41-4.06,1.79-5.72C40,146.15,42.76,145,44,142.58ZM27.42,247.5c5.32.19,11,.47,14.2,4.75l.07.12a5,5,0,0,1,.11.66c-4-3.28-9.75-4.72-14.72-5.39Zm15,21.75.73.46a15.83,15.83,0,0,0,4.52,4.3c-.28-.13-.56-.26-.82-.4a9.5,9.5,0,0,1-4.47-4.36Zm25.93,21.29a34.61,34.61,0,0,0,1.18-5.34,14.9,14.9,0,0,0-.11-4.52c2.51-1.48,8.18-4,8.7,1.32.26,2.71-1.85,5.54-3.28,7.68-2.11,3.17-4.11,6.05-4.68,9.77-.82-2-1.7-4-2.68-5.89.27-1,.57-2,.83-3Zm10.82-9c2.17,5.32,4.41,10.6,6.67,15.86a.77.77,0,0,0-.26-.07,62.34,62.34,0,0,0-9.36.59,19.82,19.82,0,0,0-4.45,1.39c-.75.31.81-3.94,1.14-4.57,2.23-4.36,6.44-8.07,6.22-13.25ZM77.68,318c-.32-.65-.63-1.29-.94-1.94-2.28-4.82-4-10-6-15.06h.07a22.63,22.63,0,0,1,8.67-2.39c2.75-.29,5.63-1.19,4.39,2.42C82,306.76,79.42,312.24,77.68,318Zm2-.59c-1,.08,1.81-6.95,2.1-7.69,1.51-3.9,3.08-7.74,4.34-11.72l1.73,4c2.57,5.92,5,11.85,7.63,17.72l-1-.33a.77.77,0,0,0-.37,0,34.71,34.71,0,0,0-14.46-2Zm22.49,16.46a21.44,21.44,0,0,0-9.7-1.83,26.8,26.8,0,0,0-2.68.18c-.89.09,2.07-4.45,2.18-4.61,1.37-2,2.88-3.81,4.21-5.79l.27.1c1.77,4.08,3.66,8.08,5.69,12Zm-3.66-33.57a165.49,165.49,0,0,0,20,22.64c1.08,1,2.21,2,3.36,3a161.32,161.32,0,0,1-24.45-5.63c-2.34-5.18-4.62-10.39-6.91-15.63-6.76-15.41-13.1-30.81-19-46.44a316.84,316.84,0,0,0,27,42.08ZM71.8,231.07a15.18,15.18,0,0,0-2.64,5.47c.08-.67.16-1.35.28-2A13.24,13.24,0,0,1,72.35,229a27,27,0,0,1,4.6-3.72C75.18,227.15,73.44,229,71.8,231.07ZM80,224.36l1.17-1.25c1.84.09,3.55.88,5.34,1.16-.44.63-.9,1.25-1.37,1.86A13.62,13.62,0,0,1,80,224.36Zm14.87-35.29a11.39,11.39,0,0,0,1.74-.34c-.45,1.3-.94,2.58-1.38,3.87-.11-1.18-.23-2.35-.4-3.53Zm3.34-10.17c0,1.2-.07,2.36-.18,3.5a8.84,8.84,0,0,1-4.42.73h0c-.15-.47-.3-.94-.46-1.41a24.07,24.07,0,0,0,4.32-.29.09.09,0,0,0,.1-.1.1.1,0,0,0-.1-.11c-1.48,0-2.91.4-4.38.31-.09-.28-.2-.55-.3-.83a6.44,6.44,0,0,0,5.38-1.8ZM70.56,161.59h-.13L70,161a.21.21,0,0,0-.1-.06l-.3-.45ZM105,129.42a5.06,5.06,0,0,1,.1-.68,13.59,13.59,0,0,1,.71-2.49.2.2,0,0,0,0-.21l.09-.37a39.67,39.67,0,0,0,6.9-5.63c-.1,1.08-.23,2.14-.4,3.19A73.06,73.06,0,0,0,105,129.42Zm7.79-9.9a38.44,38.44,0,0,1-6.86,5.87c.23-.94.45-1.88.67-2.82,2.23-1.21,4.08-3.07,6.29-4.35,0,.44-.08.87-.11,1.3Zm.12-1.65c-2.28,1.16-4.07,3.09-6.25,4.42.22-.93.44-1.85.68-2.77l.31-.59a47.81,47.81,0,0,1,5.4-3.6c0,.85,0,1.68-.15,2.54ZM113,115a40.3,40.3,0,0,0-5.08,3.37c.44-.85.86-1.69,1.25-2.54a22.88,22.88,0,0,1,3.67-2.23c.15-.07,0-.3-.14-.23a20.5,20.5,0,0,0-3.34,2c.3-.66.58-1.33.84-2a1.14,1.14,0,0,0,.11-.11v-.09h0a10.79,10.79,0,0,0,1.63-1.24.23.23,0,0,0,0-.32l0,0c-.57-.42-.09-.12.54-.54a.3.3,0,0,0,.1-.4c-.29-.44-.58-.83-.72-1.11.07-.17.13-.33.19-.49a2.69,2.69,0,0,1,.69.06.31.31,0,0,0,.4-.23.35.35,0,0,0-.08-.32l-.24-.24a7.25,7.25,0,0,0,1.15-2.31l.18-.5h0A53.61,53.61,0,0,0,113,115Zm3.29-16.43-.07-.08c.17-.34.34-.68.52-1-.17.35-.31.72-.46,1.08Zm47-20.49c-2.21-2.36-4.45-5-7.41-6.41l.89-.25a25.8,25.8,0,0,0,9-4.41c1.73-1.35,3.26-3,4.87-4.42,1.2,1,2.38,2.11,3.59,3.14-.37.53-.74,1.08-1.09,1.64h-.11c-.81.82-2.26-1.45-2.66-2-.17-.23-.57,0-.39.23.39.52,1.71,2.45,2.69,2.44l-1,1.7a7.68,7.68,0,0,1-2.36-2.32c-.1-.13-.32,0-.22.13a8.57,8.57,0,0,0,2.4,2.51c-.41.67-.81,1.35-1.22,2h0a17.47,17.47,0,0,1-3.3-2.64.16.16,0,1,0-.23.23,11.54,11.54,0,0,0,3.37,2.69l-.66,1A11,11,0,0,1,163.3,78Zm12.88-14.8V62c0-.52,1.65-.87,2.65-1a14.57,14.57,0,0,0-2.67,2.28Zm13,1.78a16.26,16.26,0,0,1-.66-3.54,7.63,7.63,0,0,0,1.57-.23,22,22,0,0,0,.49,4.59A11.63,11.63,0,0,1,189.24,65Zm1.95,1a44.76,44.76,0,0,1-.67-4.92,4.86,4.86,0,0,0,1.13-.48,7.06,7.06,0,0,0,2.71-3.11h.15c-.56,2.22-.15,5.17-.47,6.94S192.55,66.52,191.19,66Zm16.54.7a.24.24,0,0,0,0-.12,21.08,21.08,0,0,1-3.24-7.52h2.25a66.67,66.67,0,0,0,5,9.07A17.28,17.28,0,0,1,208,66.86Zm4.48,1.47v-.09c-1.55-3.11-3.53-6-5.05-9.08,1.63-.06,3.26-.22,4.87-.43,1.44,3.17,2.36,6.53,3.65,9.76A13.44,13.44,0,0,1,212.21,68.18Zm3.93.11a67.29,67.29,0,0,0-3.68-9.77c1.41-.19,2.79-.41,4.14-.63a42,42,0,0,1,2.22,7.35c.05.3.5.17.45-.12a36.72,36.72,0,0,0-2.26-7.3l1.67-.28c.72-.12,1.41-.21,2.07-.28.82,2.65,1.07,5.54,2.17,8.07-1,.63-2,1.27-3.07,1.82A10.6,10.6,0,0,1,216.14,68.29Zm7.22-3.22c-.85-2.59-1.35-5.28-2.26-7.85a16.38,16.38,0,0,1,4.74.18A9.15,9.15,0,0,0,228,63.06a9,9,0,0,0-1.85.55A23.44,23.44,0,0,0,223.36,65.07Zm5.43-2.15a10.06,10.06,0,0,1-2.44-5.4c2.68.67,5,2.26,7.65,5l1.21,1.28a14.5,14.5,0,0,0-6.42-.93Zm15.74,9a.29.29,0,0,0-.08.14.42.42,0,0,0-.08-.29l.16.18Zm2.59,7.67v-.08a1.69,1.69,0,0,0,.21.31,1.88,1.88,0,0,1-.21-.2Zm-23,196.1v8.2a9.49,9.49,0,0,0-.7.72,27.79,27.79,0,0,0-9.3-6.49c-3.8-1.56-3.67-1.48,0-4.2a35,35,0,0,1,9.58-4.75.54.54,0,0,0,.36-.36c0,2.08.05,4.17.06,6.25a2.09,2.09,0,0,0,0,.66ZM207,275a48,48,0,0,0-4.3-5.54c-1.33-1.53-3.22-4-5.4-4.35.67-1.4,1.3-2.8,1.91-4.21,3.6,1.23,6,5.16,8.32,8.06Q207.31,272,207,275Zm-30.1-28.44v.09a.11.11,0,0,0,0,.08h-.09l-.15-.24ZM206,259.68a11.77,11.77,0,0,0,1.74-.47v1.4a18,18,0,0,0,0,2.08v.43c-1.34-1-2.55-2.23-3.94-3.18A14.84,14.84,0,0,0,206,259.68ZM213.4,256a39.47,39.47,0,0,0,9,2.33c.49.08.71-.64.21-.77-2.87-.78-5.89-1-8.71-2,.59-.51,1.15-1.05,1.69-1.62,2.64,1.13,5.19,2.58,8,3.24.23,3.76.36,7.53.42,11.31a.61.61,0,0,0-.11-.21c-4.14-4-9-6.85-13.63-10.21a19.34,19.34,0,0,0,3.17-2.06Zm9-2.11c-1.63-.76-3.33-1.4-5-2,.34-.45.66-.91,1-1.38a55.53,55.53,0,0,0,5,3.18c.07,1,.14,1.9.2,2.86-2.59-.85-5.08-2-7.65-2.87.41-.44.81-.9,1.19-1.37,1.69.75,3.38,1.52,5.09,2.23.34.14.6-.48.24-.65ZM236,216.33a.58.58,0,0,0,.11.15c-.4,1-.75,2-1.05,3A26.3,26.3,0,0,1,236,216.33Zm2.41-12.71-.28-.11c.1-.21.2-.43.29-.64a4.8,4.8,0,0,0,0,.75Zm-1.31,8h0c0,.08-.09.16-.14.24h0a1.87,1.87,0,0,1,.12-.25Zm-4.3,18.75c1.89,2.18,4.36,3.3,6.85,4.66,2.11,1.16,2.17,3,1.39,4.79a4.57,4.57,0,0,0-2.27-2.56c-1.52-.88-3.26-1.28-4.84-2a18.72,18.72,0,0,1-2.62-4.76,17,17,0,0,1-.67-6.72c.18-.4.36-.8.55-1.2-.48,2.79-.29,5.61,1.59,7.78ZM222.22,249a16.27,16.27,0,0,1,.59,2c-.8-.45-1.6-.89-2.39-1.35C221,249.47,221.63,249.24,222.22,249Zm-2.22.83c1.13.73,2.14,1.6,3.25,2.36a3.44,3.44,0,0,0,.05.71,51.14,51.14,0,0,0-4.42-2.65Zm16.65-8.34a6.85,6.85,0,0,0-2-2.47,1.33,1.33,0,0,0,.78-.6c.38.19.78.38,1.19.56,2.18,1,1.66,2.53.42,4.13a3.69,3.69,0,0,0-.39-1.59Zm-9.35,1.09a7.28,7.28,0,0,1-.76-.81,10.3,10.3,0,0,1-.84-5.06,15.14,15.14,0,0,0,2.27,3.89,10.76,10.76,0,0,1,1.25,2.15,7.29,7.29,0,0,0-1.92-.14Zm.91-13a9.83,9.83,0,0,0,2,4.77,13.57,13.57,0,0,0,2.28,3.46,9.71,9.71,0,0,1-5.21-5.62c.29-.86.6-1.72.93-2.6Zm2.25,9.71c1.92,1.31,4,1.85,3.31,5a12.07,12.07,0,0,1-.41,1.37,11.05,11.05,0,0,0-1.13-3.24c-1.72-3.23-4.67-4.56-5.84-7.85.07-.18.13-.36.19-.54a9.46,9.46,0,0,0,3.88,5.27Zm-9.72,9.76c-.63.25-1.26.51-1.9.73l.23-.37Zm12,11.1a3.15,3.15,0,0,0,.28-.51,9.59,9.59,0,0,0,.31-.95,1.2,1.2,0,0,0,.47.45c-.37.39-.73.79-1.06,1.19Zm9.53-27h0a8.34,8.34,0,0,0-1.75-2,4.58,4.58,0,0,1,2.17,2.32Zm-33,22.49-.13-.13c.3-.11.62-.22.92-.35-.29.2-.55.36-.82.51Zm-6,4.28c1.61,1.15,3,2.66,4.53,3.91,0,1.19-.08,2.37-.14,3.56a36.39,36.39,0,0,0-3.65-3.59c-1.09-1-2.87-2.78-4.63-3.28.13-.29.25-.58.38-.86a16.24,16.24,0,0,0,3.48.34Zm6.67-1.63h0c1.64,1.28,3.32,2.51,5,3.71.87.62,7.9,6.33,7.1,6.59a32.83,32.83,0,0,0-12.9,8.12.68.68,0,0,0-.12.22c1-6.12,1.9-12.61.89-18.61Zm13.71-9.55-.11-.08h.18Zm5.54.31a1.92,1.92,0,0,1,.46.74,6.88,6.88,0,0,0-.65-.88Zm.33,9.35a5.91,5.91,0,0,1-1.06,1.17,5.74,5.74,0,0,0-.6.61q.12-.27.27-.54c.45-.83,1.08-1.69,1.64-2.6a10.37,10.37,0,0,0-.28,1.39Zm3.13,9a.71.71,0,0,0,.29,0l.29.3-.8-.24a9.47,9.47,0,0,1-2.42-1.11,15.39,15.39,0,0,0,2.61,1.11Zm9.86-54.4c-.39,2.09-2,3.79-2.72,5.76-.45,1.25-2,5.38-1.05,6.84.84,1.28,2.4,2,3.64,3.08-1.15-.65-2.35-1.21-3.28-1.77a3.68,3.68,0,0,1-1.56-1.83c-.11-6,3.77-10.91,3.95-16.84a.36.36,0,0,0,.38-.09,7.45,7.45,0,0,1,.61,4.91Zm-65.22,33.1a.33.33,0,0,0-.14,0c-.25-.07-.5-.15-.76-.2a11,11,0,0,0-.92-1.24ZM190,256.32a.37.37,0,0,0,0-.53l0,0c-.16-.19-.35-.38-.52-.57a44.1,44.1,0,0,0,5.42,3A6.61,6.61,0,0,1,190,256.32Zm5.73,12.21c.52-1.09,1-2.18,1.53-3.27,2.19.6,4.09,3.27,5.47,4.92a67.14,67.14,0,0,1,4.2,5.61c-.21,1.86-.46,3.73-.73,5.61-3.35-4.39-6.49-9-10.49-12.87Zm10.46,28.94c.56-4.9,1.13-9.79,1.89-14.67.28-1.82.61-3.7.93-5.62a.6.6,0,0,0,.42.6,34.74,34.74,0,0,1,9.48,4.52c5,3.38,2.62,2.9-1.14,4.62-5,2.29-9.09,5.63-11.6,10.55Zm15.58,31.12c-4.09-2.89-12.89-4.25-14.81-9.21-2.23-5.78,12.14-8.59,16.81-9a148.28,148.28,0,0,1-2,18.21Zm2.12-20.77c-3.49-4-8.08-6.28-13-8.45-.52-.24-3.64-1-3.09-2.19a18.36,18.36,0,0,1,4.44-5.55,23.93,23.93,0,0,1,9.94-5c-1.49,3.65,0,8.11,1.86,11.58,0,3.23,0,6.42-.17,9.61Zm.2-11.93v.89c-1.23-3.28-1.64-6.9,0-9.81,0,3,0,5.95,0,8.92Zm6.8-15.44c-2,1.43-3.9,1.54-5.67,2.63v-5.55a3,3,0,0,0,.44.29c.71.43,7.47,1,5.21,2.63Zm5.94-7.56c-.69.43-2.38.06-3.14,0a36,36,0,0,0-6.8-.28,3.45,3.45,0,0,0-1.63.64v-.5c.09-7.6.48-15.5-1.14-23a.32.32,0,0,0,.14-.21,4.35,4.35,0,0,1,.54-1,4,4,0,0,1,3,1.08c5.56,5.11-3,8.37-2.13,13.34.85,4.67,8.87,8.78,13.06,5.95a3.62,3.62,0,0,1-1.92,4Z"/><path class="cls-1" d="M223,259.1c-3.43-.21-6.8-1.13-10.25-.87-.26,0-.27.43,0,.42,3.47,0,6.8,1.17,10.25,1.14a.35.35,0,0,0,.29-.4A.36.36,0,0,0,223,259.1Z"/><path class="cls-1" d="M140.66,339.78l-.25-.2a.17.17,0,0,0-.24,0,.16.16,0,0,0,0,.22c.19.21.48.55.78.57a.22.22,0,0,0,.23-.17.58.58,0,0,0-.23-.43.19.19,0,0,0-.28,0Z"/><path class="cls-1" d="M141.43,340.3a5.23,5.23,0,0,0-.76.18.49.49,0,0,0-.34.45.14.14,0,0,0,0,.09h0a.47.47,0,0,0,.56.32,1.87,1.87,0,0,0,.92-.38C142.18,340.7,141.79,340.24,141.43,340.3Z"/><path class="cls-1" d="M140.12,341.62a1.59,1.59,0,0,0,.84.6.26.26,0,0,0,.34-.19.29.29,0,0,0-.19-.35H141c-.23,0-.42-.25-.58-.39a.25.25,0,0,0-.34,0A.23.23,0,0,0,140.12,341.62Z"/><path class="cls-1" d="M142.9,343.91a1.74,1.74,0,0,0-.31-1.64.37.37,0,0,0-.5-.1l-.1.1c-.14.19-.57.16-.78.29a.18.18,0,0,0-.05.23.16.16,0,0,0,.17.06c.24-.06.28.06.49.1h0V343a2.94,2.94,0,0,0,.31.89.18.18,0,0,0,.08.07c.07.57.08,1.14.12,1.72a.16.16,0,0,0,.32,0,7.94,7.94,0,0,0-.08-1.61A.31.31,0,0,0,142.9,343.91Z"/><path class="cls-1" d="M139.54,349.82c-3-.17-7,1.51-7.28-2.51a34.91,34.91,0,0,0,6.33-1.16c1.48-.42,2.61-.58,2.61-2.2a.17.17,0,0,0-.21-.12.16.16,0,0,0-.12.12c-.07,1.24-3.6,1.37-4.46,1.51-1.61.26-3.24.41-4.87.55a.7.7,0,0,0-.69.69c0,2,.45,3.74,2.42,4.54s4.72.08,6.46-.71C140.1,350.36,139.88,349.84,139.54,349.82Z"/><path class="cls-1" d="M148.66,348.16c0-.15-.27-.08-.24.07,1.25,5.84.87,12,.6,18a.06.06,0,0,0,0,.06,7.17,7.17,0,0,1-1.41,3.94c-1,1.08-2.79,1-4.13.78-.16-4-.6-8-.74-12.05-.11-3.11-.32-6.36-1.66-9.21a4.23,4.23,0,0,1,1.77.09,9.09,9.09,0,0,0,0,1.65.2.2,0,0,0,.26.14.2.2,0,0,0,.14-.14,10.82,10.82,0,0,0,0-1.8.26.26,0,0,0-.15-.2,4.72,4.72,0,0,0-2.18-.06v-.05c-.06-.13-.24,0-.21.09h-.19c-.19.07-.11.38.09.32h.15c1.19,7.11-1,15.76,1.91,22.36.18.41.81.22.85-.18a4.74,4.74,0,0,0,4.74-.42,5.51,5.51,0,0,0,1.89-4.88C150.37,360.42,150.27,354.29,148.66,348.16Z"/><path class="cls-1" d="M144.66,364.66c-.24,1.61-1.29,6.41,2,5.43a.41.41,0,0,0-.11-.8,2.43,2.43,0,0,1-1.43-.2c-.49-.29-.49-.93-.5-1.43a23.47,23.47,0,0,1,.31-3C145,364.55,144.68,364.51,144.66,364.66Z"/><path class="cls-1" d="M202.08,310.51c.4-.63-.46-1.18-1-.75-8.31,6.91-17.34,10.45-27.6,13.64a.15.15,0,0,0,0,.2.14.14,0,0,0,.13.06C182.55,321,196.58,319.15,202.08,310.51Z"/><path class="cls-1" d="M232.54,62.55a.15.15,0,0,0-.1.18.14.14,0,0,0,.27,0,.15.15,0,0,0-.1-.18Z"/></g></g></g></g></svg>