<svg xmlns="http://www.w3.org/2000/svg" viewBox="0 0 263.94 372.42"><defs><style>.cls-1{fill:#fff;}</style></defs><title>Sansa</title><g id="Layer_2" data-name="Layer 2"><g id="Layer_2-2" data-name="Layer 2"><path class="cls-1" d="M155.71,145.75c-.06,0-.09.07,0,.1a34.83,34.83,0,0,0,13.38,4.08c5.65.54,9.82-2.33,15.12-3a4.06,4.06,0,0,0,1.34.44.24.24,0,0,0,.13-.47c-2.16-.65-3.37-3.36-4.71-5.57h0c-.83-3.07-2.68-4.45-5-4.79a7.13,7.13,0,0,0-1.93-.35c-4.35-1.2-9.35,1.81-13.25,4.56-1.47.83-2.9,1.69-4.29,2.5-.32.14-.61.25-.88.35a2.21,2.21,0,0,1-.7-.13c-.11,0-.16.14-.05.18l.46.16s.05.06.09,0h0c-.23.14-.47.27-.71.4a2.83,2.83,0,0,1-1-.34.09.09,0,1,0-.09.16,2.89,2.89,0,0,0,.73.35l-.26.13a2.08,2.08,0,0,1-1.64-.35s-.12,0-.08.06a1.37,1.37,0,0,0,1.08.56h.11l-.17.09a.07.07,0,0,0,0,.06,4.32,4.32,0,0,1-1.83-.13c-.06,0-.11.08,0,.11a3.46,3.46,0,0,0,1.15.28,15.33,15.33,0,0,1-4.67.46c-.09,0-.11.15,0,.16,5.83,1,11.36-2,16.28-5.22a1.17,1.17,0,0,1,.87.54.24.24,0,0,0,.13.13c0,2.75,2.85,6.53,5.22,7,.14,0,.2-.18.06-.22-2.48-.71-5.14-4.52-4.49-7.14h0a2.48,2.48,0,0,1,1.27-.05.09.09,0,1,0,0-.18,2.72,2.72,0,0,0-1.27.06l.09-.23c.44-.06.87-.2,1.32-.23.55.14,1.08.35,1.64.53a.11.11,0,0,0,.09-.19,4.61,4.61,0,0,0-2-.66,5.3,5.3,0,0,1,1.31.13c.44.23.87.48,1.29.74a2,2,0,0,0-.35.77,2.52,2.52,0,0,0,.46,1.8c.48,1.08,1.56,2,2.79,1.56a1.48,1.48,0,0,0,.6-.43,2.6,2.6,0,0,0,1.07-1.65,4,4,0,0,0-.16-2.15.53.53,0,0,0,.08-.15c.08-.29.17-.58.26-.87a2.79,2.79,0,0,1,1-.81l.34-.15-.32.19c-.27.16-.75.41-.81.75a.07.07,0,0,0,.08.09,6.87,6.87,0,0,0,.94-.47c.19-.09.4-.17.61-.25,0,.12.07.25.1.39a.12.12,0,0,0-.08,0,3.46,3.46,0,0,0-1.55.81.12.12,0,0,0,.12.2,4.3,4.3,0,0,0,1.57-.75c.71,3.78-1.11,9.51-5.65,8.52a.06.06,0,0,0,0,.11c2.55.78,4.41-1,5.54-3.15a10.47,10.47,0,0,0,1.19-4.39.21.21,0,0,0,.1-.14,1.28,1.28,0,0,1,.39-.91,14.5,14.5,0,0,1,3.9,4.85l.15.26a.23.23,0,0,0-.09.18h0c0,.37,0,.75,0,1.12,0,.17,0,.33-.07.49s0,0,0,.06c-3.16.65-6.14,2.17-9.47,2.45C166.8,149.66,161,147.85,155.71,145.75Zm10.7-5.68h0ZM171,141a1.8,1.8,0,0,0,.15.7,1.89,1.89,0,0,0,.09.34h0a3,3,0,0,1-.31-1h0A.27.27,0,0,1,171,141Zm2-1.25s0,.1,0,.15a.85.85,0,0,0-.24-.09Zm.27,1.59c-.23.8-.68,1.13-1.29.46a1.94,1.94,0,0,1-.23-.33,1,1,0,0,1,0-.24,1.47,1.47,0,0,1,.82-1,.2.2,0,0,0,.06-.07,1.23,1.23,0,0,1,.26.12.26.26,0,0,0,.09.17,1.35,1.35,0,0,1,.34.88S173.23,141.31,173.22,141.33Zm-.8-3.3-.42,0-.11,0h.16l.4,0Zm-.93.09-.39,0s0,0,0,0l.5-.05Zm4.7-.56h0l.07,0Zm-6.1-.73c-.52.17-1,.36-1.55.58a22.67,22.67,0,0,0-3.37,1.14A17.61,17.61,0,0,1,170.09,136.83Zm-5.22,3.4a.47.47,0,0,0,0,.1l-.13-.05Zm1.42,0a.11.11,0,0,0,.07.06l-.15.06A.83.83,0,0,0,166.29,140.21Zm11.26-.68a1.42,1.42,0,0,0-.05-.22l.13.09Zm5.06,7,0,0h-.07A.1.1,0,0,0,182.61,146.56Zm.07-.87a.16.16,0,0,0-.12,0v-.2l.14.21Zm.71.82,0,0,0,0Z"/><path class="cls-1" d="M182,138.23c.07.11.26,0,.18-.11-2.74-4.16-6.87-4.76-11.59-4.64-7.89.21-12.81,4.94-19.77,7.52-.06,0,0,.13,0,.11,4.58-1.43,8.33-4.47,12.95-6C169.67,133.21,178,132.42,182,138.23Z"/><path class="cls-1" d="M183,140.68a2.77,2.77,0,0,0-.64-1.67c-.06-.07-.19,0-.14.08a3,3,0,0,1,.61,1.59C182.87,140.78,183,140.78,183,140.68Z"/><path class="cls-1" d="M184.26,142.26c0-.07-.18,0-.13.08a5.25,5.25,0,0,0,2.3,2.15c.07,0,.11-.09,0-.12A5.84,5.84,0,0,1,184.26,142.26Z"/><path class="cls-1" d="M194.66,127.32c-.69-2.33-3.5-2.49-5.53-2.71a120.19,120.19,0,0,0-14.47-1,43.69,43.69,0,0,0-11.88.51c-7.64,1.16-14.56,5.66-21,9.62a.26.26,0,0,0,.27.45c9.58-5.15,19.21-9.1,30.3-7.59,4.75.65,9.51,1.71,14.22,2.64,2.93.59,5.53,1.21,7.74-1l.11-.08,0,0a6.79,6.79,0,0,1-.91.86c-.13.13,0,.31.17.29,1.2-.18,1.62-2,1.32-3a.12.12,0,0,0-.23.06,2.41,2.41,0,0,1-.18,1.45,0,0,0,0,1,0,0,.78.78,0,0,0,0-.21v0A.67.67,0,0,0,194.66,127.32Z"/><path class="cls-1" d="M195.72,126.68c.06.89-.49,1.37-1,2a.16.16,0,0,0,.23.22,2.51,2.51,0,0,0,1-2.26C195.9,126.53,195.71,126.56,195.72,126.68Z"/><path class="cls-1" d="M195.66,129.39a3,3,0,0,0,1-2.61c0-.11-.18-.06-.16,0,.19,1.05-.56,1.6-1,2.42C195.39,129.36,195.56,129.5,195.66,129.39Z"/><path class="cls-1" d="M197.18,128.26a1.85,1.85,0,0,1-.6.92c-.16.12,0,.38.2.27a2,2,0,0,0,.68-1.11C197.52,128.16,197.25,128.09,197.18,128.26Z"/><path class="cls-1" d="M217.85,144.08c.17-.29.34-.57.52-.85,4.34-3.2,10.59,3.08,15.41,2.23s6.73-5.2,6.49-9.78c0,0,0,0,0,0a.12.12,0,0,0,0-.16c-.18-.34,0-.51.25-.71l.54.13c-.19.19-.39.39-.59.57a.1.1,0,0,0,.13.16,8.7,8.7,0,0,0,.85-.65,8.81,8.81,0,0,0,3.32.07c.26-.05.18-.43-.06-.44A17.62,17.62,0,0,1,241,134a.28.28,0,0,0,0-.09,12.28,12.28,0,0,0,2,.37.13.13,0,0,0,0-.26c-1.06-.22-2-.75-3.08-.92a.3.3,0,0,0-.19,0l-.36-.2a27.49,27.49,0,0,0,2.84.45c.12,0,.14-.17,0-.2-1.51-.39-3-.89-4.48-1.34a.19.19,0,0,0-.11-.09c-2.58-.93-3.9-1.31-6.56-.54l-.3.1a14.34,14.34,0,0,0-6.08,3.44,20.84,20.84,0,0,0-7.08,9.21C217.56,144.11,217.78,144.2,217.85,144.08Zm19.83-9.89Zm-.79-.47a.14.14,0,0,0-.13-.08,2.59,2.59,0,0,0-.37.11.27.27,0,0,0,.13-.18h.17l.2.06Zm-4.95,2.49-.06-.06,0-.09A.77.77,0,0,0,231.94,136.21Zm.41-2.7-.16,0s0-.05.06-.07h.22Zm-3.64.65L229,134a.07.07,0,0,0,0,.05Zm1.9,1.47,0,0a.08.08,0,0,1,0,0Zm2.83,1.1a.64.64,0,0,1-.56-.13.86.86,0,0,1-.15-1.33,1.18,1.18,0,0,1,1,1.11A.63.63,0,0,1,233.44,136.73Zm-2.32-4.6-.37.05.36-.08Zm-5.31,3.65h0Zm3.35-.81a1,1,0,0,1,.09.13L229,135Zm8.62-.9h0l0,0Zm-18.23,7.37c0,.23-.07.46-.12.7a.13.13,0,0,0,.07.15,4,4,0,0,0-.86.51C218.93,142.34,219.24,141.88,219.55,141.44ZM240,135.51a.2.2,0,0,0-.13.17c-.45,3.68-1.28,7.33-5.25,8.72-2.5.87-5.59-.64-7.94-1.41-2-.67-4.82-1.6-7-.8a5.18,5.18,0,0,0,.07-1.11c.47-.64.94-1.26,1.45-1.85,1-.87,2.09-1.71,3.16-2.48a2,2,0,0,1,1.26,1.11.08.08,0,0,0,.05,0c.27,2.51,1.86,4.93,4.34,5.49a.1.1,0,0,0,0-.19c-3-1.08-4.41-4.61-3.63-7.56a.43.43,0,0,0,.27.07,4,4,0,0,1,2.31.33c-.73,0-1.44-.13-2.16-.19-.09,0-.09.13,0,.13a18,18,0,0,0,2.42.22,3.24,3.24,0,0,1,.73.67,2.92,2.92,0,0,0,.13,1.94c.22.54.88,1.38,1.48,1.37a.18.18,0,0,0,.17.09h.25l.07,0a2.64,2.64,0,0,0,.4-.12.75.75,0,0,0,.24-.08,1.47,1.47,0,0,0,.36-.27h0a.8.8,0,0,0,.13-.13,2,2,0,0,0,.42-.61,1.6,1.6,0,0,0,.35-.67,3.22,3.22,0,0,0,.53-2.18,2.08,2.08,0,0,0-.25-.63.93.93,0,0,1,0-.13.45.45,0,0,0,.15-.13,5.61,5.61,0,0,1,.86-1.11,1.89,1.89,0,0,0,.68-.34l.17,0a4,4,0,0,0-1.26,1,.07.07,0,0,0,.09.1c.28-.17.58-.35.88-.51a7.66,7.66,0,0,0,.94-.5l0,0c0,3.49-1.66,10.62-5.81,9.52,0,0-.05,0,0,.06,3.94,1.23,6.4-4.59,6.61-8.5a4.22,4.22,0,0,1,.8-.78l0,0c.57.19,1.13.37,1.7.53A.62.62,0,0,0,240,135.51Z"/><path class="cls-1" d="M221.83,129.63c.45-.76.87-2.1.06-2.77-.09-.08-.22,0-.14.13.64.66.16,1.8-.18,2.49A.15.15,0,0,0,221.83,129.63Z"/><path class="cls-1" d="M222.94,128.46a7.07,7.07,0,0,0,0-1.78.1.1,0,1,0-.21,0,6.63,6.63,0,0,0,0,1.78A.12.12,0,0,0,222.94,128.46Z"/><path class="cls-1" d="M223.24,128.7a2.43,2.43,0,0,0,.37-.16.27.27,0,0,0,.34.11l.18-.1a.85.85,0,0,0,.63.14,28.29,28.29,0,0,0,11.59-4.83c1.38-.93,9.89-6.88,10.52-2.79,0,.24.45.18.42-.06-.38-3.18-3.71-2.25-5.91-1.36-.71.15-1.42.34-2.11.56h-.11a13.83,13.83,0,0,0-4,1.54,56.34,56.34,0,0,0-5.66,1.4,10.11,10.11,0,0,0-3.15,1.42c-.33.18-.66.37-1,.58a.6.6,0,0,0-.45.25c-.28.36-.47.6-.6.79,0-.06,0-.11,0-.17a.22.22,0,0,0-.43,0q0,.43,0,.87a.31.31,0,0,0-.14.3h0a.73.73,0,0,0-.07.24c-.31.12-.47.56-.15.76a1.63,1.63,0,0,1-.35.23C223,128.49,223.07,128.76,223.24,128.7Zm9.3-4.22c-.19.11-.85.42-1.67.79.85-.42,1.69-.9,2.51-1.4a.66.66,0,0,0,.19-.18.24.24,0,0,0,.11-.06c-.23.19-.46.39-.68.6Zm-5,2c.37-.08.74-.17,1.09-.28a14.06,14.06,0,0,1-1.37.43Zm9.92-4.87s0,0,0,0l.53-.17-.08,0Zm-6.81,2.24-.07,0c-.92.35-1.86.65-2.81.93A10.33,10.33,0,0,1,230,124Z"/><path class="cls-1" d="M213.4,145.68c-.17,5.14,2.9,8.91,4.65,13.55,2.25,5.94,3.22,12,6.55,17.53a.16.16,0,0,0,.28-.16c-2.93-4.94-4.36-10.41-6-15.87-1.5-5.15-5.53-9.53-5.51-15Z"/><path class="cls-1" d="M200.65,187.44a7.08,7.08,0,0,0-2.64.27.23.23,0,0,0-.1.38,8.51,8.51,0,0,0,1.31,1.17.24.24,0,0,0,.17.14l.27.21c.06,0,.14-.05.08-.1a1.66,1.66,0,0,0-.13-.14.19.19,0,0,0,.09-.19,1.48,1.48,0,0,1,0-.22c.36-.4,1-.21,1.47-.16a7,7,0,0,0,2,0h0a4.48,4.48,0,0,0,.72.11l.17.1-.4.11a7.83,7.83,0,0,1-2,.15c-.05,0-.05.08,0,.08.53,0,1,.13,1.58.14s1.16-.18,1.75-.17a.16.16,0,0,0,.16-.17,14.92,14.92,0,0,1,2.69,1.26c.06,0,.12-.05.07-.1C207.23,189.4,203,187.48,200.65,187.44Zm-2.14.68,0,0h0S198.52,188.11,198.51,188.12Zm.42.53.15.08a.31.31,0,0,0,0,.1Z"/><path class="cls-1" d="M201.24,185.91c-1.75,0-3.49.11-5.23.07a2.9,2.9,0,0,0-2.92-.15,12.42,12.42,0,0,1-1.83.81,1.92,1.92,0,0,1-1.85-.75,13,13,0,0,1-1-3.71c-.35-2.73,2.78-4.06,3.78-6.27.06-.14-.13-.26-.21-.12-1.91,3.19-4.8,3.56-4,7.83a9.62,9.62,0,0,0,1.86,4.15,13.39,13.39,0,0,0,2.15,2.11c.9.77,2.15.68,3.27.67a.21.21,0,0,0,.2-.14,1.68,1.68,0,0,0,1,.12s0,0,.06,0a1.31,1.31,0,0,1,1.12,1.09c0,.14.23.08.21-.05-.21-1.38-1.45-1.44-2.61-1.62a.25.25,0,0,0-.12,0,1.76,1.76,0,0,1-.31,0,3.9,3.9,0,0,1-.71-.2.22.22,0,0,0-.18,0c-.42-.15-.83-.35-1.2-.52a14.74,14.74,0,0,1-1.54-.77,7.29,7.29,0,0,1-1.5-2,1.78,1.78,0,0,0,1.7.54c1.73-.39,2.85-1.74,4.67-.58.15.09.26-.12.15-.22a41.17,41.17,0,0,0,5.09,0C201.37,186.11,201.37,185.91,201.24,185.91Z"/><path class="cls-1" d="M207.24,187.5s0,0,0,0c3.18.18,5.83,2.14,8.92,2.72a18.3,18.3,0,0,0,6.39-.22l-.09.11c-2.14,2-5.21,2-8.53,1.36-2.16-.44-4.13-.54-5.57,1.31-.05.06,0,.15.09.09,2.58-3,7.61.48,11.05-.31a6.38,6.38,0,0,0,1.93-.77,3.52,3.52,0,0,0,2.39-2.11l.36-.66c3.92-.9,4.6-6.47,3.6-9.7,0-.05-.09,0-.07,0,.81,2.85-.09,7.77-3.17,9a19.82,19.82,0,0,0,1.83-5.54,5.82,5.82,0,0,0-.31-2.77,6,6,0,0,0-1.11-2.7s-.12,0-.09.05a7.76,7.76,0,0,1,.52,1c-.38-.75-.81-1.46-1.2-2.13a0,0,0,0,0-.09,0c.92,2.25,1.83,4.23,1.53,6.66-.13.66-.3,1.32-.49,2-.39,1-.93,2.05-1.42,3.06a.15.15,0,0,0-.09.07,8,8,0,0,1-1.05,1.58h0c-3.51.49-6.59.59-9.93-.82A12.48,12.48,0,0,0,207.24,187.5Z"/><path class="cls-1" d="M208.86,205.65c-2.22-.72-3.55-2.16-5.83-2.62-1.53-.31-3.69.52-5.09.92-5.29,1.5-9.86,4.74-15.27,6-.09,0,0,.17.05.15a54.12,54.12,0,0,0,10.77-4.08c3.29-1.51,8.51-3.76,12.06-1.68a10.69,10.69,0,0,0,3.23,1.59A.16.16,0,0,0,208.86,205.65Z"/><path class="cls-1" d="M220,205.22c0,.09.19,0,.16-.06-2.15-5.53-7.61,2.83-10.7.5,0,0-.05,0,0,0C212.89,208.26,217.45,200.38,220,205.22Z"/><path class="cls-1" d="M221.17,207.37a8.38,8.38,0,0,1-.73-1.13s-.09,0-.08,0a5.09,5.09,0,0,0,.61,1.21C221.06,207.61,221.26,207.49,221.17,207.37Z"/><path class="cls-1" d="M220.86,208.09a.77.77,0,0,0,.93-.73c0-.07-.08-.1-.1,0a.52.52,0,0,1-.44.41,7.71,7.71,0,0,0-4,1.36l0,0a16.43,16.43,0,0,0-2.52,1.07,32.48,32.48,0,0,1-5.92,1.16l-.12,0a130.43,130.43,0,0,1-13.32-1,27.1,27.1,0,0,0-6.67-.24c-2.88.41-5.54,1.5-8.44,1.73a1.37,1.37,0,0,0,.17-.23.23.23,0,0,0-.05-.28,2,2,0,0,0,.42-.82.08.08,0,0,0-.14-.05c-.5.9-1.74,1.06-2.26,1.94-.55.23-1.12.41-1.69.66,0,0,0,0,0,0a5.32,5.32,0,0,1,1.12-.24s0,0,0,0a1.3,1.3,0,0,0,.61-.11.19.19,0,0,0,.22,0l0,0a2.58,2.58,0,0,0,1.29-.61,52,52,0,0,0,7.3-.58c1.16.43,2.42.63,3.59,1.11a20.17,20.17,0,0,0,2.6.82,47.24,47.24,0,0,0,10.59,3.09c3.3,1,7.74,1.47,9.4-1.65a.08.08,0,0,0-.13-.08,4.46,4.46,0,0,1-3.5,1.77,5,5,0,0,0,1-.39,4.3,4.3,0,0,0,1.94-1.88c.68-.73,1.35-1.49,2-2.23,0,.05.11.08.16,0l.86-.62s0,0,0,0a2.39,2.39,0,0,0,.87.16.12.12,0,0,0,0-.23,5,5,0,0,1-.67-.14c.18-.12.35-.25.54-.37a.09.09,0,0,0,.06.08.47.47,0,0,0,.32.1c.18,0,.18-.26,0-.28l-.16-.06c.82-.56,1.65-1.11,2.46-1.69a3.6,3.6,0,0,0-.27.73.06.06,0,0,0,.09.06,11.42,11.42,0,0,0,.65-1c0,.27-.08.54-.12.8,0,.07.08.12.11.05a4.89,4.89,0,0,0,.42-1.1.33.33,0,0,0,0,.15.2.2,0,0,0,.17.14.25.25,0,0,0,.19-.11.14.14,0,0,0,0-.17c0-.13.12-.26.15-.38a.29.29,0,0,0,0-.16l.11,0S220.84,208.09,220.86,208.09Zm-3.45,1.67.2-.07h0l-.76.58Zm1.6-1,.23-.11-.21.13S219,208.72,219,208.72Zm-27.55,2.7v0a.57.57,0,0,1,0-.13h.07a.74.74,0,0,0,.12.47A1.05,1.05,0,0,1,191.46,211.42Zm-1.78-.13a.23.23,0,0,0,.1.16l-.41-.14ZM202.41,215q-3.76-.87-7.48-1.88c-.52-.17-1.06-.33-1.6-.48-.64-.47-1.57-1.26-1.2-1.39a.14.14,0,0,0,.08-.07,22.92,22.92,0,0,1,3.09.11c5.62.63,11.21,1.76,16.86.72l0,0a.27.27,0,0,0,.26,0,2,2,0,0,1,.19-.12c-.09.15-.18.28-.27.41l-.24.2c-1.73,1.44-3.09,1.36-5.14,1.37a38.1,38.1,0,0,1-10-1,0,0,0,1,0,0,.09,34.78,34.78,0,0,0,10,1.28,9.07,9.07,0,0,0,4.58-.83C209.19,216.08,206.48,215.9,202.41,215Zm11-2.19a.1.1,0,0,0,.05,0l-.13.16C213.36,212.92,213.38,212.85,213.41,212.78Z"/><path class="cls-1" d="M209.1,206.19a10.13,10.13,0,0,0,1,.42c.1,0,.17-.13.07-.18a8.27,8.27,0,0,0-.91-.42C209.09,206,209,206.13,209.1,206.19Z"/><path class="cls-1" d="M219.88,132.32a19,19,0,0,0-3.89,4.81.1.1,0,0,0,.17.1,27.37,27.37,0,0,1,3.77-4.86S219.91,132.29,219.88,132.32Z"/><path class="cls-1" d="M214.7,139.82c-.33.76-.88,1.38-1.24,2.12a1.17,1.17,0,0,0,0,1.28c.06.09.21,0,.14-.08-.37-.52.09-1.23.34-1.71a13.63,13.63,0,0,0,.8-1.57C214.8,139.81,214.72,139.78,214.7,139.82Z"/><path class="cls-1" d="M75.07,317.07a.12.12,0,1,0,0,.23A.12.12,0,0,0,75.07,317.07Z"/><path class="cls-1" d="M95.23,161.79c-1.28-2.73-5.19-5.34-4.54-8.68.43-2.19.87-3.55.18-5.73-.41-1.26-1.12-1.64-2.13-2.31-.41-.27-1.24,0-1.53,0a3.82,3.82,0,0,1-1.49-.1,17.7,17.7,0,0,1-3.36-3.49,22.15,22.15,0,0,0-4.91-4.46c-1.53-1-3.81-1.9-5.64-1.32h0c-.14,0-.32,0-.38.15h0a3.39,3.39,0,0,0-1,.65c-2.93,2.87.32,9.62,2.75,11.76a.18.18,0,1,0,.25-.25,14.35,14.35,0,0,1-2.59-5.51c-.13-3,.43-6.84,4.39-4.54a13.46,13.46,0,0,1,2.87,2.39,27.31,27.31,0,0,0,2,11.48c-1.12.91-2.37,1.48-3.83.66a.17.17,0,0,0-.18.3c1.66,1.07,3,.44,4.57-.6,1.8-1.22,3.61-2.4,5.46-2.17a4,4,0,0,1,1.24,1.12,2.87,2.87,0,0,0-.73.21c-2.43,1.12-3,3.9-6,4.19a.1.1,0,0,0,0,.2,4.17,4.17,0,0,0,3.18-1.14c1.41-1.33,2.49-2.92,4.12-2.47.07.14.14.28.2.43a2.6,2.6,0,0,0-.71.31c-.15.1-.06.36.13.3a4.22,4.22,0,0,1,.77-.16,14,14,0,0,1,.44,1.34,5,5,0,0,0,1.25,3.51.41.41,0,0,0,0,.11,5.32,5.32,0,0,0-.15,1.48,3.88,3.88,0,0,1-.81,2.85c-.12.12.06.28.18.18a3.1,3.1,0,0,0,1.09-2c0-.25.09-.51.12-.76.82,2.12,2.3,4.71.28,5.37a.17.17,0,0,0,.09.33c1.38-.31,1.59-1.51,1.4-2.76a32.55,32.55,0,0,0-.88-3.6c3.55,2.84,3.8,6.34,1.5,10.11a4.79,4.79,0,0,0-.48,3.66c.06.34.61.26.59-.08C92.68,168.72,97.22,166.05,95.23,161.79ZM80.71,143.37c.07,2.36-.33,4.77.59,7,0,.12.24.08.2-.05-.67-2.23-.46-4.48-.6-6.75.1.1.19.21.3.3.09.24.18.48.25.72a7.73,7.73,0,0,1,.24,1.06s0,0,0,0a11.61,11.61,0,0,0,.42,4.35c-.38.34-.77.73-1.17,1.11a27.09,27.09,0,0,1-1.26-9Zm1.1,3.07a10.83,10.83,0,0,0,.56,2.68s0,0,0,0c0,.18,0,.36.07.54l-.14.12A15.61,15.61,0,0,1,81.81,146.44Zm-1.43,5.2a28.09,28.09,0,0,1-2.12-11.09c.41.45.82.91,1.21,1.37,0,3.22,0,6.41,1.22,9.43Z"/><path class="cls-1" d="M96.83,143.75a5.43,5.43,0,0,0,4.91-2.07.24.24,0,0,0-.35-.34c-1.24,1.06-2.69,2.16-4.42,1.93C96.65,143.22,96.51,143.69,96.83,143.75Z"/><path class="cls-1" d="M99.68,147c.51-.5,1.18-.83,1.66-1.35.13-.14-.07-.32-.21-.2-.55.45-1.16.82-1.68,1.32A.16.16,0,0,0,99.68,147Z"/><path class="cls-1" d="M102,148.18c.07-.49-.66-.5-.77-.06-.46.08-.45.81,0,.79A.75.75,0,0,0,102,148.18Zm-.73-.07h0Z"/><path class="cls-1" d="M100.9,152a.17.17,0,0,0,0-.34A.17.17,0,0,0,100.9,152Z"/><path class="cls-1" d="M102.48,154.42c-.27.3-.4.69-.67,1-.11.12.07.31.18.18.27-.31.4-.69.67-1C102.77,154.48,102.59,154.29,102.48,154.42Z"/><path class="cls-1" d="M104.13,156.78a17,17,0,0,0-1.35,2.7c-.06.15.19.22.24.06.34-.93.89-1.75,1.31-2.64A.12.12,0,0,0,104.13,156.78Z"/><path class="cls-1" d="M104.23,161.64a.21.21,0,0,0,0,.41A.21.21,0,0,0,104.23,161.64Z"/><path class="cls-1" d="M101.35,152.58c.4-.7,1-1.26,1.37-2,.1-.2-.2-.38-.3-.18-.39.71-1,1.3-1.31,2C101,152.6,101.27,152.74,101.35,152.58Z"/><path class="cls-1" d="M103.38,165.6c.27-.54.43-1.12.7-1.65.12-.24-.25-.45-.36-.21-.25.55-.38,1.14-.63,1.69C103,165.62,103.28,165.79,103.38,165.6Z"/><path class="cls-1" d="M192.6,224.65c3.47,3.33,14.28,8.16,16.8,1.61,5.27-.72,7.15-8.28,8.46-12.88a.12.12,0,0,0-.24-.06,43.08,43.08,0,0,1-3.31,8.19c-1.81,3.14-4.36,3.81-7.64,3.68a5.35,5.35,0,0,0,.64-.21,6.25,6.25,0,0,1,2.35-.61c.13,0,.13-.19,0-.21a11.24,11.24,0,0,0-2.71.28,5.63,5.63,0,0,0-1.56.44,16.38,16.38,0,0,1-12.9-1.71c-3.11-1.83-5.35-4.4-8.72-5.88-.07,0-.14.07-.06.11,3.39,1.73,5.7,5.09,8.91,7A.14.14,0,0,0,192.6,224.65Zm15.12,1.61h0l0,0Zm-13.29-.9c.48.18.95.35,1.42.5l-.06.12a13.61,13.61,0,0,1-2.07-.92C194,225.17,194.19,225.27,194.43,225.36Z"/><path class="cls-1" d="M187.65,215.06a2.62,2.62,0,0,0,.2-1.21.12.12,0,0,0-.23,0,3.36,3.36,0,0,1-.13,1.14A.09.09,0,0,0,187.65,215.06Z"/><path class="cls-1" d="M188.84,215.5c-.13.64-.27,1.55.54,1.75a.07.07,0,1,0,0-.14c-.67-.26-.55-1-.45-1.58C189,215.45,188.85,215.41,188.84,215.5Z"/><path class="cls-1" d="M191,217.7c0-.09-.12-.15-.16-.06a2.07,2.07,0,0,0-.16,1,.07.07,0,0,0,.14,0A3,3,0,0,1,191,217.7Z"/><path class="cls-1" d="M208.74,221.64c.16,0,.15-.23,0-.25-2.84-.36-5.54.45-8.38-.06-2.55-.45-4.72-2.16-7.28-2.66,0,0,0,0,0,0,2.72,1,5.23,2.63,8.12,3.17C203.69,222.33,206.21,221.41,208.74,221.64Z"/><path class="cls-1" d="M211.11,220.85s0,0,0,0h0s0,0,0,0a1.08,1.08,0,0,1-.8.47c-.07,0-.07.12,0,.11a.9.9,0,0,0,.87-.53s0,0,0,0Z"/><path class="cls-1" d="M213.3,220a1.82,1.82,0,0,1-.77.66c-.09,0,0,.18.08.14a1.74,1.74,0,0,0,.9-.67A.12.12,0,0,0,213.3,220Z"/><path class="cls-1" d="M213.57,218.57a.91.91,0,0,1,.75.5.1.1,0,0,0,.17-.11,1.05,1.05,0,0,0-.92-.5C213.5,218.46,213.51,218.56,213.57,218.57Z"/><path class="cls-1" d="M214.17,217.06a4.26,4.26,0,0,0,.68,1A.08.08,0,0,0,215,218c-.11-.39-.47-.68-.68-1A.08.08,0,0,0,214.17,217.06Z"/><path class="cls-1" d="M214.82,212.59a2.79,2.79,0,0,1,1,.26c.12.05.22-.12.1-.17a2.38,2.38,0,0,0-1.05-.24C214.72,212.44,214.73,212.58,214.82,212.59Z"/><path class="cls-1" d="M216.38,212.36a.1.1,0,0,0,.1-.17,1.6,1.6,0,0,0-.87-.38c-.16,0-.23.2-.07.24S216.09,212.28,216.38,212.36Z"/><path class="cls-1" d="M218,212.81l.24-.51c0-.09-.09-.17-.14-.08s-.18.33-.26.5A.09.09,0,0,0,218,212.81Z"/><path class="cls-1" d="M218.34,210.79c.18-.45.5-.81.66-1.25.05-.11-.1-.16-.17-.1a2.79,2.79,0,0,0-.69,1.29C218.1,210.87,218.29,210.91,218.34,210.79Z"/><path class="cls-1" d="M201,208.51c-.83.08-1.48-.82-2.23-1.07a3.1,3.1,0,0,0-1.75.37,15,15,0,0,1-5.69,1.48.06.06,0,0,0,0,.11,13.78,13.78,0,0,0,3.44-.47c1.44-.33,3.28-2.1,4.75-1s2.88.7,4.73.78a.07.07,0,0,0,0-.14A20.77,20.77,0,0,0,201,208.51Z"/><path class="cls-1" d="M206,208.91s0,.05,0,0c.81-.1,1.44.62,2.26.44.05,0,0-.09,0-.08C207.43,209.5,206.79,208.79,206,208.91Z"/><path class="cls-1" d="M209.14,209.37l.17.08s.06,0,0,0l-.17-.09S209.11,209.36,209.14,209.37Z"/><path class="cls-1" d="M210.36,209.49a.05.05,0,1,0,.1,0,.93.93,0,0,1,.14-.14s0-.1,0-.08S210.44,209.33,210.36,209.49Z"/><path class="cls-1" d="M211,209c-.06.2-.1.39-.15.59a.07.07,0,0,0,.13,0,4.06,4.06,0,0,0,.19-.59A.09.09,0,0,0,211,209Z"/><path class="cls-1" d="M211.74,209.43a.08.08,0,1,0,0-.16A.08.08,0,1,0,211.74,209.43Z"/><path class="cls-1" d="M193,211.81a0,0,0,0,0,0,.07c.49.17,1,.29,1.49.44.08,0,.11-.09,0-.12C194,212.05,193.5,212,193,211.81Z"/><path class="cls-1" d="M214.11,208.85c-.11.1.06.27.17.17a5.68,5.68,0,0,1,1.94-1.14c.09,0,.05-.18,0-.15A4.47,4.47,0,0,0,214.11,208.85Z"/><path class="cls-1" d="M218.82,207.34a0,0,0,1,0,0-.07S218.78,207.34,218.82,207.34Z"/><path class="cls-1" d="M104,137.83c.22-.29-.25-.63-.49-.38-2.14,2.33-5,4.83-8.4,4.25-.19,0-.27.24-.08.28C98.46,142.82,102,140.53,104,137.83Z"/><path class="cls-1" d="M149.6,77.78c-1-.63-2-1-3-1.64,0,0-.08,0,0,.07,1,.63,2,1.07,3,1.69C149.61,77.94,149.67,77.83,149.6,77.78Z"/><path class="cls-1" d="M158,78.08c-1.92-2.07-4.6-3.31-7-4.67a.11.11,0,0,0-.11.19,44.48,44.48,0,0,1,7,4.66A.13.13,0,0,0,158,78.08Z"/><path class="cls-1" d="M162.32,69.42c-.12-.09-.28.07-.16.17,1.88,1.56,3.89,3,5.64,4.68.13.12.33-.07.2-.2C166.26,72.35,164.21,71,162.32,69.42Z"/><path class="cls-1" d="M113.51,230.2c4.68,11.43,8.73,23.08,12.56,34.82,3.62,11.06,6.38,22.71,10.87,33.45,1.74,4.16,4.49,3,7.6.82,2-1.35,3-2.47,4.64.23a60.56,60.56,0,0,1,3.29,6.6c2.13,4.65,4.47,8.76,8.36,12.15.1.09.26-.07.15-.16-6.57-5.85-8.46-14.28-13.31-21.32a.12.12,0,0,0-.18,0c-2,1.59-4.17,3.46-6.67,4.32-2.94,1-4.1-3.67-4.75-5.53-2.51-7.15-4.64-14.45-6.95-21.67-4.72-14.73-9.61-29.41-15.5-43.72C113.6,230.1,113.48,230.13,113.51,230.2Z"/><path class="cls-1" d="M167,323.47a.1.1,0,0,0-.17.1c5.1,8.44,9.32,17.34,14,26,.06.12.23,0,.17-.1C176.4,340.76,172.1,331.9,167,323.47Z"/><path class="cls-1" d="M193.18,64.34a3.9,3.9,0,0,0-.35.71,12.33,12.33,0,0,1-1.18-3.9c0-.11-.18-.06-.16,0a14,14,0,0,0,1.18,4.32.17.17,0,0,0,.3,0c.23-.31.28-.68.5-1S193.3,64.16,193.18,64.34Z"/><path class="cls-1" d="M193.44,62.17c0-.59-.23-1.16-.26-1.75a.11.11,0,0,0-.22,0c0,.59.22,1.16.24,1.75C193.21,62.33,193.45,62.33,193.44,62.17Z"/><path class="cls-1" d="M168.3,141.25a.08.08,0,0,0,.08,0,.07.07,0,0,0,.06.07,1.29,1.29,0,0,0,.38.12.1.1,0,0,0,.07-.18.9.9,0,0,0-.35-.18.11.11,0,0,0-.15.08l0,0a.94.94,0,0,0-.73.1c-.05,0,0,.1,0,.08A1.3,1.3,0,0,1,168.3,141.25Z"/><path class="cls-1" d="M166.46,142.12a14.93,14.93,0,0,1,1.64-.35c.1,0,.08-.19,0-.19a6.15,6.15,0,0,0-1.64.4C166.34,142,166.37,142.15,166.46,142.12Z"/><path class="cls-1" d="M168.74,142.43c.08,0,0-.17-.07-.15a8.66,8.66,0,0,0-1.5.73c-.06,0,0,.12.05.09C167.72,142.87,168.24,142.67,168.74,142.43Z"/><path class="cls-1" d="M168.55,143.39a5.73,5.73,0,0,0-.81.44,0,0,0,0,0,0,.07,5.73,5.73,0,0,1,.81-.44S168.6,143.37,168.55,143.39Z"/><path class="cls-1" d="M168.47,144.24a2,2,0,0,0-.31.19c-.09.06,0,.18.09.11a1.75,1.75,0,0,1,.29-.18C168.62,144.32,168.55,144.2,168.47,144.24Z"/><path class="cls-1" d="M168.75,145.53c.24-.13.46-.3.7-.43s0-.29-.13-.22-.45.31-.69.44S168.62,145.61,168.75,145.53Z"/><path class="cls-1" d="M169.76,146.22a.11.11,0,1,0,0-.21A.11.11,0,0,0,169.76,146.22Z"/><path class="cls-1" d="M170.72,146.24a1.33,1.33,0,0,0-.33.34s0,.12.09.09a1.33,1.33,0,0,0,.34-.33C170.86,146.28,170.78,146.19,170.72,146.24Z"/><path class="cls-1" d="M172,147a.86.86,0,0,1-.13-.41.09.09,0,0,0-.17,0,1.19,1.19,0,0,0,.13.49C171.85,147.22,172,147.12,172,147Z"/><path class="cls-1" d="M173,146.71a1.88,1.88,0,0,0-.17-.47c-.08-.15-.3,0-.23.13s.14.28.22.42S173,146.82,173,146.71Z"/><path class="cls-1" d="M174.45,146.18a3,3,0,0,1-.27-.35c0-.14-.25-.08-.22.07a.54.54,0,0,0,.4.42C174.45,146.36,174.49,146.24,174.45,146.18Z"/><path class="cls-1" d="M175,145.29a.12.12,0,0,0,0-.23A.12.12,0,1,0,175,145.29Z"/><path class="cls-1" d="M175,144.27a5,5,0,0,0,.42.38c.09.06.22-.07.15-.16a4.72,4.72,0,0,0-.37-.41C175,144,174.85,144.15,175,144.27Z"/><path class="cls-1" d="M175.76,143.2a1.06,1.06,0,0,0-.5-.09.13.13,0,0,0,0,.26,1.83,1.83,0,0,1,.4,0C175.79,143.44,175.89,143.25,175.76,143.2Z"/><path class="cls-1" d="M175.51,142.21a.09.09,0,1,0,0,.18A.09.09,0,0,0,175.51,142.21Z"/><path class="cls-1" d="M175.85,141.37a1.1,1.1,0,0,1-.62.06c-.16,0-.24.21-.07.25a.93.93,0,0,0,.78-.09C176.05,141.52,176,141.32,175.85,141.37Z"/><path class="cls-1" d="M176.2,140.5a2.46,2.46,0,0,0-1.31.4c-.12.06,0,.24.11.18a4.82,4.82,0,0,1,1.23-.36C176.36,140.7,176.32,140.51,176.2,140.5Z"/><path class="cls-1" d="M229.42,136.75c-.76-.18-1.56-.13-2.33-.26a.06.06,0,0,0,0,.12,11.32,11.32,0,0,0,2.33.37C229.52,137,229.54,136.78,229.42,136.75Z"/><path class="cls-1" d="M228.57,137.38a.08.08,0,0,0,0-.16c-.51,0-1,0-1.56,0a.07.07,0,0,0,0,.14A13.55,13.55,0,0,0,228.57,137.38Z"/><path class="cls-1" d="M228.6,138.28a.11.11,0,0,0,0-.21,7.22,7.22,0,0,1-.93,0,.11.11,0,0,0,0,.21A1.85,1.85,0,0,0,228.6,138.28Z"/><path class="cls-1" d="M228.3,139l-.35,0a.11.11,0,1,0,0,.21.61.61,0,0,0,.42-.09A.09.09,0,0,0,228.3,139Z"/><path class="cls-1" d="M228.74,139.83a1.9,1.9,0,0,0-.34.2.1.1,0,0,0,.1.17,2,2,0,0,0,.31-.19C228.89,140,228.85,139.79,228.74,139.83Z"/><path class="cls-1" d="M230.26,141.48a1.35,1.35,0,0,0-.27.48c0,.11.13.16.17,0a.86.86,0,0,1,.23-.39C230.47,141.53,230.33,141.39,230.26,141.48Z"/><path class="cls-1" d="M231.25,142.17a.47.47,0,0,0,.14-.29c0-.09-.12-.13-.14,0s-.07.15-.1.22S231.19,142.23,231.25,142.17Z"/><path class="cls-1" d="M229.2,140.81,229,141c-.08.08,0,.2.11.12l.17-.17s0,0,0,0a0,0,0,0,0,0-.06C229.36,140.83,229.27,140.74,229.2,140.81Z"/><path class="cls-1" d="M232.68,142.09a1.22,1.22,0,0,1-.1-.24.07.07,0,0,0-.13,0,.41.41,0,0,0,.15.27S232.71,142.14,232.68,142.09Z"/><path class="cls-1" d="M233.7,141.54c.05,0,.07-.06,0-.09a1,1,0,0,1-.22-.25c-.06-.09-.2,0-.14.08S233.53,141.52,233.7,141.54Z"/><path class="cls-1" d="M234.42,140.29c.06,0,0-.13-.06-.1h-.13c-.07,0-.13.07-.06.1S234.28,140.36,234.42,140.29Z"/><path class="cls-1" d="M234.82,139a.09.09,0,0,0,0,.18A.09.09,0,0,0,234.82,139Z"/><path class="cls-1" d="M235.11,138.17a.08.08,0,0,0-.08.14l.18.11a.09.09,0,0,0,.12,0l0-.05s0-.11-.05-.12Z"/><path class="cls-1" d="M235.38,137.19c-.07-.07-.18,0-.11.1l.06.06c.07.07.18,0,.11-.1Z"/><path class="cls-1" d="M235.42,136.25a.12.12,0,0,0-.09.22.38.38,0,0,0,.41,0,.08.08,0,0,0,0-.15A1.7,1.7,0,0,0,235.42,136.25Z"/><path class="cls-1" d="M235.64,136c.13,0,.13-.21,0-.21a1.22,1.22,0,0,0-.46.09.08.08,0,1,0,0,.15A2,2,0,0,1,235.64,136Z"/><path class="cls-1" d="M234.7,135.34a1.75,1.75,0,0,0,.55,0,.09.09,0,0,0,.07.09,1.42,1.42,0,0,0,.65-.07c.08,0,.07-.16,0-.16l-.3,0a2.26,2.26,0,0,0,1-.68c.1-.13-.09-.27-.22-.21a7.15,7.15,0,0,1-1.76.85C234.55,135.16,234.59,135.33,234.7,135.34Z"/><path class="cls-1" d="M108.27,201.14c-4-4.77-5.45-11.36-6.63-17.31a.07.07,0,1,0-.14,0c1.11,6,2.57,12.65,6.7,17.36C108.24,201.27,108.31,201.19,108.27,201.14Z"/><path class="cls-1" d="M110.9,204.38c-.14,0-.2-.09-.2-.2s-.27-.17-.26,0a.47.47,0,0,0,.46.47C111.07,204.67,111.07,204.4,110.9,204.38Z"/><path class="cls-1" d="M122,139.3c.16,0,.23-.22.07-.25-6.71-1.25-4.48-8.49-4.41-13.37a.13.13,0,1,0-.25,0C117.36,130.7,115.2,138.08,122,139.3Z"/><path class="cls-1" d="M123.75,144a7,7,0,0,0-1.61,1.46,2,2,0,0,0-.41,1.89,2,2,0,0,0,1.27,1.05c2.36.73.29,5.87,0,7.71,0,.15.2.21.23.06.55-2.49,1-5,1.51-7.5a.12.12,0,0,0-.09-.16c-1.57,0-2.2-1.14-1.87-3.35a9,9,0,0,1,1.89-1.43.1.1,0,0,0,0-.12c-.25-1.37-.86-1.5-2.09-2,0,0-.06,0,0,0C123,141.9,125.7,142.87,123.75,144Z"/><path class="cls-1" d="M117.55,118.68a.51.51,0,0,0,.52.51,0,0,0,0,0,0,0,.48.48,0,0,1-.49-.48S117.55,118.65,117.55,118.68Z"/><path class="cls-1" d="M117.67,123.27l.49-.51c.11-.11-.07-.29-.18-.17l-.51.49C117.34,123.2,117.54,123.4,117.67,123.27Z"/><path class="cls-1" d="M117.57,112.06a.12.12,0,0,0,0,.23A.12.12,0,0,0,117.57,112.06Z"/><path class="cls-1" d="M124.43,160.72c1,2.64,2.08,5.3,3,8a.13.13,0,0,0,.26-.07c-.9-2.71-1.93-5.36-3-8C124.64,160.47,124.36,160.54,124.43,160.72Z"/><path class="cls-1" d="M105,141.14c-.39,1.49-1,3.63-2.42,4.47a.07.07,0,1,0,.07.13c1.5-.85,2.17-3,2.59-4.53A.13.13,0,0,0,105,141.14Z"/><path class="cls-1" d="M106,139.09a10.66,10.66,0,0,0-2.54,4c-.06.17.2.23.26.07a11,11,0,0,1,2.46-3.94C106.27,139.15,106.09,139,106,139.09Z"/><path class="cls-1" d="M110.07,222.84a2.07,2.07,0,0,0,1.59-.56.13.13,0,1,0-.19-.19,2,2,0,0,1-1.4.43A.16.16,0,0,0,110.07,222.84Z"/><path class="cls-1" d="M108.07,215.53a.16.16,0,0,0,0,.31A.16.16,0,0,0,108.07,215.53Z"/><path class="cls-1" d="M231.63,75.12c-.07-.06-.18,0-.11.11a50.32,50.32,0,0,1,4,4c0,.06.15,0,.1-.08A37,37,0,0,0,231.63,75.12Z"/><path class="cls-1" d="M234.86,73.22c1.55,1.56,3.11,3.11,4.64,4.7.09.1.25-.06.15-.16-1.59-1.52-3.13-3.08-4.69-4.64C234.89,73.06,234.79,73.16,234.86,73.22Z"/><path class="cls-1" d="M243.14,77.27c.11.09.32,0,.22-.17-2.05-2.67-5-5.61-8.43-6.34a.08.08,0,0,0,0,.16C238.55,71.87,240.36,75.08,243.14,77.27Z"/><path class="cls-1" d="M125.49,226c.11.09.26-.06.16-.16-1.71-1.54-3-3.46-4.78-5-.07-.06-.17,0-.1.1C122.49,222.52,123.74,224.5,125.49,226Z"/><path class="cls-1" d="M121,225a13.24,13.24,0,0,0,3,3.8c.1.11.26,0,.16-.16a18.57,18.57,0,0,1-3-3.7C121.08,224.83,121,224.89,121,225Z"/><path class="cls-1" d="M120.75,230.75a12.78,12.78,0,0,0,2.25,2,.12.12,0,0,0,.13-.21,22.07,22.07,0,0,1-2.24-2C120.8,230.53,120.66,230.66,120.75,230.75Z"/><path class="cls-1" d="M241.35,202.58a.1.1,0,0,0,0,.2c9.1,2.69,4.59,10.55,2.24,16.32-.45,1.11-.33,1.25.23,2,1.78,2.35,1.4,4.53,1.91,7.14,0,.2.33.12.29-.08-.34-1.89.33-4.87-1.06-6.47-2.76-3.16,2.45-6.87,2.72-10.27C248,206.81,245.8,203.7,241.35,202.58Z"/><path class="cls-1" d="M263.76,258.53c-7.7-4.07-15.34-8.31-23-12.37a14,14,0,0,1,1.08-1.25.94.94,0,0,0,.27-.52,13.09,13.09,0,0,0,2-3.65,26.53,26.53,0,0,0,2.43-4.36c1.54-3.68-1.82-7.95-4.4-10.18-1.55-1.35-2.23-.67-1.81-3.09.62-3.54,2.48-6.32,3.6-9.66,1.22-3.59-.58-6.58-3.25-8.52a10.86,10.86,0,0,1-.43-1.07,9.62,9.62,0,0,1,.91-7,.34.34,0,0,0,0-.34l1.65-3.7a36.62,36.62,0,0,0,1.48-4.07c.28-.62.56-1.25.8-1.87,2.16-5.47,3.44-11.32,5-17a38.38,38.38,0,0,0,1.65-13.58c-.32-3.77-1.58-7.43-2.7-11.07a49.4,49.4,0,0,1-.69-7c-.08-6,1.35-12.16,2.59-18,.76-3.57,1.4-7.16,1.84-10.72l.06-.08c1.77-3.34,2.8-7,4-10.59,1.08-3.17,2.9-5.87,3-9.27a6.5,6.5,0,0,0-2.7-4.77c-1.63-1.22-3.45-2.1-5-3.45A6.23,6.23,0,0,1,251,79.69c1.52-4.49,8.35-9.34,5.07-14.22-2-3-5.35-4.46-7.39-7.38a18,18,0,0,1-2.58-5.71c-.18-.88-.36-1.76-.56-2.63-.42-2.4-.6-4.88-.88-7.33a1.35,1.35,0,0,0-.64-1.05,19.82,19.82,0,0,0-3.69-5.5c-3.72-10-8.91-19.3-17.17-25.54a39.53,39.53,0,0,0-14.76-6.9C202.34,1.36,194.81,2,188.83,2.6a58.09,58.09,0,0,0-12.12,2.79c-2.25.69-4.46,1.48-6.61,2.34a55.37,55.37,0,0,0-20.37-7A60.53,60.53,0,0,0,135.29.19c-2.82.2-5.7.5-8.58.9-25.57,1-50.82,18.6-68.47,35.47-7.81,7.46-14.49,15.9-14.75,27-.08,3.37.53,9.11.15,14.41-2.24,5.7-8.12,10.3-11.36,15.19-4.24,6.41-4,14.92-2.85,22.15A38.27,38.27,0,0,0,33,126.61c1.73,3.44,4.48,6.32,6.39,9.67,2.82,4.94-2.24,6.55-4.79,9.68-1.86,2.29-.93,4.73-1,7.22a.44.44,0,0,0-.27.35c-1,5.07-7.26,11.28-4.21,16.76a10.84,10.84,0,0,0,1.45,2,11.81,11.81,0,0,1-.95,1.21c-5.5,3-12.45,2.17-17.71,6-3.26,2.38-5.19,6-6.27,9.92a20,20,0,0,0-1.06,4.78,20.76,20.76,0,0,0-.12,4.17A18.93,18.93,0,0,0,12,213.16l.12.08c.33.3.65.6,1,.89,1.91,1.66,3.93,3.2,5.82,4.89,4,3.61-.13,6.42-2.39,7.74a29.67,29.67,0,0,1-3.26,1.45,18.81,18.81,0,0,0-4.45,2.52.33.33,0,0,0-.17.14A4.48,4.48,0,0,0,7,234.41c0,.25,0,.49.06.73a3.39,3.39,0,0,0,.21,1.23,6.21,6.21,0,0,0,2.45,3.8c2.7,3.68,7.74,6.26,11.92,6.9.55.09,1.13.15,1.72.2-7.84,3.83-15.22,8.55-23.22,12-.23.1-.06.51.18.42,7.34-2.85,14.34-6.32,21.44-9.64,6.49,2.12,12.82,3.7,17.71,9,.15.17.39-.08.25-.25-4.63-5.37-11.16-6.92-17.63-8.87,1.57-.73,3.15-1.46,4.74-2.17,5.27,1,10.89,2.73,15,6.26a9.5,9.5,0,0,1-.46,2.24c-4.5-3.83-10.1-6.55-16.07-6.67a.08.08,0,0,0,0,.16c5.93.28,11.48,3.14,15.89,7-1,2.8-2.82,5.67-2.93,8.55a11.29,11.29,0,0,0,4.32,9.25c3.1,2.64,7.21,3.94,10.89,5.55a20.9,20.9,0,0,1,10.46,9c-.25,3.7-2,7.68-2.29,11.54-.66,7.68,2.65,13.82,5.65,20.65.14.32.68.09.56-.23-2.19-6-4-11.09-4-16.83a.36.36,0,0,0,.44-.31c0-.25.11-.5.16-.75a13.65,13.65,0,0,0,.64,3.08.45.45,0,0,0,.86-.23c-.92-3.4-.32-6.51.59-9.62C72.32,312,80.1,327,88.36,341.31c.16.27.53,0,.41-.24-3.29-7.6-7.14-15-10.76-22.41a.68.68,0,0,0,.37.06,32.81,32.81,0,0,1,15.07,1.64.62.62,0,0,0,.38.51l1.14.47c-.25,1.45-3.5,5.32-3.85,5.79a21.58,21.58,0,0,0-3,5.6c-.14.37.25.61.56.56,2.25-.32,16.25-.35,12,3.34-3.57,3.1-7.07,6-9.12,10.38a.36.36,0,0,0,.31.53c5.58,0,10.48.67,15.18,3.91.33.22.61-.3.3-.52-3.77-2.82-7.81-3.78-12.45-4.05-4.3-.24,0-3.88,1.57-5.57,2-2.1,4.31-3.9,6.5-5.8,5.67,10.79,11.77,21.4,16.23,32.77.16.42.84.24.68-.18-4-10.51-9.06-20.51-14.2-30.49-2.54-4.93-4.91-9.91-7.21-14.92a97.67,97.67,0,0,0,25.13,4.82c5.42,4.64,11.5,9.12,17.84,11.53.41.16.61-.45.28-.67l-1.17-.79c.45,0,.71-.29,1.18-.32.3,0,.55.29.7.52a3.15,3.15,0,0,1,.16,2.85c-.09.21.21.33.35.21a3.37,3.37,0,0,0,.64-4.06,2.12,2.12,0,0,0-1.72-1.11,2.51,2.51,0,0,0-.85.1,3.85,3.85,0,0,1,1.65-1c1.09-.36,2.5,0,3.63-.07a7.83,7.83,0,0,0,2.27-.63c1.14-.42.84,2.3.56,3.7a.51.51,0,0,0-.33.61,2.11,2.11,0,0,0,.11.4.42.42,0,0,0,0,.12c.1.34.12.58-.54.85a.53.53,0,0,0-.37.49c0,2.09-.32,4.15-.18,6.25a.19.19,0,0,0,.38,0c.08-.8.21-1.59.34-2.38a25.63,25.63,0,0,0,4.32-.72,5,5,0,0,1,1.84,0c.21,0,.15.84.16,1.05a1.57,1.57,0,0,1-.77,1.58c-1.28.72-5.43-.18-5.89,1.59a.34.34,0,0,0,.15.36c.69.39,1.87-.16,2.62-.25a24.49,24.49,0,0,0,3-.36c2.21-.54,2.3-2.71,1.87-4.57a.58.58,0,0,0-.41-.41c-2.41-.59-4.52.84-6.8,1.31a30,30,0,0,0,.38-3.16,1.51,1.51,0,0,0,.92-2,5.65,5.65,0,0,0,.44-1.08,1.14,1.14,0,0,0,.31-.48,31.58,31.58,0,0,0,1.68-2.78c.21-.37-.31-.79-.6-.46a8.89,8.89,0,0,0-1.08,1.59c0-1.79-.77-3.32-2.79-2.55-2.74,1.05-7.76-.2-8.15,4a.16.16,0,0,0,.15.16s0,.06,0,.09a.57.57,0,0,0,0,.22c-4.57-3.07-9-6.13-13.25-9.47,3,.14,6,.18,8.87.14a.31.31,0,0,0,0-.61q-5.3-.18-10.45-.8c-2.25-1.81-4.46-3.7-6.62-5.73-7.73-7.26-14.28-15.55-20.68-24a309.49,309.49,0,0,1-28.31-43.83c-.32-.85-.63-1.71-.94-2.56,1.45-3.26,2.4-6.47,1.46-9.53a25,25,0,0,1,6.34-12.54c1.12-1.24,2.25-2.45,3.38-3.66a13.5,13.5,0,0,0,2.76,1.33,14,14,0,0,0,2.23.69c-3.47,4.53-7.26,8.94-7.41,14.83a.24.24,0,0,0,.47,0c.42-6,4.6-10.15,8-14.76l.39-.06a34.63,34.63,0,0,0-1,3.8c0,.12.16.17.19.05a53.33,53.33,0,0,1,1.81-5.3l.43-.83a.17.17,0,0,0,.09-.16c4.76-9.26,7.89-19.89,7.51-30.35.7-2.14,1.63-4.19,2.45-6.3,1.19-3.1,1.09-5.74.93-9a.31.31,0,0,0-.07-.14,4.94,4.94,0,0,0,.4-.76c1.7-2,.66-5.35,1.57-7.66,0-.09-.12-.16-.17-.07a16.2,16.2,0,0,0-1.26,4.75.26.26,0,0,0-.15.21c-.46,5.28-5.22,5-9.72,3.57a.33.33,0,0,0-.2-.18c-5.1-1.66-8.4-7.54-12-11.25-3.2-3.3-6.48-6.3-9.36-9.78A42,42,0,0,1,63,145.51c0-2.61,0-5.39.31-8.08a20,20,0,0,1,7.08-11.23.66.66,0,0,0,.25-.36c4.27-.7,9.45,2.6,12.19,5.12,1.9,1.75,3.67,3.6,5.61,5.3,1.64,1.44,4,2,4.41,4.36.1.53.88.3.8-.22a2.38,2.38,0,0,0,0-.26,5.08,5.08,0,0,0,2,.39c2.31.06,5-1.54,6.65-3a7.59,7.59,0,0,0,2.42-4.36c2.2-1.72,4.67-3.23,6.07-5.71a.13.13,0,0,0-.23-.13c-1.41,2.36-3.67,3.86-5.77,5.53a20.47,20.47,0,0,0,.31-3.26c2.39-2.1,4.81-4.14,7.31-6.11a19,19,0,0,1-4.36,9.78.18.18,0,0,0,.26.25c4.44-4.36,5-9.92,5.38-15.72l.06,0c.11-.05.06-.22,0-.25.05-.88.09-1.76.15-2.65l.14-.09c.16-.09,0-.31-.12-.26a49.63,49.63,0,0,1,9-25.73,49.86,49.86,0,0,1,9.47-8.29c6.37-4.33,13.4-6.15,20.6-8.07,2.21,2.09,4.76,3.79,7,5.8a.11.11,0,0,0,.16-.16c-2.06-2.19-4.71-3.74-7-5.69l2.72-.73c2.9,1.58,5,4.14,7.26,6.45-3.05.82-6.51.53-10.11.15l-.29,0a7.84,7.84,0,0,1-2.91-2.15c-.08-.11-.27,0-.18.14a7.19,7.19,0,0,0,2.35,1.94c-6.41-.63-11.94-.59-18,2.25-.12,0,0,.23.1.17,7.45-3.27,14.29-2,22-1.13,3.85.42,8.22.49,11.31-2.24,5.91-5.19,7.21-13,14-16.53l.49.05a45.61,45.61,0,0,0,6.41.69,17.58,17.58,0,0,0,.42,3.07c-1.31-1-2.5-2-3.09-2.4-2.06-1.41-3.92-1.91-5.78,0a.1.1,0,0,0,.12.16c3.67-2.43,6.37,1.77,9.35,3.72l.17.3a.21.21,0,0,0,.33,0,5.23,5.23,0,0,0,.58.29,6.72,6.72,0,0,0,.64.23c.07.22.13.44.21.66a.18.18,0,0,0,.35-.1c0-.14-.06-.29-.09-.44a2.73,2.73,0,0,0,2.54-.4c2.21-2.14.88-5.83,1.55-8.64a.94.94,0,0,0,.4,0,11.3,11.3,0,0,0,5.64,1.49c.92,1.55,1.41,3.31,2.37,4.84.13.21.47,0,.33-.2-1-1.46-1.47-3.15-2.36-4.65a12.48,12.48,0,0,0,2.28-.29,16.37,16.37,0,0,0,2.93,7.23c-4-2.11-7.29-5.4-11.41-7.38-.25-.12-.48.25-.22.38,6.83,3.62,12.12,11.48,20.77,10.18,2.44-.36,4.83-1.87,7.22-3.23.13.1.36,0,.31-.18,2.52-1.42,5-2.64,7.62-2.14a25.91,25.91,0,0,1,6.31,2.31c.29.27.59.53.88.78a22.08,22.08,0,0,0,3.1,3.09,7,7,0,0,0,1.92,1.12l0,0a7.48,7.48,0,0,0,.83,2.1c0,.16,0,.32-.07.48-1.95-.3-3.49-1.68-5.11-2.78-.08-.06-.16.07-.08.13,1.65,1.13,3.18,2.49,5.11,3-.36,1.44-1,2.85-.62,4.26a8.4,8.4,0,0,0,2.91,4.32,19.43,19.43,0,0,1,4.07,4.85,65.91,65.91,0,0,1,1.18,9.65c.5,9.57-2.08,18.65-3.83,28a58.65,58.65,0,0,0,.26,23.24c1.14,5.65,1.86,11,1,16.73-.11.81-.27,1.61-.44,2.41-.45,1.7-.94,3.38-1.39,5-.28,1-.57,2-.85,3-.25.81-.49,1.63-.73,2.44a.33.33,0,0,0,0,.17c-.24.83-.48,1.66-.73,2.48a.16.16,0,0,0-.05.08c0,.11,0,.23-.07.35-.53,1.76-1.05,3.52-1.59,5.27-1.15,3.69-2.9,7.45-4.07,11.21-1.68,3.66-3.52,7.26-5.38,10.85a88.33,88.33,0,0,0-6.72,13.58,79.66,79.66,0,0,0-4.53,12.7c-.65,1.69-1.14,3.45-1.68,5.2-.05.15-.1.3-.14.46s-.07.2-.11.31c-.39.91-.77,1.82-1.15,2.73-.68,1.13-1.37,2.27-2.09,3.38A21.22,21.22,0,0,1,201,255a30.93,30.93,0,0,1-14.09-3.54.81.81,0,0,0-.42-.34l-.68-.26c-.8-.46-1.57-.95-2.32-1.43a69,69,0,0,0-14.34-9.1.08.08,0,0,0-.08.14,61.59,61.59,0,0,1,6,4,.12.12,0,0,0,0,.16,8.86,8.86,0,0,1,1,1.63.21.21,0,0,0,.06.1l.36.69a76.38,76.38,0,0,0-10.8-3.75,84.21,84.21,0,0,1-21-8.35c-12.18-6.81-22.12-16.6-30.72-27.48-.08-.1-.26,0-.18.14a112.4,112.4,0,0,0,28.86,27.77,70,70,0,0,0,19.16,8.9c3.87,1.09,7.76,1.95,11.56,3.25s7.26,3.47,11.09,4.7c1,.83,2,1.65,2.95,2.46,2,2.36,3.94,4.52,6.76,4.74a4.54,4.54,0,0,1-3,.65,6.12,6.12,0,0,1-2.9-2.33c-1.35-1.63-2.37-3.53-4-5-.12-.11-.31.07-.19.19,1.58,1.55,4,6.42,6.75,7.72a7.45,7.45,0,0,1-3.25-.21c-3.91-1.13-6.19-5.55-7.66-9,0-.09-.19,0-.16.07,2.11,5.84,7.26,11,12.7,9.72a18.47,18.47,0,0,0-1.82,2.27c-2.28,3.37-2.45,7.9-4,11.6-.08.19.25.33.33.15,1.51-3.39,2.17-7.09,4.06-10.31,1.49-2.51,4.16-3.48,6.33-5-12.74,26.26-26.25,51.93-45.06,74.49-.21.26.14.62.36.37,17.48-19.61,31.58-42.37,42.87-66.15,4,4,7,8.87,10.46,13.37-.09.61-.17,1.21-.26,1.81-1.35,8.72-2,17.51-3.1,26.26-1.12,9.38-3.65,18.41-5,27.73-1.17,7.91-2,16.54-6.89,23.15-.2.27.26.62.47.36,4.47-5.3,5.87-12.33,7.11-19,1.77-9.51,4.26-18.84,5.72-28.4.78-5.12,1.35-10.25,1.93-15.39a.54.54,0,0,0,.18.15c3.11,1.41,6.25,2.73,9.3,4.28a30.38,30.38,0,0,1,5.8,3.87c1.64,1.38,3.57,2,.69,2.3-4.95.56-10.18,2.2-14.11,5.33-8.17,6.52,7,11.64,12.23,14.45-5.88,1.63-12.13-.18-17.85,2.66a.59.59,0,0,0,.14,1.07c4.67,1.7,7.89,5.56,11.94,8.3.46.3.84-.41.42-.72-2.36-1.79-4.45-3.87-6.71-5.78-1.41-1.19-5.51-1.95-2.48-3,5.13-1.77,10.75.09,15.93-1.73a98.08,98.08,0,0,1-4.14,15.3c-.09.25.3.36.39.11,4.2-11.24,6-23,6.79-34.91h0c.45,0,.86-.56.56-1-.15-.2-.32-.38-.47-.58.18-2.95.3-5.9.38-8.86l0,0a.21.21,0,0,0,.36-.21l-.36-.71c0-.45,0-.91,0-1.37.09-4.06.1-8.13.1-12.19a9.22,9.22,0,0,1,1.21-1.1c1.85-1.36,5.08-.75,6.65-2.59,2.77-3.25-.12-5.62-3.47-6-4.75-.57.75-.21,2.25-.07,1.89.18,4.3.73,6.12-.06,4.49-1.95,4.7-6.45,3.13-10.35a1.23,1.23,0,0,0-.7-1.49l-.29-.52a1.83,1.83,0,0,0-2-.81,8.24,8.24,0,0,1-4,0,8.18,8.18,0,0,1,.89-1.43,18,18,0,0,1,2.64-2.09,7.8,7.8,0,0,0,2.12-2.49,4.13,4.13,0,0,0,.24-3c-.65-2.38-.87-4-.29-5.59a173.88,173.88,0,0,0,23.75,11.32C263.87,259.36,264.13,258.72,263.76,258.53ZM154.53,70c.72-.32,1.43-.66,2.14-1a21.68,21.68,0,0,0,4.3-3,.69.69,0,0,0,0,.51c-1,.68-2.07,1.32-3.07,1.94a.39.39,0,0,0-.06.57l0,0C156.7,69.33,155.61,69.68,154.53,70Zm-43.22,40.75c.08-.2.17-.41.26-.61A.63.63,0,0,1,111.31,110.75ZM92.49,137.59a6.08,6.08,0,0,0,4.38.59A4,4,0,0,1,92.49,137.59ZM82.07,127.7l-.52-.38c.26.09.51.17.77.24a1.4,1.4,0,0,0-.17.2Zm15,59.64-.27.82a10.15,10.15,0,0,0-2,.46c-.06-.4-.13-.81-.21-1.21a6.35,6.35,0,0,0,2.44-.56c.19-.1.06-.44-.15-.36a10.46,10.46,0,0,1-2.35.57q-.16-.83-.36-1.65a5.44,5.44,0,0,0,3.42-.1C97.42,186,97.25,186.65,97,187.34Zm-7.31,27.43a.2.2,0,0,0-.34.06c-.14-.16-.27-.33-.4-.5s-.5,0-.35.2a5.15,5.15,0,0,0,1.13,1.33.27.27,0,0,0,.36-.07c-.17.56-.35,1.11-.54,1.66a5.07,5.07,0,0,0-1.18-.67c-.39-.22-.77-.48-1.15-.72a55.32,55.32,0,0,0,3.37-4.77c.27-.22.54-.43.82-.62v0c-.35,1.65-.76,3.29-1.26,4.92A1.67,1.67,0,0,0,89.73,214.77Zm-18.32,10.9a1.5,1.5,0,0,0-.7,0c2.74-2.88,6.16-5,9.49-7.55a46.11,46.11,0,0,1-6.62,5.72A15.33,15.33,0,0,0,71.41,225.67ZM252.7,84.89a.25.25,0,0,1,0-.07l.08.08ZM136.26,74.45a1.16,1.16,0,0,0-1-.65l1.09-1c5.85-2,12.61-3.64,17.46-7.51,3.74-3,8.06-8.35,13.06-9.36-3.11,2.31-5.37,5.79-8.19,8.53C152.91,70,143.82,71.77,136.26,74.45ZM66.64,125.54h0l.37-.22ZM92.83,198.7h0c0-.52-.06-1-.07-1.56,0-.17.08-.34.11-.51C92.84,197.31,92.84,198,92.83,198.7ZM17.69,212.77c-2.68-2.31-5.33-4.6-7.25-7.7-3.93-6.37-3.76-16.6,3.14-20.83a11.63,11.63,0,0,1,6.43-1.3,22.51,22.51,0,0,0-3.2,2.83c-4.52,4.88-5.44,12.4-3.51,18.57a13,13,0,0,0,4.42,6.2c3.63,2.79,8.78,4.15,9.16,9.49a5.08,5.08,0,0,1,0,1C25.87,218.07,21.61,215.18,17.69,212.77ZM190.57,5.45h.21c1.23,0,2.38,0,3.4.06,1.3,0,2.62.13,3.95.26l-.95.24c-3.93,1.06-7.74,2.42-11.71,3.37-2.64.64-5.34,1-8,1.55a3.79,3.79,0,0,0,.25-.82c1.45-2.41,4.2-3.6,7.21-4.17C186.9,5.7,188.83,5.58,190.57,5.45ZM64.22,117.78c-6.34.57-12.64-.68-18.85-.65,8.5-1,17.25-.43,25.7-1.92a56.18,56.18,0,0,0,12.23-3.7A44.47,44.47,0,0,1,64.22,117.78Zm1.22,126.91c-.21-.45-.41-.9-.61-1.34l.18-.73c.17.56.35,1.11.52,1.66ZM46.71,164.08c-.08-4.63,1.51-7.58,3.7-10.57l.31-.25c-.44,3.81-1,7.6-1.72,11.46-.48,2.59-.84,6-1.67,9.07C47,170.56,46.77,167.33,46.71,164.08Zm12.47.91a15.78,15.78,0,0,1-1.38,4.45,1.22,1.22,0,0,0-.18.36,32.86,32.86,0,0,1-6,8c.42-1,.87-2,1.4-3,2.32-4.49,4.74-8.91,5.87-13.88.06-.26.11-.54.17-.81A13.58,13.58,0,0,1,59.18,165Zm8.28-.34c1.49,2.81,2.31,5.65-.89,7.92A20.87,20.87,0,0,1,64,174.14L64,174C67.05,171.42,68.49,168.69,67.46,164.65ZM73,187.11c2,6.31-5.16,7.15-9.29,9.38-7.33,4-15.68,9.18-14,18.69.79,4.5,3.94,8.44,5.15,12.85.77,2.81-.85,6-1.71,8.62v0c0-.06-.06-.13-.08-.19A36,36,0,0,0,49.9,224c-3.3-7.44-8.91-16.7-.48-23.12,4.61-3.52,10.59-4.53,15.1-8.39a10,10,0,0,0,.81-.78,11.33,11.33,0,0,0,5-3.45,15,15,0,0,0,2-3C72.6,185.89,72.83,186.49,73,187.11Zm-5.21-.29a1.54,1.54,0,0,0,.36.27,8.35,8.35,0,0,1-.65.82C67.64,187.55,67.74,187.19,67.82,186.82Zm-24.38-3.35a11,11,0,0,1-.08,6.44,21,21,0,0,1-2.89,3.54,7.57,7.57,0,0,1-2.67.89,26.86,26.86,0,0,0,2.32-4.13c2-5.18,1.93-10.09-2.73-13.58a1.63,1.63,0,0,0,.11-.17C40.31,178,42.05,180.62,43.44,183.47Zm-8,15.81a2.19,2.19,0,0,0,.44.35c-.21.35-.41.7-.58,1.06A5.63,5.63,0,0,1,35.43,199.28Zm1.81,15.62c0-.24,0-.48,0-.73.06.31.12.62.19.93Zm.42-19.28a8,8,0,0,0-.82.3l.23-.38c.25,0,.52,0,.78,0Zm2.19,26.54c-.11-.17-.23-.33-.34-.49h0a1.12,1.12,0,0,0,.17-.2c.11.22.21.44.31.66ZM34,193.46a20.91,20.91,0,0,1,2.27-5,16.48,16.48,0,0,0,2.14-5.25C38.42,186.68,36,190.14,34,193.46Zm19.24-5.34c2.37-2.43,5.18-4.38,7.5-6.81a1.54,1.54,0,0,0,.3-1.74l.82-.46c-.24,7.32-6.53,9.89-12.44,12.8Q51.32,190.07,53.19,188.12ZM41.08,205.65c1.84-8.22,10.31-10.56,16.42-14.67,4.22-2.84,7.26-7.33,5.37-12.41l.7-.35c.89,4.1,1.51,8.39-1.53,11.81-2.13,2.4-5.78,3.7-8.62,5-5,2.29-9.15,4.73-11.1,10.13-1.74,4.81.35,10.22,2.55,14.48a81.44,81.44,0,0,1,4.93,10.69C45.1,222.63,39,215.17,41.08,205.65Zm1.29-29.36c-.07-.09-.15-.16-.22-.25h.16Zm-5.37-5a5.91,5.91,0,0,1-.17-3.67A12.4,12.4,0,0,0,37,171.33Zm-7.6,24.35a26.17,26.17,0,0,0,0,4.51,9.84,9.84,0,0,1,.08-8,16.11,16.11,0,0,1,2.6-3.87A20.75,20.75,0,0,0,29.4,195.68Zm8.9,40.14c-3.76-2.29-9.21-2.44-12.49-5.45,5.13-.88,9.89,1.83,13.34,6ZM58.23,254.2a30.13,30.13,0,0,1-.16-4.66c.2-4,2.56-6.9,5-9.8a42.79,42.79,0,0,1-1.54,6.65C60.42,249.27,58.84,251.44,58.23,254.2ZM59,240.1c-.08.1-.15.21-.22.31a38.08,38.08,0,0,1,2.78-3.5C60.73,237.93,59.84,239,59,240.1Zm-2.8-22.17a14.78,14.78,0,0,0,.36,3.15c-2.34-5.21-5.13-9.77-.19-15.11,3.79-4.09,9.78-6.82,14.88-8.86,2.73-1.09,5.08-3,5.34-6.14a14,14,0,0,0-1.91-7.72,20.08,20.08,0,0,1,4.51,7.26c2.66,8.27-10.14,10.22-15.23,13S56.17,212.38,56.17,217.93ZM52.4,167.54c-.7,1.5-1.55,3.05-2.41,4.64.48-1.66.84-3.24,1.18-4.47,1.58-5.88,3.25-12,3.59-18.15.24.66.53,1.32.81,2l.3.69C56.35,157.42,54.44,163.22,52.4,167.54ZM40,162.39a102.83,102.83,0,0,0,1.64,10.83C38,172.41,39,165.74,40,162.39Zm-5.48,17.44a16,16,0,0,1-3.75,5.55c-2.81,2.93-4.91,6-5.53,10.05-.52,3.4,1.18,6.86,2.24,10a12.48,12.48,0,0,1,.5,2.07c-1.43-2.37-3.24-4.69-4.88-7C17,192,28.18,185.71,34.52,179.83ZM16.19,232.14c0,.13,0,.26-.06.39l-.19,0A1.92,1.92,0,0,1,16.19,232.14Zm13,5.2-1.08-.68.29.09c2,.6,3.91.89,5.77,1.44C32.58,237.82,30.91,237.58,29.23,237.34Zm17.42,8.94c-1-7.62-6.31-15.29-13.15-18.24a13.16,13.16,0,0,1,9.65,3.09,13.34,13.34,0,0,1,2.16,4.09c1.07,3.25,2.79,9.15,1.88,13.38A18.57,18.57,0,0,0,46.65,246.28ZM60,259.17l-.21-.88a.65.65,0,0,0,.23-.15c.42-.41.82-.82,1.21-1.25a12.3,12.3,0,0,0-.55,2.75A1.07,1.07,0,0,0,60,259.17Zm-.84-2a1,1,0,0,0-.24,0,.61.61,0,0,0,.23-.44c.35-4.61,4-8.18,5.45-12.57l.63,1.4A28.74,28.74,0,0,1,59.16,257.16Zm6.18-15.89c0-.23.11-.47.16-.7a7.76,7.76,0,0,1,.49,1.06c0,.35-.1.72-.16,1.08Zm-.77-12.71c0,.27,0,.53,0,.78a9.64,9.64,0,0,1-.53,1.18c.2-1.92.26-3.88.35-5.84a1.75,1.75,0,0,0,.32.12A19.1,19.1,0,0,0,64.57,228.56Zm24.23-33a16.15,16.15,0,0,1-6.34,9.82c-2.68,1.84-11.22,5-16.22,9.18.2-.45.42-.88.66-1.31C69.56,208.61,74.85,209,79,207a19.27,19.27,0,0,0,7.19-6.38,14.76,14.76,0,0,0,2.62-5.52C88.84,195.24,88.82,195.4,88.8,195.56ZM81.67,201c-3.17,3.79-7.63,3.36-11.53,5.63a15.25,15.25,0,0,0-6.22,6.31c-3,5.78-.42,13.18-1.08,19.38a39.46,39.46,0,0,1-3.8,3.86,22.32,22.32,0,0,0,1.48-5c.74-4.37-1-8.9-1.18-13.25-.57-12.65,13-11.55,19.91-17.52,5.56-4.81,4.68-11.23,1-16.94a45.79,45.79,0,0,0-3.82-4.91,25,25,0,0,1,5.86,4.65C87.32,188.87,86.2,195.55,81.67,201ZM59.84,172.9c-.3.28-.6.58-.9.91a1.62,1.62,0,0,0-.29,1.66l-.4.51-.31.35c-2.36,2.63-5.37,4.65-8.22,6.79.07-.26.15-.51.23-.76a56.37,56.37,0,0,0,8.93-9.43A1.33,1.33,0,0,0,59.84,172.9ZM43.57,160.18a35.31,35.31,0,0,0-.36,6.91A57.77,57.77,0,0,0,41.14,161l2.73-2.15C43.76,159.28,43.65,159.72,43.57,160.18Zm-8.85,6.93a7.11,7.11,0,0,0-.46,2,6.05,6.05,0,0,1-.48-2.68L35.87,165A11.23,11.23,0,0,0,34.72,167.11Zm-7.07,15.37C24,185.57,20.54,188.65,19,194c-2.17,7.58,6.2,12.14,9.07,18.13,0,.42-.08.84-.13,1.26a14.93,14.93,0,0,0-3-2.85c-4-2.86-7.42-4.45-8.78-9.58a15.23,15.23,0,0,1,4.43-14.78A17.84,17.84,0,0,1,27.65,182.48ZM14.58,237.39a2.45,2.45,0,0,1,.09-.91,23.67,23.67,0,0,0,6.9,3.33c4.21,1.18,8.48,1.4,12.75,2.23a13.53,13.53,0,0,1,8.73,5.38c0,.13.06.27.08.4-4.36-3.11-10.8-4-15.62-5A64.1,64.1,0,0,1,14.58,237.39ZM51,250.26c1.49,8.43,5.29,16.43,8.9,24.32-4-3.25-7.59-7.41-9.08-12.19C49.54,258.28,50.88,254.24,51,250.26Zm37.42-63.74c.06.42.12.85.17,1.27A20.65,20.65,0,0,0,86,182.28c-.13-.18-.26-.37-.4-.55a17.18,17.18,0,0,1,1.51,2A14,14,0,0,1,88.41,186.52ZM58.8,149.74l.31-.08,0,.15a1.51,1.51,0,0,0,.36.53c.13.78.29,1.56.48,2.35C59.6,151.71,59.19,150.73,58.8,149.74Zm.72-7.76h-.05l.06-.05A.13.13,0,0,1,59.52,142ZM50,141.2l-.48-.1a1.89,1.89,0,0,0-1.61-.51c-1.1-.44-2.14-1-3.2-1.54,0-.13,0-.25,0-.38a13.74,13.74,0,0,0,9,1.66,11.74,11.74,0,0,0,4.41-1.74A9.47,9.47,0,0,1,50,141.2ZM243.65,55.32v0l0-.09c0-.26-.09-.51-.14-.76,0,.08.06.17.1.26S243.62,55.13,243.65,55.32Zm-42.71.62c-.09,0-.24-.06-.44-.09l.19-.1c3.17-.26,6.22-1.75,9.17-3.24a20.41,20.41,0,0,1,7.35-2.6,32.3,32.3,0,0,0-5,2.51,28.4,28.4,0,0,1-6.8,3.15,18.57,18.57,0,0,1-3.55.4C201.53,56,201.23,56,200.94,55.94Zm-33.58-6.43a36.23,36.23,0,0,1,8.95.37,29.08,29.08,0,0,1,6.74,1.51l-.26,0C177.59,50.79,172.54,49.81,167.36,49.51ZM128.53,71.62c-5.67,6.57-13.13,14.56-21.92,17a1.87,1.87,0,0,0-1.24.23,23.08,23.08,0,0,1-7.29-.57c9.49.46,21.13-9.81,27-15.65A76.62,76.62,0,0,1,135,64.23C132.7,66.68,130.58,69.24,128.53,71.62ZM51.73,88.06a26.62,26.62,0,0,1,10.48-5.13A44.65,44.65,0,0,0,44.69,95.59c-.36.35-.7.7-1,1.06-3.12,3.26-6.77,7.54-8.27,12.17C34.86,100.68,46.21,92.6,51.73,88.06ZM82.05,33.94h0l0,0Zm114.49,17a2.44,2.44,0,0,0,0-.27c3.42-4.2,11.83-6.93,15.46-7.91a11.79,11.79,0,0,1,9.93,1.55C212.6,43,204.63,46.51,196.54,50.89Zm-48.93,0a74.76,74.76,0,0,0-19.25,12c-6.72,5.65-11.53,13-18.87,18,0,0-.06.06-.09.08a32,32,0,0,1-6.66,3.58c1.47-1.16,2.92-2.36,4.32-3.59A16.08,16.08,0,0,0,113,77.05a.53.53,0,0,0,.69,0c4.34-3.71,6.69-8.79,9.59-13.59,4.22-7,12.13-11,19.53-13.7,6.95-2.5,14.65-4.7,22-4.83a59.82,59.82,0,0,1,8.56.4l-1.34-.06C163.82,44.84,155.12,47.7,147.61,50.84Zm75.71-20.93.21.23q-1.14-.37-2.28-.63c.65.09,1.35.22,2.06.39Zm-126,55.63a9.47,9.47,0,0,1-2.06-.29A29.22,29.22,0,0,0,99,83.91ZM89.66,42.61a14.28,14.28,0,0,1,3.06-2.93,1,1,0,0,0,.43-.18c.25-.21.52-.4.78-.6s.48-.28.73-.41c-.79.68-1.57,1.37-2.32,2.08a27.56,27.56,0,0,0-2.91,3.23L88,44.45A14.27,14.27,0,0,0,89.66,42.61ZM217.14,26.48a30.57,30.57,0,0,0-7,1.76A38.31,38.31,0,0,0,205.41,31a30.62,30.62,0,0,0-6.47,4c-4,2.32-7.65,4-8.44,2.48a.59.59,0,0,0-.23-.24,30.82,30.82,0,0,0,5.79-2.66C201.46,31.93,210.28,25.88,217.14,26.48ZM112.32,73.18c1.3-1.57,2.55-3.19,3.8-4.81a46.84,46.84,0,0,1-3.42,5.25A1.61,1.61,0,0,0,112.32,73.18ZM226.7,39.94c-.74-.28-1.47-.61-2.2-.93a4.83,4.83,0,0,1,2.24.93Zm-33.49.31.45-.12c-.12.13-.23.27-.34.4A2.33,2.33,0,0,1,193.21,40.25Zm-61.31-.37a84.76,84.76,0,0,0-24.46,15.88c1.49-2.69,2.89-5.43,4.37-8.1,8.06-7.55,18.84-11.79,29.88-13A74.45,74.45,0,0,1,155,34.41l.61.33-.64.09A64.52,64.52,0,0,0,131.9,39.88Zm-29.44-.31a1.79,1.79,0,0,0,.29-.35,41.94,41.94,0,0,1,13.73-8.17c-2.08,1.13-4.14,2.32-6.15,3.64-2.82,1.86-5.68,3.67-8.53,5.47ZM152,29.64c.62.13,1.23.26,1.84.41s1.21.31,1.81.48a.14.14,0,0,0,0,.06c-.4,0-.79,0-1.18,0Q153.26,30.06,152,29.64Zm-24.24,1.3a62.75,62.75,0,0,1,16.66.13c-1.67.19-3.32.41-5,.68a58.11,58.11,0,0,0-23.39,9.44A46.1,46.1,0,0,1,127.76,30.94Zm-2.49-4.48-.28-.08c-.24,0-.48-.05-.72-.08l2.12-.44C126,26.07,125.64,26.26,125.27,26.46Zm-25,10.42h0l.19-.13Zm-2.4,31.79a.74.74,0,0,0,.27.19l-1,.48C97.33,69.12,97.59,68.9,97.84,68.67Zm18.9-6,.3-.3a1.19,1.19,0,0,0,.31-.57l.44-.35c-.35.42-.69.85-1,1.27C116.75,62.74,116.75,62.72,116.74,62.7ZM124,48.94c-3.67,2.74-6.82,6.2-10.3,9.17-3.9,3.33-8.69,5.36-13.13,7.89A42.2,42.2,0,0,0,104,61.49a95.31,95.31,0,0,1,28.72-18.65c.43-.18.87-.35,1.31-.51A95.51,95.51,0,0,0,124,48.94Zm32.14-26.75c.65.23,1.31.49,2,.77a74.89,74.89,0,0,0-10.5-1.41,76.87,76.87,0,0,0-19.7,1.25,88.23,88.23,0,0,1,12.37-2,66.86,66.86,0,0,1,10.4-.07A39.54,39.54,0,0,1,156.09,22.19ZM88.3,82.64a.77.77,0,0,0-.07-.16l.44-.13.14.22Zm2.43-.37c-.13-.15-.25-.29-.37-.45A44.41,44.41,0,0,0,101.8,75.2c1.59-1.2,3.24-2.45,4.88-3.72-2.41,3.35-5.1,6.42-9,8.49A24,24,0,0,1,90.73,82.27Zm68.49-44c2.84.19,5.68.45,8.51.4a34.81,34.81,0,0,1,6.18,1.66c-10.31-2.81-22.82-1.2-31.5,2A50.85,50.85,0,0,1,159.22,38.27Zm48.8,1a28.6,28.6,0,0,1,11.29-2.9c-1.39.33-2.79.76-4.17,1.22A60.29,60.29,0,0,1,208,39.28Zm-1.75-2.48c-3.54,1.75-7.14,5-11.1,6.08a1.21,1.21,0,0,0-1-.55c1.81-1.62,3.62-3.23,5.53-4.72l.43-.24c1.87-1.1,3.66-2.33,5.49-3.49,4.52-2,9.77-2,14.56-1A35.78,35.78,0,0,0,206.27,36.8Zm-17.67.68v0h0Zm-.82-7a14.88,14.88,0,0,0,2-.4,18.69,18.69,0,0,1-1.65,1.44ZM79.5,67.31a.53.53,0,0,0,.69,0c6.64-5.74,12.36-12.52,19-18.22-2.34,3.24-4.64,6.54-7.16,9.76A40.39,40.39,0,0,1,80.35,69c-4.06,2.35-8.58,3.49-13,4.94A73.67,73.67,0,0,0,79.5,67.31ZM80.58,72a36.35,36.35,0,0,0,11.16-8.08c5.44-5.58,9.39-12.22,14.15-18.29-1,2.32-1.93,4.6-2.79,6.59-2.39,5.56-5.33,10.55-9.86,14.67C90,69.77,86.14,71,82.11,72.37c-2.26.74-4.49,1.6-6.75,2.31-2,.27-4,.55-5.93.88A82.28,82.28,0,0,0,80.58,72Zm7.69,4.45c1.6-.26,3.37-.49,5.14-.82l-.22.21a11.74,11.74,0,0,1-2.11,1.64c-.88.4-1.79.77-2.71,1.09a21.31,21.31,0,0,1-5.89,1l-.88,0a39.28,39.28,0,0,0-4.36-1C80.85,77.74,84.49,77,88.27,76.41Zm2.6,9.78c.31.18.61.37.91.57-.64-.15-1.27-.31-1.89-.44ZM125,57.89a55.8,55.8,0,0,1,12.61-9.72A50.46,50.46,0,0,1,162.74,42a56.13,56.13,0,0,1,7.79.58c-8.21,0-15.67,2.39-23.65,4.42a48.18,48.18,0,0,0-19.72,9.76,23.43,23.43,0,0,0-3.59,3.94C124,59.74,124.49,58.8,125,57.89Zm82.5-32.42c-3.9,1.68-7.56,3.79-11.34,5.71-1.28.65-2.53,1.37-3.8,2.06s-3.19,2-4,1.52a1.46,1.46,0,0,0,.51-2h0c3.95-1.9,6.89-5.25,11.23-6.81a34.71,34.71,0,0,1,12.61-2.18A30,30,0,0,0,207.47,25.47Zm-14.51,0a24.05,24.05,0,0,1-5.34,2.39,4.57,4.57,0,0,0-.51-2.38A42.58,42.58,0,0,0,195,23.6l4.11-1.25C197,23.25,195,24.34,193,25.44Zm-91.82,6-.57.38A30,30,0,0,0,91,35.9a2,2,0,0,0-.16-.24c.66-.64,1.35-1.25,2-1.85A79,79,0,0,1,101.14,31.44Zm-2.42-2.08c1.63-1.11,3.28-2.15,4.92-3.12a54.81,54.81,0,0,1,15.76-6.11C112.35,22.85,105.89,27,98.72,29.36ZM87.63,39l.15,0c-.53.62-1.06,1.25-1.61,1.84C86.64,40.18,87.13,39.59,87.63,39Zm-7.3,15.73a65.48,65.48,0,0,1-8.44,6.11,72.18,72.18,0,0,1-8,3.75,60,60,0,0,1,12.92-8.26C77.87,55.82,79.07,55.29,80.33,54.73ZM54.69,73.8l0,0c.16-.19.31-.38.47-.56a45.88,45.88,0,0,1,5.13-3.33C66.1,66.68,72.45,65.33,78,61.6c2.75-1.84,5.37-3.91,8-6l-.12.21c-6.08,10.31-17.84,14.08-28,19a36.46,36.46,0,0,0-6,3.64A15.69,15.69,0,0,0,54.69,73.8ZM50,85.42a81.53,81.53,0,0,0-9,8.23c1.3-1.74,2.61-3.37,4-4.89C46.59,87.56,48.28,86.45,50,85.42Zm14.61,9.11a40.75,40.75,0,0,0-16.74,6.35,1.85,1.85,0,0,0-1-.39,40.45,40.45,0,0,1,4.2-3c6.57-4.08,14.31-6.16,21.93-7A58.67,58.67,0,0,1,93.86,92l.25.06C84.29,92.93,74.42,93.19,64.61,94.53Zm-7.43,5.21a62.78,62.78,0,0,0-6.76,2.72A50,50,0,0,1,57.18,99.74ZM226.1,31.11c-.34-.15-.67-.29-1-.42l-.35-.13a1.45,1.45,0,0,0,.46-.14l.76.28Zm-41.84-7.58c1.83-4,10.25-5.86,14.28-6.51a24.65,24.65,0,0,1,8.27.05C199.63,17.71,190.94,23.14,184.26,23.53Zm-59.07-8c8.06-1.22,16.32-1.56,24.33.08.41.09.81.2,1.21.3-3.36-.39-6.72-.59-10-.69-13.24-.39-26.85,2.05-38.28,9a66.53,66.53,0,0,0-9.77,7.18c-2.31.95-4.49,2.23-5.57,4.16-.53.14-1.06.3-1.58.47a14.65,14.65,0,0,0,3.26-3.69c.71-1.18,1.31-2.41,1.9-3.63A83.19,83.19,0,0,1,125.19,15.51ZM74.48,41.17c.06.08.12.17.19.25-.52.34-1,.69-1.54,1C73.58,42,74,41.61,74.48,41.17ZM66.11,52.28C71.86,47.38,78,42.76,85,40a35.66,35.66,0,0,0-2.12,3.49c-3.11,1.88-6.39,3.48-9.5,5.36-2.74,1.66-5.62,3.39-8.35,5.3.31-.57.63-1.13,1-1.68Zm10.56-1.09c.86-.51,1.76-1,2.66-1.45A1.67,1.67,0,0,0,79.68,51c-3.06,1.44-6.15,2.7-8.72,4a48.21,48.21,0,0,0-10.44,7.28C65.1,57.77,71.21,54.44,76.67,51.19ZM39.13,95.68h.11l-.52.66C38.85,96.11,39,95.9,39.13,95.68Zm27.12,5.61c6.91-1.35,13.87-1.39,20.84-2.1l2-.21c-1.84.64-3.66,1.3-5.41,2.1a78,78,0,0,1-23.28,6.57c-5.15.64-12.76,1.28-18.74,3.84C48.28,105.78,58.05,102.9,66.25,101.29ZM196.89,52c5.17-2.23,11.08-4.44,16.83-5C208.05,48.53,203.32,53.35,196.89,52Zm24.3-4.92a21.26,21.26,0,0,1,5.05,1.11c.37.44.74.9,1.09,1.36a14.82,14.82,0,0,0-1.47-.2A17.27,17.27,0,0,0,221.19,47.06ZM195.57,13.83c-4.13.83-9.08,2.75-12.12,5.59-.29-.37-.58-.73-.88-1.09,3.84-4.39,11.27-5,16.73-5.31a25.64,25.64,0,0,1,3.28,0A42.14,42.14,0,0,0,195.57,13.83ZM93.44,24.19a61.79,61.79,0,0,1,5.87-4.47c1.34-.45,2.71-.84,4.11-1.18A79.88,79.88,0,0,0,93.44,24.19Zm13.88-11.41A1.66,1.66,0,0,0,107,12c1.34-.36,2.69-.72,4-1.11l.39-.1C110,11.42,108.67,12.08,107.32,12.78ZM87.75,26c-1.19,1.84-2.4,3.68-3.71,5.44l-1.35,1.23c.67-1.33,1.34-2.67,2.06-4A23.46,23.46,0,0,1,87.75,26Zm-8.23,9.72-.47.24-.11.05c.45-.58.88-1.16,1.31-1.73C80,34.77,79.77,35.25,79.52,35.73Zm-3.77-2.85c1-.75,1.87-1.57,2.75-2.4-.63.94-1.2,1.81-1.69,2.52-5,7.13-11.76,12.79-18.31,18.56a50.87,50.87,0,0,1,7.61-10.74C69,37.78,72.48,35.43,75.75,32.88ZM56.17,56.43c.69-.58,1.38-1.16,2.09-1.74-.79.76-1.57,1.53-2.33,2.32C56,56.82,56.08,56.62,56.17,56.43Zm7.32-1.89.5-.43c-.18.37-.36.75-.53,1.13a39.25,39.25,0,0,0-6.58,6,42.67,42.67,0,0,0-3.4,4.63C55.7,61.39,59.83,57.75,63.49,54.54ZM45.74,84.25l-.07,0a.52.52,0,0,0,.11-.1Zm-11.27,26a.64.64,0,0,0,.51,0,13.32,13.32,0,0,0-.24,1.54l-.24.61Q34.47,111.33,34.47,110.25Zm.15,4.87h0l0,.08A.19.19,0,0,1,34.62,115.12ZM37,116.73c3.78-2.83,9.37-3.58,13.77-4.26,5.65-.86,11.4-1,17-1.86,6.78-1,13.14-3.71,19.48-6.35a55.23,55.23,0,0,1-20.48,8.12c-10.32,1.82-20.7,1.27-30.41,5.34C36.63,117.38,36.82,117.05,37,116.73ZM149.85,57.36a1.23,1.23,0,0,0-1,.25c-2.42,1.73-5,3.23-7.45,4.9a74.48,74.48,0,0,1,9.09-6.07c.63-.2,1.27-.38,1.92-.56C151.51,56.34,150.67,56.83,149.85,57.36Zm19.4-3.06h.34l-.29.12A.69.69,0,0,0,169.25,54.3Zm3.74.24h0Zm67,6.09v0h0Zm2.74,2.58a.17.17,0,0,0,0,.07l0,0ZM220.62,19.14c-4-6.94-12.37-9.89-20.38-9.76-1.29,0-2.68.08-4.1.2,5.17-1.36,10.27-2.48,15.48.08,4,2,6.91,5.81,9.18,9.63Zm-40.41-3.42c-.9-.94-1.83-1.83-2.78-2.67a47.22,47.22,0,0,0,7.89-1A15,15,0,0,0,180.21,15.72Zm-1.77-.19a8.93,8.93,0,0,0-.54-.9c.61.54,1.2,1.1,1.79,1.68a11.16,11.16,0,0,0-.78,1.12l-.08-.05A4,4,0,0,0,178.44,15.53Zm-67.21-1.72-2.18.48a74.1,74.1,0,0,1,16.22-5.18,52.59,52.59,0,0,0,6.85-.88c1.7.08,3.4.23,5.09.44C128.46,9.59,119.72,12,111.23,13.81Zm-20,6.81-.53.63a3.86,3.86,0,0,0-.49-.09l0,0ZM53.78,55.84l-.41.39a.86.86,0,0,0-.08,1.23c-.37,1.25-.68,2.52-.94,3.79-1.79,2.61-2.68,5.65-3.94,8.47,0-.16,0-.33,0-.5A119.84,119.84,0,0,1,51.8,56.93,41.37,41.37,0,0,1,59.41,44.1,47.38,47.38,0,0,0,53.78,55.84Zm-7.2,20.63.29.11-.46.51C46.46,76.88,46.52,76.68,46.58,76.47Zm1.23,4.9.16,0-.76.63ZM35.33,120.05a31.19,31.19,0,0,1,5.65-.71A10.55,10.55,0,0,0,36,122.55a13.84,13.84,0,0,1-.85-2l0-.09Zm8,13.69a24.24,24.24,0,0,0,6.12,1.42,17.37,17.37,0,0,0,8-.68A13.63,13.63,0,0,1,55,136.23c-3.39,2-7.4,1.14-10.91-.56A17,17,0,0,0,43.28,133.74Zm10-1.71c-2.15.15-10.77.39-11.49-2.39a.93.93,0,0,0-.05-.1,24.74,24.74,0,0,0,12,1.77A15.74,15.74,0,0,0,58.59,130,10.62,10.62,0,0,1,53.33,132Zm-13-3-.18-.25.37.2Zm42-12.38c1.06-.51,2.1-1,3.12-1.63-1.25,1.13-2.6,2.28-4,3.32A12.27,12.27,0,0,0,82.3,116.61ZM97,103.17a2.43,2.43,0,0,0-.2-.25,29.56,29.56,0,0,0,2.89-3.17,2.38,2.38,0,0,0,.27-.44l.39-.19C99.19,100.48,98.08,101.84,97,103.17Zm51-40.62a35.62,35.62,0,0,1,12.28-5.75c-1.47,1.25-2.79,2.6-3.86,3.56-5.28,4.73-11.4,7.45-17.74,10.23A94.51,94.51,0,0,1,147.9,62.55Zm78.68-8.67.16,0,.34.29c-.37-.08-.74-.16-1.13-.21Zm21.35,22c0,.12,0,.24,0,.36,0-.1,0-.2,0-.3ZM241.44,45l-.1,0c-.15-.6-.3-1.19-.46-1.78C241.07,43.75,241.26,44.36,241.44,45Zm-66-35.1-1-.25a11.29,11.29,0,0,1,1.66-1.17A7.68,7.68,0,0,0,175.48,9.86Zm-.26,1a1.14,1.14,0,0,0,.17.54c-.5-.39-1-.78-1.5-1.15A4.47,4.47,0,0,1,175.22,10.82ZM44.09,82.53a.89.89,0,0,0,.39-.19.86.86,0,0,1,.14-.13,16.18,16.18,0,0,0-1.13,2.24.67.67,0,0,0,0,.5l-.49.38a17.19,17.19,0,0,0,.78-2.19Zm-5.56,8.34c.45-.52.92-1,1.41-1.52h0c-.27.29-.53.58-.79.88A31.4,31.4,0,0,0,35,96.85l-.13.15a25.22,25.22,0,0,1,2.3-4.35C37.57,92.05,38,91.45,38.53,90.87Zm-4.11,72.82a41.34,41.34,0,0,1,8.76-8C40.42,158.55,37.32,161,34.42,163.69ZM45.68,260c.59-1.85,1.36-3.53,2-5.27l0,0a7,7,0,0,0,1.39-1.31,43.81,43.81,0,0,0-.93,5.08,14.49,14.49,0,0,0,2.11,9.39,48.29,48.29,0,0,0,2.76,4.28l-1-.53C47.48,269,43.87,265.78,45.68,260Zm22.6-34.63a9,9,0,0,1,.68-3c.78-1.77,2.41-3.09,3.82-4.33,2.8-2.45,6.17-4.19,9.14-6.41,1.18-.88,2.44-1.68,3.69-2.47a90.78,90.78,0,0,1-8,7.48C74.42,219.55,70.71,222,68.28,225.41ZM56,126.88c-5.4,2.23-11.95.86-17.11-1.48a33.5,33.5,0,0,1,10.4-1.48c3.55.14,7.09.57,10.64.86A27.56,27.56,0,0,1,56,126.88Zm.48-6c-1.2-.07-2.6-.15-4.08-.2a1.74,1.74,0,0,0,.32-.56c4.91.59,9.84,1.21,14.78.77l-.45.14A68.5,68.5,0,0,1,56.49,120.86ZM69,120.72l1.26-.2c-.38.09-.76.17-1.14.23Zm8.51,1.52c9-1.91,17.39-10.87,22.7-17.2,4.27-5.08,8.18-10.24,13.22-14.42-4.08,5-7.35,10.82-10.93,15.93a44.6,44.6,0,0,1-12,11.8c-4.14,2.68-8.75,3.27-13.44,4.15Zm31.72-13.7a58.93,58.93,0,0,1-6.63,13.81,23.57,23.57,0,0,1-7.13,7.57c-3.66,2.32-7.74,0-11.16-1.83,4.73,1,9,.37,13.84-3.54,4.42-3.55,7.35-8.66,10-13.6C108.48,110.15,108.84,109.35,109.19,108.54ZM168.7,58.49c-1,1.3-1.84,2.67-2.91,3.9a18.56,18.56,0,0,1-1.9,1.86,17.8,17.8,0,0,1-2.43,1.22C163.92,63.2,166.09,60.62,168.7,58.49ZM141.55,4.39q-1.91,0-3.81.15c-.63-.07-1.26-.12-1.89-.16q3.24-.15,6.43,0C142,4.4,141.79,4.39,141.55,4.39Zm-40.23,5.75q-1,.31-1.95.69a1.61,1.61,0,0,0-.58,0c1.13-.54,2.28-1.06,3.43-1.56C101.91,9.54,101.61,9.84,101.32,10.14Zm-56.08,62-.16,0,0-1.17C45.15,71.39,45.19,71.79,45.24,72.18Zm-.57,77.89A10.11,10.11,0,0,0,47.59,146c.17,1.28-.16,2.42-1.68,3.85-2.16,2-4.75,3.66-7,5.61A29.8,29.8,0,0,0,32.11,164C34.08,157.66,39.74,154.4,44.67,150.07ZM64.15,267.58a9.66,9.66,0,0,1-.58-3.61,26.1,26.1,0,0,0,3.68.54,5.31,5.31,0,0,1,5.2,2.24,23.31,23.31,0,0,1-.94,2.82c-1,2.63-2.33,5.07-3,7.73C67.28,274.05,65.42,271,64.15,267.58Zm5.56,9.28c1-3.43,2.79-6.44,3.72-9.86q2.26,6,4.69,11.92a5.39,5.39,0,0,0-4.48-1.12,15.87,15.87,0,0,0-3.15.95C68.45,279.6,69.25,278.53,69.71,276.86Zm-6.13-13.43c.27-3.9,2.5-7.86,4.35-11.74q2.2,6.54,4.63,13C69.65,263.64,66.66,263.71,63.58,263.43Zm19.36-42.31a.15.15,0,0,0,.13.21,23.34,23.34,0,0,1,4.61,1l-.19.45c-.22.34-.45.68-.68,1a19.72,19.72,0,0,0-5.35-1C82,222.2,82.45,221.66,82.94,221.12Zm5.86-1.52c-1-.37-2-.62-2.9-1.07-.2-.1-.38.2-.17.3A24.69,24.69,0,0,0,88.65,220c-.25.64-.52,1.27-.79,1.9a15.12,15.12,0,0,0-4.79-.87s0,0-.08,0c1.39-1.53,2.73-3.07,4-4.67l1.18.78a3.26,3.26,0,0,0,1.29.67C89.26,218.43,89,219,88.8,219.6Zm2.52-9.45.42-.75c-.06.31-.14.6-.2.9A.24.24,0,0,0,91.32,210.15ZM97.63,185c-1.17.25-2.54.64-3.56.12-.15-.63-.32-1.27-.51-1.9a0,0,0,0,0,0,0,8.6,8.6,0,0,0,4.39-.52C97.88,183.48,97.78,184.25,97.63,185Zm-8.4-4.81h0ZM63.11,150.45s0,0,0-.07a.76.76,0,0,0,0,.11ZM67,125.3l.49-.29h.11C67.44,125.1,67.23,125.19,67,125.3ZM76,123a.31.31,0,0,0,.26.33c13.7,1.89,22.35-6.13,29.76-16a55,55,0,0,1-3,6.3c-2.88,5-7,10-12.49,12.16-4.09,1.61-9-.39-13-1.19a.54.54,0,0,0-.52.21,14.37,14.37,0,0,0-3.69-.82A19.33,19.33,0,0,0,76,123Zm12.77,9.4c2,.74,4.35,1.25,6.41.32a19.17,19.17,0,0,0,6.63-5.11,23.19,23.19,0,0,1-1.34,3.73c-3.79,7.8-9.86,2.34-15-.41l-.58-.62A37.37,37.37,0,0,0,88.81,132.44Zm22.2-21c.67.45.07.69-.46,1.08C110.71,112.19,110.86,111.83,111,111.47Zm3-7.76a11.89,11.89,0,0,1-1.38,3.72Zm22.1-27.84a1.5,1.5,0,0,0,.25-.44l3-.79c-1.21.47-2.42,1-3.61,1.57C135.88,76.09,136,76,136.1,75.87Zm35.46-14.1a8.73,8.73,0,0,1,1.08-.49.06.06,0,0,0,0,0A16,16,0,0,1,174.3,65c-1.09-.91-2.17-1.84-3.27-2.75Zm2.46.91c.52.43,1,.83,1.55,1.28l-.72.92C174.6,64.14,174.33,63.4,174,62.68Zm1.57-1.17c0,.56,0,1.12,0,1.68a16.56,16.56,0,0,1-2.39-2.11,15.05,15.05,0,0,1,4.82-.62c-.75.2-1.46.47-2.21.74A.33.33,0,0,0,175.59,61.51Zm77.79,39h.05l-.06.18Zm2.85-10.46a31.92,31.92,0,0,0-3-4.64l1,.9A5.26,5.26,0,0,1,256.23,90.06Zm-3.75-17.43c-.42.74-.8,1.45-1.13,2.17.11-.42.22-.83.32-1.24a10.63,10.63,0,0,0,.78-7.56C253.82,67.63,254.29,69.5,252.48,72.63ZM221.29,10.81A39.26,39.26,0,0,1,231.34,21.3a28.4,28.4,0,0,0-7.16-6.48,38.32,38.32,0,0,0-7.52-6.14c-.64-.5-1.3-1-2-1.42l-.36-.34A39.3,39.3,0,0,1,221.29,10.81ZM173.36,7a5.36,5.36,0,0,0-1.69,1.66L170.57,8C171.49,7.68,172.42,7.35,173.36,7Zm-8.75-1.4a1.67,1.67,0,0,0-.9.1l-.55-.32a37.6,37.6,0,0,0-4.19-2A52.22,52.22,0,0,1,164.61,5.64ZM87.06,17.15l.8-.47c-2.53,1.94-5,4-7.54,5.78-6.83,4.66-13.68,9.2-19.89,14.7-1,.88-2,1.82-3.08,2.79C65.87,30.9,76.75,23.38,87.06,17.15ZM44,142.57c1.4,4-3.26,7.76-6.59,10.68l.23-.3c.12-.15-.09-.37-.21-.21-.31.37-.63.75-1,1.15.51-2,.41-4.06,1.79-5.72C40,146.14,42.79,145,44,142.57ZM27.45,247.49c5.32.19,11,.47,14.2,4.75,0,0,.05.09.07.12a5,5,0,0,1,.11.66c-4-3.28-9.75-4.72-14.72-5.39Zm15,21.75.73.46A15.9,15.9,0,0,0,47.7,274c-.28-.13-.56-.26-.82-.4A9.55,9.55,0,0,1,42.41,269.24Zm25.93,21.29a34.1,34.1,0,0,0,1.18-5.34,14.74,14.74,0,0,0-.11-4.52c2.51-1.48,8.18-4,8.7,1.32.26,2.71-1.85,5.54-3.28,7.68-2.11,3.17-4.11,6.05-4.68,9.77-.82-2-1.7-4-2.68-5.89C67.78,292.56,68.08,291.56,68.34,290.53Zm10.82-9c2.17,5.32,4.41,10.6,6.67,15.86a.59.59,0,0,0-.26-.07,61.05,61.05,0,0,0-9.36.59,19.47,19.47,0,0,0-4.45,1.39c-.75.31.81-3.94,1.14-4.57C75.17,290.37,79.38,286.66,79.16,281.48ZM77.71,318c-.32-.65-.63-1.29-.94-1.94-2.28-4.82-4-10-6-15.06l.07,0a22.36,22.36,0,0,1,8.67-2.39c2.75-.29,5.63-1.19,4.39,2.42C82,306.75,79.45,312.23,77.71,318Zm2-.59c-1,.08,1.81-6.95,2.1-7.69,1.51-3.9,3.08-7.74,4.34-11.72l1.73,4c2.57,5.92,5,11.85,7.63,17.72l-1-.33a.66.66,0,0,0-.37,0A34.5,34.5,0,0,0,79.68,317.43Zm22.49,16.46a21.27,21.27,0,0,0-9.7-1.83c-.89,0-1.79.09-2.68.18s2.07-4.45,2.18-4.61c1.37-2,2.88-3.81,4.21-5.79l.27.1C98.25,326,100.14,330,102.17,333.89Zm-3.66-33.57a165.64,165.64,0,0,0,20,22.64c1.08,1,2.21,2,3.36,3a162.62,162.62,0,0,1-24.45-5.63c-2.34-5.18-4.62-10.39-6.91-15.63-6.76-15.41-13.1-30.81-19-46.44A317.1,317.1,0,0,0,98.51,300.32ZM71.83,231.06a15.2,15.2,0,0,0-2.64,5.47c.08-.67.16-1.35.28-2A13.2,13.2,0,0,1,72.38,229a26.37,26.37,0,0,1,4.6-3.72C75.21,227.14,73.47,229,71.83,231.06ZM80,224.35l1.17-1.25c1.84.09,3.55.88,5.34,1.16-.44.63-.9,1.25-1.37,1.86A13.74,13.74,0,0,1,80,224.35Zm14.87-35.29a12.45,12.45,0,0,0,1.74-.34c-.45,1.3-.94,2.58-1.38,3.87C95.12,191.41,95,190.24,94.83,189.06Zm3.34-10.17c0,1.2-.07,2.36-.18,3.5a9,9,0,0,1-4.42.73s0,0,0,0c-.15-.47-.3-.94-.46-1.41a25.17,25.17,0,0,0,4.32-.29.1.1,0,0,0,0-.21c-1.48,0-2.91.4-4.38.31-.09-.28-.2-.55-.3-.83C94.91,180.81,96.91,180.33,98.17,178.89ZM70.59,161.58a.19.19,0,0,0-.13,0l-.4-.62a.17.17,0,0,0-.1-.06l-.3-.45ZM105,129.41c0-.23.07-.46.1-.68a13.59,13.59,0,0,1,.71-2.49.18.18,0,0,0,0-.21l.09-.37a39.84,39.84,0,0,0,6.9-5.63c-.1,1.08-.23,2.14-.4,3.19A72.07,72.07,0,0,0,105,129.41Zm7.79-9.9a38.5,38.5,0,0,1-6.86,5.87c.23-.94.45-1.88.67-2.82,2.23-1.21,4.08-3.07,6.29-4.35C112.85,118.65,112.81,119.08,112.78,119.51Zm.12-1.65c-2.28,1.16-4.07,3.09-6.25,4.42.22-.93.44-1.85.68-2.77l.31-.59a46.93,46.93,0,0,1,5.4-3.6C113,116.17,113,117,112.9,117.86Zm.15-2.92a39.94,39.94,0,0,0-5.08,3.37c.44-.85.86-1.69,1.25-2.54a22,22,0,0,1,3.67-2.23c.15-.07,0-.3-.14-.23a20.24,20.24,0,0,0-3.34,2q.45-1,.84-2a1.14,1.14,0,0,0,.11-.11s0-.08,0-.09,0,0,0,0a11.17,11.17,0,0,0,1.63-1.24.23.23,0,0,0,0-.37c-.57-.42-.09-.12.54-.54a.3.3,0,0,0,.1-.4c-.29-.44-.58-.83-.72-1.11.07-.17.13-.33.19-.49a2.09,2.09,0,0,1,.69.06.33.33,0,0,0,.32-.55l-.24-.24a7.35,7.35,0,0,0,1.15-2.31l.18-.5v0A53,53,0,0,0,113.05,114.94Zm3.29-16.43a.27.27,0,0,0-.07-.08c.17-.34.34-.68.52-1C116.63,97.78,116.49,98.15,116.34,98.51Zm47-20.49c-2.21-2.36-4.45-5-7.41-6.41l.89-.25a25.89,25.89,0,0,0,9-4.41c1.73-1.35,3.26-3,4.87-4.42,1.2,1,2.38,2.11,3.59,3.14-.37.53-.74,1.08-1.09,1.64a.22.22,0,0,0-.11,0c-.81.82-2.26-1.45-2.66-2-.17-.23-.57,0-.39.23.39.52,1.71,2.45,2.69,2.44l-1,1.7a7.92,7.92,0,0,1-2.36-2.32c-.1-.13-.32,0-.22.13A8.7,8.7,0,0,0,171.55,70c-.41.67-.81,1.35-1.22,2h0a18.21,18.21,0,0,1-3.3-2.64.16.16,0,0,0-.23.23,11.67,11.67,0,0,0,3.37,2.69l-.66,1A11,11,0,0,1,163.33,78Zm12.88-14.8V61.94c0-.52,1.65-.87,2.65-1A14.61,14.61,0,0,0,176.21,63.22ZM189.27,65a16.15,16.15,0,0,1-.66-3.54,8,8,0,0,0,1.57-.23,22.16,22.16,0,0,0,.49,4.59A13.72,13.72,0,0,1,189.27,65Zm1.95,1a45.09,45.09,0,0,1-.67-4.92,5.41,5.41,0,0,0,1.13-.48,7.09,7.09,0,0,0,2.71-3.11l.15,0c-.56,2.22-.15,5.17-.47,6.94S192.58,66.51,191.22,66Zm16.54.7a.17.17,0,0,0,0-.12,21.24,21.24,0,0,1-3.24-7.52l.2,0c.68,0,1.36,0,2.05,0a68,68,0,0,0,5,9.07A17.45,17.45,0,0,1,208,66.85Zm4.48,1.47a.27.27,0,0,0,0-.09c-1.55-3.11-3.53-6-5.05-9.08,1.63-.06,3.26-.22,4.87-.43,1.44,3.17,2.36,6.53,3.65,9.76A13.94,13.94,0,0,1,212.24,68.17Zm3.93.11a65.32,65.32,0,0,0-3.68-9.77c1.41-.19,2.79-.41,4.14-.63a41.79,41.79,0,0,1,2.22,7.35c.05.3.5.17.45-.12a36.52,36.52,0,0,0-2.26-7.3l1.67-.28c.72-.12,1.41-.21,2.07-.28.82,2.65,1.07,5.54,2.17,8.07-1,.63-2,1.27-3.07,1.82A10.79,10.79,0,0,1,216.17,68.28Zm7.22-3.22c-.85-2.59-1.35-5.28-2.26-7.85a16.24,16.24,0,0,1,4.74.18A9.17,9.17,0,0,0,228,63.05a8.73,8.73,0,0,0-1.85.55A22.5,22.5,0,0,0,223.39,65.06Zm5.43-2.15a10.12,10.12,0,0,1-2.44-5.4c2.68.67,5,2.26,7.65,5.05l1.21,1.28A14.26,14.26,0,0,0,228.82,62.91Zm15.74,9a.29.29,0,0,0-.08.14c0-.09,0-.19-.08-.29A1.14,1.14,0,0,1,244.56,71.94Zm2.59,7.67s0,0,0-.08a3.37,3.37,0,0,0,.21.31C247.3,79.76,247.22,79.69,247.15,79.61Zm-23,196.1c0,2.73,0,5.47,0,8.2a8,8,0,0,0-.7.72,27.59,27.59,0,0,0-9.3-6.49c-3.8-1.56-3.67-1.48,0-4.2a34.71,34.71,0,0,1,9.58-4.75.56.56,0,0,0,.36-.36c0,2.08.05,4.17.06,6.25A2.22,2.22,0,0,0,224.13,275.71ZM207,275a47.39,47.39,0,0,0-4.3-5.54c-1.33-1.53-3.22-4-5.4-4.35q1-2.1,1.91-4.21c3.6,1.23,6,5.16,8.32,8.06Q207.33,272,207,275Zm-30.1-28.44,0,.09a.25.25,0,0,0,0,.08h-.09l-.15-.24ZM206,259.67a14,14,0,0,0,1.74-.47c0,.47,0,.93,0,1.4a18,18,0,0,0,0,2.08v.43c-1.34-1-2.55-2.23-3.94-3.18A15.49,15.49,0,0,0,206,259.67Zm7.43-3.68a40.11,40.11,0,0,0,9,2.33c.49.08.71-.64.21-.77-2.87-.78-5.89-1-8.71-2,.59-.51,1.15-1.05,1.69-1.62,2.64,1.13,5.19,2.58,8,3.24.23,3.76.36,7.53.42,11.31a.43.43,0,0,0-.11-.21c-4.14-4.05-9-6.85-13.63-10.21A20.38,20.38,0,0,0,213.47,256Zm9-2.11c-1.63-.76-3.33-1.4-5-2,.34-.45.66-.91,1-1.38a58,58,0,0,0,5,3.18c.07,1,.14,1.9.2,2.86-2.59-.85-5.08-2-7.65-2.87.41-.44.81-.9,1.19-1.37,1.69.75,3.38,1.52,5.09,2.23C222.6,254.67,222.86,254.05,222.5,253.88ZM236,216.32a.83.83,0,0,0,.11.15,28.93,28.93,0,0,0-1.05,2.95A25.91,25.91,0,0,1,236,216.32Zm2.41-12.71-.28-.11c.1-.21.2-.43.29-.64C238.39,203.12,238.38,203.37,238.39,203.61Zm-1.31,8v0c0,.08-.09.16-.14.24h0A2.54,2.54,0,0,1,237.08,211.6Zm-4.3,18.75c1.89,2.18,4.36,3.3,6.85,4.66,2.11,1.16,2.17,3,1.39,4.79a4.52,4.52,0,0,0-2.27-2.56c-1.52-.88-3.26-1.28-4.84-2a18.77,18.77,0,0,1-2.62-4.76,17.13,17.13,0,0,1-.67-6.72c.18-.4.36-.8.55-1.2C230.71,225.36,230.9,228.18,232.78,230.35ZM222.25,249a15.59,15.59,0,0,1,.59,2c-.8-.45-1.6-.89-2.39-1.35C221.05,249.46,221.66,249.23,222.25,249Zm-2.22.83c1.13.73,2.14,1.6,3.25,2.36,0,.23,0,.47.05.71-1.41-1-2.94-1.81-4.42-2.65Zm16.65-8.34a6.69,6.69,0,0,0-2-2.47,1.36,1.36,0,0,0,.78-.6c.38.19.78.38,1.19.56,2.18,1,1.66,2.53.42,4.13A3.63,3.63,0,0,0,236.68,241.52Zm-9.35,1.09a7.28,7.28,0,0,1-.76-.81,10.32,10.32,0,0,1-.84-5.06A15.37,15.37,0,0,0,228,240.6a10.94,10.94,0,0,1,1.25,2.15A6.66,6.66,0,0,0,227.33,242.61Zm.91-13a9.9,9.9,0,0,0,2,4.77,13.64,13.64,0,0,0,2.28,3.46,9.73,9.73,0,0,1-5.21-5.62Q227.75,230.9,228.24,229.59Zm2.25,9.71c1.92,1.31,4,1.85,3.31,5a12.49,12.49,0,0,1-.41,1.37,10.9,10.9,0,0,0-1.13-3.24c-1.72-3.23-4.67-4.56-5.84-7.85.07-.18.13-.36.19-.54A9.51,9.51,0,0,0,230.49,239.3Zm-9.72,9.76c-.63.25-1.26.51-1.9.73l.23-.37Zm12,11.1a2.78,2.78,0,0,0,.28-.51,9.54,9.54,0,0,0,.31-.95,1.27,1.27,0,0,0,.47.45c-.37.39-.73.79-1.06,1.19Zm9.53-27s0,0,0,0a8,8,0,0,0-1.75-2,4.58,4.58,0,0,1,2.17,2.32Zm-33,22.49-.13-.13c.3-.11.62-.22.92-.35C209.8,255.36,209.54,255.52,209.27,255.67Zm-1.54.35h0Zm-4.5,3.93c1.61,1.15,3,2.66,4.53,3.91,0,1.19-.08,2.37-.14,3.56A34.18,34.18,0,0,0,204,263.8c-1.09-1-2.87-2.78-4.63-3.28.13-.29.25-.58.38-.86A17.24,17.24,0,0,0,203.23,260Zm6.67-1.63h0v0c1.64,1.28,3.32,2.51,5,3.71.87.62,7.9,6.33,7.1,6.59a32.72,32.72,0,0,0-12.9,8.12.68.68,0,0,0-.12.22C210,270.81,210.91,264.32,209.9,258.32Zm13.71-9.55-.11-.08.18,0Zm5.54.31a1.89,1.89,0,0,1,.46.74,5.74,5.74,0,0,0-.65-.88Zm.33,9.35a6.23,6.23,0,0,1-1.06,1.17,5.74,5.74,0,0,0-.6.61,4.53,4.53,0,0,1,.27-.54c.45-.83,1.08-1.69,1.64-2.6C229.62,257.54,229.54,258,229.48,258.43Zm3.13,9a.72.72,0,0,0,.29,0l.29.3-.8-.24a9.91,9.91,0,0,1-2.42-1.11A16.25,16.25,0,0,0,232.61,267.46Zm9.86-54.4c-.39,2.09-2,3.79-2.72,5.76-.45,1.25-2,5.38-1.05,6.84.84,1.28,2.4,2,3.64,3.08-1.15-.65-2.35-1.21-3.28-1.77a3.71,3.71,0,0,1-1.56-1.83c-.11-6,3.77-10.91,3.95-16.84a.38.38,0,0,0,.38-.09A7.4,7.4,0,0,1,242.47,213.06Zm-65.22,33.1a.33.33,0,0,0-.14,0c-.25-.07-.5-.15-.76-.2a10.21,10.21,0,0,0-.92-1.24ZM190,256.31a.38.38,0,0,0,0-.58c-.16-.19-.35-.38-.52-.57a45.35,45.35,0,0,0,5.42,3A6.65,6.65,0,0,1,190,256.31Zm5.73,12.21c.52-1.09,1-2.18,1.53-3.27,2.19.6,4.09,3.27,5.47,4.92a64,64,0,0,1,4.2,5.61q-.32,2.79-.73,5.61C202.85,277,199.71,272.38,195.71,268.52Zm10.46,28.94c.56-4.9,1.13-9.79,1.89-14.67.28-1.82.61-3.7.93-5.62a.6.6,0,0,0,.42.6,34.45,34.45,0,0,1,9.48,4.52c5,3.38,2.62,2.9-1.14,4.62C212.76,289.2,208.68,292.54,206.17,297.46Zm15.58,31.12c-4.09-2.89-12.89-4.25-14.81-9.21-2.23-5.78,12.14-8.59,16.81-9A147.66,147.66,0,0,1,221.75,328.58Zm2.12-20.77c-3.49-4-8.08-6.28-13-8.45-.52-.24-3.64-1-3.09-2.19a18.24,18.24,0,0,1,4.44-5.55,23.85,23.85,0,0,1,9.94-5c-1.49,3.65,0,8.11,1.86,11.58C224.05,301.43,224,304.62,223.87,307.81Zm.2-11.93v.89c-1.23-3.28-1.64-6.9,0-9.81C224.08,289.94,224.06,292.91,224.07,295.88Zm6.8-15.44c-2,1.43-3.9,1.54-5.67,2.63,0-1.85,0-3.7,0-5.55a4.78,4.78,0,0,0,.44.29C226.37,278.24,233.13,278.85,230.87,280.44Zm5.94-7.56c-.69.43-2.38.06-3.14,0a35.17,35.17,0,0,0-6.8-.28,3.39,3.39,0,0,0-1.63.64v-.5c.09-7.6.48-15.5-1.14-23a.32.32,0,0,0,.14-.21,4.19,4.19,0,0,1,.54-1.05,4,4,0,0,1,3,1.08c5.56,5.11-3,8.37-2.13,13.34.85,4.67,8.87,8.78,13.06,5.95A3.62,3.62,0,0,1,236.81,272.88Z"/><path class="cls-1" d="M223.07,259.09c-3.43-.21-6.8-1.13-10.25-.87-.26,0-.27.43,0,.42,3.47,0,6.8,1.17,10.25,1.14A.35.35,0,0,0,223.07,259.09Z"/><path class="cls-1" d="M140.69,339.77l-.25-.2a.17.17,0,0,0-.24.24c.19.21.48.55.78.57a.23.23,0,0,0,.23-.17c0-.19-.1-.3-.23-.43A.2.2,0,0,0,140.69,339.77Z"/><path class="cls-1" d="M141.46,340.29c-.26,0-.5.14-.76.18a.48.48,0,0,0-.34.45.29.29,0,0,0,0,.09v0a.47.47,0,0,0,.56.32,1.88,1.88,0,0,0,.92-.38C142.21,340.69,141.82,340.23,141.46,340.29Z"/><path class="cls-1" d="M140.15,341.61a1.63,1.63,0,0,0,.84.6.28.28,0,1,0,.08-.55c-.23,0-.42-.25-.58-.39A.24.24,0,0,0,140.15,341.61Z"/><path class="cls-1" d="M142.93,343.9a1.73,1.73,0,0,0-.31-1.64.36.36,0,0,0-.6,0c-.14.19-.57.16-.78.29a.16.16,0,0,0,.12.29c.24-.06.28.06.49.1h0s0,0,0,.07a3.14,3.14,0,0,0,.31.89.27.27,0,0,0,.08.07c.07.57.08,1.14.12,1.72a.16.16,0,0,0,.32,0,7.87,7.87,0,0,0-.08-1.61A.33.33,0,0,0,142.93,343.9Z"/><path class="cls-1" d="M139.57,349.81c-3-.17-7,1.51-7.28-2.51a35.8,35.8,0,0,0,6.33-1.16c1.48-.42,2.61-.58,2.61-2.2a.17.17,0,0,0-.33,0c-.07,1.24-3.6,1.37-4.46,1.51-1.61.26-3.24.41-4.87.55a.7.7,0,0,0-.69.69c0,2,.45,3.74,2.42,4.54s4.72.08,6.46-.71C140.13,350.35,139.91,349.83,139.57,349.81Z"/><path class="cls-1" d="M148.69,348.15c0-.15-.27-.08-.24.07,1.25,5.84.87,12,.6,18a.11.11,0,0,0,0,.06,7.16,7.16,0,0,1-1.41,3.94c-1,1.08-2.79,1-4.13.78-.16-4-.6-8-.74-12.05-.11-3.11-.32-6.36-1.66-9.21a4.07,4.07,0,0,1,1.77.09,9.09,9.09,0,0,0,0,1.65.21.21,0,0,0,.4,0,9.84,9.84,0,0,0,0-1.8.23.23,0,0,0-.15-.2,4.59,4.59,0,0,0-2.18-.06l0-.05c-.06-.13-.24,0-.21.09v0l-.19,0c-.19.07-.11.38.09.32l.15,0c1.19,7.11-1,15.76,1.91,22.36.18.41.81.22.85-.18a4.76,4.76,0,0,0,4.74-.42,5.52,5.52,0,0,0,1.89-4.88C150.4,360.41,150.3,354.28,148.69,348.15Z"/><path class="cls-1" d="M144.69,364.65c-.24,1.61-1.29,6.41,2,5.43a.41.41,0,0,0-.11-.8,2.58,2.58,0,0,1-1.43-.2c-.49-.29-.49-.93-.5-1.43a22.68,22.68,0,0,1,.31-3C145,364.54,144.71,364.5,144.69,364.65Z"/><path class="cls-1" d="M202.11,310.5c.4-.63-.46-1.18-1-.75-8.31,6.91-17.34,10.45-27.6,13.64a.14.14,0,0,0,.08.26C182.58,321,196.61,319.14,202.11,310.5Z"/><path class="cls-1" d="M232.57,62.54a.14.14,0,0,0,0,.27A.14.14,0,1,0,232.57,62.54Z"/></g></g></svg>