<svg xmlns="http://www.w3.org/2000/svg" viewBox="0 0 216.42 473.75"><defs><style>.cls-1{fill:#fff;}</style></defs><title>Tyrion</title><g id="Layer_2" data-name="Layer 2"><g id="Layer_1-2" data-name="Layer 1"><path class="cls-1" d="M76.45,331.23c-2.94-1.05-4.37-4.73-2.14-7.2.76-.84,2-1.64,3.17-1,1.74.91-.24,4.64-.85,2.09-.14-.61-.94-.4-1,.14-.28,2.26,2.08,3.1,3.34,1.21,1.43-2.14.49-5.06-2.22-5.25s-4.57,2.75-4.75,5.05a5.25,5.25,0,0,0,4.34,5.46A.23.23,0,0,0,76.45,331.23Z"/><path class="cls-1" d="M91.63,325a.25.25,0,0,0-.49,0A14.32,14.32,0,0,0,91,327c-.74.2-1.93,1-2.44,0-.39-.74.81-1.19,1.4-1.33a.23.23,0,0,0,0-.43,2.13,2.13,0,0,0-2,.45,1.37,1.37,0,0,0-.41.73,5,5,0,0,0-.59-1.35.27.27,0,0,0-.46.27,17.56,17.56,0,0,1,.64,2,.3.3,0,0,0,.48,0c.54,1.32,2.48,1.42,3.55.63a2.31,2.31,0,0,0,.18.35.35.35,0,0,0,.64-.17,6,6,0,0,0-.16-1.52C91.75,326.12,91.69,325.53,91.63,325Z"/><path class="cls-1" d="M96.43,321.58a4.75,4.75,0,0,0-3.34.19,3.12,3.12,0,0,0-1.28,1,3.58,3.58,0,0,0-.37.66c-.12.27-.9-.21-1.19-.32a.36.36,0,0,0-.42.14c-4.08-2.44-7.71-6.25-12.85-5.55-4,.55-7.54,2.58-8.82,6.07a3.2,3.2,0,0,0-2.58.65,3.08,3.08,0,0,0-1,2.54A2.5,2.5,0,0,0,65.91,329a2.73,2.73,0,0,0,2,0c1,3.75,4.44,6.75,8.37,6.42a14.08,14.08,0,0,0,4-1c.91,1.15,2.39.75,3.71.11a11,11,0,0,0,2.61-2l.62-.56a.88.88,0,0,1,.49.19,2.39,2.39,0,0,0,.67.47c1.25.49,2.32-.55,3.59-.15a.75.75,0,0,0,.7-.1l.27.13a3.19,3.19,0,0,0,2.81-.52,1.56,1.56,0,0,0,1.21.32c.89.58,1.74.93,2.54.44l.25,0a18.94,18.94,0,0,1,1.9,3,5.59,5.59,0,0,0,2.65,2c.81.36,2,.76,2.81.08a1.29,1.29,0,0,0,.44-.73,8.35,8.35,0,0,0,4.49.74,9.3,9.3,0,0,0,6.93-5.58,2.2,2.2,0,0,0,2.78-1.24,2.31,2.31,0,0,0-1.75-3.11,8.19,8.19,0,0,0-6.16-8.17c-5.3-1.56-10.19,2.6-15.11,3.92A4,4,0,0,0,96.43,321.58Zm-29.86,6a1.14,1.14,0,0,1-.49-.79c-.13-1.14.79-1.77,1.78-2.09a9.52,9.52,0,0,0-.21,2.49,1.49,1.49,0,0,0,0,.21A2.11,2.11,0,0,1,66.57,327.62Zm17,5.24-.11,0,.41-.22Zm-2.27,1.07s.06.07.11.08l.09,0a.43.43,0,0,0,.14.37,1.22,1.22,0,0,1-.7-.3Zm7.07-3.16,0-.07a1.33,1.33,0,0,0,.5.26A1.57,1.57,0,0,1,88.39,330.77Zm32.07-.28a.6.6,0,0,1-.46.41.78.78,0,0,1-.43-.07,12,12,0,0,0,.37-1.68A1.19,1.19,0,0,1,120.46,330.49Zm-13.4-8.24c4.42-1.87,9.61-.74,10.84,4.35a8.22,8.22,0,0,1-1.1,5.66c-2,3.72-5.76,4.19-9.26,2.57-2.92-1.36-5.48-4.67-8.74-5.11a.79.79,0,0,0-.71.21,3.85,3.85,0,0,0-.13-1.56.33.33,0,0,0-.64.17,2.15,2.15,0,0,1-.19,1.3,2.94,2.94,0,0,1-.54.73,1.14,1.14,0,0,1-.17-.15.77.77,0,0,0-1.07,0c-.89.7-1.78.88-2.52.21a.44.44,0,0,0-.32-.37h0a.44.44,0,0,1-.08-.11.63.63,0,0,0-.84-.22h-.53a.28.28,0,0,0-.33,0l-.47-.08-.38-.1.46-.17c.34-.11.4-.67,0-.75-6.28-1.21-14,9.89-19.14,2.47-4.86-6.95,2.37-12.92,9.26-11.72,3.74.66,6.65,3.94,10.34,5a.33.33,0,0,0,.26,0,1.26,1.26,0,0,0,1.15,0c.32-.18.47-.63.74-.89a2.76,2.76,0,0,1,1.19-.64,3.32,3.32,0,0,1,2.61.41c1.09.67.65,1.83.53,2.84a.62.62,0,0,0,1.06.43l.06-.09a.37.37,0,0,0,.36.06,3,3,0,0,1,1.32-.26c.18,0,.23.33.24.62a3.23,3.23,0,0,0-1.08.58c-.47.36,0,1.13.56,1s.7-.44,1.1-.48a.57.57,0,0,0,.57-.57c0-.74-.1-1.7-.88-2a2.36,2.36,0,0,0-1.71.23,2.7,2.7,0,0,0,.14-1C101.89,324.72,104.43,323.35,107.06,322.25Z"/><path class="cls-1" d="M111.67,328.69a.57.57,0,0,0-.13-1c-.2,0-1.13,0-1.16-.25a1.9,1.9,0,0,1,.58-1.21c.52-.67,1.84-1.92,2.74-1.19,1.5,1.23,1.35,4.65,0,5.88-1.55,1.45-4.44,1.15-6.35.91-.18,0-.21.26,0,.31,2.67.76,6.29,1.27,8.13-1.32,1.41-2,.82-6.48-1.6-7.49-1.8-.76-4,1.21-4.61,2.75C108.61,327.75,109.69,329.61,111.67,328.69Z"/><path class="cls-1" d="M84.79,326.17c-1.44.43-1.08-3.59-2.63-2.68-2.27,1.33-1.43,8.92-5.69,6.07-.15-.1-.34.14-.2.26,3.39,2.92,4.81-2.09,5.87-4.52a6.41,6.41,0,0,1,.35-.69,1.42,1.42,0,0,0,.05.16,14.19,14.19,0,0,0,.55,1.41,1.38,1.38,0,0,0,2,.69A.38.38,0,0,0,84.79,326.17Z"/><path class="cls-1" d="M85.11,324.45a5,5,0,0,1,.31,1.67,6.41,6.41,0,0,0,.09,1.52c.12.42.8.35.77-.1a8.92,8.92,0,0,0-.64-3.32C85.5,323.93,85,324.14,85.11,324.45Z"/><path class="cls-1" d="M101.78,327.93c.58-.22.71-1.16.93-1.68.06-.15-.17-.27-.27-.16a4.31,4.31,0,0,0-.54.73c-.18.29-.44.53-.41.89A.24.24,0,0,0,101.78,327.93Z"/><path class="cls-1" d="M103.49,328a8.61,8.61,0,0,0,.57-1.28c.08-.2-.22-.3-.33-.14a9.15,9.15,0,0,0-.78,1.1C102.78,328.08,103.29,328.39,103.49,328Z"/><path class="cls-1" d="M104,329.42a.22.22,0,0,0,.16.18c.81.3.86,1.31,1.16,2a1.17,1.17,0,0,0,2.1,0c.13-.26,0-.68-.37-.64a2.33,2.33,0,0,0-.63.16c-.1,0-.16,0-.1.05a2.28,2.28,0,0,1-.47-.74c-.31-.6-.72-1.21-1.41-1.28a5.69,5.69,0,0,0,1.27-3.27c0-.2-.29-.19-.31,0a5.45,5.45,0,0,1-1.61,2.9A.42.42,0,0,0,104,329.42Z"/><path class="cls-1" d="M73.64,384.63c-3-.9-4.63-4.5-2.52-7.07.75-.92,2.33-2,3.42-1a2.19,2.19,0,0,1,.17,2.47c-.61,1.16-1,.14-1.18-.55a.52.52,0,0,0-1,.14c-.2,2.63,2.38,2.77,3.55.83a3.17,3.17,0,0,0-2.89-4.87c-2.65.24-4.33,3.16-4.22,5.59a5.24,5.24,0,0,0,4.63,4.91C73.85,385.1,73.88,384.7,73.64,384.63Z"/><path class="cls-1" d="M88.49,377.57c0-.29-.47-.2-.49.06a15.64,15.64,0,0,0,0,2.09c-.7.23-1.86,1-2.41.14s.69-1.25,1.29-1.44c.2-.06.23-.39,0-.43a2.12,2.12,0,0,0-2,.54,1.57,1.57,0,0,0-.38.76,4.63,4.63,0,0,0-.64-1.32c-.2-.26-.64,0-.46.27a18.92,18.92,0,0,1,.73,2,.31.31,0,0,0,.5,0c.59,1.29,2.55,1.29,3.57.45a1.35,1.35,0,0,0,.19.33.35.35,0,0,0,.64-.17,6.83,6.83,0,0,0-.25-1.61C88.65,378.7,88.57,378.13,88.49,377.57Z"/><path class="cls-1" d="M94.23,384.64c.9.53,1.79.86,2.56.32l.25,0a17.93,17.93,0,0,1,2,2.88,5.47,5.47,0,0,0,2.6,1.89c.83.31,2.2.77,3,0A1.46,1.46,0,0,0,105,389a10.08,10.08,0,0,0,4.5.55c3.24-.35,5.5-3,6.66-5.91a2.21,2.21,0,0,0,2.72-1.33,2.31,2.31,0,0,0-1.85-3,8.33,8.33,0,0,0-6.54-7.85c-5.41-1.33-10,3.06-14.94,4.62A3.94,3.94,0,0,0,94,374.37c.52-1.35.22-2.8.11-4.29-.23-3.06-.67-6.08-.88-9.13a31.43,31.43,0,0,0,10.17,6.86c.11,0,.19-.15.08-.2a35.83,35.83,0,0,1-10.29-7.32c0-.4-.06-.79-.07-1.19-.06-1.76,0-3.53.07-5.29,1.75,1.13,3.48,2.29,5.17,3.52.14.1.28-.14.14-.25-1.72-1.26-3.5-2.45-5.3-3.6.09-1.78.23-3.55.38-5.33.25.22.51.43.75.66s.33-.08.2-.21c-.3-.29-.61-.54-.92-.81A119.57,119.57,0,0,0,94.23,335a.34.34,0,0,0-.68,0A104.44,104.44,0,0,1,92,346.51a51.72,51.72,0,0,0-4.52-2.89.1.1,0,1,0-.1.17c1.55,1,3.11,1.94,4.57,3-.31,1.76-.6,3.53-.85,5.3A127.76,127.76,0,0,1,80,344.64c-.09-.07-.21.06-.12.13A123.51,123.51,0,0,0,91,352.44c-.24,1.75-.42,3.51-.52,5.28-4.91-4.81-9.79-9.61-16.58-11.11-.12,0-.17.16,0,.19,6.88,1.59,11.67,6.61,16.59,11.5,0,.27,0,.53,0,.8-.11,3.52-.16,10.92,1.59,14.78a5.48,5.48,0,0,0-2.18.47,3.05,3.05,0,0,0-1.24,1,3.8,3.8,0,0,0-.32.6c-.16.43-.84,0-1.22-.15a.34.34,0,0,0-.44.17c-4.8-2.44-8.29-5.84-14.23-4.74a10.05,10.05,0,0,0-7.52,6.29,3.44,3.44,0,0,0-2.4.76,2.94,2.94,0,0,0-.88,2.51,2.52,2.52,0,0,0,1.48,2.1,2.58,2.58,0,0,0,2.07-.19c1.32,3.54,4.34,6.92,8.44,6.1a17.83,17.83,0,0,0,4-1.37c.94,1.21,2.32.74,3.67.12a9.76,9.76,0,0,0,2.67-2.25l.51-.49a1.05,1.05,0,0,1,.67.2,2.47,2.47,0,0,0,.91.47c1,.35,2.07-.74,3.2-.45a.83.83,0,0,0,.72-.14,2.07,2.07,0,0,0,.53.18,2.86,2.86,0,0,0,1.82-.29c0,.06,0,.1,0,.17-.23,4.73-.36,9.33-.69,13.93a65.51,65.51,0,0,1-7.61-6.74.07.07,0,0,0-.1.11,65.66,65.66,0,0,0,7.69,6.95c-.19,2.45-.44,4.91-.79,7.38-1.59-1.32-3.19-2.63-4.75-4-.14-.12-.34.07-.2.19,1.61,1.41,3.26,2.78,4.9,4.16-.21,1.43-.44,2.85-.74,4.29-.39,1.92-.65,3.85-.89,5.78A48.32,48.32,0,0,1,82,410.61c-.11-.12-.29.06-.18.19A48.09,48.09,0,0,0,89,417.41c-.21,1.71-.39,3.43-.63,5.14-.3,2.13-.66,4.42,0,6.43l-.07.26c-.08.31-.17.61-.26.92l-.53.19a3,3,0,0,0-1.24,1,2.66,2.66,0,0,0-.32.6c-.17.43-.84,0-1.23-.15a.33.33,0,0,0-.43.17c-4.8-2.44-8.3-5.84-14.23-4.74a10,10,0,0,0-7.52,6.29,3.44,3.44,0,0,0-2.4.76,2.91,2.91,0,0,0-.88,2.51,2.53,2.53,0,0,0,1.47,2.1,2.61,2.61,0,0,0,2.08-.19c1.31,3.54,4.34,6.92,8.44,6.1a18.18,18.18,0,0,0,4-1.37c.94,1.21,2.32.74,3.66.12a9.8,9.8,0,0,0,2.68-2.25l.51-.49a1.05,1.05,0,0,1,.67.2,2.43,2.43,0,0,0,.9.47c1,.35,2.08-.74,3.21-.45a.81.81,0,0,0,.71-.14l.35.13a4.52,4.52,0,0,0-.65,1.93.94.94,0,0,0,.17.66c-1,2.47-.83,5.9-.94,8.29a40.81,40.81,0,0,0-5.09-4.27c-.09-.06-.16.07-.08.13a42.7,42.7,0,0,1,5.16,4.59c-.08,1.81-.08,3.62,0,5.43-1.15-.93-2.31-1.85-3.51-2.72-.17-.12-.32.15-.16.27,1.27.93,2.48,1.94,3.68,3,.14,5.05.51,10.11-.16,15.16,0,.34.53.41.6.08a90.94,90.94,0,0,0,1.65-13.47c1.37,1.14,2.76,2.26,4.23,3.26.14.09.31-.13.18-.23-1.48-1.15-2.92-2.36-4.37-3.56.1-1.48.2-3,.32-4.42.45.54.9,1.08,1.34,1.65.09.13.32,0,.22-.13-.48-.69-1-1.36-1.52-2a71.25,71.25,0,0,1,1.68-11.32,1.29,1.29,0,0,0-.3-1.19l.14-.19a4.11,4.11,0,0,0,.81-1.29,1.18,1.18,0,0,0,.59,0c.9.53,1.79.86,2.56.32l.24,0a18,18,0,0,1,2,2.88,5.47,5.47,0,0,0,2.6,1.89c.82.31,2.2.77,3,0a1.48,1.48,0,0,0,.44-.82,10.06,10.06,0,0,0,4.5.55c3.24-.35,5.5-3,6.65-5.91a2.23,2.23,0,0,0,2.73-1.33,2.31,2.31,0,0,0-1.86-3,8.32,8.32,0,0,0-6.54-7.85c-5.4-1.33-10,3.06-14.94,4.62a3.94,3.94,0,0,0-2-1.82,82.24,82.24,0,0,0,1.31-10.41c.59.36,1.19.71,1.8,1a.12.12,0,0,0,.12-.21c-.64-.38-1.27-.77-1.9-1.16.26-3.38.5-6.76,1-10,1.28,1.11,2.54,2.23,3.76,3.41.13.13.33-.08.2-.21-1.25-1.25-2.57-2.43-3.91-3.59,0-.11,0-.22,0-.34a54.63,54.63,0,0,0,.64-7.4c2.93,2.13,6,4.12,9,6.08a.17.17,0,1,0,.17-.29c-3.1-2-6.19-4-9.19-6.16.11-5.3-.37-10.58-.75-15.94a.67.67,0,0,0-.17-.41A1.32,1.32,0,0,0,94.23,384.64Zm-33,52.85a1,1,0,0,1-.32-.25,1.46,1.46,0,0,1-.24-.63c-.18-1,.63-1.6,1.53-2a6.66,6.66,0,0,0,.11,2.62h0C62,437.39,61.61,437.59,61.27,437.49Zm14.54,5.69.39-.2a.24.24,0,0,0,.19.17l.11,0a.44.44,0,0,0,.17.39A1.29,1.29,0,0,1,75.81,443.18Zm3.07-1.66a.24.24,0,0,0,0,.08c-.14.12-.29.23-.44.34a.57.57,0,0,0-.24.05,10.1,10.1,0,0,0-.92.49l-.22,0C77.68,442.2,78.28,441.86,78.88,441.52Zm4.32-1.93,0-.08a1.32,1.32,0,0,0,.51.24A1.63,1.63,0,0,1,83.2,439.59Zm32-1.78a.65.65,0,0,1-.4.38.79.79,0,0,1-.47-.05,11.28,11.28,0,0,0,.32-1.68A1.18,1.18,0,0,1,115.21,437.81Zm-23.36-3.24c0,.67.8.75,1.14.33a.35.35,0,0,0,.34,0,3.14,3.14,0,0,1,1.3-.34c.21,0,.28.33.3.62a3.1,3.1,0,0,0-1,.6.58.58,0,0,0,.56,1c.44-.16.76-.5,1.23-.56a.57.57,0,0,0,.42-.56c-.06-.71-.17-1.71-1-2a2.41,2.41,0,0,0-1.68.29,2.6,2.6,0,0,0,.09-1c2.93-.06,5.44-1.59,8-2.84,4.77-2.29,10.51-.54,11.05,5.18a8.54,8.54,0,0,1-1.43,5.14c-2,3.43-5.67,3.61-9,2.18-2.94-1.28-5.58-4.3-8.87-4.58a.7.7,0,0,0-.54.24,3.69,3.69,0,0,0-.2-1.52.34.34,0,0,0-.65.18,2.16,2.16,0,0,1-.1,1.28,2.48,2.48,0,0,1-.52.78.67.67,0,0,1-.14-.11.79.79,0,0,0-1.08,0c-.85.74-1.75,1-2.52.38a.43.43,0,0,0-.36-.38l-.07-.08a.63.63,0,0,0-.84-.22l-.54.05a.32.32,0,0,0-.34,0l-.44-.06-.43-.08.44-.19c.31-.12.43-.69,0-.75-6.14-.92-11.09,8.28-17.36,5-2.7-1.4-3.86-5.68-3.31-8.39.74-3.62,5.13-5.14,8.3-5.52,4.47-.53,8.37,3.62,12.59,4.59a.36.36,0,0,0,.27-.05,1.13,1.13,0,0,0,1.26-.16c.42-.42.66-.81,1-1.12a1,1,0,0,0,1.69-.23c0-.11,0-.22.08-.34a3.08,3.08,0,0,1,1.79.57C92.28,432.63,91.92,433.62,91.85,434.57Zm25.69-52.76a.66.66,0,0,1-.39.38.77.77,0,0,1-.47-.05,14.59,14.59,0,0,0,.32-1.68A1.19,1.19,0,0,1,117.54,381.81Zm-53.93-.32a.93.93,0,0,1-.32-.25,1.35,1.35,0,0,1-.25-.63c-.18-1,.64-1.6,1.54-2a6.65,6.65,0,0,0,.1,2.62h0C64.3,381.39,63.94,381.59,63.61,381.49Zm14.53,5.69.39-.2a.25.25,0,0,0,.19.17l.12,0a.46.46,0,0,0,.16.39A1.31,1.31,0,0,1,78.14,387.18Zm3.07-1.66,0,.08-.44.34a.52.52,0,0,0-.24.05,9.1,9.1,0,0,0-.93.49l-.22,0C80,386.2,80.62,385.86,81.21,385.52Zm4.32-1.93a.35.35,0,0,0,0-.08,1.3,1.3,0,0,0,.52.24A1.62,1.62,0,0,1,85.53,383.59Zm4.44-.34a.42.42,0,0,0-.36-.38l-.07-.08a.63.63,0,0,0-.84-.22l-.54.05a.3.3,0,0,0-.33,0c-.15,0-.3,0-.45-.06L87,382.5l.43-.19c.32-.12.43-.69,0-.75-6.14-.92-11.08,8.28-17.35,5-2.71-1.4-3.86-5.68-3.31-8.39.73-3.62,5.13-5.14,8.29-5.52,4.48-.53,8.37,3.62,12.6,4.59a.34.34,0,0,0,.26-.05,1.13,1.13,0,0,0,1.26-.16c.7-.7.9-1.32,2-1.6a3.13,3.13,0,0,1,2.61.48c.89.7.53,1.69.46,2.64-.05.67.8.75,1.14.33a.36.36,0,0,0,.34,0,3.18,3.18,0,0,1,1.3-.34c.21,0,.28.33.3.62a3.1,3.1,0,0,0-1,.6.59.59,0,0,0,.57,1c.43-.16.75-.5,1.22-.56a.57.57,0,0,0,.43-.56c-.07-.71-.17-1.71-1-2a2.42,2.42,0,0,0-1.68.29,2.43,2.43,0,0,0,.09-1c2.93-.06,5.44-1.59,8.06-2.84,4.76-2.29,10.5-.54,11,5.18a8.6,8.6,0,0,1-1.43,5.14c-2,3.43-5.68,3.61-9,2.18-2.95-1.28-5.59-4.3-8.87-4.58a.7.7,0,0,0-.54.24,3.87,3.87,0,0,0-.21-1.52.33.33,0,0,0-.64.18,2.24,2.24,0,0,1-.11,1.28,2.63,2.63,0,0,1-.51.78.72.72,0,0,1-.15-.11.78.78,0,0,0-1.07,0C91.65,383.61,90.75,383.88,90,383.25Z"/><path class="cls-1" d="M108.67,380.4a.57.57,0,0,0-.14-1c-.22,0-1.1.05-1.18-.18-.15-.41.31-1,.52-1.27.47-.71,1.63-1.86,2.57-1.37.69.36.91,1.42,1.07,2.1a3.89,3.89,0,0,1-.63,3.81c-1.49,1.55-4.37,1.39-6.31,1.24-.18,0-.22.27,0,.31,2.68.63,6.34,1,8-1.68,1.28-2,.58-6.66-2-7.45-1.82-.56-3.85,1.32-4.41,2.91S106.67,381.48,108.67,380.4Z"/><path class="cls-1" d="M81.73,379.16c-1.56.55-1-3.33-2.75-2.56-.84.38-1.11,2.23-1.31,3-.57,2.08-1.38,5-4.09,3.4-.16-.1-.35.14-.2.26,3.39,2.65,4.65-2,5.54-4.51a7.73,7.73,0,0,1,.42-1l.06.13a13.07,13.07,0,0,0,.6,1.38,1.4,1.4,0,0,0,2,.63C82.38,379.64,82.15,379,81.73,379.16Z"/><path class="cls-1" d="M82,377.49c.48,1,.19,2.09.53,3.09.14.4.82.36.77-.1a8.83,8.83,0,0,0-.79-3.29C82.29,376.86,81.82,377.15,82,377.49Z"/><path class="cls-1" d="M98.82,380.08c.53-.23.62-1.2.8-1.69,0-.15-.17-.28-.27-.16a5.4,5.4,0,0,0-.51.74c-.16.3-.41.56-.37.91A.24.24,0,0,0,98.82,380.08Z"/><path class="cls-1" d="M100.48,380.14a9.1,9.1,0,0,0,.51-1.31.18.18,0,0,0-.33-.14,11.55,11.55,0,0,0-.76,1.2C99.77,380.23,100.32,380.45,100.48,380.14Z"/><path class="cls-1" d="M101.06,381.45a.21.21,0,0,0,.16.21c.84.26.91,1.25,1.26,1.93a1.17,1.17,0,0,0,2.09-.09.43.43,0,0,0-.48-.62,2.25,2.25,0,0,0-.57.19c-.06,0-.12,0-.07,0a2.37,2.37,0,0,1-.54-.78,1.89,1.89,0,0,0-1.42-1.14,5.63,5.63,0,0,0,1.11-3.31.16.16,0,0,0-.31,0c0,1.25-.84,2.08-1.52,3A.35.35,0,0,0,101.06,381.45Z"/><path class="cls-1" d="M71.31,440.63c-3-.9-4.63-4.5-2.53-7.07.76-.92,2.33-2,3.43-1a2.19,2.19,0,0,1,.16,2.47c-.61,1.16-1,.14-1.18-.55a.52.52,0,0,0-1,.14c-.21,2.63,2.38,2.77,3.54.83a3.17,3.17,0,0,0-2.89-4.87c-2.64.24-4.33,3.16-4.21,5.59a5.23,5.23,0,0,0,4.63,4.91C71.51,441.1,71.54,440.7,71.31,440.63Z"/><path class="cls-1" d="M86.15,433.57c0-.29-.47-.2-.48.06a15.54,15.54,0,0,0-.06,2.09c-.69.23-1.85,1-2.41.14s.69-1.25,1.3-1.44c.2-.06.23-.39,0-.43a2.11,2.11,0,0,0-2,.54,1.49,1.49,0,0,0-.38.76,4.4,4.4,0,0,0-.65-1.32c-.19-.26-.64,0-.45.27a18.92,18.92,0,0,1,.73,2,.31.31,0,0,0,.5,0c.59,1.29,2.55,1.29,3.57.45A1.74,1.74,0,0,0,86,437a.35.35,0,0,0,.65-.17,7.39,7.39,0,0,0-.25-1.61C86.32,434.7,86.24,434.13,86.15,433.57Z"/><path class="cls-1" d="M106.33,436.4a.57.57,0,0,0-.13-1c-.22,0-1.1.05-1.19-.18-.14-.41.32-1,.52-1.27.48-.71,1.64-1.86,2.57-1.37.69.36.91,1.42,1.08,2.1a3.91,3.91,0,0,1-.63,3.81c-1.49,1.55-4.37,1.39-6.32,1.24-.18,0-.21.27,0,.31,2.69.63,6.35,1,8-1.68,1.29-2,.58-6.66-2-7.45-1.82-.56-3.85,1.32-4.41,2.91S104.34,437.48,106.33,436.4Z"/><path class="cls-1" d="M79.4,435.16c-1.56.55-1.05-3.33-2.75-2.56-.84.38-1.12,2.23-1.32,3-.57,2.08-1.37,5-4.09,3.4-.15-.1-.34.14-.2.26,3.4,2.65,4.66-2,5.55-4.51a5.65,5.65,0,0,1,.42-1,1.39,1.39,0,0,0,.06.13,13.07,13.07,0,0,0,.6,1.38,1.39,1.39,0,0,0,2,.63C80.05,435.64,79.82,435,79.4,435.16Z"/><path class="cls-1" d="M79.64,433.49c.48,1,.19,2.09.53,3.09.13.4.82.36.77-.1a9,9,0,0,0-.79-3.29C80,432.86,79.48,433.15,79.64,433.49Z"/><path class="cls-1" d="M96.48,436.08c.53-.23.62-1.2.8-1.69,0-.15-.16-.28-.26-.16a4.64,4.64,0,0,0-.51.74c-.16.3-.41.56-.37.91A.23.23,0,0,0,96.48,436.08Z"/><path class="cls-1" d="M98.15,436.14a9.1,9.1,0,0,0,.51-1.31.18.18,0,0,0-.33-.14,9,9,0,0,0-.76,1.2C97.43,436.23,98,436.45,98.15,436.14Z"/><path class="cls-1" d="M98.72,437.45a.22.22,0,0,0,.16.21c.84.26.92,1.25,1.26,1.93a1.18,1.18,0,0,0,2.1-.09.43.43,0,0,0-.48-.62,2.25,2.25,0,0,0-.57.19c-.07,0-.12,0-.07,0a2.37,2.37,0,0,1-.54-.78,1.9,1.9,0,0,0-1.42-1.14,5.62,5.62,0,0,0,1.1-3.31.15.15,0,1,0-.3,0c0,1.25-.84,2.08-1.52,3A.34.34,0,0,0,98.72,437.45Z"/><path class="cls-1" d="M67.68,301.89c.48.21.9-.48.41-.71-18.5-8.65-34.15-21.32-43-40.09-.12-.27-.5,0-.39.23C32.87,280.22,49.11,293.71,67.68,301.89Z"/><path class="cls-1" d="M33.62,283.47c-.08-.09-.21,0-.13.13,6.46,7.45,13.81,13.94,22.62,18.46.25.13.47-.25.22-.38A79.72,79.72,0,0,1,33.62,283.47Z"/><path class="cls-1" d="M169,270a99.34,99.34,0,0,1-22.22,19.07c-9.28,5.88-19.57,8.84-29.35,13.62-.21.1,0,.4.17.3,5.6-2.61,11.49-4.42,17.2-6.75a88,88,0,0,0,13.64-7.46,90.38,90.38,0,0,0,20.92-18.43C169.61,270.14,169.26,269.78,169,270Z"/><path class="cls-1" d="M160.7,287.78c.29-.21,0-.69-.29-.48-8.75,6.11-16.68,13.45-26.9,17.07-.21.08-.12.4.09.33C143.91,301.21,152,294,160.7,287.78Z"/><path class="cls-1" d="M31.89,183.21a.34.34,0,0,0,0-.68A.34.34,0,0,0,31.89,183.21Z"/><path class="cls-1" d="M206.6,110c1.88-3.75,4.14-7.26,5.81-11.11,3.18-7.31,5-16.54,3.43-24.45-3.35-16.87-18-29.66-29.61-41.11C172.61,19.86,158.57,6.9,139.57,1.87,124.87-2,109,.14,96.36,8.43a1.34,1.34,0,0,0-.42-.78c-5.2-4.69-13.27-.56-17.06,4a1.52,1.52,0,0,0-.3,1.31C65.8,20.26,51.83,25.42,40,34.19,29.62,41.82,18.87,55.36,17.88,68.71c-.63,8.4,4.71,17.32.2,25.18-3.12,5.44-8.44,8.55-10,15C6.27,116,10,121.5,12.35,128c2.91,8-1.67,13.44-2.75,21.14a.4.4,0,0,0,.05.22C8.05,151,7.41,154,6.82,155.9a.3.3,0,0,0-.26.31,11.27,11.27,0,0,0,2.29,7.53c2.51,3.22,7.06,6,7.14,10.47.13,6.93-12.91,10.7-8.15,18.88a10,10,0,0,0,7.44,4.82.4.4,0,0,0,.07.65c5.17,2.39.46,13.52,2,18.06a4.27,4.27,0,0,0,3.79,3.13c.36,0,2.63-.91,2.71-.76.57,1.06.89,2.24,1.52,3.27a1.47,1.47,0,0,0,2,.52l1.16-.57c-2.48,5-1.45,11.43-6.53,15.12C16.47,241.29,7,240.47.55,241a.58.58,0,0,0,0,1.15c4.93.46,9.85,1.27,14.67.88a24.25,24.25,0,0,0,4.62,5c.08.06.2-.06.14-.14-1.3-1.76-3.1-3.21-4.56-4.85a24,24,0,0,0,2.51-.34.87.87,0,0,0,.32.06h.14a16.09,16.09,0,0,1,.86,1.44c.25.47.45,1.23.88,1.56a.18.18,0,0,0,.27-.15c0-.54-.53-1.18-.78-1.62a13.37,13.37,0,0,0-.78-1.23,5.91,5.91,0,0,1,1.25.26l.08.06c.91.5.75,1.33.74,2.17a13.58,13.58,0,0,0-.74,4,.39.39,0,0,0,.76.1,24.15,24.15,0,0,1,1-3c1.88-1.74,4.92-4.77,5.61-7.54C29.17,236,30,232,30.6,229.88a99.93,99.93,0,0,1,3.21-10l.11-.13a18.2,18.2,0,0,1,2.42-2,9.49,9.49,0,0,1,2.3-1.14,2,2,0,0,1,.82-.09c0,.23,0,.45,0,.67-2.89.14-4.89,4.07-6.23,6.15-.11.17.16.32.27.16,1.46-2.18,3.13-5.51,6-5.75a15.25,15.25,0,0,0-.52,2.12c-1.55.1-2.66,1.37-3.48,2.58-.11.16.14.35.27.21.83-.92,1.82-2,3.11-2.16a17.2,17.2,0,0,0,.11,5.2c.83,4.93,3.81,9.14,7.11,13.13a54.12,54.12,0,0,0,7.46,9.44c.37.38.76.73,1.14,1.08,4.88,6.33,13.2,11.36,20.26,14.77,5.34,2.58,14.47,4.5,13,12.17-.68,3.53-2.18,6.74-2.62,10.35a44,44,0,0,0,1,14.09c.41,5,3.87,11.61,8.4,12.43.45.08.94-.51.5-.86a16.55,16.55,0,0,1-1.64-1.46,7,7,0,0,0,2.32-.76c-.23,3.46-.24,7-.51,10.42a.13.13,0,0,0,.26,0,43.54,43.54,0,0,0,1.56-7.76.37.37,0,0,0,.19-.07c3.36-2.86,7.26-7.21,7.47-11.9a41.84,41.84,0,0,0,1.12-6.61c.59-6.16-1.08-12.91.56-18.9,2.55-9.32,18.15-11.37,25.8-14.6,8.44-3.56,16.63-8.46,22.68-15.42a28.92,28.92,0,0,0,5.33-9.19,6.4,6.4,0,0,1,.4,2.08c0,.35.49.33.53,0a7.25,7.25,0,0,0-.5-3.35,15.84,15.84,0,0,0,.4-1.69c1.05,1.87,1.77,3.73.94,6.14-.1.29.35.4.45.12a8.51,8.51,0,0,0-1.19-7.78,19.89,19.89,0,0,0,.06-2.78,18.58,18.58,0,0,1,3.06,8.67c0,.22.36.23.36,0A20.79,20.79,0,0,0,161.35,226a.5.5,0,0,0,.17-.32c.07-.51.15-1,.2-1.48,6.57,5.65,4.9,13,4.21,21.17-.64,7.35-.51,15.07,4.22,21.13.21.26.68,0,.56-.33a38.14,38.14,0,0,1-1.32-4.51c1.78-1.52,3.5-3.11,5.27-4.63.14-.13-.06-.33-.21-.21-1.78,1.46-3.41,3.07-5.12,4.61-.13-.57-.25-1.14-.35-1.71h0a53.37,53.37,0,0,1,5.14-4.48c7.95,3.53,21.88,5,25.1,6.76a.27.27,0,0,0,.27-.47c-3.83-2.85-8.7-4.23-13.13-5.87-3.57-1.33-12.8-3.25-14.34-7.35a2,2,0,0,0-.62-.84c.11-.55.19-1.1.26-1.58a48.62,48.62,0,0,0,.49-6.93,17.91,17.91,0,0,0,.09-2.93,2.21,2.21,0,0,0-.09-.46v-.8s0,0,0-.05a4.4,4.4,0,0,0,4.62-.89c2.49-2.17,4.17-4.54,7.66-5.36a5.38,5.38,0,0,0,3.46-2.15c4.24-6.24-1-17,5.51-21.07,1-.08,1.78-.13,2.2-.19,10.24-1.41,8.16-11,5.2-20.19-.08-.25-.16-.5-.25-.76-1-3.17-2.13-6.27-2.84-9a.75.75,0,0,0,.79-.25c3.34-4,8.12-7.37,9.08-12.73.5-2.73-.74-5.74-1.4-8.32a16.17,16.17,0,0,1,1-10.9C209.54,137.42,211.6,132,210,126a14.56,14.56,0,0,0-4.38-6.79C204.49,116.47,204.8,113.58,206.6,110ZM25.28,216.31a3.25,3.25,0,0,0-2.68,0c-3.6,1.09-3.08-3.54-3.07-5.76,0-4.26,1.19-10.36-3.36-12.5.56.07,1.13.13,1.7.16a.31.31,0,0,0,.17.31c6.67,3,2.21,9.1,4.86,14.11,1.48,2.78,5.57,3,7.63,4.8a1.06,1.06,0,0,0-.26.17,23.44,23.44,0,0,1-3,2C26.76,218.35,26.33,216.92,25.28,216.31Zm22.6-87.95a9,9,0,0,1,.57-2.05c.35,1.59.53,3.16-.62,4.41A11,11,0,0,1,47.88,128.36ZM59.06,83.47c-.54-.15-1.08-.31-1.62-.45a.21.21,0,0,0-.14,0c.13-.25.26-.5.4-.74a7.39,7.39,0,0,0,1.24.74C59,83.18,59,83.33,59.06,83.47Zm-1.17-1.53.59-1.09c.07.51.17,1,.28,1.5C58.46,82.22,58.18,82.08,57.89,81.94Zm.44-2.34-.21.32c.07-.2.13-.4.19-.61C58.32,79.41,58.32,79.5,58.33,79.6Zm-1.11,3.61a.18.18,0,0,0,.12.18c.55.23,1.11.41,1.67.59l.26.1a14,14,0,0,0,.7,1.59,26.21,26.21,0,0,1-3.23-1.51C56.9,83.84,57.05,83.52,57.22,83.21Zm3.28,3.37a11.29,11.29,0,0,0,.65.94c-1.63-.76-3.47-1.08-5.13-1.83.19-.42.38-.84.59-1.26A13.41,13.41,0,0,0,60.5,86.58Zm1.32,1.74a.81.81,0,0,1,.12.14,12.76,12.76,0,0,0,1.28,1.16H63.1c-2.85-.05-5.31-1.18-8-1.79.25-.61.5-1.22.78-1.83A26.54,26.54,0,0,0,61.82,88.32ZM54,90.71c5.63,1.45,11.34,3.4,17.2,3.48a.15.15,0,0,0,0-.3c-5.87-.52-11.42-2-17.14-3.36.28-.82.59-1.65.92-2.47,1.91.61,3.76,1.59,5.72,1.85,1,.13,2.05.09,3.05.15,4.67,3.41,11.54,4.14,17,4.08,9.76-.12,19.42-5,29-.79a62.75,62.75,0,0,1,6.71,4c.85,1.9,4.37,2.63,6,3.09a22,22,0,0,0,3,.63c-5.86-.41-12.23-3.39-16.88-5.35-.11,0-.21.11-.1.16,5.53,2.43,14,7.22,20.72,6.13-5.14,1.83-11,.16-16-2.54-.1-.06-.19.1-.09.16,6.1,3.68,14.16,6.11,20,1.36h.05a9.91,9.91,0,0,1-2.77,3c-2.63,1.63-6.21.8-9,.32-.12,0-.17.16,0,.19,3,.7,5.69,1.31,8.69.42a7.41,7.41,0,0,0,3.83-3.46c0,.18,0,.36,0,.53,0,.59-.17,1.16-.25,1.75,0,.09.12.11.17,0a3.31,3.31,0,0,0,.47-1.54,2.56,2.56,0,0,0,.76,1.21s.07,0,.07,0a7.18,7.18,0,0,0-.41-1.32l0-.16a4.43,4.43,0,0,0,1.2,1,.08.08,0,0,0,.09-.11,12.45,12.45,0,0,0-.86-1.09l.07,0a.81.81,0,0,0,.39.12,1.69,1.69,0,0,0,1,.49c.08,0,.13-.11.07-.16a5.58,5.58,0,0,1-.49-.48l.15-.11a3,3,0,0,0,.51.39.18.18,0,0,0,.23,0,44.85,44.85,0,0,0,8.38,4.45,30.35,30.35,0,0,0,13.3,2.1,8.46,8.46,0,0,1,5.71,1.63,18.52,18.52,0,0,0-3.79.91.06.06,0,0,0,0,.11,23.39,23.39,0,0,1,4.15-.71h0a11.3,11.3,0,0,1,1.73,1.79,18.84,18.84,0,0,0-2.59.64.08.08,0,1,0,0,.15c.89-.24,1.85-.25,2.73-.54a16.55,16.55,0,0,1,1.17,1.85c-.6.16-1.2.31-1.79.49a.13.13,0,0,0,.07.24c.63-.12,1.25-.27,1.87-.42a20.4,20.4,0,0,1,1.2,2.91.8.8,0,0,0-.89,0c-.24.17,0,.57.23.4s.48-.06.72,0l.06,0a30.6,30.6,0,0,1,.91,14.1,11.25,11.25,0,0,0-.21,1.39.41.41,0,0,0-.07.15,33.59,33.59,0,0,0-.34,3.62c-.14.87-1.45,1.62-1.75,2.52-.94,2.78.12,4.44,1.07,7.06a.51.51,0,0,0,1-.28c-.24-1-.55-2-.78-3-.49-2.15.71-3.23,1.9-4.71a3.53,3.53,0,0,0,.69-1.71l1.06.16h0c-.09.16-.17.33-.27.49-.45.71-1,1.36-1.36,2.1a4,4,0,0,0-.08,4.06c.09.19.41,0,.34-.14-.69-1.76.44-3.25,1.42-4.58a12.27,12.27,0,0,0,1.2-1.75,1.9,1.9,0,0,1,1.26.84.32.32,0,0,0-.17,0c-1.84.32-3,3.75-2.48,5.49a9.49,9.49,0,0,0-1,1.68,6.55,6.55,0,0,0-.41-.84,12.9,12.9,0,0,1-.56-1.19c-.12-.33-.15-.68-.3-1a.17.17,0,0,0-.3,0c-.35.51-.09,1.17.13,1.68s.4.88.61,1.31.26.65.44.95c-.1.27-.21.55-.32.83a7,7,0,0,0-.34,1.26,9,9,0,0,1-.54-1.33.17.17,0,0,0-.33,0,5.49,5.49,0,0,0,.36,2.41,7.23,7.23,0,0,0,.48,1,7.6,7.6,0,0,0,.17.8,15.29,15.29,0,0,1-4-7.57.2.2,0,0,0-.39.06,15.3,15.3,0,0,0,1.82,6.94c1.67,3.07,5.82,5.71,5.42,9.31a10.94,10.94,0,0,0-.29,1.13c-.06.16-.11.33-.19.5a.89.89,0,0,0,0,.73c-.19,1.4-.24,2.71-.31,3.2-1.09,8.19-2.87,16.33-3.43,24.55a73.11,73.11,0,0,0-1.75,7.3.62.62,0,0,0,0,.27c-2.12,8.24-5.52,16.18-11.94,22-3.27,3-7.55,4.33-11.76,5.74.45-.26.88-.56,1.29-.85.11-.08,0-.26-.11-.19-.74.44-1.55.74-2.29,1.18a.2.2,0,0,0-.06.26c-.26.09-.53.17-.79.27-.33-.4-.64-.81-1-1.17a.08.08,0,0,0-.11.11c.33.36.61.75.92,1.13l-.73.26a8.43,8.43,0,0,0-1.07-1.29c1.1-.93,2.22-1.82,3.23-2.86,0-.05,0-.13-.07-.1-2.82,1.88-6.77,3.89-8.63,7l-.1,0c-2.31,1.89-4.44,3.66-6.72,5.18a32.78,32.78,0,0,1-7.16,2.82,43.13,43.13,0,0,1-6,1.17c-1.33,0-2.64.15-4,.26a70,70,0,0,0-8.42-.34c-.94-.13-1.87-.27-2.8-.42-8.18-2.24-18.25-3-24.11-9.11-4.35-4.54-5.78-10.57-10.86-14.66-.14-.11-.34.08-.2.21a18.34,18.34,0,0,1,2.72,3.46c-.49.4-.82.87-1.57.76-.23,0-.33.31-.1.35a2.28,2.28,0,0,0,2.06-.46,3.54,3.54,0,0,1,.19.33,3.43,3.43,0,0,0-1.38.77.19.19,0,0,0-.08.17c-2-1.85-4.17-3.59-6.18-5.31-1.57-2.17-3.31-4.19-4.78-6.43-2.39-3.64-3.71-7.95-4.84-12.11a.11.11,0,0,0-.21.06c.89,3.91,1.69,7.71,3.46,11.33a19,19,0,0,0,1.39,2.34l-.93-.94a60.84,60.84,0,0,0-3.62-5.09q-.78-1.08-1.53-2.16c-.58-1-1.16-1.91-1.71-2.89a19.27,19.27,0,0,1-1.26-2.78,63.37,63.37,0,0,1-1.25-19.58A95.37,95.37,0,0,0,45,163.44c.77-1.76,2.28-2.77,3.24-4.54,1.25-2.33-.2-5.23-.61-7.57,0-.21-.33-.15-.35,0-.18,3.11,1,6-1.54,8.45-.2.19-.38.38-.56.57a.06.06,0,0,0,0,0,6,6,0,0,0,.73-2.41c.2-2.23-.08-4.49.31-6.7.34-1.94,1.45-3.84,2.15-5.66,1.39-3.6,1-7.15.2-10.82a34.6,34.6,0,0,1-.68-3.49.22.22,0,0,0,.17-.06c1.89-1.56,1.4-3.72,1.23-5.79.9,2.61,2,5.76-.33,7.12-.21.12-.06.38.15.35a2.65,2.65,0,0,0,2.54-2.82c.44,1.8.21,3.46-2.3,4.63-.4.18-.11.88.31.72a4.8,4.8,0,0,0,3.48-5,14.93,14.93,0,0,0-.79-3.91,19.54,19.54,0,0,1-.65-4.17.2.2,0,0,0,.35.08c1.31-1.37.27-3.41-.22-5.09a29.15,29.15,0,0,0,0-5.9A49.13,49.13,0,0,1,54,90.71ZM164.17,106.9a8.32,8.32,0,0,0-1.75-.8,4.34,4.34,0,0,0,1.66-.3,2.7,2.7,0,0,0,.73-.43c.56-.45,2.07,2.32,2.25,2.64a19.41,19.41,0,0,1,1.12,2.35A17.13,17.13,0,0,0,164.17,106.9Zm9.16,35.87a7.75,7.75,0,0,1,.5-1.84,13.23,13.23,0,0,1,1.63-2.05C175.46,140.18,174.1,141.87,173.33,142.77Zm1.82,11.3c-.05.33-.11.67-.18,1l-.11-.16c-2.15-3-2.53-5.24-1.66-7.69a5.54,5.54,0,0,0,.85,2.46A6.17,6.17,0,0,1,175.15,154.07Zm11.67,18.27a4.86,4.86,0,0,0,2.4-.63c4.08-1.6,4.85,1.21,5.75,3.67.13.36.25.73.37,1.09a5.33,5.33,0,0,0-5.68-.33c-2,1.06-4.36,2.76-6.14.22-.4-.58-.21-2.4-.71-2.88s-.64-.57-1.24-.33c-1.46.56-3.26-7.5-3.87-8.69-.1-.19-.38,0-.29.16,1.45,3,1.43,6.39,2.88,9.41a.29.29,0,0,0,.35.14c2.27-.8,1.94,6,4.59,5,3.34-1.22,5.52-3.65,9.35-1.8a7.37,7.37,0,0,1,1.34.84l.15.42a46.59,46.59,0,0,0,1.84,7.67c-.43-.48-.89-1-1.39-1.43a.45.45,0,0,0-.6,0c-2.26,2.29-2.95-1.93-4.46-2.82-1.67-1-4-.07-5.46.87a4.77,4.77,0,0,0-1.18,1.35c-1.09,1.57-3.35-3-3.76-3.76-2.24-4-3.7-8.43-5.38-12.67.37-1.79.75-3.56.94-5.34a8.49,8.49,0,0,1,.16,1,.45.45,0,0,0,.89,0,12.62,12.62,0,0,0-.32-3.6A4.69,4.69,0,0,0,181,161.4C188.31,161.19,180.68,171.19,186.82,172.34ZM170.46,194.8l-.83.73.12-.62A3.6,3.6,0,0,0,170.46,194.8Zm2-16.42a32.81,32.81,0,0,0,3.89,3.84s.05,0,.08,0c.13.23.25.47.36.7l-.57-.43a13.53,13.53,0,0,1-3.88-3.65Zm3.3,2.69c-1.06-1-2.23-1.89-3.22-3,.09-.37.19-.75.28-1.13a18,18,0,0,0,2.89,4A.22.22,0,0,1,175.79,181.07Zm-2.72-5,0-.13c.12.32.26.63.4.93A8.83,8.83,0,0,1,173.07,176.09Zm-.82,3.26a11.63,11.63,0,0,0,2.3,2.67l.29.26c-1.15-.65-2.24-1.22-2.91-1.7C172,180.17,172.14,179.76,172.25,179.35Zm-.43,1.68c1.86,1.79,5,2.89,5.91,5.26a4.64,4.64,0,0,1-.31,1.53,35.79,35.79,0,0,1-4.16,3.34c-.95.66-2.22,1.27-3.23,2.05a14.86,14.86,0,0,0,.08-3.88s0,0,0-.05C170.5,186.51,171.13,183.77,171.82,181Zm-3.58,17.35a.66.66,0,0,0,.55-.11c1-.7,2-1.42,3-2.15a24.51,24.51,0,0,1-3.91,3.91C168,199.47,168.14,198.93,168.24,198.38Zm18.27,17.34c-1.8,4-7.25,2.1-10.62,2.63s-4.42,4.83-8.3,3.92a9.54,9.54,0,0,1-2-1,1.27,1.27,0,0,0-.21-.83c4.67-4.9,12.29-3.31,17.62-7.57,1.43-1.14,2.92-3.1,2.48-5-.24-1.11,1.38-1.75,3.42-2.14a.58.58,0,0,0,0,.14A34,34,0,0,1,186.51,215.72Zm-87.14,93a7.46,7.46,0,0,0-1.72-.52c0-.26,0-.52,0-.78a.85.85,0,0,0,.14-.21,2.25,2.25,0,0,0,.08-.24,5.16,5.16,0,0,0,2.19.7ZM41.65,184.2v0a.1.1,0,0,0-.2,0A18.75,18.75,0,0,1,41,187.9c0-1.65.35-3.35.35-5.06.1.42.2.85.32,1.27A.28.28,0,0,1,41.65,184.2Zm-3.79-17.32a13.08,13.08,0,0,1,2.47-1.18c.92-.31,2.21-.42,3.2-.86a.79.79,0,0,0,.34.14c0,.14,0,.29,0,.43-2-.18-4.35,1-6.2,1.75Zm30.92,54.49h0a1.59,1.59,0,0,0-.9.19c-.22-.23-.43-.46-.66-.69.3-.06.6,0,.93-.09a.24.24,0,0,0,.1-.4,1,1,0,0,0-1.38.15l-.62-.58a.19.19,0,0,0,.13,0c.22-.12.44-.24.67-.34a3.3,3.3,0,0,1,.74-.22C68.12,220,68.45,220.7,68.78,221.37Zm2.5,5.12c.08.16.17.32.26.48l-.47-.33A.51.51,0,0,0,71.28,226.49ZM70,224c-.49-.65-1-1.27-1.59-1.89.08,0,.14,0,.22,0a1.3,1.3,0,0,1,.65.29c.24.53.49,1.05.74,1.58C70,224,70,224,70,224Zm-.77,1.43L69,225.3c-2.71-1.68-5.34-3.49-8.06-5.17-.1-.06-.18.09-.09.15a60.71,60.71,0,0,1,7.5,5.86c1.91,1.76,3.58,3.7,6,4.83l.11,0c.3.32.62.63,1,.94a18.24,18.24,0,0,0,6.93,3.53c8.56,4.63,18.88,6.16,28.62,5.26a33.7,33.7,0,0,0,10.52-.86,21.12,21.12,0,0,0,5.9-2.51,17.5,17.5,0,0,0,4.65-2.81c2.64-2.08,5.42-3.58,8.23-5.38,0,0,0,0,.06-.05,3.65-.7,6.8-.29,8.1,3.9l0,.1a5.9,5.9,0,0,0-5-3.21s0,.07,0,.07c4.22.24,5.35,4.79,4.39,8.26-.17.37-.34.74-.49,1.11-.35.41-.71.82-1.08,1.22,1.94-2.89,2.34-6.09-.91-9a.05.05,0,0,0-.07.08c3.36,3.2,2.25,6.39-.33,9.21a6.83,6.83,0,0,0,0-7.16c0-.09-.17,0-.13.07,3.46,6.72-4.14,10.5-9.75,13.57l-1.59.53a55.41,55.41,0,0,0,1-6.85,26,26,0,0,0,6.57-7.94c.09-.18-.14-.39-.28-.22-3.75,4.63-8.86,7.6-13.39,11.37-3.39,2.81-6.17,6.07-9.49,8.78-8.18,2.25-16.46,3.25-25.61.5-7.43-2.24-14.09-6.61-21.3-9.43l-.92-.36a.78.78,0,0,0-.21-.44c-2.67-2.93-4.66-6.82-6.78-10.17-1.16-1.82-2.23-3.68-3.25-5.57-.08-.27-.14-.55-.23-.82a.07.07,0,1,0-.14,0,1,1,0,0,1,0,.17A77.78,77.78,0,0,1,55.81,219c-.12-.32-.63-.19-.52.14a84.25,84.25,0,0,0,4.55,10.5c.21,1.68.38,3.35.43,5.06,0,.18.2,2.25.31,3.75a36.47,36.47,0,0,1-7.11-5A39.56,39.56,0,0,1,47.15,222c0-.63-.06-1.28,0-1.93.54-1.53.85-3.23,1.39-4.6a6.84,6.84,0,0,1,2.17-3.34,2,2,0,0,1,1.49-.33c-2.49,1.82-3.49,6.26-4.73,8.66-.1.18.17.34.27.16.87-1.6,1.53-3.31,2.38-4.92a6.13,6.13,0,0,1,3.76-3.35,3.43,3.43,0,0,0,1.06.2.55.55,0,0,0,.18-.06l.45.39a15,15,0,0,0-2.07.54,5.16,5.16,0,0,0-2.5,2.23c-.07.11.1.24.19.14a5.51,5.51,0,0,1,2.69-2,15.71,15.71,0,0,0,.83,3.22.1.1,0,0,0,.2,0c-.18-1.1-.51-2.17-.63-3.28.6-.14,1.23-.21,1.85-.3l.3.25C60.48,217.66,64.84,221.74,69.22,225.45Zm70.54-.19a9,9,0,0,1,.76,1,2.54,2.54,0,0,1,.16.28q-.68.25-1.35.54c-.18-.32-.36-.64-.51-1C139.13,225.81,139.45,225.54,139.76,225.26Zm4.85,1.92a.34.34,0,0,0,.28.11c1.06,0,1.8-.3,2.77.3a5.43,5.43,0,0,1,1.23,1.06,4.68,4.68,0,0,1,1,3.64c-.53-2.63-2.19-4.89-5-4.64-.08,0-.08.12,0,.11,2.94-.07,4.12,2.86,4.23,5.74a10.36,10.36,0,0,0-.57-1.86c-1.47-3.63-4.73-3.71-7.9-2.86C142,228.22,143.29,227.7,144.61,227.18Zm.48,17.64a.82.82,0,0,0-.37-.32l.68-.36a1,1,0,0,0,.08.11,3.58,3.58,0,0,1-.26.29A.55.55,0,0,0,145.09,244.82ZM90.23,304.23l.28.06a.79.79,0,0,0,.24.21l.44.21-.09,0A4.26,4.26,0,0,1,90.23,304.23ZM40.72,218.6a8.69,8.69,0,0,1,.57-1.58h.06a27.74,27.74,0,0,0-.48,3.52c-.09-.47-.18-.94-.25-1.43C40.66,218.94,40.68,218.77,40.72,218.6Zm20.22,16.07a34.38,34.38,0,0,0-.38-3.66c.2.37.39.75.59,1.13.06.1.11.22.17.33.2,2.13,0,4.44.39,6.58l-.34-.18C61.37,237.48,61,235.93,60.94,234.67ZM133,250l.45-.19-.09.08L133,250Zm10.74-5.5h-.06l0,0Zm-12.1,3.93a16.82,16.82,0,0,0,.35-5.32c.76-.64,1.52-1.29,2.27-2-.31,2.3-.77,4.54-1.23,6.8Zm0-5a21.38,21.38,0,0,1-.62,5.23l-1.21.42c0-.41.07-.78.07-1,0-1.06,0-2.13.11-3.19Zm-2.32,5c0,.21,0,.53-.07.89l-.75.26c0-.25,0-.49,0-.71,0-.85,0-1.69,0-2.54.37-.35.74-.7,1.12-1A30.18,30.18,0,0,0,129.27,248.43Zm-1.31.07c0,.4-.08.85-.13,1.29l-1.33.46c0-.2.1-.42.16-.62a7.07,7.07,0,0,0,.26-1.81c.34-.36.69-.71,1-1l.07-.07C128,247.3,128,247.9,128,248.5Zm-2.17,2-2.12.71c.94-1,1.86-1.94,2.78-2.9A22,22,0,0,1,125.79,250.5ZM96,263.8c-.14-.27-.28-.54-.43-.81,4.65,1.43,8.94.28,13.22-1.71C105,264.17,101.32,265.14,96,263.8Zm8.52,10.84-.18-.31q.28-.56.6-1.08c-.06.24-.13.48-.2.73S104.54,274.41,104.48,274.64Zm-.73,2.26-.48,1.47-.41-.41q.17-.56.36-1.11A1.39,1.39,0,0,0,103.75,276.9ZM47.4,229.33c-3.79-5-5.18-11.24-1.92-16.84C43.19,217.34,44.53,224,47.4,229.33Zm14.54,13a1.13,1.13,0,0,0,0-.64c1.3.74,2.62,1.44,4,2.11l.2.09a18.09,18.09,0,0,0-3.64-1.28Zm-12.47-9.71c.38.52.78,1,1.18,1.5a38,38,0,0,1-8.17-8.29,16.09,16.09,0,0,1-.74-4.07,13.52,13.52,0,0,1,.51-4.05C41.89,223.21,44.79,228.59,49.47,232.63Zm9.43,7.45-.11.12c-.34-.27-.69-.53-1-.79C58.12,239.64,58.51,239.87,58.9,240.08Zm5.63,5.21.34.2c4.25,2.57,8.16,7,11.07,10.25.23.25.47.54.73.84-2.52-2.12-5.23-4-7.54-6.4-1.57-1.65-3.08-3.31-4.65-4.92Zm14.61,8.59a38.3,38.3,0,0,1,5,5.36c-2.62-1.7-4.93-4.53-7.12-6.94C77.75,252.8,78.46,253.32,79.14,253.88Zm14.74,6.19c.36.43.74.86,1.15,1.27l-.45-.08Zm4.42,1.38c-.62-.29-1.25-.55-1.83-.89-.85-.49-1.68-1-2.48-1.54a24,24,0,0,0,7.58,1.93A19.15,19.15,0,0,1,98.3,261.45Zm-5-2.34,0-.09c-.09-.15-.2-.28-.29-.42l.62.25A.42.42,0,0,0,93.3,259.11Zm-2,2.41c-1.2-1.19-2.44-2.35-3.55-3.62s-2.3-2.7-3.52-4C87.38,255.54,89.56,258.44,91.32,261.52Zm-12.93-2.93.87,1-.94-.39A1.51,1.51,0,0,0,78.39,258.59Zm12.88,8.34c2.47,1.35,4,3.87,5.56,6.36A26.62,26.62,0,0,0,92,268.45l-.28-.56a.54.54,0,0,0-.71-.26,10.78,10.78,0,0,0-1.17-1.47C90.29,266.41,90.78,266.67,91.27,266.93Zm11.24,9.42c-.12.28-.24.56-.35.85-.42-.49-.82-1-1.19-1.52a3.59,3.59,0,0,0,1.27.38Zm-4.33,27.14-.05-.07h.06S98.18,303.47,98.18,303.49Zm-5.26-24.92c1,1.56,2.14,3.17,3.28,4.6a12.92,12.92,0,0,1-2.92-1.71h0A8.32,8.32,0,0,0,92.92,278.57Zm9.12,5.07,0,0a23.62,23.62,0,0,1,.22-2.68l.26.18A19.07,19.07,0,0,0,102,283.64Zm-8.66-6.85a1.2,1.2,0,0,0,.24-.41c.32.7.67,1.38,1,2.05C94.22,277.89,93.8,277.34,93.38,276.79Zm-.5,17a15.21,15.21,0,0,0,7.34,2,7.65,7.65,0,0,1-1.22.67,13.65,13.65,0,0,1-2.65-.74,21.92,21.92,0,0,1-2.23-.89C93.72,294.5,93.3,294.15,92.88,293.81Zm-2.28-5.94a7.85,7.85,0,0,1-.92-.57,15,15,0,0,0,1.14-3.9l.3.25C91,285.05,90.81,286.45,90.6,287.87Zm.68-7c0,.42,0,.85,0,1.27L91,282C91.12,281.63,91.21,281.25,91.28,280.87Zm10.43,13.65c-.19.21-.38.4-.57.58A15.25,15.25,0,0,1,92,292.88a.19.19,0,0,0-.25.08c-.16-.12-.32-.24-.48-.34,0-.14.09-.29.13-.43,3.27,1.72,6.62,2.89,10.39,2.28ZM94.12,291c1.46.44,3,.81,4.43,1.27A14.86,14.86,0,0,1,94.12,291ZM92,284.32l0,0c0,.1,0,.2-.08.3Zm.07-1.63a34,34,0,0,0-.19-4.4,1.12,1.12,0,0,0,.47-.11,9.53,9.53,0,0,1,.05,4.72Zm1.11.23c0-.23,0-.46.07-.69a13,13,0,0,0,4.46,3.44,30.49,30.49,0,0,1-4.6-2.32C93.1,283.21,93.12,283.06,93.15,282.92ZM98.82,286l.15.13-.46-.14c-.24-.08-.47-.18-.7-.28A5.27,5.27,0,0,0,98.82,286Zm2.49-5.81a14.18,14.18,0,0,0-.23,2.35l-.26-.27a32.79,32.79,0,0,1-3.55-4.58,76,76,0,0,1-5-8.49c1.82,1.89,2.81,4.42,4.51,6.45A34.86,34.86,0,0,0,101.31,280.2Zm-7,8.29a7.84,7.84,0,0,0,1.43,1.07,27.06,27.06,0,0,1-3.46-1c.24-1.23.43-2.46.61-3.64a31.61,31.61,0,0,0,10,4.59c.06.38.11.75.16,1.13-2.87-.78-6-.59-8.53-2.45C94.32,288.12,94.14,288.36,94.27,288.49ZM90,278.06c-.08.51-.17,1-.28,1.51a4,4,0,0,0,0-.49C89.82,278.74,89.92,278.4,90,278.06Zm14,16.14a1.17,1.17,0,0,0-.53-.11,1.1,1.1,0,0,0,.56-.47Zm-12.8-37.91a12.17,12.17,0,0,0-1.23-1.16l.12,0a35.65,35.65,0,0,0,6.6,1.9C94.84,256.78,93,256.45,91.17,256.29Zm-8.53-4c-.32-.29-.65-.56-1-.83l2,.92C83.3,252.38,83,252.34,82.64,252.33ZM68,244.88c-.56-.33-1.13-.63-1.7-.91l2.48,1.21Zm-2.43-3.73c0-.29-.08-.6-.11-.91l.84,1.32Zm-.61-.33-.53-.29a12.38,12.38,0,0,0-.18-2.43c.22.41.44.81.67,1.21a.22.22,0,0,0,0,.15C64.91,239.89,64.92,240.36,65,240.82Zm-1.08-.59-.51-.27c0-.67-.13-1.33-.15-2s0-1.23,0-1.85c.24.46.47.91.72,1.37a.1.1,0,0,0,0,.09A18,18,0,0,1,63.88,240.23ZM62.77,238c0,.53,0,1.1,0,1.66l-.37-.2c-.28-2.05-.27-4.16-.67-6.17l1.13,2.19A21.3,21.3,0,0,0,62.77,238Zm-16.86-5.46a31.27,31.27,0,0,1-2.06-3.39c3.83,5.29,9,9.8,13.68,14.13a28,28,0,0,1,2.07,2.13C53.87,242.49,49.54,237.73,45.91,232.51Zm13.86,14a.39.39,0,0,0,.53-.3c.39.46.79.92,1.18,1.39-.87-.48-1.74-1-2.59-1.47C59.18,246.22,59.47,246.36,59.77,246.47Zm44.11,27.3a1.48,1.48,0,0,0-.3-.25,1.31,1.31,0,0,0-.46-.15,9.07,9.07,0,0,0,1.24-.33C104.19,273.28,104,273.53,103.88,273.77Zm-6.62-7.53a.64.64,0,0,0-.08-.14,9.79,9.79,0,0,0,8.61.4,10.53,10.53,0,0,1-1.58.77,10.26,10.26,0,0,1-6.27.12C97.71,267,97.47,266.63,97.26,266.24Zm16.16-4.5a1,1,0,0,0,0-.17c2.71-2.3,5.25-4.88,7.55-6.89,1.47-.48,2.94-1,4.4-1.55a.19.19,0,0,0,.36,0l0-.1,2.35-.92c-5.4,2.85-10,7.17-15.1,10.59C113.16,262.35,113.3,262.06,113.42,261.74Zm23.3-11.46a1,1,0,0,0,.26-.41,35.86,35.86,0,0,1,3.53-2.08l.42-.18q-1.56,2-3.19,3.86c-2.35,2.73-5.15,5.47-8.67,6.51C131.76,255.49,134.24,252.69,136.72,250.28Zm12.71-24.87,0,0-.26-.09L150,225C149.77,225.13,149.6,225.27,149.43,225.41Zm-10.84.89,0,0a9.41,9.41,0,0,0,.41.93c-.51.21-1,.45-1.5.69a2.62,2.62,0,0,0-.22-.25A17.44,17.44,0,0,1,138.59,226.3Zm-1.37,1.46c0,.07.09.14.13.22-.19.09-.36.2-.55.3ZM42,179.35a17.87,17.87,0,0,0-1.5-2.31A13.83,13.83,0,0,1,42,178.7C42,178.92,42,179.14,42,179.35ZM40.88,181c.16.55.28,1.11.41,1.66a.13.13,0,0,0-.19.1,14,14,0,0,1-.46,2.3C40.71,183.66,40.87,182.31,40.88,181ZM56.72,245a.24.24,0,0,0,0,.38c2.83,2.23,5.65,4.56,8.58,6.73l1,1.11a42.54,42.54,0,0,1-4.38-3.09c-2.62-2.12-5.12-4.26-7.44-6.48C55.19,244.15,56,244.61,56.72,245Zm41.53,61.41a2.76,2.76,0,0,1,.72-.56,3.28,3.28,0,0,1,1.48-.31,6.3,6.3,0,0,1,.91.11l-.32.58c-.06.11-.14.21-.21.32A3.28,3.28,0,0,1,98.25,306.43Zm5.1-35.6a4.56,4.56,0,0,1-2.85.63c-.34-.62-.72-1.23-1.11-1.83a10.76,10.76,0,0,0,5.43.1A10.43,10.43,0,0,1,103.35,270.83Zm8.57-6.12c3.33-.95,6.17-3.1,9-5.11,2.31-1.64,4.74-3.21,7.2-4.7a43.11,43.11,0,0,1-5.19,4.64c-3.07,2.22-7.46,4.85-11.55,5.9C111.56,265.2,111.75,265,111.92,264.71Zm16-5.65a.41.41,0,0,0,.27.11,8.1,8.1,0,0,0,1.56,0c-1.23.49-2.46,1-3.68,1.42C126.65,260.08,127.27,259.58,127.87,259.06Zm10.23-4.61a47.32,47.32,0,0,0,4.84-5.36c.91-1.12,2.25-2.29,2.25-3.79a.5.5,0,0,0,.74.16c.4-.28.78-.58,1.15-.88h0c-.06.4-.13.8-.2,1.2a41.37,41.37,0,0,1-8.16,8.4c-.26.2-.13.67.22.58-1.07.59-2.14,1.16-3.24,1.69C136.55,255.82,137.35,255.14,138.1,254.45Zm44.58-48.2a1.18,1.18,0,0,0-.07.2,7.59,7.59,0,0,1-2.35-.25,4.93,4.93,0,0,0-2.77.22c-2.25.87-1.71,4.55-4.48,4.52-.15,0-.19.25,0,.28,3.25.51,3-4.31,6.4-3.68a23.46,23.46,0,0,0,3.23.55c.42,2.54-2.66,4.13-4.64,4.89-5.31,2.05-11.65,1.42-14.91,6.6-.83-.09-1.67-.1-2.5-.17h0a.36.36,0,0,0-.07-.1,8.74,8.74,0,0,1,.64-1.2c.58-.9,1.32-1.69,1.93-2.57.12-.18-.16-.33-.28-.17a34.57,34.57,0,0,1-2.47,2.8c-.14.15-.3.32-.46.51a.86.86,0,0,0-.57,0,27.34,27.34,0,0,0,3.52-4.65c3-.88,5.64.44,8-2a4.43,4.43,0,0,0,1.05-2.16c1.2-4,4.17-5.07,7.8-5,1.44,0,2.84,0,4.16-.15A4.5,4.5,0,0,0,182.68,206.25Zm-131-84.13c0-.63-.07-1.27-.11-1.9a.73.73,0,0,0,.15-.25,3.15,3.15,0,0,1,0,2.12S51.69,122.11,51.68,122.12Zm-14.4,45.47h.06c1.23-.2,2.46-.44,3.67-.73.89-.22,1.81-.27,2.7-.44,0,.15,0,.3-.05.44-1.33.23-2.66.51-4,.79-.17,0-.1.28.07.25a8.78,8.78,0,0,1,3.16-.37,3.63,3.63,0,0,0,.64.13c-.35,2.78-.81,5.61-1.19,8.44A8.24,8.24,0,0,0,40.89,175a8.71,8.71,0,0,1-3.13-2.62,10.8,10.8,0,0,1-1.36-3.48A14,14,0,0,1,37.28,167.59Zm.22,7.17a6.87,6.87,0,0,0,.74.69q.45.72.87,1.47c-.21,1.45-.53,3.89-.64,6.21A28.72,28.72,0,0,1,37.5,174.76ZM38.44,185v.08a4.34,4.34,0,0,0-.2-.5C38.32,184.7,38.37,184.84,38.44,185Zm.9-2.68c0-1.58.07-3.15.12-4.73.32.62.62,1.25.88,1.87-.31,2.67-1,5.73-.57,8.44l-.31-.5A24.23,24.23,0,0,1,39.34,182.3Zm3.27,11a.44.44,0,0,0,0-.23c-.16-.52-.49-.94-.64-1.47a10,10,0,0,1-.15-2.84h0a24.74,24.74,0,0,0,1,4.78c0,.16,0,.32,0,.49l-.34-.19A.42.42,0,0,0,42.61,193.33Zm4.19,15.16c-.32.2-.63.41-.94.63a1.19,1.19,0,0,0-.25.18,12.43,12.43,0,0,1-1.26.83A20.77,20.77,0,0,1,41,211.56a.73.73,0,0,0-.48-.15,26.13,26.13,0,0,1-6.1-.58c-4.05-.77-4.53-3.36-4.41-7,.12-3.22-2.75-4.78-5.57-5.65h.58a10.86,10.86,0,0,1,7.3,2.33c1.36,1.19,2,3.41,3,4.85,3.33,4.51,5.68,2.81,11,2.53a.69.69,0,0,0,.58-.34C46.91,207.88,46.86,208.19,46.8,208.49ZM21.48,198.26c3.59,1.8,7.08,3.08,6,8.17-.42,1.92.6,3.62,1.91,4.93a8.88,8.88,0,0,0,5.91,2.28,15.58,15.58,0,0,0-1.82,2.14c-2.18-1.95-7.4-2.11-8.83-4.17-1.7-2.43-1.06-6.24-1.69-9.06a6.34,6.34,0,0,0-3.76-4.3C19.94,198.27,20.71,198.27,21.48,198.26Zm15.76,17.92a11.3,11.3,0,0,0-2.74,2.16c1.7-3.55,3.29-4,6.45-3.66-.16.25-.31.5-.45.76A5.44,5.44,0,0,0,37.24,216.18Zm3.2,9a40.64,40.64,0,0,0,1.44,5A19.38,19.38,0,0,1,40.44,225.14ZM77.67,262.8c.66.26,1.32.5,2,.74,2.94,1,7.11,2.16,8.85,5a.68.68,0,0,0,.9.27,11.84,11.84,0,0,0-.08,1.36C87.06,266.44,81.91,264.61,77.67,262.8Zm12.94,44a5.15,5.15,0,0,0,4-.76,3.22,3.22,0,0,0,.9,1.15,8.2,8.2,0,0,1-1.11.47,20.64,20.64,0,0,1-2.77.82A19.27,19.27,0,0,1,90.61,306.8Zm2.76,3.82a16.2,16.2,0,0,1-1.51-1.84,10.22,10.22,0,0,0,3.44-.57c.21-.09.43-.2.65-.32a3.06,3.06,0,0,1,.13.43c0,.27,0,.55-.08.82A9.77,9.77,0,0,1,93.37,310.62Zm4,1.12c.1-.95.18-1.9.24-2.84l.61.24c.23.08.47.17.71.24C98.37,310.15,97.85,310.93,97.36,311.74ZM109,268.15a.85.85,0,0,0-.11-.26,13,13,0,0,0,1.24-1c.19,0,.38,0,.58,0C110.07,267.3,109.5,267.71,109,268.15Zm39-19.56c.59-.65,1.16-1.32,1.7-2a1.38,1.38,0,0,0,.27.27l-1,.93C148.65,248.07,148.31,248.32,148,248.59ZM168.38,255c.26-1.09.6-2.16.94-3.24a7.72,7.72,0,0,0,1.91,1.8,9.16,9.16,0,0,0-1.06,1.1,14.33,14.33,0,0,0-1.62,2.18C168.48,256.25,168.42,255.64,168.38,255Zm5.34,0a30.13,30.13,0,0,0-4.81,4.29c-.11-.65-.21-1.29-.29-1.93l0,0a19,19,0,0,0,1.69-2.09,10.52,10.52,0,0,1,1.34-1.33A21.06,21.06,0,0,0,173.72,255ZM169,233.48c0-.17,0-.33,0-.49l.36.22A1.34,1.34,0,0,0,169,233.48Zm13.17-6.6a5.61,5.61,0,0,0-3,1.65c-2.78,3.31-6.4,4.57-10.34,3.25a13.87,13.87,0,0,0-1.28-4,16.18,16.18,0,0,0,3.63,1.25c1.61.33,4.47.78,6-.22a29.57,29.57,0,0,0,3.63-3c1.91-1.75,4.58-2.16,6.81-3.39.7-.39.09-1.36-.62-1.05-1.71.75-3.82.89-5.46,1.78a39.38,39.38,0,0,0-4.45,3.3c-1.55,1.15-6.94.63-9-1.17h.26c4.84,0,6.85-5,12-4.86,4.45.14,6.66-2.24,7.83-5.48,0,.18,0,.35,0,.53C188.24,220.29,188.74,226.28,182.15,226.88Zm7.42-20.59c0-.14,0-.28,0-.42a.33.33,0,0,0-.08-.25l.54-.08A7.52,7.52,0,0,0,189.57,206.29ZM199.65,198a4.94,4.94,0,0,1-.41,1,8.21,8.21,0,0,0-1.31-4.63c-1.88-3-7.56-2.34-8.22-6.07,0-.17-.33-.13-.31,0,.2,1.91,1.6,2.87,3.3,3.56s3.4,1.23,4.6,2.84a5.19,5.19,0,0,1,.07,6.17c-1.93,1.08-4.65,1.19-7.05,1.4a10.67,10.67,0,0,0,2.7-3.53c1.12-2.26-1.85-2.57-3.3-2.55-2.23.05-4.24,1-5.54-1.38s-2.09-5.1-3.56-7.38c-.05-.08-.17,0-.13.08,1.33,3.08,1.69,7.12,4,9.68.95,1.05,8.36-.8,7.17,1.57a7.58,7.58,0,0,1-3.75,3.85l-.31.06a9.3,9.3,0,0,0-1.22.42c-3.81.79-8.32-.81-12,1.29a6.81,6.81,0,0,0-3.52,4.15c-1.45,4.45-4.07,3.33-7.29,4.05.33-.63.65-1.26.95-1.9a.52.52,0,0,0,.26-.19,13.15,13.15,0,0,0,.93-1.74,4.6,4.6,0,0,0,.65-1.74c0-.18-.15-.25-.29-.21a54.8,54.8,0,0,0,1.66-6.06,22.74,22.74,0,0,0,6.22-6.26c1.13-.84,2.23-1.7,3.29-2.59a13.83,13.83,0,0,0-.65,2.91c-.2,1.57-1.38,2.31-2.37,3.17-1.31,1.14-2.12,3-3.34,4.31s-2.87,2.61-4.31,3.88c-.42.37.2,1,.61.61,1.45-1.28,2.93-2.52,4.3-3.89,1-1,2.35-4.1,3.52-4.41,3.55-.95,1.88-4.09,2.79-7l.36-.29a.6.6,0,0,0,.21-.47c2.47-2.69,2.76-5.93.53-9.95-2.35-4.24-4.38-7.13-3.34-12.34l0-.12c1.19,3.34,2.26,6.74,3.65,10,1,2.3,2.13,6.13,4.48,7.51a1.2,1.2,0,0,0,1.78-.48c1.83-2.94,5.24-3,6.8-.14a5.31,5.31,0,0,0,2.33,2.09.52.52,0,0,0,.7-.19c.86-1.39,2-.63,3,.64,0,.1.07.2.1.3C199.52,191.27,200.54,194.66,199.65,198Zm-1.51-83.56c4.52,3.58,8.48,8.66,9.08,14.54s-3.26,11.17-4.71,16.71c-1.15,4.37.81,9.25,1.88,13.41,1.57,6.13-5.17,9-7.1,14.1a17.08,17.08,0,0,1-.26-1.85.21.21,0,0,0,.08-.22,4.78,4.78,0,0,1-.09-1.31,5,5,0,0,1,.06-.57.22.22,0,0,0,0-.12c.29-3.81,2-10.09-1.23-11.75-1.9-1-3.94-1.13-6-1.66-4.12-1,3.15-6.34,3.71-6.82,2.24-1.94,2.69-4.29.56-6.52s-7-1.16-9.59-.33c-.18.06-.11.34.07.29a16.19,16.19,0,0,1,6.6-.55q4.16.52,2.43,5.86a19,19,0,0,1-3,2.4c-1.63,1.22-3.57,2.58-3.34,4.81.17,1.76,2.9,2.14,4.14,2.37.7.11,1.39.25,2.08.41,3.63.77,3.38,4.44,2.88,7.34a12.9,12.9,0,0,0,0,5.32c-.15.68-.27,1.35-.36,2a14.09,14.09,0,0,0-1.26-3.3c-1-1.75-3.08-1.4-2.94-3.49.29-4.29-4.47-4.53-6.59-7.4a.13.13,0,0,0-.22.13c1.93,3.7,7.54,3.36,5.35,8.8a.52.52,0,0,0,.37.64,5.36,5.36,0,0,1,3.7,4.15,7.23,7.23,0,0,0-1.16-1.32,2.75,2.75,0,0,0-2.22-.54c-1.1.31-2.12.75-3.19,1.16-3.95,1.56-2.3-4.1-2.21-5.12.16-1.86-.22-5.6-2.79-5.77a13.12,13.12,0,0,0-1.88,0c-4.92.42-2.9-4.91-2-6.84a13.77,13.77,0,0,0,1.3-3.95,4.44,4.44,0,0,1,1.36,1c1.67,1.72,1.09,4.22.14,6.12-.08.14.12.32.24.18a5.66,5.66,0,0,0,.73-6.26,5.09,5.09,0,0,0-2.47-2.33h0a.37.37,0,0,0-.47-.36l-5.08-2.07a.18.18,0,0,0-.31.18,6,6,0,0,0,1.8,2.23.52.52,0,0,0,.44.8,18,18,0,0,1,2,.1c1.66,1.39-1.14,5.19-1.87,7.18a4.41,4.41,0,0,0-.26,1.18.23.23,0,0,0-.19-.19c-.11-.22-.23-.45-.36-.67a11.88,11.88,0,0,0,.1-4.75c-.52-2.28-2.59-2.85-2.62-5.26a21.18,21.18,0,0,1,2.35-3.87,5.23,5.23,0,0,0,1-4.85,10.25,10.25,0,0,0-.89-5.56c-.67-1.14-2.29-.25-1.36-3.1a25.5,25.5,0,0,0,1.19-6.24c0-.13-.19-.13-.2,0a31.27,31.27,0,0,1-1.75,7c-.34.92-.18,1,.2,1.8a.32.32,0,0,0,.1.1c1.25.69,1.34.52,1.61,3.07a11.38,11.38,0,0,1,.06,1.31,3.7,3.7,0,0,0-.33-.36c-1.26-1.12-4.14.58-3.32-3.4a55.69,55.69,0,0,0,.85-5.89c0-.2,0-.4,0-.6.7-4.34,2.07-8.58,1.55-13-.29-2.42-2.43-4.07-2.67-6.88-.15-1.79-.25-4-1.27-5.58-1.19-1.79-2.41-2-4.42-1.25-7.15,2.68-12.24,8-20.51,4.13-.1,0-.18.1-.08.15,3.83,1.87,7.27,1.8,11.33.68,3.28-.91,11.4-7.45,13.48-2.34.91,2.22.69,4.84,1.1,7.19.35,2,2.1,3,2.36,5,.38,3-.29,6.23-.84,9.36a22.68,22.68,0,0,0-2.41-9.44,27.29,27.29,0,0,0-5.26-9.54.33.33,0,0,0-.45,0,3.48,3.48,0,0,1-3.47,1,.18.18,0,0,0-.21.25c-3.47-.68-7.25.32-10.76-.58a80.4,80.4,0,0,1-11.32-4,41.56,41.56,0,0,0,7.06.19c3.22-.1,7.53-.46,9.56-3.3.11-.15-.13-.33-.24-.2-3.75,4.43-12.44,3-18.16,1.47a26.26,26.26,0,0,0,15-8.61c.19-.23-.15-.56-.33-.33-5,6.35-11.45,7.26-18.49,7.78a15.86,15.86,0,0,0-5.45-.05c-2.71-.2-5.45,0-8.09-.79-3.77-1.14-6.81-4.62-10.33-6.41-6.62-3.37-14.38-2.05-21.42-1.11C81,90.76,73.8,91.1,67,87.86c-7.81-3.7-6.23-14.17-9.12-21.07a.5.5,0,0,0-.08-.12l.06-1.21a.4.4,0,0,0-.38-.43c0-.21-.07-.43-.1-.65,0,0,.06,0,.08,0,.69-1,1.86-2.82.6-3.95a4.06,4.06,0,0,0-1.85-1.19c-1.9-.55,1.49-3.63,1.75-4.19a2.64,2.64,0,0,0-.48-3,3.09,3.09,0,0,0-2.09-1c-4.32-.78-1.62-6.19-.34-8.35a.15.15,0,0,0-.26-.16c-1.07,1.71-4.12,5.91-1.89,8,1.08,1,6.59,2,4.23,4.7a10.35,10.35,0,0,0-2.57,4,.37.37,0,0,0,.26.46c2.46.2,3.21,1.63,2.3,4.26A.12.12,0,0,0,57,64s0,.09,0,.14a.19.19,0,0,0,0,.23c0,.27,0,.54.08.81a.44.44,0,0,0-.15.2c-2.09,6-1.21,12.57-4,18.51a.51.51,0,0,0-.14.15c-1.77,3.2-5.12,4.48-6.75,7.77-1.9,3.83,1.09,9,0,13.07,0,.15.19.21.22.06,1.05-4-.66-7.85-.08-11.86s5.75-5.11,7.32-8.63a.42.42,0,0,0,0-.38c2.69-4.26,3.66-9.93,4.07-15.15.09.54.18,1.07.28,1.6.17,1.66.21,3.33.24,5-.64,2.19-.59,4.51-1.37,6.65-.31.52-.62,1-.91,1.57l-.43-.23a.09.09,0,0,0-.09.16l.41.26L55,85.18l-.1-.05c-.09-.06-.2.07-.12.14l.13.09c-.59,1.12-1.15,2.25-1.67,3.4A.4.4,0,0,0,53,89c-.86,1.64-2.79,2.59-3.47,4.31-1,2.64-.64,5.41-.77,8.18,0,.16.25.19.29,0,.67-2.61-.14-5.44,1.23-7.89a8.5,8.5,0,0,1,1.87-2.09A47.25,47.25,0,0,0,49,104.8c-.4,4.9.57,9.71-.91,14.5-1.26,4.08-4.2,6.91-3.55,11.5.63,4.36,2.19,8,1.46,12.3a7.55,7.55,0,0,1-.29.84,2.46,2.46,0,0,1-.19.32c-.21.24-.42.48-.61.74a7.61,7.61,0,0,1-3.31,1.07,3.92,3.92,0,0,0-2.21,1.71c-.12.17.14.35.28.22,1.2-1.22,3-1.26,4.5-1.63-.6,1.85-.7,5.41-3.44,5.26-2.28-.13-3,2-2.85,3.89.42,6-4.43,2.14-7.3,2.82-1.75.41-2,3.12-2.24,4.48,0,.26.36.38.41.11.38-2,1.22-4.25,3.73-3.76,1.37.27,2.58,1.08,3.92,1.45,1.7.48,2.81-1.47,3.26-2.73s-1.22-4.38,1.07-4.66a6.39,6.39,0,0,0,2.63-.66,2.4,2.4,0,0,0,.26-.18,25.11,25.11,0,0,0-.28,4.14c0,3-3.37,5.34-6.17,7.66a6.46,6.46,0,0,1-2.43-.6c-1.64-.76-3.29-1.2-4.19.69a.18.18,0,0,0,.32.18c1.33-2.26,3.53-.06,5.08.79a11.54,11.54,0,0,0-1.62,1.81c-2.07,3.07-1.67,7.22-.83,10.58a.39.39,0,0,0,.76-.1A15.39,15.39,0,0,1,35.79,170a7.86,7.86,0,0,0,1.34,4.34c-.36,3.36-.4,7.1,1.09,10.17a6.2,6.2,0,0,0-.44-.69.23.23,0,0,0,0-.23c-2.09-3.8-2.38-7.8-1.93-12,0-.15-.23-.18-.25,0-.49,3.57-.66,7.61.94,10.94-1-1-2.12-2-2.33-3.45,0-.19-.33-.14-.32,0A4.65,4.65,0,0,0,35.24,182c.49.56,1,1.08,1.56,1.63a5.68,5.68,0,0,1,1,1.62c-1.78-1.84-4-2.54-6.82-.14-.7.6-3.87,3.56-4.76,3.14.38-2.29,1.89-4.22,2.39-6.54a3.13,3.13,0,0,0-.25-1.92.35.35,0,0,0-.06-.14c-.55-1.21-1.49-2.32-1.33-3.76,0-.29-.44-.35-.51-.07a6.64,6.64,0,0,0,.62,3.66,3.91,3.91,0,0,0-2.21-1.2,13.42,13.42,0,0,0-1.9.08c-2.83.29,1.19-5.45,3.34-6.27,1.6-.62,4.39-2.67,4.39-4.63,0-1.62-3.41-3-4.3-3.81-2.38-2.09-3-6.25-.18-8.14,1.37-.91,3.26-1.21,4.82-1.69,1.84-.56,3.51-1.49,4-3.46a.52.52,0,0,0-.36-.63c-5.07-1.17-2.2-6.91,1.25-6.94a4.67,4.67,0,0,0,1.7-.28,8.2,8.2,0,0,0,3.62-4.06c2-5.08,1.62-10.69.47-15.94,0-.23-.4-.13-.35.1,1.09,5,2.78,19.32-5.44,19.55-3.38.09-4.64,1-4.92,4.65-.26,3.2,4.55,3.9.34,5.88-2.55,1.2-5.82,1.62-7.3,4.28-1.24,2.24.49,5.45,1.93,7.1s5.39,2.94,2.26,5.89c-1.14,1.07-5,1.85-5.77,3.72-.34.82-2.32,5.38,0,5.39,1.9,0,3.15.69,4.83,1.2a4.31,4.31,0,0,1,.08,1.35c-.07.35-.15.67-.24,1a15.33,15.33,0,0,1-.86,2l-.18.33a5.14,5.14,0,0,0-.48,1.06,6.6,6.6,0,0,0-.67,3.55.61.61,0,0,0,.75.57A2.61,2.61,0,0,0,27.54,189a.33.33,0,0,0,.06-.1c1.72-1.06,3-2.58,4.76-3.76,2.81-1.93,4.8-.25,6.3,2.18.18.86.47,1.48.93,1.7.43.86.81,1.73,1.16,2.52a3.34,3.34,0,0,0,.39,1.26,9.67,9.67,0,0,1-1.41-1.73.2.2,0,0,0-.35.21,7.42,7.42,0,0,0,3.53,3.36,18.65,18.65,0,0,0,2.8,7.47,23.39,23.39,0,0,1-6.34-2.73c-3.54-2.42-5.34-6.48-6-10.58,0-.18-.33-.13-.31,0,.81,6.82,6.43,14.8,13.92,15.09l.44.54c-.09.84-.22,1.7-.37,2.56a.67.67,0,0,0-.66-.57,28.69,28.69,0,0,0-5.86.08c-2.72.45-3.77-2.82-4.68-4.72-1.08-2.24-2.4-4-4.83-4.92-5.58-2.07-19.87,1.44-20.52-6.8-.31-3.9,3.61-6.53,6.22-9.61a17,17,0,0,0,4.86-6.46c1.86-3.93.22-8.59-1.71-12.11-.11-.2-.41,0-.3.18,2.08,3.93,3.07,8.06.49,12.06A13.6,13.6,0,0,1,19,175.67c0-.17,0-.33,0-.51a21.69,21.69,0,0,0,.34-7.25c-.49-3.9-8.82-9.88-.74-11.79,2.74-.65,5.73-.8,7.45-3.39,2.79-4.21,2.19-9,2.88-13.81,0-.21-.27-.3-.32-.09-1.06,5.13.05,13.26-6.08,15.36-2.34.8-5.41.22-7.46,1.82s-1.67,4.35-.78,6.59c.81,2.07,2.72,3.42,3.54,5.51a8.79,8.79,0,0,1,.2,3.81c-2.9-5.87-10.55-8.26-10.76-15.71a.34.34,0,0,0-.09-.21c.82-2.21,2.28-8,5.43-6.86a10.77,10.77,0,0,0,4.83.32c2-.18,3.63-.8,4.68-2.58a7.73,7.73,0,0,0,.76-2.83c.18-1.56-.72-13.82,4.24-10.69,2,1.26,5.09,2.48,7.38,1.27,2-1.07,2.18-5.81,2.25-7.71s-3.72-14.58.49-12.3c4.87,2.66,11.26,4.39,10.31-3.41,0-.36-.58-.37-.56,0,.63,9.62-7.35,2.74-10.62,2.09-1.15-.23-1.51.33-1.87,1.35-1.12,3.19.27,6.75,1,9.83.43,1.79.57,9.57-3.12,9.45-2.63-.09-4.29-1.56-6.54-2.51-1.65-.7-4.27,1.28-4.49,2.88-.57,4.18,3.2,12-2.34,14-2.76,1-5.71-.74-8.11.23a3.76,3.76,0,0,0-.56.3c1.57-5.2,4.61-9.75,5.08-15.25.6-6.85-4.54-12.89-5.18-19.58-.72-7.55,5.66-12.22,9.69-17.58s2.84-12,1.66-18.27C18.4,61.43,30.11,45.69,43,36.19c11.59-8.58,25.25-13.7,37-22a1.41,1.41,0,0,0,.67-.21c1.86-1.11,3.53-2.49,5.42-3.56,2.8-1.59,5.2-1.18,8-.35-.73.55-1.46,1.11-2.17,1.7s.17,1.46.84,1.08C109,3.47,126.83,1.56,144.48,8.15c18,6.71,31,22,44.51,34.86a142,142,0,0,1,16.44,18.46c6,8.09,8.37,16.09,6.7,26.1-1.37,8.25-5,15.16-8,22.79a12.35,12.35,0,0,0-.77,7c-1.58-1.23-3.26-2.35-4.83-3.47C198.24,113.67,197.83,114.21,198.14,114.45Z"/><path class="cls-1" d="M190.39,269.92a.29.29,0,0,0,0,.57A.29.29,0,0,0,190.39,269.92Z"/><path class="cls-1" d="M83.72,274.32a.28.28,0,0,0,0-.56c-.44,0-2.88.69-2.94.26a3.36,3.36,0,0,0-1.94-2.23c-1.55-.91-4.14-1-5.85-1.45-4.24-1.06-7.92-3.28-11.57-5.6-13.09-8.35-23.35-22.75-25.3-38.37,0-.09-.15-.09-.14,0,1.17,11.36,7.2,22,14.77,30.42C54.47,260.9,59,264.06,63.68,267a38.93,38.93,0,0,0,7.49,3.7c2.67,1,8.18.87,8.93,4.57A34.12,34.12,0,0,0,85,308.94c.07.09.23,0,.16-.12-7.27-9.48-8.47-22.37-3.89-33.3A7.91,7.91,0,0,1,83.72,274.32Z"/><path class="cls-1" d="M85.53,274.28a.28.28,0,0,0,0-.48,1.71,1.71,0,0,0-.81-.13.37.37,0,0,0,0,.74A1.84,1.84,0,0,0,85.53,274.28Z"/><path class="cls-1" d="M102,312.84c-.16.14.07.36.23.23a29.23,29.23,0,0,0,10.18-15.52A48.24,48.24,0,0,0,114,287.21c.24-3.7-.73-7.11-.25-10.74a.55.55,0,0,0,.66-.37c1.33-4.86,8-5.93,12.06-7.75a118.34,118.34,0,0,0,15.88-8.54c8.25-5.29,21.48-10.18,23-21.3,0-.27-.38-.4-.43-.11-1.12,7.42-8,11.87-14,15.46-5.5,3.31-11.06,7.11-16.83,9.88-4.62,2.22-9.51,3.89-14.2,5.94-2.23,1-4.86,2.17-6,4.32a1.06,1.06,0,0,0-.76-.55,6.43,6.43,0,0,0-4.85.35c-.19.08-.06.39.14.33a7.89,7.89,0,0,1,4.49.11.78.78,0,0,1,.45.44.27.27,0,0,0-.07.08c-1.26,2.18-1.1,4.39-.89,6.86a51.82,51.82,0,0,1,0,10C111.56,299.73,108.22,307.48,102,312.84Z"/><path class="cls-1" d="M62,208.77c.06.13.26,0,.22-.1-.71-2.46-2-4.69-2.6-7.18-.68-2.74-.42-5.82-.73-8.62,0-.15-.26-.16-.24,0,.22,2.53.09,5.09.45,7.6A31.26,31.26,0,0,0,62,208.77Z"/><path class="cls-1" d="M62.91,211.46a7.07,7.07,0,0,0,.52.82c.09.13.33.05.27-.11a7.65,7.65,0,0,0-.5-.88C63.09,211.09,62.81,211.26,62.91,211.46Z"/><path class="cls-1" d="M92.14,243a98.44,98.44,0,0,0,14.75,1.08.28.28,0,0,0,0-.56c-4.94,0-9.84-.28-14.75-.67C92,242.87,92,243,92.14,243Z"/><path class="cls-1" d="M101.8,246.06a18.69,18.69,0,0,0-3.66-.28.18.18,0,0,0,0,.35c1.21,0,2.41.22,3.62.22A.15.15,0,0,0,101.8,246.06Z"/><path class="cls-1" d="M102.58,248.6c-1.06-.17-2.13-.13-3.19-.2-.2,0-.25.32,0,.35,1,.18,2.11.24,3.17.32C102.78,249.09,102.84,248.64,102.58,248.6Z"/><path class="cls-1" d="M88.22,192.05a.16.16,0,0,0,0,.31A.16.16,0,0,0,88.22,192.05Z"/><path class="cls-1" d="M114.46,196.14c.33,0,.23-.54-.07-.55-2.84-.1-5.16,1.49-8.12,1.17a60.69,60.69,0,0,1-14.67-3.23c-.19-.07-.32.25-.14.33a42.12,42.12,0,0,0,12.33,4,20.36,20.36,0,0,0,2.08.15h0a2.88,2.88,0,0,1,2.16,1c.09.11.28,0,.2-.16a2.19,2.19,0,0,0-1-.83c.62,0,1.23,0,1.83-.08C110.91,197.82,112.6,196.46,114.46,196.14Z"/><path class="cls-1" d="M116.14,195.4c-.13,0-.22.17-.33.21a.28.28,0,0,0,.15.53c.13,0,.22-.11.34-.13C116.71,196,116.52,195.25,116.14,195.4Z"/><path class="cls-1" d="M83.1,187.19c3.47-1.07,6.89-2.26,10.44-3.05a11,11,0,0,1,7.65,1c.82.42,1.12.15,1.89-.16.1,0,.1-.21,0-.2-1.45.13-3-1-4.38-1.45a8.58,8.58,0,0,0-4.06-.17c-4.06.68-7.74,2.36-11.6,3.74A.16.16,0,0,0,83.1,187.19Z"/><path class="cls-1" d="M104.15,185.15a.11.11,0,0,0-.19.11c.11.25.29.66.61.71a1.39,1.39,0,0,0,1.08-.26.2.2,0,0,0-.15-.36C105,185.48,104.5,185.68,104.15,185.15Z"/><path class="cls-1" d="M106.72,186.22c3.27-.15,6.16-.82,9.37.29,3,1,5.57,2.69,8.39,4a.14.14,0,1,0,.14-.24,45.28,45.28,0,0,0-8.27-4.69c-3.1-1.28-6.57-.57-9.68.31A.18.18,0,0,0,106.72,186.22Z"/><path class="cls-1" d="M102.93,227.92a.25.25,0,0,0,.25-.43c-6.54-3.8-12.67,7.6-19.25,3-.08-.05-.18.08-.1.14C90.16,235.52,96.46,224.79,102.93,227.92Z"/><path class="cls-1" d="M104.76,230.07c-3.13-.67-6.39-.89-9.29.67-.18.09,0,.36.16.27,3-1.57,5.93-1,9.09-.66A.14.14,0,0,0,104.76,230.07Z"/><path class="cls-1" d="M105.22,228.39a.15.15,0,0,0,0,.3,3.81,3.81,0,0,1,2.88,1.47c.13.15.37,0,.27-.21A3.58,3.58,0,0,0,105.22,228.39Z"/><path class="cls-1" d="M107.45,232.81a5.23,5.23,0,0,0-2.26.13c-.13,0-.07.22.06.2a4.72,4.72,0,0,1,2.08.12C107.62,233.35,107.74,232.86,107.45,232.81Z"/><path class="cls-1" d="M60.89,125.37a.23.23,0,0,0,.28.37l.06,0h0a3.3,3.3,0,0,0,3.35-1.45q.16.14.33.3a3.63,3.63,0,0,1,.86,1.33c0,.14.21.1.22,0a1.29,1.29,0,0,0,0-.44.21.21,0,0,0,.21-.16,12.7,12.7,0,0,1,1-2.51A7.1,7.1,0,0,1,68,121.6l.34-.31a3,3,0,0,0,1.17,3,8.93,8.93,0,0,0,3,2.81,5.16,5.16,0,0,0,5.32-.83,6.72,6.72,0,0,0,1.92-5.8s0,0,0,0a4.77,4.77,0,0,0-.13-2.12,1.87,1.87,0,0,1,.55-.67,1.61,1.61,0,0,1,.71-.28,20.29,20.29,0,0,1,4.84,2.36l-.19-.08c-.09,0-.13.12,0,.15A3.42,3.42,0,0,1,86,120s0,0,0,0c.36.24.73.48,1.08.74s.44-.18.26-.34a24.69,24.69,0,0,0-5.27-4,12.24,12.24,0,0,1,1.44.29c1.93.52,3.53,1.76,5.27,2.67a.16.16,0,0,0,.16-.27c-2-1.22-4.32-3-6.77-3.64a19.22,19.22,0,0,1,3.82.17,14.13,14.13,0,0,1,3.82,1.75.09.09,0,0,0,.11-.14,10.08,10.08,0,0,0-4-2.61C76.89,109.9,66.87,119.33,60.89,125.37Zm.58.2c.78-.44,1.55-.9,2.31-1.37A2.46,2.46,0,0,1,61.47,125.57Zm11-6a1.23,1.23,0,0,1,.09-.23l.28-.15a1.21,1.21,0,0,1-.42.56C72.41,119.69,72.42,119.63,72.44,119.57Zm2.28-.53-.22-.1.12-.06a.31.31,0,0,0,.07-.09,20.79,20.79,0,0,1,2.37,0h.5A15.07,15.07,0,0,0,74.72,119Zm3.47-.27a2,2,0,0,0,.33-.09s0,0,0,.07a.38.38,0,0,0-.13.09H78Zm-8,1.33s0,0,0,.06H70l.25-.17Zm3.79,6.21a6.07,6.07,0,0,1-3.33-2s0,0,0,0A15,15,0,0,0,72,122.84c.07-.1-.09-.22-.17-.13-.42.52-.89,1-1.32,1.52h0a2.78,2.78,0,0,1-.27-.33.36.36,0,0,0-.08-.27c-.14-.19-.26-.37-.38-.56a8.37,8.37,0,0,0,1.1-.61c.09-.06,0-.23-.08-.19a4.17,4.17,0,0,0-1.09.61,1.23,1.23,0,0,1,.29-1.25.14.14,0,0,0-.09-.23,1.34,1.34,0,0,0-.51.07c.32-.57.86-.29,1.43-.37a1.23,1.23,0,0,0,.79-.5c-.15.44-.37.77-.74.59-.09,0-.22.06-.15.16.53.76,1.08-.14,1.36-.64a2.9,2.9,0,0,0,.24-.64h0a2.68,2.68,0,0,0,.3-.12.17.17,0,0,0,.29.13.59.59,0,0,1,.34-.21.44.44,0,0,0,.15.22,1.47,1.47,0,0,1,.16,1.88,1.79,1.79,0,0,1-.63.65c-.38.27-.88-.37-1-.63-.07-.1-.24,0-.2.08a1.74,1.74,0,0,0,1.1,1.21h0a2.63,2.63,0,0,0,.91.47,4.66,4.66,0,0,0-.1,1.82c0,.21.37.13.32-.08a5.63,5.63,0,0,1,0-1.69,1.84,1.84,0,0,0,.41,0,2,2,0,0,0,1.55-1.37,2.82,2.82,0,0,0-.7-3,2,2,0,0,0-.28-.23,32.28,32.28,0,0,1,3.92.37,3.71,3.71,0,0,1,.12.65.2.2,0,0,1,.14.33C79,123.68,77.39,126.37,73.94,126.31Z"/><path class="cls-1" d="M89.37,117.38c.94.8,1.8,1.65,2.66,2.52,0,0,.08,0,0-.05-.87-.86-1.74-1.71-2.68-2.49C89.38,117.35,89.36,117.37,89.37,117.38Z"/><path class="cls-1" d="M59.05,117.66a0,0,0,0,0,0,.09A0,0,0,1,0,59.05,117.66Z"/><path class="cls-1" d="M59.6,117.05a7.68,7.68,0,0,0,3-2.33c.21-.25-.15-.62-.37-.36a8.49,8.49,0,0,1-2.74,2.35C59.27,116.8,59.41,117.13,59.6,117.05Z"/><path class="cls-1" d="M64.06,114.22c-.22.18.1.49.32.31a17.07,17.07,0,0,0,3.45-4.5c.22-.35-.32-.65-.55-.32C66.24,111.25,65.52,113,64.06,114.22Z"/><path class="cls-1" d="M67.52,113a32.23,32.23,0,0,1,3.74-4.26c.24-.21-.09-.64-.35-.45a14.67,14.67,0,0,0-3.68,4.49C67.13,113,67.38,113.16,67.52,113Z"/><path class="cls-1" d="M68.38,112.87a.24.24,0,0,0,.35.34,25.73,25.73,0,0,1,10.76-5.95.19.19,0,0,0,.13,0c3.44-.68,6.91.18,10.35.34,1.51.51,3,1.13,4.57,1.73a.68.68,0,0,0,.66-1.13C86.77,101.2,74.75,105.34,68.38,112.87Z"/><path class="cls-1" d="M96,109c0-.22.13-.39.16-.61s-.41-.42-.45-.12-.15.47-.17.73S95.93,109.34,96,109Z"/><path class="cls-1" d="M96.42,111.55a1.92,1.92,0,0,0,.8-.82c.19-.31-.2-.77-.53-.52s-.41.47-.67.66A.39.39,0,0,0,96.42,111.55Z"/><path class="cls-1" d="M97.05,114.05a.52.52,0,0,0,0-1A.52.52,0,0,0,97.05,114.05Z"/><path class="cls-1" d="M97.41,115.56l.16,0a.56.56,0,1,0,0-1.1l-.16,0A.55.55,0,0,0,97.41,115.56Z"/><path class="cls-1" d="M60.39,126.62a.25.25,0,0,0,0-.49,3,3,0,0,1-1.41-.25.19.19,0,0,0-.19.32A2.66,2.66,0,0,0,60.39,126.62Z"/><path class="cls-1" d="M63.63,125.62a3.56,3.56,0,0,1-.8.65c-.14.07,0,.28.12.21a3.78,3.78,0,0,0,.86-.69C63.92,125.68,63.75,125.51,63.63,125.62Z"/><path class="cls-1" d="M85.18,135.14c-4.35,3-10.16,2.36-14.94.81-.1,0-.15.14,0,.17,4.76,1.59,10.86,2.56,15.08-.86C85.34,135.21,85.25,135.09,85.18,135.14Z"/><path class="cls-1" d="M87.44,133.93a5,5,0,0,1-1,.82c-.16.09,0,.34.15.25a4.72,4.72,0,0,0,1-.85A.16.16,0,0,0,87.44,133.93Z"/><path class="cls-1" d="M85.92,138.08c.21-.19.46-.32.65-.52s-.06-.6-.32-.42-.5.33-.73.53S85.65,138.32,85.92,138.08Z"/><path class="cls-1" d="M130.8,192.84c-1-1-2.63-1.08-2.78-2.72,0-.22-.36-.3-.42-.05a2.83,2.83,0,0,0,.77,2.48c-4.42-.05-8.27-1.94-12.44-3.1s-8.33-.22-12.46.18a4.21,4.21,0,0,1-.6-.11c-3.79-1.6-7.27-3.16-11.48-2.76-2.69.25-5.23,1.18-8,1.37a27.23,27.23,0,0,1-3.26,0A.57.57,0,0,0,80,188a1.72,1.72,0,0,1-.94-.61,2.15,2.15,0,0,1-.21-.46.85.85,0,0,0,0-.82,2.47,2.47,0,0,0,.28-.28,4.88,4.88,0,0,0,.9-1.46c.08-.2-.24-.33-.34-.14a4.34,4.34,0,0,1-1.32,1.24l-.08.06-.07,0a4.38,4.38,0,0,0-2.91,1.26C74,188,74.76,189.66,74,191.06a.29.29,0,0,0,.49.29,5.17,5.17,0,0,0,.72-1.61.42.42,0,0,0,.37-.26h0l.05.05c.34.22,1.21-.12,1.59-.17s.77-.11,1.15-.13.67,0,1,0a21.69,21.69,0,0,0,7.47.23c3.12-.43,5.66-1.61,8.9-1.09a23.64,23.64,0,0,1,3.41.86,4.72,4.72,0,0,0,.95.58,7.05,7.05,0,0,0,1.51.54,2.7,2.7,0,0,0,1.19.64,5.23,5.23,0,0,0,3.75-.7.51.51,0,0,0,.15-.14,38.93,38.93,0,0,1,11.12,1.5c2.56.82,5.14,2,7.79,2.13,0,0,0,.05.07.07,1,.66,2.35.75,3.45,1.13a1.1,1.1,0,0,1,.7.71,2.48,2.48,0,0,0,0,.27.57.57,0,0,0,.25.53l.06.21a7.07,7.07,0,0,0,.79,2.23c.17.24.61.1.5-.21a8.19,8.19,0,0,1,0-2.88A2.57,2.57,0,0,0,130.8,192.84Zm-53-4.76.41-.33c0,.05,0,.1,0,.15s.06.09.09.15l-.18,0Z"/><path class="cls-1" d="M114.86,210a15.05,15.05,0,0,0-8.16-8.15c-5.24-2-10.73,2.92-14.83,5.25-.37.2-.12.84.28.68,3.23-1.27,6.26-3.1,9.61-4,5.13-1.44,9.93,2.46,12.52,6.5C114.47,210.49,115,210.3,114.86,210Z"/><path class="cls-1" d="M88.13,209.84c.83-.61,1.65-1.25,2.54-1.78a.22.22,0,0,0-.23-.38,20.92,20.92,0,0,0-2.5,1.91C87.81,209.71,88,210,88.13,209.84Z"/><path class="cls-1" d="M114.79,211.28c.15.51.34,1,.54,1.49a.23.23,0,0,0,.45-.13c-.14-.51-.27-1-.46-1.51C115.2,210.81,114.69,210.93,114.79,211.28Z"/><path class="cls-1" d="M72.35,130.88s0,0,0,0a28.79,28.79,0,0,0,3,.38c4.36.35,11.43-.35,15.3-2.54a.09.09,0,0,0,.1.05c.41-.06.73-.47,1.16-.56a.23.23,0,0,0,0-.45l-.29-.09a.53.53,0,0,0-.17-.37,11.88,11.88,0,0,1-1.11-1.35v0a.48.48,0,0,0-.18-.24c-1.12-1.61-2-3.4-3.53-4.73-.14-.13-.36.08-.21.22A12.77,12.77,0,0,1,89,125.43c0,.9.17,1.94-.49,2.62a0,0,0,0,0,0,0c-7,.69-17.92,5.71-22-1.58,0-.06-.16,0-.13.06A6.11,6.11,0,0,0,69.66,130a7.09,7.09,0,0,1-1.11-.24,8,8,0,0,1-3.74-2.67c-.11-.12-.27,0-.18.17C66.27,129.37,69.56,131.57,72.35,130.88ZM90.21,128l.08,0H90.2A0,0,0,0,1,90.21,128Z"/><path class="cls-1" d="M63,113.71a0,0,0,0,0,.09,0c0-.19,0-.22-.21-.24s-.09.14,0,.13Z"/><path class="cls-1" d="M63.81,113.09a3.83,3.83,0,0,1,1-.86c.23-.16,0-.54-.22-.38a2.48,2.48,0,0,0-1,1.16C63.58,113.13,63.74,113.17,63.81,113.09Z"/><path class="cls-1" d="M62.5,116.49c.12-.14.25-.4.43-.45s.12-.4-.09-.33-.39.34-.57.55S62.36,116.65,62.5,116.49Z"/><path class="cls-1" d="M64.37,115.85a5.06,5.06,0,0,0,.67-.72.18.18,0,0,0-.24-.24,4.58,4.58,0,0,0-.72.67A.21.21,0,0,0,64.37,115.85Z"/><path class="cls-1" d="M65.89,113.6a.27.27,0,0,0,0,.54A.27.27,0,0,0,65.89,113.6Z"/><path class="cls-1" d="M67.39,113.34a.2.2,0,0,0,0,.4A.2.2,0,0,0,67.39,113.34Z"/><path class="cls-1" d="M57.55,118.92a.22.22,0,0,0,0-.43A.22.22,0,0,0,57.55,118.92Z"/><path class="cls-1" d="M57.05,122a.13.13,0,0,0,0-.26,3.38,3.38,0,0,1-2.62-1.25c0-.06-.14,0-.09.1A3.46,3.46,0,0,0,57.05,122Z"/><path class="cls-1" d="M71,122.72a1.24,1.24,0,0,1-.62.41c-.09,0-.06.18,0,.15a1.38,1.38,0,0,0,.71-.43C71.19,122.76,71.06,122.63,71,122.72Z"/><path class="cls-1" d="M72.14,123.27a12.92,12.92,0,0,0-.36,1.52c0,.12.18.14.21,0a11.24,11.24,0,0,0,.31-1.51C72.32,123.21,72.16,123.16,72.14,123.27Z"/><path class="cls-1" d="M73,123.84a10.65,10.65,0,0,0-.27,1.08c0,.17.21.24.25.07.09-.36.16-.73.24-1.09C73.28,123.76,73.06,123.69,73,123.84Z"/><path class="cls-1" d="M74.47,124a7.9,7.9,0,0,0,.35,1.74.07.07,0,0,0,.13,0c-.09-.59-.23-1.17-.31-1.76C74.62,123.83,74.46,123.87,74.47,124Z"/><path class="cls-1" d="M75.17,123.8a8.11,8.11,0,0,0,.67,1.43c0,.07.13,0,.1,0a7.49,7.49,0,0,1-.67-1.4C75.25,123.72,75.15,123.74,75.17,123.8Z"/><path class="cls-1" d="M75.82,123.25a3.78,3.78,0,0,0,.61.83.06.06,0,0,0,.09-.07c-.14-.31-.4-.55-.56-.84A.08.08,0,0,0,75.82,123.25Z"/><path class="cls-1" d="M76.35,122.54a.1.1,0,1,0-.09.17l.16.08c.11.06.21-.11.1-.17Z"/><path class="cls-1" d="M76.44,121.54c-.11-.07-.2.1-.1.17a2.5,2.5,0,0,0,1,.4c.07,0,.13-.1,0-.13A6.82,6.82,0,0,1,76.44,121.54Z"/><path class="cls-1" d="M76.07,120.22a.07.07,0,0,0,0,.14c.65.25,1.16.78,1.82,1,.15,0,.25-.18.11-.25A7.36,7.36,0,0,0,76.07,120.22Z"/><path class="cls-1" d="M78.1,120a5.22,5.22,0,0,0-2-.45.1.1,0,0,0,0,.2,8.78,8.78,0,0,1,2,.55C78.2,120.34,78.28,120,78.1,120Z"/><path class="cls-1" d="M93.62,123.35a7.45,7.45,0,0,0-.84-1.51c0-.07-.16,0-.11.06a7.72,7.72,0,0,1,.82,1.49A.07.07,0,0,0,93.62,123.35Z"/><path class="cls-1" d="M29.78,239.47c-1.23,2.16-1.84,6.47-4.89,6.65a.09.09,0,0,0,0,.17c3.28-.13,3.9-4.38,5.11-6.69C30.08,239.46,29.86,239.33,29.78,239.47Z"/><path class="cls-1" d="M28.18,247.13c-.1,0,0,.19.06.16a3.78,3.78,0,0,0,2.08-2.72c0-.14-.15-.18-.2-.06A4.36,4.36,0,0,1,28.18,247.13Z"/><path class="cls-1" d="M30.66,250a5.46,5.46,0,0,0,1.42-2.38c.08-.24-.3-.34-.38-.1a6.69,6.69,0,0,1-1.25,2.28A.15.15,0,0,0,30.66,250Z"/><path class="cls-1" d="M33,253.26a17.07,17.07,0,0,0,1-2.69.11.11,0,0,0-.21-.06c-.32.88-.59,1.79-1,2.64C32.74,253.27,32.92,253.38,33,253.26Z"/><path class="cls-1" d="M35.77,254.27a28.84,28.84,0,0,1,2.68,3.66c.07.14.28,0,.21-.12A25.93,25.93,0,0,0,36,254.14C35.9,254,35.66,254.13,35.77,254.27Z"/><path class="cls-1" d="M152.3,273.58c.3-.57.7-1.09,1-1.67,0-.09-.09-.17-.14-.08-.31.57-.7,1.09-1,1.66C152.09,273.6,152.25,273.69,152.3,273.58Z"/><path class="cls-1" d="M157,271.54a1.29,1.29,0,0,1,.31-.92c.09-.11-.06-.27-.16-.16a1.47,1.47,0,0,0-.36,1.08C156.79,271.67,157,271.67,157,271.54Z"/><path class="cls-1" d="M159,271.24a18.87,18.87,0,0,0,.68-6,.15.15,0,0,0-.29,0,21,21,0,0,1-.66,6A.14.14,0,0,0,159,271.24Z"/><path class="cls-1" d="M162.37,268.54c.33-2.82-.24-5.6-.65-8.38,0-.18-.35-.14-.33,0,.31,2.77.91,5.52.68,8.33C162.05,268.74,162.35,268.73,162.37,268.54Z"/><path class="cls-1" d="M165.06,266.21a27.76,27.76,0,0,0-1.36-7.71.15.15,0,0,0-.29.08,42.86,42.86,0,0,1,1.3,7.63A.18.18,0,0,0,165.06,266.21Z"/><path class="cls-1" d="M172,263.93a41.07,41.07,0,0,1,6.65-6c.09-.07,0-.22-.09-.16a37.87,37.87,0,0,0-6.68,6C171.76,263.89,171.87,264,172,263.93Z"/><path class="cls-1" d="M12.94,243.82c-.07-.07-.17,0-.11.11a24.22,24.22,0,0,1,3.3,4c.07.12.25,0,.18-.1A19.55,19.55,0,0,0,12.94,243.82Z"/><path class="cls-1" d="M10.28,245.48c-.07-.08-.18,0-.12.11a59.84,59.84,0,0,1,6,8.65.07.07,0,0,0,.12-.07A48,48,0,0,0,10.28,245.48Z"/><path class="cls-1" d="M20.44,253.47c-1.09,2.51-2.32,5-3.65,7.34a.12.12,0,0,0,.2.12,71.53,71.53,0,0,0,3.68-7.32C20.74,253.45,20.51,253.31,20.44,253.47Z"/><path class="cls-1" d="M65.18,353.16c2.53,4,5,8,8.58,11.17.17.16.42-.09.25-.25-6.91-6.37-9.7-16.67-17.54-22a.16.16,0,0,0-.23.06c-.12.27-2.38,5.33-2.94,4.84a44.4,44.4,0,0,1-4.39-4.7,96.41,96.41,0,0,1-9.56-14.2C34.13,319,29.27,308.7,28,298.21c0-.11-.18-.11-.17,0,1.08,9.24,5,18.05,9.26,26.25,4.31,8.38,9.59,17.05,16.71,23.36a.17.17,0,0,0,.28-.07c1.36-3.8,2.62-5.68,5.69-2.36A51.31,51.31,0,0,1,65.18,353.16Z"/><path class="cls-1" d="M127.33,335.14c-6.89,8.16-10.36,18.52-17.51,26.49-.09.1.05.25.14.15,7.15-8,10.66-18.31,17.49-26.51C127.52,335.18,127.4,335.06,127.33,335.14Z"/><path class="cls-1" d="M133,340.83a112.81,112.81,0,0,0,29-30.57c.08-.12-.12-.24-.2-.11a112.51,112.51,0,0,1-29,30.43C132.67,340.69,132.81,340.93,133,340.83Z"/><path class="cls-1" d="M121.77,294.14c-.09.15.13.27.23.13,2.2-3,4.37-6,5.59-9.51a.21.21,0,0,0-.2-.26c-.25,0-2.77.14-2.6-.39.57-1.7.65-3.3,1.76-4.81.09-.13,0-.27-.16-.28-.6,0-3.93.2-3.58-1.51.56-2.78,3-4.68,5.13-6.21.11-.08,0-.27-.11-.19-2.91,2-4.87,4-5.61,7.55a.18.18,0,0,0,.17.22c2.11.19,3.77-.23,2.76,2.1-.5,1.15-.55,2.48-1,3.67a.2.2,0,0,0,.19.25h2.22a5.86,5.86,0,0,1-1,3.45C124.48,290.38,123,292.21,121.77,294.14Z"/><path class="cls-1" d="M70.36,289.9c2.24,3.83,4.8,7.46,6.9,11.38.09.16.34,0,.25-.15-2-4-4.5-7.64-6.81-11.43-.66-1.1-.88-1.53-2-2-4-1.79-.07-4.25-.16-6.13-.1-2.26-1.9-3.74-3.65-4.93-4.11-2.79-8.77-3.85-12.41-7.46a.09.09,0,0,0-.12.13c2.63,2.62,5.8,4.18,9.13,5.78a23.43,23.43,0,0,1,5.05,3.11c2.54,2.09,1,4.69.2,7.18C66.08,287.18,69.78,288.92,70.36,289.9Z"/><path class="cls-1" d="M113.55,110.37c.94,1.66-.35,4-.81,5.63-.06.19.24.27.3.08.52-1.73,1.41-3.45,1-5.27a18.31,18.31,0,0,0-1-2.14,8.72,8.72,0,0,1-.21-5.11c0-.1-.14-.15-.16,0a9.27,9.27,0,0,0,.12,5.22A8.45,8.45,0,0,0,113.55,110.37Z"/><path class="cls-1" d="M114.45,118.77a6.53,6.53,0,0,0,1.54-3.54.1.1,0,0,0-.2,0,8.14,8.14,0,0,1-1.46,3.46C114.25,118.73,114.37,118.85,114.45,118.77Z"/><path class="cls-1" d="M105.59,182.41c-1.29-.37-2.18-.88-2.3-2.3a28.43,28.43,0,0,0-.18-2.92c0-.08-.13-.05-.11,0,.18,1.2,0,2.44.2,3.62s1.35,1.57,2.32,1.83A.14.14,0,0,0,105.59,182.41Z"/><path class="cls-1" d="M91,162.71a9.83,9.83,0,0,1,1.09-8.21c.06-.1-.09-.18-.16-.09-1,1.44-2.17,2.69-2.46,4.5s.74,3.31,1.53,4.75c.08.16.37.05.29-.12s-.09-.28-.15-.42c.16-6.29,7.47-4.22,11.2-2.65,3.89,1.65,7.41,2.83,11.58,1.7a.13.13,0,0,0-.07-.26c-6.88,1.44-11.95-3.46-18.6-3.47C92.39,158.43,91.14,160.26,91,162.71Z"/><path class="cls-1" d="M92,165.27c3,3.28,8,3.21,11.68,5.52.11.08.21-.1.1-.17-3.5-2.63-8.55-2.19-11.65-5.48A.09.09,0,0,0,92,165.27Z"/><path class="cls-1" d="M107.34,171.65c-.4.5-1,.13-1.38-.18-.1-.09-.24.05-.14.14.46.46,1.14.75,1.62.15C107.5,171.68,107.4,171.58,107.34,171.65Z"/><path class="cls-1" d="M110.05,172.35a.15.15,0,0,0,0-.29,16.08,16.08,0,0,1-2-.26c-.1,0-.15.12,0,.15A6.77,6.77,0,0,0,110.05,172.35Z"/><path class="cls-1" d="M112.59,172.26c4.15-2.49,11-1.7,13.21-6.84a.09.09,0,0,0-.16-.1c-3.18,4.75-8.75,4-13.12,6.83A.07.07,0,1,0,112.59,172.26Z"/><path class="cls-1" d="M120.22,161.64a.07.07,0,0,0,0,.13h.67c.06,0,.06-.1,0-.1C120.67,161.64,120.44,161.64,120.22,161.64Z"/><path class="cls-1" d="M122.55,161.76a4.81,4.81,0,0,1,2.46.41,2.6,2.6,0,0,1,1.25,2.37.1.1,0,0,0,.08.1,14.91,14.91,0,0,1-.92,1.66c-.09.14.12.3.24.18,2.46-2.43,3.12-6.12.78-8.83a.08.08,0,0,0-.12.09,6.81,6.81,0,0,1,.18,6.55,2.73,2.73,0,0,0-1.07-2.22,4.33,4.33,0,0,0-2.88-.41A.05.05,0,0,0,122.55,161.76Z"/><path class="cls-1" d="M75,172.74a.07.07,0,1,0-.13-.07c-2.17,3.72-4.74,7.55-5.28,11.94-.75,6.1.38,11.83,2.2,17.64.06.18.35.1.29-.08a49.2,49.2,0,0,1-2.43-14C69.52,182.29,72.26,177.67,75,172.74Z"/><path class="cls-1" d="M78,169.32c-.51.49-1,1-1.5,1.5-.06.07,0,.17.1.1.51-.49,1-1,1.5-1.5C78.17,169.36,78.07,169.26,78,169.32Z"/><path class="cls-1" d="M80.49,166.67c-.15.28-.35.55-.5.83a.08.08,0,0,0,.13.08c.15-.29.34-.55.5-.84A.07.07,0,0,0,80.49,166.67Z"/><path class="cls-1" d="M72.33,204.27a2.4,2.4,0,0,1,.74,1.44c0,.08.13.08.13,0a2.2,2.2,0,0,0-.75-1.57A.09.09,0,0,0,72.33,204.27Z"/><path class="cls-1" d="M73.64,208.61a.1.1,0,0,0,0,.19A.1.1,0,0,0,73.64,208.61Z"/><path class="cls-1" d="M76.34,213.63a2.09,2.09,0,0,0-.28.24c-.11.1.06.28.16.17a1.32,1.32,0,0,0,.24-.29A.09.09,0,0,0,76.34,213.63Z"/><path class="cls-1" d="M74.43,207.71h0a.19.19,0,1,0-.37,0,.35.35,0,0,0,.3.28A.17.17,0,0,0,74.43,207.71Z"/><path class="cls-1" d="M75.75,210.77s-.24-.26-.28-.31-.25,0-.16.16.17.31.38.35A.1.1,0,0,0,75.75,210.77Z"/><path class="cls-1" d="M102.9,134.5c-.72,3.5-3.88,6.21-4.88,9.7,0,0,0,.05.07,0,1.36-4.26,4.89-7.09,5.42-11.65.42-3.59-.18-7.88-2.75-10.57-.05,0-.12,0-.08.08C103.63,125.31,103.74,130.42,102.9,134.5Z"/><path class="cls-1" d="M99.1,152.32a7.47,7.47,0,0,1-1.48-2.13c0-.09-.17-.05-.14,0A6.54,6.54,0,0,0,99,152.42C99.07,152.48,99.17,152.39,99.1,152.32Z"/><path class="cls-1" d="M136.82,176.25c1.5,2.19,1.9,4.87,2.23,7.46,0,.1.19.11.18,0a14.86,14.86,0,0,0-2.27-7.54C136.9,176.08,136.76,176.16,136.82,176.25Z"/><path class="cls-1" d="M96.87,200.4a.06.06,0,1,0,0,.11c4.09-.63,7.66.44,11.45,1.84.16.07.27-.21.12-.28C104.94,200.44,100.71,199.25,96.87,200.4Z"/><path class="cls-1" d="M108,200.85c-2.32-1.1-4.37-2.67-7.06-2.45-.08,0-.08.12,0,.11,2.64-.06,4.64,1.5,6.94,2.55C108,201.12,108.08,200.92,108,200.85Z"/><path class="cls-1" d="M124.43,123.77c.31-.23.72-.25,1-.5.1-.07,0-.21-.13-.13-.29.24-.7.26-1,.51C124.27,123.71,124.36,123.82,124.43,123.77Z"/><path class="cls-1" d="M120.8,145.68c0,.12.14.16.18,0,1.68-4.44-3.57-8.13-2-12.75,0-.11-.13-.15-.17,0C117.1,137.61,122.27,141.22,120.8,145.68Z"/><path class="cls-1" d="M121.89,148.16a0,0,0,0,0,0,.09S121.94,148.16,121.89,148.16Z"/><path class="cls-1" d="M121,153.46c0-.23-.21-.31-.25-.53s-.2-.07-.18,0,.2.3.25.5S121,153.55,121,153.46Z"/><path class="cls-1" d="M121.28,148.27a16.7,16.7,0,0,1,1.24,2.72.12.12,0,0,0,.23-.07,12.64,12.64,0,0,0-1.26-2.78C121.42,148,121.21,148.13,121.28,148.27Z"/><path class="cls-1" d="M138.44,140.61a44.55,44.55,0,0,1-4.84-3.48c-.09-.06-.17.09-.09.15,1.61,1.19,3,2.7,4.82,3.52C138.46,140.85,138.57,140.68,138.44,140.61Z"/><path class="cls-1" d="M131.8,124a15.19,15.19,0,0,1,3.32-2c.17-.07,0-.31-.13-.24a13.78,13.78,0,0,0-3.35,2C131.53,123.89,131.69,124,131.8,124Z"/><path class="cls-1" d="M128.11,116.07c2.3-.82,4.46-1.94,6.73-2.71a22.82,22.82,0,0,1,6.74-.71,16.57,16.57,0,0,1,4.56,1.53c.47.35.94.69,1.44,1,.06.12.11.24.16.36s.33.06.31-.11c.18.1.36.18.55.27,1.71,1.28,3.3,2.76,4.81,4,.43.35,1-.2.62-.62-.13-.14-.26-.27-.4-.4s0,0,0,0a16.73,16.73,0,0,0-1.37-1.54,21.38,21.38,0,0,1-1.24-4.43c0-.15-.27-.11-.25,0a16.33,16.33,0,0,0,.73,3.68c-.45-.4-.92-.77-1.4-1.12-.12-.33-.24-.66-.33-1-.22-.79-.42-1.59-.67-2.37-.09-.25-.48-.14-.4.11.26.84.42,1.82.67,2.75-.31-.21-.63-.41-1-.59l0,0a6.46,6.46,0,0,1-.54-2.41.21.21,0,0,0-.41,0,7.21,7.21,0,0,0,.27,2.06,3.18,3.18,0,0,1-.32-.16,22.69,22.69,0,0,0-1.4-2.46.11.11,0,0,0-.18.11c.35.66.66,1.33,1,2l-.32-.16a15.56,15.56,0,0,0-4.36-2.43c-2.2-.69-4.79.41-7,1.35a42.64,42.64,0,0,0-7.14,3.67C127.75,115.81,127.88,116.16,128.11,116.07Z"/><path class="cls-1" d="M154.62,122.9c.19.62.69,1.08.9,1.69a.21.21,0,0,0,.35.1l.51-.49c.14.2.18.48.35.67a.23.23,0,0,0,.35-.28c-.21-.33-.21-.69-.57-.92a.23.23,0,0,0-.29,0l-.46.48a16.65,16.65,0,0,1-.95-1.37C154.76,122.72,154.59,122.79,154.62,122.9Z"/><path class="cls-1" d="M157.22,128.09s0,0,0,0c.06.5.17,1,.2,1.49a.29.29,0,0,0,.58,0,16.36,16.36,0,0,0-.44-2.17c0-.14-.2-.27-.31-.13a1.53,1.53,0,0,0-.38.8C156.86,128.23,157.19,128.28,157.22,128.09Z"/><path class="cls-1" d="M156.78,123.19a11.1,11.1,0,0,0-1.49-3c-.06-.08-.2,0-.14.09a16.59,16.59,0,0,1,1.51,3C156.69,123.3,156.81,123.27,156.78,123.19Z"/><path class="cls-1" d="M158.65,130.54a4.52,4.52,0,0,0,1.14,3.1.14.14,0,0,0,.22-.17c-.23-.52-.56-1-.76-1.51s-.31-1-.46-1.44A.07.07,0,0,0,158.65,130.54Z"/><path class="cls-1" d="M137,105.63A128.08,128.08,0,0,0,158.86,111c.13,0,.19-.17.06-.2a190.42,190.42,0,0,1-21.84-5.32C137,105.41,136.91,105.59,137,105.63Z"/><path class="cls-1" d="M143,126.32a.11.11,0,0,0,0-.22,7.4,7.4,0,0,0-2.15-.13.11.11,0,0,0,0,.22C141.6,126.22,142.3,126.28,143,126.32Z"/><path class="cls-1" d="M140.76,127a22.77,22.77,0,0,1,2.61.37c.08,0,.15-.11.06-.15a7.1,7.1,0,0,0-2.67-.39A.09.09,0,0,0,140.76,127Z"/><path class="cls-1" d="M142.86,128.67c.12.05.17-.14,0-.18-.38-.14-.74-.35-1.12-.49a.08.08,0,0,0,0,.16C142.12,128.31,142.48,128.52,142.86,128.67Z"/><path class="cls-1" d="M141.49,128.91a2.72,2.72,0,0,1,1.58.86c.08.09.2,0,.13-.13a2.68,2.68,0,0,0-1.66-.89C141.43,128.73,141.39,128.89,141.49,128.91Z"/><path class="cls-1" d="M140.83,129.76a19.42,19.42,0,0,0,2.25,1.79c.1.07.22-.09.13-.17-.71-.64-1.56-1.08-2.26-1.73C140.87,129.58,140.75,129.69,140.83,129.76Z"/><path class="cls-1" d="M140.34,130.75c.52.64,1.1,1.24,1.62,1.88.06.07.16,0,.1-.1-.52-.64-1.1-1.23-1.62-1.87C140.38,130.59,140.29,130.69,140.34,130.75Z"/><path class="cls-1" d="M140.1,132.65c-.26-.53-.5-1.08-.78-1.6,0-.08-.15,0-.12.06.25.55.46,1.11.72,1.65C140,132.88,140.16,132.77,140.1,132.65Z"/><path class="cls-1" d="M138.66,131.68a2.56,2.56,0,0,0,.37,2,.12.12,0,0,0,.21-.12,3.09,3.09,0,0,1-.37-1.79C138.89,131.6,138.68,131.53,138.66,131.68Z"/><path class="cls-1" d="M137.85,133c0-.38,0-.75,0-1.13a.09.09,0,0,0-.17,0c0,.38,0,.75,0,1.13C137.68,133.07,137.85,133.07,137.85,133Z"/><path class="cls-1" d="M136.85,132.36c.16-.39.37-.74.52-1.12.06-.14-.17-.21-.22-.07-.14.39-.34.75-.48,1.13C136.63,132.42,136.81,132.47,136.85,132.36Z"/><path class="cls-1" d="M136.07,130.67c.12-.06,0-.24-.11-.18a10.37,10.37,0,0,1-1,.53c-.07,0,0,.14.05.12A6.91,6.91,0,0,0,136.07,130.67Z"/><path class="cls-1" d="M136.1,129.71a8,8,0,0,0-1.29.61c-.16.11,0,.37.15.27.4-.25.84-.41,1.24-.65C136.32,129.87,136.24,129.66,136.1,129.71Z"/><path class="cls-1" d="M131.94,130.32l.92-.89a3.53,3.53,0,0,1,.7-.64l.18-.12a11.58,11.58,0,0,0,1.07,3c0,.09.2,0,.16-.07a11.14,11.14,0,0,1-.44-1.38,4.63,4.63,0,0,0,.94-.59c.15-.12,0-.38-.16-.27s-.55.39-.85.54a8.31,8.31,0,0,1-.15-1,11.31,11.31,0,0,0,1.49-.71c.07-.05,0-.17-.06-.14a12.31,12.31,0,0,0-1.45.64c0-.19,0-.37,0-.55a.16.16,0,0,0,.12,0,5,5,0,0,0,1.42-.51.21.21,0,0,0,0-.06,3.29,3.29,0,0,0,.63,2.57,2,2,0,0,0,.41.36.09.09,0,0,0-.13,0,1.33,1.33,0,0,1-.91.6c-.13,0-.14.22,0,.21a1.41,1.41,0,0,0,1.1-.67.1.1,0,0,0,0-.14,2.6,2.6,0,0,0,2.79-.05,2.94,2.94,0,0,0,.28-4.36.33.33,0,0,0,.36-.28c.23-1,1.29-.94,2.06-.93a6.6,6.6,0,0,1,.92,7.11c-1.32,3.1-6.21,2.44-7.75-.15a.07.07,0,0,0-.13.07c1.51,3,6.23,4.15,8.34,1.23a8.83,8.83,0,0,0,.84-6.92,2.21,2.21,0,0,1,2.29-.45.2.2,0,0,0,.23-.13,25.37,25.37,0,0,1,6,6.59l0,0a3.69,3.69,0,0,1-.33,1,7.58,7.58,0,0,1-.63.89c-.05.08.07.15.13.07a5.1,5.1,0,0,0,1-1.77c.14.23.27.47.4.7-.19.21-.32.45-.51.66s.09.42.25.25a3,3,0,0,0,.44-.57c.07.14.15.27.23.42a2.49,2.49,0,0,0-.67.29c-1.62.82-2.58,1.72-4.19,2.17-1,.09-1.94.22-2.9.33-4.58.1-9.09-1-12.47-4.24-.08-.08-.19,0-.12.12a15,15,0,0,0,3.74,3,22.37,22.37,0,0,1-3.7-2.12c-.12-.08-.26.1-.16.2a14.19,14.19,0,0,0,11.62,4,21.67,21.67,0,0,0,5.2-.37,22.18,22.18,0,0,0,3-1.75h0c.32.12,1.07.3,1.39,0,.11.28.22.55.32.84s.66.3.64-.09c-.28-4.58-4.07-9-8.49-11.94a3.46,3.46,0,0,0-.63-.39,21.38,21.38,0,0,0-7.17-3,.15.15,0,0,0-.07.29c.83.32,1.66.68,2.48,1.08a13.17,13.17,0,0,0-5.76,1.56,6.88,6.88,0,0,0-2.36,2.07,7.49,7.49,0,0,0-.79.9.12.12,0,0,0,0,.13,16.65,16.65,0,0,1-1.8,2.15.07.07,0,1,0-.12-.07,1.82,1.82,0,0,1-.8.65c-.07,0,0,.13,0,.11a3.69,3.69,0,0,1-2.15.61.16.16,0,0,0,0,.32,3.21,3.21,0,0,0,2.85-.52c.63.78,1.61,1.13,2.12,2a.09.09,0,0,0,.15-.08A9.29,9.29,0,0,0,131.94,130.32Zm22.63,5a1.68,1.68,0,0,1-.8.15c.47-.27.81-.44.89-.35l.08,0a.36.36,0,0,0,0,.09A.86.86,0,0,0,154.57,135.31Zm-10.35-10.8h.11l0,.08Zm-5.09.12a2,2,0,0,0-.44.27.34.34,0,0,0-.06-.06l0,0c.15-.06.31-.12.48-.17Zm-.23,2.58s0,0,0,.05h0a.31.31,0,0,0,0-.13Zm-.73,1a2,2,0,0,1-.09.26l-.33-.2a2.38,2.38,0,0,0,.45-.23Zm-1.46-1.09a2,2,0,0,1,0-.43,5.26,5.26,0,0,0,.84-.71h.09a.69.69,0,0,1,.76.65,3.39,3.39,0,0,1-.45.89.92.92,0,0,1-.83.27.66.66,0,0,1-.26-.08A1.51,1.51,0,0,1,136.71,127.16Zm-.61-1.07s0,0,.06,0,0,.1,0,.15h-.17A1.14,1.14,0,0,1,136.1,126.09Zm.3,2.13v0Zm1.78,1.72v0a.35.35,0,0,0,0,.08l-.28,0A.3.3,0,0,0,138.18,129.94Zm6.83-4.49a1.71,1.71,0,0,1,1.1-.38,2.08,2.08,0,0,0-1.1.38Zm-11.44,2.45.09-.1v.08Zm.77-.11h0c0-.14,0-.27.08-.4a.12.12,0,0,0,.21,0,.91.91,0,0,1,.08-.13.18.18,0,0,0,.11.08l.54.12A9.51,9.51,0,0,1,134.34,127.79Zm1.4-.5s0,0,0-.06a.2.2,0,0,0-.06-.35l-.2-.07s0,0,0,0l.54-.07a2.45,2.45,0,0,0,0,.27c0,.13,0,.28-.06.42A.14.14,0,0,0,135.74,127.29Zm.75,1.29a5.21,5.21,0,0,0,.6.72.34.34,0,0,0,0,.2.35.35,0,0,0,.09.17,2.52,2.52,0,0,1-.25-.21A2,2,0,0,1,136.49,128.58Zm9.79-3.51h.12l.07,0A.65.65,0,0,0,146.28,125.07ZM132,129.59l-.3.49-.11-.12Z"/><path class="cls-1" d="M152.73,132c0-.09-.13-.15-.18-.05a1.07,1.07,0,0,0-.13.44,3,3,0,0,1-.38,1.2,6,6,0,0,1-1.35,1.63s0,.09.06,0a8.24,8.24,0,0,0,1.29-1.47A3.08,3.08,0,0,0,152.73,132Z"/><path class="cls-1" d="M130.72,172.63c-1-1-2.23-1.77-3.28-2.72-.07-.06-.16,0-.1.09,1,1,2.18,1.82,3.22,2.78C130.66,172.88,130.82,172.73,130.72,172.63Z"/><path class="cls-1" d="M136.59,188.23c2.38,3.37,2.37,8.33,1.4,12.18a.16.16,0,0,0,.3.09c1-3.88.94-9-1.62-12.33C136.64,188.12,136.56,188.18,136.59,188.23Z"/><path class="cls-1" d="M134.34,210.18c0,.06.06.12.1,0a18.6,18.6,0,0,0,2.46-4.77s0,0,0,0A26.89,26.89,0,0,1,134.34,210.18Z"/><path class="cls-1" d="M132.89,215a.16.16,0,1,0,0,.33A.16.16,0,0,0,132.89,215Z"/><path class="cls-1" d="M152.06,205.93a.08.08,0,0,0,.16,0,27.43,27.43,0,0,0,1.48-9,.07.07,0,1,0-.13,0A34.18,34.18,0,0,1,152.06,205.93Z"/><path class="cls-1" d="M146.81,216.16c-.25.51-.53,1-.75,1.52a.08.08,0,0,0,.14.06c.29-.47.51-1,.76-1.49C147,216.15,146.86,216.06,146.81,216.16Z"/><path class="cls-1" d="M149.28,210.46a4.64,4.64,0,0,1-.47,1.7c0,.1.1.19.15.09a4.22,4.22,0,0,0,.53-1.79C149.5,210.32,149.29,210.32,149.28,210.46Z"/><path class="cls-1" d="M158.54,207.18c-1.49,7.49-8.66,10.62-12.06,16.93a.19.19,0,0,0,.32.19c3.86-5.88,10.51-9.79,11.94-17.07C158.77,207.1,158.56,207,158.54,207.18Z"/><path class="cls-1" d="M151.86,141.9c-4.86,2.77-8.8,3.24-14.2,1.74a.07.07,0,1,0,0,.13c5.2,1.58,9.72,1.39,14.3-1.76C152,142,151.92,141.87,151.86,141.9Z"/><path class="cls-1" d="M154.87,141.46s0,0,0,0c0-.29.21-.39.48-.39s.14-.25,0-.23C154.94,140.89,154.85,141,154.87,141.46Z"/><path class="cls-1" d="M62,130.64c-.08-.08-.21.05-.13.13a15,15,0,0,1,2.74,3.73c0,.11.21,0,.16-.09A15.29,15.29,0,0,0,62,130.64Z"/><path class="cls-1" d="M158.64,139.18a0,0,0,0,0,0,0A0,0,0,0,0,158.64,139.18Z"/><path class="cls-1" d="M158.77,124.21a9.69,9.69,0,0,0,.27,2.52c0,.13.22.07.19,0a12.08,12.08,0,0,1-.23-2.47A.12.12,0,0,0,158.77,124.21Z"/><path class="cls-1" d="M161.25,128a7.72,7.72,0,0,0,.26-3.57c0-.17-.28-.1-.25.07A11.93,11.93,0,0,1,161,128C161,128.09,161.21,128.11,161.25,128Z"/><path class="cls-1" d="M161.84,133.64c2.62.37,6-1.4,4.9-4.46-.05-.13-.24-.08-.2,0,.82,2.82-2.15,4.45-4.6,4C161.69,133.22,161.59,133.61,161.84,133.64Z"/><path class="cls-1" d="M166.35,135.82a14.87,14.87,0,0,1-2.21.19.2.2,0,0,0,0,.39,5.22,5.22,0,0,0,2.32-.32C166.62,136,166.5,135.8,166.35,135.82Z"/><path class="cls-1" d="M165.8,138.71c0-.21-.33-.21-.32,0a1.87,1.87,0,0,0,1.08,1.63c.18.1.34-.17.16-.27A1.59,1.59,0,0,1,165.8,138.71Z"/><path class="cls-1" d="M103.15,163.48a8.53,8.53,0,0,0-4.89-2.5c-1.81-.28-3.43,1.12-2.35,3a.16.16,0,0,0,.3,0,6.63,6.63,0,0,1,.22-1.38.13.13,0,0,0,.2.05c.5-.37,1.73.72,2.29.85a5,5,0,0,0,1.16.07,6,6,0,0,0,1.5.32,6.22,6.22,0,0,1,1.1.53,5.82,5.82,0,0,1,2.24,2.93c0,.09.2.09.19,0a5.73,5.73,0,0,0-1.35-3.23A4.88,4.88,0,0,0,103.15,163.48Z"/><path class="cls-1" d="M112.88,167.73c0,.16.17.22.25.11a7.78,7.78,0,0,1,2.48-2l.64-.36c.53.07,1,.21,1.57.27a2.84,2.84,0,0,0,1.05-.08.28.28,0,0,0,.24.11,1.67,1.67,0,0,0,1.3-.76,1.06,1.06,0,0,0,.42-.53,8.39,8.39,0,0,1,1.11.13.13.13,0,0,0,.1-.24,3.85,3.85,0,0,0-2.79-.61,6.19,6.19,0,0,0-4,1l-.09,0a.22.22,0,0,0-.14.16,4.14,4.14,0,0,0-.87.94s0,0,0,0A5.21,5.21,0,0,0,112.88,167.73Z"/><path class="cls-1" d="M43.89,52.16h-.67a.06.06,0,0,0,0,.11h.67S43.94,52.17,43.89,52.16Z"/><path class="cls-1" d="M43.51,198.37c.21,0,.31-.28.09-.33A6.83,6.83,0,0,1,39,195.15c-.07-.11-.26,0-.18.11A6.66,6.66,0,0,0,43.51,198.37Z"/><path class="cls-1" d="M17.1,191.09c-3.25-1.72,3.38-6.89,3.14-9.63a.11.11,0,1,0-.21,0c.08,3.19-7.18,6.87-3.86,10,2.07,1.95,6.06-1.33,7.48,1.18.93,1.65,1.4,2.37,3.55,1.77a.22.22,0,0,0-.06-.42c-1.38,0-2.14,0-2.75-1.39a2.55,2.55,0,0,0-.95-1.26C21.38,190.23,19,192.1,17.1,191.09Z"/><path class="cls-1" d="M34.14,194.69a.24.24,0,0,0,0-.47A.24.24,0,0,0,34.14,194.69Z"/><path class="cls-1" d="M180.73,123.53c-4.62-2.54-1.73-9.79-.51-13.42,2-6,2.18-10.89-3.14-15.1-5.75-4.54-13.64,1.5-19.23,3.06a.14.14,0,0,0,.08.27c3.76-1,7.19-2.84,10.91-4,7.26-2.19,13.17,4.18,11.94,11.12-.95,5.33-4.39,9.9-3,15.5a6,6,0,0,0,3.2,3.74c1.77.94,5.13.35,3.1,3.51-3.69,5.75-6.87,8-2.66,14.39a.19.19,0,0,0,.33-.2c-3.83-6.66.17-9.44,3.54-14.72.41-.64.88-1.75.23-2.41C184.41,124.23,182.06,124.26,180.73,123.53Z"/><path class="cls-1" d="M174.36,196.27c.24-.61.59-1.16.81-1.77.07-.19-.2-.27-.3-.13a10.19,10.19,0,0,0-.93,1.72A.23.23,0,1,0,174.36,196.27Z"/><path class="cls-1" d="M46.53,108.92a10.9,10.9,0,0,1-.13-2.21.27.27,0,0,0-.53,0,5.91,5.91,0,0,0,.38,2.28A.14.14,0,0,0,46.53,108.92Z"/><path class="cls-1" d="M156.92,98.1a.91.91,0,0,0-1.13.55.11.11,0,0,0,.2.11c.24-.38.52-.39.93-.45A.11.11,0,0,0,156.92,98.1Z"/><path class="cls-1" d="M174,100.71c0-.14-.22-.14-.21,0a4,4,0,0,0,1.66,2.87c1.92,1.72,1.13,4.62,1,6.88,0,.2.31.2.32,0,0-2,.31-3.89-.31-5.78C175.93,103,174.15,102.74,174,100.71Z"/><path class="cls-1" d="M178,127c-.07,2.77-.27,5.49-.52,8.25,0,.19.29.23.33,0a33.84,33.84,0,0,0,.48-8.29A.15.15,0,0,0,178,127Z"/><path class="cls-1" d="M182.55,143.3c.28-.37.66-.25,1-.15a.2.2,0,0,0,.16-.37,1,1,0,0,0-1.51.33A.19.19,0,0,0,182.55,143.3Z"/><path class="cls-1" d="M177.43,142.41a.06.06,0,1,0-.08.09,1.38,1.38,0,0,1,.47.72c0,.09.15.06.13,0A1.47,1.47,0,0,0,177.43,142.41Z"/><path class="cls-1" d="M181.85,145.09a5,5,0,0,1,3.56,1.95c.81,1.22.48,2.83.08,4.12-.07.2.23.28.3.09a5.07,5.07,0,0,0-.11-4.37,5,5,0,0,0-3.76-2C181.75,144.8,181.68,145.06,181.85,145.09Z"/><path class="cls-1" d="M194.24,83.29c.08.18.38,0,.31-.13-1.92-4.92-6-4-10.42-3-6.39,1.36-10.75-1-12.87-7.3-.73-2.18-1.44-3.85-3.38-5.18-5.45-3.72-13.12.54-17.87,3.35-5,3-23.48,15.72-24.51,2.62-.42-5.28,2.83-11.14-.67-15.93-3.3-4.51-9.75-1.36-13,1.33-5.92,4.93-10.72,14.59-18.4,16.69-5.33,1.45-11.54-4.44-15-7.55-4.86-4.33-8-9.88-8.34-16.44,0-.22-.35-.22-.34,0,.31,8.43,5.4,14.88,11.93,19.84,5.34,4.06,10.51,6.83,16.47,2.5,6.49-4.71,10.08-12.25,17.09-16.48,6.22-3.75,11,.89,10.57,7.23-.2,3.26-1.08,6.39-.85,9.67.36,5.08,5.87,5.83,9.91,5.14,8.14-1.38,14.67-8.46,22.22-11.47,5.59-2.23,11.69-1.31,13.72,4.81.8,2.43,2.09,5.29,4.36,6.71C181,83.33,191.13,76,194.24,83.29Z"/><path class="cls-1" d="M194.89,86.3a.1.1,0,0,0,0-.19A.1.1,0,0,0,194.89,86.3Z"/><path class="cls-1" d="M201.89,111.41a.21.21,0,0,0,0-.41c-7.88-.25-3.06-6.86-1.29-10.17a.25.25,0,0,0-.15-.36c-4.82-2,2.4-10.34-2-13.84-.1-.07-.24.05-.14.15,3.68,3.59-.43,6.9-.49,10.77,0,1.84,2.31,3.16,1.58,4.46C196.93,106.45,194.48,111.82,201.89,111.41Z"/><path class="cls-1" d="M85.43,17.35c.17,0,.13-.32,0-.3-12.18,1.32-16.52,17-17.67,27.16,0,.21.31.2.33,0C69.28,33.91,73.51,19.21,85.43,17.35Z"/><path class="cls-1" d="M88.6,16.71c.05-1.55,1.13-2.73,2.73-2.31a.2.2,0,0,0,.11-.39c-1.87-.65-3.24.91-3.27,2.7A.22.22,0,0,0,88.6,16.71Z"/><path class="cls-1" d="M36.81,71.78a3.74,3.74,0,0,1,.73-1.73A2.09,2.09,0,0,0,36.81,71.78Z"/><path class="cls-1" d="M42.08,49.26c.09-.25-.29-.34-.38-.11a9.92,9.92,0,0,0,0,7.27c1.21,3.59,6.08,9.71-.06,11.37a7.39,7.39,0,0,0-4.08,2.26c1.66-1.48,5.67-1.39,6.69-2.9,1.27-1.85,1.07-3.69.37-5.75C43.14,57.11,40.33,54.13,42.08,49.26Z"/><path class="cls-1" d="M38.26,79a.43.43,0,0,0-.41-.31C30.58,78.69,29.1,84,25.15,89c-.27.33.17.8.48.48,2.24-2.34,3.54-5.32,5.69-7.72a34.11,34.11,0,0,1,6.16-2.41.42.42,0,0,0,.81,0c.83-2.12.41-3.23-.67-5.16a5.42,5.42,0,0,1-.81-2.38C36.48,73.7,37.32,76.11,38.26,79Z"/><path class="cls-1" d="M51.77,34.09c-3,3.52-5.56,7.41-8.52,11-.15.19.11.45.27.27,3-3.53,5.52-7.45,8.48-11C52.14,34.16,51.91,33.93,51.77,34.09Z"/><path class="cls-1" d="M190,94.81a.12.12,0,0,0-.2.12c2.87,5.14-1,10.48,1.56,15.51,1.89,3.65,7.23,5.16,9.68,8.54a.22.22,0,0,0,.38-.22c-1.85-3.7-6.16-5.21-9-8C188.59,107,192.75,99.52,190,94.81Z"/><path class="cls-1" d="M178.55,336.59c-.14,0-.14.21,0,.23,11.78,1,18.9,11.52,20.15,22.55,1.12,9.87-8.75,21.43-18.83,22.21a39.14,39.14,0,0,0,2.1-3.87c2.92-.36,5.6-3.16,7.63-5.37a.1.1,0,0,0,.07-.08l.69-.75a.19.19,0,0,0-.28-.27l-.56.52a100.32,100.32,0,0,0-4-10.22c.11-1.05.21-2.11.33-3.16,1.51,3.75,2.71,7.62,4.17,11.39.07.2.39.11.31-.08-1.46-3.84-2.66-7.78-4.45-11.48h0a2.48,2.48,0,0,0,0-.27.73.73,0,0,0,.67-.05,6.15,6.15,0,0,0,.71-.45v0a7.92,7.92,0,0,1,1.47,3c0,.12.23.07.19-.05a7.44,7.44,0,0,0-1.53-3,4.51,4.51,0,0,0,1.59-5c1.45,2.8,2.94,5.58,4.27,8.44.05.09.18,0,.14-.08-1.68-3.69-3.67-7.22-5.5-10.83-.05-.09-.17,0-.14.07a6.67,6.67,0,0,0-6.81-2.72c-.22.06-.12.36.09.33,4.13-.7,9,5.86,5.07,8.72.09-.66.18-1.33.29-2a.25.25,0,0,0-.48-.13c-1.75,6.15-2,12.57-3.81,18.71a36.67,36.67,0,0,1-4.26,8.74c-1.32,2.14-3.3,3.51-5.07,5.14a.45.45,0,0,0-.47.13c-.75.8-1.75,1.91-2.81.95a3.86,3.86,0,0,1-1-2.64,2.7,2.7,0,0,1,.88-.71,16.57,16.57,0,0,0,6.17-5.32c.07-.11-.09-.23-.18-.14a16,16,0,0,1-6.86,4.53l-.1.05h0c-.58.13-1.43.54-2,.21-.35-.2-.41-.84-.46-1.19s0-.43-.05-.65a.36.36,0,0,0,0-.23h0c0-.09,0-.19-.07-.28a4.2,4.2,0,0,0-.16-.8l0-.3c3.44-2,7.4-4.34,8.59-8.34.05-.15-.2-.26-.27-.11-1.79,4-5.73,5.31-9.31,7.22a.91.91,0,0,0-.08-.13c-.41-.35-.83-.46-1.07-.75-.21-.72.14-1.37.09-2.25a28.22,28.22,0,0,0,4.71-3.82c1.22-1.12,2.5-2.33,2.77-4,0-.14-.19-.21-.22-.06-.4,1.87-2.28,2.92-3.73,4a43.69,43.69,0,0,1-3.69,2.38,3.94,3.94,0,0,1-1.5-.72c-.46-.47-.73-.93-.3-1.31a.64.64,0,0,0,.21-.48l.15-.13a9.21,9.21,0,0,0,1.86-2c1.38-1.84,2.12-4.07,3.49-5.93.13-.18-.15-.38-.31-.23a17.14,17.14,0,0,0-1.23,1.33c-.21-3.76,2.21-6.27,4.43-9.13,1.95-2.51,4.74-3.48,7.39-5,.22-.13.07-.51-.18-.42-.73.27-1.49.46-2.25.66-.09-1,.6-1.39,1.58-1.84s2.1-.82,2.58-1.83a.21.21,0,0,0-.33-.25c-1,.86-2.48,1-3.69,1.51a2.33,2.33,0,0,0-1.33,2.76,11,11,0,0,0-1.76.67,13.16,13.16,0,0,0-4.14,3.9,25.9,25.9,0,0,0-2.89,4.13c-.88-1.56-1.8-3.08-2.62-4.68a.09.09,0,0,0-.16.09,35.13,35.13,0,0,0,2.61,4.92,6.51,6.51,0,0,0-.69,3.48,14,14,0,0,1-2.42-4.63.08.08,0,0,0-.12,0,50.68,50.68,0,0,1,1.2-8.74c0-.23-.29-.33-.35-.1-.92,3.89-4.12,14.7,1.93,16.13-.26.35-.51.72-.76,1.09a25,25,0,0,1-1.77,2.36,5.08,5.08,0,0,1-.93.75,22.11,22.11,0,0,1-2.77-20.53c2.32-6.71,8.58-10.47,14.74-13.08.21-.09.06-.41-.15-.36-13.16,3.51-20.38,17.55-15.39,29.62a21.76,21.76,0,0,0,2,4.35c.73,1.29-.42,1.65.15,2.81a3.82,3.82,0,0,0,1,1.26c1.07.93.77,1.38.72,2.81a3.12,3.12,0,0,0,1.84,3,45.18,45.18,0,0,0-2.59,6.9c-1.48,4.32-3.2,8.56-4.85,12.83-4.15,10.77-8.33,21.48-13.51,31.81-.17.35.34.66.53.31,8.79-16.1,14.19-33.48,21.27-50.28.5,1.18.36,2.67.79,3.85a2.47,2.47,0,0,0,.24.49c-2.11,3.61-3.25,8-5,11.66a147.69,147.69,0,0,0-6.46,15.1c-1.54,4.31-3.44,8.5-5,12.8-.47,1.3-3.67,10.58-5.89,6.92a.28.28,0,0,0-.52.21c1.88,6.81,6.82-4.25,7.56-6.2,2.36-6.19,4.4-12.47,6.66-18.69a116,116,0,0,1,6-12.59c1.4-2.74,2.27-5.72,3.77-8.4a1.27,1.27,0,0,0,.34,0l.08,0c.85,2.76,5.43,4.76,6.88,1.37a.77.77,0,0,0,.07-.26,21.85,21.85,0,0,0,4-3.43c.48-.65,1-1.3,1.4-2a.67.67,0,0,0,.55.2c5.31-.34,10.66-4.32,14.41-7.85a19.9,19.9,0,0,0,6.12-15.92C199.41,347.6,190.75,336.8,178.55,336.59Zm-16.69,22.85a10.46,10.46,0,0,0,2.43,4.72.12.12,0,0,0,.16,0,5.27,5.27,0,0,0,.4,1.22C162.65,364.36,161.92,362.06,161.86,359.44Zm2.79,21.5.1.31a1,1,0,0,0-.18-.1Zm19.94-11.73c.14.47.26.94.42,1.4A7.43,7.43,0,0,0,186.8,374c.11.09.29,0,.21-.16a20.21,20.21,0,0,1-2.32-5.18c.14-.83.26-1.66.37-2.5.56,1.46,1,3,1.57,4.43a7.71,7.71,0,0,0,1.28,2.67,19.67,19.67,0,0,1-2.23,1.77c-.3-.72-.68-1.4-1-2.13-.2-.5-.38-1-.57-1.49Q184.4,370.31,184.59,369.21Zm4.74,2.74-1.19,1.1c-.95-.82-1.45-3.06-1.81-4s-.77-2.2-1.22-3.27c.16-1.28.29-2.56.42-3.84C187,365.16,188.09,368.59,189.33,372Zm-5.31-.07a9.09,9.09,0,0,0,1.45,3.28h0a12.81,12.81,0,0,1-1.3.74l-.09-.22c-.1-.22-.18-.54-.43-.63a.13.13,0,0,0-.17.12,1.77,1.77,0,0,0,0,.23c0,.06,0,.07.1,0,.06.16.11.33.16.5l0,.13a8.74,8.74,0,0,1-1.25.42l0-.07A32.83,32.83,0,0,0,184,371.88Z"/><path class="cls-1" d="M175.26,336.58c-.15-.16-.41.1-.25.25a.71.71,0,0,0,.63.27.15.15,0,0,0,0-.29C175.45,336.79,175.39,336.71,175.26,336.58Z"/><path class="cls-1" d="M145.32,379.37c1.5,2.76,2.67,5.63,4.33,8.31.1.15.39.2.47,0,5.09-12-.84-25.2,4.71-37.31.17-.37-.38-.69-.55-.32-3.5,7.69-3,15.36-2.64,23.61a55.36,55.36,0,0,1-.08,6.31c0-.57-1.15,7.89-2.28,6.08-2.16-3.46-3.42-7.33-5.84-10.64a.26.26,0,0,0-.34-.09c-6.11,3.73-9.93,10.44-13.25,16.55-4.22,7.76-7.47,16.05-12.06,23.61a.12.12,0,0,0,.2.12c4.85-7.92,8.35-16.61,12.87-24.71a56.62,56.62,0,0,1,8.56-12.08C142.15,376,143.4,375.84,145.32,379.37Z"/><path class="cls-1" d="M156.64,345.63c7.32-5.86,15.11-11.08,22.67-16.61.17-.13,0-.42-.18-.29-7.63,5.46-15.38,10.77-22.66,16.72C156.34,345.55,156.52,345.72,156.64,345.63Z"/><path class="cls-1" d="M46.07,378.1a.21.21,0,0,0-.33-.05c-.88.73-3.31,3.36-4.9,2a41,41,0,0,1-5.46-6.16A57.46,57.46,0,0,1,28,360.17c-.07-.16-.33-.09-.26.07,3.1,8,7.5,15.4,14,21.11a.22.22,0,0,0,.29,0c2-1.61,3.51-3.47,5.12-.7A55.06,55.06,0,0,1,51,390.17c1.74,5,3.58,9.81,6.65,14.16.19.27.62,0,.44-.25C52.51,396.13,51.45,386.12,46.07,378.1Z"/><path class="cls-1" d="M167,351.06c0,.28,0,.56,0,.84a.06.06,0,0,0,.12,0c0-.28,0-.56,0-.84C167.14,351,167,351,167,351.06Z"/><path class="cls-1" d="M173.41,357.83c-.08,0-.12.1,0,.13,3.12,1.16,3.37,5.74,4.76,8.33.07.13.26,0,.19-.12C177.05,363.52,176.63,358.94,173.41,357.83Z"/><path class="cls-1" d="M180.18,364.33a62.26,62.26,0,0,0-4.71-8.15c-.07-.09-.22,0-.16.1a61.08,61.08,0,0,1,4.63,8.19C180,364.63,180.25,364.49,180.18,364.33Z"/><path class="cls-1" d="M180.29,360a12.25,12.25,0,0,0-2.67-3.86c-.09-.07-.21.05-.12.12,1.27,1,1.79,2.49,2.66,3.81C180.21,360.18,180.34,360.11,180.29,360Z"/><path class="cls-1" d="M180.62,356.19c-.46-.64-1-1.2-1.5-1.83-.05-.08-.19,0-.13.07.48.64,1,1.23,1.52,1.85C180.56,356.35,180.67,356.26,180.62,356.19Z"/><path class="cls-1" d="M181.06,353.3a.1.1,0,1,0,0,.19A.1.1,0,0,0,181.06,353.3Z"/><path class="cls-1" d="M193.32,363.13c.14.18.17.31.38.37a.1.1,0,0,0,.05-.2,1.76,1.76,0,0,1-.29-.31C193.38,362.89,193.24,363,193.32,363.13Z"/><path class="cls-1" d="M163.82,353.77c.92,1.34,1.48,2.89,2.45,4.2.11.14.34,0,.24-.14-.94-1.33-1.56-2.84-2.54-4.14C163.9,353.6,163.75,353.68,163.82,353.77Z"/></g></g></svg>