<svg xmlns="http://www.w3.org/2000/svg" viewBox="0 0 216.37 362.5"><defs><style>.cls-1{fill:#fff;}</style></defs><title>Tyrion</title><g id="Layer_2" data-name="Layer 2"><g id="Layer_1-2" data-name="Layer 1"><g id="Layer_2-2" data-name="Layer 2"><g id="Layer_2-2-2" data-name="Layer 2-2"><path class="cls-1" d="M76.4,331.22c-2.94-1.05-4.37-4.73-2.14-7.2.76-.84,2-1.64,3.17-1,1.74.91-.24,4.64-.85,2.09-.14-.61-.94-.4-1,.14-.28,2.26,2.08,3.1,3.34,1.21,1.43-2.14.49-5.06-2.22-5.25S72.13,324,72,326.26a5.25,5.25,0,0,0,4.34,5.46.26.26,0,0,0,.31-.19.26.26,0,0,0-.2-.31Z"/><path class="cls-1" d="M91.58,325a.24.24,0,0,0-.29-.19.26.26,0,0,0-.2.19,15.06,15.06,0,0,0-.14,2c-.74.2-1.93,1-2.44,0-.39-.74.81-1.19,1.4-1.33a.23.23,0,0,0,.14-.29.27.27,0,0,0-.14-.14,2.14,2.14,0,0,0-2,.45,1.41,1.41,0,0,0-.41.73,4.62,4.62,0,0,0-.59-1.35.27.27,0,0,0-.46.27,16.57,16.57,0,0,1,.64,2,.29.29,0,0,0,.42.06.09.09,0,0,0,.06-.06c.54,1.32,2.48,1.42,3.55.63a1.92,1.92,0,0,0,.18.35.35.35,0,0,0,.49.1.33.33,0,0,0,.15-.27,5.58,5.58,0,0,0-.16-1.52C91.7,326.11,91.64,325.52,91.58,325Z"/><path class="cls-1" d="M96.38,321.57a4.81,4.81,0,0,0-3.34.19,3.22,3.22,0,0,0-1.28,1,4.28,4.28,0,0,0-.37.66c-.12.27-.9-.21-1.19-.32a.39.39,0,0,0-.42.14c-4.08-2.44-7.71-6.25-12.85-5.55-4,.55-7.54,2.58-8.82,6.07a3.24,3.24,0,0,0-2.58.65,3.1,3.1,0,0,0-1,2.54,2.5,2.5,0,0,0,1.33,2,2.66,2.66,0,0,0,2,0c1,3.75,4.44,6.75,8.37,6.42a13.74,13.74,0,0,0,4-1c.91,1.15,2.39.75,3.71.11a10.6,10.6,0,0,0,2.61-2l.62-.56a1,1,0,0,1,.49.19,2.33,2.33,0,0,0,.67.47c1.25.49,2.32-.55,3.59-.15a.73.73,0,0,0,.7-.1l.27.13A3.17,3.17,0,0,0,95.7,332a1.52,1.52,0,0,0,1.21.32c.89.58,1.74.93,2.54.44h.25a18.49,18.49,0,0,1,1.9,3,5.59,5.59,0,0,0,2.65,2c.81.36,2,.76,2.81.08a1.23,1.23,0,0,0,.44-.73,8.28,8.28,0,0,0,4.49.74,9.28,9.28,0,0,0,6.93-5.58A2.19,2.19,0,0,0,121.7,331a2.29,2.29,0,0,0-1.31-3,2.23,2.23,0,0,0-.44-.13,8.19,8.19,0,0,0-6.16-8.17c-5.3-1.56-10.19,2.6-15.11,3.92A4,4,0,0,0,96.38,321.57Zm-29.86,6a1.17,1.17,0,0,1-.49-.79c-.13-1.14.79-1.77,1.78-2.09a9.5,9.5,0,0,0-.21,2.49v.21a2,2,0,0,1-1.08.22Zm17,5.24h-.11l.41-.22Zm-2.27,1.07a.27.27,0,0,0,.11.08h.09a.46.46,0,0,0,.14.37,1.16,1.16,0,0,1-.7-.3Zm7.07-3.16v-.07a1.26,1.26,0,0,0,.5.26,1.41,1.41,0,0,1-.48-.15Zm32.07-.28a.57.57,0,0,1-.46.41.73.73,0,0,1-.43-.07,10.72,10.72,0,0,0,.37-1.68,1.18,1.18,0,0,1,.54,1.38ZM107,322.2c4.42-1.87,9.61-.74,10.84,4.35a8.2,8.2,0,0,1-1.1,5.66c-2,3.72-5.76,4.19-9.26,2.57-2.92-1.36-5.48-4.67-8.74-5.11a.81.81,0,0,0-.71.21,3.75,3.75,0,0,0-.13-1.56.32.32,0,0,0-.4-.23.34.34,0,0,0-.24.4h0a2.08,2.08,0,0,1-.19,1.3,2.77,2.77,0,0,1-.54.73,1.14,1.14,0,0,1-.17-.15.79.79,0,0,0-1.07,0c-.89.7-1.78.88-2.52.21a.44.44,0,0,0-.32-.37h0a.44.44,0,0,1-.08-.11.63.63,0,0,0-.84-.22H91a.29.29,0,0,0-.33,0l-.47-.08-.38-.1.46-.17c.34-.11.4-.67,0-.75-6.28-1.21-14,9.89-19.14,2.47-4.86-6.95,2.37-12.92,9.26-11.72,3.74.66,6.65,3.94,10.34,5a.3.3,0,0,0,.26,0,1.23,1.23,0,0,0,1.15,0c.32-.18.47-.63.74-.89a3,3,0,0,1,1.19-.64,3.32,3.32,0,0,1,2.61.41c1.09.67.65,1.83.53,2.84a.63.63,0,0,0,.63.62.59.59,0,0,0,.43-.19l.06-.09a.34.34,0,0,0,.36.06,3.17,3.17,0,0,1,1.32-.26c.18,0,.23.33.24.62a3.42,3.42,0,0,0-1.08.58c-.47.36,0,1.13.56,1s.7-.44,1.1-.48a.56.56,0,0,0,.57-.57h0c0-.74-.1-1.7-.88-2a2.37,2.37,0,0,0-1.71.23,2.61,2.61,0,0,0,.14-1c2.89-.06,5.43-1.43,8.06-2.53Z"/><path class="cls-1" d="M111.62,328.68a.56.56,0,0,0,.14-.79.62.62,0,0,0-.27-.21c-.2,0-1.13,0-1.16-.25a1.92,1.92,0,0,1,.58-1.21c.52-.67,1.84-1.92,2.74-1.19,1.5,1.23,1.35,4.65,0,5.88-1.55,1.45-4.44,1.15-6.35.91-.18,0-.21.26,0,.31,2.67.76,6.29,1.27,8.13-1.32,1.41-2,.82-6.48-1.6-7.49-1.8-.76-4,1.21-4.61,2.75S109.64,329.6,111.62,328.68Z"/><path class="cls-1" d="M84.74,326.16c-1.44.43-1.08-3.59-2.63-2.68-2.27,1.33-1.43,8.92-5.69,6.07-.15-.1-.34.14-.2.26,3.39,2.92,4.81-2.09,5.87-4.52.11-.23.22-.46.35-.69,0,.06,0,.11,0,.16.16.48.35.95.55,1.41a1.39,1.39,0,0,0,1.79.8,1.06,1.06,0,0,0,.21-.11.37.37,0,0,0,.2-.5A.38.38,0,0,0,84.74,326.16Z"/><path class="cls-1" d="M85.06,324.44a4.8,4.8,0,0,1,.31,1.67,6.44,6.44,0,0,0,.09,1.52c.12.42.8.35.77-.1a8.83,8.83,0,0,0-.64-3.32C85.45,323.92,85,324.13,85.06,324.44Z"/><path class="cls-1" d="M101.73,327.92c.58-.22.71-1.16.93-1.68.06-.15-.17-.27-.27-.16a5.51,5.51,0,0,0-.54.73c-.18.29-.44.53-.41.89a.25.25,0,0,0,.26.23Z"/><path class="cls-1" d="M103.44,328a7.34,7.34,0,0,0,.57-1.28c.08-.2-.22-.3-.33-.14a12.14,12.14,0,0,0-.78,1.1C102.73,328.07,103.24,328.38,103.44,328Z"/><path class="cls-1" d="M104,329.41a.23.23,0,0,0,.16.18c.81.3.86,1.31,1.16,2a1.18,1.18,0,0,0,1.57.54,1.16,1.16,0,0,0,.53-.54c.13-.26,0-.68-.37-.64a2.91,2.91,0,0,0-.63.16c-.1,0-.16,0-.1.05a2.28,2.28,0,0,1-.47-.74c-.31-.6-.72-1.21-1.41-1.28a5.58,5.58,0,0,0,1.27-3.27c0-.2-.29-.19-.31,0a5.38,5.38,0,0,1-1.61,2.9.43.43,0,0,0,.11.59Z"/><path class="cls-1" d="M93,362.44a1.77,1.77,0,0,1,.31-.15c0-.45-.09-.9-.12-1.35.37.37.76.7,1.14,1.05l.56-.07c-.59-.53-1.18-1.07-1.74-1.64,0-.4-.06-.79-.07-1.19-.06-1.76,0-3.53.07-5.29,1.75,1.13,3.48,2.29,5.17,3.52.14.1.28-.14.14-.25-1.72-1.26-3.5-2.45-5.3-3.6.09-1.78.23-3.55.38-5.33.25.22.51.43.75.66s.33-.08.2-.21c-.3-.29-.61-.54-.92-.81A116,116,0,0,0,94.18,335a.34.34,0,0,0-.34-.34.35.35,0,0,0-.34.34A103.32,103.32,0,0,1,92,346.5a51.72,51.72,0,0,0-4.52-2.89.1.1,0,0,0-.12.16h0c1.55,1,3.11,1.94,4.57,3-.31,1.76-.6,3.53-.85,5.3A126.45,126.45,0,0,1,80,344.63c-.09-.07-.21.06-.12.13A124,124,0,0,0,91,352.43c-.24,1.75-.42,3.51-.52,5.28-4.91-4.81-9.79-9.61-16.58-11.11-.12,0-.17.16,0,.19,6.88,1.59,11.67,6.61,16.59,11.5v.8c0,.92,0,2.11,0,3.41a5.47,5.47,0,0,1,1.45-.19A5.14,5.14,0,0,1,93,362.44Z"/><path class="cls-1" d="M67.63,301.88c.48.21.9-.48.41-.71-18.5-8.65-34.15-21.32-43-40.09-.12-.27-.5,0-.39.23C32.82,280.21,49.06,293.7,67.63,301.88Z"/><path class="cls-1" d="M33.57,283.46c-.08-.09-.21,0-.13.13,6.46,7.45,13.81,13.94,22.62,18.46.25.13.47-.25.22-.38A79.58,79.58,0,0,1,33.57,283.46Z"/><path class="cls-1" d="M169,270a99.08,99.08,0,0,1-22.22,19.07c-9.28,5.88-19.57,8.84-29.35,13.62-.21.1,0,.4.17.3,5.6-2.61,11.49-4.42,17.2-6.75a87.12,87.12,0,0,0,13.64-7.46,90,90,0,0,0,20.92-18.43C169.56,270.13,169.21,269.77,169,270Z"/><path class="cls-1" d="M160.65,287.77c.29-.21,0-.69-.29-.48-8.75,6.11-16.68,13.45-26.9,17.07-.21.08-.12.4.09.33C143.86,301.2,152,294,160.65,287.77Z"/><path class="cls-1" d="M31.84,183.2a.34.34,0,0,0,.34-.34.35.35,0,0,0-.34-.34.34.34,0,0,0-.33.35A.33.33,0,0,0,31.84,183.2Z"/><path class="cls-1" d="M206.55,110c1.88-3.75,4.14-7.26,5.81-11.11,3.18-7.31,5-16.54,3.43-24.45-3.35-16.87-18-29.66-29.61-41.11C172.56,19.85,158.52,6.89,139.52,1.86,124.82-2,109,.13,96.31,8.42a1.29,1.29,0,0,0-.42-.78c-5.2-4.69-13.27-.56-17.06,4a1.58,1.58,0,0,0-.3,1.31C65.75,20.25,51.78,25.41,40,34.18,29.57,41.81,18.82,55.35,17.83,68.7,17.2,77.1,22.54,86,18,93.88c-3.12,5.44-8.44,8.55-10,15C6.22,116,10,121.49,12.3,128c2.91,8-1.67,13.44-2.75,21.14a.51.51,0,0,0,0,.22C8,151,7.36,154,6.77,155.89a.31.31,0,0,0-.26.31,11.31,11.31,0,0,0,2.29,7.53c2.51,3.22,7.06,6,7.14,10.47.13,6.93-12.91,10.7-8.15,18.88a10,10,0,0,0,7.44,4.82.41.41,0,0,0,0,.57.39.39,0,0,0,.1.08c5.17,2.39.46,13.52,2,18.06a4.27,4.27,0,0,0,3.79,3.13c.36,0,2.63-.91,2.71-.76.57,1.06.89,2.24,1.52,3.27a1.46,1.46,0,0,0,2,.52l1.16-.57C26,227.2,27,233.63,22,237.32c-5.53,4-15,3.14-21.45,3.67a.58.58,0,0,0-.49.66.55.55,0,0,0,.49.49c4.93.46,9.85,1.27,14.67.88a24.39,24.39,0,0,0,4.62,5c.08.06.2-.06.14-.14-1.3-1.76-3.1-3.21-4.56-4.85a21,21,0,0,0,2.51-.34.91.91,0,0,0,.32.06h.14a15.19,15.19,0,0,1,.86,1.44c.25.47.45,1.23.88,1.56a.19.19,0,0,0,.25-.06.29.29,0,0,0,0-.09c0-.54-.53-1.18-.78-1.62a11.53,11.53,0,0,0-.78-1.23A6.45,6.45,0,0,1,20,243l.08.06c.91.5.75,1.33.74,2.17a14,14,0,0,0-.74,4,.4.4,0,0,0,.41.37.38.38,0,0,0,.35-.27,26.38,26.38,0,0,1,1-3c1.88-1.74,4.92-4.77,5.61-7.54C29.12,236,30,232,30.55,229.87a103.84,103.84,0,0,1,3.21-10l.11-.13a19.33,19.33,0,0,1,2.42-2,10.06,10.06,0,0,1,2.3-1.14,2.3,2.3,0,0,1,.82-.09v.67c-2.89.14-4.89,4.07-6.23,6.15-.11.17.16.32.27.16,1.46-2.18,3.13-5.51,6-5.75a17.7,17.7,0,0,0-.52,2.12c-1.55.1-2.66,1.37-3.48,2.58-.11.16.14.35.27.21.83-.92,1.82-2,3.11-2.16a17.43,17.43,0,0,0,.11,5.2c.83,4.93,3.81,9.14,7.11,13.13a54,54,0,0,0,7.46,9.44c.37.38.76.73,1.14,1.08,4.88,6.33,13.2,11.36,20.26,14.77,5.34,2.58,14.47,4.5,13,12.17-.68,3.53-2.18,6.74-2.62,10.35a44.21,44.21,0,0,0,1,14.09c.41,5,3.87,11.61,8.4,12.43.45.08.94-.51.5-.86a17.3,17.3,0,0,1-1.64-1.46,6.74,6.74,0,0,0,2.32-.76c-.23,3.46-.24,7-.51,10.42a.13.13,0,0,0,.13.13.12.12,0,0,0,.13-.13h0a42.69,42.69,0,0,0,1.56-7.76.32.32,0,0,0,.19-.07c3.36-2.86,7.26-7.21,7.47-11.9a41.12,41.12,0,0,0,1.12-6.61c.59-6.16-1.08-12.91.56-18.9,2.55-9.32,18.15-11.37,25.8-14.6,8.44-3.56,16.63-8.46,22.68-15.42a28.7,28.7,0,0,0,5.33-9.19,6.19,6.19,0,0,1,.4,2.08c0,.35.49.33.53,0a7.25,7.25,0,0,0-.5-3.35,13.84,13.84,0,0,0,.4-1.69c1.05,1.87,1.77,3.73.94,6.14-.1.29.35.4.45.12a8.49,8.49,0,0,0-1.19-7.78,18.41,18.41,0,0,0,.06-2.78,18.51,18.51,0,0,1,3.06,8.67.18.18,0,0,0,.36,0A20.74,20.74,0,0,0,161.3,226a.44.44,0,0,0,.17-.32c.07-.51.15-1,.2-1.48,6.57,5.65,4.9,13,4.21,21.17-.64,7.35-.51,15.07,4.22,21.13a.34.34,0,0,0,.56-.33,38.86,38.86,0,0,1-1.32-4.51c1.78-1.52,3.5-3.11,5.27-4.63.14-.13-.06-.33-.21-.21-1.78,1.46-3.41,3.07-5.12,4.61-.13-.57-.25-1.14-.35-1.71h0a56.08,56.08,0,0,1,5.14-4.48c8,3.53,21.88,5,25.1,6.76a.27.27,0,0,0,.27-.47h0c-3.83-2.85-8.7-4.23-13.13-5.87-3.57-1.33-12.8-3.25-14.34-7.35a1.91,1.91,0,0,0-.62-.84c.11-.55.19-1.1.26-1.58a47.21,47.21,0,0,0,.49-6.93,17.91,17.91,0,0,0,.09-2.93,1.87,1.87,0,0,0-.09-.46v-.85a4.36,4.36,0,0,0,4.62-.89c2.49-2.17,4.17-4.54,7.66-5.36a5.31,5.31,0,0,0,3.46-2.15c4.24-6.24-1-17,5.51-21.07,1-.08,1.78-.13,2.2-.19,10.24-1.41,8.16-11,5.2-20.19-.08-.25-.16-.5-.25-.76-1-3.17-2.13-6.27-2.84-9a.73.73,0,0,0,.79-.25c3.34-4,8.12-7.37,9.08-12.73.5-2.73-.74-5.74-1.4-8.32a16.2,16.2,0,0,1,1-10.9c2.36-5.49,4.42-10.91,2.82-16.91a14.52,14.52,0,0,0-4.38-6.79C204.44,116.46,204.75,113.57,206.55,110ZM25.23,216.3a3.29,3.29,0,0,0-2.68,0c-3.6,1.09-3.08-3.54-3.07-5.76,0-4.26,1.19-10.36-3.36-12.5.56.07,1.13.13,1.7.16a.32.32,0,0,0,.17.31c6.67,3,2.21,9.1,4.86,14.11,1.48,2.78,5.57,3,7.63,4.8l-.26.17a21.44,21.44,0,0,1-3,2C26.71,218.34,26.28,216.91,25.23,216.3Zm22.6-88a9.18,9.18,0,0,1,.57-2c.35,1.59.53,3.16-.62,4.41A11.66,11.66,0,0,1,47.83,128.35ZM59,83.46,57.39,83a.33.33,0,0,0-.14,0c.13-.25.26-.5.4-.74a7.13,7.13,0,0,0,1.24.74C59,83.17,59,83.32,59,83.46Zm-1.17-1.53.59-1.09c.07.51.17,1,.28,1.5C58.41,82.21,58.13,82.07,57.84,81.93Zm.44-2.34-.21.32c.07-.2.13-.4.19-.61C58.27,79.4,58.27,79.49,58.28,79.59ZM57.17,83.2a.19.19,0,0,0,.12.18c.55.23,1.11.41,1.67.59l.26.1a14.18,14.18,0,0,0,.7,1.59,26.3,26.3,0,0,1-3.23-1.51C56.85,83.83,57,83.51,57.17,83.2Zm3.28,3.37a10.44,10.44,0,0,0,.65.94c-1.63-.76-3.47-1.08-5.13-1.83.19-.42.38-.84.59-1.26A13.36,13.36,0,0,0,60.45,86.57Zm1.32,1.74a.75.75,0,0,1,.12.14,11.66,11.66,0,0,0,1.28,1.16h-.12c-2.85,0-5.31-1.18-8-1.79.25-.61.5-1.22.78-1.83A26.54,26.54,0,0,0,61.77,88.31ZM54,90.7c5.63,1.45,11.34,3.4,17.2,3.48A.14.14,0,0,0,71.3,94a.15.15,0,0,0-.15-.15c-5.87-.52-11.42-2-17.14-3.36.28-.82.59-1.65.92-2.47,1.91.61,3.76,1.59,5.72,1.85,1,.13,2.05.09,3.05.15,4.67,3.41,11.54,4.14,17,4.08,9.76-.12,19.42-5,29-.79a63.83,63.83,0,0,1,6.71,4c.85,1.9,4.37,2.63,6,3.09a22.22,22.22,0,0,0,3,.63c-5.86-.41-12.23-3.39-16.88-5.35-.11,0-.21.11-.1.16,5.53,2.43,14,7.22,20.72,6.13-5.14,1.83-11,.16-16-2.54-.1-.06-.19.1-.09.16,6.1,3.68,14.16,6.11,20,1.36h.05a9.57,9.57,0,0,1-2.77,3c-2.63,1.63-6.21.8-9,.32-.12,0-.17.16,0,.19,3,.7,5.69,1.31,8.69.42a7.36,7.36,0,0,0,3.83-3.46V102a13.17,13.17,0,0,1-.25,1.75c0,.09.12.11.17,0a3.09,3.09,0,0,0,.47-1.54,2.61,2.61,0,0,0,.76,1.21h.07a7,7,0,0,0-.41-1.32v-.16a4.42,4.42,0,0,0,1.2,1,.08.08,0,0,0,.1-.06.11.11,0,0,0,0,0,12.45,12.45,0,0,0-.86-1.09h.07a.71.71,0,0,0,.39.12,1.62,1.62,0,0,0,1,.49c.08,0,.13-.11.07-.16s-.33-.31-.49-.48l.15-.11a3.14,3.14,0,0,0,.51.39.17.17,0,0,0,.23,0,44.56,44.56,0,0,0,8.38,4.45,30.24,30.24,0,0,0,13.3,2.1,8.5,8.5,0,0,1,5.71,1.63,19,19,0,0,0-3.79.91.07.07,0,0,0,0,.08l0,0a24.33,24.33,0,0,1,4.15-.71h0a11.7,11.7,0,0,1,1.73,1.79,21.28,21.28,0,0,0-2.59.64.09.09,0,0,0-.1,0,.08.08,0,0,0,.05.1h0c.89-.24,1.85-.25,2.73-.54a15.56,15.56,0,0,1,1.17,1.85c-.6.16-1.2.31-1.79.49a.14.14,0,0,0,0,.18.14.14,0,0,0,.11.06c.63-.12,1.25-.27,1.87-.42a19.37,19.37,0,0,1,1.2,2.91.8.8,0,0,0-.89,0c-.24.17,0,.57.23.4s.48-.06.72,0h.06a30.61,30.61,0,0,1,.91,14.1,13.33,13.33,0,0,0-.21,1.39,1,1,0,0,0-.07.15c-.17,1.2-.29,2.41-.34,3.62-.14.87-1.45,1.62-1.75,2.52-.94,2.78.12,4.44,1.07,7.06a.52.52,0,0,0,.64.36.51.51,0,0,0,.36-.64c-.24-1-.55-2-.78-3-.49-2.15.71-3.23,1.9-4.71a3.4,3.4,0,0,0,.69-1.71l1.06.16h0c-.09.16-.17.33-.27.49a22.73,22.73,0,0,0-1.36,2.1,4,4,0,0,0-.08,4.06c.09.19.41,0,.34-.14-.69-1.76.44-3.25,1.42-4.58a11.06,11.06,0,0,0,1.2-1.75,1.92,1.92,0,0,1,1.26.84h-.17c-1.84.32-3,3.75-2.48,5.49a10.2,10.2,0,0,0-1,1.68,5.43,5.43,0,0,0-.41-.84c-.2-.38-.39-.78-.56-1.19s-.15-.68-.3-1a.17.17,0,0,0-.23-.07.23.23,0,0,0-.07.07c-.35.51-.09,1.17.13,1.68s.4.88.61,1.31.26.65.44,1c-.1.27-.21.55-.32.83a7.81,7.81,0,0,0-.34,1.26,9.74,9.74,0,0,1-.54-1.33.16.16,0,0,0-.2-.12.2.2,0,0,0-.13.12,5.64,5.64,0,0,0,.36,2.41,8.37,8.37,0,0,0,.48,1c0,.27.1.54.17.8a15.35,15.35,0,0,1-4-7.57.19.19,0,0,0-.25-.12.21.21,0,0,0-.14.18,15.39,15.39,0,0,0,1.82,6.94c1.67,3.07,5.82,5.71,5.42,9.31-.11.38-.21.75-.29,1.13-.06.16-.11.33-.19.5a.93.93,0,0,0,0,.73c-.19,1.4-.24,2.71-.31,3.2-1.09,8.19-2.87,16.33-3.43,24.55-.7,2.41-1.29,4.84-1.75,7.3a.61.61,0,0,0,0,.27c-2.12,8.24-5.52,16.18-11.94,22-3.27,3-7.55,4.33-11.76,5.74.45-.26.88-.56,1.29-.85.11-.08,0-.26-.11-.19-.74.44-1.55.74-2.29,1.18a.2.2,0,0,0-.06.26c-.26.09-.53.17-.79.27-.33-.4-.64-.81-1-1.17a.09.09,0,0,0-.11,0,.11.11,0,0,0,0,.08c.33.36.61.75.92,1.13l-.73.26a8.72,8.72,0,0,0-1.07-1.29c1.1-.93,2.22-1.82,3.23-2.86,0,0,0-.13-.07-.1-2.82,1.88-6.77,3.89-8.63,7h-.1c-2.31,1.89-4.44,3.66-6.72,5.18a32.23,32.23,0,0,1-7.16,2.82,40.77,40.77,0,0,1-6,1.17c-1.33,0-2.64.15-4,.26a71.67,71.67,0,0,0-8.42-.34c-.94-.13-1.87-.27-2.8-.42-8.18-2.24-18.25-3-24.11-9.11-4.35-4.54-5.78-10.57-10.86-14.66-.14-.11-.34.08-.2.21a18.11,18.11,0,0,1,2.72,3.46c-.49.4-.82.87-1.57.76-.23,0-.33.31-.1.35a2.24,2.24,0,0,0,2.06-.46,2.79,2.79,0,0,1,.19.33,3.56,3.56,0,0,0-1.38.77.23.23,0,0,0-.08.17c-2-1.85-4.17-3.59-6.18-5.31-1.57-2.17-3.31-4.19-4.78-6.43-2.39-3.64-3.71-7.95-4.84-12.11a.1.1,0,0,0-.14,0,.11.11,0,0,0-.07.11c.89,3.91,1.69,7.71,3.46,11.33a19.49,19.49,0,0,0,1.39,2.34l-.93-.94a59.53,59.53,0,0,0-3.62-5.09q-.78-1.08-1.53-2.16c-.58-1-1.16-1.91-1.71-2.89a19.88,19.88,0,0,1-1.26-2.78,63.44,63.44,0,0,1-1.25-19.58A93.54,93.54,0,0,0,45,163.43c.77-1.76,2.28-2.77,3.24-4.54,1.25-2.33-.2-5.23-.61-7.57,0-.21-.33-.15-.35,0-.18,3.11,1,6-1.54,8.45-.2.19-.38.38-.56.57h0a5.83,5.83,0,0,0,.73-2.41c.2-2.23-.08-4.49.31-6.7.34-1.94,1.45-3.84,2.15-5.66,1.39-3.6,1-7.15.2-10.82-.28-1.15-.51-2.31-.68-3.49a.18.18,0,0,0,.17-.06c1.89-1.56,1.4-3.72,1.23-5.79.9,2.61,2,5.76-.33,7.12-.21.12-.06.38.15.35a2.64,2.64,0,0,0,2.55-2.75v-.07c.44,1.8.21,3.46-2.3,4.63-.4.18-.11.88.31.72a4.78,4.78,0,0,0,3.48-5,14.61,14.61,0,0,0-.79-3.91,20.23,20.23,0,0,1-.65-4.17.2.2,0,0,0,.24.15.14.14,0,0,0,.11-.07c1.31-1.37.27-3.41-.22-5.09a29.08,29.08,0,0,0,0-5.9A49.35,49.35,0,0,1,54,90.7Zm110.17,16.19a8.4,8.4,0,0,0-1.75-.8,4.25,4.25,0,0,0,1.66-.3,2.34,2.34,0,0,0,.73-.43c.56-.45,2.07,2.32,2.25,2.64a19.41,19.41,0,0,1,1.12,2.35A17.24,17.24,0,0,0,164.12,106.89Zm9.16,35.87a7.84,7.84,0,0,1,.5-1.84,14,14,0,0,1,1.63-2C175.41,140.17,174.05,141.86,173.28,142.76Zm1.82,11.3c0,.33-.11.67-.18,1l-.11-.16c-2.15-3-2.53-5.24-1.66-7.69a5.65,5.65,0,0,0,.85,2.46,6.14,6.14,0,0,1,1.1,4.39Zm11.67,18.27a4.68,4.68,0,0,0,2.4-.63c4.08-1.6,4.85,1.21,5.75,3.67.13.36.25.73.37,1.09a5.35,5.35,0,0,0-5.68-.33c-2,1.06-4.36,2.76-6.14.22-.4-.58-.21-2.4-.71-2.88s-.64-.57-1.24-.33c-1.46.56-3.26-7.5-3.87-8.69-.1-.19-.38,0-.29.16,1.45,3,1.43,6.39,2.88,9.41a.29.29,0,0,0,.35.14c2.27-.8,1.94,6,4.59,5,3.34-1.22,5.52-3.65,9.35-1.8a8,8,0,0,1,1.34.84l.15.42a47.86,47.86,0,0,0,1.84,7.67,15.6,15.6,0,0,0-1.39-1.43.46.46,0,0,0-.6,0c-2.26,2.29-3-1.93-4.46-2.82-1.67-1-4-.07-5.46.87a5.08,5.08,0,0,0-1.18,1.35c-1.09,1.57-3.35-3-3.76-3.76-2.24-4-3.7-8.43-5.38-12.67.37-1.79.75-3.56.94-5.34a6.93,6.93,0,0,1,.16,1,.45.45,0,0,0,.52.38.45.45,0,0,0,.37-.38,12.49,12.49,0,0,0-.32-3.6,4.65,4.65,0,0,0,3.65,1.5c7.31-.21-.32,9.79,5.82,10.94Zm-16.36,22.46-.83.73.12-.62A3.39,3.39,0,0,0,170.41,194.79Zm2-16.42a32.81,32.81,0,0,0,3.89,3.84h.08c.13.23.25.47.36.7l-.57-.43a13.36,13.36,0,0,1-3.88-3.65Zm3.3,2.69c-1.06-1-2.23-1.89-3.22-3,.09-.37.19-.75.28-1.13a18.13,18.13,0,0,0,2.89,4,.2.2,0,0,1,.08.13Zm-2.72-5v-.13c.12.32.26.63.4.93-.13-.25-.26-.51-.37-.78Zm-.82,3.26a11.56,11.56,0,0,0,2.3,2.67l.29.26c-1.15-.65-2.24-1.22-2.91-1.7.1-.39.24-.8.35-1.21Zm-.43,1.68c1.86,1.79,5,2.89,5.91,5.26a4.39,4.39,0,0,1-.31,1.53,34.18,34.18,0,0,1-4.16,3.34c-1,.66-2.22,1.27-3.23,2.05a14.4,14.4,0,0,0,.08-3.88v-.05c.42-2.75,1.05-5.49,1.74-8.26Zm-3.58,17.35a.63.63,0,0,0,.55-.11c1-.7,2-1.42,3-2.15A24.1,24.1,0,0,1,167.8,200c.15-.54.29-1.08.39-1.63Zm18.27,17.34c-1.8,4-7.25,2.1-10.62,2.63s-4.42,4.83-8.3,3.92a9.59,9.59,0,0,1-2-1,1.24,1.24,0,0,0-.21-.83c4.67-4.9,12.29-3.31,17.62-7.57,1.43-1.14,2.92-3.1,2.48-5-.24-1.11,1.38-1.75,3.42-2.14v.14a33.57,33.57,0,0,1-2.36,9.87Zm-87.14,93a7.77,7.77,0,0,0-1.72-.52v-.78a.6.6,0,0,0,.14-.21.85.85,0,0,0,.08-.24,5,5,0,0,0,2.19.7ZM41.6,184.19h0a.1.1,0,0,0-.1-.1.11.11,0,0,0-.1.1h0a17.66,17.66,0,0,1-.45,3.7c0-1.65.35-3.35.35-5.06.1.42.2.85.32,1.27C41.62,184.14,41.62,184.17,41.6,184.19Zm-3.79-17.32a14,14,0,0,1,2.47-1.18c.92-.31,2.21-.42,3.2-.86a.64.64,0,0,0,.34.14v.43c-2-.18-4.35,1-6.2,1.75Zm30.92,54.49h0a1.67,1.67,0,0,0-.9.19c-.22-.23-.43-.46-.66-.69.3-.06.6,0,.93-.09a.23.23,0,0,0,.16-.29.24.24,0,0,0-.06-.11,1,1,0,0,0-1.38.15l-.62-.58a.15.15,0,0,0,.13,0c.22-.12.44-.24.67-.34a3.92,3.92,0,0,1,.74-.22c.33.61.66,1.31,1,2Zm2.5,5.12c.08.16.17.32.26.48l-.47-.33A.41.41,0,0,0,71.23,226.48ZM70,224a21.23,21.23,0,0,0-1.59-1.89h.22a1.38,1.38,0,0,1,.65.29c.24.53.49,1.05.74,1.58Zm-.77,1.43-.23-.13c-2.71-1.68-5.34-3.49-8.06-5.17-.1-.06-.18.09-.09.15a61.68,61.68,0,0,1,7.5,5.86c1.91,1.76,3.58,3.7,6,4.83h.11a10.12,10.12,0,0,0,1,.94,18.1,18.1,0,0,0,6.93,3.53c8.56,4.63,18.88,6.16,28.62,5.26a33.56,33.56,0,0,0,10.52-.86,20.67,20.67,0,0,0,5.9-2.51,17,17,0,0,0,4.65-2.81c2.64-2.08,5.42-3.58,8.23-5.38l.06,0c3.65-.7,6.8-.29,8.1,3.9v.1a5.9,5.9,0,0,0-5-3.21v.07c4.22.24,5.35,4.79,4.39,8.26-.17.37-.34.74-.49,1.11-.35.41-.71.82-1.08,1.22,1.94-2.89,2.34-6.09-.91-9a.06.06,0,0,0-.07,0s0,.06,0,.07h0c3.36,3.2,2.25,6.39-.33,9.21a6.79,6.79,0,0,0,0-7.16c0-.09-.17,0-.13.07,3.46,6.72-4.14,10.5-9.75,13.57l-1.59.53a54.36,54.36,0,0,0,1-6.85A25.81,25.81,0,0,0,141,233c.09-.18-.14-.39-.28-.22-3.75,4.63-8.86,7.6-13.39,11.37-3.39,2.81-6.17,6.07-9.49,8.78-8.18,2.25-16.46,3.25-25.61.5-7.43-2.24-14.09-6.61-21.3-9.43l-.92-.36a.76.76,0,0,0-.21-.44c-2.67-2.93-4.66-6.82-6.78-10.17-1.16-1.82-2.23-3.68-3.25-5.57-.08-.27-.14-.55-.23-.82a.08.08,0,0,0-.07-.07.08.08,0,0,0-.07.07h0a.48.48,0,0,1,0,.17A80.21,80.21,0,0,1,55.76,219c-.12-.32-.63-.19-.52.14a84.9,84.9,0,0,0,4.55,10.5c.21,1.68.38,3.35.43,5.06,0,.18.2,2.25.31,3.75a36.17,36.17,0,0,1-7.11-5A39.69,39.69,0,0,1,47.1,222c0-.63-.06-1.28,0-1.93.54-1.53.85-3.23,1.39-4.6a7,7,0,0,1,2.17-3.34,2,2,0,0,1,1.49-.33c-2.49,1.82-3.49,6.26-4.73,8.66-.1.18.17.34.27.16.87-1.6,1.53-3.31,2.38-4.92a6.18,6.18,0,0,1,3.76-3.35,3.21,3.21,0,0,0,1.06.2.48.48,0,0,0,.18-.06l.45.39a16.57,16.57,0,0,0-2.07.54,5.26,5.26,0,0,0-2.5,2.23c-.07.11.1.24.19.14a5.59,5.59,0,0,1,2.69-2,16.21,16.21,0,0,0,.83,3.22.1.1,0,0,0,.1.1.09.09,0,0,0,.1-.1c-.18-1.1-.51-2.17-.63-3.28.6-.14,1.23-.21,1.85-.3l.3.25c4,4,8.41,8.06,12.79,11.77Zm70.54-.19a9.08,9.08,0,0,1,.76,1,2,2,0,0,1,.16.28l-1.35.54a9.36,9.36,0,0,1-.51-1c.3-.25.62-.52.93-.8Zm4.85,1.92a.35.35,0,0,0,.28.11c1.06,0,1.8-.3,2.77.3a5.43,5.43,0,0,1,1.23,1.06,4.65,4.65,0,0,1,1,3.64c-.53-2.63-2.19-4.89-5-4.64-.08,0-.08.12,0,.11,2.94-.07,4.12,2.86,4.23,5.74a10.48,10.48,0,0,0-.57-1.86c-1.47-3.63-4.73-3.71-7.9-2.86l3.95-1.58Zm.48,17.64a.78.78,0,0,0-.37-.32l.68-.36a1,1,0,0,0,.08.11,1.8,1.8,0,0,1-.26.29.69.69,0,0,0-.14.3ZM90.18,304.22l.28.06a.79.79,0,0,0,.24.21l.44.21h-.09A3.91,3.91,0,0,1,90.18,304.22ZM40.67,218.59a9,9,0,0,1,.57-1.58h.06a30.06,30.06,0,0,0-.48,3.52c-.09-.47-.18-.94-.25-1.43C40.61,218.93,40.63,218.76,40.67,218.59Zm20.22,16.07a32.44,32.44,0,0,0-.38-3.66c.2.37.39.75.59,1.13.06.1.11.22.17.33.2,2.13,0,4.44.39,6.58l-.34-.18c0-1.39-.37-2.94-.43-4.2ZM133,250l.45-.19-.09.08Zm10.74-5.5h0Zm-12.1,3.93a16.67,16.67,0,0,0,.35-5.32c.76-.64,1.52-1.29,2.27-2-.31,2.3-.77,4.54-1.23,6.8Zm0-5a20.91,20.91,0,0,1-.62,5.23l-1.21.42c0-.41.07-.78.07-1a30.91,30.91,0,0,1,.11-3.19Zm-2.32,5a4.51,4.51,0,0,1-.07.89l-.75.26v-3.25c.37-.35.74-.7,1.12-1-.17,1-.28,2.07-.35,3.1Zm-1.31.07a12.25,12.25,0,0,1-.13,1.29l-1.33.46a2.36,2.36,0,0,1,.16-.62,6.49,6.49,0,0,0,.26-1.81c.34-.36.69-.71,1-1l.07-.07c0,.55,0,1.15,0,1.75Zm-2.17,2-2.12.71c.94-1,1.86-1.94,2.78-2.9a18.06,18.06,0,0,1-.71,2.19ZM96,263.79c-.14-.27-.28-.54-.43-.81,4.65,1.43,8.94.28,13.22-1.71C105,264.16,101.27,265.13,96,263.79Zm8.52,10.84-.18-.31q.28-.56.6-1.08c-.06.24-.13.48-.2.73s-.2.43-.26.66Zm-.73,2.26-.48,1.47-.41-.41.36-1.11a1.17,1.17,0,0,0,.49.05ZM47.35,229.32c-3.79-5-5.18-11.24-1.92-16.84C43.14,217.33,44.48,224,47.35,229.32Zm14.54,13a1,1,0,0,0,0-.64c1.3.74,2.62,1.44,4,2.11l.2.09a18.5,18.5,0,0,0-3.64-1.28Zm-12.47-9.71c.38.52.78,1,1.18,1.5a38,38,0,0,1-8.17-8.29,16,16,0,0,1-.74-4.07,13.9,13.9,0,0,1,.51-4.05c-.36,5.5,2.54,10.88,7.22,14.92Zm9.43,7.45-.11.12c-.34-.27-.69-.53-1-.79a9.93,9.93,0,0,0,1.11.68Zm5.63,5.21.34.2c4.25,2.57,8.16,7,11.07,10.25.23.25.47.54.73.84a93.39,93.39,0,0,1-7.54-6.4c-1.57-1.65-3.08-3.31-4.65-4.92Zm14.61,8.59a38.41,38.41,0,0,1,5,5.36c-2.62-1.7-4.93-4.53-7.12-6.94.73.51,1.44,1,2.12,1.59Zm14.74,6.19c.36.43.74.86,1.15,1.27l-.45-.08Zm4.42,1.38c-.62-.29-1.25-.55-1.83-.89-.85-.49-1.68-1-2.48-1.54a23.78,23.78,0,0,0,7.58,1.93,18,18,0,0,1-3.27.51Zm-5-2.34V259c-.09-.15-.2-.28-.29-.42l.62.25a.45.45,0,0,0-.33.27Zm-2,2.41c-1.2-1.19-2.44-2.35-3.55-3.62s-2.3-2.7-3.52-4c3.15,1.65,5.33,4.55,7.09,7.63Zm-12.93-2.93.87,1-.94-.39a1.51,1.51,0,0,0,.09-.6Zm12.88,8.34c2.47,1.35,4,3.87,5.56,6.36A26.5,26.5,0,0,0,92,268.44l-.28-.56a.54.54,0,0,0-.71-.26,10.2,10.2,0,0,0-1.17-1.47l1.43.77Zm11.24,9.42c-.12.28-.24.56-.35.85-.42-.49-.82-1-1.19-1.52a3.39,3.39,0,0,0,1.27.38Zm-4.33,27.14,0-.07h.06s0,.06,0,.08Zm-5.26-24.92a56.19,56.19,0,0,0,3.28,4.6,13,13,0,0,1-2.92-1.71h0a8.05,8.05,0,0,0-.34-2.88Zm9.12,5.07h0a26.89,26.89,0,0,1,.22-2.68l.26.18a19.9,19.9,0,0,0-.5,2.51Zm-8.66-6.85a1,1,0,0,0,.24-.41c.32.7.67,1.38,1,2.05-.38-.53-.8-1.08-1.22-1.63Zm-.5,17a15.17,15.17,0,0,0,7.34,2,6.87,6.87,0,0,1-1.22.67,13.06,13.06,0,0,1-2.65-.74,20.31,20.31,0,0,1-2.23-.89l-1.22-1Zm-2.28-5.94a6.36,6.36,0,0,1-.92-.57,14.69,14.69,0,0,0,1.14-3.9l.3.25c-.1,1.43-.29,2.83-.5,4.25Zm.68-7v1.27L91,282a8.88,8.88,0,0,0,.28-1.13Zm10.43,13.65c-.19.21-.38.4-.57.58A15.24,15.24,0,0,1,92,292.87a.21.21,0,0,0-.25.08c-.16-.12-.32-.24-.48-.34a1.76,1.76,0,0,1,.13-.43c3.27,1.72,6.62,2.89,10.39,2.28ZM94.07,291c1.46.44,3,.81,4.43,1.27A14.69,14.69,0,0,1,94.07,291ZM92,284.31h0a.43.43,0,0,1-.08.3Zm.07-1.63a32.46,32.46,0,0,0-.19-4.4,1,1,0,0,0,.47-.11,9.43,9.43,0,0,1,0,4.72Zm1.11.23a2.32,2.32,0,0,1,.07-.69,12.93,12.93,0,0,0,4.46,3.44,30,30,0,0,1-4.6-2.32,1.57,1.57,0,0,1,0-.43ZM98.77,286l.15.13-.46-.14c-.24-.08-.47-.18-.7-.28A5.27,5.27,0,0,0,98.77,286Zm2.49-5.81a15.58,15.58,0,0,0-.23,2.35l-.26-.27a33,33,0,0,1-3.55-4.58,77.44,77.44,0,0,1-5-8.49c1.82,1.89,2.81,4.42,4.51,6.45a34.78,34.78,0,0,0,4.53,4.55Zm-7,8.29a8.2,8.2,0,0,0,1.43,1.07,26.27,26.27,0,0,1-3.46-1c.24-1.23.43-2.46.61-3.64a31.44,31.44,0,0,0,10,4.59c.06.38.11.75.16,1.13-2.87-.78-6-.59-8.53-2.45-.2-.06-.38.18-.25.31ZM90,278.05c-.08.51-.17,1-.28,1.51a4,4,0,0,0,0-.49C89.77,278.73,89.87,278.39,90,278.05Zm14,16.14a1.32,1.32,0,0,0-.53-.11,1,1,0,0,0,.56-.47Zm-12.8-37.91a12.3,12.3,0,0,0-1.23-1.16H90a35.52,35.52,0,0,0,6.6,1.9c-1.85-.25-3.69-.58-5.52-.74Zm-8.53-4c-.32-.29-.65-.56-1-.83l2,.92c-.37,0-.67,0-1-.05ZM68,244.87c-.56-.33-1.13-.63-1.7-.91l2.48,1.21Zm-2.43-3.73c0-.29-.08-.6-.11-.91l.84,1.32Zm-.61-.33-.53-.29a12.43,12.43,0,0,0-.18-2.43c.22.41.44.81.67,1.21a.38.38,0,0,0,0,.15,7,7,0,0,0,.08,1.36Zm-1.08-.59-.51-.27c0-.67-.13-1.33-.15-2s0-1.23,0-1.85c.24.46.47.91.72,1.37a.14.14,0,0,0,0,.09,16.86,16.86,0,0,1-.06,2.66ZM62.72,238v1.66l-.37-.2c-.28-2-.27-4.16-.67-6.17l1.13,2.19A21.23,21.23,0,0,0,62.72,238Zm-16.86-5.46a32.2,32.2,0,0,1-2.06-3.39c3.83,5.29,9,9.8,13.68,14.13a29.67,29.67,0,0,1,2.07,2.13c-5.73-2.92-10.06-7.68-13.69-12.9Zm13.86,14a.39.39,0,0,0,.51-.21.29.29,0,0,0,0-.09c.39.46.79.92,1.18,1.39-.87-.48-1.74-1-2.59-1.47a6.62,6.62,0,0,1,.88.31Zm44.11,27.3a1.48,1.48,0,0,0-.3-.25,1.66,1.66,0,0,0-.46-.15,8.71,8.71,0,0,0,1.24-.33,2.73,2.73,0,0,0-.48.66Zm-6.62-7.53a.5.5,0,0,0-.08-.14,9.77,9.77,0,0,0,8.61.4,10,10,0,0,1-1.58.77,10.17,10.17,0,0,1-6.27.12c-.23-.46-.47-.83-.68-1.22Zm16.16-4.5a.48.48,0,0,0,0-.17c2.71-2.3,5.25-4.88,7.55-6.89,1.47-.48,2.94-1,4.4-1.55a.19.19,0,0,0,.24.12.16.16,0,0,0,.12-.12v-.1l2.35-.92c-5.4,2.85-10,7.17-15.1,10.59.18-.42.32-.71.44-1Zm23.3-11.46a.93.93,0,0,0,.26-.41,38,38,0,0,1,3.53-2.08l.42-.18c-1,1.34-2.1,2.62-3.19,3.86-2.35,2.73-5.15,5.47-8.67,6.51,2.69-2.56,5.17-5.36,7.65-7.77Zm12.71-24.87h0l-.26-.09L150,225a3.81,3.81,0,0,0-.57.41Zm-10.84.89h0a9.7,9.7,0,0,0,.41.93c-.51.21-1,.45-1.5.69a2.46,2.46,0,0,0-.22-.25c.41-.5.85-1,1.31-1.44Zm-1.37,1.46c0,.07.09.14.13.22-.19.09-.36.2-.55.3ZM42,179.34a18.25,18.25,0,0,0-1.5-2.31,13.8,13.8,0,0,1,1.5,1.66ZM40.83,181c.16.55.28,1.11.41,1.66a.12.12,0,0,0-.17.06s0,0,0,0a12.84,12.84,0,0,1-.46,2.3C40.66,183.65,40.82,182.3,40.83,181Zm15.84,64a.25.25,0,0,0,0,.34l0,0c2.83,2.23,5.65,4.56,8.58,6.73l1,1.11a41.22,41.22,0,0,1-4.38-3.09c-2.62-2.12-5.12-4.26-7.44-6.48A23,23,0,0,0,56.67,245ZM98.2,306.4a3,3,0,0,1,.72-.56,3.45,3.45,0,0,1,1.48-.31,9,9,0,0,1,.91.11l-.32.58c-.06.11-.14.21-.21.32a3.22,3.22,0,0,1-2.58-.12Zm5.1-35.6a4.51,4.51,0,0,1-2.85.63c-.34-.62-.72-1.23-1.11-1.83a10.64,10.64,0,0,0,5.43.1,8.92,8.92,0,0,1-1.47,1.12Zm8.57-6.12c3.33-.95,6.17-3.1,9-5.11,2.31-1.64,4.74-3.21,7.2-4.7a41.55,41.55,0,0,1-5.19,4.64c-3.07,2.22-7.46,4.85-11.55,5.9a5.27,5.27,0,0,0,.54-.71Zm16-5.65a.4.4,0,0,0,.27.11,8.13,8.13,0,0,0,1.56,0c-1.23.49-2.46,1-3.68,1.42.58-.49,1.2-1,1.8-1.51Zm10.23-4.61a46.39,46.39,0,0,0,4.84-5.36c.91-1.12,2.25-2.29,2.25-3.79a.49.49,0,0,0,.68.2l.06,0c.4-.28.78-.58,1.15-.88h0c-.06.4-.13.8-.2,1.2a40.62,40.62,0,0,1-8.16,8.4c-.26.2-.13.67.22.58-1.07.59-2.14,1.16-3.24,1.69.8-.61,1.6-1.29,2.35-2Zm44.58-48.2c0,.07-.05.14-.07.2a7.47,7.47,0,0,1-2.35-.25,5,5,0,0,0-2.77.22c-2.25.87-1.71,4.55-4.48,4.52a.14.14,0,0,0,0,.28c3.25.51,3-4.31,6.4-3.68a22.48,22.48,0,0,0,3.23.55c.42,2.54-2.66,4.13-4.64,4.89-5.31,2.05-11.65,1.42-14.91,6.6-.83-.09-1.67-.1-2.5-.17h0a.3.3,0,0,0-.07-.1,11.53,11.53,0,0,1,.64-1.2c.58-.9,1.32-1.69,1.93-2.57.12-.18-.16-.33-.28-.17a31.29,31.29,0,0,1-2.47,2.8c-.14.15-.3.32-.46.51a.92.92,0,0,0-.57,0,26.57,26.57,0,0,0,3.52-4.65c3-.88,5.64.44,8-2a4.3,4.3,0,0,0,1-2.16c1.2-4,4.17-5.07,7.8-5a37.46,37.46,0,0,0,4.16-.15,4.69,4.69,0,0,0-1.21,1.55Zm-131-84.13c0-.63-.07-1.27-.11-1.9a.58.58,0,0,0,.15-.25,3.09,3.09,0,0,1,0,2.12l-.09,0Zm-14.4,45.47h.06c1.23-.2,2.46-.44,3.67-.73.89-.22,1.81-.27,2.7-.44a1.3,1.3,0,0,1-.05.44c-1.33.23-2.66.51-4,.79-.17,0-.1.28.07.25a8.93,8.93,0,0,1,3.16-.37,2.91,2.91,0,0,0,.64.13c-.35,2.78-.81,5.61-1.19,8.44a8.54,8.54,0,0,0-1.5-1.08,8.8,8.8,0,0,1-3.13-2.62,10.88,10.88,0,0,1-1.36-3.48c.27-.45.57-.89.88-1.31Zm.22,7.17a6.87,6.87,0,0,0,.74.69q.45.72.87,1.47c-.21,1.45-.53,3.89-.64,6.21a29,29,0,0,1-1-8.35ZM38.39,185v.08a3.47,3.47,0,0,0-.2-.5A2.75,2.75,0,0,1,38.39,185Zm.9-2.68c0-1.58.07-3.15.12-4.73.32.62.62,1.25.88,1.87-.31,2.67-1,5.73-.57,8.44l-.31-.5a24.16,24.16,0,0,1-.12-5.1Zm3.27,11a.45.45,0,0,0,0-.23c-.16-.52-.49-.94-.64-1.47a10.39,10.39,0,0,1-.15-2.84h0a24.92,24.92,0,0,0,1,4.78V194l-.34-.19a.41.41,0,0,0,.13-.53Zm4.19,15.16c-.32.2-.63.41-.94.63a1.44,1.44,0,0,0-.25.18,10.54,10.54,0,0,1-1.26.83A20.25,20.25,0,0,1,41,211.55a.78.78,0,0,0-.48-.15,25.6,25.6,0,0,1-6.1-.58c-4-.77-4.53-3.36-4.41-7,.12-3.22-2.75-4.78-5.57-5.65H25a10.93,10.93,0,0,1,7.3,2.33c1.36,1.19,2,3.41,3,4.85,3.33,4.51,5.68,2.81,11,2.53a.67.67,0,0,0,.58-.34,4.11,4.11,0,0,1-.1.94ZM21.43,198.25c3.59,1.8,7.08,3.08,6,8.17-.42,1.92.6,3.62,1.91,4.93a8.82,8.82,0,0,0,5.91,2.28,16.87,16.87,0,0,0-1.82,2.14c-2.18-2-7.4-2.11-8.83-4.17-1.7-2.43-1.06-6.24-1.69-9.06a6.35,6.35,0,0,0-3.76-4.3C19.89,198.26,20.66,198.26,21.43,198.25Zm15.76,17.92a11.72,11.72,0,0,0-2.74,2.16c1.7-3.55,3.29-4,6.45-3.66-.16.25-.31.5-.45.76A5.5,5.5,0,0,0,37.19,216.17Zm3.2,9a42.7,42.7,0,0,0,1.44,5,19.53,19.53,0,0,1-1.44-5Zm37.23,37.62c.66.26,1.32.5,2,.74,2.94,1,7.11,2.16,8.85,5a.67.67,0,0,0,.9.27,12.55,12.55,0,0,0-.08,1.36C87,266.43,81.86,264.6,77.62,262.79Zm12.94,44a5.1,5.1,0,0,0,4-.76,3.27,3.27,0,0,0,.9,1.15,6.06,6.06,0,0,1-1.11.47,18.77,18.77,0,0,1-2.77.82Q91,307.66,90.56,306.79Zm2.76,3.82a16.79,16.79,0,0,1-1.51-1.84,10.06,10.06,0,0,0,3.44-.57c.21-.09.43-.2.65-.32a2.35,2.35,0,0,1,.13.43,2.86,2.86,0,0,1-.08.82A9.47,9.47,0,0,1,93.32,310.61Zm4,1.12c.1-1,.18-1.9.24-2.84l.61.24c.23.08.47.17.71.24-.56.77-1.08,1.55-1.57,2.36ZM109,268.14a.85.85,0,0,0-.11-.26,10.85,10.85,0,0,0,1.24-1h.58A14,14,0,0,0,109,268.14Zm39-19.56c.59-.65,1.16-1.32,1.7-2a1.15,1.15,0,0,0,.27.27l-1,.93C148.6,248.06,148.26,248.31,148,248.58ZM168.33,255c.26-1.09.6-2.16.94-3.24a7.6,7.6,0,0,0,1.91,1.8,11,11,0,0,0-1.06,1.1,15.59,15.59,0,0,0-1.62,2.18C168.43,256.24,168.37,255.63,168.33,255Zm5.34,0a31.13,31.13,0,0,0-4.81,4.29c-.11-.65-.21-1.29-.29-1.93h0a17,17,0,0,0,1.69-2.09,12,12,0,0,1,1.34-1.33A19.24,19.24,0,0,0,173.67,255ZM169,233.47V233l.36.22A1.54,1.54,0,0,0,169,233.47Zm13.17-6.6a5.76,5.76,0,0,0-3,1.65c-2.78,3.31-6.4,4.57-10.34,3.25a13.75,13.75,0,0,0-1.28-4,16.25,16.25,0,0,0,3.63,1.25c1.61.33,4.47.78,6-.22a28.21,28.21,0,0,0,3.63-3c1.91-1.75,4.58-2.16,6.81-3.39.7-.39.09-1.36-.62-1-1.71.75-3.82.89-5.46,1.78a42,42,0,0,0-4.45,3.3c-1.55,1.15-6.94.63-9-1.17h.26c4.84,0,6.85-5,12-4.86,4.45.14,6.66-2.24,7.83-5.48v.53c.06,4.82.56,10.81-6,11.41Zm7.42-20.59v-.42a.33.33,0,0,0-.08-.25l.54-.08c-.17.24-.33.5-.48.75ZM199.6,198a4.38,4.38,0,0,1-.41,1,8.17,8.17,0,0,0-1.31-4.63c-1.88-3-7.56-2.34-8.22-6.07,0-.17-.33-.13-.31,0,.2,1.91,1.6,2.87,3.3,3.56s3.4,1.23,4.6,2.84a5.18,5.18,0,0,1,.07,6.17c-1.93,1.08-4.65,1.19-7,1.4a10.5,10.5,0,0,0,2.7-3.53c1.12-2.26-1.85-2.57-3.3-2.55-2.23,0-4.24,1-5.54-1.38s-2.09-5.1-3.56-7.38c0-.08-.17,0-.13.08,1.33,3.08,1.69,7.12,4,9.68.95,1,8.36-.8,7.17,1.57a7.53,7.53,0,0,1-3.75,3.85l-.31.06c-.41.12-.82.26-1.22.42-3.81.79-8.32-.81-12,1.29a6.84,6.84,0,0,0-3.52,4.15c-1.45,4.45-4.07,3.33-7.29,4,.33-.63.65-1.26.95-1.9a.46.46,0,0,0,.26-.19,11.16,11.16,0,0,0,.93-1.74,4.38,4.38,0,0,0,.65-1.74.21.21,0,0,0-.29-.21,52.69,52.69,0,0,0,1.66-6.06,22.47,22.47,0,0,0,6.22-6.26c1.13-.84,2.23-1.7,3.29-2.59a14.57,14.57,0,0,0-.65,2.91c-.2,1.57-1.38,2.31-2.37,3.17-1.31,1.14-2.12,3-3.34,4.31s-2.87,2.61-4.31,3.88c-.42.37.2,1,.61.61,1.45-1.28,2.93-2.52,4.3-3.89,1-1,2.35-4.1,3.52-4.41,3.55-1,1.88-4.09,2.79-7l.36-.29a.56.56,0,0,0,.21-.47c2.47-2.69,2.76-5.93.53-9.95-2.35-4.24-4.38-7.13-3.34-12.34v-.12c1.19,3.34,2.26,6.74,3.65,10,1,2.3,2.13,6.13,4.48,7.51a1.2,1.2,0,0,0,1.68-.29,1.14,1.14,0,0,0,.1-.19c1.83-2.94,5.24-3,6.8-.14a5.29,5.29,0,0,0,2.33,2.09.51.51,0,0,0,.7-.19c.86-1.39,2-.63,3,.64a1.18,1.18,0,0,0,.1.3C199.47,191.26,200.49,194.65,199.6,198Zm-1.51-83.56c4.52,3.58,8.48,8.66,9.08,14.54s-3.26,11.17-4.71,16.71c-1.15,4.37.81,9.25,1.88,13.41,1.57,6.13-5.17,9-7.1,14.1-.12-.61-.2-1.22-.26-1.85a.2.2,0,0,0,.08-.22,4.8,4.8,0,0,1-.09-1.31,5.51,5.51,0,0,1,.06-.57.13.13,0,0,0,0-.12c.29-3.81,2-10.09-1.23-11.75-1.9-1-3.94-1.13-6-1.66-4.12-1,3.15-6.34,3.71-6.82,2.24-1.94,2.69-4.29.56-6.52s-7-1.16-9.59-.33c-.18.06-.11.34.07.29a16.37,16.37,0,0,1,6.6-.55q4.17.53,2.43,5.86a18.26,18.26,0,0,1-3,2.4c-1.63,1.22-3.57,2.58-3.34,4.81.17,1.76,2.9,2.14,4.14,2.37.7.11,1.39.25,2.08.41,3.63.77,3.38,4.44,2.88,7.34a12.89,12.89,0,0,0,0,5.32c-.15.68-.27,1.35-.36,2a14.22,14.22,0,0,0-1.26-3.3c-1-1.75-3.08-1.4-2.94-3.49.29-4.29-4.47-4.53-6.59-7.4a.13.13,0,0,0-.18,0,.15.15,0,0,0,0,.14c1.93,3.7,7.54,3.36,5.35,8.8a.52.52,0,0,0,.37.64h0a5.37,5.37,0,0,1,3.7,4.15,7.63,7.63,0,0,0-1.16-1.32A2.75,2.75,0,0,0,191,170c-1.1.31-2.12.75-3.19,1.16-3.95,1.56-2.3-4.1-2.21-5.12.16-1.86-.22-5.6-2.79-5.77a14.74,14.74,0,0,0-1.88,0c-4.92.42-2.9-4.91-2-6.84a13.68,13.68,0,0,0,1.3-3.95,4.52,4.52,0,0,1,1.36,1c1.67,1.72,1.09,4.22.14,6.12-.08.14.12.32.24.18a5.65,5.65,0,0,0,.73-6.26,5.13,5.13,0,0,0-2.47-2.33h0a.36.36,0,0,0-.36-.37h-.11l-5.08-2.07a.18.18,0,0,0-.25,0,.19.19,0,0,0-.06.22,6,6,0,0,0,1.8,2.23.53.53,0,0,0,.16.72.48.48,0,0,0,.28.08,19,19,0,0,1,2,.1c1.66,1.39-1.14,5.19-1.87,7.18a4.79,4.79,0,0,0-.26,1.18.23.23,0,0,0-.19-.19c-.11-.22-.23-.45-.36-.67a11.69,11.69,0,0,0,.1-4.75c-.52-2.28-2.59-2.85-2.62-5.26a21.83,21.83,0,0,1,2.35-3.87,5.19,5.19,0,0,0,1-4.85,10.24,10.24,0,0,0-.89-5.56c-.67-1.14-2.29-.25-1.36-3.1a25,25,0,0,0,1.19-6.24.1.1,0,0,0-.2,0,30.55,30.55,0,0,1-1.75,7c-.34.92-.18,1,.2,1.8a.32.32,0,0,0,.1.1c1.25.69,1.34.52,1.61,3.07a9.65,9.65,0,0,1,.06,1.31q-.15-.18-.33-.36c-1.26-1.12-4.14.58-3.32-3.4a52.87,52.87,0,0,0,.85-5.89v-.6c.7-4.34,2.07-8.58,1.55-13-.29-2.42-2.43-4.07-2.67-6.88-.15-1.79-.25-4-1.27-5.58-1.19-1.79-2.41-2-4.42-1.25-7.15,2.68-12.24,8-20.51,4.13-.1,0-.18.1-.08.15,3.83,1.87,7.27,1.8,11.33.68,3.28-.91,11.4-7.45,13.48-2.34.91,2.22.69,4.84,1.1,7.19.35,2,2.1,3,2.36,5,.38,3-.29,6.23-.84,9.36a22.68,22.68,0,0,0-2.41-9.44,27.23,27.23,0,0,0-5.26-9.54.35.35,0,0,0-.45,0,3.46,3.46,0,0,1-3.47,1,.2.2,0,0,0-.22.13.24.24,0,0,0,0,.12c-3.47-.68-7.25.32-10.76-.58a80.09,80.09,0,0,1-11.32-4,40.64,40.64,0,0,0,7.06.19c3.22-.1,7.53-.46,9.56-3.3.11-.15-.13-.33-.24-.2-3.75,4.43-12.44,3-18.16,1.47a26.17,26.17,0,0,0,15-8.61c.19-.23-.15-.56-.33-.33-5,6.35-11.45,7.26-18.49,7.78A16.08,16.08,0,0,0,128,98c-2.71-.2-5.45,0-8.09-.79-3.77-1.14-6.81-4.62-10.33-6.41-6.62-3.37-14.38-2-21.42-1.11C81,90.75,73.75,91.09,67,87.85c-7.81-3.7-6.23-14.17-9.12-21.07a.42.42,0,0,0-.08-.12l.06-1.21a.38.38,0,0,0-.36-.42h0a5.13,5.13,0,0,0-.1-.65h.08c.69-1,1.86-2.82.6-4a4.09,4.09,0,0,0-1.85-1.19c-1.9-.55,1.49-3.63,1.75-4.19a2.63,2.63,0,0,0-.48-3,3.1,3.1,0,0,0-2.09-1c-4.32-.78-1.62-6.19-.34-8.35a.14.14,0,0,0,0-.21.16.16,0,0,0-.21.05c-1.07,1.71-4.12,5.91-1.89,8,1.08,1,6.59,2,4.23,4.7a10.54,10.54,0,0,0-2.57,4,.37.37,0,0,0,.26.46h0c2.46.2,3.21,1.63,2.3,4.26A.14.14,0,0,0,57,64v.14a.19.19,0,0,0,0,.23,2.79,2.79,0,0,0,.08.81.59.59,0,0,0-.15.2c-2.09,6-1.21,12.57-4,18.51a1,1,0,0,0-.14.15C51,87.23,47.62,88.51,46,91.8c-1.9,3.83,1.09,9,0,13.07,0,.15.19.21.22.06,1-4-.66-7.85-.08-11.86s5.75-5.11,7.32-8.63a.42.42,0,0,0,0-.38c2.69-4.26,3.66-9.93,4.07-15.15.09.54.18,1.07.28,1.6.17,1.66.21,3.33.24,5-.64,2.19-.59,4.51-1.37,6.65-.31.52-.62,1-.91,1.57l-.43-.23a.1.1,0,0,0-.12,0,.08.08,0,0,0,0,.12h0l.41.26L55,85.17l-.1,0c-.09-.06-.2.07-.12.14l.13.09c-.59,1.12-1.15,2.25-1.67,3.4A.41.41,0,0,0,53,89c-.86,1.64-2.79,2.59-3.47,4.31-1,2.64-.64,5.41-.77,8.18a.15.15,0,0,0,.29,0c.67-2.61-.14-5.44,1.23-7.89A8.87,8.87,0,0,1,52.1,91.5,47.63,47.63,0,0,0,49,104.79c-.4,4.9.57,9.71-.91,14.5-1.26,4.08-4.2,6.91-3.55,11.5.63,4.36,2.19,8,1.46,12.3a6,6,0,0,1-.29.84,1.29,1.29,0,0,1-.19.32c-.21.24-.42.48-.61.74a7.43,7.43,0,0,1-3.31,1.07,4,4,0,0,0-2.21,1.71c-.12.17.14.35.28.22,1.2-1.22,3-1.26,4.5-1.63-.6,1.85-.7,5.41-3.44,5.26-2.28-.13-3,2-2.85,3.89.42,6-4.43,2.14-7.3,2.82-1.75.41-2,3.12-2.24,4.48,0,.26.36.38.41.11.38-2,1.22-4.25,3.73-3.76,1.37.27,2.58,1.08,3.92,1.45,1.7.48,2.81-1.47,3.26-2.73s-1.22-4.38,1.07-4.66a6.16,6.16,0,0,0,2.63-.66,1.51,1.51,0,0,0,.26-.18,26.11,26.11,0,0,0-.28,4.14c0,3-3.37,5.34-6.17,7.66a6.44,6.44,0,0,1-2.43-.6c-1.64-.76-3.29-1.2-4.19.69a.19.19,0,0,0,.07.25.18.18,0,0,0,.25-.07c1.33-2.26,3.53-.06,5.08.79a12.63,12.63,0,0,0-1.62,1.81c-2.07,3.07-1.67,7.22-.83,10.58a.39.39,0,0,0,.5.25.38.38,0,0,0,.26-.35A15.49,15.49,0,0,1,35.74,170a7.88,7.88,0,0,0,1.34,4.34c-.36,3.36-.4,7.1,1.09,10.17a5,5,0,0,0-.44-.69.19.19,0,0,0,0-.23c-2.09-3.8-2.38-7.8-1.93-12a.13.13,0,0,0-.25,0c-.49,3.57-.66,7.61.94,10.94-1-1-2.12-2-2.33-3.45,0-.19-.33-.14-.32,0A4.65,4.65,0,0,0,35.19,182c.49.56,1,1.08,1.56,1.63a5.55,5.55,0,0,1,1,1.62c-1.78-1.84-4-2.54-6.82-.14-.7.6-3.87,3.56-4.76,3.14.38-2.29,1.89-4.22,2.39-6.54a3,3,0,0,0-.25-1.92.42.42,0,0,0-.06-.14c-.55-1.21-1.49-2.32-1.33-3.76a.26.26,0,0,0-.51-.07,6.67,6.67,0,0,0,.62,3.66,3.93,3.93,0,0,0-2.21-1.2,15.1,15.1,0,0,0-1.9.08c-2.83.29,1.19-5.45,3.34-6.27,1.6-.62,4.39-2.67,4.39-4.63,0-1.62-3.41-3-4.3-3.81-2.38-2.09-3-6.25-.18-8.14,1.37-.91,3.26-1.21,4.82-1.69,1.84-.56,3.51-1.49,4-3.46a.52.52,0,0,0-.36-.63c-5.07-1.17-2.2-6.91,1.25-6.94a4.47,4.47,0,0,0,1.7-.28,8.15,8.15,0,0,0,3.62-4.06c2-5.08,1.62-10.69.47-15.94,0-.23-.4-.13-.35.1,1.09,5,2.78,19.32-5.44,19.55-3.38.09-4.64,1-4.92,4.65-.26,3.2,4.55,3.9.34,5.88-2.55,1.2-5.82,1.62-7.3,4.28-1.24,2.24.49,5.45,1.93,7.1S31.32,167,28.19,170c-1.14,1.07-5,1.85-5.77,3.72-.34.82-2.32,5.38,0,5.39,1.9,0,3.15.69,4.83,1.2a4.1,4.1,0,0,1,.08,1.35c-.07.35-.15.67-.24,1a13.1,13.1,0,0,1-.86,2l-.18.33a5.31,5.31,0,0,0-.48,1.06,6.61,6.61,0,0,0-.67,3.55.62.62,0,0,0,.64.59l.11,0A2.57,2.57,0,0,0,27.49,189a.21.21,0,0,0,.06-.1c1.72-1.06,3-2.58,4.76-3.76,2.81-1.93,4.8-.25,6.3,2.18.18.86.47,1.48.93,1.7.43.86.81,1.73,1.16,2.52a3.43,3.43,0,0,0,.39,1.26,10.25,10.25,0,0,1-1.41-1.73.22.22,0,0,0-.28-.07.22.22,0,0,0-.07.28,7.43,7.43,0,0,0,3.53,3.36,18.67,18.67,0,0,0,2.8,7.47,23.43,23.43,0,0,1-6.34-2.73c-3.54-2.42-5.34-6.48-6-10.58,0-.18-.33-.13-.31,0,.81,6.82,6.43,14.8,13.92,15.09l.44.54c-.09.84-.22,1.7-.37,2.56a.69.69,0,0,0-.66-.57,29.43,29.43,0,0,0-5.86.08c-2.72.45-3.77-2.82-4.68-4.72-1.08-2.24-2.4-4-4.83-4.92-5.58-2.07-19.87,1.44-20.52-6.8-.31-3.9,3.61-6.53,6.22-9.61A16.82,16.82,0,0,0,21.53,174c1.86-3.93.22-8.59-1.71-12.11-.11-.2-.41,0-.3.18,2.08,3.93,3.07,8.06.49,12.06A12.49,12.49,0,0,1,19,175.66v-.51a21.54,21.54,0,0,0,.34-7.25c-.49-3.9-8.82-9.88-.74-11.79,2.74-.65,5.73-.8,7.45-3.39,2.79-4.21,2.19-9,2.88-13.81,0-.21-.27-.3-.32-.09-1.06,5.13.05,13.26-6.08,15.36-2.34.8-5.41.22-7.46,1.82s-1.67,4.35-.78,6.59c.81,2.07,2.72,3.42,3.54,5.51a8.62,8.62,0,0,1,.2,3.81C15.08,166,7.43,163.65,7.22,156.2a.3.3,0,0,0-.09-.21c.82-2.21,2.28-8,5.43-6.86a10.54,10.54,0,0,0,4.83.32c2-.18,3.63-.8,4.68-2.58a7.49,7.49,0,0,0,.76-2.83c.18-1.56-.72-13.82,4.24-10.69,2,1.26,5.09,2.48,7.38,1.27,2-1.07,2.18-5.81,2.25-7.71s-3.72-14.58.49-12.3c4.87,2.66,11.26,4.39,10.31-3.41,0-.36-.58-.37-.56,0,.63,9.62-7.35,2.74-10.62,2.09-1.15-.23-1.51.33-1.87,1.35-1.12,3.19.27,6.75,1,9.83.43,1.79.57,9.57-3.12,9.45-2.63-.09-4.29-1.56-6.54-2.51-1.65-.7-4.27,1.28-4.49,2.88-.57,4.18,3.2,12-2.34,14-2.76,1-5.71-.74-8.11.23a6,6,0,0,0-.56.3c1.57-5.2,4.61-9.75,5.08-15.25.6-6.85-4.54-12.89-5.18-19.58-.72-7.55,5.66-12.22,9.69-17.58s2.84-12,1.66-18.27c-3.19-16.72,8.52-32.46,21.41-42,11.59-8.58,25.25-13.7,37-22a1.32,1.32,0,0,0,.67-.21c1.86-1.11,3.53-2.49,5.42-3.56,2.8-1.59,5.2-1.18,8-.35-.73.55-1.46,1.11-2.17,1.7s.17,1.46.84,1.08C109,3.46,126.78,1.55,144.43,8.14c18,6.71,31,22,44.51,34.86a141.88,141.88,0,0,1,16.44,18.46c6,8.09,8.37,16.09,6.7,26.1-1.37,8.25-5,15.16-8,22.79a12.43,12.43,0,0,0-.77,7c-1.58-1.23-3.26-2.35-4.83-3.47-.29-.22-.7.32-.39.56Z"/><path class="cls-1" d="M190.34,269.91a.3.3,0,0,0-.23.34.24.24,0,1,0,.47-.1A.33.33,0,0,0,190.34,269.91Z"/><path class="cls-1" d="M83.67,274.31A.27.27,0,0,0,84,274a.28.28,0,0,0-.28-.28c-.44,0-2.88.69-2.94.26a3.35,3.35,0,0,0-1.94-2.23c-1.55-.91-4.14-1-5.85-1.45-4.24-1.06-7.92-3.28-11.57-5.6C48.28,256.38,38,242,36.07,226.36c0-.09-.15-.09-.14,0,1.17,11.36,7.2,22,14.77,30.42A60.08,60.08,0,0,0,63.63,267a38.93,38.93,0,0,0,7.49,3.7c2.67,1,8.18.87,8.93,4.57A34.14,34.14,0,0,0,85,308.93a.1.1,0,0,0,.16-.12c-7.27-9.48-8.47-22.37-3.89-33.3A8.34,8.34,0,0,1,83.67,274.31Z"/><path class="cls-1" d="M85.48,274.27a.27.27,0,0,0,.1-.38.32.32,0,0,0-.1-.1,1.84,1.84,0,0,0-.81-.13.37.37,0,0,0-.36.38.36.36,0,0,0,.36.36A1.71,1.71,0,0,0,85.48,274.27Z"/><path class="cls-1" d="M102,312.83c-.16.14.07.36.23.23a29.16,29.16,0,0,0,10.18-15.52A47.47,47.47,0,0,0,114,287.2c.24-3.7-.73-7.11-.25-10.74a.54.54,0,0,0,.66-.37c1.33-4.86,8-5.93,12.06-7.75a116,116,0,0,0,15.88-8.54c8.25-5.29,21.48-10.18,23-21.3,0-.27-.38-.4-.43-.11-1.12,7.42-8,11.87-14,15.46-5.5,3.31-11.06,7.11-16.83,9.88-4.62,2.22-9.51,3.89-14.2,5.94-2.23,1-4.86,2.17-6,4.32a1.06,1.06,0,0,0-.76-.55,6.48,6.48,0,0,0-4.85.35c-.19.08-.06.39.14.33a8,8,0,0,1,4.49.11.78.78,0,0,1,.45.44l-.07.08c-1.26,2.18-1.1,4.39-.89,6.86a50.63,50.63,0,0,1,0,10C111.51,299.72,108.17,307.47,102,312.83Z"/><path class="cls-1" d="M62,208.76c.06.13.26,0,.22-.1-.71-2.46-2-4.69-2.6-7.18-.68-2.74-.42-5.82-.73-8.62,0-.15-.26-.16-.24,0,.22,2.53.09,5.09.45,7.6A31.25,31.25,0,0,0,62,208.76Z"/><path class="cls-1" d="M62.86,211.45a7.6,7.6,0,0,0,.52.82c.09.13.33,0,.27-.11a7.06,7.06,0,0,0-.5-.88C63,211.08,62.76,211.25,62.86,211.45Z"/><path class="cls-1" d="M92.09,243a98.54,98.54,0,0,0,14.75,1.08.27.27,0,0,0,.28-.28.28.28,0,0,0-.28-.28c-4.94,0-9.84-.28-14.75-.67C92,242.86,92,243,92.09,243Z"/><path class="cls-1" d="M101.75,246.05a19.43,19.43,0,0,0-3.66-.28A.19.19,0,0,0,98,246a.17.17,0,0,0,.13.13c1.21,0,2.41.22,3.62.22a.14.14,0,0,0,.14-.16A.14.14,0,0,0,101.75,246.05Z"/><path class="cls-1" d="M102.53,248.59c-1.06-.17-2.13-.13-3.19-.2a.18.18,0,0,0,0,.35c1,.18,2.11.24,3.17.32C102.73,249.08,102.79,248.63,102.53,248.59Z"/><path class="cls-1" d="M88.17,192a.17.17,0,0,0-.11.2.14.14,0,0,0,.11.11.15.15,0,0,0,.12-.19A.18.18,0,0,0,88.17,192Z"/><path class="cls-1" d="M114.41,196.13c.33,0,.23-.54-.07-.55-2.84-.1-5.16,1.49-8.12,1.17a60.53,60.53,0,0,1-14.67-3.23c-.19-.07-.32.25-.14.33a41.63,41.63,0,0,0,12.33,4,18.18,18.18,0,0,0,2.08.15h0a2.92,2.92,0,0,1,2.16,1,.13.13,0,0,0,.2-.16,2.19,2.19,0,0,0-1-.83,13.86,13.86,0,0,0,1.83-.08C110.86,197.81,112.55,196.45,114.41,196.13Z"/><path class="cls-1" d="M116.09,195.39c-.13,0-.22.17-.33.21a.29.29,0,0,0-.12.38.26.26,0,0,0,.27.15c.13,0,.22-.11.34-.13C116.66,196,116.47,195.24,116.09,195.39Z"/><path class="cls-1" d="M83.05,187.18c3.47-1.07,6.89-2.26,10.44-3.05a11,11,0,0,1,7.65,1c.82.42,1.12.15,1.89-.16.1,0,.1-.21,0-.2-1.45.13-3-1-4.38-1.45a8.71,8.71,0,0,0-4.06-.17c-4.06.68-7.74,2.36-11.6,3.74a.17.17,0,0,0,0,.23A.13.13,0,0,0,83.05,187.18Z"/><path class="cls-1" d="M104.1,185.14a.11.11,0,0,0-.15,0,.12.12,0,0,0,0,.14c.11.25.29.66.61.71a1.34,1.34,0,0,0,1.08-.26.18.18,0,0,0,.05-.27.2.2,0,0,0-.2-.09C105,185.47,104.45,185.67,104.1,185.14Z"/><path class="cls-1" d="M106.67,186.21c3.27-.15,6.16-.82,9.37.29,3,1,5.57,2.69,8.39,4a.14.14,0,0,0,.2,0,.14.14,0,0,0,0-.2l0,0a45.53,45.53,0,0,0-8.27-4.69c-3.1-1.28-6.57-.57-9.68.31a.19.19,0,0,0-.06.25A.21.21,0,0,0,106.67,186.21Z"/><path class="cls-1" d="M102.88,227.91a.24.24,0,0,0,.33-.12.25.25,0,0,0-.08-.31c-6.54-3.8-12.67,7.6-19.25,3-.08,0-.18.08-.1.14C90.11,235.51,96.41,224.78,102.88,227.91Z"/><path class="cls-1" d="M104.71,230.06c-3.13-.67-6.39-.89-9.29.67-.18.09,0,.36.16.27,3-1.57,5.93-1,9.09-.66a.13.13,0,0,0,.16-.12A.14.14,0,0,0,104.71,230.06Z"/><path class="cls-1" d="M105.17,228.38a.15.15,0,0,0-.15.15.15.15,0,0,0,.15.15,3.82,3.82,0,0,1,2.88,1.47c.13.15.37,0,.27-.21A3.6,3.6,0,0,0,105.17,228.38Z"/><path class="cls-1" d="M107.4,232.8a5.4,5.4,0,0,0-2.26.13c-.13,0-.07.22.06.2a4.86,4.86,0,0,1,2.08.12C107.57,233.34,107.69,232.85,107.4,232.8Z"/><path class="cls-1" d="M60.84,125.36a.24.24,0,0,0,0,.33.23.23,0,0,0,.32,0h.06a3.27,3.27,0,0,0,3.35-1.45l.33.3a3.51,3.51,0,0,1,.86,1.33c0,.14.21.1.22,0a1.09,1.09,0,0,0,0-.44.2.2,0,0,0,.21-.16,13.27,13.27,0,0,1,1-2.51,8.17,8.17,0,0,1,.8-1.21l.34-.31a3,3,0,0,0,1.17,3,9,9,0,0,0,3,2.81,5.13,5.13,0,0,0,5.32-.83,6.68,6.68,0,0,0,1.92-5.8h0a4.62,4.62,0,0,0-.13-2.12,2,2,0,0,1,.55-.67,1.82,1.82,0,0,1,.71-.28,20.48,20.48,0,0,1,4.84,2.36l-.19-.08c-.09,0-.13.12,0,.15L86,120h0c.36.24.73.48,1.08.74s.44-.18.26-.34a25.09,25.09,0,0,0-5.27-4,13.59,13.59,0,0,1,1.44.29c1.93.52,3.53,1.76,5.27,2.67a.16.16,0,0,0,.21-.09.18.18,0,0,0,0-.18c-2-1.22-4.32-3-6.77-3.64a19.49,19.49,0,0,1,3.82.17,13.94,13.94,0,0,1,3.82,1.75.1.1,0,0,0,.13,0,.09.09,0,0,0,0-.11,10.11,10.11,0,0,0-4-2.61C76.84,109.89,66.82,119.32,60.84,125.36Zm.58.2c.78-.44,1.55-.9,2.31-1.37A2.43,2.43,0,0,1,61.42,125.56Zm11-6,.09-.23.28-.15a1.12,1.12,0,0,1-.42.56.37.37,0,0,1,0-.18ZM74.7,119l-.22-.1.12-.06a.16.16,0,0,0,.07-.09,23.42,23.42,0,0,1,2.37,0h.5a15.35,15.35,0,0,0-2.87.21Zm3.47-.27a1.59,1.59,0,0,0,.33-.09v.07a.6.6,0,0,0-.13.09H78Zm-8,1.33v.06H70l.25-.17ZM74,126.3a6,6,0,0,1-3.33-2h0A13.08,13.08,0,0,0,72,122.83c.07-.1-.09-.22-.17-.13-.42.52-.89,1-1.32,1.52h0q-.13-.15-.27-.33a.31.31,0,0,0-.08-.27c-.14-.19-.26-.37-.38-.56a7.35,7.35,0,0,0,1.1-.61c.09-.06,0-.23-.08-.19a4.48,4.48,0,0,0-1.09.61,1.25,1.25,0,0,1,.29-1.25.13.13,0,0,0,0-.19.2.2,0,0,0-.08,0,1.5,1.5,0,0,0-.51.07c.32-.57.86-.29,1.43-.37a1.17,1.17,0,0,0,.79-.5c-.15.44-.37.77-.74.59-.09,0-.22.06-.15.16.53.76,1.08-.14,1.36-.64a2.35,2.35,0,0,0,.24-.64h0a1.34,1.34,0,0,0,.3-.12.17.17,0,0,0,.16.18.13.13,0,0,0,.13-.05.68.68,0,0,1,.34-.21.44.44,0,0,0,.15.22,1.46,1.46,0,0,1,.16,1.88,1.64,1.64,0,0,1-.63.65c-.38.27-.88-.37-1-.63-.07-.1-.24,0-.2.08a1.74,1.74,0,0,0,1.1,1.21h0a2.47,2.47,0,0,0,.91.47,4.87,4.87,0,0,0-.1,1.82c0,.21.37.13.32-.08a6,6,0,0,1,0-1.69,1.41,1.41,0,0,0,.41,0,2,2,0,0,0,1.55-1.37,2.8,2.8,0,0,0-.7-3,2.15,2.15,0,0,0-.28-.23,34,34,0,0,1,3.92.37,3.71,3.71,0,0,1,.12.65.21.21,0,0,1,.19.22.16.16,0,0,1,0,.11c-.13,3.13-1.74,5.82-5.19,5.76Z"/><path class="cls-1" d="M89.32,117.37c.94.8,1.8,1.65,2.66,2.52,0,0,.08,0,0,0-.87-.86-1.74-1.71-2.68-2.49C89.33,117.34,89.31,117.36,89.32,117.37Z"/><path class="cls-1" d="M59.55,117a7.61,7.61,0,0,0,3-2.33c.21-.25-.15-.62-.37-.36a8.16,8.16,0,0,1-2.74,2.35C59.22,116.79,59.36,117.12,59.55,117Z"/><path class="cls-1" d="M64,114.21c-.22.18.1.49.32.31a16.66,16.66,0,0,0,3.45-4.5c.22-.35-.32-.65-.55-.32C66.19,111.24,65.47,113,64,114.21Z"/><path class="cls-1" d="M67.47,113a32.88,32.88,0,0,1,3.74-4.26c.24-.21-.09-.64-.35-.45a14.91,14.91,0,0,0-3.68,4.49A.18.18,0,0,0,67.47,113Z"/><path class="cls-1" d="M68.33,112.86a.25.25,0,0,0,0,.35.24.24,0,0,0,.34,0h0a25.9,25.9,0,0,1,10.76-6,.15.15,0,0,0,.13,0c3.44-.68,6.91.18,10.35.34,1.51.51,3,1.13,4.57,1.73a.67.67,0,0,0,.83-.48.68.68,0,0,0-.17-.65C86.72,101.19,74.7,105.33,68.33,112.86Z"/><path class="cls-1" d="M96,109a4.57,4.57,0,0,1,.16-.61c0-.22-.41-.42-.45-.12s-.15.47-.17.73S95.88,109.33,96,109Z"/><path class="cls-1" d="M96.37,111.54a1.81,1.81,0,0,0,.8-.82c.19-.31-.2-.77-.53-.52s-.41.47-.67.66a.4.4,0,0,0-.14.54.39.39,0,0,0,.54.14Z"/><path class="cls-1" d="M97,114a.51.51,0,0,0,.36-.64.4.4,0,1,0-.71.29A.51.51,0,0,0,97,114Z"/><path class="cls-1" d="M97.36,115.55h.16a.56.56,0,1,0,.21-1.1.74.74,0,0,0-.21,0h-.16a.55.55,0,1,0,0,1.1Z"/><path class="cls-1" d="M60.34,126.61a.24.24,0,0,0,.2-.29.26.26,0,0,0-.2-.2,2.87,2.87,0,0,1-1.41-.25.19.19,0,0,0-.24.12.21.21,0,0,0,.05.2A2.61,2.61,0,0,0,60.34,126.61Z"/><path class="cls-1" d="M63.58,125.61a3.13,3.13,0,0,1-.8.65c-.14.07,0,.28.12.21a3.35,3.35,0,0,0,.86-.69C63.87,125.67,63.7,125.5,63.58,125.61Z"/><path class="cls-1" d="M85.13,135.13c-4.35,3-10.16,2.36-14.94.81-.1,0-.15.14,0,.17,4.76,1.59,10.86,2.56,15.08-.86C85.29,135.2,85.2,135.08,85.13,135.13Z"/><path class="cls-1" d="M87.39,133.92a4.38,4.38,0,0,1-1,.82c-.16.09,0,.34.15.25a4.29,4.29,0,0,0,1-.85.14.14,0,0,0-.08-.2Z"/><path class="cls-1" d="M85.87,138.07c.21-.19.46-.32.65-.52s-.06-.6-.32-.42a8,8,0,0,0-.73.53C85.24,137.86,85.6,138.31,85.87,138.07Z"/><path class="cls-1" d="M130.75,192.83c-1-1-2.63-1.08-2.78-2.72a.21.21,0,0,0-.42-.05,2.83,2.83,0,0,0,.77,2.48c-4.42,0-8.27-1.94-12.44-3.1s-8.33-.22-12.46.18a3.16,3.16,0,0,1-.6-.11c-3.79-1.6-7.27-3.16-11.48-2.76-2.69.25-5.23,1.18-8,1.37a25.33,25.33,0,0,1-3.26,0A.53.53,0,0,0,80,188a1.69,1.69,0,0,1-.94-.61,2.78,2.78,0,0,1-.21-.46.85.85,0,0,0,0-.82,1.48,1.48,0,0,0,.28-.28,4.69,4.69,0,0,0,.9-1.46c.08-.2-.24-.33-.34-.14a4,4,0,0,1-1.32,1.24l-.08.06h-.07a4.47,4.47,0,0,0-2.91,1.26C74,188,74.71,189.65,74,191.05a.29.29,0,0,0,.18.37.28.28,0,0,0,.31-.08,5,5,0,0,0,.72-1.61.39.39,0,0,0,.37-.26h0l0,.05c.34.22,1.21-.12,1.59-.17s.77-.11,1.15-.13.67,0,1,0a21.56,21.56,0,0,0,7.47.23c3.12-.43,5.66-1.61,8.9-1.09a24.66,24.66,0,0,1,3.41.86,4.94,4.94,0,0,0,1,.58,7,7,0,0,0,1.51.54,2.57,2.57,0,0,0,1.19.64,5.19,5.19,0,0,0,3.75-.7.4.4,0,0,0,.15-.14,39,39,0,0,1,11.12,1.5c2.56.82,5.14,2,7.79,2.13,0,0,0,0,.07.07a14.84,14.84,0,0,0,3.45,1.13,1.1,1.1,0,0,1,.7.71V196a.57.57,0,0,0,.25.53l.06.21a7.23,7.23,0,0,0,.79,2.23c.17.24.61.1.5-.21a8.2,8.2,0,0,1,0-2.88A2.56,2.56,0,0,0,130.75,192.83Zm-53-4.76.41-.33v.15c0,.05.06.09.09.15h-.18Z"/><path class="cls-1" d="M114.81,210a15.05,15.05,0,0,0-8.16-8.15c-5.24-2-10.73,2.92-14.83,5.25-.37.2-.12.84.28.68,3.23-1.27,6.26-3.1,9.61-4,5.13-1.44,9.93,2.46,12.52,6.5C114.42,210.48,115,210.29,114.81,210Z"/><path class="cls-1" d="M88.08,209.83c.83-.61,1.65-1.25,2.54-1.78a.22.22,0,0,0,.08-.3.23.23,0,0,0-.31-.08,23.25,23.25,0,0,0-2.5,1.91C87.76,209.7,88,210,88.08,209.83Z"/><path class="cls-1" d="M114.74,211.27a15.57,15.57,0,0,0,.54,1.49.23.23,0,0,0,.29.16.22.22,0,0,0,.16-.29c-.14-.51-.27-1-.46-1.51C115.15,210.8,114.64,210.92,114.74,211.27Z"/><path class="cls-1" d="M72.3,130.87h0a28,28,0,0,0,3,.38c4.36.35,11.43-.35,15.3-2.54a.09.09,0,0,0,.1,0c.41-.06.73-.47,1.16-.56a.22.22,0,0,0,.18-.27.24.24,0,0,0-.18-.18l-.29-.09a.5.5,0,0,0-.17-.37,12.07,12.07,0,0,1-1.11-1.35h0a.47.47,0,0,0-.18-.24c-1.12-1.61-2-3.4-3.53-4.73-.14-.13-.36.08-.21.22A12.71,12.71,0,0,1,89,125.42c0,.9.17,1.94-.49,2.62h0c-7,.69-17.92,5.71-22-1.58,0-.06-.16,0-.13.06A6.12,6.12,0,0,0,69.61,130a7.34,7.34,0,0,1-1.11-.24,8,8,0,0,1-3.74-2.67c-.11-.12-.27,0-.18.17C66.22,129.36,69.51,131.56,72.3,130.87ZM90.16,128h0Z"/><path class="cls-1" d="M63,113.7c0-.19,0-.22-.21-.24s-.09.14,0,.13Z"/><path class="cls-1" d="M63.76,113.08a4.11,4.11,0,0,1,1-.86c.23-.16,0-.54-.22-.38a2.62,2.62,0,0,0-1,1.16C63.53,113.12,63.69,113.16,63.76,113.08Z"/><path class="cls-1" d="M62.45,116.48c.12-.14.25-.4.43-.45s.12-.4-.09-.33-.39.34-.57.55S62.31,116.64,62.45,116.48Z"/><path class="cls-1" d="M64.32,115.84a4.18,4.18,0,0,0,.67-.72.17.17,0,0,0-.08-.24.22.22,0,0,0-.16,0,5.71,5.71,0,0,0-.72.67.21.21,0,0,0,.07.29A.18.18,0,0,0,64.32,115.84Z"/><path class="cls-1" d="M65.84,113.59a.28.28,0,0,0-.27.27.27.27,0,0,0,.54,0A.28.28,0,0,0,65.84,113.59Z"/><path class="cls-1" d="M67.34,113.33a.2.2,0,1,0,.2.2A.2.2,0,0,0,67.34,113.33Z"/><path class="cls-1" d="M57.5,118.91a.21.21,0,0,0,.17-.26.18.18,0,1,0-.33.1A.19.19,0,0,0,57.5,118.91Z"/><path class="cls-1" d="M57,122a.12.12,0,0,0,.13-.13.13.13,0,0,0-.13-.13,3.38,3.38,0,0,1-2.62-1.25c0-.06-.14,0-.09.1A3.44,3.44,0,0,0,57,122Z"/><path class="cls-1" d="M71,122.71a1.19,1.19,0,0,1-.62.41c-.09,0-.06.18,0,.15a1.25,1.25,0,0,0,.71-.43C71.14,122.75,71,122.62,71,122.71Z"/><path class="cls-1" d="M72.09,123.26a13.41,13.41,0,0,0-.36,1.52.11.11,0,0,0,.21,0,9.63,9.63,0,0,0,.31-1.51C72.27,123.2,72.11,123.15,72.09,123.26Z"/><path class="cls-1" d="M73,123.83q-.15.54-.27,1.08c0,.17.21.24.25.07.09-.36.16-.73.24-1.09C73.23,123.75,73,123.68,73,123.83Z"/><path class="cls-1" d="M74.42,124a7.78,7.78,0,0,0,.35,1.74.07.07,0,0,0,.1,0,0,0,0,0,0,0,0c-.09-.59-.23-1.17-.31-1.76C74.57,123.82,74.41,123.86,74.42,124Z"/><path class="cls-1" d="M75.12,123.79a8.11,8.11,0,0,0,.67,1.43c0,.07.13,0,.1,0a7.83,7.83,0,0,1-.67-1.4C75.2,123.71,75.1,123.73,75.12,123.79Z"/><path class="cls-1" d="M75.77,123.24a3.63,3.63,0,0,0,.61.83.06.06,0,0,0,.09-.07c-.14-.31-.4-.55-.56-.84a.09.09,0,0,0-.11,0S75.75,123.21,75.77,123.24Z"/><path class="cls-1" d="M76.3,122.53a.11.11,0,0,0-.14,0,.1.1,0,0,0,0,.14l0,0,.16.08c.11.06.21-.11.1-.17Z"/><path class="cls-1" d="M76.39,121.53c-.11-.07-.2.1-.1.17a2.34,2.34,0,0,0,1,.4c.07,0,.13-.1,0-.13A6.24,6.24,0,0,1,76.39,121.53Z"/><path class="cls-1" d="M76,120.21a.08.08,0,0,0-.07.07.08.08,0,0,0,.07.07c.65.25,1.16.78,1.82,1,.15,0,.25-.18.11-.25A7.71,7.71,0,0,0,76,120.21Z"/><path class="cls-1" d="M78.05,120a5.3,5.3,0,0,0-2-.45.11.11,0,0,0-.1.1.1.1,0,0,0,.1.1,9.11,9.11,0,0,1,2,.55C78.15,120.33,78.23,120,78.05,120Z"/><path class="cls-1" d="M93.57,123.34a7.45,7.45,0,0,0-.84-1.51c0-.07-.16,0-.11.06a7.48,7.48,0,0,1,.82,1.49.07.07,0,0,0,.1,0A.06.06,0,0,0,93.57,123.34Z"/><path class="cls-1" d="M29.73,239.46c-1.23,2.16-1.84,6.47-4.89,6.65a.1.1,0,0,0-.05.12s0,.05.05.05c3.28-.13,3.9-4.38,5.11-6.69C30,239.45,29.81,239.32,29.73,239.46Z"/><path class="cls-1" d="M28.13,247.12c-.1,0,0,.19.06.16a3.77,3.77,0,0,0,2.08-2.72c0-.14-.15-.18-.2-.06A4.29,4.29,0,0,1,28.13,247.12Z"/><path class="cls-1" d="M30.61,250A5.37,5.37,0,0,0,32,247.61c.08-.24-.3-.34-.38-.1a6.44,6.44,0,0,1-1.25,2.28.15.15,0,0,0,.21.2Z"/><path class="cls-1" d="M33,253.25a15.78,15.78,0,0,0,1-2.69.1.1,0,0,0-.09-.12.11.11,0,0,0-.12.06,28,28,0,0,1-1,2.64A.12.12,0,0,0,33,253.25Z"/><path class="cls-1" d="M35.72,254.26a28.84,28.84,0,0,1,2.68,3.66c.07.14.28,0,.21-.12A25.57,25.57,0,0,0,36,254.13C35.85,254,35.61,254.12,35.72,254.26Z"/><path class="cls-1" d="M152.25,273.57c.3-.57.7-1.09,1-1.67,0-.09-.09-.17-.14-.08-.31.57-.7,1.09-1,1.66C152,273.59,152.2,273.68,152.25,273.57Z"/><path class="cls-1" d="M157,271.53a1.3,1.3,0,0,1,.31-.92c.09-.11-.06-.27-.16-.16a1.48,1.48,0,0,0-.36,1.08A.11.11,0,0,0,157,271.53Z"/><path class="cls-1" d="M159,271.23a18.68,18.68,0,0,0,.68-6,.14.14,0,0,0-.18-.1.16.16,0,0,0-.11.1,20.86,20.86,0,0,1-.66,6,.14.14,0,0,0,.18.1A.13.13,0,0,0,159,271.23Z"/><path class="cls-1" d="M162.32,268.53c.33-2.82-.24-5.6-.65-8.38,0-.18-.35-.14-.33,0,.31,2.77.91,5.52.68,8.33A.15.15,0,1,0,162.32,268.53Z"/><path class="cls-1" d="M165,266.2a27.4,27.4,0,0,0-1.36-7.71.14.14,0,0,0-.18-.1.15.15,0,0,0-.11.18,42.12,42.12,0,0,1,1.3,7.63.19.19,0,0,0,.22.14A.17.17,0,0,0,165,266.2Z"/><path class="cls-1" d="M172,263.92a42.54,42.54,0,0,1,6.65-6c.09-.07,0-.22-.09-.16a38.47,38.47,0,0,0-6.68,6C171.71,263.88,171.82,264,172,263.92Z"/><path class="cls-1" d="M12.89,243.81c-.07-.07-.17,0-.11.11a24.71,24.71,0,0,1,3.3,4c.07.12.25,0,.18-.1A19.29,19.29,0,0,0,12.89,243.81Z"/><path class="cls-1" d="M10.23,245.47c-.07-.08-.18,0-.12.11a60.39,60.39,0,0,1,6,8.65.07.07,0,0,0,.1,0,.07.07,0,0,0,0-.09A47.85,47.85,0,0,0,10.23,245.47Z"/><path class="cls-1" d="M20.39,253.46a77.14,77.14,0,0,1-3.65,7.34.12.12,0,0,0,.08.15.09.09,0,0,0,.12,0,68.6,68.6,0,0,0,3.68-7.32C20.69,253.44,20.46,253.3,20.39,253.46Z"/><path class="cls-1" d="M72.24,362.29c-5.7-6.38-8.67-15.36-15.82-20.22a.17.17,0,0,0-.22.05h0c-.12.27-2.38,5.33-2.94,4.84a43.45,43.45,0,0,1-4.39-4.7,96.41,96.41,0,0,1-9.56-14.2C34.08,319,29.22,308.69,28,298.2c0-.11-.18-.11-.17,0,1.08,9.24,5,18.05,9.26,26.25,4.31,8.38,9.59,17.05,16.71,23.36a.16.16,0,0,0,.24,0,.1.1,0,0,0,0-.07c1.36-3.8,2.62-5.68,5.69-2.36a51.41,51.41,0,0,1,5.41,7.77,62.75,62.75,0,0,0,6.67,9.28A3.22,3.22,0,0,1,72.24,362.29Z"/><path class="cls-1" d="M127.28,335.13c-6.89,8.16-10.36,18.52-17.51,26.49-.09.1,0,.25.14.15,7.15-8,10.66-18.31,17.49-26.51C127.47,335.17,127.35,335.05,127.28,335.13Z"/><path class="cls-1" d="M133,340.82a112.56,112.56,0,0,0,29-30.57c.08-.12-.12-.24-.2-.11a112.32,112.32,0,0,1-29,30.43A.16.16,0,0,0,133,340.82Z"/><path class="cls-1" d="M121.72,294.13c-.09.15.13.27.23.13,2.2-3,4.37-6,5.59-9.51a.21.21,0,0,0-.15-.25h0c-.25,0-2.77.14-2.6-.39.57-1.7.65-3.3,1.76-4.81.09-.13,0-.27-.16-.28-.6,0-3.93.2-3.58-1.51.56-2.78,3-4.68,5.13-6.21.11-.08,0-.27-.11-.19-2.91,2-4.87,4-5.61,7.55a.18.18,0,0,0,.14.22h0c2.11.19,3.77-.23,2.76,2.1-.5,1.15-.55,2.48-1,3.67a.21.21,0,0,0,.15.25h2.26a5.78,5.78,0,0,1-1,3.45C124.43,290.37,123,292.2,121.72,294.13Z"/><path class="cls-1" d="M70.31,289.89c2.24,3.83,4.8,7.46,6.9,11.38.09.16.34,0,.25-.15-2-4-4.5-7.64-6.81-11.43-.66-1.1-.88-1.53-2-2-4-1.79-.07-4.25-.16-6.13-.1-2.26-1.9-3.74-3.65-4.93-4.11-2.79-8.77-3.85-12.41-7.46a.1.1,0,0,0-.12,0,.09.09,0,0,0,0,.1c2.63,2.62,5.8,4.18,9.13,5.78a23.58,23.58,0,0,1,5,3.11c2.54,2.09,1,4.69.2,7.18C66,287.17,69.73,288.91,70.31,289.89Z"/><path class="cls-1" d="M113.5,110.36c.94,1.66-.35,4-.81,5.63-.06.19.24.27.3.08.52-1.73,1.41-3.45,1-5.27a18,18,0,0,0-1-2.14,8.73,8.73,0,0,1-.21-5.11c0-.1-.14-.15-.16,0a9.27,9.27,0,0,0,.12,5.22A8.94,8.94,0,0,0,113.5,110.36Z"/><path class="cls-1" d="M114.4,118.76a6.45,6.45,0,0,0,1.54-3.54.1.1,0,0,0-.1-.1.12.12,0,0,0-.1.1,8.07,8.07,0,0,1-1.46,3.46C114.2,118.72,114.32,118.84,114.4,118.76Z"/><path class="cls-1" d="M105.54,182.4c-1.29-.37-2.18-.88-2.3-2.3a28.6,28.6,0,0,0-.18-2.92c0-.08-.13-.05-.11,0,.18,1.2,0,2.44.2,3.62s1.35,1.57,2.32,1.83a.14.14,0,0,0,.11-.17A.21.21,0,0,0,105.54,182.4Z"/><path class="cls-1" d="M91,162.7A9.87,9.87,0,0,1,92,154.49c.06-.1-.09-.18-.16-.09-1,1.44-2.17,2.69-2.46,4.5s.74,3.31,1.53,4.75c.08.16.37,0,.29-.12s-.09-.28-.15-.42c.16-6.29,7.47-4.22,11.2-2.65,3.89,1.65,7.41,2.83,11.58,1.7a.12.12,0,0,0,.1-.16.15.15,0,0,0-.17-.1c-6.88,1.44-12-3.46-18.6-3.47C92.34,158.42,91.09,160.25,91,162.7Z"/><path class="cls-1" d="M92,165.26c3,3.28,8,3.21,11.68,5.52.11.08.21-.1.1-.17-3.5-2.63-8.55-2.19-11.65-5.48a.09.09,0,0,0-.13.13Z"/><path class="cls-1" d="M107.29,171.64c-.4.5-1,.13-1.38-.18-.1-.09-.24,0-.14.14.46.46,1.14.75,1.62.15C107.45,171.67,107.35,171.57,107.29,171.64Z"/><path class="cls-1" d="M110,172.34a.15.15,0,0,0,.11-.18.15.15,0,0,0-.11-.11,15,15,0,0,1-2-.26c-.1,0-.15.12,0,.15A6.59,6.59,0,0,0,110,172.34Z"/><path class="cls-1" d="M112.54,172.25c4.15-2.49,11-1.7,13.21-6.84a.09.09,0,0,0,0-.13.11.11,0,0,0-.13,0c-3.18,4.75-8.75,4-13.12,6.83a.08.08,0,0,0,0,.09.07.07,0,0,0,.08.05S112.53,172.27,112.54,172.25Z"/><path class="cls-1" d="M120.17,161.63a.08.08,0,0,0,0,.1,0,0,0,0,0,0,0h.67a.05.05,0,0,0,0-.1A5,5,0,0,0,120.17,161.63Z"/><path class="cls-1" d="M122.5,161.75a4.82,4.82,0,0,1,2.46.41,2.58,2.58,0,0,1,1.25,2.37.11.11,0,0,0,.08.1,12.76,12.76,0,0,1-.92,1.66c-.09.14.12.3.24.18,2.46-2.43,3.12-6.12.78-8.83a.09.09,0,0,0-.11,0,.13.13,0,0,0,0,.06,6.78,6.78,0,0,1,.18,6.55,2.73,2.73,0,0,0-1.07-2.22,4.35,4.35,0,0,0-2.88-.41.06.06,0,0,0,0,0A.05.05,0,0,0,122.5,161.75Z"/><path class="cls-1" d="M75,172.73a.07.07,0,0,0,0-.1.1.1,0,0,0-.1,0c-2.17,3.72-4.74,7.55-5.28,11.94-.75,6.1.38,11.83,2.2,17.64.06.18.35.1.29-.08a49.34,49.34,0,0,1-2.43-14C69.47,182.28,72.21,177.66,75,172.73Z"/><path class="cls-1" d="M78,169.31c-.51.49-1,1-1.5,1.5-.06.07,0,.17.1.1.51-.49,1-1,1.5-1.5C78.12,169.35,78,169.25,78,169.31Z"/><path class="cls-1" d="M80.44,166.66c-.15.28-.35.55-.5.83a.08.08,0,0,0,.06.1.06.06,0,0,0,.07,0c.15-.29.34-.55.5-.84a.07.07,0,0,0,0-.1.1.1,0,0,0-.1,0Z"/><path class="cls-1" d="M72.28,204.26A2.37,2.37,0,0,1,73,205.7a.07.07,0,0,0,.13,0,2.18,2.18,0,0,0-.75-1.57.1.1,0,0,0-.12,0A.09.09,0,0,0,72.28,204.26Z"/><path class="cls-1" d="M73.59,208.6a.1.1,0,0,0-.06.13.09.09,0,0,0,.06.06.09.09,0,0,0,.07-.12A.12.12,0,0,0,73.59,208.6Z"/><path class="cls-1" d="M76.29,213.62l-.28.24c-.11.1.06.28.16.17a1,1,0,0,0,.24-.29s0-.09,0-.12Z"/><path class="cls-1" d="M74.38,207.7h0a.18.18,0,0,0-.14-.22.19.19,0,0,0-.23.14v.08a.34.34,0,0,0,.3.28.16.16,0,0,0,.11-.21A.13.13,0,0,0,74.38,207.7Z"/><path class="cls-1" d="M75.7,210.76l-.28-.31s-.25,0-.16.16.17.31.38.35a.09.09,0,0,0,.13-.07A.1.1,0,0,0,75.7,210.76Z"/><path class="cls-1" d="M102.85,134.49c-.72,3.5-3.88,6.21-4.88,9.7,0,0,0,.05.07,0,1.36-4.26,4.89-7.09,5.42-11.65.42-3.59-.18-7.88-2.75-10.57,0,0-.12,0-.08.08C103.58,125.3,103.69,130.41,102.85,134.49Z"/><path class="cls-1" d="M99.05,152.31a7.4,7.4,0,0,1-1.48-2.13c0-.09-.17-.05-.14,0A6.6,6.6,0,0,0,99,152.41C99,152.47,99.12,152.38,99.05,152.31Z"/><path class="cls-1" d="M136.77,176.24c1.5,2.19,1.9,4.87,2.23,7.46,0,.1.19.11.18,0a14.85,14.85,0,0,0-2.27-7.54C136.85,176.07,136.71,176.15,136.77,176.24Z"/><path class="cls-1" d="M96.82,200.39a.05.05,0,0,0-.07,0,0,0,0,0,0,0,.07h0c4.09-.63,7.66.44,11.45,1.84.16.07.27-.21.12-.28C104.89,200.43,100.66,199.24,96.82,200.39Z"/><path class="cls-1" d="M108,200.84c-2.32-1.1-4.37-2.67-7.06-2.45-.08,0-.08.12,0,.11,2.64-.06,4.64,1.5,6.94,2.55C108,201.11,108,200.91,108,200.84Z"/><path class="cls-1" d="M124.38,123.76c.31-.23.72-.25,1-.5.1-.07,0-.21-.13-.13-.29.24-.7.26-1,.51C124.22,123.7,124.31,123.81,124.38,123.76Z"/><path class="cls-1" d="M120.75,145.67c0,.12.14.16.18,0,1.68-4.44-3.57-8.13-2-12.75,0-.11-.13-.15-.17,0C117.05,137.6,122.22,141.21,120.75,145.67Z"/><path class="cls-1" d="M121.84,148.24s0-.09,0-.09Z"/><path class="cls-1" d="M121,153.45c0-.23-.21-.31-.25-.53s-.2-.07-.18,0a3.23,3.23,0,0,1,.25.5C120.82,153.62,121,153.54,121,153.45Z"/><path class="cls-1" d="M121.23,148.26a16.25,16.25,0,0,1,1.24,2.72.12.12,0,0,0,.15.08.11.11,0,0,0,.08-.15,12.64,12.64,0,0,0-1.26-2.78C121.37,148,121.16,148.12,121.23,148.26Z"/><path class="cls-1" d="M138.39,140.6a44.55,44.55,0,0,1-4.84-3.48c-.09-.06-.17.09-.09.15,1.61,1.19,3,2.7,4.82,3.52C138.41,140.84,138.52,140.67,138.39,140.6Z"/><path class="cls-1" d="M131.75,124a16,16,0,0,1,3.32-2c.17-.07,0-.31-.13-.24a14.22,14.22,0,0,0-3.35,2C131.48,123.88,131.64,124,131.75,124Z"/><path class="cls-1" d="M128.06,116.06c2.3-.82,4.46-1.94,6.73-2.71a22.85,22.85,0,0,1,6.74-.71,16.9,16.9,0,0,1,4.56,1.53c.47.35.94.69,1.44,1,.06.12.11.24.16.36s.33.06.31-.11c.18.1.36.18.55.27,1.71,1.28,3.3,2.76,4.81,4a.44.44,0,0,0,.62-.62l-.4-.4h0a16.57,16.57,0,0,0-1.37-1.54A21.73,21.73,0,0,1,151,112.7c0-.15-.27-.11-.25,0a17,17,0,0,0,.73,3.68c-.45-.4-.92-.77-1.4-1.12-.12-.33-.24-.66-.33-1-.22-.79-.42-1.59-.67-2.37-.09-.25-.48-.14-.4.11.26.84.42,1.82.67,2.75a8,8,0,0,0-1-.59h0a6.66,6.66,0,0,1-.54-2.41.21.21,0,0,0-.25-.16.22.22,0,0,0-.16.16,7.52,7.52,0,0,0,.27,2.06,2.39,2.39,0,0,1-.32-.16,22.22,22.22,0,0,0-1.4-2.46.11.11,0,0,0-.15,0,.1.1,0,0,0,0,.1c.35.66.66,1.33,1,2l-.32-.16a15.42,15.42,0,0,0-4.36-2.43c-2.2-.69-4.79.41-7,1.35a43.36,43.36,0,0,0-7.14,3.67C127.7,115.8,127.83,116.15,128.06,116.06Z"/><path class="cls-1" d="M154.57,122.89c.19.62.69,1.08.9,1.69a.21.21,0,0,0,.26.16.18.18,0,0,0,.09-.06l.51-.49c.14.2.18.48.35.67a.24.24,0,0,0,.33,0,.25.25,0,0,0,0-.25c-.21-.33-.21-.69-.57-.92a.26.26,0,0,0-.29,0l-.46.48a16.65,16.65,0,0,1-1-1.37C154.71,122.71,154.54,122.78,154.57,122.89Z"/><path class="cls-1" d="M157.17,128.08h0c.06.5.17,1,.2,1.49a.29.29,0,1,0,.58,0,14.9,14.9,0,0,0-.44-2.17c0-.14-.2-.27-.31-.13a1.65,1.65,0,0,0-.38.8C156.81,128.22,157.14,128.27,157.17,128.08Z"/><path class="cls-1" d="M156.73,123.18a10.93,10.93,0,0,0-1.49-3c-.06-.08-.2,0-.14.09a16.53,16.53,0,0,1,1.51,3S156.76,123.26,156.73,123.18Z"/><path class="cls-1" d="M158.6,130.53a4.57,4.57,0,0,0,1.14,3.1.14.14,0,0,0,.2,0,.14.14,0,0,0,0-.18c-.23-.52-.56-1-.76-1.51s-.31-1-.46-1.44c0,0,0-.06-.08-.06A.1.1,0,0,0,158.6,130.53Z"/><path class="cls-1" d="M137,105.62A127.56,127.56,0,0,0,158.81,111c.13,0,.19-.17.06-.2A188.86,188.86,0,0,1,137,105.47C137,105.4,136.86,105.58,137,105.62Z"/><path class="cls-1" d="M143,126.31a.1.1,0,0,0,.11-.11.11.11,0,0,0-.11-.11,7.74,7.74,0,0,0-2.15-.13.11.11,0,0,0-.11.11.1.1,0,0,0,.11.11C141.55,126.21,142.25,126.27,143,126.31Z"/><path class="cls-1" d="M140.71,127a25.22,25.22,0,0,1,2.61.37c.08,0,.15-.11.06-.15a7.1,7.1,0,0,0-2.67-.39.1.1,0,0,0-.05.12S140.69,127,140.71,127Z"/><path class="cls-1" d="M142.81,128.66c.12.05.17-.14,0-.18-.38-.14-.74-.35-1.12-.49a.09.09,0,0,0-.08.08.08.08,0,0,0,.08.08C142.07,128.3,142.43,128.51,142.81,128.66Z"/><path class="cls-1" d="M141.44,128.9a2.75,2.75,0,0,1,1.58.86c.08.09.2,0,.13-.13a2.7,2.7,0,0,0-1.66-.89C141.38,128.72,141.34,128.88,141.44,128.9Z"/><path class="cls-1" d="M140.78,129.75a19.2,19.2,0,0,0,2.25,1.79c.1.07.22-.09.13-.17-.71-.64-1.56-1.08-2.26-1.73C140.82,129.57,140.7,129.68,140.78,129.75Z"/><path class="cls-1" d="M140.29,130.74c.52.64,1.1,1.24,1.62,1.88.06.07.16,0,.1-.1-.52-.64-1.1-1.23-1.62-1.87C140.33,130.58,140.24,130.68,140.29,130.74Z"/><path class="cls-1" d="M140.05,132.64c-.26-.53-.5-1.08-.78-1.6,0-.08-.15,0-.12.06.25.55.46,1.11.72,1.65A.11.11,0,0,0,140.05,132.64Z"/><path class="cls-1" d="M138.61,131.67a2.61,2.61,0,0,0,.37,2,.13.13,0,0,0,.17.05.12.12,0,0,0,0-.17h0a3.09,3.09,0,0,1-.37-1.79C138.84,131.59,138.63,131.52,138.61,131.67Z"/><path class="cls-1" d="M137.8,133v-1.13a.08.08,0,0,0-.11-.05.1.1,0,0,0-.06.05V133C137.63,133.06,137.8,133.06,137.8,133Z"/><path class="cls-1" d="M136.8,132.35c.16-.39.37-.74.52-1.12.06-.14-.17-.21-.22-.07-.14.39-.34.75-.48,1.13C136.58,132.41,136.76,132.46,136.8,132.35Z"/><path class="cls-1" d="M136,130.66c.12-.06,0-.24-.11-.18a7.34,7.34,0,0,1-1,.53c-.07,0,0,.14.05.12A5.9,5.9,0,0,0,136,130.66Z"/><path class="cls-1" d="M136.05,129.7a9.46,9.46,0,0,0-1.29.61c-.16.11,0,.37.15.27.4-.25.84-.41,1.24-.65C136.27,129.86,136.19,129.65,136.05,129.7Z"/><path class="cls-1" d="M131.89,130.31l.92-.89a4.26,4.26,0,0,1,.7-.64l.18-.12a11.66,11.66,0,0,0,1.07,3c0,.09.2,0,.16-.07a13,13,0,0,1-.44-1.38,3.82,3.82,0,0,0,.94-.59c.15-.12,0-.38-.16-.27a8.1,8.1,0,0,1-.85.54,8.31,8.31,0,0,1-.15-1,9.71,9.71,0,0,0,1.49-.71c.07-.05,0-.17-.06-.14a15.57,15.57,0,0,0-1.45.64v-.55a.13.13,0,0,0,.12,0,4.47,4.47,0,0,0,1.42-.51.06.06,0,0,0,0-.06,3.32,3.32,0,0,0,.63,2.57,2,2,0,0,0,.41.36.09.09,0,0,0-.12,0h0a1.28,1.28,0,0,1-.91.6c-.13,0-.14.22,0,.21a1.37,1.37,0,0,0,1.1-.67.1.1,0,0,0,0-.14,2.59,2.59,0,0,0,2.79-.05,2.94,2.94,0,0,0,.49-4.13l-.21-.23a.32.32,0,0,0,.36-.28c.23-1,1.29-.94,2.06-.93a6.6,6.6,0,0,1,.92,7.11c-1.32,3.1-6.21,2.44-7.75-.15a.09.09,0,0,0-.1,0,.08.08,0,0,0,0,.1c1.51,3,6.23,4.15,8.34,1.23a8.82,8.82,0,0,0,.84-6.92,2.24,2.24,0,0,1,2.29-.45.19.19,0,0,0,.23-.13,25.28,25.28,0,0,1,6,6.59h0a3.46,3.46,0,0,1-.33,1,5.51,5.51,0,0,1-.63.89c-.05.08.07.15.13.07a4.93,4.93,0,0,0,1-1.77c.14.23.27.47.4.7-.19.21-.32.45-.51.66a.18.18,0,1,0,.25.25,2.71,2.71,0,0,0,.44-.57c.07.14.15.27.23.42a3.31,3.31,0,0,0-.67.29c-1.62.82-2.58,1.72-4.19,2.17-1,.09-1.94.22-2.9.33-4.58.1-9.09-1-12.47-4.24-.08-.08-.19,0-.12.12a14.83,14.83,0,0,0,3.74,3,22,22,0,0,1-3.7-2.12c-.12-.08-.26.1-.16.2a14.19,14.19,0,0,0,11.62,4,21.06,21.06,0,0,0,5.2-.37,20.42,20.42,0,0,0,3-1.75h0c.32.12,1.07.3,1.39,0,.11.28.22.55.32.84s.66.3.64-.09c-.28-4.58-4.07-9-8.49-11.94a3.33,3.33,0,0,0-.63-.39,21.39,21.39,0,0,0-7.17-3,.15.15,0,0,0-.16.13.15.15,0,0,0,.09.16c.83.32,1.66.68,2.48,1.08a13.36,13.36,0,0,0-5.76,1.56,7,7,0,0,0-2.36,2.07,8.48,8.48,0,0,0-.79.9.15.15,0,0,0,0,.13,15.42,15.42,0,0,1-1.8,2.15.06.06,0,0,0,0-.09.07.07,0,0,0-.1,0h0a1.71,1.71,0,0,1-.8.65c-.07,0,0,.13,0,.11a3.55,3.55,0,0,1-2.15.61.17.17,0,0,0-.16.16.16.16,0,0,0,.16.16,3.2,3.2,0,0,0,2.85-.52c.63.78,1.61,1.13,2.12,2a.09.09,0,0,0,.13,0,.08.08,0,0,0,0-.08A9.12,9.12,0,0,0,131.89,130.31Zm22.63,5a1.57,1.57,0,0,1-.8.15c.47-.27.81-.44.89-.35h.08v.09l-.17.1Zm-10.35-10.8h.11v.08Zm-5.09.12a2.89,2.89,0,0,0-.44.27.17.17,0,0,0-.06-.06h0c.15-.06.31-.12.48-.17Zm-.23,2.58v.05h0a.28.28,0,0,0,0-.13Zm-.73,1a1.14,1.14,0,0,1-.09.26l-.33-.2a1.91,1.91,0,0,0,.45-.23Zm-1.46-1.09a3.08,3.08,0,0,1,0-.43,4.39,4.39,0,0,0,.84-.71h.09a.7.7,0,0,1,.76.62v0a3,3,0,0,1-.45.89.89.89,0,0,1-.83.27.5.5,0,0,1-.26-.08,1.72,1.72,0,0,1-.15-.56Zm-.61-1.07h.06c.06,0,0,.1,0,.15h-.17l.11-.12Zm2.08,3.85h0V130h-.28a.26.26,0,0,0,.28,0Zm6.83-4.49a1.77,1.77,0,0,1,1.1-.38A2.2,2.2,0,0,0,145,125.41Zm-11.44,2.45.09-.1v.08Zm.77-.11h0a.7.7,0,0,1,.08-.4.13.13,0,0,0,.17.05.1.1,0,0,0,0-.05l.08-.13a.21.21,0,0,0,.11.08l.54.12a8.8,8.8,0,0,1-1,.36Zm1.4-.5v-.06a.19.19,0,0,0,0-.28.26.26,0,0,0-.1-.07l-.2-.07h0l.54-.07V127a1,1,0,0,1-.06.42.13.13,0,0,0-.14-.13l-.08,0Zm.75,1.29a5.21,5.21,0,0,0,.6.72.34.34,0,0,0,0,.2.39.39,0,0,0,.09.17,2.32,2.32,0,0,1-.25-.21,2,2,0,0,1-.44-.85Zm9.79-3.51h.19l-.19,0ZM132,129.58l-.3.49-.11-.12Z"/><path class="cls-1" d="M152.68,132c0-.09-.13-.15-.18-.05a1.39,1.39,0,0,0-.13.44,2.92,2.92,0,0,1-.38,1.2,5.74,5.74,0,0,1-1.35,1.63s0,.09.06,0a7.86,7.86,0,0,0,1.29-1.47A3,3,0,0,0,152.68,132Z"/><path class="cls-1" d="M130.67,172.62c-1-1-2.23-1.77-3.28-2.72-.07-.06-.16,0-.1.09,1,1,2.18,1.82,3.22,2.78C130.61,172.87,130.77,172.72,130.67,172.62Z"/><path class="cls-1" d="M136.54,188.22c2.38,3.37,2.37,8.33,1.4,12.18a.17.17,0,0,0,.15.18.16.16,0,0,0,.15-.09c1-3.88.94-9-1.62-12.33C136.59,188.11,136.51,188.17,136.54,188.22Z"/><path class="cls-1" d="M134.29,210.17c0,.06.06.12.1,0a18.29,18.29,0,0,0,2.46-4.77h0A26.06,26.06,0,0,1,134.29,210.17Z"/><path class="cls-1" d="M132.84,215a.17.17,0,0,0-.16.17.16.16,0,0,0,.16.16.16.16,0,0,0,.17-.16A.17.17,0,0,0,132.84,215Z"/><path class="cls-1" d="M152,205.92a.08.08,0,0,0,.08.08.07.07,0,0,0,.08-.08,27,27,0,0,0,1.48-9,.07.07,0,0,0,0-.09.1.1,0,0,0-.1,0v0A33.46,33.46,0,0,1,152,205.92Z"/><path class="cls-1" d="M146.76,216.15c-.25.51-.53,1-.75,1.52a.08.08,0,0,0,.08.09.07.07,0,0,0,.06,0c.29-.47.51-1,.76-1.49C147,216.14,146.81,216.05,146.76,216.15Z"/><path class="cls-1" d="M149.23,210.45a4.36,4.36,0,0,1-.47,1.7c0,.1.1.19.15.09a4.18,4.18,0,0,0,.53-1.79C149.45,210.31,149.24,210.31,149.23,210.45Z"/><path class="cls-1" d="M158.49,207.17c-1.49,7.49-8.66,10.62-12.06,16.93a.21.21,0,0,0,.12.25.19.19,0,0,0,.2-.06c3.86-5.88,10.51-9.79,11.94-17.07C158.72,207.09,158.51,207,158.49,207.17Z"/><path class="cls-1" d="M151.81,141.89c-4.86,2.77-8.8,3.24-14.2,1.74a.09.09,0,0,0-.09,0,.08.08,0,0,0,0,.09,0,0,0,0,0,.05,0c5.2,1.58,9.72,1.39,14.3-1.76C152,142,151.87,141.86,151.81,141.89Z"/><path class="cls-1" d="M154.82,141.45h0c0-.29.21-.39.48-.39s.14-.25,0-.23C154.89,140.88,154.8,141,154.82,141.45Z"/><path class="cls-1" d="M62,130.63c-.08-.08-.21.05-.13.13a15.15,15.15,0,0,1,2.74,3.73c0,.11.21,0,.16-.09A15,15,0,0,0,62,130.63Z"/><path class="cls-1" d="M158.72,124.2a9.69,9.69,0,0,0,.27,2.52c0,.13.22.07.19,0a12.76,12.76,0,0,1-.23-2.47.11.11,0,0,0-.11-.12A.14.14,0,0,0,158.72,124.2Z"/><path class="cls-1" d="M161.2,128a7.57,7.57,0,0,0,.26-3.57c0-.17-.28-.1-.25.07A11.73,11.73,0,0,1,161,128C161,128.08,161.16,128.1,161.2,128Z"/><path class="cls-1" d="M161.79,133.63c2.62.37,6-1.4,4.9-4.46-.05-.13-.24-.08-.2,0,.82,2.82-2.15,4.45-4.6,4C161.64,133.21,161.54,133.6,161.79,133.63Z"/><path class="cls-1" d="M166.3,135.81a13.64,13.64,0,0,1-2.21.19.22.22,0,0,0-.15.24.19.19,0,0,0,.15.15,5.1,5.1,0,0,0,2.32-.32C166.57,136,166.45,135.79,166.3,135.81Z"/><path class="cls-1" d="M165.75,138.7c0-.21-.33-.21-.32,0a1.88,1.88,0,0,0,1.08,1.63c.18.1.34-.17.16-.27A1.59,1.59,0,0,1,165.75,138.7Z"/><path class="cls-1" d="M103.1,163.47a8.55,8.55,0,0,0-4.89-2.5c-1.81-.28-3.43,1.12-2.35,3a.16.16,0,0,0,.21.1.15.15,0,0,0,.09-.1,7.34,7.34,0,0,1,.22-1.38.14.14,0,0,0,.18.07,0,0,0,0,0,0,0c.5-.37,1.73.72,2.29.85a4.56,4.56,0,0,0,1.16.07,6,6,0,0,0,1.5.32,5.88,5.88,0,0,1,1.1.53,5.82,5.82,0,0,1,2.24,2.93c0,.09.2.09.19,0a5.69,5.69,0,0,0-1.35-3.23A4.59,4.59,0,0,0,103.1,163.47Z"/><path class="cls-1" d="M112.83,167.72c0,.16.17.22.25.11a7.87,7.87,0,0,1,2.48-2l.64-.36c.53.07,1,.21,1.57.27a2.65,2.65,0,0,0,1-.08.26.26,0,0,0,.24.11,1.64,1.64,0,0,0,1.3-.76,1,1,0,0,0,.42-.53,9.91,9.91,0,0,1,1.11.13.12.12,0,0,0,.17-.07.13.13,0,0,0-.07-.17,3.86,3.86,0,0,0-2.79-.61,6.23,6.23,0,0,0-4,1h-.09a.25.25,0,0,0-.14.16,4.56,4.56,0,0,0-.87.94h0A5.41,5.41,0,0,0,112.83,167.72Z"/><path class="cls-1" d="M43.84,52.15h-.67a.07.07,0,0,0,0,.08s0,0,0,0h.67S43.89,52.16,43.84,52.15Z"/><path class="cls-1" d="M43.46,198.36c.21,0,.31-.28.09-.33a6.82,6.82,0,0,1-4.6-2.89c-.07-.11-.26,0-.18.11A6.67,6.67,0,0,0,43.46,198.36Z"/><path class="cls-1" d="M17.05,191.08c-3.25-1.72,3.38-6.89,3.14-9.63a.1.1,0,0,0-.07-.13.11.11,0,0,0-.14.07v.06c.08,3.19-7.18,6.87-3.86,10,2.07,2,6.06-1.33,7.48,1.18.93,1.65,1.4,2.37,3.55,1.77a.21.21,0,0,0,.12-.29.23.23,0,0,0-.18-.13c-1.38,0-2.14,0-2.75-1.39a2.48,2.48,0,0,0-.95-1.26C21.33,190.22,19,192.09,17.05,191.08Z"/><path class="cls-1" d="M34.09,194.68a.23.23,0,0,0,.19-.28.25.25,0,0,0-.19-.19.24.24,0,0,0-.18.29A.24.24,0,0,0,34.09,194.68Z"/><path class="cls-1" d="M180.68,123.52c-4.62-2.54-1.73-9.79-.51-13.42,2-6,2.18-10.89-3.14-15.1-5.75-4.54-13.64,1.5-19.23,3.06a.15.15,0,0,0-.09.18.13.13,0,0,0,.17.09c3.76-1,7.19-2.84,10.91-4,7.26-2.19,13.17,4.18,11.94,11.12-.95,5.33-4.39,9.9-3,15.5a6,6,0,0,0,3.2,3.74c1.77.94,5.13.35,3.1,3.51-3.69,5.75-6.87,8-2.66,14.39a.2.2,0,0,0,.27.07.19.19,0,0,0,.06-.27h0c-3.83-6.66.17-9.44,3.54-14.72.41-.64.88-1.75.23-2.41C184.36,124.22,182,124.25,180.68,123.52Z"/><path class="cls-1" d="M174.31,196.26c.24-.61.59-1.16.81-1.77.07-.19-.2-.27-.3-.13a11.43,11.43,0,0,0-.93,1.72.24.24,0,0,0,.09.32.23.23,0,0,0,.31-.09A.08.08,0,0,0,174.31,196.26Z"/><path class="cls-1" d="M46.48,108.91a11.67,11.67,0,0,1-.13-2.21.26.26,0,0,0-.31-.21.29.29,0,0,0-.22.21A6.07,6.07,0,0,0,46.2,109a.15.15,0,0,0,.18.11A.14.14,0,0,0,46.48,108.91Z"/><path class="cls-1" d="M156.87,98.09a.92.92,0,0,0-1.13.55.12.12,0,0,0,0,.16.11.11,0,0,0,.15,0c.24-.38.52-.39.93-.45a.1.1,0,0,0,.09-.12A.11.11,0,0,0,156.87,98.09Z"/><path class="cls-1" d="M174,100.7c0-.14-.22-.14-.21,0a4,4,0,0,0,1.66,2.87c1.92,1.72,1.13,4.62,1,6.88a.16.16,0,0,0,.32,0c0-2,.31-3.89-.31-5.78C175.88,103,174.1,102.73,174,100.7Z"/><path class="cls-1" d="M178,127c-.07,2.77-.27,5.49-.52,8.25a.17.17,0,0,0,.33,0,33.84,33.84,0,0,0,.48-8.29.14.14,0,0,0-.19-.08A.17.17,0,0,0,178,127Z"/><path class="cls-1" d="M182.5,143.29c.28-.37.66-.25,1-.15a.2.2,0,0,0,.27-.1.21.21,0,0,0-.11-.27,1,1,0,0,0-1.4.17l-.11.16a.21.21,0,0,0,.08.27.19.19,0,0,0,.27-.08Z"/><path class="cls-1" d="M177.38,142.4a.05.05,0,0,0-.08,0,.06.06,0,0,0,0,.08,1.38,1.38,0,0,1,.47.72c0,.09.15.06.13,0A1.45,1.45,0,0,0,177.38,142.4Z"/><path class="cls-1" d="M181.8,145.08a5,5,0,0,1,3.56,1.95c.81,1.22.48,2.83.08,4.12-.07.2.23.28.3.09a4.28,4.28,0,0,0-3.87-6.37A.11.11,0,1,0,181.8,145.08Z"/><path class="cls-1" d="M194.19,83.28c.08.18.38,0,.31-.13-1.92-4.92-6-4-10.42-3-6.39,1.36-10.75-1-12.87-7.3-.73-2.18-1.44-3.85-3.38-5.18C162.38,64,154.71,68.21,150,71c-5,3-23.48,15.72-24.51,2.62-.42-5.28,2.83-11.14-.67-15.93-3.3-4.51-9.75-1.36-13,1.33-5.92,4.93-10.72,14.59-18.4,16.69-5.33,1.45-11.54-4.44-15-7.55-4.86-4.33-8-9.88-8.34-16.44,0-.22-.35-.22-.34,0,.31,8.43,5.4,14.88,11.93,19.84,5.34,4.06,10.51,6.83,16.47,2.5,6.49-4.71,10.08-12.25,17.09-16.48,6.22-3.75,11,.89,10.57,7.23-.2,3.26-1.08,6.39-.85,9.67.36,5.08,5.87,5.83,9.91,5.14C143,78.26,149.49,71.18,157,68.17c5.59-2.23,11.69-1.31,13.72,4.81.8,2.43,2.09,5.29,4.36,6.71C181,83.32,191.08,76,194.19,83.28Z"/><path class="cls-1" d="M194.84,86.29a.09.09,0,0,0,.07-.12.12.12,0,0,0-.07-.07.1.1,0,0,0-.06.13A.09.09,0,0,0,194.84,86.29Z"/><path class="cls-1" d="M201.84,111.4a.2.2,0,0,0,.16-.25.2.2,0,0,0-.16-.16c-7.88-.25-3.06-6.86-1.29-10.17a.23.23,0,0,0-.1-.33l0,0c-4.82-2,2.4-10.34-2-13.84-.1-.07-.24,0-.14.15,3.68,3.59-.43,6.9-.49,10.77,0,1.84,2.31,3.16,1.58,4.46C196.88,106.44,194.43,111.81,201.84,111.4Z"/><path class="cls-1" d="M85.38,17.34c.17,0,.13-.32,0-.3C73.2,18.36,68.86,34,67.71,44.2c0,.21.31.2.33,0C69.23,33.9,73.46,19.2,85.38,17.34Z"/><path class="cls-1" d="M88.55,16.7c0-1.55,1.13-2.73,2.73-2.31a.2.2,0,0,0,.25-.14.2.2,0,0,0-.14-.25h0c-1.87-.65-3.24.91-3.27,2.7a.23.23,0,0,0,.27.17A.2.2,0,0,0,88.55,16.7Z"/><path class="cls-1" d="M36.76,71.77A3.92,3.92,0,0,1,37.49,70,2.11,2.11,0,0,0,36.76,71.77Z"/><path class="cls-1" d="M42,49.25c.09-.25-.29-.34-.38-.11a9.92,9.92,0,0,0,0,7.27c1.21,3.59,6.08,9.71-.06,11.37A7.48,7.48,0,0,0,37.51,70c1.66-1.48,5.67-1.39,6.69-2.9,1.27-1.85,1.07-3.69.37-5.75C43.09,57.1,40.28,54.12,42,49.25Z"/><path class="cls-1" d="M38.21,79a.44.44,0,0,0-.41-.31C30.53,78.68,29.05,84,25.1,89c-.27.33.17.8.48.48,2.24-2.34,3.54-5.32,5.69-7.72a35,35,0,0,1,6.16-2.41.43.43,0,0,0,.52.3.42.42,0,0,0,.29-.3c.83-2.12.41-3.23-.67-5.16a5.4,5.4,0,0,1-.81-2.38C36.43,73.69,37.27,76.1,38.21,79Z"/><path class="cls-1" d="M51.72,34.08c-3,3.52-5.56,7.41-8.52,11-.15.19.11.45.27.27,3-3.53,5.52-7.45,8.48-11C52.09,34.15,51.86,33.92,51.72,34.08Z"/><path class="cls-1" d="M190,94.8a.14.14,0,0,0-.17,0,.13.13,0,0,0,0,.12c2.87,5.14-1,10.48,1.56,15.51,1.89,3.65,7.23,5.16,9.68,8.54a.23.23,0,0,0,.31.07.23.23,0,0,0,.07-.29c-1.85-3.7-6.16-5.21-9-8C188.54,107,192.7,99.51,190,94.8Z"/><path class="cls-1" d="M156.43,345.61l.43-.19c7.24-5.78,14.93-10.94,22.4-16.41.17-.13,0-.42-.18-.29-7.63,5.46-15.38,10.77-22.66,16.72A.1.1,0,0,0,156.43,345.61Z"/></g></g></g></g></svg>